<?xml version="1.0" encoding="UTF-8"?> <svg xmlns="http://www.w3.org/2000/svg" width="125" height="80" viewBox="0 0 125 80" fill="none"> <path d="M9.395 32.505L9.2079 32.9687L9.2079 32.9687L9.395 32.505ZM5.03 29.445L4.65267 29.7731L4.6563 29.7772L5.03 29.445ZM2.24 24.36L1.76427 24.5139L1.76495 24.516L2.24 24.36ZM2.24 10.275L2.71505 10.431L2.71572 10.4289L2.24 10.275ZM5.03 5.19L5.40373 5.5222L5.4073 5.51809L5.03 5.19ZM9.395 2.085L9.2079 1.62132L9.2079 1.62132L9.395 2.085ZM20.735 2.085L20.5479 2.54867L20.5479 2.54867L20.735 2.085ZM25.1 5.19L24.7227 5.51811L24.7263 5.52218L25.1 5.19ZM27.89 10.275L27.4143 10.4289L27.415 10.431L27.89 10.275ZM27.89 24.36L28.3651 24.516L28.3657 24.5139L27.89 24.36ZM25.1 29.445L25.4737 29.7772L25.4773 29.7731L25.1 29.445ZM20.735 32.505L20.5479 32.0413L20.5479 32.0413L20.735 32.505ZM19.88 25.44L19.5021 25.1125L19.498 25.1174L19.88 25.44ZM19.88 9.15L19.498 9.47262L19.5022 9.47746L19.88 9.15ZM10.205 9.15L9.82712 8.82251L9.82299 8.82741L10.205 9.15ZM10.205 25.44L9.82295 25.7626L9.82716 25.7675L10.205 25.44ZM15.065 33.04C14.5852 33.04 14.1162 33.021 13.6579 32.983L13.5754 33.9796C14.0622 34.0199 14.5588 34.04 15.065 34.04V33.04ZM10.9025 32.4924C10.4502 32.3644 10.0101 32.214 9.5821 32.0413L9.2079 32.9687C9.66975 33.155 10.1439 33.317 10.6301 33.4546L10.9025 32.4924ZM9.5821 32.0413C9.17747 31.8781 8.78836 31.6958 8.41464 31.4947L7.94077 32.3753C8.34763 32.5942 8.77006 32.792 9.2079 32.9687L9.5821 32.0413ZM6.31196 30.0237C5.99422 29.7401 5.69147 29.4366 5.4037 29.1128L4.6563 29.7772C4.96927 30.1293 5.29922 30.4602 5.64613 30.7698L6.31196 30.0237ZM5.4073 29.1169C5.10445 28.7686 4.81911 28.399 4.55134 28.0077L3.72609 28.5725C4.01511 28.9948 4.32396 29.395 4.6527 29.7731L5.4073 29.1169ZM3.21151 25.5324C3.03183 25.1074 2.86631 24.6647 2.71505 24.204L1.76495 24.516C1.92442 25.0016 2.09955 25.4703 2.29044 25.9218L3.21151 25.5324ZM2.71572 24.2061C2.62776 23.9342 2.54574 23.6562 2.46968 23.3722L1.5037 23.6308C1.58406 23.9309 1.67091 24.2253 1.76428 24.5139L2.71572 24.2061ZM2.09769 21.6675C2.00139 21.1088 1.92497 20.5299 1.86859 19.9307L0.872985 20.0244C0.931633 20.6477 1.01133 21.252 1.11223 21.8374L2.09769 21.6675ZM1.7625 18.1761C1.75417 17.8866 1.75 17.5929 1.75 17.295H0.75C0.75 17.6022 0.754302 17.9055 0.762917 18.2048L1.7625 18.1761ZM1.75 17.295C1.75 16.9988 1.75413 16.7069 1.76236 16.4193L0.762774 16.3907C0.754254 16.6881 0.75 16.9895 0.75 17.295H1.75ZM1.86755 14.6758C1.92365 14.0794 1.99974 13.5043 2.09566 12.9503L1.11033 12.7797C1.00972 13.3607 0.930319 13.9615 0.871946 14.5821L1.86755 14.6758ZM2.46788 11.258C2.54425 10.9758 2.62665 10.7002 2.71505 10.431L1.76495 10.119C1.6709 10.4054 1.58347 10.698 1.50262 10.9967L2.46788 11.258ZM2.71572 10.4289C2.86548 9.96602 3.02918 9.52241 3.20669 9.09793L2.28411 8.71213C2.09536 9.16349 1.92213 9.63319 1.76428 10.1211L2.71572 10.4289ZM4.54226 6.62304C4.81171 6.23197 5.09889 5.8651 5.4037 5.52218L4.6563 4.85782C4.32333 5.2324 4.01086 5.63177 3.7188 6.05566L4.54226 6.62304ZM5.4073 5.51809C5.69363 5.18881 5.99472 4.88048 6.31055 4.59293L5.63733 3.85349C5.29224 4.16768 4.96403 4.50387 4.6527 4.86191L5.4073 5.51809ZM8.41124 3.09988C8.78601 2.8962 9.17624 2.71244 9.5821 2.54867L9.2079 1.62132C8.76752 1.79902 8.34275 1.99896 7.93374 2.22124L8.41124 3.09988ZM9.5821 2.54867C10.0101 2.37598 10.4502 2.22559 10.9025 2.09758L10.6301 1.13538C10.1439 1.27301 9.66974 1.43497 9.2079 1.62132L9.5821 2.54867ZM13.6579 1.607C14.1162 1.56904 14.5852 1.55 15.065 1.55V0.549998C14.5588 0.549998 14.0622 0.570093 13.5754 0.610413L13.6579 1.607ZM15.065 1.55C15.5448 1.55 16.0138 1.56904 16.4721 1.607L16.5547 0.610413C16.0678 0.570093 15.5712 0.549998 15.065 0.549998V1.55ZM19.2275 2.09758C19.6798 2.22559 20.1199 2.37598 20.5479 2.54867L20.9221 1.62132C20.4603 1.43497 19.9861 1.27301 19.4999 1.13538L19.2275 2.09758ZM20.5479 2.54867C20.9538 2.71244 21.344 2.8962 21.7188 3.09988L22.1963 2.22124C21.7873 1.99896 21.3625 1.79902 20.9221 1.62132L20.5479 2.54867ZM23.8195 4.59293C24.1353 4.88048 24.4364 5.18881 24.7227 5.51809L25.4773 4.86191C25.166 4.50387 24.8378 4.16768 24.4927 3.85349L23.8195 4.59293ZM24.7263 5.52218C25.0311 5.8651 25.3183 6.23197 25.5877 6.62304L26.4112 6.05566C26.1191 5.63177 25.8067 5.2324 25.4737 4.85782L24.7263 5.52218ZM26.9233 9.09793C27.1008 9.52241 27.2645 9.96602 27.4143 10.4289L28.3657 10.1211C28.2079 9.63319 28.0346 9.16349 27.8459 8.71213L26.9233 9.09793ZM27.415 10.431C27.5033 10.7002 27.5857 10.9758 27.6621 11.258L28.6274 10.9967C28.5465 10.698 28.4591 10.4054 28.365 10.119L27.415 10.431ZM28.0343 12.9503C28.1303 13.5043 28.2064 14.0794 28.2624 14.6758L29.2581 14.5821C29.1997 13.9615 29.1203 13.3607 29.0197 12.7797L28.0343 12.9503ZM28.3676 16.4193C28.3759 16.7069 28.38 16.9988 28.38 17.295H29.38C29.38 16.9895 29.3757 16.6881 29.3672 16.3907L28.3676 16.4193ZM28.38 17.295C28.38 17.5929 28.3758 17.8866 28.3675 18.1761L29.3671 18.2048C29.3757 17.9055 29.38 17.6022 29.38 17.295H28.38ZM28.2614 19.9307C28.205 20.5299 28.1286 21.1088 28.0323 21.6675L29.0178 21.8374C29.1187 21.252 29.1984 20.6477 29.257 20.0244L28.2614 19.9307ZM27.6603 23.3722C27.5843 23.6562 27.5022 23.9342 27.4143 24.2061L28.3657 24.5139C28.4591 24.2253 28.5459 23.9309 28.6263 23.6308L27.6603 23.3722ZM27.415 24.204C27.2637 24.6647 27.0982 25.1074 26.9185 25.5324L27.8396 25.9218C28.0305 25.4703 28.2056 25.0016 28.365 24.516L27.415 24.204ZM25.5787 28.0077C25.3109 28.399 25.0255 28.7686 24.7227 29.1169L25.4773 29.7731C25.806 29.395 26.1149 28.9948 26.4039 28.5725L25.5787 28.0077ZM24.7263 29.1128C24.4385 29.4366 24.1358 29.7401 23.818 30.0237L24.4839 30.7698C24.8308 30.4602 25.1607 30.1293 25.4737 29.7772L24.7263 29.1128ZM21.7154 31.4947C21.3416 31.6958 20.9525 31.8781 20.5479 32.0413L20.9221 32.9687C21.3599 32.792 21.7824 32.5942 22.1892 32.3753L21.7154 31.4947ZM20.5479 32.0413C20.1199 32.214 19.6798 32.3644 19.2275 32.4924L19.4999 33.4546C19.9861 33.317 20.4603 33.155 20.9221 32.9687L20.5479 32.0413ZM16.4721 32.983C16.0138 33.021 15.5448 33.04 15.065 33.04V34.04C15.5712 34.04 16.0678 34.0199 16.5547 33.9796L16.4721 32.983ZM15.065 26.965C14.6146 26.965 14.1906 26.9313 13.7923 26.865L13.6282 27.8515C14.0856 27.9275 14.5648 27.965 15.065 27.965V26.965ZM11.4973 25.9477C11.1664 25.712 10.8616 25.4341 10.5828 25.1125L9.82716 25.7675C10.156 26.1468 10.5193 26.4789 10.9172 26.7622L11.4973 25.9477ZM10.587 25.1174C10.4368 24.9396 10.2971 24.7501 10.1678 24.5488L9.32639 25.0892C9.47865 25.3263 9.64416 25.5508 9.82299 25.7626L10.587 25.1174ZM9.54231 23.2646C9.38713 22.8332 9.26398 22.3636 9.1741 21.8545L8.18933 22.0284C8.28807 22.5876 8.42499 23.1129 8.60134 23.6031L9.54231 23.2646ZM9.01313 20.3824C9.00106 20.1401 8.995 19.891 8.995 19.635H7.995C7.995 19.9067 8.00143 20.1724 8.01436 20.4321L9.01313 20.3824ZM8.995 19.635V18.465H7.995V19.635H8.995ZM8.995 16.125V14.955H7.995V16.125H8.995ZM8.995 14.955C8.995 14.699 9.00106 14.4499 9.01313 14.2076L8.01436 14.1579C8.00143 14.4176 7.995 14.6833 7.995 14.955H8.995ZM9.1741 12.7355C9.26398 12.2264 9.38713 11.7568 9.54231 11.3254L8.60134 10.9869C8.42499 11.4771 8.28807 12.0024 8.18933 12.5616L9.1741 12.7355ZM10.1678 10.0412C10.2971 9.83989 10.4368 9.65044 10.587 9.47259L9.82299 8.82741C9.64416 9.03918 9.47865 9.26371 9.32639 9.50077L10.1678 10.0412ZM10.5828 9.47746C10.8616 9.15588 11.1664 8.87796 11.4973 8.64233L10.9172 7.82775C10.5193 8.1111 10.156 8.44316 9.82716 8.82253L10.5828 9.47746ZM13.7923 7.72498C14.1906 7.65872 14.6146 7.625 15.065 7.625V6.625C14.5648 6.625 14.0856 6.66245 13.6282 6.73854L13.7923 7.72498ZM15.065 7.625C15.513 7.625 15.9339 7.65836 16.3286 7.72387L16.4924 6.73736C16.0385 6.66204 15.5625 6.625 15.065 6.625V7.625ZM18.601 8.63721C18.9271 8.87269 19.2261 9.15066 19.498 9.47259L20.262 8.82741C19.9395 8.44547 19.5809 8.11132 19.1863 7.82643L18.601 8.63721ZM19.5022 9.47746C19.6554 9.65432 19.7981 9.84256 19.93 10.0424L20.7645 9.49137C20.609 9.25588 20.4401 9.03287 20.2578 8.82253L19.5022 9.47746ZM20.5713 11.3221C20.731 11.7532 20.8577 12.2227 20.9503 12.7317L21.9342 12.5528C21.8322 11.9923 21.6909 11.4659 21.509 10.9747L20.5713 11.3221ZM21.1163 14.206C21.1287 14.4488 21.135 14.6985 21.135 14.955H22.135C22.135 14.6822 22.1284 14.4155 22.115 14.1548L21.1163 14.206ZM21.135 14.955V16.125H22.135V14.955H21.135ZM21.135 18.465V19.635H22.135V18.465H21.135ZM21.135 19.635C21.135 19.8915 21.1287 20.1412 21.1163 20.384L22.115 20.4352C22.1284 20.1745 22.135 19.9078 22.135 19.635H21.135ZM20.9503 21.8583C20.8577 22.3673 20.731 22.8368 20.5713 23.2679L21.509 23.6153C21.6909 23.1241 21.8322 22.5977 21.9342 22.0372L20.9503 21.8583ZM19.93 24.5476C19.7981 24.7474 19.6554 24.9357 19.5022 25.1125L20.2578 25.7675C20.4401 25.5571 20.609 25.3341 20.7645 25.0986L19.93 24.5476ZM19.498 25.1174C19.2261 25.4393 18.9271 25.7173 18.601 25.9528L19.1863 26.7636C19.5809 26.4787 19.9395 26.1445 20.262 25.7626L19.498 25.1174ZM16.3286 26.8661C15.9339 26.9316 15.513 26.965 15.065 26.965V27.965C15.5625 27.965 16.0385 27.928 16.4923 27.8526L16.3286 26.8661ZM9.395 32.505L9.02081 33.4324L9.02081 33.4324L9.395 32.505ZM5.03 29.445L4.27535 30.1012L4.28259 30.1094L5.03 29.445ZM2.24 24.36L1.28855 24.6678L1.28991 24.672L2.24 24.36ZM2.24 10.275L3.1901 10.587L3.19144 10.5828L2.24 10.275ZM5.03 5.19L5.77745 5.8544L5.78461 5.84618L5.03 5.19ZM9.395 2.085L9.02081 1.15765L9.02081 1.15765L9.395 2.085ZM20.735 2.085L20.3608 3.01235L20.3608 3.01235L20.735 2.085ZM25.1 5.19L24.3454 5.84622L24.3526 5.85436L25.1 5.19ZM27.89 10.275L26.9385 10.5828L26.9399 10.587L27.89 10.275ZM27.89 24.36L28.8401 24.672L28.8414 24.6678L27.89 24.36ZM25.1 29.445L25.8475 30.1094L25.8546 30.1012L25.1 29.445ZM20.735 32.505L20.3608 31.5776L20.3608 31.5776L20.735 32.505ZM19.88 25.44L19.1242 24.785L19.116 24.7948L19.88 25.44ZM19.88 9.15L19.1159 9.79523L19.1243 9.80493L19.88 9.15ZM10.205 9.15L9.44925 8.49501L9.44097 8.50482L10.205 9.15ZM10.205 25.44L9.44091 26.0852L9.44931 26.0949L10.205 25.44ZM15.065 32.54C14.5985 32.54 14.1432 32.5215 13.6992 32.4847L13.5341 34.4779C14.0352 34.5194 14.5455 34.54 15.065 34.54V32.54ZM11.0386 32.0113C10.6033 31.8881 10.1803 31.7435 9.76919 31.5776L9.02081 33.4324C9.49957 33.6255 9.99071 33.7933 10.494 33.9357L11.0386 32.0113ZM9.76919 31.5776C9.38117 31.4211 9.00873 31.2466 8.65157 31.0544L7.70384 32.8156C8.12726 33.0435 8.56635 33.249 9.02081 33.4324L9.76919 31.5776ZM6.64487 29.6506C6.34172 29.3801 6.05257 29.0902 5.77741 28.7806L4.28259 30.1094C4.60817 30.4756 4.95172 30.8202 5.31322 31.1428L6.64487 29.6506ZM5.78461 28.7888C5.4947 28.4554 5.22112 28.101 4.96396 27.7253L3.31347 28.8548C3.6131 29.2927 3.93371 29.7082 4.27539 30.1012L5.78461 28.7888ZM3.67204 25.3377C3.49798 24.926 3.33725 24.4962 3.19009 24.048L1.28991 24.672C1.45348 25.1701 1.6334 25.6517 1.82991 26.1165L3.67204 25.3377ZM3.19144 24.0522C3.10618 23.7886 3.02657 23.5189 2.95267 23.2428L1.02071 23.7601C1.10323 24.0683 1.19249 24.3709 1.28856 24.6678L3.19144 24.0522ZM2.59043 21.5826C2.49642 21.0372 2.42164 20.471 2.36639 19.8839L0.375184 20.0712C0.434964 20.7065 0.516298 21.3236 0.619491 21.9223L2.59043 21.5826ZM2.2623 18.1617C2.25411 17.8771 2.25 17.5882 2.25 17.295H0.25C0.25 17.6069 0.254367 17.9149 0.263124 18.2192L2.2623 18.1617ZM2.25 17.295C2.25 17.0034 2.25406 16.7163 2.26216 16.4337L0.26298 16.3764C0.254319 16.6787 0.25 16.9849 0.25 17.295H2.25ZM2.36536 14.7226C2.42031 14.1383 2.49474 13.5761 2.58833 13.0356L0.617659 12.6944C0.514717 13.2889 0.433655 13.9026 0.374144 14.5353L2.36536 14.7226ZM2.95051 11.3886C3.02465 11.1148 3.10453 10.8476 3.19009 10.587L1.28991 9.96303C1.19303 10.2581 1.10307 10.5591 1.01998 10.8661L2.95051 11.3886ZM3.19144 10.5828C3.33716 10.1324 3.49609 9.70187 3.66798 9.29083L1.82282 8.51922C1.62845 8.98403 1.45045 9.46678 1.28856 9.96718L3.19144 10.5828ZM4.95399 6.90672C5.21213 6.53206 5.48667 6.18145 5.77741 5.85436L4.28259 4.52563C3.93555 4.91606 3.61044 5.33168 3.30706 5.77198L4.95399 6.90672ZM5.78461 5.84618C6.05844 5.53127 6.34596 5.23688 6.64716 4.96265L5.30072 3.48377C4.94099 3.81128 4.59923 4.16141 4.27539 4.53382L5.78461 5.84618ZM8.64999 3.53919C9.00764 3.34482 9.3806 3.16915 9.76919 3.01235L9.02081 1.15765C8.56316 1.34231 8.12112 1.55034 7.69499 1.78193L8.64999 3.53919ZM9.76919 3.01235C10.1803 2.84648 10.6033 2.70189 11.0386 2.57869L10.494 0.654276C9.99071 0.796712 9.49957 0.964461 9.02081 1.15765L9.76919 3.01235ZM13.6992 2.10529C14.1432 2.06852 14.5985 2.05 15.065 2.05V0.0499983C14.5455 0.0499983 14.0352 0.0706184 13.5341 0.112119L13.6992 2.10529ZM15.065 2.05C15.5315 2.05 15.9868 2.06852 16.4308 2.10529L16.5959 0.112119C16.0948 0.0706184 15.5845 0.0499983 15.065 0.0499983V2.05ZM19.0914 2.57869C19.5267 2.70189 19.9497 2.84648 20.3608 3.01235L21.1092 1.15765C20.6304 0.964461 20.1393 0.796712 19.636 0.654276L19.0914 2.57869ZM20.3608 3.01235C20.7494 3.16915 21.1224 3.34482 21.48 3.53919L22.435 1.78193C22.0089 1.55034 21.5668 1.34231 21.1092 1.15765L20.3608 3.01235ZM23.4828 4.96265C23.784 5.23688 24.0716 5.53127 24.3454 5.84618L25.8546 4.53382C25.5308 4.16141 25.189 3.81128 24.8293 3.48377L23.4828 4.96265ZM24.3526 5.85436C24.6433 6.18145 24.9179 6.53206 25.176 6.90672L26.8229 5.77198C26.5196 5.33168 26.1945 4.91606 25.8474 4.52564L24.3526 5.85436ZM26.462 9.29083C26.6339 9.70187 26.7928 10.1324 26.9386 10.5828L28.8414 9.96718C28.6795 9.46678 28.5016 8.98403 28.3072 8.51922L26.462 9.29083ZM26.9399 10.587C27.0255 10.8476 27.1054 11.1148 27.1795 11.3886L29.11 10.8661C29.0269 10.5591 28.937 10.2581 28.8401 9.96303L26.9399 10.587ZM27.5417 13.0356C27.6353 13.5761 27.7097 14.1383 27.7646 14.7226L29.7559 14.5353C29.6963 13.9026 29.6153 13.2889 29.5123 12.6944L27.5417 13.0356ZM27.8678 16.4337C27.8759 16.7163 27.88 17.0034 27.88 17.295H29.88C29.88 16.9849 29.8757 16.6787 29.867 16.3764L27.8678 16.4337ZM27.88 17.295C27.88 17.5882 27.8759 17.8771 27.8677 18.1617L29.8669 18.2192C29.8756 17.9149 29.88 17.6069 29.88 17.295H27.88ZM27.7636 19.8839C27.7084 20.471 27.6336 21.0372 27.5396 21.5826L29.5105 21.9223C29.6137 21.3236 29.695 20.7065 29.7548 20.0712L27.7636 19.8839ZM27.1773 23.2428C27.1034 23.5189 27.0238 23.7886 26.9386 24.0522L28.8414 24.6678C28.9375 24.3709 29.0268 24.0683 29.1093 23.7601L27.1773 23.2428ZM26.9399 24.048C26.7928 24.4962 26.632 24.926 26.458 25.3377L28.3001 26.1165C28.4966 25.6517 28.6765 25.1701 28.8401 24.672L26.9399 24.048ZM25.166 27.7253C24.9089 28.101 24.6353 28.4554 24.3454 28.7888L25.8546 30.1012C26.1963 29.7082 26.5169 29.2927 26.8165 28.8548L25.166 27.7253ZM24.3526 28.7806C24.0774 29.0902 23.7883 29.3801 23.4851 29.6506L24.8168 31.1428C25.1783 30.8202 25.5218 30.4756 25.8474 30.1094L24.3526 28.7806ZM21.4784 31.0544C21.1213 31.2466 20.7488 31.4211 20.3608 31.5776L21.1092 33.4324C21.5636 33.249 22.0027 33.0435 22.4262 32.8156L21.4784 31.0544ZM20.3608 31.5776C19.9497 31.7435 19.5267 31.8881 19.0914 32.0113L19.636 33.9357C20.1393 33.7933 20.6304 33.6255 21.1092 33.4324L20.3608 31.5776ZM16.4308 32.4847C15.9868 32.5215 15.5315 32.54 15.065 32.54V34.54C15.5845 34.54 16.0948 34.5194 16.5959 34.4779L16.4308 32.4847ZM15.065 26.465C14.6395 26.465 14.2431 26.4331 13.8744 26.3718L13.5462 28.3447C14.0331 28.4257 14.5399 28.465 15.065 28.465V26.465ZM11.7873 25.5404C11.4899 25.3286 11.2144 25.0778 10.9607 24.7851L9.44931 26.0949C9.80315 26.5032 10.1958 26.8623 10.6272 27.1695L11.7873 25.5404ZM10.969 24.7948C10.8332 24.6339 10.7063 24.462 10.5885 24.2786L8.90568 25.3594C9.06943 25.6144 9.24782 25.8565 9.44097 26.0852L10.969 24.7948ZM10.0128 23.0953C9.86821 22.6934 9.75194 22.2516 9.66648 21.7676L7.69695 22.1154C7.80011 22.6996 7.94392 23.2527 8.13086 23.7723L10.0128 23.0953ZM9.51251 20.3575C9.50088 20.1239 9.495 19.8831 9.495 19.635H7.495C7.495 19.9146 7.50162 20.1886 7.51498 20.457L9.51251 20.3575ZM9.495 19.635V18.465H7.495V19.635H9.495ZM9.495 16.125V14.955H7.495V16.125H9.495ZM9.495 14.955C9.495 14.7069 9.50088 14.4661 9.51251 14.2324L7.51498 14.133C7.50162 14.4014 7.495 14.6754 7.495 14.955H9.495ZM9.66648 12.8224C9.75194 12.3384 9.86821 11.8966 10.0128 11.4947L8.13086 10.8177C7.94392 11.3373 7.80011 11.8904 7.69695 12.4746L9.66648 12.8224ZM10.5885 10.3114C10.7063 10.128 10.8332 9.95607 10.969 9.79518L9.44097 8.50482C9.24782 8.73354 9.06943 8.97562 8.90568 9.23057L10.5885 10.3114ZM10.9607 9.80493C11.2144 9.51224 11.4899 9.26139 11.7873 9.04962L10.6272 7.42046C10.1958 7.72767 9.80315 8.08679 9.44931 8.49507L10.9607 9.80493ZM13.8744 8.21821C14.2431 8.15686 14.6395 8.125 15.065 8.125V6.125C14.5399 6.125 14.0331 6.16431 13.5462 6.24532L13.8744 8.21821ZM15.065 8.125C15.4882 8.125 15.8816 8.15652 16.2468 8.21712L16.5742 6.24411C16.0908 6.16388 15.5873 6.125 15.065 6.125V8.125ZM18.3083 9.0426C18.6002 9.25337 18.8695 9.50326 19.116 9.79518L20.644 8.50482C20.2962 8.09287 19.9078 7.73064 19.479 7.42104L18.3083 9.0426ZM19.1243 9.80493C19.2631 9.96505 19.3926 10.1359 19.5128 10.3179L21.1817 9.21585C21.0145 8.96254 20.8325 8.72214 20.6357 8.49507L19.1243 9.80493ZM20.1024 11.4958C20.251 11.8969 20.3705 12.3379 20.4584 12.8212L22.4261 12.4633C22.3195 11.8771 22.1709 11.3223 21.9779 10.8011L20.1024 11.4958ZM20.617 14.2316C20.6289 14.4655 20.635 14.7066 20.635 14.955H22.635C22.635 14.6741 22.6282 14.3988 22.6143 14.1292L20.617 14.2316ZM20.635 14.955V16.125H22.635V14.955H20.635ZM20.635 18.465V19.635H22.635V18.465H20.635ZM20.635 19.635C20.635 19.8834 20.6289 20.1245 20.617 20.3584L22.6143 20.4608C22.6282 20.1911 22.635 19.9159 22.635 19.635H20.635ZM20.4584 21.7688C20.3705 22.2521 20.251 22.6931 20.1024 23.0942L21.9779 23.7889C22.1709 23.2677 22.3195 22.7129 22.4261 22.1267L20.4584 21.7688ZM19.5128 24.2721C19.3926 24.4541 19.2631 24.6249 19.1243 24.7851L20.6357 26.0949C20.8325 25.8679 21.0145 25.6275 21.1817 25.3741L19.5128 24.2721ZM19.116 24.7948C18.8695 25.0867 18.6002 25.3366 18.3083 25.5474L19.479 27.169C19.9078 26.8594 20.2962 26.4971 20.644 26.0852L19.116 24.7948ZM16.2467 26.3729C15.8816 26.4335 15.4882 26.465 15.065 26.465V28.465C15.5873 28.465 16.0908 28.4261 16.5742 28.3459L16.2467 26.3729ZM41.429 33V33.5H41.929V33H41.429ZM34.589 33H34.089V33.5H34.589V33ZM34.589 1.59V1.09H34.089V1.59H34.589ZM53.399 2.31L53.5888 1.84741L53.5888 1.84741L53.399 2.31ZM56.369 4.38L55.9974 4.71448L56.0032 4.72099L56.0093 4.7273L56.369 4.38ZM57.539 17.205L57.111 16.9465L57.1074 16.9526L57.539 17.205ZM53.264 20.67L53.0885 20.2018L52.5684 20.3968L52.8168 20.8936L53.264 20.67ZM59.429 33V33.5H60.238L59.8762 32.7764L59.429 33ZM51.824 33L51.3727 33.2151L51.5084 33.5H51.824V33ZM46.334 21.48L46.7854 21.2649L46.6496 20.98H46.334V21.48ZM41.429 21.48V20.98H40.929V21.48H41.429ZM51.014 14.955L51.3474 15.3276L51.3485 15.3266L51.014 14.955ZM51.014 8.34L50.6702 8.70297L50.6799 8.71224L50.6902 8.72097L51.014 8.34ZM41.429 7.53V7.03H40.929V7.53H41.429ZM41.429 15.72H40.929V16.22H41.429V15.72ZM41.429 32.5H40.574V33.5H41.429V32.5ZM38.864 32.5H37.154V33.5H38.864V32.5ZM35.444 32.5H34.589V33.5H35.444V32.5ZM35.089 33V32.0184H34.089V33H35.089ZM35.089 30.0553V28.0922H34.089V30.0553H35.089ZM35.089 26.1291V24.1659H34.089V26.1291H35.089ZM35.089 22.2028V20.2397H34.089V22.2028H35.089ZM35.089 18.2766V16.3134H34.089V18.2766H35.089ZM35.089 14.3503V12.3872H34.089V14.3503H35.089ZM35.089 10.4241V8.46094H34.089V10.4241H35.089ZM35.089 6.49781V4.53469H34.089V6.49781H35.089ZM35.089 2.57156V1.59H34.089V2.57156H35.089ZM34.589 2.09H35.52V1.09H34.589V2.09ZM37.3818 2.09H39.2437V1.09H37.3818V2.09ZM41.1056 2.09H42.9675V1.09H41.1056V2.09ZM44.8293 2.09H46.6912V1.09H44.8293V2.09ZM48.5531 2.09H49.484V1.09H48.5531V2.09ZM49.484 2.09C49.8119 2.09 50.1317 2.10294 50.4434 2.1287L50.5257 1.13209C50.1855 1.10398 49.8383 1.09 49.484 1.09V2.09ZM52.3158 2.46334C52.6229 2.55107 52.9207 2.65418 53.2092 2.77258L53.5888 1.84741C53.2653 1.71468 52.9324 1.59951 52.5905 1.50181L52.3158 2.46334ZM53.2092 2.77258C53.4794 2.88341 53.7387 3.00578 53.9872 3.1396L54.4613 2.25911C54.1811 2.10829 53.8903 1.9711 53.5888 1.84741L53.2092 2.77258ZM55.3901 4.11326C55.6031 4.30096 55.8055 4.50133 55.9974 4.71448L56.7407 4.04552C56.5233 3.80394 56.2934 3.5764 56.0513 3.36299L55.3901 4.11326ZM56.0093 4.7273C56.2117 4.93685 56.402 5.15756 56.5804 5.38952L57.3731 4.77993C57.172 4.5184 56.9572 4.2693 56.7287 4.0327L56.0093 4.7273ZM57.493 6.88637C57.6172 7.14753 57.7311 7.41929 57.8345 7.70179L58.7736 7.35821C58.6599 7.04745 58.534 6.74688 58.3959 6.45665L57.493 6.88637ZM57.8345 7.70179C57.9466 8.00831 58.0442 8.32421 58.1273 8.64961L59.0962 8.40236C59.0051 8.04518 58.8976 7.69709 58.7736 7.35821L57.8345 7.70179ZM58.4426 10.6199C58.4668 10.9469 58.479 11.2819 58.479 11.625H59.479C59.479 11.2582 59.466 10.8985 59.4399 10.5459L58.4426 10.6199ZM58.479 11.625C58.479 12.1077 58.4535 12.5744 58.4027 13.0253L59.3964 13.1371C59.4516 12.647 59.479 12.1429 59.479 11.625H58.479ZM57.7308 15.7132C57.5551 16.1421 57.3485 16.5531 57.111 16.9466L57.9671 17.4634C58.2314 17.0256 58.4611 16.5684 58.6562 16.0922L57.7308 15.7132ZM57.1074 16.9526C56.8836 17.3353 56.6296 17.6902 56.3456 18.0178L57.1011 18.6729C57.4264 18.2978 57.7162 17.8925 57.9706 17.4574L57.1074 16.9526ZM54.2999 19.6493C53.9243 19.8555 53.5206 20.0398 53.0885 20.2018L53.4396 21.1382C53.9135 20.9604 54.3608 20.7566 54.781 20.526L54.2999 19.6493ZM52.8168 20.8936L53.3306 21.9211L54.225 21.4739L53.7112 20.4464L52.8168 20.8936ZM54.3581 23.9761L55.3856 26.0311L56.28 25.5839L55.2525 23.5289L54.3581 23.9761ZM56.4131 28.0861L57.4406 30.1411L58.335 29.6939L57.3075 27.6389L56.4131 28.0861ZM58.4681 32.1961L58.9818 33.2236L59.8762 32.7764L59.3625 31.7489L58.4681 32.1961ZM59.429 32.5H58.4784V33.5H59.429V32.5ZM56.5771 32.5H54.6759V33.5H56.5771V32.5ZM52.7746 32.5H51.824V33.5H52.7746V32.5ZM52.2754 32.7849L51.8179 31.8249L50.9152 32.2551L51.3727 33.2151L52.2754 32.7849ZM50.9029 29.9049L49.9879 27.9849L49.0852 28.4151L50.0002 30.3351L50.9029 29.9049ZM49.0729 26.0649L48.1579 24.1449L47.2552 24.5751L48.1702 26.4951L49.0729 26.0649ZM47.2429 22.2249L46.7854 21.2649L45.8827 21.6951L46.3402 22.6551L47.2429 22.2249ZM46.334 20.98H45.1078V21.98H46.334V20.98ZM42.6553 20.98H41.429V21.98H42.6553V20.98ZM40.929 21.48V22.44H41.929V21.48H40.929ZM40.929 24.36V26.28H41.929V24.36H40.929ZM40.929 28.2V30.12H41.929V28.2H40.929ZM40.929 32.04V33H41.929V32.04H40.929ZM48.629 15.22H47.729V16.22H48.629V15.22ZM45.929 15.22H44.129V16.22H45.929V15.22ZM42.329 15.22H41.429V16.22H42.329V15.22ZM41.929 15.72V14.6962H40.929V15.72H41.929ZM41.929 12.6487V10.6012H40.929V12.6487H41.929ZM41.929 8.55375V7.53H40.929V8.55375H41.929ZM41.429 8.03H42.329V7.03H41.429V8.03ZM44.129 8.03H45.929V7.03H44.129V8.03ZM47.729 8.03H48.629V7.03H47.729V8.03ZM48.629 8.03C48.8352 8.03 49.0283 8.04208 49.2086 8.06548L49.3373 7.0738C49.1104 7.04435 48.8741 7.03 48.629 7.03V8.03ZM50.2496 8.39269C50.4043 8.48027 50.5442 8.58363 50.6702 8.70297L51.3579 7.97702C51.1721 7.80104 50.9666 7.64945 50.7423 7.52246L50.2496 8.39269ZM50.6902 8.72097C50.819 8.83041 50.9294 8.95397 51.0226 9.09243L51.8522 8.53413C51.7076 8.31926 51.5358 8.1273 51.3378 7.95903L50.6902 8.72097ZM51.3758 10.0718C51.4009 10.2449 51.414 10.4324 51.414 10.635H52.414C52.414 10.3896 52.3982 10.1538 52.3655 9.9282L51.3758 10.0718ZM51.414 10.635V11.13H52.414V10.635H51.414ZM51.414 12.12V12.615H52.414V12.12H51.414ZM51.414 12.615C51.414 12.82 51.4006 13.0105 51.3748 13.1872L52.3643 13.3317C52.3978 13.1024 52.414 12.8634 52.414 12.615H51.414ZM51.0156 14.192C50.9213 14.3361 50.8096 14.4663 50.6795 14.5834L51.3485 15.3266C51.542 15.1525 51.7103 14.9566 51.8523 14.7397L51.0156 14.192ZM50.6806 14.5824C50.5538 14.6958 50.4123 14.7945 50.2547 14.8782L50.7239 15.7613C50.9506 15.6409 51.1588 15.4963 51.3474 15.3276L50.6806 14.5824ZM49.2079 15.1868C49.0275 15.2087 48.8347 15.22 48.629 15.22V16.22C48.8711 16.22 49.1044 16.2067 49.3285 16.1795L49.2079 15.1868ZM41.429 33V34H42.429V33H41.429ZM34.589 33H33.589V34H34.589V33ZM34.589 1.59V0.589999H33.589V1.59H34.589ZM53.399 2.31L53.7786 1.38483L53.7786 1.38483L53.399 2.31ZM56.369 4.38L55.6257 5.04896L55.6375 5.06199L55.6496 5.07459L56.369 4.38ZM57.539 17.205L56.6829 16.6881L56.6758 16.7001L57.539 17.205ZM53.264 20.67L52.9129 19.7337L51.8728 20.1237L52.3696 21.1172L53.264 20.67ZM59.429 33V34H61.0471L60.3235 32.5528L59.429 33ZM51.824 33L50.9213 33.4302L51.1928 34H51.824V33ZM46.334 21.48L47.2368 21.0498L46.9652 20.48H46.334V21.48ZM41.429 21.48V20.48H40.429V21.48H41.429ZM51.014 14.955L51.6808 15.7002L51.683 15.6983L51.014 14.955ZM51.014 8.34L50.3263 9.06595L50.3458 9.08448L50.3664 9.10194L51.014 8.34ZM41.429 7.53V6.53H40.429V7.53H41.429ZM41.429 15.72H40.429V16.72H41.429V15.72ZM41.429 32H40.574V34H41.429V32ZM38.864 32H37.154V34H38.864V32ZM35.444 32H34.589V34H35.444V32ZM35.589 33V32.0184H33.589V33H35.589ZM35.589 30.0553V28.0922H33.589V30.0553H35.589ZM35.589 26.1291V24.1659H33.589V26.1291H35.589ZM35.589 22.2028V20.2397H33.589V22.2028H35.589ZM35.589 18.2766V16.3134H33.589V18.2766H35.589ZM35.589 14.3503V12.3872H33.589V14.3503H35.589ZM35.589 10.4241V8.46094H33.589V10.4241H35.589ZM35.589 6.49781V4.53469H33.589V6.49781H35.589ZM35.589 2.57156V1.59H33.589V2.57156H35.589ZM34.589 2.59H35.52V0.589999H34.589V2.59ZM37.3818 2.59H39.2437V0.589999H37.3818V2.59ZM41.1056 2.59H42.9675V0.589999H41.1056V2.59ZM44.8293 2.59H46.6912V0.589999H44.8293V2.59ZM48.5531 2.59H49.484V0.589999H48.5531V2.59ZM49.484 2.59C49.7988 2.59 50.1048 2.60243 50.4022 2.627L50.5669 0.633789C50.2124 0.604503 49.8514 0.589999 49.484 0.589999V2.59ZM52.1784 2.9441C52.4681 3.02686 52.7483 3.12394 53.0195 3.23517L53.7786 1.38483C53.4376 1.24493 53.0872 1.12373 52.7278 1.02104L52.1784 2.9441ZM53.0195 3.23517C53.2739 3.33957 53.5174 3.45453 53.7502 3.57984L54.6983 1.81887C54.4024 1.65955 54.0957 1.51494 53.7786 1.38483L53.0195 3.23517ZM55.0596 4.4884C55.258 4.66325 55.4467 4.85003 55.6257 5.04896L57.1123 3.71103C56.8821 3.45525 56.6386 3.21411 56.3818 2.98785L55.0596 4.4884ZM55.6496 5.07459C55.8389 5.27063 56.017 5.47714 56.184 5.69431L57.7694 4.47514C57.5569 4.19882 57.3299 3.93552 57.0884 3.6854L55.6496 5.07459ZM57.0415 7.10124C57.1588 7.34785 57.2667 7.60521 57.3649 7.87358L59.2431 7.18642C59.1243 6.86152 58.9924 6.54656 58.8474 6.24178L57.0415 7.10124ZM57.3649 7.87358C57.4711 8.16392 57.5638 8.46372 57.6428 8.77323L59.5807 8.27873C59.4855 7.90567 59.3731 7.54149 59.2431 7.18642L57.3649 7.87358ZM57.944 10.6568C57.9673 10.9711 57.979 11.2937 57.979 11.625H59.979C59.979 11.2464 59.9656 10.8744 59.9385 10.509L57.944 10.6568ZM57.979 11.625C57.979 12.09 57.9544 12.538 57.9059 12.9693L59.8933 13.1931C59.9507 12.6834 59.979 12.1606 59.979 11.625H57.979ZM57.2681 15.5237C57.1021 15.9289 56.9071 16.3169 56.683 16.6881L58.3951 17.7219C58.6729 17.2618 58.9141 16.7816 59.1189 16.2817L57.2681 15.5237ZM56.6758 16.7001C56.4673 17.0567 56.2312 17.3864 55.9678 17.6902L57.4789 19.0004C57.8247 18.6016 58.1325 18.171 58.4022 17.7099L56.6758 16.7001ZM54.0594 19.211C53.706 19.4049 53.3242 19.5794 52.9129 19.7337L53.6151 21.6063C54.1099 21.4208 54.5791 21.2071 55.0215 20.9644L54.0594 19.211ZM52.3696 21.1172L52.8833 22.1447L54.6722 21.2503L54.1585 20.2228L52.3696 21.1172ZM53.9108 24.1997L54.9383 26.2547L56.7272 25.3603L55.6997 23.3053L53.9108 24.1997ZM55.9658 28.3097L56.9933 30.3647L58.7822 29.4703L57.7547 27.4153L55.9658 28.3097ZM58.0208 32.4197L58.5346 33.4472L60.3235 32.5528L59.8097 31.5253L58.0208 32.4197ZM59.429 32H58.4784V34H59.429V32ZM56.5771 32H54.6759V34H56.5771V32ZM52.7746 32H51.824V34H52.7746V32ZM52.7268 32.5698L52.2693 31.6098L50.4638 32.4702L50.9213 33.4302L52.7268 32.5698ZM51.3543 29.6898L50.4393 27.7698L48.6338 28.6302L49.5488 30.5502L51.3543 29.6898ZM49.5243 25.8498L48.6093 23.9298L46.8038 24.7902L47.7188 26.7102L49.5243 25.8498ZM47.6943 22.0098L47.2368 21.0498L45.4313 21.9102L45.8888 22.8702L47.6943 22.0098ZM46.334 20.48H45.1078V22.48H46.334V20.48ZM42.6553 20.48H41.429V22.48H42.6553V20.48ZM40.429 21.48V22.44H42.429V21.48H40.429ZM40.429 24.36V26.28H42.429V24.36H40.429ZM40.429 28.2V30.12H42.429V28.2H40.429ZM40.429 32.04V33H42.429V32.04H40.429ZM48.629 14.72H47.729V16.72H48.629V14.72ZM45.929 14.72H44.129V16.72H45.929V14.72ZM42.329 14.72H41.429V16.72H42.329V14.72ZM42.429 15.72V14.6962H40.429V15.72H42.429ZM42.429 12.6487V10.6012H40.429V12.6487H42.429ZM42.429 8.55375V7.53H40.429V8.55375H42.429ZM41.429 8.53H42.329V6.53H41.429V8.53ZM44.129 8.53H45.929V6.53H44.129V8.53ZM47.729 8.53H48.629V6.53H47.729V8.53ZM48.629 8.53C48.8158 8.53 48.9872 8.54095 49.1442 8.56132L49.4017 6.57796C49.1514 6.54548 48.8935 6.53 48.629 6.53V8.53ZM50.0033 8.82781C50.1232 8.89568 50.2302 8.97492 50.3263 9.06595L51.7018 7.61405C51.4861 7.40975 51.2477 7.23405 50.9886 7.08734L50.0033 8.82781ZM50.3664 9.10194C50.4605 9.18197 50.5403 9.27132 50.6077 9.37158L52.267 8.25499C52.0967 8.00191 51.8942 7.77574 51.6617 7.57806L50.3664 9.10194ZM50.881 10.1436C50.9023 10.2905 50.914 10.4538 50.914 10.635H52.914C52.914 10.3682 52.8968 10.1082 52.8603 9.8564L50.881 10.1436ZM50.914 10.635V11.13H52.914V10.635H50.914ZM50.914 12.12V12.615H52.914V12.12H50.914ZM50.914 12.615C50.914 12.7983 50.902 12.9645 50.8801 13.115L52.8591 13.4039C52.8964 13.1484 52.914 12.885 52.914 12.615H50.914ZM50.5973 13.9181C50.5268 14.0258 50.4433 14.1233 50.3451 14.2117L51.683 15.6983C51.9083 15.4955 52.1048 15.2669 52.2706 15.0136L50.5973 13.9181ZM50.3472 14.2098C50.2513 14.2956 50.1431 14.3713 50.0202 14.4366L50.9584 16.2029C51.2197 16.064 51.4614 15.8966 51.6808 15.7002L50.3472 14.2098ZM49.1476 14.6904C48.9891 14.7097 48.8165 14.72 48.629 14.72V16.72C48.8893 16.72 49.1429 16.7057 49.3888 16.6758L49.1476 14.6904ZM84.4068 28.005H84.9068V27.505H84.4068V28.005ZM84.1818 28.005V27.505H83.7516L83.6874 27.9304L84.1818 28.005ZM81.7518 31.965L81.4491 31.5671L81.7518 31.965ZM71.0868 32.505L70.8846 32.9623L70.8846 32.9623L71.0868 32.505ZM66.9918 29.445L66.614 29.7725L66.614 29.7725L66.9918 29.445ZM64.2468 24.405L64.7219 24.249L64.7219 24.249L64.2468 24.405ZM64.2918 10.41L64.7655 10.5702L64.7655 10.5702L64.2918 10.41ZM67.1718 5.28L66.8026 4.94284L66.7986 4.94731L67.1718 5.28ZM71.6718 2.13L71.863 2.59201L71.863 2.59201L71.6718 2.13ZM84.7668 2.895L84.5086 3.32321L84.5133 3.32597L84.7668 2.895ZM89.5818 8.34L89.8303 8.7739L90.2343 8.54257L90.0323 8.12309L89.5818 8.34ZM84.0018 11.535L83.536 11.7168L83.7469 12.2571L84.2503 11.9689L84.0018 11.535ZM81.7518 8.43L81.4273 8.81047L81.434 8.81597L81.7518 8.43ZM72.3918 8.97L72.7411 9.32779L72.7411 9.32779L72.3918 8.97ZM72.3918 25.62L72.0383 25.9736L72.0426 25.9778L72.3918 25.62ZM79.8618 27.195L79.9785 27.6812L79.9876 27.679L79.9967 27.6765L79.8618 27.195ZM81.8418 26.295L82.1242 26.7077L82.1314 26.7027L82.1384 26.6975L81.8418 26.295ZM83.1468 24.81L82.7141 24.5595L82.7091 24.5682L82.7044 24.5771L83.1468 24.81ZM83.6418 21.21H84.1418V20.71H83.6418V21.21ZM77.7918 21.21H77.2918V21.71H77.7918V21.21ZM77.7918 15.495V14.995H77.2918V15.495H77.7918ZM90.1668 15.495H90.6668V14.995H90.1668V15.495ZM90.1668 33V33.5H90.6668V33H90.1668ZM84.4068 33H83.9068V33.5H84.4068V33ZM84.4068 27.505H84.3506V28.505H84.4068V27.505ZM84.2381 27.505H84.1818V28.505H84.2381V27.505ZM83.6874 27.9304C83.6315 28.3009 83.5423 28.6534 83.4205 28.9886L84.3604 29.3302C84.5057 28.9303 84.6108 28.5132 84.6762 28.0796L83.6874 27.9304ZM82.2753 30.8277C82.0318 31.0864 81.7568 31.333 81.4491 31.5671L82.0546 32.3629C82.4031 32.0978 82.7197 31.8146 83.0035 31.513L82.2753 30.8277ZM81.4491 31.5671C81.0938 31.8374 80.701 32.0714 80.2692 32.2684L80.6843 33.1781C81.1802 32.9519 81.6374 32.6804 82.0546 32.3629L81.4491 31.5671ZM77.5578 32.9675C77.106 33.0157 76.6291 33.04 76.1268 33.04V34.04C76.6612 34.04 77.1737 34.0141 77.6638 33.9618L77.5578 32.9675ZM76.1268 33.04C75.704 33.04 75.2887 33.0203 74.881 32.9809L74.7849 33.9763C75.2255 34.0188 75.6728 34.04 76.1268 34.04V33.04ZM72.4494 32.4872C72.0553 32.362 71.6685 32.2156 71.2891 32.0477L70.8846 32.9623C71.2971 33.1447 71.7178 33.3041 72.1466 33.4403L72.4494 32.4872ZM71.2891 32.0477C70.9117 31.8808 70.5465 31.6938 70.1934 31.4867L69.6876 32.3494C70.0737 32.5758 70.4727 32.7801 70.8846 32.9623L71.2891 32.0477ZM68.2258 30.0102C67.9298 29.732 67.6444 29.4345 67.3697 29.1175L66.614 29.7725C66.9104 30.1145 67.2194 30.4367 67.541 30.7389L68.2258 30.0102ZM67.3697 29.1175C67.0723 28.7743 66.7915 28.4082 66.5274 28.0189L65.6998 28.5803C65.9853 29.0011 66.29 29.3986 66.614 29.7725L67.3697 29.1175ZM65.2116 25.5648C65.0352 25.1446 64.872 24.706 64.7219 24.249L63.7718 24.561C63.9298 25.0421 64.1023 25.5058 64.2895 25.9518L65.2116 25.5648ZM64.7219 24.249C64.6339 23.9811 64.5519 23.7072 64.4759 23.4271L63.5108 23.6891C63.5913 23.9855 63.6783 24.2762 63.7718 24.561L64.7219 24.249ZM64.104 21.7458C64.0078 21.1948 63.9315 20.6235 63.8752 20.0319L62.8797 20.1266C62.9383 20.7426 63.018 21.3397 63.1189 21.9178L64.104 21.7458ZM63.7693 18.2998C63.761 18.0141 63.7568 17.7241 63.7568 17.43H62.7568C62.7568 17.7335 62.7611 18.0332 62.7697 18.3289L63.7693 18.2998ZM63.7568 17.43C63.7568 17.1341 63.7612 16.8422 63.77 16.5543L62.7705 16.5237C62.7614 16.8221 62.7568 17.1241 62.7568 17.43H63.7568ZM63.8819 14.8109C63.9411 14.2167 64.0213 13.6419 64.1223 13.0865L63.1384 12.9076C63.0324 13.4908 62.9485 14.0922 62.8868 14.7117L63.8819 14.8109ZM64.5103 11.3962C64.5892 11.1152 64.6743 10.8398 64.7655 10.5702L63.8182 10.2498C63.7213 10.5363 63.6311 10.8283 63.5475 11.1258L64.5103 11.3962ZM64.7655 10.5702C64.9233 10.1037 65.0952 9.6559 65.2812 9.22661L64.3636 8.82903C64.1662 9.28481 63.9844 9.75845 63.8182 10.2498L64.7655 10.5702ZM66.6642 6.72798C66.9403 6.33352 67.2339 5.96182 67.5451 5.61268L66.7986 4.94731C66.4607 5.32643 66.1428 5.72895 65.8449 6.15465L66.6642 6.72798ZM67.5411 5.61713C67.8431 5.28637 68.1591 4.97567 68.4891 4.68491L67.828 3.93459C67.4704 4.24967 67.1286 4.5858 66.8026 4.94286L67.5411 5.61713ZM70.6621 3.16491C71.0478 2.9547 71.448 2.76372 71.863 2.59201L71.4807 1.66799C71.0335 1.85303 70.6011 2.05929 70.1835 2.28685L70.6621 3.16491ZM71.863 2.59201C72.2996 2.41136 72.7493 2.2541 73.2124 2.12031L72.9348 1.15961C72.4368 1.3035 71.9521 1.47293 71.4807 1.66799L71.863 2.59201ZM76.0345 1.60913C76.5037 1.56976 76.9845 1.55 77.4768 1.55V0.549998C76.9577 0.549998 76.449 0.570829 75.9508 0.612631L76.0345 1.60913ZM77.4768 1.55C77.7908 1.55 78.0995 1.55783 78.4028 1.57344L78.4542 0.574762C78.1333 0.558239 77.8075 0.549998 77.4768 0.549998V1.55ZM80.2356 1.77317C80.8552 1.87899 81.4492 2.02225 82.0178 2.20259L82.3201 1.24937C81.7055 1.05449 81.0667 0.900638 80.404 0.787445L80.2356 1.77317ZM83.71 2.88478C83.9829 3.02056 84.2491 3.1667 84.5087 3.32319L85.025 2.46681C84.7422 2.29632 84.4524 2.1372 84.1554 1.98947L83.71 2.88478ZM84.5133 3.32597C84.7671 3.47522 85.0137 3.63438 85.2532 3.80346L85.8299 2.98652C85.5677 2.80142 85.2978 2.62726 85.0203 2.46403L84.5133 3.32597ZM86.6025 4.93406C87.014 5.34034 87.3998 5.78515 87.7598 6.26901L88.5621 5.6721C88.1729 5.14907 87.754 4.6657 87.3051 4.22246L86.6025 4.93406ZM88.7209 7.76358C88.8632 8.01966 89 8.28408 89.1313 8.55691L90.0323 8.12309C89.8928 7.83328 89.7471 7.55157 89.5951 7.27798L88.7209 7.76358ZM89.3334 7.90609L88.6359 8.30547L89.1328 9.17328L89.8303 8.7739L89.3334 7.90609ZM87.2409 9.10422L85.8459 9.90297L86.3428 10.7708L87.7378 9.97203L87.2409 9.10422ZM84.4509 10.7017L83.7534 11.1011L84.2503 11.9689L84.9478 11.5695L84.4509 10.7017ZM84.4676 11.3532C84.3412 11.0293 84.1969 10.7174 84.0345 10.4177L83.1553 10.894C83.2974 11.1564 83.4244 11.4306 83.536 11.7168L84.4676 11.3532ZM82.8237 8.74689C82.5895 8.49933 82.3381 8.26506 82.0697 8.04403L81.434 8.81597C81.6712 9.01132 81.8922 9.2174 82.0973 9.43414L82.8237 8.74689ZM82.0763 8.04958C81.7595 7.7794 81.4091 7.5483 81.0264 7.35583L80.5771 8.2492C80.8911 8.40711 81.174 8.59433 81.4274 8.81042L82.0763 8.04958ZM78.6729 6.69027C78.2918 6.64656 77.893 6.625 77.4768 6.625V7.625C77.8586 7.625 78.2191 7.64478 78.5589 7.68376L78.6729 6.69027ZM77.4768 6.625C76.9712 6.625 76.4859 6.65815 76.0213 6.72532L76.1643 7.71503C76.5775 7.6553 77.0149 7.625 77.4768 7.625V6.625ZM73.2272 7.6934C72.7988 7.95308 72.4038 8.25957 72.0426 8.61221L72.7411 9.32779C73.0484 9.02785 73.383 8.76832 73.7456 8.54854L73.2272 7.6934ZM72.0426 8.61221C71.8381 8.81177 71.6492 9.02775 71.4758 9.25979L72.2768 9.85846C72.4197 9.66719 72.5745 9.49041 72.7411 9.32779L72.0426 8.61221ZM70.6583 10.745C70.4645 11.2363 70.315 11.7696 70.208 12.3433L71.191 12.5267C71.2878 12.0079 71.4209 11.5369 71.5886 11.1121L70.6583 10.745ZM70.0221 13.9656C70.0086 14.2285 70.0018 14.4984 70.0018 14.775H71.0018C71.0018 14.5145 71.0082 14.2618 71.0207 14.0169L70.0221 13.9656ZM70.0018 14.775V16.035H71.0018V14.775H70.0018ZM70.0018 18.555V19.815H71.0018V18.555H70.0018ZM70.0018 19.815C70.0018 20.0915 70.0087 20.3613 70.0225 20.6244L71.0211 20.5721C71.0083 20.3273 71.0018 20.075 71.0018 19.815H70.0018ZM70.2116 22.246C70.3198 22.8175 70.4706 23.3499 70.6658 23.8418L71.5953 23.473C71.4262 23.0468 71.2919 22.5763 71.1941 22.06L70.2116 22.246ZM71.4795 25.324C71.6508 25.5557 71.837 25.7723 72.0383 25.9736L72.7454 25.2664C72.5798 25.1009 72.4259 24.922 72.2837 24.7296L71.4795 25.324ZM72.0426 25.9778C72.4038 26.3304 72.7988 26.6369 73.2272 26.8966L73.7456 26.0415C73.383 25.8217 73.0484 25.5622 72.7411 25.2622L72.0426 25.9778ZM76.0213 27.8647C76.4859 27.9318 76.9712 27.965 77.4768 27.965V26.965C77.0149 26.965 76.5775 26.9347 76.1643 26.875L76.0213 27.8647ZM77.4768 27.965C77.6885 27.965 77.8978 27.9595 78.1046 27.9485L78.0515 26.9499C77.8628 26.96 77.6712 26.965 77.4768 26.965V27.965ZM79.358 27.809C79.5677 27.7727 79.7746 27.7301 79.9785 27.6812L79.7452 26.7088C79.5624 26.7527 79.3766 26.7909 79.1877 26.8236L79.358 27.809ZM79.9967 27.6765C80.1861 27.6234 80.3708 27.5648 80.5507 27.5005L80.214 26.5589C80.057 26.615 79.8947 26.6666 79.727 26.7135L79.9967 27.6765ZM81.6203 27.0189C81.7945 26.922 81.9624 26.8183 82.1242 26.7077L81.5595 25.8823C81.4238 25.9752 81.2821 26.0627 81.1343 26.1449L81.6203 27.0189ZM82.1384 26.6975C82.2877 26.5875 82.4294 26.4722 82.5632 26.3515L81.8933 25.609C81.785 25.7068 81.669 25.8013 81.5452 25.8925L82.1384 26.6975ZM83.2985 25.5212C83.4054 25.3675 83.5024 25.208 83.5893 25.0429L82.7044 24.5771C82.6367 24.7057 82.5611 24.8301 82.4776 24.9502L83.2985 25.5212ZM83.5795 25.0605C83.6801 24.8868 83.7671 24.705 83.8405 24.5157L82.9082 24.1542C82.8531 24.2963 82.7884 24.4313 82.7141 24.5595L83.5795 25.0605ZM84.1124 23.3636C84.1321 23.1754 84.1418 22.9825 84.1418 22.785H83.1418C83.1418 22.9498 83.1337 23.1078 83.1179 23.2593L84.1124 23.3636ZM84.1418 22.785V22.3912H83.1418V22.785H84.1418ZM84.1418 21.6037V21.21H83.1418V21.6037H84.1418ZM83.6418 20.71H82.1793V21.71H83.6418V20.71ZM79.2543 20.71H77.7918V21.71H79.2543V20.71ZM78.2918 21.21V19.7812H77.2918V21.21H78.2918ZM78.2918 16.9237V15.495H77.2918V16.9237H78.2918ZM77.7918 15.995H78.8231V14.995H77.7918V15.995ZM80.8856 15.995H82.9481V14.995H80.8856V15.995ZM85.0106 15.995H87.0731V14.995H85.0106V15.995ZM89.1356 15.995H90.1668V14.995H89.1356V15.995ZM89.6668 15.495V16.5891H90.6668V15.495H89.6668ZM89.6668 18.7772V20.9653H90.6668V18.7772H89.6668ZM89.6668 23.1534V25.3416H90.6668V23.1534H89.6668ZM89.6668 27.5297V29.7178H90.6668V27.5297H89.6668ZM89.6668 31.9059V33H90.6668V31.9059H89.6668ZM90.1668 32.5H88.7268V33.5H90.1668V32.5ZM85.8468 32.5H84.4068V33.5H85.8468V32.5ZM84.9068 33V31.7512H83.9068V33H84.9068ZM84.9068 29.2537V28.005H83.9068V29.2537H84.9068ZM84.4068 28.005H85.4068V27.005H84.4068V28.005ZM84.1818 28.005V27.005H83.3215L83.193 27.8557L84.1818 28.005ZM81.7518 31.965L81.1463 31.1692L81.7518 31.965ZM71.0868 32.505L70.6823 33.4195L70.6823 33.4195L71.0868 32.505ZM66.9918 29.445L66.2361 30.0999L66.2361 30.0999L66.9918 29.445ZM64.2468 24.405L65.1969 24.093L65.1969 24.093L64.2468 24.405ZM64.2918 10.41L65.2391 10.7304L65.2391 10.7304L64.2918 10.41ZM67.1718 5.28L66.4333 4.60568L66.4253 4.61463L67.1718 5.28ZM71.6718 2.13L72.0542 3.05401L72.0542 3.05401L71.6718 2.13ZM84.7668 2.895L84.2505 3.75143L84.2598 3.75693L84.7668 2.895ZM89.5818 8.34L90.0787 9.20781L90.8868 8.74514L90.4828 7.90618L89.5818 8.34ZM84.0018 11.535L83.0703 11.8985L83.492 12.9792L84.4987 12.4028L84.0018 11.535ZM81.7518 8.43L81.1029 9.19083L81.1095 9.19644L81.1161 9.20193L81.7518 8.43ZM72.3918 8.97L73.0904 9.68557L73.0904 9.68557L72.3918 8.97ZM72.3918 25.62L71.6847 26.3272L71.6933 26.3356L72.3918 25.62ZM79.8618 27.195L80.0952 28.1674L80.1134 28.163L80.1315 28.158L79.8618 27.195ZM81.8418 26.295L82.4065 27.1203L82.421 27.1104L82.435 27.1001L81.8418 26.295ZM83.1468 24.81L82.2814 24.309L82.2713 24.3264L82.2619 24.3443L83.1468 24.81ZM83.6418 21.21H84.6418V20.21H83.6418V21.21ZM77.7918 21.21H76.7918V22.21H77.7918V21.21ZM77.7918 15.495V14.495H76.7918V15.495H77.7918ZM90.1668 15.495H91.1668V14.495H90.1668V15.495ZM90.1668 33V34H91.1668V33H90.1668ZM84.4068 33H83.4068V34H84.4068V33ZM84.4068 27.005H84.3506V29.005H84.4068V27.005ZM84.2381 27.005H84.1818V29.005H84.2381V27.005ZM83.193 27.8557C83.1419 28.1948 83.0606 28.515 82.9506 28.8178L84.8303 29.501C84.9874 29.0687 85.1004 28.6193 85.1706 28.1543L83.193 27.8557ZM81.9112 30.485C81.6879 30.7223 81.4336 30.9506 81.1463 31.1692L82.3574 32.7608C82.7262 32.4802 83.0636 32.1787 83.3676 31.8557L81.9112 30.485ZM81.1463 31.1692C80.822 31.4159 80.4614 31.6311 80.0617 31.8135L80.8919 33.633C81.4198 33.3921 81.9092 33.1018 82.3574 32.7608L81.1463 31.1692ZM77.5048 32.4703C77.0721 32.5164 76.613 32.54 76.1268 32.54V34.54C76.6773 34.54 77.2075 34.5133 77.7168 34.459L77.5048 32.4703ZM76.1268 32.54C75.7196 32.54 75.3204 32.521 74.929 32.4832L74.7369 34.474C75.1939 34.5181 75.6573 34.54 76.1268 34.54V32.54ZM72.6007 32.0107C72.224 31.891 71.8542 31.751 71.4913 31.5905L70.6823 33.4195C71.1114 33.6093 71.5491 33.7751 71.9953 33.9168L72.6007 32.0107ZM71.4913 31.5905C71.1312 31.4312 70.783 31.2528 70.4463 31.0554L69.4346 32.7807C69.8373 33.0168 70.2532 33.2297 70.6823 33.4195L71.4913 31.5905ZM68.5682 29.6458C68.285 29.3797 68.0114 29.0945 67.7475 28.7901L66.2361 30.0999C66.5434 30.4545 66.8642 30.7891 67.1987 31.1033L68.5682 29.6458ZM67.7475 28.7901C67.4634 28.4622 67.1946 28.1118 66.9412 27.7383L65.286 28.8609C65.5822 29.2976 65.8988 29.7107 66.2361 30.0999L67.7475 28.7901ZM65.6726 25.3713C65.5017 24.964 65.343 24.538 65.1969 24.093L63.2967 24.717C63.4587 25.2102 63.6359 25.6864 63.8285 26.1453L65.6726 25.3713ZM65.1969 24.093C65.1118 23.8336 65.0322 23.568 64.9584 23.2961L63.0283 23.8201C63.111 24.1247 63.2004 24.4237 63.2967 24.717L65.1969 24.093ZM64.5966 21.6598C64.5028 21.1223 64.4281 20.5639 64.3729 19.9845L62.3819 20.174C62.4417 20.8022 62.5231 21.4122 62.6264 22.0038L64.5966 21.6598ZM64.2691 18.2853C64.2609 18.0045 64.2568 17.7194 64.2568 17.43H62.2568C62.2568 17.7383 62.2612 18.0427 62.2699 18.3434L64.2691 18.2853ZM64.2568 17.43C64.2568 17.139 64.2612 16.8522 64.2698 16.5696L62.2707 16.5085C62.2615 16.812 62.2568 17.1192 62.2568 17.43H64.2568ZM64.3794 14.8605C64.4374 14.2789 64.5157 13.7175 64.6142 13.1759L62.6465 12.8181C62.5379 13.4153 62.4523 14.03 62.3892 14.6621L64.3794 14.8605ZM64.9916 11.5314C65.0683 11.2586 65.1508 10.9916 65.2391 10.7304L63.3446 10.0896C63.2448 10.3846 63.152 10.6849 63.0661 10.9906L64.9916 11.5314ZM65.2391 10.7304C65.3927 10.2764 65.5597 9.84145 65.74 9.42539L63.9049 8.63025C63.7016 9.09927 63.515 9.58581 63.3446 10.0896L65.2391 10.7304ZM67.0739 7.01464C67.339 6.63581 67.6205 6.27952 67.9183 5.94537L66.4253 4.61463C66.0741 5.00874 65.7441 5.42666 65.4352 5.86799L67.0739 7.01464ZM67.9103 5.95427C68.2003 5.63665 68.5034 5.33868 68.8196 5.06007L67.4975 3.55943C67.1261 3.88667 66.7714 4.23552 66.4334 4.60573L67.9103 5.95427ZM70.9014 3.60394C71.2711 3.40241 71.6553 3.21906 72.0542 3.05401L71.2895 1.20598C70.8262 1.39768 70.3777 1.61158 69.9443 1.84782L70.9014 3.60394ZM72.0542 3.05401C72.4733 2.88057 72.9056 2.72941 73.3512 2.60066L72.796 0.679257C72.2805 0.828191 71.7783 1.00372 71.2895 1.20598L72.0542 3.05401ZM76.0763 2.10738C76.5311 2.06922 76.9979 2.05 77.4768 2.05V0.0499983C76.9444 0.0499983 76.4217 0.0713659 75.909 0.114382L76.0763 2.10738ZM77.4768 2.05C77.7825 2.05 78.0826 2.05762 78.3771 2.07278L78.4799 0.0754232C78.1501 0.0584464 77.8158 0.0499983 77.4768 0.0499983V2.05ZM80.1514 2.26603C80.7494 2.36817 81.321 2.50614 81.8667 2.6792L82.4712 0.772754C81.8337 0.570601 81.1725 0.411462 80.4882 0.294582L80.1514 2.26603ZM83.4873 3.33244C83.7482 3.46224 84.0026 3.60189 84.2505 3.75138L85.2832 2.03862C84.9888 1.86113 84.6871 1.69552 84.3781 1.54181L83.4873 3.33244ZM84.2598 3.75693C84.5017 3.8992 84.7366 4.05086 84.9648 4.21194L86.1182 2.57804C85.8447 2.38494 85.5632 2.20328 85.2739 2.03306L84.2598 3.75693ZM86.2512 5.28987C86.644 5.67765 87.0132 6.10319 87.3586 6.56746L88.9632 5.37364C88.5595 4.83103 88.124 4.32838 87.6563 3.86666L86.2512 5.28987ZM88.2838 8.00637C88.4212 8.2537 88.5536 8.50948 88.6808 8.77381L90.4828 7.90618C90.3392 7.60788 90.189 7.31752 90.0322 7.03519L88.2838 8.00637ZM89.0849 7.47219L88.3874 7.87156L89.3812 9.60719L90.0787 9.20781L89.0849 7.47219ZM86.9924 8.67031L85.5974 9.46906L86.5912 11.2047L87.9862 10.4059L86.9924 8.67031ZM84.2024 10.2678L83.5049 10.6672L84.4987 12.4028L85.1962 12.0034L84.2024 10.2678ZM84.9334 11.1715C84.7997 10.8287 84.6467 10.4979 84.4742 10.1795L82.7156 11.1322C82.8476 11.3759 82.9659 11.6312 83.0703 11.8985L84.9334 11.1715ZM83.1869 8.40326C82.9381 8.1403 82.6715 7.89193 82.3875 7.65807L81.1161 9.20193C81.3378 9.38445 81.5436 9.57643 81.7341 9.77777L83.1869 8.40326ZM82.4008 7.66917C82.0523 7.37194 81.6681 7.11889 81.2511 6.90915L80.3525 8.69589C80.6321 8.83652 80.8813 9.00179 81.1029 9.19083L82.4008 7.66917ZM78.7298 6.19353C78.3281 6.14744 77.9101 6.125 77.4768 6.125V8.125C77.8414 8.125 78.1828 8.1439 78.5019 8.1805L78.7298 6.19353ZM77.4768 6.125C76.9494 6.125 76.4401 6.15958 75.9497 6.23047L76.2359 8.20989C76.6234 8.15387 77.0367 8.125 77.4768 8.125V6.125ZM72.968 7.26582C72.5067 7.54546 72.0815 7.87544 71.6933 8.25442L73.0904 9.68557C73.3706 9.41198 73.6752 9.17594 74.0048 8.97612L72.968 7.26582ZM71.6933 8.25442C71.4699 8.47246 71.2639 8.70803 71.0753 8.96045L72.6773 10.1578C72.805 9.98691 72.9427 9.82973 73.0904 9.68557L71.6933 8.25442ZM70.1932 10.5615C69.9863 11.086 69.8286 11.6505 69.7164 12.2516L71.6825 12.6184C71.7742 12.1271 71.8991 11.6872 72.0537 11.2956L70.1932 10.5615ZM69.5227 13.9399C69.5087 14.2119 69.5018 14.4903 69.5018 14.775H71.5018C71.5018 14.5226 71.508 14.2785 71.5201 14.0425L69.5227 13.9399ZM69.5018 14.775V16.035H71.5018V14.775H69.5018ZM69.5018 18.555V19.815H71.5018V18.555H69.5018ZM69.5018 19.815C69.5018 20.0997 69.5089 20.3783 69.5232 20.6506L71.5204 20.5459C71.5081 20.3103 71.5018 20.0667 71.5018 19.815H69.5018ZM69.7203 22.3391C69.8337 22.938 69.9928 23.5015 70.201 24.0262L72.06 23.2885C71.9039 22.8952 71.7779 22.4557 71.6854 21.967L69.7203 22.3391ZM71.0775 25.6212C71.2632 25.8725 71.4656 26.108 71.6847 26.3271L73.0989 24.9129C72.9512 24.7652 72.8135 24.6052 72.6858 24.4324L71.0775 25.6212ZM71.6933 26.3356C72.0815 26.7146 72.5067 27.0445 72.968 27.3242L74.0048 25.6139C73.6752 25.4141 73.3706 25.178 73.0904 24.9044L71.6933 26.3356ZM75.9497 28.3595C76.4401 28.4304 76.9494 28.465 77.4768 28.465V26.465C77.0367 26.465 76.6234 26.4361 76.2359 26.3801L75.9497 28.3595ZM77.4768 28.465C77.6971 28.465 77.9152 28.4593 78.1311 28.4478L78.0249 26.4506C77.8453 26.4602 77.6626 26.465 77.4768 26.465V28.465ZM79.4431 28.3017C79.6632 28.2636 79.8806 28.2189 80.0952 28.1674L79.6285 26.2226C79.4564 26.2639 79.2811 26.3 79.1026 26.3309L79.4431 28.3017ZM80.1315 28.158C80.3318 28.1019 80.5277 28.0397 80.719 27.9713L80.0456 26.0881C79.9001 26.1401 79.749 26.1881 79.5922 26.232L80.1315 28.158ZM81.8633 27.4559C82.0506 27.3517 82.2318 27.2399 82.4065 27.1203L81.2772 25.4697C81.1545 25.5536 81.0259 25.6331 80.8914 25.7079L81.8633 27.4559ZM82.435 27.1001C82.5971 26.9806 82.7516 26.8549 82.8981 26.7227L81.5583 25.2378C81.4628 25.324 81.3597 25.4081 81.2486 25.4899L82.435 27.1001ZM83.709 25.8067C83.8276 25.6362 83.9352 25.4592 84.0318 25.2757L82.2619 24.3443C82.2038 24.4546 82.139 24.5614 82.0671 24.6647L83.709 25.8067ZM84.0123 25.311C84.126 25.1145 84.2241 24.9094 84.3067 24.6965L82.442 23.9734C82.396 24.0919 82.3425 24.2035 82.2814 24.309L84.0123 25.311ZM84.6097 23.4157C84.6313 23.2092 84.6418 22.9989 84.6418 22.785H82.6418C82.6418 22.9334 82.6345 23.074 82.6206 23.2072L84.6097 23.4157ZM84.6418 22.785V22.3912H82.6418V22.785H84.6418ZM84.6418 21.6037V21.21H82.6418V21.6037H84.6418ZM83.6418 20.21H82.1793V22.21H83.6418V20.21ZM79.2543 20.21H77.7918V22.21H79.2543V20.21ZM78.7918 21.21V19.7812H76.7918V21.21H78.7918ZM78.7918 16.9237V15.495H76.7918V16.9237H78.7918ZM77.7918 16.495H78.8231V14.495H77.7918V16.495ZM80.8856 16.495H82.9481V14.495H80.8856V16.495ZM85.0106 16.495H87.0731V14.495H85.0106V16.495ZM89.1356 16.495H90.1668V14.495H89.1356V16.495ZM89.1668 15.495V16.5891H91.1668V15.495H89.1668ZM89.1668 18.7772V20.9653H91.1668V18.7772H89.1668ZM89.1668 23.1534V25.3416H91.1668V23.1534H89.1668ZM89.1668 27.5297V29.7178H91.1668V27.5297H89.1668ZM89.1668 31.9059V33H91.1668V31.9059H89.1668ZM90.1668 32H88.7268V34H90.1668V32ZM85.8468 32H84.4068V34H85.8468V32ZM85.4068 33V31.7512H83.4068V33H85.4068ZM85.4068 29.2537V28.005H83.4068V29.2537H85.4068ZM116.166 33L115.687 33.1442L115.794 33.5H116.166V33ZM113.916 25.53L114.394 25.3858L114.287 25.03H113.916V25.53ZM103.431 25.53V25.03H103.059L102.952 25.3858L103.431 25.53ZM101.181 33V33.5H101.552L101.659 33.1442L101.181 33ZM94.2506 33L93.7757 32.8435L93.5594 33.5H94.2506V33ZM104.601 1.59V1.09H104.239L104.126 1.43352L104.601 1.59ZM113.061 1.59L113.536 1.43536L113.424 1.09H113.061V1.59ZM123.276 33V33.5H123.964L123.751 32.8454L123.276 33ZM108.741 7.8L109.22 7.65882L109.115 7.3H108.741V7.8ZM108.516 7.8V7.3H108.14L108.035 7.66049L108.516 7.8ZM105.051 19.725L104.57 19.5855L104.385 20.225H105.051V19.725ZM112.251 19.725V20.225H112.919L112.73 19.5838L112.251 19.725ZM116.644 32.8558L116.363 31.922L115.406 32.2105L115.687 33.1442L116.644 32.8558ZM115.801 30.0545L115.238 28.187L114.281 28.4755L114.843 30.343L115.801 30.0545ZM114.676 26.3195L114.394 25.3858L113.437 25.6742L113.718 26.608L114.676 26.3195ZM113.916 25.03H113.042V26.03H113.916V25.03ZM111.294 25.03H109.547V26.03H111.294V25.03ZM107.799 25.03H106.052V26.03H107.799V25.03ZM104.304 25.03H103.431V26.03H104.304V25.03ZM102.952 25.3858L102.671 26.3195L103.628 26.608L103.909 25.6742L102.952 25.3858ZM102.108 28.187L101.546 30.0545L102.503 30.343L103.066 28.4755L102.108 28.187ZM100.983 31.922L100.702 32.8558L101.659 33.1442L101.941 32.2105L100.983 31.922ZM101.181 32.5H100.314V33.5H101.181V32.5ZM98.5818 32.5H96.8493V33.5H98.5818V32.5ZM95.1168 32.5H94.2506V33.5H95.1168V32.5ZM94.7255 33.1565L95.0489 32.1749L94.0991 31.862L93.7757 32.8435L94.7255 33.1565ZM95.6958 30.2118L96.3427 28.2487L95.3929 27.9357L94.746 29.8988L95.6958 30.2118ZM96.9895 26.2855L97.6364 24.3224L96.6866 24.0095L96.0398 25.9726L96.9895 26.2855ZM98.2833 22.3593L98.9302 20.3962L97.9804 20.0832L97.3335 22.0463L98.2833 22.3593ZM99.577 18.433L100.224 16.4699L99.2741 16.157L98.6273 18.1201L99.577 18.433ZM100.871 14.5068L101.518 12.5437L100.568 12.2307L99.921 14.1938L100.871 14.5068ZM102.165 10.5805L102.811 8.61742L101.862 8.30446L101.215 10.2676L102.165 10.5805ZM103.458 6.6543L104.105 4.69117L103.155 4.37821L102.509 6.34134L103.458 6.6543ZM104.752 2.72805L105.075 1.74648L104.126 1.43352L103.802 2.41509L104.752 2.72805ZM104.601 2.09H105.658V1.09H104.601V2.09ZM107.773 2.09H109.888V1.09H107.773V2.09ZM112.003 2.09H113.061V1.09H112.003V2.09ZM112.585 1.74463L112.904 2.7262L113.855 2.41693L113.536 1.43536L112.585 1.74463ZM113.543 4.68932L114.181 6.65245L115.132 6.34318L114.494 4.38005L113.543 4.68932ZM114.82 8.61557L115.458 10.5787L116.409 10.2694L115.771 8.3063L114.82 8.61557ZM116.097 12.5418L116.735 14.5049L117.686 14.1957L117.047 12.2326L116.097 12.5418ZM117.373 16.4681L118.012 18.4312L118.963 18.1219L118.324 16.1588L117.373 16.4681ZM118.65 20.3943L119.289 22.3574L120.24 22.0482L119.601 20.0851L118.65 20.3943ZM119.927 24.3206L120.566 26.2837L121.517 25.9744L120.878 24.0113L119.927 24.3206ZM121.204 28.2468L121.842 30.2099L122.793 29.9007L122.155 27.9376L121.204 28.2468ZM122.481 32.1731L122.8 33.1546L123.751 32.8454L123.432 31.8638L122.481 32.1731ZM123.276 32.5H122.387V33.5H123.276V32.5ZM120.609 32.5H118.832V33.5H120.609V32.5ZM117.054 32.5H116.166V33.5H117.054V32.5ZM108.741 7.3H108.684V8.3H108.741V7.3ZM108.572 7.3H108.516V8.3H108.572V7.3ZM108.035 7.66049L107.747 8.65424L108.707 8.93326L108.996 7.93951L108.035 7.66049ZM107.169 10.6417L106.592 12.6292L107.552 12.9083L108.129 10.9208L107.169 10.6417ZM106.014 14.6167L105.437 16.6042L106.397 16.8833L106.974 14.8958L106.014 14.6167ZM104.859 18.5917L104.57 19.5855L105.531 19.8645L105.819 18.8708L104.859 18.5917ZM105.051 20.225H105.951V19.225H105.051V20.225ZM107.751 20.225H109.551V19.225H107.751V20.225ZM111.351 20.225H112.251V19.225H111.351V20.225ZM112.73 19.5838L112.438 18.5901L111.478 18.8724L111.771 19.8662L112.73 19.5838ZM111.853 16.6026L111.268 14.6151L110.308 14.8974L110.893 16.8849L111.853 16.6026ZM110.683 12.6276L110.098 10.6401L109.138 10.9224L109.723 12.9099L110.683 12.6276ZM109.513 8.65257L109.22 7.65882L108.261 7.94118L108.553 8.93493L109.513 8.65257ZM116.166 33L115.208 33.2884L115.422 34H116.166V33ZM113.916 25.53L114.873 25.2416L114.659 24.53H113.916V25.53ZM103.431 25.53V24.53H102.687L102.473 25.2416L103.431 25.53ZM101.181 33V34H101.924L102.138 33.2884L101.181 33ZM94.2506 33L93.3008 32.687L92.8682 34H94.2506V33ZM104.601 1.59V0.589999H103.877L103.651 1.27704L104.601 1.59ZM113.061 1.59L114.012 1.28073L113.787 0.589999H113.061V1.59ZM123.276 33V34H124.652L124.227 32.6907L123.276 33ZM108.741 7.8L109.7 7.51764L109.489 6.8H108.741V7.8ZM108.516 7.8V6.8H107.765L107.555 7.52097L108.516 7.8ZM105.051 19.725L104.09 19.446L103.719 20.725H105.051V19.725ZM112.251 19.725V20.725H113.587L113.21 19.4426L112.251 19.725ZM117.123 32.7116L116.842 31.7778L114.927 32.3547L115.208 33.2884L117.123 32.7116ZM116.279 29.9103L115.717 28.0428L113.802 28.6197L114.364 30.4872L116.279 29.9103ZM115.154 26.1753L114.873 25.2416L112.958 25.8184L113.239 26.7522L115.154 26.1753ZM113.916 24.53H113.042V26.53H113.916V24.53ZM111.294 24.53H109.547V26.53H111.294V24.53ZM107.799 24.53H106.052V26.53H107.799V24.53ZM104.304 24.53H103.431V26.53H104.304V24.53ZM102.473 25.2416L102.192 26.1753L104.107 26.7522L104.388 25.8184L102.473 25.2416ZM101.629 28.0428L101.067 29.9103L102.982 30.4872L103.544 28.6197L101.629 28.0428ZM100.504 31.7778L100.223 32.7116L102.138 33.2884L102.419 32.3547L100.504 31.7778ZM101.181 32H100.314V34H101.181V32ZM98.5818 32H96.8493V34H98.5818V32ZM95.1168 32H94.2506V34H95.1168V32ZM95.2004 33.313L95.5238 32.3314L93.6243 31.7055L93.3008 32.687L95.2004 33.313ZM96.1707 30.3683L96.8175 28.4051L94.918 27.7792L94.2711 29.7424L96.1707 30.3683ZM97.4644 26.442L98.1113 24.4789L96.2118 23.853L95.5649 25.8161L97.4644 26.442ZM98.7582 22.5158L99.405 20.5526L97.5055 19.9267L96.8586 21.8899L98.7582 22.5158ZM100.052 18.5895L100.699 16.6264L98.7993 16.0005L98.1524 17.9636L100.052 18.5895ZM101.346 14.6633L101.993 12.7002L100.093 12.0742L99.4461 14.0374L101.346 14.6633ZM102.639 10.737L103.286 8.7739L101.387 8.14798L100.74 10.1111L102.639 10.737ZM103.933 6.81078L104.58 4.84765L102.681 4.22173L102.034 6.18486L103.933 6.81078ZM105.227 2.88453L105.55 1.90296L103.651 1.27704L103.327 2.25861L105.227 2.88453ZM104.601 2.59H105.658V0.589999H104.601V2.59ZM107.773 2.59H109.888V0.589999H107.773V2.59ZM112.003 2.59H113.061V0.589999H112.003V2.59ZM112.11 1.89927L112.429 2.88083L114.331 2.26229L114.012 1.28073L112.11 1.89927ZM113.067 4.84396L113.706 6.80708L115.608 6.18854L114.969 4.22542L113.067 4.84396ZM114.344 8.77021L114.983 10.7333L116.885 10.1148L116.246 8.15167L114.344 8.77021ZM115.621 12.6965L116.259 14.6596L118.161 14.041L117.523 12.0779L115.621 12.6965ZM116.898 16.6227L117.536 18.5858L119.438 17.9673L118.8 16.0042L116.898 16.6227ZM118.175 20.549L118.813 22.5121L120.715 21.8935L120.077 19.9304L118.175 20.549ZM119.452 24.4752L120.09 26.4383L121.992 25.8198L121.354 23.8567L119.452 24.4752ZM120.729 28.4015L121.367 30.3646L123.269 29.746L122.63 27.7829L120.729 28.4015ZM122.005 32.3277L122.325 33.3093L124.227 32.6907L123.907 31.7092L122.005 32.3277ZM123.276 32H122.387V34H123.276V32ZM120.609 32H118.832V34H120.609V32ZM117.054 32H116.166V34H117.054V32ZM108.741 6.8H108.684V8.8H108.741V6.8ZM108.572 6.8H108.516V8.8H108.572V6.8ZM107.555 7.52097L107.267 8.51472L109.187 9.07278L109.476 8.07903L107.555 7.52097ZM106.689 10.5022L106.112 12.4897L108.032 13.0478L108.61 11.0603L106.689 10.5022ZM105.534 14.4772L104.957 16.4647L106.877 17.0228L107.455 15.0353L105.534 14.4772ZM104.379 18.4522L104.09 19.446L106.011 20.004L106.3 19.0103L104.379 18.4522ZM105.051 20.725H105.951V18.725H105.051V20.725ZM107.751 20.725H109.551V18.725H107.751V20.725ZM111.351 20.725H112.251V18.725H111.351V20.725ZM113.21 19.4426L112.917 18.4489L110.999 19.0136L111.291 20.0074L113.21 19.4426ZM112.332 16.4614L111.747 14.4739L109.829 15.0386L110.414 17.0261L112.332 16.4614ZM111.162 12.4864L110.577 10.4989L108.659 11.0636L109.244 13.0511L111.162 12.4864ZM109.992 8.51139L109.7 7.51764L107.781 8.08236L108.074 9.07611L109.992 8.51139ZM12.05 63.15L11.599 63.3658L11.6074 63.3835L11.6173 63.4005L12.05 63.15ZM9.035 56.85L9.48601 56.6342L9.35002 56.35H9.035V56.85ZM8.9 56.85V56.35H8.4V56.85H8.9ZM8.9 78V78.5H9.4V78H8.9ZM2.465 78H1.965V78.5H2.465V78ZM2.465 46.59V46.09H1.965V46.59H2.465ZM9.935 46.59L10.3677 46.3395L10.2233 46.09H9.935V46.59ZM18.53 61.44L18.981 61.2242L18.9726 61.2065L18.9627 61.1895L18.53 61.44ZM21.545 67.74L21.094 67.9558L21.23 68.24H21.545V67.74ZM21.68 67.74V68.24H22.18V67.74H21.68ZM21.68 46.59V46.09H21.18V46.59H21.68ZM28.115 46.59H28.615V46.09H28.115V46.59ZM28.115 78V78.5H28.615V78H28.115ZM20.645 78L20.2123 78.2505L20.3567 78.5H20.645V78ZM12.501 62.9342L12.1241 62.1467L11.2221 62.5783L11.599 63.3658L12.501 62.9342ZM11.3704 60.5717L10.6166 58.9967L9.71461 59.4283L10.4684 61.0033L11.3704 60.5717ZM9.86289 57.4217L9.48601 56.6342L8.58399 57.0658L8.96086 57.8533L9.86289 57.4217ZM9.035 56.35H9.00125V57.35H9.035V56.35ZM8.93375 56.35H8.9V57.35H8.93375V56.35ZM8.4 56.85V57.9075H9.4V56.85H8.4ZM8.4 60.0225V62.1375H9.4V60.0225H8.4ZM8.4 64.2525V66.3675H9.4V64.2525H8.4ZM8.4 68.4825V70.5975H9.4V68.4825H8.4ZM8.4 72.7125V74.8275H9.4V72.7125H8.4ZM8.4 76.9425V78H9.4V76.9425H8.4ZM8.9 77.5H8.09563V78.5H8.9V77.5ZM6.48688 77.5H4.87813V78.5H6.48688V77.5ZM3.26937 77.5H2.465V78.5H3.26937V77.5ZM2.965 78V77.0184H1.965V78H2.965ZM2.965 75.0553V73.0922H1.965V75.0553H2.965ZM2.965 71.1291V69.1659H1.965V71.1291H2.965ZM2.965 67.2028V65.2397H1.965V67.2028H2.965ZM2.965 63.2766V61.3134H1.965V63.2766H2.965ZM2.965 59.3503V57.3872H1.965V59.3503H2.965ZM2.965 55.4241V53.4609H1.965V55.4241H2.965ZM2.965 51.4978V49.5347H1.965V51.4978H2.965ZM2.965 47.5716V46.59H1.965V47.5716H2.965ZM2.465 47.09H3.39875V46.09H2.465V47.09ZM5.26625 47.09H7.13375V46.09H5.26625V47.09ZM9.00125 47.09H9.935V46.09H9.00125V47.09ZM9.50226 46.8405L10.0394 47.7686L10.9049 47.2677L10.3677 46.3395L9.50226 46.8405ZM11.1138 49.6248L12.1882 51.4811L13.0537 50.9802L11.9793 49.1239L11.1138 49.6248ZM13.2626 53.3373L14.3369 55.1936L15.2024 54.6927L14.1281 52.8364L13.2626 53.3373ZM15.4113 57.0498L16.4857 58.9061L17.3512 58.4052L16.2768 56.5489L15.4113 57.0498ZM17.5601 60.7623L18.0973 61.6905L18.9627 61.1895L18.4256 60.2614L17.5601 60.7623ZM18.079 61.6558L18.4559 62.4433L19.3579 62.0117L18.981 61.2242L18.079 61.6558ZM19.2096 64.0183L19.9634 65.5933L20.8654 65.1617L20.1116 63.5867L19.2096 64.0183ZM20.7171 67.1683L21.094 67.9558L21.996 67.5242L21.6191 66.7367L20.7171 67.1683ZM21.545 68.24H21.5788V67.24H21.545V68.24ZM21.6463 68.24H21.68V67.24H21.6463V68.24ZM22.18 67.74V66.6825H21.18V67.74H22.18ZM22.18 64.5675V62.4525H21.18V64.5675H22.18ZM22.18 60.3375V58.2225H21.18V60.3375H22.18ZM22.18 56.1075V53.9925H21.18V56.1075H22.18ZM22.18 51.8775V49.7625H21.18V51.8775H22.18ZM22.18 47.6475V46.59H21.18V47.6475H22.18ZM21.68 47.09H22.4844V46.09H21.68V47.09ZM24.0931 47.09H25.7019V46.09H24.0931V47.09ZM27.3106 47.09H28.115V46.09H27.3106V47.09ZM27.615 46.59V47.5716H28.615V46.59H27.615ZM27.615 49.5347V51.4978H28.615V49.5347H27.615ZM27.615 53.4609V55.4241H28.615V53.4609H27.615ZM27.615 57.3872V59.3503H28.615V57.3872H27.615ZM27.615 61.3134V63.2766H28.615V61.3134H27.615ZM27.615 65.2397V67.2028H28.615V65.2397H27.615ZM27.615 69.1659V71.1291H28.615V69.1659H27.615ZM27.615 73.0922V75.0553H28.615V73.0922H27.615ZM27.615 77.0184V78H28.615V77.0184H27.615ZM28.115 77.5H27.1813V78.5H28.115V77.5ZM25.3138 77.5H23.4463V78.5H25.3138V77.5ZM21.5788 77.5H20.645V78.5H21.5788V77.5ZM21.0777 77.7495L20.5406 76.8214L19.6751 77.3223L20.2123 78.2505L21.0777 77.7495ZM19.4662 74.9652L18.3918 73.1089L17.5263 73.6098L18.6007 75.4661L19.4662 74.9652ZM17.3174 71.2527L16.2431 69.3964L15.3776 69.8973L16.4519 71.7536L17.3174 71.2527ZM15.1687 67.5402L14.0943 65.6839L13.2288 66.1848L14.3032 68.0411L15.1687 67.5402ZM13.0199 63.8277L12.4827 62.8995L11.6173 63.4005L12.1544 64.3286L13.0199 63.8277ZM12.05 63.15L11.148 63.5817L11.1649 63.617L11.1845 63.6509L12.05 63.15ZM9.035 56.85L9.93703 56.4183L9.66505 55.85H9.035V56.85ZM8.9 56.85V55.85H7.9V56.85H8.9ZM8.9 78V79H9.9V78H8.9ZM2.465 78H1.465V79H2.465V78ZM2.465 46.59V45.59H1.465V46.59H2.465ZM9.935 46.59L10.8005 46.0891L10.5116 45.59H9.935V46.59ZM18.53 61.44L19.432 61.0083L19.4151 60.973L19.3955 60.9391L18.53 61.44ZM21.545 67.74L20.643 68.1717L20.915 68.74H21.545V67.74ZM21.68 67.74V68.74H22.68V67.74H21.68ZM21.68 46.59V45.59H20.68V46.59H21.68ZM28.115 46.59H29.115V45.59H28.115V46.59ZM28.115 78V79H29.115V78H28.115ZM20.645 78L19.7795 78.5009L20.0684 79H20.645V78ZM12.952 62.7183L12.5752 61.9308L10.7711 62.7942L11.148 63.5817L12.952 62.7183ZM11.8214 60.3558L11.0677 58.7808L9.2636 59.6442L10.0174 61.2192L11.8214 60.3558ZM10.3139 57.2058L9.93703 56.4183L8.13298 57.2817L8.50985 58.0692L10.3139 57.2058ZM9.035 55.85H9.00125V57.85H9.035V55.85ZM8.93375 55.85H8.9V57.85H8.93375V55.85ZM7.9 56.85V57.9075H9.9V56.85H7.9ZM7.9 60.0225V62.1375H9.9V60.0225H7.9ZM7.9 64.2525V66.3675H9.9V64.2525H7.9ZM7.9 68.4825V70.5975H9.9V68.4825H7.9ZM7.9 72.7125V74.8275H9.9V72.7125H7.9ZM7.9 76.9425V78H9.9V76.9425H7.9ZM8.9 77H8.09563V79H8.9V77ZM6.48688 77H4.87813V79H6.48688V77ZM3.26937 77H2.465V79H3.26937V77ZM3.465 78V77.0184H1.465V78H3.465ZM3.465 75.0553V73.0922H1.465V75.0553H3.465ZM3.465 71.1291V69.1659H1.465V71.1291H3.465ZM3.465 67.2028V65.2397H1.465V67.2028H3.465ZM3.465 63.2766V61.3134H1.465V63.2766H3.465ZM3.465 59.3503V57.3872H1.465V59.3503H3.465ZM3.465 55.4241V53.4609H1.465V55.4241H3.465ZM3.465 51.4978V49.5347H1.465V51.4978H3.465ZM3.465 47.5716V46.59H1.465V47.5716H3.465ZM2.465 47.59H3.39875V45.59H2.465V47.59ZM5.26625 47.59H7.13375V45.59H5.26625V47.59ZM9.00125 47.59H9.935V45.59H9.00125V47.59ZM9.06951 47.0909L9.6067 48.0191L11.3377 47.0172L10.8005 46.0891L9.06951 47.0909ZM10.6811 49.8753L11.7555 51.7316L13.4864 50.7297L12.412 48.8734L10.6811 49.8753ZM12.8298 53.5878L13.9042 55.4441L15.6352 54.4422L14.5608 52.5859L12.8298 53.5878ZM14.9786 57.3003L16.053 59.1566L17.7839 58.1547L16.7095 56.2984L14.9786 57.3003ZM17.1273 61.0128L17.6645 61.9409L19.3955 60.9391L18.8583 60.0109L17.1273 61.0128ZM17.628 61.8717L18.0049 62.6592L19.8089 61.7958L19.432 61.0083L17.628 61.8717ZM18.7586 64.2342L19.5124 65.8092L21.3164 64.9458L20.5627 63.3708L18.7586 64.2342ZM20.2661 67.3842L20.643 68.1717L22.447 67.3083L22.0702 66.5208L20.2661 67.3842ZM21.545 68.74H21.5788V66.74H21.545V68.74ZM21.6463 68.74H21.68V66.74H21.6463V68.74ZM22.68 67.74V66.6825H20.68V67.74H22.68ZM22.68 64.5675V62.4525H20.68V64.5675H22.68ZM22.68 60.3375V58.2225H20.68V60.3375H22.68ZM22.68 56.1075V53.9925H20.68V56.1075H22.68ZM22.68 51.8775V49.7625H20.68V51.8775H22.68ZM22.68 47.6475V46.59H20.68V47.6475H22.68ZM21.68 47.59H22.4844V45.59H21.68V47.59ZM24.0931 47.59H25.7019V45.59H24.0931V47.59ZM27.3106 47.59H28.115V45.59H27.3106V47.59ZM27.115 46.59V47.5716H29.115V46.59H27.115ZM27.115 49.5347V51.4978H29.115V49.5347H27.115ZM27.115 53.4609V55.4241H29.115V53.4609H27.115ZM27.115 57.3872V59.3503H29.115V57.3872H27.115ZM27.115 61.3134V63.2766H29.115V61.3134H27.115ZM27.115 65.2397V67.2028H29.115V65.2397H27.115ZM27.115 69.1659V71.1291H29.115V69.1659H27.115ZM27.115 73.0922V75.0553H29.115V73.0922H27.115ZM27.115 77.0184V78H29.115V77.0184H27.115ZM28.115 77H27.1813V79H28.115V77ZM25.3138 77H23.4463V79H25.3138V77ZM21.5788 77H20.645V79H21.5788V77ZM21.5105 77.4991L20.9733 76.5709L19.2423 77.5728L19.7795 78.5009L21.5105 77.4991ZM19.8989 74.7147L18.8246 72.8584L17.0936 73.8603L18.168 75.7166L19.8989 74.7147ZM17.7502 71.0022L16.6758 69.1459L14.9448 70.1478L16.0192 72.0041L17.7502 71.0022ZM15.6014 67.2897L14.527 65.4334L12.7961 66.4353L13.8705 68.2916L15.6014 67.2897ZM13.4527 63.5772L12.9155 62.6491L11.1845 63.6509L11.7217 64.5791L13.4527 63.5772ZM33.8135 78H33.3135V78.5H33.8135V78ZM33.8135 72.555V72.055H33.3135V72.555H33.8135ZM37.8635 72.555V73.055H38.3635V72.555H37.8635ZM37.8635 52.035H38.3635V51.535H37.8635V52.035ZM33.8135 52.035H33.3135V52.535H33.8135V52.035ZM33.8135 46.59V46.09H33.3135V46.59H33.8135ZM48.7535 46.59H49.2535V46.09H48.7535V46.59ZM48.7535 52.035V52.535H49.2535V52.035H48.7535ZM44.7035 52.035V51.535H44.2035V52.035H44.7035ZM44.7035 72.555H44.2035V73.055H44.7035V72.555ZM48.7535 72.555H49.2535V72.055H48.7535V72.555ZM48.7535 78V78.5H49.2535V78H48.7535ZM34.3135 78V76.6387H33.3135V78H34.3135ZM34.3135 73.9162V72.555H33.3135V73.9162H34.3135ZM33.8135 73.055H34.826V72.055H33.8135V73.055ZM36.851 73.055H37.8635V72.055H36.851V73.055ZM38.3635 72.555V71.529H37.3635V72.555H38.3635ZM38.3635 69.477V67.425H37.3635V69.477H38.3635ZM38.3635 65.373V63.321H37.3635V65.373H38.3635ZM38.3635 61.269V59.217H37.3635V61.269H38.3635ZM38.3635 57.165V55.113H37.3635V57.165H38.3635ZM38.3635 53.061V52.035H37.3635V53.061H38.3635ZM37.8635 51.535H36.851V52.535H37.8635V51.535ZM34.826 51.535H33.8135V52.535H34.826V51.535ZM34.3135 52.035V50.6737H33.3135V52.035H34.3135ZM34.3135 47.9512V46.59H33.3135V47.9512H34.3135ZM33.8135 47.09H34.7472V46.09H33.8135V47.09ZM36.6147 47.09H38.4822V46.09H36.6147V47.09ZM40.3497 47.09H42.2172V46.09H40.3497V47.09ZM44.0847 47.09H45.9522V46.09H44.0847V47.09ZM47.8197 47.09H48.7535V46.09H47.8197V47.09ZM48.2535 46.59V47.9512H49.2535V46.59H48.2535ZM48.2535 50.6737V52.035H49.2535V50.6737H48.2535ZM48.7535 51.535H47.741V52.535H48.7535V51.535ZM45.716 51.535H44.7035V52.535H45.716V51.535ZM44.2035 52.035V53.061H45.2035V52.035H44.2035ZM44.2035 55.113V57.165H45.2035V55.113H44.2035ZM44.2035 59.217V61.269H45.2035V59.217H44.2035ZM44.2035 63.321V65.373H45.2035V63.321H44.2035ZM44.2035 67.425V69.477H45.2035V67.425H44.2035ZM44.2035 71.529V72.555H45.2035V71.529H44.2035ZM44.7035 73.055H45.716V72.055H44.7035V73.055ZM47.741 73.055H48.7535V72.055H47.741V73.055ZM48.2535 72.555V73.9162H49.2535V72.555H48.2535ZM48.2535 76.6387V78H49.2535V76.6387H48.2535ZM48.7535 77.5H47.8197V78.5H48.7535V77.5ZM45.9522 77.5H44.0847V78.5H45.9522V77.5ZM42.2172 77.5H40.3497V78.5H42.2172V77.5ZM38.4822 77.5H36.6147V78.5H38.4822V77.5ZM34.7472 77.5H33.8135V78.5H34.7472V77.5ZM33.8135 78H32.8135V79H33.8135V78ZM33.8135 72.555V71.555H32.8135V72.555H33.8135ZM37.8635 72.555V73.555H38.8635V72.555H37.8635ZM37.8635 52.035H38.8635V51.035H37.8635V52.035ZM33.8135 52.035H32.8135V53.035H33.8135V52.035ZM33.8135 46.59V45.59H32.8135V46.59H33.8135ZM48.7535 46.59H49.7535V45.59H48.7535V46.59ZM48.7535 52.035V53.035H49.7535V52.035H48.7535ZM44.7035 52.035V51.035H43.7035V52.035H44.7035ZM44.7035 72.555H43.7035V73.555H44.7035V72.555ZM48.7535 72.555H49.7535V71.555H48.7535V72.555ZM48.7535 78V79H49.7535V78H48.7535ZM34.8135 78V76.6387H32.8135V78H34.8135ZM34.8135 73.9162V72.555H32.8135V73.9162H34.8135ZM33.8135 73.555H34.826V71.555H33.8135V73.555ZM36.851 73.555H37.8635V71.555H36.851V73.555ZM38.8635 72.555V71.529H36.8635V72.555H38.8635ZM38.8635 69.477V67.425H36.8635V69.477H38.8635ZM38.8635 65.373V63.321H36.8635V65.373H38.8635ZM38.8635 61.269V59.217H36.8635V61.269H38.8635ZM38.8635 57.165V55.113H36.8635V57.165H38.8635ZM38.8635 53.061V52.035H36.8635V53.061H38.8635ZM37.8635 51.035H36.851V53.035H37.8635V51.035ZM34.826 51.035H33.8135V53.035H34.826V51.035ZM34.8135 52.035V50.6737H32.8135V52.035H34.8135ZM34.8135 47.9512V46.59H32.8135V47.9512H34.8135ZM33.8135 47.59H34.7472V45.59H33.8135V47.59ZM36.6147 47.59H38.4822V45.59H36.6147V47.59ZM40.3497 47.59H42.2172V45.59H40.3497V47.59ZM44.0847 47.59H45.9522V45.59H44.0847V47.59ZM47.8197 47.59H48.7535V45.59H47.8197V47.59ZM47.7535 46.59V47.9512H49.7535V46.59H47.7535ZM47.7535 50.6737V52.035H49.7535V50.6737H47.7535ZM48.7535 51.035H47.741V53.035H48.7535V51.035ZM45.716 51.035H44.7035V53.035H45.716V51.035ZM43.7035 52.035V53.061H45.7035V52.035H43.7035ZM43.7035 55.113V57.165H45.7035V55.113H43.7035ZM43.7035 59.217V61.269H45.7035V59.217H43.7035ZM43.7035 63.321V65.373H45.7035V63.321H43.7035ZM43.7035 67.425V69.477H45.7035V67.425H43.7035ZM43.7035 71.529V72.555H45.7035V71.529H43.7035ZM44.7035 73.555H45.716V71.555H44.7035V73.555ZM47.741 73.555H48.7535V71.555H47.741V73.555ZM47.7535 72.555V73.9162H49.7535V72.555H47.7535ZM47.7535 76.6387V78H49.7535V76.6387H47.7535ZM48.7535 77H47.8197V79H48.7535V77ZM45.9522 77H44.0847V79H45.9522V77ZM42.2172 77H40.3497V79H42.2172V77ZM38.4822 77H36.6147V79H38.4822V77ZM34.7472 77H33.8135V79H34.7472V77ZM57.6023 77.145L57.3787 77.5922L57.3843 77.595L57.6023 77.145ZM52.6973 73.455L52.342 73.1032L52.0099 73.4386L52.3257 73.7895L52.6973 73.455ZM57.1973 68.91L57.5713 68.5781L57.2172 68.1792L56.842 68.5582L57.1973 68.91ZM68.8073 71.475L69.1315 71.8556L69.1315 71.8556L68.8073 71.475ZM69.3023 66.57L68.9117 66.8824L68.9198 66.8921L69.3023 66.57ZM66.3773 65.355L66.448 64.86L66.442 64.8592L66.3773 65.355ZM63.2723 64.95L63.337 64.4542L63.3349 64.4539L63.2723 64.95ZM55.9373 61.935L55.577 62.2817L55.5804 62.2852L55.9373 61.935ZM54.4523 51.72L53.9983 51.5105L53.9983 51.5105L54.4523 51.72ZM56.7473 48.705L56.4294 48.319L56.4238 48.3237L56.7473 48.705ZM60.4373 46.77L60.5865 47.2473L60.5925 47.2453L60.4373 46.77ZM71.6873 47.175L71.8796 46.7135L71.8796 46.7135L71.6873 47.175ZM76.3223 50.46L76.6776 50.8118L77.009 50.4772L76.6947 50.1264L76.3223 50.46ZM71.7773 55.05L71.3986 55.3765L71.7519 55.7863L72.1326 55.4018L71.7773 55.05ZM69.0323 52.935L68.7938 53.3744L68.8012 53.3784L68.8087 53.3822L69.0323 52.935ZM61.6073 52.89L61.8995 53.2958L61.8995 53.2958L61.6073 52.89ZM61.3373 57.48L61.0151 57.8626L61.025 57.8704L61.3373 57.48ZM64.2173 58.515L64.296 58.0212L64.2959 58.0212L64.2173 58.515ZM67.3223 59.01L67.2436 59.5038L67.2446 59.5039L67.3223 59.01ZM74.5223 62.025L74.1757 62.3854L74.1794 62.3889L74.5223 62.025ZM76.0523 72.465L75.5927 72.268L76.0523 72.465ZM73.6673 75.705L73.3419 75.3253L73.3365 75.3301L73.6673 75.705ZM69.8423 77.82L69.992 78.2971L70.0004 78.2943L69.8423 77.82ZM64.6223 78.04C64.3226 78.04 64.0283 78.0344 63.7393 78.0232L63.7007 79.0225C64.0029 79.0342 64.3101 79.04 64.6223 79.04V78.04ZM61.9866 77.879C61.3862 77.8012 60.8132 77.6955 60.2674 77.5621L60.0301 78.5335C60.6142 78.6763 61.2237 78.7885 61.8582 78.8707L61.9866 77.879ZM58.6115 77.041C58.3395 76.9341 58.0758 76.8188 57.8203 76.695L57.3843 77.595C57.6634 77.7302 57.9506 77.8557 58.2457 77.9717L58.6115 77.041ZM57.8259 76.6978C57.6003 76.585 57.3789 76.4684 57.1616 76.3481L56.6771 77.2229C56.9068 77.3501 57.1407 77.4732 57.3787 77.5922L57.8259 76.6978ZM55.884 75.565C55.467 75.2827 55.0679 74.9842 54.6864 74.6693L54.0498 75.4405C54.4561 75.7759 54.8807 76.0934 55.3234 76.3931L55.884 75.565ZM53.5822 73.6631C53.4067 73.4865 53.2356 73.3056 53.069 73.1205L52.3257 73.7895C52.5033 73.9869 52.6858 74.1798 52.873 74.3681L53.5822 73.6631ZM53.0526 73.8068L53.6151 73.2387L52.9045 72.5351L52.342 73.1032L53.0526 73.8068ZM54.7401 72.1024L55.8651 70.9662L55.1545 70.2626L54.0295 71.3988L54.7401 72.1024ZM56.9901 69.8299L57.5526 69.2618L56.842 68.5582L56.2795 69.1263L56.9901 69.8299ZM56.8233 69.2419C57.0852 69.537 57.3549 69.8152 57.6325 70.0765L58.3179 69.3484C58.063 69.1084 57.8141 68.8517 57.5713 68.5781L56.8233 69.2419ZM59.4862 71.4969C60.1611 71.9077 60.8712 72.2353 61.6161 72.4791L61.9272 71.5287C61.2561 71.309 60.616 71.0139 60.0062 70.6427L59.4862 71.4969ZM63.9077 72.9544C64.2891 72.9915 64.6773 73.01 65.0723 73.01V72.01C64.7085 72.01 64.3526 71.993 64.0046 71.9591L63.9077 72.9544ZM65.0723 73.01C65.4342 73.01 65.7794 72.9946 66.1074 72.9634L66.0125 71.9679C65.7194 71.9958 65.4061 72.01 65.0723 72.01V73.01ZM68.1789 72.453C68.5337 72.2917 68.8525 72.0933 69.1315 71.8556L68.4831 71.0944C68.2818 71.2659 68.0437 71.416 67.7652 71.5426L68.1789 72.453ZM69.1315 71.8556C69.3609 71.6602 69.5641 71.4466 69.7395 71.2144L68.9417 70.6116C68.8126 70.7824 68.6602 70.9435 68.4831 71.0944L69.1315 71.8556ZM70.4457 69.5936C70.4972 69.3163 70.5223 69.0281 70.5223 68.73H69.5223C69.5223 68.972 69.5019 69.1987 69.4625 69.411L70.4457 69.5936ZM70.5223 68.73C70.5223 68.5074 70.5081 68.2911 70.479 68.0815L69.4885 68.2189C69.5108 68.3797 69.5223 68.5499 69.5223 68.73H70.5223ZM70.069 66.8094C69.9601 66.6099 69.8319 66.4226 69.6848 66.2479L68.9198 66.8921C69.0243 67.0161 69.1147 67.1482 69.1914 67.2887L70.069 66.8094ZM69.6927 66.2577C69.4941 66.0094 69.2397 65.7995 68.9423 65.6225L68.431 66.4819C68.6461 66.6099 68.8021 66.7452 68.9119 66.8823L69.6927 66.2577ZM67.2823 65.0104C67.0212 64.9522 66.743 64.9022 66.448 64.86L66.3066 65.85C66.5793 65.8889 66.8318 65.9345 67.0646 65.9865L67.2823 65.0104ZM66.442 64.8592L65.6657 64.7579L65.5364 65.7495L66.3126 65.8508L66.442 64.8592ZM64.1132 64.5554L63.337 64.4542L63.2076 65.4458L63.9839 65.547L64.1132 64.5554ZM63.3349 64.4539C62.9994 64.4116 62.6737 64.3633 62.3577 64.3091L62.1885 65.2947C62.5199 65.3515 62.8603 65.402 63.2097 65.4461L63.3349 64.4539ZM60.4444 63.8747C59.782 63.6822 59.177 63.456 58.6281 63.1973L58.2017 64.1018C58.8034 64.3855 59.4584 64.6295 60.1653 64.8349L60.4444 63.8747ZM56.9981 62.2102C56.7443 62.013 56.5098 61.8045 56.2942 61.5848L55.5804 62.2852C55.8285 62.538 56.0967 62.7762 56.3847 63L56.9981 62.2102ZM56.2976 61.5883C56.1088 61.3921 55.9327 61.1876 55.7691 60.9749L54.9763 61.5844C55.1626 61.8267 55.3629 62.0592 55.577 62.2817L56.2976 61.5883ZM54.9344 59.5915C54.7137 59.1126 54.5383 58.5994 54.4093 58.051L53.4359 58.2799C53.5794 58.8899 53.7759 59.467 54.0263 60.0102L54.9344 59.5915ZM54.1698 56.4213C54.1515 56.1512 54.1423 55.8741 54.1423 55.59H53.1423C53.1423 55.8957 53.1522 56.1954 53.1721 56.4889L54.1698 56.4213ZM54.1423 55.59C54.1423 55.2668 54.1572 54.9511 54.1867 54.6428L53.1913 54.5474C53.1586 54.8885 53.1423 55.2361 53.1423 55.59H54.1423ZM54.5645 52.8019C54.6617 52.5035 54.7756 52.2127 54.9063 51.9295L53.9983 51.5105C53.8511 51.8295 53.7229 52.1568 53.6136 52.4923L54.5645 52.8019ZM54.9063 51.9295C55.0335 51.654 55.1737 51.3885 55.3268 51.1331L54.4691 50.6189C54.2972 50.9056 54.1403 51.2028 53.9983 51.5105L54.9063 51.9295ZM56.4148 49.7047C56.6201 49.4894 56.8387 49.2832 57.0708 49.0863L56.4238 48.3237C56.1653 48.5431 55.921 48.7734 55.6909 49.0148L56.4148 49.7047ZM57.0652 49.091C57.3178 48.8829 57.5844 48.6872 57.8653 48.5038L57.3185 47.6665C57.0075 47.8696 56.7111 48.0871 56.4295 48.319L57.0652 49.091ZM59.6378 47.5857C59.9419 47.4627 60.2581 47.3499 60.5864 47.2472L60.2882 46.2928C59.935 46.4031 59.5932 46.5251 59.2628 46.6587L59.6378 47.5857ZM60.5925 47.2453C60.9699 47.1221 61.3616 47.015 61.7678 46.9243L61.5499 45.9483C61.1138 46.0457 60.6912 46.1611 60.2821 46.2947L60.5925 47.2453ZM64.1976 46.588C64.5981 46.5627 65.0097 46.55 65.4323 46.55V45.55C64.9897 45.55 64.5571 45.5633 64.1346 45.5899L64.1976 46.588ZM65.4323 46.55C65.6965 46.55 65.9569 46.5548 66.2134 46.5643L66.2505 45.565C65.9813 45.555 65.7086 45.55 65.4323 45.55V46.55ZM67.7655 46.6853C68.2932 46.7495 68.8023 46.8363 69.293 46.9455L69.5103 45.9694C68.9861 45.8527 68.4446 45.7605 67.8861 45.6926L67.7655 46.6853ZM70.7769 47.3635C71.0216 47.448 71.2609 47.539 71.495 47.6365L71.8796 46.7135C71.626 46.6078 71.3673 46.5094 71.1034 46.4182L70.7769 47.3635ZM71.495 47.6365C71.9244 47.8154 72.3381 48.0145 72.7364 48.2336L73.2185 47.3575C72.7879 47.1206 72.3416 46.906 71.8796 46.7135L71.495 47.6365ZM74.9768 49.8202C75.3161 50.1237 75.6404 50.4482 75.9499 50.7936L76.6947 50.1264C76.3611 49.754 76.0107 49.4035 75.6436 49.0749L74.9768 49.8202ZM75.967 50.1082L75.3989 50.6819L76.1095 51.3856L76.6776 50.8118L75.967 50.1082ZM74.2626 51.8294L73.1264 52.9769L73.837 53.6806L74.9732 52.5331L74.2626 51.8294ZM71.9901 54.1244L71.422 54.6982L72.1326 55.4018L72.7007 54.8281L71.9901 54.1244ZM72.156 54.7235C71.9546 54.4899 71.7419 54.2675 71.518 54.0562L70.8318 54.7837C71.0307 54.9713 71.2196 55.1688 71.3986 55.3765L72.156 54.7235ZM70.0573 52.9351C69.8 52.7753 69.5329 52.6263 69.2559 52.4878L68.8087 53.3822C69.0589 53.5073 69.2993 53.6415 69.5298 53.7846L70.0573 52.9351ZM69.2709 52.4956C68.9507 52.3218 68.6086 52.1735 68.2454 52.0502L67.9239 52.9971C68.237 53.1035 68.5267 53.2295 68.7938 53.3744L69.2709 52.4956ZM66.1026 51.6236C65.7571 51.5944 65.3986 51.58 65.0273 51.58V52.58C65.3727 52.58 65.7031 52.5934 66.0185 52.6201L66.1026 51.6236ZM65.0273 51.58C64.7017 51.58 64.391 51.5918 64.0954 51.6157L64.1759 52.6124C64.4419 52.5909 64.7257 52.58 65.0273 52.58V51.58ZM62.2154 52.0074C61.8828 52.1346 61.5814 52.2926 61.3152 52.4842L61.8995 53.2958C62.0865 53.1611 62.3094 53.0421 62.5725 52.9415L62.2154 52.0074ZM61.3152 52.4842C61.1021 52.6376 60.9115 52.8085 60.7455 52.9975L61.4968 53.6574C61.6093 53.5293 61.7428 53.4085 61.8995 53.2958L61.3152 52.4842ZM60.0568 54.387C60.0065 54.6285 59.9823 54.8799 59.9823 55.14H60.9823C60.9823 54.9421 61.0007 54.7593 61.0358 54.5907L60.0568 54.387ZM59.9823 55.14C59.9823 55.3857 59.9959 55.6207 60.0241 55.8444L61.0163 55.7196C60.9939 55.542 60.9823 55.3489 60.9823 55.14H59.9823ZM60.4945 57.26C60.6376 57.489 60.8112 57.6907 61.0152 57.8625L61.6594 57.0975C61.5376 56.995 61.4321 56.8733 61.3425 56.7301L60.4945 57.26ZM61.025 57.8704C61.2438 58.0455 61.4957 58.1996 61.7763 58.3351L62.2112 57.4347C61.986 57.3259 61.8002 57.21 61.6497 57.0896L61.025 57.8704ZM63.3478 58.8581C63.5976 58.9145 63.8613 58.9647 64.1387 59.0088L64.2959 58.0212C64.0373 57.9801 63.7947 57.9338 63.5679 57.8827L63.3478 58.8581ZM64.1386 59.0088L64.9148 59.1325L65.0723 58.145L64.296 58.0212L64.1386 59.0088ZM66.4673 59.38L67.2436 59.5038L67.401 58.5162L66.6248 58.3925L66.4673 59.38ZM67.2446 59.5039C67.5723 59.5555 67.8908 59.6122 68.2001 59.6739L68.3958 58.6933C68.0725 58.6287 67.7406 58.5697 67.4001 58.5161L67.2446 59.5039ZM70.0712 60.143C70.7187 60.343 71.3121 60.5714 71.8526 60.8272L72.2804 59.9233C71.6923 59.645 71.054 59.4 70.3664 59.1875L70.0712 60.143ZM73.4676 61.7864C73.7223 61.9765 73.9582 62.1763 74.1758 62.3854L74.8689 61.6646C74.6201 61.4254 74.3523 61.199 74.0658 60.985L73.4676 61.7864ZM74.1794 62.3889C74.3752 62.5734 74.5575 62.7684 74.7265 62.9738L75.4989 62.3387C75.3028 62.1003 75.0915 61.8744 74.8652 61.6611L74.1794 62.3889ZM75.5791 64.3289C75.7995 64.7983 75.9745 65.3092 76.1027 65.863L77.0769 65.6375C76.9341 65.0204 76.737 64.442 76.4843 63.9039L75.5791 64.3289ZM76.3359 67.4928C76.3535 67.7623 76.3623 68.0397 76.3623 68.325H77.3623C77.3623 68.0191 77.3528 67.72 77.3338 67.4278L76.3359 67.4928ZM76.3623 68.325C76.3623 68.671 76.3473 69.0096 76.3175 69.3408L77.3135 69.4304C77.3461 69.0684 77.3623 68.6999 77.3623 68.325H76.3623ZM75.9373 71.3226C75.8393 71.6455 75.7245 71.9606 75.5927 72.268L76.5119 72.662C76.6582 72.3205 76.7857 71.9707 76.8942 71.6129L75.9373 71.3226ZM75.5927 72.268C75.4655 72.565 75.3235 72.8508 75.1667 73.1258L76.0355 73.621C76.2112 73.3127 76.37 72.993 76.5119 72.662L75.5927 72.268ZM74.0346 74.6624C73.8189 74.8934 73.588 75.1144 73.3419 75.3254L73.9927 76.0846C74.2663 75.8501 74.5239 75.6036 74.7655 75.345L74.0346 74.6624ZM73.3365 75.3301C73.0809 75.5556 72.8077 75.7687 72.5166 75.9693L73.0841 76.7927C73.407 76.5702 73.7117 76.3326 73.9981 76.0799L73.3365 75.3301ZM70.6753 76.9713C70.3592 77.1059 70.0289 77.2308 69.6842 77.3457L70.0004 78.2943C70.3694 78.1713 70.725 78.037 71.0672 77.8913L70.6753 76.9713ZM69.6926 77.3429C69.2971 77.467 68.886 77.5747 68.4591 77.666L68.6681 78.6439C69.124 78.5465 69.5653 78.4309 69.992 78.2971L69.6926 77.3429ZM65.9141 78.0022C65.4953 78.0274 65.0647 78.04 64.6223 78.04V79.04C65.0837 79.04 65.5343 79.0268 65.9741 79.0004L65.9141 78.0022ZM57.6023 77.145L57.1551 78.0395L57.1664 78.045L57.6023 77.145ZM52.6973 73.455L51.9867 72.7514L51.3225 73.4223L51.954 74.124L52.6973 73.455ZM57.1973 68.91L57.9452 68.2462L57.2372 67.4484L56.4867 68.2064L57.1973 68.91ZM68.8073 71.475L69.4558 72.2362L69.4558 72.2362L68.8073 71.475ZM69.3023 66.57L68.5214 67.1947L68.5293 67.2045L68.5374 67.2141L69.3023 66.57ZM66.3773 65.355L66.5187 64.365L66.5066 64.3634L66.3773 65.355ZM63.2723 64.95L63.4016 63.9584L63.3974 63.9579L63.2723 64.95ZM55.9373 61.935L55.2167 62.6284L55.2235 62.6353L55.9373 61.935ZM54.4523 51.72L53.5443 51.3009L53.5443 51.3009L54.4523 51.72ZM56.7473 48.705L56.1116 47.9331L56.1059 47.9377L56.1003 47.9425L56.7473 48.705ZM60.4373 46.77L60.7356 47.7246L60.7477 47.7206L60.4373 46.77ZM71.6873 47.175L72.0719 46.2519L72.0719 46.2519L71.6873 47.175ZM76.3223 50.46L77.0329 51.1636L77.6956 50.4943L77.0671 49.7927L76.3223 50.46ZM71.7773 55.05L71.0199 55.7029L71.7265 56.5226L72.4879 55.7536L71.7773 55.05ZM69.0323 52.935L68.5552 53.8139L68.57 53.8219L68.5851 53.8294L69.0323 52.935ZM61.6073 52.89L62.1916 53.7015L62.1916 53.7015L61.6073 52.89ZM61.3373 57.48L60.6932 58.2449L60.7028 58.253L60.7126 58.2609L61.3373 57.48ZM64.2173 58.515L64.3747 57.5275L64.3744 57.5274L64.2173 58.515ZM67.3223 59.01L67.1649 59.9975L67.1668 59.9978L67.3223 59.01ZM74.5223 62.025L73.8292 62.7459L73.8365 62.7528L74.5223 62.025ZM76.0523 72.465L75.1332 72.0711L76.0523 72.465ZM73.6673 75.705L73.0165 74.9457L73.0111 74.9504L73.0057 74.9552L73.6673 75.705ZM69.8423 77.82L70.1416 78.7741L70.1501 78.7715L70.1585 78.7687L69.8423 77.82ZM64.6223 77.54C64.3288 77.54 64.0409 77.5345 63.7586 77.5236L63.6813 79.5221C63.9903 79.5341 64.3039 79.54 64.6223 79.54V77.54ZM62.0509 77.3831C61.4675 77.3076 60.9128 77.2051 60.3861 77.0764L59.9114 79.0193C60.5147 79.1667 61.1424 79.2822 61.794 79.3666L62.0509 77.3831ZM58.7944 76.5757C58.534 76.4733 58.282 76.3631 58.0382 76.245L57.1664 78.045C57.4572 78.1859 57.7561 78.3165 58.0628 78.4371L58.7944 76.5757ZM58.0495 76.2506C57.8301 76.1409 57.6149 76.0276 57.4038 75.9107L56.4349 77.6603C56.6708 77.791 56.9109 77.9173 57.1551 78.0394L58.0495 76.2506ZM56.1643 75.151C55.7602 74.8774 55.3737 74.5883 55.0046 74.2837L53.7315 75.8262C54.1502 76.1717 54.5875 76.4987 55.0432 76.8072L56.1643 75.151ZM53.9368 73.3106C53.7671 73.1399 53.6017 72.965 53.4406 72.786L51.954 74.124C52.1372 74.3275 52.3254 74.5264 52.5184 74.7206L53.9368 73.3106ZM53.4079 74.1586L53.9704 73.5905L52.5492 72.1833L51.9867 72.7514L53.4079 74.1586ZM55.0954 72.4542L56.2204 71.318L54.7992 69.9108L53.6742 71.047L55.0954 72.4542ZM57.3454 70.1817L57.9079 69.6136L56.4867 68.2064L55.9242 68.7745L57.3454 70.1817ZM56.4494 69.5738C56.7208 69.8796 57.0009 70.1686 57.2897 70.4406L58.6606 68.9844C58.417 68.755 58.1785 68.5091 57.9452 68.2462L56.4494 69.5738ZM59.2263 71.924C59.9336 72.3546 60.6788 72.6984 61.4605 72.9543L62.0828 71.0535C61.4486 70.8459 60.8434 70.567 60.2662 70.2156L59.2263 71.924ZM63.8593 73.4521C64.2573 73.4908 64.6617 73.51 65.0723 73.51V71.51C64.7241 71.51 64.3844 71.4937 64.053 71.4615L63.8593 73.4521ZM65.0723 73.51C65.4483 73.51 65.8094 73.494 66.1548 73.4611L65.9651 71.4701C65.6894 71.4964 65.3921 71.51 65.0723 71.51V73.51ZM68.3858 72.9082C68.7787 72.7296 69.1379 72.5071 69.4558 72.2362L68.1588 70.7138C67.9964 70.8521 67.7987 70.9781 67.5583 71.0874L68.3858 72.9082ZM69.4558 72.2362C69.7113 72.0186 69.9399 71.7787 70.1384 71.5159L68.5428 70.3101C68.4368 70.4503 68.3099 70.5851 68.1588 70.7138L69.4558 72.2362ZM70.9373 69.6849C70.9948 69.375 71.0223 69.0562 71.0223 68.73H69.0223C69.0223 68.9439 69.0043 69.14 68.9709 69.3197L70.9373 69.6849ZM71.0223 68.73C71.0223 68.4862 71.0067 68.2468 70.9743 68.0128L68.9932 68.2876C69.0122 68.424 69.0223 68.5712 69.0223 68.73H71.0223ZM70.5079 66.5697C70.3828 66.3407 70.2356 66.1259 70.0672 65.9259L68.5374 67.2141C68.6206 67.3129 68.692 67.4174 68.7526 67.5283L70.5079 66.5697ZM70.0832 65.9453C69.8402 65.6415 69.5365 65.3943 69.1979 65.1928L68.1753 66.9116C68.3493 67.0151 68.4561 67.1131 68.5214 67.1947L70.0832 65.9453ZM67.3912 64.5224C67.1159 64.461 66.8249 64.4088 66.5187 64.365L66.2359 66.3449C66.4974 66.3823 66.7371 66.4257 66.9557 66.4745L67.3912 64.5224ZM66.5066 64.3634L65.7304 64.2621L65.4717 66.2453L66.248 66.3466L66.5066 64.3634ZM64.1779 64.0596L63.4016 63.9584L63.143 65.9416L63.9192 66.0428L64.1779 64.0596ZM63.3974 63.9579C63.069 63.9164 62.7506 63.8692 62.4423 63.8163L62.104 65.7875C62.443 65.8457 62.7908 65.8972 63.1472 65.9421L63.3974 63.9579ZM60.5839 63.3945C59.9438 63.2085 59.3637 62.9913 58.8413 62.745L57.9884 64.554C58.6166 64.8502 59.2966 65.1032 60.0258 65.3151L60.5839 63.3945ZM57.3049 61.8154C57.0681 61.6314 56.8504 61.4378 56.6511 61.2347L55.2235 62.6353C55.4878 62.9048 55.7729 63.1579 56.078 63.3948L57.3049 61.8154ZM56.6579 61.2416C56.4817 61.0586 56.3177 60.8681 56.1655 60.6702L54.5799 61.8891C54.7776 62.1463 54.99 62.3927 55.2167 62.6284L56.6579 61.2416ZM55.3885 59.3822C55.1825 58.9354 55.0178 58.4542 54.896 57.9365L52.9492 58.3944C53.0999 59.0352 53.307 59.6442 53.5722 60.2195L55.3885 59.3822ZM54.6687 56.3875C54.6512 56.1292 54.6423 55.8634 54.6423 55.59H52.6423C52.6423 55.9065 52.6526 56.2174 52.6732 56.5227L54.6687 56.3875ZM54.6423 55.59C54.6423 55.2821 54.6565 54.9823 54.6844 54.6905L52.6936 54.4996C52.6593 54.8573 52.6423 55.2208 52.6423 55.59H54.6423ZM55.0399 52.9567C55.131 52.6768 55.2378 52.4043 55.3603 52.1391L53.5443 51.3009C53.3889 51.6378 53.2535 51.9834 53.1382 52.3375L55.0399 52.9567ZM55.3603 52.1391C55.48 51.8795 55.6119 51.63 55.7556 51.3902L54.0403 50.3618C53.859 50.6641 53.6937 50.9773 53.5443 51.3009L55.3603 52.1391ZM56.7767 50.0497C56.9696 49.8473 57.1754 49.6533 57.3943 49.4675L56.1003 47.9425C55.8287 48.173 55.5714 48.4155 55.3289 48.6699L56.7767 50.0497ZM57.383 49.4769C57.6211 49.2809 57.8729 49.096 58.1386 48.9225L57.0451 47.2479C56.719 47.4608 56.4077 47.6892 56.1116 47.9331L57.383 49.4769ZM59.8253 48.0493C60.1163 47.9315 60.4196 47.8232 60.7356 47.7245L60.139 45.8155C59.7734 45.9298 59.4188 46.0563 59.0753 46.1952L59.8253 48.0493ZM60.7477 47.7206C61.1093 47.6025 61.4856 47.4997 61.8768 47.4123L61.4409 45.4604C60.9899 45.5611 60.5518 45.6807 60.1269 45.8194L60.7477 47.7206ZM64.2291 47.087C64.6186 47.0624 65.0197 47.05 65.4323 47.05V45.05C64.9797 45.05 64.5366 45.0636 64.1031 45.0909L64.2291 47.087ZM65.4323 47.05C65.6905 47.05 65.9447 47.0547 66.1948 47.0639L66.269 45.0653C65.9935 45.0551 65.7146 45.05 65.4323 45.05V47.05ZM67.7052 47.1817C68.2175 47.2439 68.7104 47.328 69.1843 47.4336L69.619 45.4814C69.078 45.3609 68.5204 45.266 67.9464 45.1963L67.7052 47.1817ZM70.6136 47.8361C70.8487 47.9172 71.0784 48.0046 71.3027 48.0981L72.0719 46.2519C71.8086 46.1422 71.5401 46.0401 71.2666 45.9456L70.6136 47.8361ZM71.3027 48.0981C71.7158 48.2702 72.1132 48.4614 72.4954 48.6717L73.4595 46.9194C73.0128 46.6737 72.5502 46.4512 72.0719 46.2519L71.3027 48.0981ZM74.6434 50.1928C74.9687 50.4839 75.2801 50.7953 75.5775 51.1272L77.0671 49.7927C76.7215 49.4069 76.3581 49.0433 75.977 48.7023L74.6434 50.1928ZM75.6117 49.7564L75.0436 50.3301L76.4648 51.7374L77.0329 51.1636L75.6117 49.7564ZM73.9073 51.4776L72.7711 52.6251L74.1923 54.0324L75.3285 52.8849L73.9073 51.4776ZM71.6348 53.7726L71.0667 54.3464L72.4879 55.7536L73.056 55.1799L71.6348 53.7726ZM72.5347 54.3971C72.3221 54.1504 72.0975 53.9155 71.861 53.6925L70.4888 55.1474C70.6751 55.3232 70.8521 55.5083 71.0199 55.7029L72.5347 54.3971ZM70.3211 52.5103C70.0504 52.3422 69.7698 52.1857 69.4795 52.0406L68.5851 53.8294C68.822 53.9479 69.0489 54.0746 69.2661 54.2094L70.3211 52.5103ZM69.5094 52.0561C69.1627 51.8679 68.7943 51.7086 68.4061 51.5768L67.7631 53.4706C68.0513 53.5684 68.3147 53.6833 68.5552 53.8139L69.5094 52.0561ZM66.1447 51.1254C65.7841 51.0949 65.4115 51.08 65.0273 51.08V53.08C65.3598 53.08 65.6761 53.0929 65.9764 53.1183L66.1447 51.1254ZM65.0273 51.08C64.6898 51.08 64.3655 51.0922 64.0551 51.1173L64.2162 53.1108C64.4674 53.0905 64.7376 53.08 65.0273 53.08V51.08ZM62.0368 51.5404C61.6695 51.6808 61.3288 51.8583 61.023 52.0785L62.1916 53.7015C62.339 53.5954 62.5228 53.4958 62.7511 53.4085L62.0368 51.5404ZM61.023 52.0785C60.7817 52.2522 60.5626 52.448 60.3698 52.6676L61.8725 53.9874C61.9582 53.8898 62.0632 53.794 62.1916 53.7015L61.023 52.0785ZM59.5673 54.2851C59.5095 54.5631 59.4823 54.8488 59.4823 55.14H61.4823C61.4823 54.9732 61.4978 54.8248 61.5254 54.6925L59.5673 54.2851ZM59.4823 55.14C59.4823 55.404 59.497 55.66 59.528 55.9069L61.5124 55.6572C61.4929 55.5026 61.4823 55.3306 61.4823 55.14H59.4823ZM60.0705 57.525C60.2404 57.7969 60.448 58.0385 60.6932 58.2449L61.9814 56.7151C61.9008 56.6472 61.8293 56.5655 61.7665 56.4651L60.0705 57.525ZM60.7126 58.2609C60.9656 58.4632 61.2505 58.6364 61.5588 58.7853L62.4287 56.9844C62.2311 56.889 62.0784 56.7923 61.962 56.6991L60.7126 58.2609ZM63.2378 59.3459C63.4991 59.4048 63.7734 59.4569 64.0602 59.5026L64.3744 57.5274C64.1253 57.4878 63.8933 57.4435 63.6779 57.3949L63.2378 59.3459ZM64.0599 59.5025L64.8361 59.6263L65.151 57.6512L64.3747 57.5275L64.0599 59.5025ZM66.3886 59.8738L67.1649 59.9975L67.4797 58.0225L66.7035 57.8987L66.3886 59.8738ZM67.1668 59.9978C67.4882 60.0484 67.7999 60.1039 68.1022 60.1642L68.4937 58.2029C68.1634 58.137 67.8248 58.0768 67.4778 58.0222L67.1668 59.9978ZM69.9236 60.6207C70.551 60.8145 71.1221 61.0346 71.6388 61.2791L72.4943 59.4713C71.8824 59.1817 71.2216 58.9285 70.514 58.7098L69.9236 60.6207ZM73.1684 62.187C73.4073 62.3653 73.6273 62.5517 73.8292 62.7458L75.2154 61.3042C74.9511 61.05 74.6673 60.8102 74.3649 60.5844L73.1684 62.187ZM73.8365 62.7528C74.0171 62.9229 74.1849 63.1024 74.3403 63.2914L75.8851 62.0211C75.6754 61.7662 75.4497 61.5249 75.2081 61.2972L73.8365 62.7528ZM75.1265 64.5414C75.3308 64.9765 75.4947 65.4536 75.6156 65.9757L77.564 65.5247C77.4139 64.8759 77.2057 64.2639 76.9369 63.6913L75.1265 64.5414ZM75.837 67.5253C75.8538 67.7834 75.8623 68.05 75.8623 68.325H77.8623C77.8623 68.0088 77.8525 67.6988 77.8328 67.3953L75.837 67.5253ZM75.8623 68.325C75.8623 68.6566 75.848 68.9802 75.8196 69.296L77.8115 69.4752C77.8455 69.0978 77.8623 68.7143 77.8623 68.325H75.8623ZM75.4588 71.1775C75.3662 71.4829 75.2576 71.7807 75.1332 72.0711L76.9715 72.8589C77.1251 72.5004 77.2589 72.1334 77.3727 71.758L75.4588 71.1775ZM75.1332 72.0711C75.0132 72.351 74.8796 72.6199 74.7324 72.8782L76.4699 73.8686C76.6551 73.5436 76.8223 73.207 76.9715 72.8589L75.1332 72.0711ZM73.6692 74.3211C73.4664 74.5383 73.2489 74.7465 73.0165 74.9457L74.3181 76.4643C74.6054 76.218 74.8765 75.9587 75.1309 75.6862L73.6692 74.3211ZM73.0057 74.9552C72.7655 75.1671 72.5081 75.368 72.2329 75.5576L73.3678 77.2044C73.7066 76.9709 74.0271 76.7211 74.3289 76.4548L73.0057 74.9552ZM70.4794 76.5113C70.1763 76.6404 69.8587 76.7605 69.5261 76.8713L70.1585 78.7687C70.5397 78.6416 70.9079 78.5026 71.2631 78.3514L70.4794 76.5113ZM69.543 76.8659C69.163 76.9851 68.767 77.0889 68.3547 77.177L68.7726 79.1328C69.243 79.0323 69.6995 78.9129 70.1416 78.7741L69.543 76.8659ZM65.8842 77.5031C65.4758 77.5277 65.0552 77.54 64.6223 77.54V79.54C65.0932 79.54 65.5538 79.5266 66.004 79.4995L65.8842 77.5031ZM82.5334 78H82.0334V78.5H82.5334V78ZM82.5334 46.59V46.09H82.0334V46.59H82.5334ZM103.908 46.59H104.408V46.09H103.908V46.59ZM103.908 52.665V53.165H104.408V52.665H103.908ZM89.3734 52.665V52.165H88.8734V52.665H89.3734ZM89.3734 59.1H88.8734V59.6H89.3734V59.1ZM101.838 59.1H102.338V58.6H101.838V59.1ZM101.838 65.13V65.63H102.338V65.13H101.838ZM89.3734 65.13V64.63H88.8734V65.13H89.3734ZM89.3734 71.925H88.8734V72.425H89.3734V71.925ZM103.908 71.925H104.408V71.425H103.908V71.925ZM103.908 78V78.5H104.408V78H103.908ZM83.0334 78V77.0184H82.0334V78H83.0334ZM83.0334 75.0553V73.0922H82.0334V75.0553H83.0334ZM83.0334 71.1291V69.1659H82.0334V71.1291H83.0334ZM83.0334 67.2028V65.2397H82.0334V67.2028H83.0334ZM83.0334 63.2766V61.3134H82.0334V63.2766H83.0334ZM83.0334 59.3503V57.3872H82.0334V59.3503H83.0334ZM83.0334 55.4241V53.4609H82.0334V55.4241H83.0334ZM83.0334 51.4978V49.5347H82.0334V51.4978H83.0334ZM83.0334 47.5716V46.59H82.0334V47.5716H83.0334ZM82.5334 47.09H83.6021V46.09H82.5334V47.09ZM85.7396 47.09H87.8771V46.09H85.7396V47.09ZM90.0146 47.09H92.1521V46.09H90.0146V47.09ZM94.2896 47.09H96.4271V46.09H94.2896V47.09ZM98.5646 47.09H100.702V46.09H98.5646V47.09ZM102.84 47.09H103.908V46.09H102.84V47.09ZM103.408 46.59V47.3494H104.408V46.59H103.408ZM103.408 48.8681V50.3869H104.408V48.8681H103.408ZM103.408 51.9056V52.665H104.408V51.9056H103.408ZM103.908 52.165H103V53.165H103.908V52.165ZM101.183 52.165H99.3662V53.165H101.183V52.165ZM97.5493 52.165H95.7324V53.165H97.5493V52.165ZM93.9155 52.165H92.0987V53.165H93.9155V52.165ZM90.2818 52.165H89.3734V53.165H90.2818V52.165ZM88.8734 52.665V53.4694H89.8734V52.665H88.8734ZM88.8734 55.0781V56.6869H89.8734V55.0781H88.8734ZM88.8734 58.2956V59.1H89.8734V58.2956H88.8734ZM89.3734 59.6H90.4121V58.6H89.3734V59.6ZM92.4896 59.6H94.5671V58.6H92.4896V59.6ZM96.6446 59.6H98.7221V58.6H96.6446V59.6ZM100.8 59.6H101.838V58.6H100.8V59.6ZM101.338 59.1V59.8537H102.338V59.1H101.338ZM101.338 61.3612V62.8687H102.338V61.3612H101.338ZM101.338 64.3762V65.13H102.338V64.3762H101.338ZM101.838 64.63H100.8V65.63H101.838V64.63ZM98.7221 64.63H96.6446V65.63H98.7221V64.63ZM94.5671 64.63H92.4896V65.63H94.5671V64.63ZM90.4121 64.63H89.3734V65.63H90.4121V64.63ZM88.8734 65.13V65.9794H89.8734V65.13H88.8734ZM88.8734 67.6781V69.3769H89.8734V67.6781H88.8734ZM88.8734 71.0756V71.925H89.8734V71.0756H88.8734ZM89.3734 72.425H90.2818V71.425H89.3734V72.425ZM92.0987 72.425H93.9155V71.425H92.0987V72.425ZM95.7324 72.425H97.5493V71.425H95.7324V72.425ZM99.3662 72.425H101.183V71.425H99.3662V72.425ZM103 72.425H103.908V71.425H103V72.425ZM103.408 71.925V72.6844H104.408V71.925H103.408ZM103.408 74.2031V75.7219H104.408V74.2031H103.408ZM103.408 77.2406V78H104.408V77.2406H103.408ZM103.908 77.5H102.84V78.5H103.908V77.5ZM100.702 77.5H98.5646V78.5H100.702V77.5ZM96.4271 77.5H94.2896V78.5H96.4271V77.5ZM92.1521 77.5H90.0146V78.5H92.1521V77.5ZM87.8771 77.5H85.7396V78.5H87.8771V77.5ZM83.6021 77.5H82.5334V78.5H83.6021V77.5ZM82.5334 78H81.5334V79H82.5334V78ZM82.5334 46.59V45.59H81.5334V46.59H82.5334ZM103.908 46.59H104.908V45.59H103.908V46.59ZM103.908 52.665V53.665H104.908V52.665H103.908ZM89.3734 52.665V51.665H88.3734V52.665H89.3734ZM89.3734 59.1H88.3734V60.1H89.3734V59.1ZM101.838 59.1H102.838V58.1H101.838V59.1ZM101.838 65.13V66.13H102.838V65.13H101.838ZM89.3734 65.13V64.13H88.3734V65.13H89.3734ZM89.3734 71.925H88.3734V72.925H89.3734V71.925ZM103.908 71.925H104.908V70.925H103.908V71.925ZM103.908 78V79H104.908V78H103.908ZM83.5334 78V77.0184H81.5334V78H83.5334ZM83.5334 75.0553V73.0922H81.5334V75.0553H83.5334ZM83.5334 71.1291V69.1659H81.5334V71.1291H83.5334ZM83.5334 67.2028V65.2397H81.5334V67.2028H83.5334ZM83.5334 63.2766V61.3134H81.5334V63.2766H83.5334ZM83.5334 59.3503V57.3872H81.5334V59.3503H83.5334ZM83.5334 55.4241V53.4609H81.5334V55.4241H83.5334ZM83.5334 51.4978V49.5347H81.5334V51.4978H83.5334ZM83.5334 47.5716V46.59H81.5334V47.5716H83.5334ZM82.5334 47.59H83.6021V45.59H82.5334V47.59ZM85.7396 47.59H87.8771V45.59H85.7396V47.59ZM90.0146 47.59H92.1521V45.59H90.0146V47.59ZM94.2896 47.59H96.4271V45.59H94.2896V47.59ZM98.5646 47.59H100.702V45.59H98.5646V47.59ZM102.84 47.59H103.908V45.59H102.84V47.59ZM102.908 46.59V47.3494H104.908V46.59H102.908ZM102.908 48.8681V50.3869H104.908V48.8681H102.908ZM102.908 51.9056V52.665H104.908V51.9056H102.908ZM103.908 51.665H103V53.665H103.908V51.665ZM101.183 51.665H99.3662V53.665H101.183V51.665ZM97.5493 51.665H95.7324V53.665H97.5493V51.665ZM93.9155 51.665H92.0987V53.665H93.9155V51.665ZM90.2818 51.665H89.3734V53.665H90.2818V51.665ZM88.3734 52.665V53.4694H90.3734V52.665H88.3734ZM88.3734 55.0781V56.6869H90.3734V55.0781H88.3734ZM88.3734 58.2956V59.1H90.3734V58.2956H88.3734ZM89.3734 60.1H90.4121V58.1H89.3734V60.1ZM92.4896 60.1H94.5671V58.1H92.4896V60.1ZM96.6446 60.1H98.7221V58.1H96.6446V60.1ZM100.8 60.1H101.838V58.1H100.8V60.1ZM100.838 59.1V59.8537H102.838V59.1H100.838ZM100.838 61.3612V62.8687H102.838V61.3612H100.838ZM100.838 64.3762V65.13H102.838V64.3762H100.838ZM101.838 64.13H100.8V66.13H101.838V64.13ZM98.7221 64.13H96.6446V66.13H98.7221V64.13ZM94.5671 64.13H92.4896V66.13H94.5671V64.13ZM90.4121 64.13H89.3734V66.13H90.4121V64.13ZM88.3734 65.13V65.9794H90.3734V65.13H88.3734ZM88.3734 67.6781V69.3769H90.3734V67.6781H88.3734ZM88.3734 71.0756V71.925H90.3734V71.0756H88.3734ZM89.3734 72.925H90.2818V70.925H89.3734V72.925ZM92.0987 72.925H93.9155V70.925H92.0987V72.925ZM95.7324 72.925H97.5493V70.925H95.7324V72.925ZM99.3662 72.925H101.183V70.925H99.3662V72.925ZM103 72.925H103.908V70.925H103V72.925ZM102.908 71.925V72.6844H104.908V71.925H102.908ZM102.908 74.2031V75.7219H104.908V74.2031H102.908ZM102.908 77.2406V78H104.908V77.2406H102.908ZM103.908 77H102.84V79H103.908V77ZM100.702 77H98.5646V79H100.702V77ZM96.4271 77H94.2896V79H96.4271V77ZM92.1521 77H90.0146V79H92.1521V77ZM87.8771 77H85.7396V79H87.8771V77ZM83.6021 77H82.5334V79H83.6021V77Z" fill="#DADADA"></path> </svg> 