<?xml version="1.0" encoding="UTF-8"?> <svg xmlns="http://www.w3.org/2000/svg" width="112" height="79" viewBox="0 0 112 79" fill="none"> <path d="M1.465 33H0.965V33.5H1.465V33ZM1.465 1.59V1.09H0.965V1.59H1.465ZM20.275 2.355L20.0752 2.81345L20.0852 2.81758L20.275 2.355ZM23.245 4.38L22.879 4.72076L22.8853 4.7273L23.245 4.38ZM25.18 7.575L24.7091 7.74317L24.7104 7.74679L25.18 7.575ZM25.18 15.72L25.6496 15.8918L25.6496 15.8918L25.18 15.72ZM23.245 18.87L22.8852 18.5226L22.8791 18.5293L23.245 18.87ZM20.275 20.94L20.4648 21.4027L20.4748 21.3983L20.275 20.94ZM8.305 21.66V21.16H7.805V21.66H8.305ZM8.305 33V33.5H8.805V33H8.305ZM8.305 15.72H7.805V16.22H8.305V15.72ZM17.89 14.955L18.2234 15.3276L18.2245 15.3266L17.89 14.955ZM17.89 8.34L17.5461 8.70297L17.5559 8.71224L17.5662 8.72097L17.89 8.34ZM8.305 7.53V7.03H7.805V7.53H8.305ZM1.965 33V32.0184H0.965V33H1.965ZM1.965 30.0553V28.0922H0.965V30.0553H1.965ZM1.965 26.1291V24.1659H0.965V26.1291H1.965ZM1.965 22.2028V20.2397H0.965V22.2028H1.965ZM1.965 18.2766V16.3134H0.965V18.2766H1.965ZM1.965 14.3503V12.3872H0.965V14.3503H1.965ZM1.965 10.4241V8.46094H0.965V10.4241H1.965ZM1.965 6.49781V4.53469H0.965V6.49781H1.965ZM1.965 2.57156V1.59H0.965V2.57156H1.965ZM1.465 2.09H2.39313V1.09H1.465V2.09ZM4.24938 2.09H6.10563V1.09H4.24938V2.09ZM7.96187 2.09H9.81812V1.09H7.96187V2.09ZM11.6744 2.09H13.5306V1.09H11.6744V2.09ZM15.3869 2.09H16.315V1.09H15.3869V2.09ZM16.315 2.09C16.6478 2.09 16.9717 2.10361 17.2866 2.13066L17.3722 1.13433C17.0275 1.10472 16.6751 1.09 16.315 1.09V2.09ZM19.1779 2.48468C19.4874 2.57788 19.7864 2.68746 20.0752 2.81335L20.4748 1.89665C20.149 1.75463 19.8127 1.6315 19.4662 1.52715L19.1779 2.48468ZM20.0852 2.81758C20.3544 2.92803 20.6129 3.04906 20.8606 3.18057L21.3295 2.29729C21.0517 2.14988 20.7635 2.01495 20.4648 1.89241L20.0852 2.81758ZM22.2666 4.13359C22.4816 4.31743 22.6858 4.51311 22.8791 4.72071L23.6109 4.03929C23.3919 3.80397 23.1603 3.582 22.9163 3.37346L22.2666 4.13359ZM22.8853 4.7273C23.0888 4.93802 23.2802 5.1611 23.4595 5.39666L24.2551 4.79086C24.0523 4.52452 23.8355 4.27176 23.6047 4.0327L22.8853 4.7273ZM24.3704 6.91546C24.4935 7.17995 24.6065 7.4558 24.7091 7.74317L25.6509 7.40683C25.5382 7.09149 25.4136 6.78694 25.2769 6.49334L24.3704 6.91546ZM24.7104 7.74679C24.8218 8.05125 24.9189 8.36385 25.0015 8.68468L25.9699 8.43529C25.8792 8.0832 25.7725 7.73914 25.6496 7.40321L24.7104 7.74679ZM25.3181 10.632C25.3427 10.9557 25.355 11.2867 25.355 11.625H26.355C26.355 11.2624 26.3418 10.9061 26.3152 10.5562L25.3181 10.632ZM25.355 11.625C25.355 11.9681 25.3428 12.3031 25.3186 12.6301L26.3158 12.7041C26.342 12.3515 26.355 11.9917 26.355 11.625H25.355ZM25.0032 14.6004C24.9202 14.9258 24.8226 15.2417 24.7104 15.5482L25.6496 15.8918C25.7735 15.5529 25.8811 15.2048 25.9722 14.8476L25.0032 14.6004ZM24.7104 15.5482C24.6071 15.8307 24.4932 16.1025 24.3689 16.3636L25.2719 16.7934C25.41 16.5031 25.5359 16.2026 25.6496 15.8918L24.7104 15.5482ZM23.4563 17.8605C23.278 18.0924 23.0876 18.3131 22.8853 18.5227L23.6047 19.2173C23.8331 18.9807 24.0479 18.7316 24.249 18.4701L23.4563 17.8605ZM22.8791 18.5293C22.6845 18.7383 22.4788 18.9362 22.2621 19.1232L22.9152 19.8804C23.1595 19.6697 23.3915 19.4465 23.6109 19.2107L22.8791 18.5293ZM20.8514 20.1003C20.6033 20.2371 20.3446 20.3642 20.0752 20.4817L20.4748 21.3983C20.7717 21.2689 21.0582 21.1282 21.3343 20.976L20.8514 20.1003ZM20.0852 20.4774C19.7947 20.5966 19.4937 20.7004 19.182 20.7885L19.4543 21.7508C19.8014 21.6526 20.1383 21.5365 20.4648 21.4026L20.0852 20.4774ZM17.2865 21.1218C16.9715 21.1472 16.6477 21.16 16.315 21.16V22.16C16.6733 22.16 17.024 22.1463 17.3669 22.1186L17.2865 21.1218ZM16.315 21.16H15.3138V22.16H16.315V21.16ZM13.3113 21.16H11.3088V22.16H13.3113V21.16ZM9.30625 21.16H8.305V22.16H9.30625V21.16ZM7.805 21.66V22.605H8.805V21.66H7.805ZM7.805 24.495V26.385H8.805V24.495H7.805ZM7.805 28.275V30.165H8.805V28.275H7.805ZM7.805 32.055V33H8.805V32.055H7.805ZM8.305 32.5H7.45V33.5H8.305V32.5ZM5.74 32.5H4.03V33.5H5.74V32.5ZM2.32 32.5H1.465V33.5H2.32V32.5ZM8.805 15.72V14.6962H7.805V15.72H8.805ZM8.805 12.6487V10.6012H7.805V12.6487H8.805ZM8.805 8.55375V7.53H7.805V8.55375H8.805ZM8.305 8.03H9.205V7.03H8.305V8.03ZM11.005 8.03H12.805V7.03H11.005V8.03ZM14.605 8.03H15.505V7.03H14.605V8.03ZM15.505 8.03C15.7112 8.03 15.9043 8.04208 16.0846 8.06548L16.2133 7.0738C15.9863 7.04435 15.7501 7.03 15.505 7.03V8.03ZM17.1256 8.39269C17.2803 8.48027 17.4202 8.58363 17.5461 8.70297L18.2339 7.97702C18.0481 7.80104 17.8426 7.64945 17.6182 7.52246L17.1256 8.39269ZM17.5662 8.72097C17.6949 8.83041 17.8054 8.95397 17.8985 9.09243L18.7282 8.53413C18.5836 8.31926 18.4118 8.1273 18.2138 7.95903L17.5662 8.72097ZM18.2518 10.0718C18.2769 10.2449 18.29 10.4324 18.29 10.635H19.29C19.29 10.3896 19.2742 10.1538 19.2414 9.9282L18.2518 10.0718ZM18.29 10.635V11.13H19.29V10.635H18.29ZM18.29 12.12V12.615H19.29V12.12H18.29ZM18.29 12.615C18.29 12.82 18.2766 13.0105 18.2508 13.1872L19.2403 13.3317C19.2738 13.1024 19.29 12.8634 19.29 12.615H18.29ZM17.8916 14.192C17.7972 14.3361 17.6855 14.4663 17.5555 14.5834L18.2245 15.3266C18.418 15.1525 18.5863 14.9566 18.7282 14.7397L17.8916 14.192ZM17.5566 14.5824C17.4298 14.6958 17.2882 14.7945 17.1307 14.8782L17.5998 15.7613C17.8266 15.6409 18.0348 15.4963 18.2234 15.3276L17.5566 14.5824ZM16.0839 15.1868C15.9035 15.2087 15.7107 15.22 15.505 15.22V16.22C15.7471 16.22 15.9804 16.2067 16.2045 16.1795L16.0839 15.1868ZM15.505 15.22H14.605V16.22H15.505V15.22ZM12.805 15.22H11.005V16.22H12.805V15.22ZM9.205 15.22H8.305V16.22H9.205V15.22ZM1.465 33H0.465V34H1.465V33ZM1.465 1.59V0.589999H0.465V1.59H1.465ZM20.275 2.355L19.8754 3.27169L19.8854 3.27604L19.8954 3.28017L20.275 2.355ZM23.245 4.38L22.5131 5.06142L22.5193 5.06806L22.5256 5.07459L23.245 4.38ZM25.18 7.575L24.2382 7.91135L24.2409 7.91858L25.18 7.575ZM25.18 15.72L26.1191 16.0636L26.1191 16.0636L25.18 15.72ZM23.245 18.87L22.5256 18.1754L22.5193 18.1819L22.5131 18.1886L23.245 18.87ZM20.275 20.94L20.6546 21.8652L20.6646 21.861L20.6746 21.8567L20.275 20.94ZM8.305 21.66V20.66H7.305V21.66H8.305ZM8.305 33V34H9.305V33H8.305ZM8.305 15.72H7.305V16.72H8.305V15.72ZM17.89 14.955L18.5568 15.7002L18.559 15.6983L17.89 14.955ZM17.89 8.34L17.2023 9.06595L17.2218 9.08448L17.2424 9.10194L17.89 8.34ZM8.305 7.53V6.53H7.305V7.53H8.305ZM2.465 33V32.0184H0.465V33H2.465ZM2.465 30.0553V28.0922H0.465V30.0553H2.465ZM2.465 26.1291V24.1659H0.465V26.1291H2.465ZM2.465 22.2028V20.2397H0.465V22.2028H2.465ZM2.465 18.2766V16.3134H0.465V18.2766H2.465ZM2.465 14.3503V12.3872H0.465V14.3503H2.465ZM2.465 10.4241V8.46094H0.465V10.4241H2.465ZM2.465 6.49781V4.53469H0.465V6.49781H2.465ZM2.465 2.57156V1.59H0.465V2.57156H2.465ZM1.465 2.59H2.39313V0.589999H1.465V2.59ZM4.24938 2.59H6.10563V0.589999H4.24938V2.59ZM7.96187 2.59H9.81812V0.589999H7.96187V2.59ZM11.6744 2.59H13.5306V0.589999H11.6744V2.59ZM15.3869 2.59H16.315V0.589999H15.3869V2.59ZM16.315 2.59C16.6342 2.59 16.9438 2.60305 17.2438 2.62883L17.415 0.636164C17.0554 0.605278 16.6887 0.589999 16.315 0.589999V2.59ZM19.0337 2.96345C19.3247 3.05106 19.6051 3.15388 19.8754 3.27169L20.6746 1.4383C20.3303 1.28821 19.9754 1.15831 19.6104 1.04839L19.0337 2.96345ZM19.8954 3.28017C20.1499 3.38457 20.3934 3.49865 20.6262 3.62222L21.5639 1.85565C21.2712 1.70028 20.968 1.55841 20.6546 1.42983L19.8954 3.28017ZM21.9417 4.51366C22.1423 4.68514 22.3327 4.86767 22.5131 5.06142L23.9769 3.69858C23.7449 3.4494 23.4996 3.21429 23.2412 2.99339L21.9417 4.51366ZM22.5256 5.07459C22.7154 5.27115 22.8941 5.47939 23.0617 5.69956L24.6529 4.48797C24.4384 4.20623 24.2089 3.93863 23.9644 3.6854L22.5256 5.07459ZM23.9171 7.12652C24.0335 7.37645 24.1406 7.63796 24.2383 7.91134L26.1217 7.23866C26.0041 6.90933 25.8737 6.59044 25.7302 6.28228L23.9171 7.12652ZM24.2409 7.91858C24.3465 8.2073 24.4387 8.50417 24.5173 8.80938L26.4541 8.31059C26.3594 7.94287 26.2478 7.58309 26.1191 7.23142L24.2409 7.91858ZM24.8195 10.6698C24.8431 10.9805 24.855 11.2989 24.855 11.625H26.855C26.855 11.2502 26.8413 10.8813 26.8138 10.5184L24.8195 10.6698ZM24.855 11.625C24.855 11.9563 24.8432 12.2789 24.8199 12.5932L26.8145 12.741C26.8416 12.3756 26.855 12.0036 26.855 11.625H24.855ZM24.5188 14.4768C24.4398 14.7863 24.3471 15.0861 24.2409 15.3764L26.1191 16.0636C26.249 15.7085 26.3615 15.3443 26.4567 14.9713L24.5188 14.4768ZM24.2409 15.3764C24.1427 15.6448 24.0348 15.9022 23.9174 16.1488L25.7234 17.0082C25.8684 16.7034 26.0003 16.3885 26.1191 16.0636L24.2409 15.3764ZM23.06 17.5557C22.893 17.7729 22.7149 17.9794 22.5256 18.1754L23.9644 19.5646C24.2059 19.3145 24.4329 19.0512 24.6454 18.7749L23.06 17.5557ZM22.5131 18.1886C22.331 18.3842 22.1385 18.5695 21.9355 18.7446L23.2418 20.2591C23.4999 20.0365 23.745 19.8005 23.9769 19.5514L22.5131 18.1886ZM20.6099 19.6624C20.3758 19.7915 20.1311 19.9119 19.8754 20.0233L20.6746 21.8567C20.9852 21.7213 21.2857 21.5737 21.5757 21.4138L20.6099 19.6624ZM19.8954 20.0148C19.6229 20.1267 19.3398 20.2243 19.0459 20.3074L19.5904 22.2319C19.9553 22.1286 20.3101 22.0065 20.6546 21.8652L19.8954 20.0148ZM17.2463 20.6235C16.9453 20.6477 16.6349 20.66 16.315 20.66V22.66C16.6861 22.66 17.0502 22.6458 17.4071 22.617L17.2463 20.6235ZM16.315 20.66H15.3138V22.66H16.315V20.66ZM13.3113 20.66H11.3088V22.66H13.3113V20.66ZM9.30625 20.66H8.305V22.66H9.30625V20.66ZM7.305 21.66V22.605H9.305V21.66H7.305ZM7.305 24.495V26.385H9.305V24.495H7.305ZM7.305 28.275V30.165H9.305V28.275H7.305ZM7.305 32.055V33H9.305V32.055H7.305ZM8.305 32H7.45V34H8.305V32ZM5.74 32H4.03V34H5.74V32ZM2.32 32H1.465V34H2.32V32ZM9.305 15.72V14.6962H7.305V15.72H9.305ZM9.305 12.6487V10.6012H7.305V12.6487H9.305ZM9.305 8.55375V7.53H7.305V8.55375H9.305ZM8.305 8.53H9.205V6.53H8.305V8.53ZM11.005 8.53H12.805V6.53H11.005V8.53ZM14.605 8.53H15.505V6.53H14.605V8.53ZM15.505 8.53C15.6918 8.53 15.8632 8.54095 16.0202 8.56132L16.2776 6.57796C16.0274 6.54548 15.7695 6.53 15.505 6.53V8.53ZM16.8793 8.82781C16.9992 8.89568 17.1062 8.97492 17.2023 9.06595L18.5777 7.61405C18.3621 7.40975 18.1237 7.23405 17.8646 7.08734L16.8793 8.82781ZM17.2424 9.10194C17.3365 9.18197 17.4163 9.27132 17.4837 9.37158L19.143 8.25499C18.9727 8.00191 18.7702 7.77574 18.5377 7.57806L17.2424 9.10194ZM17.757 10.1436C17.7783 10.2905 17.79 10.4538 17.79 10.635H19.79C19.79 10.3682 19.7728 10.1082 19.7362 9.8564L17.757 10.1436ZM17.79 10.635V11.13H19.79V10.635H17.79ZM17.79 12.12V12.615H19.79V12.12H17.79ZM17.79 12.615C17.79 12.7983 17.778 12.9645 17.756 13.115L19.7351 13.4039C19.7724 13.1484 19.79 12.885 19.79 12.615H17.79ZM17.4732 13.9181C17.4027 14.0258 17.3193 14.1233 17.221 14.2117L18.559 15.6983C18.7843 15.4955 18.9808 15.2669 19.1466 15.0136L17.4732 13.9181ZM17.2232 14.2098C17.1273 14.2956 17.0191 14.3713 16.8962 14.4366L17.8344 16.2029C18.0957 16.064 18.3373 15.8966 18.5568 15.7002L17.2232 14.2098ZM16.0235 14.6904C15.8651 14.7097 15.6925 14.72 15.505 14.72V16.72C15.7653 16.72 16.0189 16.7057 16.2648 16.6758L16.0235 14.6904ZM15.505 14.72H14.605V16.72H15.505V14.72ZM12.805 14.72H11.005V16.72H12.805V14.72ZM9.205 14.72H8.305V16.72H9.205V14.72ZM37.8363 33V33.5H38.3363V33H37.8363ZM30.9963 33H30.4963V33.5H30.9963V33ZM30.9963 1.59V1.09H30.4963V1.59H30.9963ZM49.8063 2.31L49.996 1.84741L49.996 1.84741L49.8063 2.31ZM52.7763 4.38L52.4046 4.71448L52.4105 4.72099L52.4166 4.7273L52.7763 4.38ZM53.9463 17.205L53.5182 16.9465L53.5147 16.9526L53.9463 17.205ZM49.6713 20.67L49.4957 20.2018L48.9757 20.3968L49.224 20.8936L49.6713 20.67ZM55.8363 33V33.5H56.6453L56.2835 32.7764L55.8363 33ZM48.2313 33L47.7799 33.2151L47.9157 33.5H48.2313V33ZM42.7413 21.48L43.1926 21.2649L43.0568 20.98H42.7413V21.48ZM37.8363 21.48V20.98H37.3363V21.48H37.8363ZM47.4213 14.955L47.7547 15.3276L47.7557 15.3266L47.4213 14.955ZM47.4213 8.34L47.0774 8.70297L47.0872 8.71224L47.0974 8.72097L47.4213 8.34ZM37.8363 7.53V7.03H37.3363V7.53H37.8363ZM37.8363 15.72H37.3363V16.22H37.8363V15.72ZM37.8363 32.5H36.9813V33.5H37.8363V32.5ZM35.2713 32.5H33.5613V33.5H35.2713V32.5ZM31.8513 32.5H30.9963V33.5H31.8513V32.5ZM31.4963 33V32.0184H30.4963V33H31.4963ZM31.4963 30.0553V28.0922H30.4963V30.0553H31.4963ZM31.4963 26.1291V24.1659H30.4963V26.1291H31.4963ZM31.4963 22.2028V20.2397H30.4963V22.2028H31.4963ZM31.4963 18.2766V16.3134H30.4963V18.2766H31.4963ZM31.4963 14.3503V12.3872H30.4963V14.3503H31.4963ZM31.4963 10.4241V8.46094H30.4963V10.4241H31.4963ZM31.4963 6.49781V4.53469H30.4963V6.49781H31.4963ZM31.4963 2.57156V1.59H30.4963V2.57156H31.4963ZM30.9963 2.09H31.9272V1.09H30.9963V2.09ZM33.7891 2.09H35.6509V1.09H33.7891V2.09ZM37.5128 2.09H39.3747V1.09H37.5128V2.09ZM41.2366 2.09H43.0984V1.09H41.2366V2.09ZM44.9603 2.09H45.8913V1.09H44.9603V2.09ZM45.8913 2.09C46.2192 2.09 46.5389 2.10294 46.8506 2.1287L46.9329 1.13209C46.5927 1.10398 46.2455 1.09 45.8913 1.09V2.09ZM48.723 2.46334C49.0301 2.55107 49.3279 2.65418 49.6165 2.77258L49.996 1.84741C49.6725 1.71468 49.3397 1.59951 48.9977 1.50181L48.723 2.46334ZM49.6165 2.77258C49.8866 2.88341 50.1459 3.00578 50.3944 3.1396L50.8685 2.25911C50.5884 2.10829 50.2975 1.9711 49.996 1.84741L49.6165 2.77258ZM51.7974 4.11326C52.0104 4.30096 52.2128 4.50133 52.4046 4.71448L53.1479 4.04552C52.9305 3.80394 52.7007 3.5764 52.4585 3.36299L51.7974 4.11326ZM52.4166 4.7273C52.6189 4.93685 52.8092 5.15756 52.9876 5.38952L53.7803 4.77993C53.5792 4.5184 53.3644 4.2693 53.136 4.0327L52.4166 4.7273ZM53.9002 6.88637C54.0245 7.14753 54.1383 7.41929 54.2417 7.70179L55.1808 7.35821C55.0671 7.04745 54.9413 6.74688 54.8031 6.45665L53.9002 6.88637ZM54.2417 7.70179C54.3538 8.00831 54.4515 8.32421 54.5345 8.64961L55.5035 8.40236C55.4123 8.04518 55.3048 7.69709 55.1808 7.35821L54.2417 7.70179ZM54.8498 10.6199C54.8741 10.9469 54.8863 11.2819 54.8863 11.625H55.8863C55.8863 11.2582 55.8732 10.8985 55.8471 10.5459L54.8498 10.6199ZM54.8863 11.625C54.8863 12.1077 54.8607 12.5744 54.8099 13.0253L55.8037 13.1371C55.8588 12.647 55.8863 12.1429 55.8863 11.625H54.8863ZM54.138 15.7132C53.9624 16.1421 53.7558 16.5531 53.5182 16.9466L54.3743 17.4634C54.6386 17.0256 54.8684 16.5684 55.0634 16.0922L54.138 15.7132ZM53.5147 16.9526C53.2908 17.3353 53.0368 17.6902 52.7528 18.0178L53.5084 18.6729C53.8336 18.2978 54.1234 17.8925 54.3778 17.4574L53.5147 16.9526ZM50.7072 19.6493C50.3315 19.8555 49.9278 20.0398 49.4957 20.2018L49.8468 21.1382C50.3207 20.9604 50.768 20.7566 51.1882 20.526L50.7072 19.6493ZM49.224 20.8936L49.7378 21.9211L50.6322 21.4739L50.1185 20.4464L49.224 20.8936ZM50.7653 23.9761L51.7928 26.0311L52.6872 25.5839L51.6597 23.5289L50.7653 23.9761ZM52.8203 28.0861L53.8478 30.1411L54.7422 29.6939L53.7147 27.6389L52.8203 28.0861ZM54.8753 32.1961L55.389 33.2236L56.2835 32.7764L55.7697 31.7489L54.8753 32.1961ZM55.8363 32.5H54.8856V33.5H55.8363V32.5ZM52.9844 32.5H51.0831V33.5H52.9844V32.5ZM49.1819 32.5H48.2313V33.5H49.1819V32.5ZM48.6826 32.7849L48.2251 31.8249L47.3224 32.2551L47.7799 33.2151L48.6826 32.7849ZM47.3101 29.9049L46.3951 27.9849L45.4924 28.4151L46.4074 30.3351L47.3101 29.9049ZM45.4801 26.0649L44.5651 24.1449L43.6624 24.5751L44.5774 26.4951L45.4801 26.0649ZM43.6501 22.2249L43.1926 21.2649L42.2899 21.6951L42.7474 22.6551L43.6501 22.2249ZM42.7413 20.98H41.515V21.98H42.7413V20.98ZM39.0625 20.98H37.8363V21.98H39.0625V20.98ZM37.3363 21.48V22.44H38.3363V21.48H37.3363ZM37.3363 24.36V26.28H38.3363V24.36H37.3363ZM37.3363 28.2V30.12H38.3363V28.2H37.3363ZM37.3363 32.04V33H38.3363V32.04H37.3363ZM45.0363 15.22H44.1363V16.22H45.0363V15.22ZM42.3363 15.22H40.5363V16.22H42.3363V15.22ZM38.7363 15.22H37.8363V16.22H38.7363V15.22ZM38.3363 15.72V14.6962H37.3363V15.72H38.3363ZM38.3363 12.6487V10.6012H37.3363V12.6487H38.3363ZM38.3363 8.55375V7.53H37.3363V8.55375H38.3363ZM37.8363 8.03H38.7363V7.03H37.8363V8.03ZM40.5363 8.03H42.3363V7.03H40.5363V8.03ZM44.1363 8.03H45.0363V7.03H44.1363V8.03ZM45.0363 8.03C45.2425 8.03 45.4355 8.04208 45.6158 8.06548L45.7445 7.0738C45.5176 7.04435 45.2813 7.03 45.0363 7.03V8.03ZM46.6569 8.39269C46.8116 8.48027 46.9514 8.58363 47.0774 8.70297L47.7651 7.97702C47.5794 7.80104 47.3738 7.64945 47.1495 7.52246L46.6569 8.39269ZM47.0974 8.72097C47.2262 8.83041 47.3366 8.95397 47.4298 9.09243L48.2594 8.53413C48.1148 8.31926 47.943 8.1273 47.7451 7.95903L47.0974 8.72097ZM47.783 10.0718C47.8082 10.2449 47.8213 10.4324 47.8213 10.635H48.8213C48.8213 10.3896 48.8054 10.1538 48.7727 9.9282L47.783 10.0718ZM47.8213 10.635V11.13H48.8213V10.635H47.8213ZM47.8213 12.12V12.615H48.8213V12.12H47.8213ZM47.8213 12.615C47.8213 12.82 47.8078 13.0105 47.7821 13.1872L48.7716 13.3317C48.805 13.1024 48.8213 12.8634 48.8213 12.615H47.8213ZM47.4228 14.192C47.3285 14.3361 47.2168 14.4663 47.0868 14.5834L47.7557 15.3266C47.9493 15.1525 48.1175 14.9566 48.2595 14.7397L47.4228 14.192ZM47.0879 14.5824C46.961 14.6958 46.8195 14.7945 46.662 14.8782L47.1311 15.7613C47.3578 15.6409 47.5661 15.4963 47.7546 15.3276L47.0879 14.5824ZM45.6151 15.1868C45.4348 15.2087 45.2419 15.22 45.0363 15.22V16.22C45.2784 16.22 45.5117 16.2067 45.7357 16.1795L45.6151 15.1868ZM37.8363 33V34H38.8363V33H37.8363ZM30.9963 33H29.9963V34H30.9963V33ZM30.9963 1.59V0.589999H29.9963V1.59H30.9963ZM49.8063 2.31L50.1858 1.38483L50.1858 1.38483L49.8063 2.31ZM52.7763 4.38L52.033 5.04896L52.0447 5.06199L52.0569 5.07459L52.7763 4.38ZM53.9463 17.205L53.0901 16.6881L53.0831 16.7001L53.9463 17.205ZM49.6713 20.67L49.3201 19.7337L48.2801 20.1237L48.7768 21.1172L49.6713 20.67ZM55.8363 33V34H57.4543L56.7307 32.5528L55.8363 33ZM48.2313 33L47.3285 33.4302L47.6001 34H48.2313V33ZM42.7413 21.48L43.644 21.0498L43.3724 20.48H42.7413V21.48ZM37.8363 21.48V20.48H36.8363V21.48H37.8363ZM47.4213 14.955L48.088 15.7002L48.0902 15.6983L47.4213 14.955ZM47.4213 8.34L46.7335 9.06595L46.7531 9.08448L46.7736 9.10194L47.4213 8.34ZM37.8363 7.53V6.53H36.8363V7.53H37.8363ZM37.8363 15.72H36.8363V16.72H37.8363V15.72ZM37.8363 32H36.9813V34H37.8363V32ZM35.2713 32H33.5613V34H35.2713V32ZM31.8513 32H30.9963V34H31.8513V32ZM31.9963 33V32.0184H29.9963V33H31.9963ZM31.9963 30.0553V28.0922H29.9963V30.0553H31.9963ZM31.9963 26.1291V24.1659H29.9963V26.1291H31.9963ZM31.9963 22.2028V20.2397H29.9963V22.2028H31.9963ZM31.9963 18.2766V16.3134H29.9963V18.2766H31.9963ZM31.9963 14.3503V12.3872H29.9963V14.3503H31.9963ZM31.9963 10.4241V8.46094H29.9963V10.4241H31.9963ZM31.9963 6.49781V4.53469H29.9963V6.49781H31.9963ZM31.9963 2.57156V1.59H29.9963V2.57156H31.9963ZM30.9963 2.59H31.9272V0.589999H30.9963V2.59ZM33.7891 2.59H35.6509V0.589999H33.7891V2.59ZM37.5128 2.59H39.3747V0.589999H37.5128V2.59ZM41.2366 2.59H43.0984V0.589999H41.2366V2.59ZM44.9603 2.59H45.8913V0.589999H44.9603V2.59ZM45.8913 2.59C46.206 2.59 46.512 2.60243 46.8094 2.627L46.9741 0.633789C46.6196 0.604503 46.2586 0.589999 45.8913 0.589999V2.59ZM48.5856 2.9441C48.8753 3.02686 49.1556 3.12394 49.4267 3.23517L50.1858 1.38483C49.8448 1.24493 49.4945 1.12373 49.135 1.02104L48.5856 2.9441ZM49.4267 3.23517C49.6812 3.33957 49.9246 3.45453 50.1574 3.57984L51.1055 1.81887C50.8096 1.65955 50.5029 1.51494 50.1858 1.38483L49.4267 3.23517ZM51.4668 4.4884C51.6652 4.66325 51.8539 4.85003 52.033 5.04896L53.5195 3.71103C53.2893 3.45525 53.0458 3.21411 52.789 2.98785L51.4668 4.4884ZM52.0569 5.07459C52.2461 5.27063 52.4242 5.47714 52.5912 5.69431L54.1767 4.47514C53.9642 4.19882 53.7371 3.93552 53.4957 3.6854L52.0569 5.07459ZM53.4487 7.10124C53.5661 7.34785 53.6739 7.60521 53.7721 7.87358L55.6504 7.18642C55.5315 6.86152 55.3997 6.54656 55.2546 6.24178L53.4487 7.10124ZM53.7721 7.87358C53.8783 8.16392 53.971 8.46372 54.05 8.77323L55.9879 8.27873C55.8927 7.90567 55.7803 7.54149 55.6504 7.18642L53.7721 7.87358ZM54.3512 10.6568C54.3745 10.9711 54.3863 11.2937 54.3863 11.625H56.3863C56.3863 11.2464 56.3728 10.8744 56.3457 10.509L54.3512 10.6568ZM54.3863 11.625C54.3863 12.09 54.3616 12.538 54.3131 12.9693L56.3005 13.1931C56.3579 12.6834 56.3863 12.1606 56.3863 11.625H54.3863ZM53.6753 15.5237C53.5094 15.9289 53.3143 16.3169 53.0902 16.6881L54.8023 17.7219C55.0801 17.2618 55.3214 16.7816 55.5261 16.2817L53.6753 15.5237ZM53.0831 16.7001C52.8745 17.0567 52.6385 17.3864 52.375 17.6902L53.8862 19.0004C54.232 18.6016 54.5397 18.171 54.8094 17.7099L53.0831 16.7001ZM50.4667 19.211C50.1132 19.4049 49.7314 19.5794 49.3201 19.7337L50.0224 21.6063C50.5172 21.4208 50.9863 21.2071 51.4287 20.9644L50.4667 19.211ZM48.7768 21.1172L49.2906 22.1447L51.0794 21.2503L50.5657 20.2228L48.7768 21.1172ZM50.3181 24.1997L51.3456 26.2547L53.1344 25.3603L52.1069 23.3053L50.3181 24.1997ZM52.3731 28.3097L53.4006 30.3647L55.1894 29.4703L54.1619 27.4153L52.3731 28.3097ZM54.4281 32.4197L54.9418 33.4472L56.7307 32.5528L56.2169 31.5253L54.4281 32.4197ZM55.8363 32H54.8856V34H55.8363V32ZM52.9844 32H51.0831V34H52.9844V32ZM49.1819 32H48.2313V34H49.1819V32ZM49.134 32.5698L48.6765 31.6098L46.871 32.4702L47.3285 33.4302L49.134 32.5698ZM47.7615 29.6898L46.8465 27.7698L45.041 28.6302L45.956 30.5502L47.7615 29.6898ZM45.9315 25.8498L45.0165 23.9298L43.211 24.7902L44.126 26.7102L45.9315 25.8498ZM44.1015 22.0098L43.644 21.0498L41.8385 21.9102L42.296 22.8702L44.1015 22.0098ZM42.7413 20.48H41.515V22.48H42.7413V20.48ZM39.0625 20.48H37.8363V22.48H39.0625V20.48ZM36.8363 21.48V22.44H38.8363V21.48H36.8363ZM36.8363 24.36V26.28H38.8363V24.36H36.8363ZM36.8363 28.2V30.12H38.8363V28.2H36.8363ZM36.8363 32.04V33H38.8363V32.04H36.8363ZM45.0363 14.72H44.1363V16.72H45.0363V14.72ZM42.3363 14.72H40.5363V16.72H42.3363V14.72ZM38.7363 14.72H37.8363V16.72H38.7363V14.72ZM38.8363 15.72V14.6962H36.8363V15.72H38.8363ZM38.8363 12.6487V10.6012H36.8363V12.6487H38.8363ZM38.8363 8.55375V7.53H36.8363V8.55375H38.8363ZM37.8363 8.53H38.7363V6.53H37.8363V8.53ZM40.5363 8.53H42.3363V6.53H40.5363V8.53ZM44.1363 8.53H45.0363V6.53H44.1363V8.53ZM45.0363 8.53C45.223 8.53 45.3945 8.54095 45.5515 8.56132L45.8089 6.57796C45.5586 6.54548 45.3008 6.53 45.0363 6.53V8.53ZM46.4105 8.82781C46.5304 8.89568 46.6374 8.97492 46.7335 9.06595L48.109 7.61405C47.8933 7.40975 47.655 7.23405 47.3958 7.08734L46.4105 8.82781ZM46.7736 9.10194C46.8678 9.18197 46.9475 9.27132 47.015 9.37158L48.6743 8.25499C48.504 8.00191 48.3015 7.77574 48.0689 7.57806L46.7736 9.10194ZM47.2882 10.1436C47.3095 10.2905 47.3213 10.4538 47.3213 10.635H49.3213C49.3213 10.3682 49.304 10.1082 49.2675 9.8564L47.2882 10.1436ZM47.3213 10.635V11.13H49.3213V10.635H47.3213ZM47.3213 12.12V12.615H49.3213V12.12H47.3213ZM47.3213 12.615C47.3213 12.7983 47.3093 12.9645 47.2873 13.115L49.2663 13.4039C49.3036 13.1484 49.3213 12.885 49.3213 12.615H47.3213ZM47.0045 13.9181C46.934 14.0258 46.8505 14.1233 46.7523 14.2117L48.0902 15.6983C48.3155 15.4955 48.512 15.2669 48.6778 15.0136L47.0045 13.9181ZM46.7545 14.2098C46.6585 14.2956 46.5503 14.3713 46.4274 14.4366L47.3656 16.2029C47.627 16.064 47.8686 15.8966 48.088 15.7002L46.7545 14.2098ZM45.5548 14.6904C45.3963 14.7097 45.2237 14.72 45.0363 14.72V16.72C45.2966 16.72 45.5501 16.7057 45.7961 16.6758L45.5548 14.6904ZM61.3185 33H60.8185V33.5H61.3185V33ZM61.3185 1.59V1.09H60.8185V1.59H61.3185ZM82.6935 1.59H83.1935V1.09H82.6935V1.59ZM82.6935 7.665V8.165H83.1935V7.665H82.6935ZM68.1585 7.665V7.165H67.6585V7.665H68.1585ZM68.1585 14.1H67.6585V14.6H68.1585V14.1ZM80.6235 14.1H81.1235V13.6H80.6235V14.1ZM80.6235 20.13V20.63H81.1235V20.13H80.6235ZM68.1585 20.13V19.63H67.6585V20.13H68.1585ZM68.1585 26.925H67.6585V27.425H68.1585V26.925ZM82.6935 26.925H83.1935V26.425H82.6935V26.925ZM82.6935 33V33.5H83.1935V33H82.6935ZM61.8185 33V32.0184H60.8185V33H61.8185ZM61.8185 30.0553V28.0922H60.8185V30.0553H61.8185ZM61.8185 26.1291V24.1659H60.8185V26.1291H61.8185ZM61.8185 22.2028V20.2397H60.8185V22.2028H61.8185ZM61.8185 18.2766V16.3134H60.8185V18.2766H61.8185ZM61.8185 14.3503V12.3872H60.8185V14.3503H61.8185ZM61.8185 10.4241V8.46094H60.8185V10.4241H61.8185ZM61.8185 6.49781V4.53469H60.8185V6.49781H61.8185ZM61.8185 2.57156V1.59H60.8185V2.57156H61.8185ZM61.3185 2.09H62.3873V1.09H61.3185V2.09ZM64.5248 2.09H66.6623V1.09H64.5248V2.09ZM68.7998 2.09H70.9373V1.09H68.7998V2.09ZM73.0748 2.09H75.2123V1.09H73.0748V2.09ZM77.3498 2.09H79.4873V1.09H77.3498V2.09ZM81.6248 2.09H82.6935V1.09H81.6248V2.09ZM82.1935 1.59V2.34937H83.1935V1.59H82.1935ZM82.1935 3.86812V5.38687H83.1935V3.86812H82.1935ZM82.1935 6.90562V7.665H83.1935V6.90562H82.1935ZM82.6935 7.165H81.7851V8.165H82.6935V7.165ZM79.9682 7.165H78.1513V8.165H79.9682V7.165ZM76.3345 7.165H74.5176V8.165H76.3345V7.165ZM72.7007 7.165H70.8838V8.165H72.7007V7.165ZM69.067 7.165H68.1585V8.165H69.067V7.165ZM67.6585 7.665V8.46937H68.6585V7.665H67.6585ZM67.6585 10.0781V11.6869H68.6585V10.0781H67.6585ZM67.6585 13.2956V14.1H68.6585V13.2956H67.6585ZM68.1585 14.6H69.1973V13.6H68.1585V14.6ZM71.2748 14.6H73.3523V13.6H71.2748V14.6ZM75.4298 14.6H77.5073V13.6H75.4298V14.6ZM79.5848 14.6H80.6235V13.6H79.5848V14.6ZM80.1235 14.1V14.8537H81.1235V14.1H80.1235ZM80.1235 16.3612V17.8687H81.1235V16.3612H80.1235ZM80.1235 19.3762V20.13H81.1235V19.3762H80.1235ZM80.6235 19.63H79.5848V20.63H80.6235V19.63ZM77.5073 19.63H75.4298V20.63H77.5073V19.63ZM73.3523 19.63H71.2748V20.63H73.3523V19.63ZM69.1973 19.63H68.1585V20.63H69.1973V19.63ZM67.6585 20.13V20.9794H68.6585V20.13H67.6585ZM67.6585 22.6781V24.3769H68.6585V22.6781H67.6585ZM67.6585 26.0756V26.925H68.6585V26.0756H67.6585ZM68.1585 27.425H69.067V26.425H68.1585V27.425ZM70.8838 27.425H72.7007V26.425H70.8838V27.425ZM74.5176 27.425H76.3345V26.425H74.5176V27.425ZM78.1513 27.425H79.9682V26.425H78.1513V27.425ZM81.7851 27.425H82.6935V26.425H81.7851V27.425ZM82.1935 26.925V27.6844H83.1935V26.925H82.1935ZM82.1935 29.2031V30.7219H83.1935V29.2031H82.1935ZM82.1935 32.2406V33H83.1935V32.2406H82.1935ZM82.6935 32.5H81.6248V33.5H82.6935V32.5ZM79.4873 32.5H77.3498V33.5H79.4873V32.5ZM75.2123 32.5H73.0748V33.5H75.2123V32.5ZM70.9373 32.5H68.7998V33.5H70.9373V32.5ZM66.6623 32.5H64.5248V33.5H66.6623V32.5ZM62.3873 32.5H61.3185V33.5H62.3873V32.5ZM61.3185 33H60.3185V34H61.3185V33ZM61.3185 1.59V0.589999H60.3185V1.59H61.3185ZM82.6935 1.59H83.6935V0.589999H82.6935V1.59ZM82.6935 7.665V8.665H83.6935V7.665H82.6935ZM68.1585 7.665V6.665H67.1585V7.665H68.1585ZM68.1585 14.1H67.1585V15.1H68.1585V14.1ZM80.6235 14.1H81.6235V13.1H80.6235V14.1ZM80.6235 20.13V21.13H81.6235V20.13H80.6235ZM68.1585 20.13V19.13H67.1585V20.13H68.1585ZM68.1585 26.925H67.1585V27.925H68.1585V26.925ZM82.6935 26.925H83.6935V25.925H82.6935V26.925ZM82.6935 33V34H83.6935V33H82.6935ZM62.3185 33V32.0184H60.3185V33H62.3185ZM62.3185 30.0553V28.0922H60.3185V30.0553H62.3185ZM62.3185 26.1291V24.1659H60.3185V26.1291H62.3185ZM62.3185 22.2028V20.2397H60.3185V22.2028H62.3185ZM62.3185 18.2766V16.3134H60.3185V18.2766H62.3185ZM62.3185 14.3503V12.3872H60.3185V14.3503H62.3185ZM62.3185 10.4241V8.46094H60.3185V10.4241H62.3185ZM62.3185 6.49781V4.53469H60.3185V6.49781H62.3185ZM62.3185 2.57156V1.59H60.3185V2.57156H62.3185ZM61.3185 2.59H62.3873V0.589999H61.3185V2.59ZM64.5248 2.59H66.6623V0.589999H64.5248V2.59ZM68.7998 2.59H70.9373V0.589999H68.7998V2.59ZM73.0748 2.59H75.2123V0.589999H73.0748V2.59ZM77.3498 2.59H79.4873V0.589999H77.3498V2.59ZM81.6248 2.59H82.6935V0.589999H81.6248V2.59ZM81.6935 1.59V2.34937H83.6935V1.59H81.6935ZM81.6935 3.86812V5.38687H83.6935V3.86812H81.6935ZM81.6935 6.90562V7.665H83.6935V6.90562H81.6935ZM82.6935 6.665H81.7851V8.665H82.6935V6.665ZM79.9682 6.665H78.1513V8.665H79.9682V6.665ZM76.3345 6.665H74.5176V8.665H76.3345V6.665ZM72.7007 6.665H70.8838V8.665H72.7007V6.665ZM69.067 6.665H68.1585V8.665H69.067V6.665ZM67.1585 7.665V8.46937H69.1585V7.665H67.1585ZM67.1585 10.0781V11.6869H69.1585V10.0781H67.1585ZM67.1585 13.2956V14.1H69.1585V13.2956H67.1585ZM68.1585 15.1H69.1973V13.1H68.1585V15.1ZM71.2748 15.1H73.3523V13.1H71.2748V15.1ZM75.4298 15.1H77.5073V13.1H75.4298V15.1ZM79.5848 15.1H80.6235V13.1H79.5848V15.1ZM79.6235 14.1V14.8537H81.6235V14.1H79.6235ZM79.6235 16.3612V17.8687H81.6235V16.3612H79.6235ZM79.6235 19.3762V20.13H81.6235V19.3762H79.6235ZM80.6235 19.13H79.5848V21.13H80.6235V19.13ZM77.5073 19.13H75.4298V21.13H77.5073V19.13ZM73.3523 19.13H71.2748V21.13H73.3523V19.13ZM69.1973 19.13H68.1585V21.13H69.1973V19.13ZM67.1585 20.13V20.9794H69.1585V20.13H67.1585ZM67.1585 22.6781V24.3769H69.1585V22.6781H67.1585ZM67.1585 26.0756V26.925H69.1585V26.0756H67.1585ZM68.1585 27.925H69.067V25.925H68.1585V27.925ZM70.8838 27.925H72.7007V25.925H70.8838V27.925ZM74.5176 27.925H76.3345V25.925H74.5176V27.925ZM78.1513 27.925H79.9682V25.925H78.1513V27.925ZM81.7851 27.925H82.6935V25.925H81.7851V27.925ZM81.6935 26.925V27.6844H83.6935V26.925H81.6935ZM81.6935 29.2031V30.7219H83.6935V29.2031H81.6935ZM81.6935 32.2406V33H83.6935V32.2406H81.6935ZM82.6935 32H81.6248V34H82.6935V32ZM79.4873 32H77.3498V34H79.4873V32ZM75.2123 32H73.0748V34H75.2123V32ZM70.9373 32H68.7998V34H70.9373V32ZM66.6623 32H64.5248V34H66.6623V32ZM62.3873 32H61.3185V34H62.3873V32ZM1.465 78H0.965V78.5H1.465V78ZM1.465 46.59V46.09H0.965V46.59H1.465ZM20.275 47.355L20.0752 47.8135L20.0852 47.8176L20.275 47.355ZM23.245 49.38L22.879 49.7208L22.8853 49.7273L23.245 49.38ZM25.18 52.575L24.7091 52.7432L24.7104 52.7468L25.18 52.575ZM25.18 60.72L25.6496 60.8918L25.6496 60.8918L25.18 60.72ZM23.245 63.87L22.8852 63.5226L22.8791 63.5293L23.245 63.87ZM20.275 65.94L20.4648 66.4027L20.4748 66.3983L20.275 65.94ZM8.305 66.66V66.16H7.805V66.66H8.305ZM8.305 78V78.5H8.805V78H8.305ZM8.305 60.72H7.805V61.22H8.305V60.72ZM17.89 59.955L18.2234 60.3276L18.2245 60.3266L17.89 59.955ZM17.89 53.34L17.5461 53.703L17.5559 53.7122L17.5662 53.721L17.89 53.34ZM8.305 52.53V52.03H7.805V52.53H8.305ZM1.965 78V77.0184H0.965V78H1.965ZM1.965 75.0553V73.0922H0.965V75.0553H1.965ZM1.965 71.1291V69.1659H0.965V71.1291H1.965ZM1.965 67.2028V65.2397H0.965V67.2028H1.965ZM1.965 63.2766V61.3134H0.965V63.2766H1.965ZM1.965 59.3503V57.3872H0.965V59.3503H1.965ZM1.965 55.4241V53.4609H0.965V55.4241H1.965ZM1.965 51.4978V49.5347H0.965V51.4978H1.965ZM1.965 47.5716V46.59H0.965V47.5716H1.965ZM1.465 47.09H2.39313V46.09H1.465V47.09ZM4.24938 47.09H6.10563V46.09H4.24938V47.09ZM7.96187 47.09H9.81812V46.09H7.96187V47.09ZM11.6744 47.09H13.5306V46.09H11.6744V47.09ZM15.3869 47.09H16.315V46.09H15.3869V47.09ZM16.315 47.09C16.6478 47.09 16.9717 47.1036 17.2866 47.1307L17.3722 46.1343C17.0275 46.1047 16.6751 46.09 16.315 46.09V47.09ZM19.1779 47.4847C19.4874 47.5779 19.7864 47.6875 20.0752 47.8133L20.4748 46.8966C20.149 46.7546 19.8127 46.6315 19.4662 46.5272L19.1779 47.4847ZM20.0852 47.8176C20.3544 47.928 20.6129 48.0491 20.8606 48.1806L21.3295 47.2973C21.0517 47.1499 20.7635 47.015 20.4648 46.8924L20.0852 47.8176ZM22.2666 49.1336C22.4816 49.3174 22.6858 49.5131 22.8791 49.7207L23.6109 49.0393C23.3919 48.804 23.1603 48.582 22.9163 48.3735L22.2666 49.1336ZM22.8853 49.7273C23.0888 49.938 23.2802 50.1611 23.4595 50.3967L24.2551 49.7909C24.0523 49.5245 23.8355 49.2718 23.6047 49.0327L22.8853 49.7273ZM24.3704 51.9155C24.4935 52.1799 24.6065 52.4558 24.7091 52.7432L25.6509 52.4068C25.5382 52.0915 25.4136 51.7869 25.2769 51.4933L24.3704 51.9155ZM24.7104 52.7468C24.8218 53.0512 24.9189 53.3638 25.0015 53.6847L25.9699 53.4353C25.8792 53.0832 25.7725 52.7391 25.6496 52.4032L24.7104 52.7468ZM25.3181 55.632C25.3427 55.9557 25.355 56.2867 25.355 56.625H26.355C26.355 56.2624 26.3418 55.9061 26.3152 55.5562L25.3181 55.632ZM25.355 56.625C25.355 56.9681 25.3428 57.3031 25.3186 57.6301L26.3158 57.7041C26.342 57.3515 26.355 56.9917 26.355 56.625H25.355ZM25.0032 59.6004C24.9202 59.9258 24.8226 60.2417 24.7104 60.5482L25.6496 60.8918C25.7735 60.5529 25.8811 60.2048 25.9722 59.8476L25.0032 59.6004ZM24.7104 60.5482C24.6071 60.8307 24.4932 61.1025 24.3689 61.3636L25.2719 61.7934C25.41 61.5031 25.5359 61.2026 25.6496 60.8918L24.7104 60.5482ZM23.4563 62.8605C23.278 63.0924 23.0876 63.3131 22.8853 63.5227L23.6047 64.2173C23.8331 63.9807 24.0479 63.7316 24.249 63.4701L23.4563 62.8605ZM22.8791 63.5293C22.6845 63.7383 22.4788 63.9362 22.2621 64.1232L22.9152 64.8804C23.1595 64.6697 23.3915 64.4465 23.6109 64.2107L22.8791 63.5293ZM20.8514 65.1003C20.6033 65.2371 20.3446 65.3642 20.0752 65.4817L20.4748 66.3983C20.7717 66.2689 21.0582 66.1282 21.3343 65.976L20.8514 65.1003ZM20.0852 65.4774C19.7947 65.5966 19.4937 65.7004 19.182 65.7885L19.4543 66.7508C19.8014 66.6526 20.1383 66.5365 20.4648 66.4026L20.0852 65.4774ZM17.2865 66.1218C16.9715 66.1472 16.6477 66.16 16.315 66.16V67.16C16.6733 67.16 17.024 67.1463 17.3669 67.1186L17.2865 66.1218ZM16.315 66.16H15.3138V67.16H16.315V66.16ZM13.3113 66.16H11.3088V67.16H13.3113V66.16ZM9.30625 66.16H8.305V67.16H9.30625V66.16ZM7.805 66.66V67.605H8.805V66.66H7.805ZM7.805 69.495V71.385H8.805V69.495H7.805ZM7.805 73.275V75.165H8.805V73.275H7.805ZM7.805 77.055V78H8.805V77.055H7.805ZM8.305 77.5H7.45V78.5H8.305V77.5ZM5.74 77.5H4.03V78.5H5.74V77.5ZM2.32 77.5H1.465V78.5H2.32V77.5ZM8.805 60.72V59.6962H7.805V60.72H8.805ZM8.805 57.6487V55.6012H7.805V57.6487H8.805ZM8.805 53.5537V52.53H7.805V53.5537H8.805ZM8.305 53.03H9.205V52.03H8.305V53.03ZM11.005 53.03H12.805V52.03H11.005V53.03ZM14.605 53.03H15.505V52.03H14.605V53.03ZM15.505 53.03C15.7112 53.03 15.9043 53.0421 16.0846 53.0655L16.2133 52.0738C15.9863 52.0443 15.7501 52.03 15.505 52.03V53.03ZM17.1256 53.3927C17.2803 53.4803 17.4202 53.5836 17.5461 53.703L18.2339 52.977C18.0481 52.801 17.8426 52.6495 17.6182 52.5225L17.1256 53.3927ZM17.5662 53.721C17.6949 53.8304 17.8054 53.954 17.8985 54.0924L18.7282 53.5341C18.5836 53.3193 18.4118 53.1273 18.2138 52.959L17.5662 53.721ZM18.2518 55.0718C18.2769 55.2449 18.29 55.4324 18.29 55.635H19.29C19.29 55.3896 19.2742 55.1538 19.2414 54.9282L18.2518 55.0718ZM18.29 55.635V56.13H19.29V55.635H18.29ZM18.29 57.12V57.615H19.29V57.12H18.29ZM18.29 57.615C18.29 57.82 18.2766 58.0105 18.2508 58.1872L19.2403 58.3317C19.2738 58.1024 19.29 57.8634 19.29 57.615H18.29ZM17.8916 59.192C17.7972 59.3361 17.6855 59.4663 17.5555 59.5834L18.2245 60.3266C18.418 60.1525 18.5863 59.9566 18.7282 59.7397L17.8916 59.192ZM17.5566 59.5824C17.4298 59.6958 17.2882 59.7945 17.1307 59.8782L17.5998 60.7613C17.8266 60.6409 18.0348 60.4963 18.2234 60.3276L17.5566 59.5824ZM16.0839 60.1868C15.9035 60.2087 15.7107 60.22 15.505 60.22V61.22C15.7471 61.22 15.9804 61.2067 16.2045 61.1795L16.0839 60.1868ZM15.505 60.22H14.605V61.22H15.505V60.22ZM12.805 60.22H11.005V61.22H12.805V60.22ZM9.205 60.22H8.305V61.22H9.205V60.22ZM1.465 78H0.465V79H1.465V78ZM1.465 46.59V45.59H0.465V46.59H1.465ZM20.275 47.355L19.8754 48.2717L19.8854 48.276L19.8954 48.2802L20.275 47.355ZM23.245 49.38L22.5131 50.0614L22.5193 50.0681L22.5256 50.0746L23.245 49.38ZM25.18 52.575L24.2382 52.9113L24.2409 52.9186L25.18 52.575ZM25.18 60.72L26.1191 61.0636L26.1191 61.0636L25.18 60.72ZM23.245 63.87L22.5256 63.1754L22.5193 63.1819L22.5131 63.1886L23.245 63.87ZM20.275 65.94L20.6546 66.8652L20.6646 66.861L20.6746 66.8567L20.275 65.94ZM8.305 66.66V65.66H7.305V66.66H8.305ZM8.305 78V79H9.305V78H8.305ZM8.305 60.72H7.305V61.72H8.305V60.72ZM17.89 59.955L18.5568 60.7002L18.559 60.6983L17.89 59.955ZM17.89 53.34L17.2023 54.066L17.2218 54.0845L17.2424 54.1019L17.89 53.34ZM8.305 52.53V51.53H7.305V52.53H8.305ZM2.465 78V77.0184H0.465V78H2.465ZM2.465 75.0553V73.0922H0.465V75.0553H2.465ZM2.465 71.1291V69.1659H0.465V71.1291H2.465ZM2.465 67.2028V65.2397H0.465V67.2028H2.465ZM2.465 63.2766V61.3134H0.465V63.2766H2.465ZM2.465 59.3503V57.3872H0.465V59.3503H2.465ZM2.465 55.4241V53.4609H0.465V55.4241H2.465ZM2.465 51.4978V49.5347H0.465V51.4978H2.465ZM2.465 47.5716V46.59H0.465V47.5716H2.465ZM1.465 47.59H2.39313V45.59H1.465V47.59ZM4.24938 47.59H6.10563V45.59H4.24938V47.59ZM7.96187 47.59H9.81812V45.59H7.96187V47.59ZM11.6744 47.59H13.5306V45.59H11.6744V47.59ZM15.3869 47.59H16.315V45.59H15.3869V47.59ZM16.315 47.59C16.6342 47.59 16.9438 47.6031 17.2438 47.6288L17.415 45.6362C17.0554 45.6053 16.6887 45.59 16.315 45.59V47.59ZM19.0337 47.9634C19.3247 48.0511 19.6051 48.1539 19.8754 48.2717L20.6746 46.4383C20.3303 46.2882 19.9754 46.1583 19.6104 46.0484L19.0337 47.9634ZM19.8954 48.2802C20.1499 48.3846 20.3934 48.4987 20.6262 48.6222L21.5639 46.8556C21.2712 46.7003 20.968 46.5584 20.6546 46.4298L19.8954 48.2802ZM21.9417 49.5137C22.1423 49.6851 22.3327 49.8677 22.5131 50.0614L23.9769 48.6986C23.7449 48.4494 23.4996 48.2143 23.2412 47.9934L21.9417 49.5137ZM22.5256 50.0746C22.7154 50.2711 22.8941 50.4794 23.0617 50.6996L24.6529 49.488C24.4384 49.2062 24.2089 48.9386 23.9644 48.6854L22.5256 50.0746ZM23.9171 52.1265C24.0335 52.3765 24.1406 52.638 24.2383 52.9113L26.1217 52.2387C26.0041 51.9093 25.8737 51.5904 25.7302 51.2823L23.9171 52.1265ZM24.2409 52.9186C24.3465 53.2073 24.4387 53.5042 24.5173 53.8094L26.4541 53.3106C26.3594 52.9429 26.2478 52.5831 26.1191 52.2314L24.2409 52.9186ZM24.8195 55.6698C24.8431 55.9805 24.855 56.2989 24.855 56.625H26.855C26.855 56.2502 26.8413 55.8813 26.8138 55.5184L24.8195 55.6698ZM24.855 56.625C24.855 56.9563 24.8432 57.2789 24.8199 57.5932L26.8145 57.741C26.8416 57.3756 26.855 57.0036 26.855 56.625H24.855ZM24.5188 59.4768C24.4398 59.7863 24.3471 60.0861 24.2409 60.3764L26.1191 61.0636C26.249 60.7085 26.3615 60.3443 26.4567 59.9713L24.5188 59.4768ZM24.2409 60.3764C24.1427 60.6448 24.0348 60.9022 23.9174 61.1488L25.7234 62.0082C25.8684 61.7034 26.0003 61.3885 26.1191 61.0636L24.2409 60.3764ZM23.06 62.5557C22.893 62.7729 22.7149 62.9794 22.5256 63.1754L23.9644 64.5646C24.2059 64.3145 24.4329 64.0512 24.6454 63.7749L23.06 62.5557ZM22.5131 63.1886C22.331 63.3842 22.1385 63.5695 21.9355 63.7446L23.2418 65.2591C23.4999 65.0365 23.745 64.8005 23.9769 64.5514L22.5131 63.1886ZM20.6099 64.6624C20.3758 64.7915 20.1311 64.9119 19.8754 65.0233L20.6746 66.8567C20.9852 66.7213 21.2857 66.5737 21.5757 66.4138L20.6099 64.6624ZM19.8954 65.0148C19.6229 65.1267 19.3398 65.2243 19.0459 65.3074L19.5904 67.2319C19.9553 67.1286 20.3101 67.0065 20.6546 66.8652L19.8954 65.0148ZM17.2463 65.6235C16.9453 65.6477 16.6349 65.66 16.315 65.66V67.66C16.6861 67.66 17.0502 67.6458 17.4071 67.617L17.2463 65.6235ZM16.315 65.66H15.3138V67.66H16.315V65.66ZM13.3113 65.66H11.3088V67.66H13.3113V65.66ZM9.30625 65.66H8.305V67.66H9.30625V65.66ZM7.305 66.66V67.605H9.305V66.66H7.305ZM7.305 69.495V71.385H9.305V69.495H7.305ZM7.305 73.275V75.165H9.305V73.275H7.305ZM7.305 77.055V78H9.305V77.055H7.305ZM8.305 77H7.45V79H8.305V77ZM5.74 77H4.03V79H5.74V77ZM2.32 77H1.465V79H2.32V77ZM9.305 60.72V59.6962H7.305V60.72H9.305ZM9.305 57.6487V55.6012H7.305V57.6487H9.305ZM9.305 53.5537V52.53H7.305V53.5537H9.305ZM8.305 53.53H9.205V51.53H8.305V53.53ZM11.005 53.53H12.805V51.53H11.005V53.53ZM14.605 53.53H15.505V51.53H14.605V53.53ZM15.505 53.53C15.6918 53.53 15.8632 53.5409 16.0202 53.5613L16.2776 51.578C16.0274 51.5455 15.7695 51.53 15.505 51.53V53.53ZM16.8793 53.8278C16.9992 53.8957 17.1062 53.9749 17.2023 54.066L18.5777 52.614C18.3621 52.4097 18.1237 52.234 17.8646 52.0873L16.8793 53.8278ZM17.2424 54.1019C17.3365 54.182 17.4163 54.2713 17.4837 54.3716L19.143 53.255C18.9727 53.0019 18.7702 52.7757 18.5377 52.5781L17.2424 54.1019ZM17.757 55.1436C17.7783 55.2905 17.79 55.4538 17.79 55.635H19.79C19.79 55.3682 19.7728 55.1082 19.7362 54.8564L17.757 55.1436ZM17.79 55.635V56.13H19.79V55.635H17.79ZM17.79 57.12V57.615H19.79V57.12H17.79ZM17.79 57.615C17.79 57.7983 17.778 57.9645 17.756 58.115L19.7351 58.4039C19.7724 58.1484 19.79 57.885 19.79 57.615H17.79ZM17.4732 58.9181C17.4027 59.0258 17.3193 59.1233 17.221 59.2117L18.559 60.6983C18.7843 60.4955 18.9808 60.2669 19.1466 60.0136L17.4732 58.9181ZM17.2232 59.2098C17.1273 59.2956 17.0191 59.3713 16.8962 59.4366L17.8344 61.2029C18.0957 61.064 18.3373 60.8966 18.5568 60.7002L17.2232 59.2098ZM16.0235 59.6904C15.8651 59.7097 15.6925 59.72 15.505 59.72V61.72C15.7653 61.72 16.0189 61.7057 16.2648 61.6758L16.0235 59.6904ZM15.505 59.72H14.605V61.72H15.505V59.72ZM12.805 59.72H11.005V61.72H12.805V59.72ZM9.205 59.72H8.305V61.72H9.205V59.72ZM47.0504 78L46.5716 78.1442L46.6788 78.5H47.0504V78ZM44.8004 70.53L45.2791 70.3858L45.1719 70.03H44.8004V70.53ZM34.3154 70.53V70.03H33.9438L33.8366 70.3858L34.3154 70.53ZM32.0654 78V78.5H32.4369L32.5441 78.1442L32.0654 78ZM25.1354 78L24.6605 77.8435L24.4441 78.5H25.1354V78ZM35.4854 46.59V46.09H35.1237L35.0105 46.4335L35.4854 46.59ZM43.9454 46.59L44.4208 46.4354L44.3085 46.09H43.9454V46.59ZM54.1604 78V78.5H54.8487L54.6358 77.8454L54.1604 78ZM39.6254 52.8L40.105 52.6588L39.9994 52.3H39.6254V52.8ZM39.4004 52.8V52.3H39.025L38.9202 52.6605L39.4004 52.8ZM35.9354 64.725L35.4552 64.5855L35.2694 65.225H35.9354V64.725ZM43.1354 64.725V65.225H43.8037L43.615 64.5838L43.1354 64.725ZM47.5291 77.8558L47.2479 76.922L46.2903 77.2105L46.5716 78.1442L47.5291 77.8558ZM46.6854 75.0545L46.1229 73.187L45.1653 73.4755L45.7278 75.343L46.6854 75.0545ZM45.5604 71.3195L45.2791 70.3858L44.3216 70.6742L44.6028 71.608L45.5604 71.3195ZM44.8004 70.03H43.9266V71.03H44.8004V70.03ZM42.1791 70.03H40.4316V71.03H42.1791V70.03ZM38.6841 70.03H36.9366V71.03H38.6841V70.03ZM35.1891 70.03H34.3154V71.03H35.1891V70.03ZM33.8366 70.3858L33.5553 71.3195L34.5129 71.608L34.7941 70.6742L33.8366 70.3858ZM32.9928 73.187L32.4303 75.0545L33.3879 75.343L33.9504 73.4755L32.9928 73.187ZM31.8678 76.922L31.5866 77.8558L32.5441 78.1442L32.8254 77.2105L31.8678 76.922ZM32.0654 77.5H31.1991V78.5H32.0654V77.5ZM29.4666 77.5H27.7341V78.5H29.4666V77.5ZM26.0016 77.5H25.1354V78.5H26.0016V77.5ZM25.6102 78.1565L25.9337 77.1749L24.9839 76.862L24.6605 77.8435L25.6102 78.1565ZM26.5805 75.2118L27.2274 73.2487L26.2777 72.9357L25.6308 74.8988L26.5805 75.2118ZM27.8743 71.2855L28.5212 69.3224L27.5714 69.0095L26.9245 70.9726L27.8743 71.2855ZM29.168 67.3593L29.8149 65.3962L28.8652 65.0832L28.2183 67.0463L29.168 67.3593ZM30.4618 63.433L31.1087 61.4699L30.1589 61.157L29.512 63.1201L30.4618 63.433ZM31.7555 59.5068L32.4024 57.5437L31.4527 57.2307L30.8058 59.1938L31.7555 59.5068ZM33.0493 55.5805L33.6962 53.6174L32.7464 53.3045L32.0995 55.2676L33.0493 55.5805ZM34.343 51.6543L34.9899 49.6912L34.0402 49.3782L33.3933 51.3413L34.343 51.6543ZM35.6368 47.728L35.9602 46.7465L35.0105 46.4335L34.687 47.4151L35.6368 47.728ZM35.4854 47.09H36.5429V46.09H35.4854V47.09ZM38.6579 47.09H40.7729V46.09H38.6579V47.09ZM42.8879 47.09H43.9454V46.09H42.8879V47.09ZM43.4699 46.7446L43.7891 47.7262L44.7401 47.4169L44.4208 46.4354L43.4699 46.7446ZM44.4275 49.6893L45.066 51.6524L46.0169 51.3432L45.3785 49.3801L44.4275 49.6893ZM45.7044 53.6156L46.3428 55.5787L47.2938 55.2694L46.6554 53.3063L45.7044 53.6156ZM46.9813 57.5418L47.6197 59.5049L48.5707 59.1957L47.9322 57.2326L46.9813 57.5418ZM48.2581 61.4681L48.8966 63.4312L49.8476 63.1219L49.2091 61.1588L48.2581 61.4681ZM49.535 65.3943L50.1735 67.3574L51.1244 67.0482L50.486 65.0851L49.535 65.3943ZM50.8119 69.3206L51.4503 71.2837L52.4013 70.9744L51.7629 69.0113L50.8119 69.3206ZM52.0888 73.2468L52.7272 75.2099L53.6782 74.9007L53.0397 72.9376L52.0888 73.2468ZM53.3656 77.1731L53.6849 78.1546L54.6358 77.8454L54.3166 76.8638L53.3656 77.1731ZM54.1604 77.5H53.2716V78.5H54.1604V77.5ZM51.4941 77.5H49.7166V78.5H51.4941V77.5ZM47.9391 77.5H47.0504V78.5H47.9391V77.5ZM39.6254 52.3H39.5691V53.3H39.6254V52.3ZM39.4566 52.3H39.4004V53.3H39.4566V52.3ZM38.9202 52.6605L38.6315 53.6542L39.5917 53.9333L39.8805 52.9395L38.9202 52.6605ZM38.054 55.6417L37.4765 57.6292L38.4367 57.9083L39.0142 55.9208L38.054 55.6417ZM36.899 59.6167L36.3215 61.6042L37.2817 61.8833L37.8592 59.8958L36.899 59.6167ZM35.744 63.5917L35.4552 64.5855L36.4155 64.8645L36.7042 63.8708L35.744 63.5917ZM35.9354 65.225H36.8354V64.225H35.9354V65.225ZM38.6354 65.225H40.4354V64.225H38.6354V65.225ZM42.2354 65.225H43.1354V64.225H42.2354V65.225ZM43.615 64.5838L43.3225 63.5901L42.3632 63.8724L42.6557 64.8662L43.615 64.5838ZM42.7375 61.6026L42.1525 59.6151L41.1932 59.8974L41.7782 61.8849L42.7375 61.6026ZM41.5675 57.6276L40.9825 55.6401L40.0232 55.9224L40.6082 57.9099L41.5675 57.6276ZM40.3975 53.6526L40.105 52.6588L39.1457 52.9412L39.4382 53.9349L40.3975 53.6526ZM47.0504 78L46.0928 78.2884L46.3072 79H47.0504V78ZM44.8004 70.53L45.7579 70.2416L45.5435 69.53H44.8004V70.53ZM34.3154 70.53V69.53H33.5722L33.3578 70.2416L34.3154 70.53ZM32.0654 78V79H32.8085L33.0229 78.2884L32.0654 78ZM25.1354 78L24.1856 77.687L23.7529 79H25.1354V78ZM35.4854 46.59V45.59H34.762L34.5356 46.277L35.4854 46.59ZM43.9454 46.59L44.8963 46.2807L44.6717 45.59H43.9454V46.59ZM54.1604 78V79H55.5371L55.1113 77.6907L54.1604 78ZM39.6254 52.8L40.5847 52.5176L40.3734 51.8H39.6254V52.8ZM39.4004 52.8V51.8H38.6496L38.4401 52.521L39.4004 52.8ZM35.9354 64.725L34.9751 64.446L34.6034 65.725H35.9354V64.725ZM43.1354 64.725V65.725H44.4721L44.0947 64.4426L43.1354 64.725ZM48.0079 77.7116L47.7266 76.7778L45.8116 77.3547L46.0928 78.2884L48.0079 77.7116ZM47.1641 74.9103L46.6016 73.0428L44.6866 73.6197L45.2491 75.4872L47.1641 74.9103ZM46.0391 71.1753L45.7579 70.2416L43.8428 70.8184L44.1241 71.7522L46.0391 71.1753ZM44.8004 69.53H43.9266V71.53H44.8004V69.53ZM42.1791 69.53H40.4316V71.53H42.1791V69.53ZM38.6841 69.53H36.9366V71.53H38.6841V69.53ZM35.1891 69.53H34.3154V71.53H35.1891V69.53ZM33.3578 70.2416L33.0766 71.1753L34.9916 71.7522L35.2729 70.8184L33.3578 70.2416ZM32.5141 73.0428L31.9516 74.9103L33.8666 75.4872L34.4291 73.6197L32.5141 73.0428ZM31.3891 76.7778L31.1078 77.7116L33.0229 78.2884L33.3041 77.3547L31.3891 76.7778ZM32.0654 77H31.1991V79H32.0654V77ZM29.4666 77H27.7341V79H29.4666V77ZM26.0016 77H25.1354V79H26.0016V77ZM26.0851 78.313L26.4086 77.3314L24.509 76.7055L24.1856 77.687L26.0851 78.313ZM27.0554 75.3683L27.7023 73.4051L25.8028 72.7792L25.1559 74.7424L27.0554 75.3683ZM28.3492 71.442L28.9961 69.4789L27.0965 68.853L26.4496 70.8161L28.3492 71.442ZM29.6429 67.5158L30.2898 65.5526L28.3903 64.9267L27.7434 66.8899L29.6429 67.5158ZM30.9367 63.5895L31.5836 61.6264L29.684 61.0005L29.0371 62.9636L30.9367 63.5895ZM32.2304 59.6633L32.8773 57.7002L30.9778 57.0742L30.3309 59.0374L32.2304 59.6633ZM33.5242 55.737L34.1711 53.7739L32.2715 53.148L31.6246 55.1111L33.5242 55.737ZM34.8179 51.8108L35.4648 49.8477L33.5653 49.2217L32.9184 51.1849L34.8179 51.8108ZM36.1117 47.8845L36.4351 46.903L34.5356 46.277L34.2121 47.2586L36.1117 47.8845ZM35.4854 47.59H36.5429V45.59H35.4854V47.59ZM38.6579 47.59H40.7729V45.59H38.6579V47.59ZM42.8879 47.59H43.9454V45.59H42.8879V47.59ZM42.9944 46.8993L43.3136 47.8808L45.2155 47.2623L44.8963 46.2807L42.9944 46.8993ZM43.952 49.844L44.5905 51.8071L46.4924 51.1885L45.854 49.2254L43.952 49.844ZM45.2289 53.7702L45.8673 55.7333L47.7693 55.1148L47.1309 53.1517L45.2289 53.7702ZM46.5058 57.6965L47.1442 59.6596L49.0462 59.041L48.4077 57.0779L46.5058 57.6965ZM47.7827 61.6227L48.4211 63.5858L50.323 62.9673L49.6846 61.0042L47.7827 61.6227ZM49.0595 65.549L49.698 67.5121L51.5999 66.8935L50.9615 64.9304L49.0595 65.549ZM50.3364 69.4752L50.9748 71.4383L52.8768 70.8198L52.2384 68.8567L50.3364 69.4752ZM51.6133 73.4015L52.2517 75.3646L54.1537 74.746L53.5152 72.7829L51.6133 73.4015ZM52.8902 77.3277L53.2094 78.3093L55.1113 77.6907L54.7921 76.7092L52.8902 77.3277ZM54.1604 77H53.2716V79H54.1604V77ZM51.4941 77H49.7166V79H51.4941V77ZM47.9391 77H47.0504V79H47.9391V77ZM39.6254 51.8H39.5691V53.8H39.6254V51.8ZM39.4566 51.8H39.4004V53.8H39.4566V51.8ZM38.4401 52.521L38.1513 53.5147L40.0719 54.0728L40.3606 53.079L38.4401 52.521ZM37.5738 55.5022L36.9963 57.4897L38.9169 58.0478L39.4944 56.0603L37.5738 55.5022ZM36.4188 59.4772L35.8413 61.4647L37.7619 62.0228L38.3394 60.0353L36.4188 59.4772ZM35.2638 63.4522L34.9751 64.446L36.8956 65.004L37.1844 64.0103L35.2638 63.4522ZM35.9354 65.725H36.8354V63.725H35.9354V65.725ZM38.6354 65.725H40.4354V63.725H38.6354V65.725ZM42.2354 65.725H43.1354V63.725H42.2354V65.725ZM44.0947 64.4426L43.8022 63.4489L41.8835 64.0136L42.176 65.0074L44.0947 64.4426ZM43.2172 61.4614L42.6322 59.4739L40.7135 60.0386L41.2985 62.0261L43.2172 61.4614ZM42.0472 57.4864L41.4622 55.4989L39.5435 56.0636L40.1285 58.0511L42.0472 57.4864ZM40.8772 53.5114L40.5847 52.5176L38.666 53.0824L38.9585 54.0761L40.8772 53.5114ZM65.346 78V78.5H65.846V78H65.346ZM58.506 78H58.006V78.5H58.506V78ZM58.506 46.59V46.09H58.006V46.59H58.506ZM77.316 47.31L77.5058 46.8474L77.5058 46.8474L77.316 47.31ZM80.286 49.38L79.9144 49.7145L79.9202 49.721L79.9263 49.7273L80.286 49.38ZM81.456 62.205L81.0279 61.9465L81.0244 61.9526L81.456 62.205ZM77.181 65.67L77.0055 65.2018L76.4854 65.3968L76.7338 65.8936L77.181 65.67ZM83.346 78V78.5H84.155L83.7932 77.7764L83.346 78ZM75.741 78L75.2897 78.2151L75.4254 78.5H75.741V78ZM70.251 66.48L70.7024 66.2649L70.5666 65.98H70.251V66.48ZM65.346 66.48V65.98H64.846V66.48H65.346ZM74.931 59.955L75.2644 60.3276L75.2655 60.3266L74.931 59.955ZM74.931 53.34L74.5871 53.703L74.5969 53.7122L74.6072 53.721L74.931 53.34ZM65.346 52.53V52.03H64.846V52.53H65.346ZM65.346 60.72H64.846V61.22H65.346V60.72ZM65.346 77.5H64.491V78.5H65.346V77.5ZM62.781 77.5H61.071V78.5H62.781V77.5ZM59.361 77.5H58.506V78.5H59.361V77.5ZM59.006 78V77.0184H58.006V78H59.006ZM59.006 75.0553V73.0922H58.006V75.0553H59.006ZM59.006 71.1291V69.1659H58.006V71.1291H59.006ZM59.006 67.2028V65.2397H58.006V67.2028H59.006ZM59.006 63.2766V61.3134H58.006V63.2766H59.006ZM59.006 59.3503V57.3872H58.006V59.3503H59.006ZM59.006 55.4241V53.4609H58.006V55.4241H59.006ZM59.006 51.4978V49.5347H58.006V51.4978H59.006ZM59.006 47.5716V46.59H58.006V47.5716H59.006ZM58.506 47.09H59.437V46.09H58.506V47.09ZM61.2988 47.09H63.1607V46.09H61.2988V47.09ZM65.0226 47.09H66.8845V46.09H65.0226V47.09ZM68.7463 47.09H70.6082V46.09H68.7463V47.09ZM72.4701 47.09H73.401V46.09H72.4701V47.09ZM73.401 47.09C73.7289 47.09 74.0487 47.1029 74.3604 47.1287L74.4427 46.1321C74.1025 46.104 73.7553 46.09 73.401 46.09V47.09ZM76.2328 47.4633C76.5399 47.5511 76.8376 47.6542 77.1262 47.7726L77.5058 46.8474C77.1823 46.7147 76.8494 46.5995 76.5075 46.5018L76.2328 47.4633ZM77.1262 47.7726C77.3964 47.8834 77.6556 48.0058 77.9042 48.1396L78.3783 47.2591C78.0981 47.1083 77.8073 46.9711 77.5058 46.8474L77.1262 47.7726ZM79.3071 49.1133C79.5201 49.301 79.7225 49.5013 79.9144 49.7145L80.6577 49.0455C80.4402 48.8039 80.2104 48.5764 79.9682 48.363L79.3071 49.1133ZM79.9263 49.7273C80.1286 49.9368 80.319 50.1576 80.4973 50.3895L81.2901 49.7799C81.089 49.5184 80.8742 49.2693 80.6457 49.0327L79.9263 49.7273ZM81.4099 51.8864C81.5342 52.1475 81.6481 52.4193 81.7515 52.7018L82.6906 52.3582C82.5769 52.0474 82.451 51.7469 82.3129 51.4566L81.4099 51.8864ZM81.7515 52.7018C81.8636 53.0083 81.9612 53.3242 82.0443 53.6496L83.0132 53.4024C82.9221 53.0452 82.8146 52.6971 82.6906 52.3582L81.7515 52.7018ZM82.3596 55.6199C82.3838 55.9469 82.396 56.2819 82.396 56.625H83.396C83.396 56.2582 83.383 55.8985 83.3569 55.5459L82.3596 55.6199ZM82.396 56.625C82.396 57.1077 82.3705 57.5744 82.3197 58.0253L83.3134 58.1371C83.3686 57.647 83.396 57.1429 83.396 56.625H82.396ZM81.6478 60.7132C81.4721 61.1421 81.2655 61.5531 81.028 61.9466L81.884 62.4634C82.1484 62.0256 82.3781 61.5684 82.5732 61.0922L81.6478 60.7132ZM81.0244 61.9526C80.8006 62.3353 80.5466 62.6902 80.2626 63.0178L81.0181 63.6729C81.3433 63.2978 81.6332 62.8925 81.8876 62.4574L81.0244 61.9526ZM78.2169 64.6493C77.8412 64.8555 77.4376 65.0398 77.0055 65.2018L77.3566 66.1382C77.8305 65.9604 78.2778 65.7566 78.698 65.526L78.2169 64.6493ZM76.7338 65.8936L77.2476 66.9211L78.142 66.4739L77.6282 65.4464L76.7338 65.8936ZM78.2751 68.9761L79.3026 71.0311L80.197 70.5839L79.1695 68.5289L78.2751 68.9761ZM80.3301 73.0861L81.3576 75.1411L82.252 74.6939L81.2245 72.6389L80.3301 73.0861ZM82.3851 77.1961L82.8988 78.2236L83.7932 77.7764L83.2795 76.7489L82.3851 77.1961ZM83.346 77.5H82.3954V78.5H83.346V77.5ZM80.4941 77.5H78.5929V78.5H80.4941V77.5ZM76.6916 77.5H75.741V78.5H76.6916V77.5ZM76.1924 77.7849L75.7349 76.8249L74.8322 77.2551L75.2897 78.2151L76.1924 77.7849ZM74.8199 74.9049L73.9049 72.9849L73.0022 73.4151L73.9172 75.3351L74.8199 74.9049ZM72.9899 71.0649L72.0749 69.1449L71.1722 69.5751L72.0872 71.4951L72.9899 71.0649ZM71.1599 67.2249L70.7024 66.2649L69.7997 66.6951L70.2572 67.6551L71.1599 67.2249ZM70.251 65.98H69.0248V66.98H70.251V65.98ZM66.5723 65.98H65.346V66.98H66.5723V65.98ZM64.846 66.48V67.44H65.846V66.48H64.846ZM64.846 69.36V71.28H65.846V69.36H64.846ZM64.846 73.2V75.12H65.846V73.2H64.846ZM64.846 77.04V78H65.846V77.04H64.846ZM72.546 60.22H71.646V61.22H72.546V60.22ZM69.846 60.22H68.046V61.22H69.846V60.22ZM66.246 60.22H65.346V61.22H66.246V60.22ZM65.846 60.72V59.6962H64.846V60.72H65.846ZM65.846 57.6487V55.6012H64.846V57.6487H65.846ZM65.846 53.5537V52.53H64.846V53.5537H65.846ZM65.346 53.03H66.246V52.03H65.346V53.03ZM68.046 53.03H69.846V52.03H68.046V53.03ZM71.646 53.03H72.546V52.03H71.646V53.03ZM72.546 53.03C72.7522 53.03 72.9453 53.0421 73.1256 53.0655L73.2543 52.0738C73.0274 52.0443 72.7911 52.03 72.546 52.03V53.03ZM74.1666 53.3927C74.3213 53.4803 74.4612 53.5836 74.5871 53.703L75.2749 52.977C75.0891 52.801 74.8836 52.6495 74.6593 52.5225L74.1666 53.3927ZM74.6072 53.721C74.7359 53.8304 74.8464 53.954 74.9396 54.0924L75.7692 53.5341C75.6246 53.3193 75.4528 53.1273 75.2548 52.959L74.6072 53.721ZM75.2928 55.0718C75.3179 55.2449 75.331 55.4324 75.331 55.635H76.331C76.331 55.3896 76.3152 55.1538 76.2824 54.9282L75.2928 55.0718ZM75.331 55.635V56.13H76.331V55.635H75.331ZM75.331 57.12V57.615H76.331V57.12H75.331ZM75.331 57.615C75.331 57.82 75.3176 58.0105 75.2918 58.1872L76.2813 58.3317C76.3148 58.1024 76.331 57.8634 76.331 57.615H75.331ZM74.9326 59.192C74.8383 59.3361 74.7265 59.4663 74.5965 59.5834L75.2655 60.3266C75.459 60.1525 75.6273 59.9566 75.7693 59.7397L74.9326 59.192ZM74.5976 59.5824C74.4708 59.6958 74.3293 59.7945 74.1717 59.8782L74.6408 60.7613C74.8676 60.6409 75.0758 60.4963 75.2644 60.3276L74.5976 59.5824ZM73.1249 60.1868C72.9445 60.2087 72.7517 60.22 72.546 60.22V61.22C72.7881 61.22 73.0214 61.2067 73.2455 61.1795L73.1249 60.1868ZM65.346 78V79H66.346V78H65.346ZM58.506 78H57.506V79H58.506V78ZM58.506 46.59V45.59H57.506V46.59H58.506ZM77.316 47.31L77.6956 46.3848L77.6956 46.3848L77.316 47.31ZM80.286 49.38L79.5427 50.049L79.5544 50.062L79.5666 50.0746L80.286 49.38ZM81.456 62.205L80.5999 61.6881L80.5928 61.7001L81.456 62.205ZM77.181 65.67L76.8299 64.7337L75.7898 65.1237L76.2866 66.1172L77.181 65.67ZM83.346 78V79H84.964L84.2404 77.5528L83.346 78ZM75.741 78L74.8383 78.4302L75.1098 79H75.741V78ZM70.251 66.48L71.1537 66.0498L70.8822 65.48H70.251V66.48ZM65.346 66.48V65.48H64.346V66.48H65.346ZM74.931 59.955L75.5978 60.7002L75.6 60.6983L74.931 59.955ZM74.931 53.34L74.2433 54.066L74.2628 54.0845L74.2834 54.1019L74.931 53.34ZM65.346 52.53V51.53H64.346V52.53H65.346ZM65.346 60.72H64.346V61.72H65.346V60.72ZM65.346 77H64.491V79H65.346V77ZM62.781 77H61.071V79H62.781V77ZM59.361 77H58.506V79H59.361V77ZM59.506 78V77.0184H57.506V78H59.506ZM59.506 75.0553V73.0922H57.506V75.0553H59.506ZM59.506 71.1291V69.1659H57.506V71.1291H59.506ZM59.506 67.2028V65.2397H57.506V67.2028H59.506ZM59.506 63.2766V61.3134H57.506V63.2766H59.506ZM59.506 59.3503V57.3872H57.506V59.3503H59.506ZM59.506 55.4241V53.4609H57.506V55.4241H59.506ZM59.506 51.4978V49.5347H57.506V51.4978H59.506ZM59.506 47.5716V46.59H57.506V47.5716H59.506ZM58.506 47.59H59.437V45.59H58.506V47.59ZM61.2988 47.59H63.1607V45.59H61.2988V47.59ZM65.0226 47.59H66.8845V45.59H65.0226V47.59ZM68.7463 47.59H70.6082V45.59H68.7463V47.59ZM72.4701 47.59H73.401V45.59H72.4701V47.59ZM73.401 47.59C73.7158 47.59 74.0218 47.6024 74.3192 47.627L74.4839 45.6338C74.1294 45.6045 73.7684 45.59 73.401 45.59V47.59ZM76.0954 47.9441C76.3851 48.0269 76.6653 48.1239 76.9365 48.2352L77.6956 46.3848C77.3546 46.2449 77.0042 46.1237 76.6448 46.021L76.0954 47.9441ZM76.9365 48.2352C77.1909 48.3396 77.4344 48.4545 77.6671 48.5798L78.6153 46.8189C78.3194 46.6595 78.0127 46.5149 77.6956 46.3848L76.9365 48.2352ZM78.9766 49.4884C79.175 49.6632 79.3637 49.85 79.5427 50.049L81.0293 48.711C80.7991 48.4552 80.5556 48.2141 80.2988 47.9879L78.9766 49.4884ZM79.5666 50.0746C79.7559 50.2706 79.934 50.4771 80.101 50.6943L81.6864 49.4751C81.4739 49.1988 81.2469 48.9355 81.0054 48.6854L79.5666 50.0746ZM80.9585 52.1012C81.0758 52.3478 81.1837 52.6052 81.2819 52.8736L83.1601 52.1864C83.0413 51.8615 82.9094 51.5466 82.7644 51.2418L80.9585 52.1012ZM81.2819 52.8736C81.3881 53.1639 81.4808 53.4637 81.5598 53.7732L83.4977 53.2787C83.4025 52.9057 83.29 52.5415 83.1601 52.1864L81.2819 52.8736ZM81.861 55.6568C81.8843 55.9711 81.896 56.2937 81.896 56.625H83.896C83.896 56.2464 83.8826 55.8744 83.8555 55.509L81.861 55.6568ZM81.896 56.625C81.896 57.09 81.8714 57.538 81.8228 57.9693L83.8103 58.1931C83.8677 57.6834 83.896 57.1606 83.896 56.625H81.896ZM81.1851 60.5237C81.0191 60.9289 80.8241 61.3169 80.6 61.6881L82.3121 62.7219C82.5899 62.2618 82.8311 61.7816 83.0359 61.2817L81.1851 60.5237ZM80.5928 61.7001C80.3843 62.0567 80.1482 62.3864 79.8848 62.6902L81.3959 64.0004C81.7417 63.6016 82.0495 63.171 82.3192 62.7099L80.5928 61.7001ZM77.9764 64.211C77.623 64.4049 77.2412 64.5794 76.8299 64.7337L77.5321 66.6063C78.0269 66.4208 78.4961 66.2071 78.9385 65.9644L77.9764 64.211ZM76.2866 66.1172L76.8003 67.1447L78.5892 66.2503L78.0754 65.2228L76.2866 66.1172ZM77.8278 69.1997L78.8553 71.2547L80.6442 70.3603L79.6167 68.3053L77.8278 69.1997ZM79.8828 73.3097L80.9103 75.3647L82.6992 74.4703L81.6717 72.4153L79.8828 73.3097ZM81.9378 77.4197L82.4516 78.4472L84.2404 77.5528L83.7267 76.5253L81.9378 77.4197ZM83.346 77H82.3954V79H83.346V77ZM80.4941 77H78.5929V79H80.4941V77ZM76.6916 77H75.741V79H76.6916V77ZM76.6437 77.5698L76.1862 76.6098L74.3808 77.4702L74.8383 78.4302L76.6437 77.5698ZM75.2712 74.6898L74.3562 72.7698L72.5508 73.6302L73.4658 75.5502L75.2712 74.6898ZM73.4412 70.8498L72.5262 68.9298L70.7208 69.7902L71.6358 71.7102L73.4412 70.8498ZM71.6112 67.0098L71.1537 66.0498L69.3483 66.9102L69.8058 67.8702L71.6112 67.0098ZM70.251 65.48H69.0248V67.48H70.251V65.48ZM66.5723 65.48H65.346V67.48H66.5723V65.48ZM64.346 66.48V67.44H66.346V66.48H64.346ZM64.346 69.36V71.28H66.346V69.36H64.346ZM64.346 73.2V75.12H66.346V73.2H64.346ZM64.346 77.04V78H66.346V77.04H64.346ZM72.546 59.72H71.646V61.72H72.546V59.72ZM69.846 59.72H68.046V61.72H69.846V59.72ZM66.246 59.72H65.346V61.72H66.246V59.72ZM66.346 60.72V59.6962H64.346V60.72H66.346ZM66.346 57.6487V55.6012H64.346V57.6487H66.346ZM66.346 53.5537V52.53H64.346V53.5537H66.346ZM65.346 53.53H66.246V51.53H65.346V53.53ZM68.046 53.53H69.846V51.53H68.046V53.53ZM71.646 53.53H72.546V51.53H71.646V53.53ZM72.546 53.53C72.7328 53.53 72.9042 53.5409 73.0612 53.5613L73.3187 51.578C73.0684 51.5455 72.8105 51.53 72.546 51.53V53.53ZM73.9203 53.8278C74.0402 53.8957 74.1472 53.9749 74.2433 54.066L75.6188 52.614C75.4031 52.4097 75.1647 52.234 74.9056 52.0873L73.9203 53.8278ZM74.2834 54.1019C74.3775 54.182 74.4573 54.2713 74.5247 54.3716L76.184 53.255C76.0137 53.0019 75.8112 52.7757 75.5787 52.5781L74.2834 54.1019ZM74.798 55.1436C74.8193 55.2905 74.831 55.4538 74.831 55.635H76.831C76.831 55.3682 76.8138 55.1082 76.7773 54.8564L74.798 55.1436ZM74.831 55.635V56.13H76.831V55.635H74.831ZM74.831 57.12V57.615H76.831V57.12H74.831ZM74.831 57.615C74.831 57.7983 74.819 57.9645 74.7971 58.115L76.7761 58.4039C76.8134 58.1484 76.831 57.885 76.831 57.615H74.831ZM74.5143 58.9181C74.4437 59.0258 74.3603 59.1233 74.2621 59.2117L75.6 60.6983C75.8253 60.4955 76.0218 60.2669 76.1876 60.0136L74.5143 58.9181ZM74.2642 59.2098C74.1683 59.2956 74.0601 59.3713 73.9372 59.4366L74.8754 61.2029C75.1367 61.064 75.3784 60.8966 75.5978 60.7002L74.2642 59.2098ZM73.0646 59.6904C72.9061 59.7097 72.7335 59.72 72.546 59.72V61.72C72.8063 61.72 73.0599 61.7057 73.3058 61.6758L73.0646 59.6904ZM88.8283 78H88.3283V78.5H88.8283V78ZM88.8283 46.59V46.09H88.3283V46.59H88.8283ZM110.203 46.59H110.703V46.09H110.203V46.59ZM110.203 52.665V53.165H110.703V52.665H110.203ZM95.6683 52.665V52.165H95.1683V52.665H95.6683ZM95.6683 59.1H95.1683V59.6H95.6683V59.1ZM108.133 59.1H108.633V58.6H108.133V59.1ZM108.133 65.13V65.63H108.633V65.13H108.133ZM95.6683 65.13V64.63H95.1683V65.13H95.6683ZM95.6683 71.925H95.1683V72.425H95.6683V71.925ZM110.203 71.925H110.703V71.425H110.203V71.925ZM110.203 78V78.5H110.703V78H110.203ZM89.3283 78V77.0184H88.3283V78H89.3283ZM89.3283 75.0553V73.0922H88.3283V75.0553H89.3283ZM89.3283 71.1291V69.1659H88.3283V71.1291H89.3283ZM89.3283 67.2028V65.2397H88.3283V67.2028H89.3283ZM89.3283 63.2766V61.3134H88.3283V63.2766H89.3283ZM89.3283 59.3503V57.3872H88.3283V59.3503H89.3283ZM89.3283 55.4241V53.4609H88.3283V55.4241H89.3283ZM89.3283 51.4978V49.5347H88.3283V51.4978H89.3283ZM89.3283 47.5716V46.59H88.3283V47.5716H89.3283ZM88.8283 47.09H89.897V46.09H88.8283V47.09ZM92.0345 47.09H94.172V46.09H92.0345V47.09ZM96.3095 47.09H98.447V46.09H96.3095V47.09ZM100.585 47.09H102.722V46.09H100.585V47.09ZM104.86 47.09H106.997V46.09H104.86V47.09ZM109.135 47.09H110.203V46.09H109.135V47.09ZM109.703 46.59V47.3494H110.703V46.59H109.703ZM109.703 48.8681V50.3869H110.703V48.8681H109.703ZM109.703 51.9056V52.665H110.703V51.9056H109.703ZM110.203 52.165H109.295V53.165H110.203V52.165ZM107.478 52.165H105.661V53.165H107.478V52.165ZM103.844 52.165H102.027V53.165H103.844V52.165ZM100.21 52.165H98.3936V53.165H100.21V52.165ZM96.5767 52.165H95.6683V53.165H96.5767V52.165ZM95.1683 52.665V53.4694H96.1683V52.665H95.1683ZM95.1683 55.0781V56.6869H96.1683V55.0781H95.1683ZM95.1683 58.2956V59.1H96.1683V58.2956H95.1683ZM95.6683 59.6H96.707V58.6H95.6683V59.6ZM98.7845 59.6H100.862V58.6H98.7845V59.6ZM102.94 59.6H105.017V58.6H102.94V59.6ZM107.095 59.6H108.133V58.6H107.095V59.6ZM107.633 59.1V59.8537H108.633V59.1H107.633ZM107.633 61.3612V62.8687H108.633V61.3612H107.633ZM107.633 64.3762V65.13H108.633V64.3762H107.633ZM108.133 64.63H107.095V65.63H108.133V64.63ZM105.017 64.63H102.94V65.63H105.017V64.63ZM100.862 64.63H98.7845V65.63H100.862V64.63ZM96.707 64.63H95.6683V65.63H96.707V64.63ZM95.1683 65.13V65.9794H96.1683V65.13H95.1683ZM95.1683 67.6781V69.3769H96.1683V67.6781H95.1683ZM95.1683 71.0756V71.925H96.1683V71.0756H95.1683ZM95.6683 72.425H96.5767V71.425H95.6683V72.425ZM98.3936 72.425H100.21V71.425H98.3936V72.425ZM102.027 72.425H103.844V71.425H102.027V72.425ZM105.661 72.425H107.478V71.425H105.661V72.425ZM109.295 72.425H110.203V71.425H109.295V72.425ZM109.703 71.925V72.6844H110.703V71.925H109.703ZM109.703 74.2031V75.7219H110.703V74.2031H109.703ZM109.703 77.2406V78H110.703V77.2406H109.703ZM110.203 77.5H109.135V78.5H110.203V77.5ZM106.997 77.5H104.86V78.5H106.997V77.5ZM102.722 77.5H100.585V78.5H102.722V77.5ZM98.447 77.5H96.3095V78.5H98.447V77.5ZM94.172 77.5H92.0345V78.5H94.172V77.5ZM89.897 77.5H88.8283V78.5H89.897V77.5ZM88.8283 78H87.8283V79H88.8283V78ZM88.8283 46.59V45.59H87.8283V46.59H88.8283ZM110.203 46.59H111.203V45.59H110.203V46.59ZM110.203 52.665V53.665H111.203V52.665H110.203ZM95.6683 52.665V51.665H94.6683V52.665H95.6683ZM95.6683 59.1H94.6683V60.1H95.6683V59.1ZM108.133 59.1H109.133V58.1H108.133V59.1ZM108.133 65.13V66.13H109.133V65.13H108.133ZM95.6683 65.13V64.13H94.6683V65.13H95.6683ZM95.6683 71.925H94.6683V72.925H95.6683V71.925ZM110.203 71.925H111.203V70.925H110.203V71.925ZM110.203 78V79H111.203V78H110.203ZM89.8283 78V77.0184H87.8283V78H89.8283ZM89.8283 75.0553V73.0922H87.8283V75.0553H89.8283ZM89.8283 71.1291V69.1659H87.8283V71.1291H89.8283ZM89.8283 67.2028V65.2397H87.8283V67.2028H89.8283ZM89.8283 63.2766V61.3134H87.8283V63.2766H89.8283ZM89.8283 59.3503V57.3872H87.8283V59.3503H89.8283ZM89.8283 55.4241V53.4609H87.8283V55.4241H89.8283ZM89.8283 51.4978V49.5347H87.8283V51.4978H89.8283ZM89.8283 47.5716V46.59H87.8283V47.5716H89.8283ZM88.8283 47.59H89.897V45.59H88.8283V47.59ZM92.0345 47.59H94.172V45.59H92.0345V47.59ZM96.3095 47.59H98.447V45.59H96.3095V47.59ZM100.585 47.59H102.722V45.59H100.585V47.59ZM104.86 47.59H106.997V45.59H104.86V47.59ZM109.135 47.59H110.203V45.59H109.135V47.59ZM109.203 46.59V47.3494H111.203V46.59H109.203ZM109.203 48.8681V50.3869H111.203V48.8681H109.203ZM109.203 51.9056V52.665H111.203V51.9056H109.203ZM110.203 51.665H109.295V53.665H110.203V51.665ZM107.478 51.665H105.661V53.665H107.478V51.665ZM103.844 51.665H102.027V53.665H103.844V51.665ZM100.21 51.665H98.3936V53.665H100.21V51.665ZM96.5767 51.665H95.6683V53.665H96.5767V51.665ZM94.6683 52.665V53.4694H96.6683V52.665H94.6683ZM94.6683 55.0781V56.6869H96.6683V55.0781H94.6683ZM94.6683 58.2956V59.1H96.6683V58.2956H94.6683ZM95.6683 60.1H96.707V58.1H95.6683V60.1ZM98.7845 60.1H100.862V58.1H98.7845V60.1ZM102.94 60.1H105.017V58.1H102.94V60.1ZM107.095 60.1H108.133V58.1H107.095V60.1ZM107.133 59.1V59.8537H109.133V59.1H107.133ZM107.133 61.3612V62.8687H109.133V61.3612H107.133ZM107.133 64.3762V65.13H109.133V64.3762H107.133ZM108.133 64.13H107.095V66.13H108.133V64.13ZM105.017 64.13H102.94V66.13H105.017V64.13ZM100.862 64.13H98.7845V66.13H100.862V64.13ZM96.707 64.13H95.6683V66.13H96.707V64.13ZM94.6683 65.13V65.9794H96.6683V65.13H94.6683ZM94.6683 67.6781V69.3769H96.6683V67.6781H94.6683ZM94.6683 71.0756V71.925H96.6683V71.0756H94.6683ZM95.6683 72.925H96.5767V70.925H95.6683V72.925ZM98.3936 72.925H100.21V70.925H98.3936V72.925ZM102.027 72.925H103.844V70.925H102.027V72.925ZM105.661 72.925H107.478V70.925H105.661V72.925ZM109.295 72.925H110.203V70.925H109.295V72.925ZM109.203 71.925V72.6844H111.203V71.925H109.203ZM109.203 74.2031V75.7219H111.203V74.2031H109.203ZM109.203 77.2406V78H111.203V77.2406H109.203ZM110.203 77H109.135V79H110.203V77ZM106.997 77H104.86V79H106.997V77ZM102.722 77H100.585V79H102.722V77ZM98.447 77H96.3095V79H98.447V77ZM94.172 77H92.0345V79H94.172V77ZM89.897 77H88.8283V79H89.897V77Z" fill="#DADADA"></path> </svg> 