<?xml version="1.0" encoding="UTF-8"?> <svg xmlns="http://www.w3.org/2000/svg" width="167" height="35" viewBox="0 0 167 35" fill="none"> <path d="M1.465 33H0.965V33.5H1.465V33ZM1.465 1.59V1.09H0.965V1.59H1.465ZM22.3 1.59H22.8V1.09H22.3V1.59ZM22.3 7.665V8.165H22.8V7.665H22.3ZM8.305 7.665V7.165H7.805V7.665H8.305ZM8.305 14.1H7.805V14.6H8.305V14.1ZM20.23 14.1H20.73V13.6H20.23V14.1ZM20.23 20.13V20.63H20.73V20.13H20.23ZM8.305 20.13V19.63H7.805V20.13H8.305ZM8.305 33V33.5H8.805V33H8.305ZM1.965 33V32.0184H0.965V33H1.965ZM1.965 30.0553V28.0922H0.965V30.0553H1.965ZM1.965 26.1291V24.1659H0.965V26.1291H1.965ZM1.965 22.2028V20.2397H0.965V22.2028H1.965ZM1.965 18.2766V16.3134H0.965V18.2766H1.965ZM1.965 14.3503V12.3872H0.965V14.3503H1.965ZM1.965 10.4241V8.46094H0.965V10.4241H1.965ZM1.965 6.49781V4.53469H0.965V6.49781H1.965ZM1.965 2.57156V1.59H0.965V2.57156H1.965ZM1.465 2.09H2.50675V1.09H1.465V2.09ZM4.59025 2.09H6.67375V1.09H4.59025V2.09ZM8.75725 2.09H10.8408V1.09H8.75725V2.09ZM12.9243 2.09H15.0078V1.09H12.9243V2.09ZM17.0913 2.09H19.1748V1.09H17.0913V2.09ZM21.2583 2.09H22.3V1.09H21.2583V2.09ZM21.8 1.59V2.34937H22.8V1.59H21.8ZM21.8 3.86812V5.38687H22.8V3.86812H21.8ZM21.8 6.90562V7.665H22.8V6.90562H21.8ZM22.3 7.165H21.1338V8.165H22.3V7.165ZM18.8013 7.165H16.4688V8.165H18.8013V7.165ZM14.1363 7.165H11.8038V8.165H14.1363V7.165ZM9.47125 7.165H8.305V8.165H9.47125V7.165ZM7.805 7.665V8.46937H8.805V7.665H7.805ZM7.805 10.0781V11.6869H8.805V10.0781H7.805ZM7.805 13.2956V14.1H8.805V13.2956H7.805ZM8.305 14.6H9.29875V13.6H8.305V14.6ZM11.2863 14.6H13.2738V13.6H11.2863V14.6ZM15.2613 14.6H17.2488V13.6H15.2613V14.6ZM19.2363 14.6H20.23V13.6H19.2363V14.6ZM19.73 14.1V14.8537H20.73V14.1H19.73ZM19.73 16.3612V17.8687H20.73V16.3612H19.73ZM19.73 19.3762V20.13H20.73V19.3762H19.73ZM20.23 19.63H19.2363V20.63H20.23V19.63ZM17.2488 19.63H15.2613V20.63H17.2488V19.63ZM13.2738 19.63H11.2863V20.63H13.2738V19.63ZM9.29875 19.63H8.305V20.63H9.29875V19.63ZM7.805 20.13V21.2025H8.805V20.13H7.805ZM7.805 23.3475V25.4925H8.805V23.3475H7.805ZM7.805 27.6375V29.7825H8.805V27.6375H7.805ZM7.805 31.9275V33H8.805V31.9275H7.805ZM8.305 32.5H7.45V33.5H8.305V32.5ZM5.74 32.5H4.03V33.5H5.74V32.5ZM2.32 32.5H1.465V33.5H2.32V32.5ZM1.465 33H0.465V34H1.465V33ZM1.465 1.59V0.589999H0.465V1.59H1.465ZM22.3 1.59H23.3V0.589999H22.3V1.59ZM22.3 7.665V8.665H23.3V7.665H22.3ZM8.305 7.665V6.665H7.305V7.665H8.305ZM8.305 14.1H7.305V15.1H8.305V14.1ZM20.23 14.1H21.23V13.1H20.23V14.1ZM20.23 20.13V21.13H21.23V20.13H20.23ZM8.305 20.13V19.13H7.305V20.13H8.305ZM8.305 33V34H9.305V33H8.305ZM2.465 33V32.0184H0.465V33H2.465ZM2.465 30.0553V28.0922H0.465V30.0553H2.465ZM2.465 26.1291V24.1659H0.465V26.1291H2.465ZM2.465 22.2028V20.2397H0.465V22.2028H2.465ZM2.465 18.2766V16.3134H0.465V18.2766H2.465ZM2.465 14.3503V12.3872H0.465V14.3503H2.465ZM2.465 10.4241V8.46094H0.465V10.4241H2.465ZM2.465 6.49781V4.53469H0.465V6.49781H2.465ZM2.465 2.57156V1.59H0.465V2.57156H2.465ZM1.465 2.59H2.50675V0.589999H1.465V2.59ZM4.59025 2.59H6.67375V0.589999H4.59025V2.59ZM8.75725 2.59H10.8408V0.589999H8.75725V2.59ZM12.9243 2.59H15.0078V0.589999H12.9243V2.59ZM17.0913 2.59H19.1748V0.589999H17.0913V2.59ZM21.2583 2.59H22.3V0.589999H21.2583V2.59ZM21.3 1.59V2.34937H23.3V1.59H21.3ZM21.3 3.86812V5.38687H23.3V3.86812H21.3ZM21.3 6.90562V7.665H23.3V6.90562H21.3ZM22.3 6.665H21.1338V8.665H22.3V6.665ZM18.8013 6.665H16.4688V8.665H18.8013V6.665ZM14.1363 6.665H11.8038V8.665H14.1363V6.665ZM9.47125 6.665H8.305V8.665H9.47125V6.665ZM7.305 7.665V8.46937H9.305V7.665H7.305ZM7.305 10.0781V11.6869H9.305V10.0781H7.305ZM7.305 13.2956V14.1H9.305V13.2956H7.305ZM8.305 15.1H9.29875V13.1H8.305V15.1ZM11.2863 15.1H13.2738V13.1H11.2863V15.1ZM15.2613 15.1H17.2488V13.1H15.2613V15.1ZM19.2363 15.1H20.23V13.1H19.2363V15.1ZM19.23 14.1V14.8537H21.23V14.1H19.23ZM19.23 16.3612V17.8687H21.23V16.3612H19.23ZM19.23 19.3762V20.13H21.23V19.3762H19.23ZM20.23 19.13H19.2363V21.13H20.23V19.13ZM17.2488 19.13H15.2613V21.13H17.2488V19.13ZM13.2738 19.13H11.2863V21.13H13.2738V19.13ZM9.29875 19.13H8.305V21.13H9.29875V19.13ZM7.305 20.13V21.2025H9.305V20.13H7.305ZM7.305 23.3475V25.4925H9.305V23.3475H7.305ZM7.305 27.6375V29.7825H9.305V27.6375H7.305ZM7.305 31.9275V33H9.305V31.9275H7.305ZM8.305 32H7.45V34H8.305V32ZM5.74 32H4.03V34H5.74V32ZM2.32 32H1.465V34H2.32V32ZM33.3559 32.505L33.1688 32.9687L33.1688 32.9687L33.3559 32.505ZM28.9909 29.445L28.6136 29.7731L28.6172 29.7772L28.9909 29.445ZM26.2009 24.36L25.7252 24.5139L25.7259 24.516L26.2009 24.36ZM26.2009 10.275L26.676 10.431L26.6767 10.4289L26.2009 10.275ZM28.9909 5.19L29.3647 5.5222L29.3682 5.51809L28.9909 5.19ZM33.3559 2.085L33.1688 1.62132L33.1688 1.62132L33.3559 2.085ZM44.6959 2.085L44.5088 2.54867L44.5088 2.54867L44.6959 2.085ZM49.0609 5.19L48.6836 5.51811L48.6872 5.52218L49.0609 5.19ZM51.8509 10.275L51.3752 10.4289L51.3759 10.431L51.8509 10.275ZM51.8509 24.36L52.326 24.516L52.3267 24.5139L51.8509 24.36ZM49.0609 29.445L49.4347 29.7772L49.4382 29.7731L49.0609 29.445ZM44.6959 32.505L44.5088 32.0413L44.5088 32.0413L44.6959 32.505ZM43.8409 25.44L43.4631 25.1125L43.4589 25.1174L43.8409 25.44ZM43.8409 9.15L43.4589 9.47262L43.4631 9.47746L43.8409 9.15ZM34.1659 9.15L33.7881 8.82251L33.7839 8.82741L34.1659 9.15ZM34.1659 25.44L33.7839 25.7626L33.7881 25.7675L34.1659 25.44ZM39.0259 33.04C38.5462 33.04 38.0772 33.021 37.6188 32.983L37.5363 33.9796C38.0231 34.0199 38.5197 34.04 39.0259 34.04V33.04ZM34.8634 32.4924C34.4111 32.3644 33.971 32.214 33.543 32.0413L33.1688 32.9687C33.6307 33.155 34.1048 33.317 34.5911 33.4546L34.8634 32.4924ZM33.543 32.0413C33.1384 31.8781 32.7493 31.6958 32.3756 31.4947L31.9017 32.3753C32.3086 32.5942 32.731 32.792 33.1688 32.9687L33.543 32.0413ZM30.2729 30.0237C29.9552 29.7401 29.6524 29.4366 29.3646 29.1128L28.6172 29.7772C28.9302 30.1293 29.2602 30.4602 29.6071 30.7698L30.2729 30.0237ZM29.3682 29.1169C29.0654 28.7686 28.7801 28.399 28.5123 28.0077L27.687 28.5725C27.976 28.9948 28.2849 29.395 28.6136 29.7731L29.3682 29.1169ZM27.1724 25.5324C26.9928 25.1074 26.8272 24.6647 26.676 24.204L25.7259 24.516C25.8854 25.0016 26.0605 25.4703 26.2514 25.9218L27.1724 25.5324ZM26.6767 24.2061C26.5887 23.9342 26.5067 23.6562 26.4306 23.3722L25.4646 23.6308C25.545 23.9309 25.6318 24.2253 25.7252 24.5139L26.6767 24.2061ZM26.0586 21.6675C25.9623 21.1088 25.8859 20.5299 25.8295 19.9307L24.8339 20.0244C24.8926 20.6477 24.9723 21.252 25.0732 21.8374L26.0586 21.6675ZM25.7234 18.1761C25.7151 17.8866 25.7109 17.5929 25.7109 17.295H24.7109C24.7109 17.6022 24.7152 17.9055 24.7239 18.2048L25.7234 18.1761ZM25.7109 17.295C25.7109 16.9988 25.7151 16.7069 25.7233 16.4193L24.7237 16.3907C24.7152 16.6881 24.7109 16.9895 24.7109 17.295H25.7109ZM25.8285 14.6758C25.8846 14.0794 25.9607 13.5043 26.0566 12.9503L25.0713 12.7797C24.9707 13.3607 24.8913 13.9615 24.8329 14.5821L25.8285 14.6758ZM26.4288 11.258C26.5052 10.9758 26.5876 10.7002 26.676 10.431L25.7259 10.119C25.6318 10.4054 25.5444 10.698 25.4636 10.9967L26.4288 11.258ZM26.6767 10.4289C26.8264 9.96602 26.9901 9.52241 27.1676 9.09793L26.245 8.71213C26.0563 9.16349 25.8831 9.63319 25.7252 10.1211L26.6767 10.4289ZM28.5032 6.62304C28.7726 6.23197 29.0598 5.8651 29.3646 5.52218L28.6172 4.85782C28.2843 5.2324 27.9718 5.63177 27.6797 6.05566L28.5032 6.62304ZM29.3682 5.51809C29.6546 5.18881 29.9557 4.88048 30.2715 4.59293L29.5983 3.85349C29.2532 4.16768 28.925 4.50387 28.6136 4.86191L29.3682 5.51809ZM32.3722 3.09988C32.7469 2.8962 33.1372 2.71244 33.543 2.54867L33.1688 1.62132C32.7285 1.79902 32.3037 1.99896 31.8947 2.22124L32.3722 3.09988ZM33.543 2.54867C33.971 2.37598 34.4111 2.22559 34.8634 2.09758L34.5911 1.13538C34.1048 1.27301 33.6307 1.43497 33.1688 1.62132L33.543 2.54867ZM37.6188 1.607C38.0772 1.56904 38.5462 1.55 39.0259 1.55V0.549998C38.5197 0.549998 38.0231 0.570093 37.5363 0.610413L37.6188 1.607ZM39.0259 1.55C39.5057 1.55 39.9747 1.56904 40.4331 1.607L40.5156 0.610413C40.0287 0.570093 39.5322 0.549998 39.0259 0.549998V1.55ZM43.1885 2.09758C43.6408 2.22559 44.0809 2.37598 44.5088 2.54867L44.883 1.62132C44.4212 1.43497 43.9471 1.27301 43.4608 1.13538L43.1885 2.09758ZM44.5088 2.54867C44.9147 2.71244 45.3049 2.8962 45.6797 3.09988L46.1572 2.22124C45.7482 1.99896 45.3234 1.79902 44.883 1.62132L44.5088 2.54867ZM47.7804 4.59293C48.0962 4.88048 48.3973 5.18881 48.6836 5.51809L49.4382 4.86191C49.1269 4.50387 48.7987 4.16768 48.4536 3.85349L47.7804 4.59293ZM48.6872 5.52218C48.9921 5.8651 49.2792 6.23197 49.5487 6.62304L50.3721 6.05566C50.0801 5.63177 49.7676 5.2324 49.4346 4.85782L48.6872 5.52218ZM50.8842 9.09793C51.0618 9.52241 51.2255 9.96602 51.3752 10.4289L52.3267 10.1211C52.1688 9.63319 51.9956 9.16349 51.8068 8.71213L50.8842 9.09793ZM51.3759 10.431C51.4643 10.7002 51.5467 10.9758 51.6231 11.258L52.5883 10.9967C52.5075 10.698 52.42 10.4054 52.326 10.119L51.3759 10.431ZM51.9953 12.9503C52.0912 13.5043 52.1673 14.0794 52.2234 14.6758L53.219 14.5821C53.1606 13.9615 53.0812 13.3607 52.9806 12.7797L51.9953 12.9503ZM52.3286 16.4193C52.3368 16.7069 52.3409 16.9988 52.3409 17.295H53.3409C53.3409 16.9895 53.3367 16.6881 53.3282 16.3907L52.3286 16.4193ZM52.3409 17.295C52.3409 17.5929 52.3368 17.8866 52.3284 18.1761L53.328 18.2048C53.3366 17.9055 53.3409 17.6022 53.3409 17.295H52.3409ZM52.2224 19.9307C52.166 20.5299 52.0895 21.1088 51.9932 21.6675L52.9787 21.8374C53.0796 21.252 53.1593 20.6477 53.218 20.0244L52.2224 19.9307ZM51.6213 23.3722C51.5452 23.6562 51.4632 23.9342 51.3752 24.2061L52.3267 24.5139C52.42 24.2253 52.5069 23.9309 52.5872 23.6308L51.6213 23.3722ZM51.3759 24.204C51.2246 24.6647 51.0591 25.1074 50.8794 25.5324L51.8005 25.9218C51.9914 25.4703 52.1665 25.0016 52.326 24.516L51.3759 24.204ZM49.5396 28.0077C49.2718 28.399 48.9865 28.7686 48.6836 29.1169L49.4382 29.7731C49.767 29.395 50.0758 28.9948 50.3648 28.5725L49.5396 28.0077ZM48.6872 29.1128C48.3995 29.4366 48.0967 29.7401 47.779 30.0237L48.4448 30.7698C48.7917 30.4602 49.1217 30.1293 49.4346 29.7772L48.6872 29.1128ZM45.6763 31.4947C45.3026 31.6958 44.9135 31.8781 44.5088 32.0413L44.883 32.9687C45.3209 32.792 45.7433 32.5942 46.1502 32.3753L45.6763 31.4947ZM44.5088 32.0413C44.0809 32.214 43.6408 32.3644 43.1885 32.4924L43.4608 33.4546C43.9471 33.317 44.4212 33.155 44.883 32.9687L44.5088 32.0413ZM40.4331 32.983C39.9747 33.021 39.5057 33.04 39.0259 33.04V34.04C39.5322 34.04 40.0287 34.0199 40.5156 33.9796L40.4331 32.983ZM39.0259 26.965C38.5755 26.965 38.1516 26.9313 37.7533 26.865L37.5891 27.8515C38.0466 27.9275 38.5257 27.965 39.0259 27.965V26.965ZM35.4582 25.9477C35.1273 25.712 34.8225 25.4341 34.5438 25.1125L33.7881 25.7675C34.1169 26.1468 34.4802 26.4789 34.8782 26.7622L35.4582 25.9477ZM34.548 25.1174C34.3978 24.9396 34.258 24.7501 34.1287 24.5488L33.2873 25.0892C33.4396 25.3263 33.6051 25.5508 33.7839 25.7626L34.548 25.1174ZM33.5032 23.2646C33.3481 22.8332 33.2249 22.3636 33.135 21.8545L32.1503 22.0284C32.249 22.5876 32.3859 23.1129 32.5623 23.6031L33.5032 23.2646ZM32.9741 20.3824C32.962 20.1401 32.9559 19.891 32.9559 19.635H31.9559C31.9559 19.9067 31.9624 20.1724 31.9753 20.4321L32.9741 20.3824ZM32.9559 19.635V18.465H31.9559V19.635H32.9559ZM32.9559 16.125V14.955H31.9559V16.125H32.9559ZM32.9559 14.955C32.9559 14.699 32.962 14.4499 32.9741 14.2076L31.9753 14.1579C31.9624 14.4176 31.9559 14.6833 31.9559 14.955H32.9559ZM33.135 12.7355C33.2249 12.2264 33.3481 11.7568 33.5032 11.3254L32.5623 10.9869C32.3859 11.4771 32.249 12.0024 32.1503 12.5616L33.135 12.7355ZM34.1287 10.0412C34.258 9.83989 34.3978 9.65044 34.548 9.47259L33.7839 8.82741C33.6051 9.03918 33.4396 9.26371 33.2873 9.50077L34.1287 10.0412ZM34.5438 9.47746C34.8225 9.15588 35.1273 8.87796 35.4582 8.64233L34.8782 7.82775C34.4802 8.1111 34.1169 8.44316 33.7881 8.82253L34.5438 9.47746ZM37.7533 7.72498C38.1516 7.65872 38.5755 7.625 39.0259 7.625V6.625C38.5257 6.625 38.0466 6.66245 37.5891 6.73854L37.7533 7.72498ZM39.0259 7.625C39.4739 7.625 39.8949 7.65836 40.2896 7.72387L40.4533 6.73736C39.9995 6.66204 39.5234 6.625 39.0259 6.625V7.625ZM42.5619 8.63721C42.8881 8.87269 43.1871 9.15066 43.4589 9.47259L44.223 8.82741C43.9004 8.44547 43.5419 8.11132 43.1472 7.82643L42.5619 8.63721ZM43.4631 9.47746C43.6164 9.65432 43.759 9.84256 43.891 10.0424L44.7254 9.49137C44.5699 9.25588 44.4011 9.03287 44.2188 8.82253L43.4631 9.47746ZM44.5322 11.3221C44.6919 11.7532 44.8187 12.2227 44.9112 12.7317L45.8951 12.5528C45.7932 11.9923 45.6519 11.4659 45.4699 10.9747L44.5322 11.3221ZM45.0772 14.206C45.0897 14.4488 45.0959 14.6985 45.0959 14.955H46.0959C46.0959 14.6822 46.0893 14.4155 46.0759 14.1548L45.0772 14.206ZM45.0959 14.955V16.125H46.0959V14.955H45.0959ZM45.0959 18.465V19.635H46.0959V18.465H45.0959ZM45.0959 19.635C45.0959 19.8915 45.0897 20.1412 45.0772 20.384L46.0759 20.4352C46.0893 20.1745 46.0959 19.9078 46.0959 19.635H45.0959ZM44.9112 21.8583C44.8187 22.3673 44.6919 22.8368 44.5322 23.2679L45.4699 23.6153C45.6519 23.1241 45.7932 22.5977 45.8951 22.0372L44.9112 21.8583ZM43.891 24.5476C43.759 24.7474 43.6164 24.9357 43.4631 25.1125L44.2188 25.7675C44.4011 25.5571 44.5699 25.3341 44.7254 25.0986L43.891 24.5476ZM43.4589 25.1174C43.1871 25.4393 42.8881 25.7173 42.5619 25.9528L43.1472 26.7636C43.5419 26.4787 43.9004 26.1445 44.223 25.7626L43.4589 25.1174ZM40.2896 26.8661C39.8949 26.9316 39.4739 26.965 39.0259 26.965V27.965C39.5234 27.965 39.9995 27.928 40.4533 27.8526L40.2896 26.8661ZM33.3559 32.505L32.9817 33.4324L32.9817 33.4324L33.3559 32.505ZM28.9909 29.445L28.2363 30.1012L28.2435 30.1094L28.9909 29.445ZM26.2009 24.36L25.2495 24.6678L25.2508 24.672L26.2009 24.36ZM26.2009 10.275L27.151 10.587L27.1524 10.5828L26.2009 10.275ZM28.9909 5.19L29.7384 5.8544L29.7455 5.84618L28.9909 5.19ZM33.3559 2.085L32.9817 1.15765L32.9817 1.15765L33.3559 2.085ZM44.6959 2.085L44.3217 3.01235L44.3217 3.01235L44.6959 2.085ZM49.0609 5.19L48.3063 5.84622L48.3135 5.85436L49.0609 5.19ZM51.8509 10.275L50.8995 10.5828L50.9008 10.587L51.8509 10.275ZM51.8509 24.36L52.801 24.672L52.8024 24.6678L51.8509 24.36ZM49.0609 29.445L49.8084 30.1094L49.8155 30.1012L49.0609 29.445ZM44.6959 32.505L44.3217 31.5776L44.3217 31.5776L44.6959 32.505ZM43.8409 25.44L43.0852 24.785L43.0769 24.7948L43.8409 25.44ZM43.8409 9.15L43.0768 9.79523L43.0852 9.80493L43.8409 9.15ZM34.1659 9.15L33.4102 8.49501L33.4019 8.50482L34.1659 9.15ZM34.1659 25.44L33.4018 26.0852L33.4102 26.0949L34.1659 25.44ZM39.0259 32.54C38.5594 32.54 38.1042 32.5215 37.6601 32.4847L37.495 34.4779C37.9961 34.5194 38.5065 34.54 39.0259 34.54V32.54ZM34.9996 32.0113C34.5643 31.8881 34.1412 31.7435 33.7301 31.5776L32.9817 33.4324C33.4605 33.6255 33.9516 33.7933 34.4549 33.9357L34.9996 32.0113ZM33.7301 31.5776C33.3421 31.4211 32.9697 31.2466 32.6125 31.0544L31.6648 32.8156C32.0882 33.0435 32.5273 33.249 32.9817 33.4324L33.7301 31.5776ZM30.6058 29.6506C30.3027 29.3801 30.0135 29.0902 29.7383 28.7806L28.2435 30.1094C28.5691 30.4756 28.9127 30.8202 29.2742 31.1428L30.6058 29.6506ZM29.7455 28.7888C29.4556 28.4554 29.1821 28.101 28.9249 27.7253L27.2744 28.8548C27.574 29.2927 27.8946 29.7082 28.2363 30.1012L29.7455 28.7888ZM27.633 25.3377C27.4589 24.926 27.2982 24.4962 27.151 24.048L25.2508 24.672C25.4144 25.1701 25.5943 25.6517 25.7909 26.1165L27.633 25.3377ZM27.1524 24.0522C27.0671 23.7886 26.9875 23.5189 26.9136 23.2428L24.9816 23.7601C25.0642 24.0683 25.1534 24.3709 25.2495 24.6678L27.1524 24.0522ZM26.5514 21.5826C26.4574 21.0372 26.3826 20.471 26.3273 19.8839L24.3361 20.0712C24.3959 20.7065 24.4772 21.3236 24.5804 21.9223L26.5514 21.5826ZM26.2232 18.1617C26.215 17.8771 26.2109 17.5882 26.2109 17.295H24.2109C24.2109 17.6069 24.2153 17.9149 24.2241 18.2192L26.2232 18.1617ZM26.2109 17.295C26.2109 17.0034 26.215 16.7163 26.2231 16.4337L24.2239 16.3764C24.2153 16.6787 24.2109 16.9849 24.2109 17.295H26.2109ZM26.3263 14.7226C26.3812 14.1383 26.4557 13.5761 26.5493 13.0356L24.5786 12.6944C24.4757 13.2889 24.3946 13.9026 24.3351 14.5353L26.3263 14.7226ZM26.9114 11.3886C26.9856 11.1148 27.0655 10.8476 27.151 10.587L25.2508 9.96303C25.154 10.2581 25.064 10.5591 24.9809 10.8661L26.9114 11.3886ZM27.1524 10.5828C27.2981 10.1324 27.457 9.70187 27.6289 9.29083L25.7838 8.51922C25.5894 8.98403 25.4114 9.46678 25.2495 9.96718L27.1524 10.5828ZM28.9149 6.90672C29.1731 6.53206 29.4476 6.18145 29.7383 5.85436L28.2435 4.52563C27.8965 4.91606 27.5714 5.33168 27.268 5.77198L28.9149 6.90672ZM29.7455 5.84618C30.0194 5.53127 30.3069 5.23688 30.6081 4.96265L29.2617 3.48377C28.9019 3.81128 28.5602 4.16141 28.2363 4.53382L29.7455 5.84618ZM32.6109 3.53919C32.9686 3.34482 33.3415 3.16915 33.7301 3.01235L32.9817 1.15765C32.5241 1.34231 32.0821 1.55034 31.6559 1.78193L32.6109 3.53919ZM33.7301 3.01235C34.1412 2.84648 34.5643 2.70189 34.9996 2.57869L34.4549 0.654276C33.9516 0.796712 33.4605 0.964461 32.9817 1.15765L33.7301 3.01235ZM37.6601 2.10529C38.1042 2.06852 38.5594 2.05 39.0259 2.05V0.0499983C38.5065 0.0499983 37.9961 0.0706184 37.495 0.112119L37.6601 2.10529ZM39.0259 2.05C39.4925 2.05 39.9477 2.06852 40.3918 2.10529L40.5569 0.112119C40.0558 0.0706184 39.5454 0.0499983 39.0259 0.0499983V2.05ZM43.0523 2.57869C43.4876 2.70189 43.9107 2.84648 44.3217 3.01235L45.0701 1.15765C44.5914 0.964461 44.1002 0.796712 43.597 0.654276L43.0523 2.57869ZM44.3217 3.01235C44.7103 3.16915 45.0833 3.34482 45.441 3.53919L46.3959 1.78193C45.9698 1.55034 45.5278 1.34231 45.0701 1.15765L44.3217 3.01235ZM47.4438 4.96265C47.745 5.23688 48.0325 5.53127 48.3063 5.84618L49.8155 4.53382C49.4917 4.16141 49.1499 3.81128 48.7902 3.48377L47.4438 4.96265ZM48.3135 5.85436C48.6043 6.18145 48.8788 6.53206 49.137 6.90672L50.7839 5.77198C50.4805 5.33168 50.1554 4.91606 49.8083 4.52564L48.3135 5.85436ZM50.423 9.29083C50.5948 9.70187 50.7538 10.1324 50.8995 10.5828L52.8024 9.96718C52.6405 9.46678 52.4625 8.98403 52.2681 8.51922L50.423 9.29083ZM50.9008 10.587C50.9864 10.8476 51.0663 11.1148 51.1404 11.3886L53.071 10.8661C52.9879 10.5591 52.8979 10.2581 52.801 9.96303L50.9008 10.587ZM51.5026 13.0356C51.5962 13.5761 51.6706 14.1383 51.7256 14.7226L53.7168 14.5353C53.6573 13.9026 53.5762 13.2889 53.4733 12.6944L51.5026 13.0356ZM51.8288 16.4337C51.8369 16.7163 51.8409 17.0034 51.8409 17.295H53.8409C53.8409 16.9849 53.8366 16.6787 53.828 16.3764L51.8288 16.4337ZM51.8409 17.295C51.8409 17.5882 51.8368 17.8771 51.8286 18.1617L53.8278 18.2192C53.8366 17.9149 53.8409 17.6069 53.8409 17.295H51.8409ZM51.7246 19.8839C51.6693 20.471 51.5945 21.0372 51.5005 21.5826L53.4714 21.9223C53.5746 21.3236 53.656 20.7065 53.7158 20.0712L51.7246 19.8839ZM51.1383 23.2428C51.0644 23.5189 50.9848 23.7886 50.8995 24.0522L52.8024 24.6678C52.8984 24.3709 52.9877 24.0683 53.0702 23.7601L51.1383 23.2428ZM50.9008 24.048C50.7537 24.4962 50.593 24.926 50.4189 25.3377L52.261 26.1165C52.4575 25.6517 52.6375 25.1701 52.801 24.672L50.9008 24.048ZM49.127 27.7253C48.8698 28.101 48.5962 28.4554 48.3063 28.7888L49.8155 30.1012C50.1572 29.7082 50.4778 29.2927 50.7775 28.8548L49.127 27.7253ZM48.3135 28.7806C48.0384 29.0902 47.7492 29.3801 47.4461 29.6506L48.7777 31.1428C49.1392 30.8202 49.4828 30.4756 49.8083 30.1094L48.3135 28.7806ZM45.4394 31.0544C45.0822 31.2466 44.7098 31.4211 44.3217 31.5776L45.0701 33.4324C45.5246 33.249 45.9637 33.0435 46.3871 32.8156L45.4394 31.0544ZM44.3217 31.5776C43.9107 31.7435 43.4876 31.8881 43.0523 32.0113L43.597 33.9357C44.1002 33.7933 44.5914 33.6255 45.0701 33.4324L44.3217 31.5776ZM40.3918 32.4847C39.9477 32.5215 39.4925 32.54 39.0259 32.54V34.54C39.5454 34.54 40.0558 34.5194 40.5569 34.4779L40.3918 32.4847ZM39.0259 26.465C38.6004 26.465 38.204 26.4331 37.8353 26.3718L37.5071 28.3447C37.9941 28.4257 38.5008 28.465 39.0259 28.465V26.465ZM35.7482 25.5404C35.4508 25.3286 35.1753 25.0778 34.9216 24.7851L33.4102 26.0949C33.7641 26.5032 34.1567 26.8623 34.5881 27.1695L35.7482 25.5404ZM34.93 24.7948C34.7941 24.6339 34.6672 24.462 34.5494 24.2786L32.8666 25.3594C33.0304 25.6144 33.2088 25.8565 33.4019 26.0852L34.93 24.7948ZM33.9737 23.0953C33.8291 22.6934 33.7129 22.2516 33.6274 21.7676L31.6579 22.1154C31.761 22.6996 31.9049 23.2527 32.0918 23.7723L33.9737 23.0953ZM33.4734 20.3575C33.4618 20.1239 33.4559 19.8831 33.4559 19.635H31.4559C31.4559 19.9146 31.4626 20.1886 31.4759 20.457L33.4734 20.3575ZM33.4559 19.635V18.465H31.4559V19.635H33.4559ZM33.4559 16.125V14.955H31.4559V16.125H33.4559ZM33.4559 14.955C33.4559 14.7069 33.4618 14.4661 33.4734 14.2324L31.4759 14.133C31.4626 14.4014 31.4559 14.6754 31.4559 14.955H33.4559ZM33.6274 12.8224C33.7129 12.3384 33.8291 11.8966 33.9737 11.4947L32.0918 10.8177C31.9049 11.3373 31.761 11.8904 31.6579 12.4746L33.6274 12.8224ZM34.5494 10.3114C34.6672 10.128 34.7941 9.95607 34.93 9.79518L33.4019 8.50482C33.2088 8.73354 33.0304 8.97562 32.8666 9.23057L34.5494 10.3114ZM34.9216 9.80493C35.1753 9.51224 35.4508 9.26139 35.7482 9.04962L34.5881 7.42046C34.1567 7.72767 33.7641 8.08679 33.4102 8.49507L34.9216 9.80493ZM37.8353 8.21821C38.204 8.15686 38.6004 8.125 39.0259 8.125V6.125C38.5008 6.125 37.9941 6.16431 37.5071 6.24532L37.8353 8.21821ZM39.0259 8.125C39.4492 8.125 39.8426 8.15652 40.2077 8.21712L40.5352 6.24411C40.0518 6.16388 39.5482 6.125 39.0259 6.125V8.125ZM42.2692 9.0426C42.5612 9.25337 42.8304 9.50326 43.0769 9.79518L44.605 8.50482C44.2571 8.09287 43.8688 7.73064 43.4399 7.42104L42.2692 9.0426ZM43.0852 9.80493C43.224 9.96505 43.3535 10.1359 43.4737 10.3179L45.1427 9.21585C44.9754 8.96254 44.7934 8.72214 44.5966 8.49507L43.0852 9.80493ZM44.0633 11.4958C44.2119 11.8969 44.3314 12.3379 44.4193 12.8212L46.387 12.4633C46.2804 11.8771 46.1319 11.3223 45.9388 10.8011L44.0633 11.4958ZM44.5779 14.2316C44.5899 14.4655 44.5959 14.7066 44.5959 14.955H46.5959C46.5959 14.6741 46.5891 14.3988 46.5753 14.1292L44.5779 14.2316ZM44.5959 14.955V16.125H46.5959V14.955H44.5959ZM44.5959 18.465V19.635H46.5959V18.465H44.5959ZM44.5959 19.635C44.5959 19.8834 44.5899 20.1245 44.5779 20.3584L46.5753 20.4608C46.5891 20.1911 46.5959 19.9159 46.5959 19.635H44.5959ZM44.4193 21.7688C44.3314 22.2521 44.2119 22.6931 44.0633 23.0942L45.9388 23.7889C46.1319 23.2677 46.2804 22.7129 46.387 22.1267L44.4193 21.7688ZM43.4737 24.2721C43.3535 24.4541 43.224 24.6249 43.0852 24.7851L44.5966 26.0949C44.7934 25.8679 44.9754 25.6275 45.1427 25.3741L43.4737 24.2721ZM43.0769 24.7948C42.8304 25.0867 42.5612 25.3366 42.2692 25.5474L43.4399 27.169C43.8688 26.8594 44.2571 26.4971 44.605 26.0852L43.0769 24.7948ZM40.2077 26.3729C39.8426 26.4335 39.4492 26.465 39.0259 26.465V28.465C39.5482 28.465 40.0518 28.4261 40.5352 28.3459L40.2077 26.3729ZM58.55 33H58.05V33.5H58.55V33ZM58.55 1.59V1.09H58.05V1.59H58.55ZM65.39 1.59H65.89V1.09H65.39V1.59ZM65.39 26.925H64.89V27.425H65.39V26.925ZM77.36 26.925H77.86V26.425H77.36V26.925ZM77.36 33V33.5H77.86V33H77.36ZM59.05 33V32.0184H58.05V33H59.05ZM59.05 30.0553V28.0922H58.05V30.0553H59.05ZM59.05 26.1291V24.1659H58.05V26.1291H59.05ZM59.05 22.2028V20.2397H58.05V22.2028H59.05ZM59.05 18.2766V16.3134H58.05V18.2766H59.05ZM59.05 14.3503V12.3872H58.05V14.3503H59.05ZM59.05 10.4241V8.46094H58.05V10.4241H59.05ZM59.05 6.49781V4.53469H58.05V6.49781H59.05ZM59.05 2.57156V1.59H58.05V2.57156H59.05ZM58.55 2.09H59.405V1.09H58.55V2.09ZM61.115 2.09H62.825V1.09H61.115V2.09ZM64.535 2.09H65.39V1.09H64.535V2.09ZM64.89 1.59V2.64562H65.89V1.59H64.89ZM64.89 4.75687V6.86813H65.89V4.75687H64.89ZM64.89 8.97937V11.0906H65.89V8.97937H64.89ZM64.89 13.2019V15.3131H65.89V13.2019H64.89ZM64.89 17.4244V19.5356H65.89V17.4244H64.89ZM64.89 21.6469V23.7581H65.89V21.6469H64.89ZM64.89 25.8694V26.925H65.89V25.8694H64.89ZM65.39 27.425H66.3875V26.425H65.39V27.425ZM68.3825 27.425H70.3775V26.425H68.3825V27.425ZM72.3725 27.425H74.3675V26.425H72.3725V27.425ZM76.3625 27.425H77.36V26.425H76.3625V27.425ZM76.86 26.925V27.6844H77.86V26.925H76.86ZM76.86 29.2031V30.7219H77.86V29.2031H76.86ZM76.86 32.2406V33H77.86V32.2406H76.86ZM77.36 32.5H76.4195V33.5H77.36V32.5ZM74.5385 32.5H72.6575V33.5H74.5385V32.5ZM70.7765 32.5H68.8955V33.5H70.7765V32.5ZM67.0145 32.5H65.1335V33.5H67.0145V32.5ZM63.2525 32.5H61.3715V33.5H63.2525V32.5ZM59.4905 32.5H58.55V33.5H59.4905V32.5ZM58.55 33H57.55V34H58.55V33ZM58.55 1.59V0.589999H57.55V1.59H58.55ZM65.39 1.59H66.39V0.589999H65.39V1.59ZM65.39 26.925H64.39V27.925H65.39V26.925ZM77.36 26.925H78.36V25.925H77.36V26.925ZM77.36 33V34H78.36V33H77.36ZM59.55 33V32.0184H57.55V33H59.55ZM59.55 30.0553V28.0922H57.55V30.0553H59.55ZM59.55 26.1291V24.1659H57.55V26.1291H59.55ZM59.55 22.2028V20.2397H57.55V22.2028H59.55ZM59.55 18.2766V16.3134H57.55V18.2766H59.55ZM59.55 14.3503V12.3872H57.55V14.3503H59.55ZM59.55 10.4241V8.46094H57.55V10.4241H59.55ZM59.55 6.49781V4.53469H57.55V6.49781H59.55ZM59.55 2.57156V1.59H57.55V2.57156H59.55ZM58.55 2.59H59.405V0.589999H58.55V2.59ZM61.115 2.59H62.825V0.589999H61.115V2.59ZM64.535 2.59H65.39V0.589999H64.535V2.59ZM64.39 1.59V2.64562H66.39V1.59H64.39ZM64.39 4.75687V6.86813H66.39V4.75687H64.39ZM64.39 8.97937V11.0906H66.39V8.97937H64.39ZM64.39 13.2019V15.3131H66.39V13.2019H64.39ZM64.39 17.4244V19.5356H66.39V17.4244H64.39ZM64.39 21.6469V23.7581H66.39V21.6469H64.39ZM64.39 25.8694V26.925H66.39V25.8694H64.39ZM65.39 27.925H66.3875V25.925H65.39V27.925ZM68.3825 27.925H70.3775V25.925H68.3825V27.925ZM72.3725 27.925H74.3675V25.925H72.3725V27.925ZM76.3625 27.925H77.36V25.925H76.3625V27.925ZM76.36 26.925V27.6844H78.36V26.925H76.36ZM76.36 29.2031V30.7219H78.36V29.2031H76.36ZM76.36 32.2406V33H78.36V32.2406H76.36ZM77.36 32H76.4195V34H77.36V32ZM74.5385 32H72.6575V34H74.5385V32ZM70.7765 32H68.8955V34H70.7765V32ZM67.0145 32H65.1335V34H67.0145V32ZM63.2525 32H61.3715V34H63.2525V32ZM59.4905 32H58.55V34H59.4905V32ZM100.546 28.005H101.046V27.505H100.546V28.005ZM100.321 28.005V27.505H99.8903L99.8261 27.9304L100.321 28.005ZM97.8905 31.965L97.5877 31.5671L97.8905 31.965ZM87.2255 32.505L87.0233 32.9623L87.0233 32.9623L87.2255 32.505ZM83.1305 29.445L82.7527 29.7725L82.7527 29.7725L83.1305 29.445ZM80.3855 24.405L80.8606 24.249L80.8606 24.249L80.3855 24.405ZM80.4305 10.41L80.9041 10.5702L80.9041 10.5702L80.4305 10.41ZM83.3105 5.28L82.9412 4.94284L82.9373 4.94731L83.3105 5.28ZM87.8105 2.13L88.0017 2.59201L88.0017 2.59201L87.8105 2.13ZM100.906 2.895L100.647 3.32321L100.652 3.32597L100.906 2.895ZM105.721 8.34L105.969 8.7739L106.373 8.54257L106.171 8.12309L105.721 8.34ZM100.141 11.535L99.6747 11.7168L99.8856 12.2571L100.389 11.9689L100.141 11.535ZM97.8905 8.43L97.566 8.81047L97.5727 8.81597L97.8905 8.43ZM88.5305 8.97L88.8798 9.32779L88.8798 9.32779L88.5305 8.97ZM88.5305 25.62L88.1769 25.9736L88.1812 25.9778L88.5305 25.62ZM96.0005 27.195L96.1172 27.6812L96.1263 27.679L96.1353 27.6765L96.0005 27.195ZM97.9805 26.295L98.2629 26.7077L98.2701 26.7027L98.2771 26.6975L97.9805 26.295ZM99.2855 24.81L98.8528 24.5595L98.8477 24.5682L98.843 24.5771L99.2855 24.81ZM99.7805 21.21H100.281V20.71H99.7805V21.21ZM93.9305 21.21H93.4305V21.71H93.9305V21.21ZM93.9305 15.495V14.995H93.4305V15.495H93.9305ZM106.306 15.495H106.806V14.995H106.306V15.495ZM106.306 33V33.5H106.806V33H106.306ZM100.546 33H100.046V33.5H100.546V33ZM100.546 27.505H100.489V28.505H100.546V27.505ZM100.377 27.505H100.321V28.505H100.377V27.505ZM99.8261 27.9304C99.7702 28.3009 99.681 28.6534 99.5592 28.9886L100.499 29.3302C100.644 28.9303 100.749 28.5132 100.815 28.0796L99.8261 27.9304ZM98.414 30.8277C98.1705 31.0864 97.8954 31.333 97.5877 31.5671L98.1933 32.3629C98.5417 32.0978 98.8584 31.8146 99.1422 31.513L98.414 30.8277ZM97.5877 31.5671C97.2325 31.8374 96.8396 32.0714 96.4079 32.2684L96.823 33.1781C97.3189 32.9519 97.7761 32.6804 98.1933 32.3629L97.5877 31.5671ZM93.6964 32.9675C93.2446 33.0157 92.7678 33.04 92.2655 33.04V34.04C92.7999 34.04 93.3123 34.0141 93.8025 33.9618L93.6964 32.9675ZM92.2655 33.04C91.8427 33.04 91.4274 33.0203 91.0197 32.9809L90.9236 33.9763C91.3642 34.0188 91.8115 34.04 92.2655 34.04V33.04ZM88.588 32.4872C88.1939 32.362 87.8072 32.2156 87.4278 32.0477L87.0233 32.9623C87.4358 33.1447 87.8565 33.3041 88.2853 33.4403L88.588 32.4872ZM87.4278 32.0477C87.0504 31.8808 86.6852 31.6938 86.3321 31.4867L85.8262 32.3494C86.2124 32.5758 86.6114 32.7801 87.0233 32.9623L87.4278 32.0477ZM84.3645 30.0102C84.0685 29.732 83.7831 29.4345 83.5084 29.1175L82.7527 29.7725C83.0491 30.1145 83.3581 30.4367 83.6797 30.7389L84.3645 30.0102ZM83.5084 29.1175C83.2109 28.7743 82.9301 28.4082 82.6661 28.0189L81.8385 28.5803C82.124 29.0011 82.4286 29.3986 82.7527 29.7725L83.5084 29.1175ZM81.3503 25.5648C81.1739 25.1446 81.0106 24.706 80.8606 24.249L79.9105 24.561C80.0684 25.0421 80.241 25.5058 80.4282 25.9518L81.3503 25.5648ZM80.8606 24.249C80.7726 23.9811 80.6906 23.7072 80.6145 23.4271L79.6495 23.6891C79.7299 23.9855 79.8169 24.2762 79.9105 24.561L80.8606 24.249ZM80.2427 21.7458C80.1465 21.1948 80.0702 20.6235 80.0139 20.0319L79.0184 20.1266C79.077 20.7426 79.1567 21.3397 79.2576 21.9178L80.2427 21.7458ZM79.908 18.2998C79.8997 18.0141 79.8955 17.7241 79.8955 17.43H78.8955C78.8955 17.7335 78.8998 18.0332 78.9084 18.3289L79.908 18.2998ZM79.8955 17.43C79.8955 17.1341 79.8999 16.8422 79.9087 16.5543L78.9092 16.5237C78.9001 16.8221 78.8955 17.1241 78.8955 17.43H79.8955ZM80.0205 14.8109C80.0797 14.2167 80.1599 13.6419 80.2609 13.0865L79.2771 12.9076C79.171 13.4908 79.0872 14.0922 79.0255 14.7117L80.0205 14.8109ZM80.6489 11.3962C80.7279 11.1152 80.8129 10.8398 80.9041 10.5702L79.9569 10.2498C79.8599 10.5363 79.7697 10.8283 79.6862 11.1258L80.6489 11.3962ZM80.9041 10.5702C81.0619 10.1037 81.2339 9.6559 81.4199 9.22661L80.5023 8.82903C80.3048 9.28481 80.1231 9.75845 79.9569 10.2498L80.9041 10.5702ZM82.8029 6.72798C83.0789 6.33352 83.3726 5.96182 83.6838 5.61268L82.9373 4.94731C82.5993 5.32643 82.2815 5.72895 81.9836 6.15465L82.8029 6.72798ZM83.6798 5.61713C83.9818 5.28637 84.2978 4.97567 84.6278 4.68491L83.9667 3.93459C83.6091 4.24967 83.2673 4.5858 82.9413 4.94286L83.6798 5.61713ZM86.8008 3.16491C87.1865 2.9547 87.5867 2.76372 88.0017 2.59201L87.6193 1.66799C87.1722 1.85303 86.7398 2.05929 86.3222 2.28685L86.8008 3.16491ZM88.0017 2.59201C88.4382 2.41136 88.888 2.2541 89.351 2.12031L89.0735 1.15961C88.5755 1.3035 88.0907 1.47293 87.6193 1.66799L88.0017 2.59201ZM92.1731 1.60913C92.6424 1.56976 93.1232 1.55 93.6155 1.55V0.549998C93.0964 0.549998 92.5877 0.570829 92.0895 0.612631L92.1731 1.60913ZM93.6155 1.55C93.9295 1.55 94.2382 1.55783 94.5415 1.57344L94.5929 0.574762C94.2719 0.558239 93.9461 0.549998 93.6155 0.549998V1.55ZM96.3743 1.77317C96.9939 1.87899 97.5878 2.02225 98.1565 2.20259L98.4588 1.24937C97.8442 1.05449 97.2054 0.900638 96.5427 0.787445L96.3743 1.77317ZM99.8487 2.88478C100.122 3.02056 100.388 3.1667 100.647 3.32319L101.164 2.46681C100.881 2.29632 100.591 2.1372 100.294 1.98947L99.8487 2.88478ZM100.652 3.32597C100.906 3.47522 101.152 3.63438 101.392 3.80346L101.969 2.98652C101.706 2.80142 101.437 2.62726 101.159 2.46403L100.652 3.32597ZM102.741 4.93406C103.153 5.34034 103.538 5.78515 103.898 6.26901L104.701 5.6721C104.312 5.14907 103.893 4.6657 103.444 4.22246L102.741 4.93406ZM104.86 7.76358C105.002 8.01966 105.139 8.28408 105.27 8.55691L106.171 8.12309C106.031 7.83328 105.886 7.55157 105.734 7.27798L104.86 7.76358ZM105.472 7.90609L104.775 8.30547L105.271 9.17328L105.969 8.7739L105.472 7.90609ZM103.38 9.10422L101.985 9.90297L102.481 10.7708L103.876 9.97203L103.38 9.10422ZM100.59 10.7017L99.8921 11.1011L100.389 11.9689L101.086 11.5695L100.59 10.7017ZM100.606 11.3532C100.48 11.0293 100.336 10.7174 100.173 10.4177L99.2939 10.894C99.4361 11.1564 99.563 11.4306 99.6747 11.7168L100.606 11.3532ZM98.9624 8.74689C98.7282 8.49933 98.4768 8.26506 98.2084 8.04403L97.5727 8.81597C97.8099 9.01132 98.0309 9.2174 98.236 9.43414L98.9624 8.74689ZM98.215 8.04958C97.8982 7.7794 97.5478 7.5483 97.1651 7.35583L96.7158 8.2492C97.0298 8.40711 97.3127 8.59433 97.566 8.81042L98.215 8.04958ZM94.8115 6.69027C94.4304 6.64656 94.0316 6.625 93.6155 6.625V7.625C93.9973 7.625 94.3578 7.64478 94.6976 7.68376L94.8115 6.69027ZM93.6155 6.625C93.1099 6.625 92.6245 6.65815 92.1599 6.72532L92.303 7.71503C92.7162 7.6553 93.1535 7.625 93.6155 7.625V6.625ZM89.3659 7.6934C88.9375 7.95308 88.5425 8.25957 88.1812 8.61221L88.8798 9.32779C89.187 9.02785 89.5217 8.76832 89.8843 8.54854L89.3659 7.6934ZM88.1812 8.61221C87.9768 8.81177 87.7879 9.02775 87.6145 9.25979L88.4154 9.85846C88.5584 9.66719 88.7132 9.49041 88.8798 9.32779L88.1812 8.61221ZM86.797 10.745C86.6032 11.2363 86.4537 11.7696 86.3466 12.3433L87.3297 12.5267C87.4265 12.0079 87.5596 11.5369 87.7272 11.1121L86.797 10.745ZM86.1607 13.9656C86.1472 14.2285 86.1405 14.4984 86.1405 14.775H87.1405C87.1405 14.5145 87.1468 14.2618 87.1594 14.0169L86.1607 13.9656ZM86.1405 14.775V16.035H87.1405V14.775H86.1405ZM86.1405 18.555V19.815H87.1405V18.555H86.1405ZM86.1405 19.815C86.1405 20.0915 86.1474 20.3613 86.1612 20.6244L87.1598 20.5721C87.147 20.3273 87.1405 20.075 87.1405 19.815H86.1405ZM86.3502 22.246C86.4584 22.8175 86.6093 23.3499 86.8045 23.8418L87.734 23.473C87.5648 23.0468 87.4305 22.5763 87.3328 22.06L86.3502 22.246ZM87.6182 25.324C87.7894 25.5557 87.9757 25.7723 88.177 25.9736L88.8841 25.2664C88.7185 25.1009 88.5646 24.922 88.4224 24.7296L87.6182 25.324ZM88.1812 25.9778C88.5425 26.3304 88.9375 26.6369 89.3659 26.8966L89.8843 26.0415C89.5217 25.8217 89.187 25.5622 88.8798 25.2622L88.1812 25.9778ZM92.1599 27.8647C92.6245 27.9318 93.1099 27.965 93.6155 27.965V26.965C93.1535 26.965 92.7162 26.9347 92.303 26.875L92.1599 27.8647ZM93.6155 27.965C93.8272 27.965 94.0364 27.9595 94.2433 27.9485L94.1902 26.9499C94.0014 26.96 93.8099 26.965 93.6155 26.965V27.965ZM95.4967 27.809C95.7064 27.7727 95.9132 27.7301 96.1172 27.6812L95.8838 26.7088C95.7011 26.7527 95.5153 26.7909 95.3264 26.8236L95.4967 27.809ZM96.1353 27.6765C96.3248 27.6234 96.5095 27.5648 96.6893 27.5005L96.3526 26.5589C96.1957 26.615 96.0334 26.6666 95.8657 26.7135L96.1353 27.6765ZM97.759 27.0189C97.9331 26.922 98.1011 26.8183 98.2629 26.7077L97.6982 25.8823C97.5625 25.9752 97.4208 26.0627 97.273 26.1449L97.759 27.0189ZM98.2771 26.6975C98.4264 26.5875 98.5681 26.4722 98.7018 26.3515L98.0319 25.609C97.9236 25.7068 97.8077 25.8013 97.6839 25.8925L98.2771 26.6975ZM99.4372 25.5212C99.5441 25.3675 99.641 25.208 99.728 25.0429L98.843 24.5771C98.7754 24.7057 98.6998 24.8301 98.6162 24.9502L99.4372 25.5212ZM99.7182 25.0605C99.8188 24.8868 99.9058 24.705 99.9792 24.5157L99.0468 24.1542C98.9917 24.2963 98.927 24.4313 98.8528 24.5595L99.7182 25.0605ZM100.251 23.3636C100.271 23.1754 100.281 22.9825 100.281 22.785H99.2805C99.2805 22.9498 99.2724 23.1078 99.2565 23.2593L100.251 23.3636ZM100.281 22.785V22.3912H99.2805V22.785H100.281ZM100.281 21.6037V21.21H99.2805V21.6037H100.281ZM99.7805 20.71H98.318V21.71H99.7805V20.71ZM95.393 20.71H93.9305V21.71H95.393V20.71ZM94.4305 21.21V19.7812H93.4305V21.21H94.4305ZM94.4305 16.9237V15.495H93.4305V16.9237H94.4305ZM93.9305 15.995H94.9618V14.995H93.9305V15.995ZM97.0243 15.995H99.0868V14.995H97.0243V15.995ZM101.149 15.995H103.212V14.995H101.149V15.995ZM105.274 15.995H106.306V14.995H105.274V15.995ZM105.806 15.495V16.5891H106.806V15.495H105.806ZM105.806 18.7772V20.9653H106.806V18.7772H105.806ZM105.806 23.1534V25.3416H106.806V23.1534H105.806ZM105.806 27.5297V29.7178H106.806V27.5297H105.806ZM105.806 31.9059V33H106.806V31.9059H105.806ZM106.306 32.5H104.866V33.5H106.306V32.5ZM101.986 32.5H100.546V33.5H101.986V32.5ZM101.046 33V31.7512H100.046V33H101.046ZM101.046 29.2537V28.005H100.046V29.2537H101.046ZM100.546 28.005H101.546V27.005H100.546V28.005ZM100.321 28.005V27.005H99.4601L99.3317 27.8557L100.321 28.005ZM97.8905 31.965L97.285 31.1692L97.8905 31.965ZM87.2255 32.505L86.821 33.4195L86.821 33.4195L87.2255 32.505ZM83.1305 29.445L82.3748 30.0999L82.3748 30.0999L83.1305 29.445ZM80.3855 24.405L81.3356 24.093L81.3356 24.093L80.3855 24.405ZM80.4305 10.41L81.3778 10.7304L81.3778 10.7304L80.4305 10.41ZM83.3105 5.28L82.572 4.60568L82.564 4.61463L83.3105 5.28ZM87.8105 2.13L88.1929 3.05401L88.1929 3.05401L87.8105 2.13ZM100.906 2.895L100.389 3.75143L100.398 3.75693L100.906 2.895ZM105.721 8.34L106.217 9.20781L107.025 8.74514L106.622 7.90618L105.721 8.34ZM100.141 11.535L99.2089 11.8985L99.6307 12.9792L100.637 12.4028L100.141 11.535ZM97.8905 8.43L97.2416 9.19083L97.2481 9.19644L97.2548 9.20193L97.8905 8.43ZM88.5305 8.97L89.229 9.68557L89.229 9.68557L88.5305 8.97ZM88.5305 25.62L87.8234 26.3272L87.832 26.3356L88.5305 25.62ZM96.0005 27.195L96.2339 28.1674L96.2521 28.163L96.2701 28.158L96.0005 27.195ZM97.9805 26.295L98.5452 27.1203L98.5596 27.1104L98.5737 27.1001L97.9805 26.295ZM99.2855 24.81L98.4201 24.309L98.41 24.3264L98.4006 24.3443L99.2855 24.81ZM99.7805 21.21H100.781V20.21H99.7805V21.21ZM93.9305 21.21H92.9305V22.21H93.9305V21.21ZM93.9305 15.495V14.495H92.9305V15.495H93.9305ZM106.306 15.495H107.306V14.495H106.306V15.495ZM106.306 33V34H107.306V33H106.306ZM100.546 33H99.5455V34H100.546V33ZM100.546 27.005H100.489V29.005H100.546V27.005ZM100.377 27.005H100.321V29.005H100.377V27.005ZM99.3317 27.8557C99.2805 28.1948 99.1993 28.515 99.0893 28.8178L100.969 29.501C101.126 29.0687 101.239 28.6193 101.309 28.1543L99.3317 27.8557ZM98.0499 30.485C97.8266 30.7223 97.5723 30.9506 97.285 31.1692L98.496 32.7608C98.8649 32.4802 99.2023 32.1787 99.5063 31.8557L98.0499 30.485ZM97.285 31.1692C96.9607 31.4159 96.6 31.6311 96.2003 31.8135L97.0306 33.633C97.5585 33.3921 98.0479 33.1018 98.496 32.7608L97.285 31.1692ZM93.6434 32.4703C93.2108 32.5164 92.7517 32.54 92.2655 32.54V34.54C92.816 34.54 93.3462 34.5133 93.8555 34.459L93.6434 32.4703ZM92.2655 32.54C91.8583 32.54 91.459 32.521 91.0677 32.4832L90.8756 34.474C91.3326 34.5181 91.7959 34.54 92.2655 34.54V32.54ZM88.7394 32.0107C88.3627 31.891 87.9929 31.751 87.63 31.5905L86.821 33.4195C87.2501 33.6093 87.6878 33.7751 88.134 33.9168L88.7394 32.0107ZM87.63 31.5905C87.2699 31.4312 86.9216 31.2528 86.585 31.0554L85.5733 32.7807C85.9759 33.0168 86.3919 33.2297 86.821 33.4195L87.63 31.5905ZM84.7069 29.6458C84.4237 29.3797 84.1501 29.0945 83.8862 28.7901L82.3748 30.0999C82.6821 30.4545 83.0029 30.7891 83.3373 31.1033L84.7069 29.6458ZM83.8862 28.7901C83.6021 28.4622 83.3332 28.1118 83.0799 27.7383L81.4247 28.8609C81.7209 29.2976 82.0375 29.7107 82.3748 30.0999L83.8862 28.7901ZM81.8113 25.3713C81.6404 24.964 81.4817 24.538 81.3356 24.093L79.4354 24.717C79.5974 25.2102 79.7745 25.6864 79.9672 26.1453L81.8113 25.3713ZM81.3356 24.093C81.2504 23.8336 81.1709 23.568 81.0971 23.2961L79.1669 23.8201C79.2496 24.1247 79.3391 24.4237 79.4354 24.717L81.3356 24.093ZM80.7353 21.6598C80.6414 21.1223 80.5668 20.5639 80.5116 19.9845L78.5206 20.174C78.5804 20.8022 78.6618 21.4122 78.7651 22.0038L80.7353 21.6598ZM80.4078 18.2853C80.3996 18.0045 80.3955 17.7194 80.3955 17.43H78.3955C78.3955 17.7383 78.3999 18.0427 78.4086 18.3434L80.4078 18.2853ZM80.3955 17.43C80.3955 17.139 80.3998 16.8522 80.4085 16.5696L78.4094 16.5085C78.4001 16.812 78.3955 17.1192 78.3955 17.43H80.3955ZM80.5181 14.8605C80.576 14.2789 80.6544 13.7175 80.7529 13.1759L78.7851 12.8181C78.6766 13.4153 78.5909 14.03 78.5279 14.6621L80.5181 14.8605ZM81.1303 11.5314C81.2069 11.2586 81.2894 10.9916 81.3778 10.7304L79.4832 10.0896C79.3834 10.3846 79.2907 10.6849 79.2048 10.9906L81.1303 11.5314ZM81.3778 10.7304C81.5314 10.2764 81.6984 9.84145 81.8787 9.42539L80.0435 8.63025C79.8403 9.09927 79.6536 9.58581 79.4832 10.0896L81.3778 10.7304ZM83.2126 7.01464C83.4777 6.63581 83.7592 6.27952 84.057 5.94537L82.564 4.61463C82.2127 5.00874 81.8827 5.42666 81.5739 5.86799L83.2126 7.01464ZM84.049 5.95427C84.339 5.63665 84.6421 5.33868 84.9583 5.06007L83.6362 3.55943C83.2647 3.88667 82.91 4.23552 82.572 4.60573L84.049 5.95427ZM87.04 3.60394C87.4098 3.40241 87.794 3.21906 88.1929 3.05401L87.4282 1.20598C86.9649 1.39768 86.5164 1.61158 86.0829 1.84782L87.04 3.60394ZM88.1929 3.05401C88.612 2.88057 89.0443 2.72941 89.4898 2.60066L88.9347 0.679257C88.4192 0.828191 87.917 1.00372 87.4282 1.20598L88.1929 3.05401ZM92.2149 2.10738C92.6697 2.06922 93.1365 2.05 93.6155 2.05V0.0499983C93.083 0.0499983 92.5604 0.0713659 92.0477 0.114382L92.2149 2.10738ZM93.6155 2.05C93.9212 2.05 94.2213 2.05762 94.5158 2.07278L94.6186 0.0754232C94.2888 0.0584464 93.9544 0.0499983 93.6155 0.0499983V2.05ZM96.2901 2.26603C96.8881 2.36817 97.4596 2.50614 98.0054 2.6792L98.6099 0.772754C97.9724 0.570601 97.3112 0.411462 96.6268 0.294582L96.2901 2.26603ZM99.6259 3.33244C99.8868 3.46224 100.141 3.60189 100.389 3.75138L101.422 2.03862C101.127 1.86113 100.826 1.69552 100.517 1.54181L99.6259 3.33244ZM100.398 3.75693C100.64 3.8992 100.875 4.05086 101.103 4.21194L102.257 2.57804C101.983 2.38494 101.702 2.20328 101.413 2.03306L100.398 3.75693ZM102.39 5.28987C102.783 5.67765 103.152 6.10319 103.497 6.56746L105.102 5.37364C104.698 4.83103 104.263 4.32838 103.795 3.86666L102.39 5.28987ZM104.422 8.00637C104.56 8.2537 104.692 8.50948 104.82 8.77381L106.622 7.90618C106.478 7.60788 106.328 7.31752 106.171 7.03519L104.422 8.00637ZM105.224 7.47219L104.526 7.87156L105.52 9.60719L106.217 9.20781L105.224 7.47219ZM103.131 8.67031L101.736 9.46906L102.73 11.2047L104.125 10.4059L103.131 8.67031ZM100.341 10.2678L99.6436 10.6672L100.637 12.4028L101.335 12.0034L100.341 10.2678ZM101.072 11.1715C100.938 10.8287 100.785 10.4979 100.613 10.1795L98.8543 11.1322C98.9863 11.3759 99.1046 11.6312 99.2089 11.8985L101.072 11.1715ZM99.3256 8.40326C99.0768 8.1403 98.8102 7.89193 98.5262 7.65807L97.2548 9.20193C97.4764 9.38445 97.6823 9.57643 97.8728 9.77777L99.3256 8.40326ZM98.5395 7.66917C98.191 7.37194 97.8068 7.11889 97.3898 6.90915L96.4911 8.69589C96.7707 8.83652 97.0199 9.00179 97.2416 9.19083L98.5395 7.66917ZM94.8685 6.19353C94.4667 6.14744 94.0488 6.125 93.6155 6.125V8.125C93.9801 8.125 94.3215 8.1439 94.6406 8.1805L94.8685 6.19353ZM93.6155 6.125C93.0881 6.125 92.5787 6.15958 92.0884 6.23047L92.3746 8.20989C92.762 8.15387 93.1753 8.125 93.6155 8.125V6.125ZM89.1067 7.26582C88.6454 7.54546 88.2202 7.87544 87.832 8.25442L89.229 9.68557C89.5093 9.41198 89.8138 9.17594 90.1435 8.97612L89.1067 7.26582ZM87.832 8.25442C87.6086 8.47246 87.4026 8.70803 87.214 8.96045L88.8159 10.1578C88.9437 9.98691 89.0814 9.82973 89.229 9.68557L87.832 8.25442ZM86.3319 10.5615C86.125 11.086 85.9673 11.6505 85.8551 12.2516L87.8212 12.6184C87.9129 12.1271 88.0378 11.6872 88.1923 11.2956L86.3319 10.5615ZM85.6614 13.9399C85.6474 14.2119 85.6405 14.4903 85.6405 14.775H87.6405C87.6405 14.5226 87.6466 14.2785 87.6588 14.0425L85.6614 13.9399ZM85.6405 14.775V16.035H87.6405V14.775H85.6405ZM85.6405 18.555V19.815H87.6405V18.555H85.6405ZM85.6405 19.815C85.6405 20.0997 85.6476 20.3783 85.6618 20.6506L87.6591 20.5459C87.6468 20.3103 87.6405 20.0667 87.6405 19.815H85.6405ZM85.859 22.3391C85.9724 22.938 86.1315 23.5015 86.3397 24.0262L88.1987 23.2885C88.0426 22.8952 87.9166 22.4557 87.824 21.967L85.859 22.3391ZM87.2161 25.6212C87.4019 25.8725 87.6043 26.108 87.8234 26.3271L89.2376 24.9129C89.0899 24.7652 88.9522 24.6052 88.8245 24.4324L87.2161 25.6212ZM87.832 26.3356C88.2202 26.7146 88.6454 27.0445 89.1067 27.3242L90.1435 25.6139C89.8138 25.4141 89.5093 25.178 89.229 24.9044L87.832 26.3356ZM92.0884 28.3595C92.5787 28.4304 93.0881 28.465 93.6155 28.465V26.465C93.1753 26.465 92.762 26.4361 92.3746 26.3801L92.0884 28.3595ZM93.6155 28.465C93.8358 28.465 94.0539 28.4593 94.2698 28.4478L94.1636 26.4506C93.984 26.4602 93.8013 26.465 93.6155 26.465V28.465ZM95.5818 28.3017C95.8019 28.2636 96.0193 28.2189 96.2339 28.1674L95.7671 26.2226C95.595 26.2639 95.4198 26.3 95.2413 26.3309L95.5818 28.3017ZM96.2701 28.158C96.4705 28.1019 96.6664 28.0397 96.8577 27.9713L96.1843 26.0881C96.0388 26.1401 95.8877 26.1881 95.7309 26.232L96.2701 28.158ZM98.0019 27.4559C98.1893 27.3517 98.3704 27.2399 98.5452 27.1203L97.4158 25.4697C97.2931 25.5536 97.1646 25.6331 97.03 25.7079L98.0019 27.4559ZM98.5737 27.1001C98.7358 26.9806 98.8903 26.8549 99.0368 26.7227L97.697 25.2378C97.6014 25.324 97.4983 25.4081 97.3873 25.4899L98.5737 27.1001ZM99.8476 25.8067C99.9662 25.6362 100.074 25.4592 100.17 25.2757L98.4006 24.3443C98.3425 24.4546 98.2776 24.5614 98.2058 24.6647L99.8476 25.8067ZM100.151 25.311C100.265 25.1145 100.363 24.9094 100.445 24.6965L98.5807 23.9734C98.5347 24.0919 98.4811 24.2035 98.4201 24.309L100.151 25.311ZM100.748 23.4157C100.77 23.2092 100.781 22.9989 100.781 22.785H98.7805C98.7805 22.9334 98.7732 23.074 98.7593 23.2072L100.748 23.4157ZM100.781 22.785V22.3912H98.7805V22.785H100.781ZM100.781 21.6037V21.21H98.7805V21.6037H100.781ZM99.7805 20.21H98.318V22.21H99.7805V20.21ZM95.393 20.21H93.9305V22.21H95.393V20.21ZM94.9305 21.21V19.7812H92.9305V21.21H94.9305ZM94.9305 16.9237V15.495H92.9305V16.9237H94.9305ZM93.9305 16.495H94.9618V14.495H93.9305V16.495ZM97.0243 16.495H99.0868V14.495H97.0243V16.495ZM101.149 16.495H103.212V14.495H101.149V16.495ZM105.274 16.495H106.306V14.495H105.274V16.495ZM105.306 15.495V16.5891H107.306V15.495H105.306ZM105.306 18.7772V20.9653H107.306V18.7772H105.306ZM105.306 23.1534V25.3416H107.306V23.1534H105.306ZM105.306 27.5297V29.7178H107.306V27.5297H105.306ZM105.306 31.9059V33H107.306V31.9059H105.306ZM106.306 32H104.866V34H106.306V32ZM101.986 32H100.546V34H101.986V32ZM101.546 33V31.7512H99.5455V33H101.546ZM101.546 29.2537V28.005H99.5455V29.2537H101.546ZM112.954 33H112.454V33.5H112.954V33ZM112.954 1.59V1.09H112.454V1.59H112.954ZM134.329 1.59H134.829V1.09H134.329V1.59ZM134.329 7.665V8.165H134.829V7.665H134.329ZM119.794 7.665V7.165H119.294V7.665H119.794ZM119.794 14.1H119.294V14.6H119.794V14.1ZM132.259 14.1H132.759V13.6H132.259V14.1ZM132.259 20.13V20.63H132.759V20.13H132.259ZM119.794 20.13V19.63H119.294V20.13H119.794ZM119.794 26.925H119.294V27.425H119.794V26.925ZM134.329 26.925H134.829V26.425H134.329V26.925ZM134.329 33V33.5H134.829V33H134.329ZM113.454 33V32.0184H112.454V33H113.454ZM113.454 30.0553V28.0922H112.454V30.0553H113.454ZM113.454 26.1291V24.1659H112.454V26.1291H113.454ZM113.454 22.2028V20.2397H112.454V22.2028H113.454ZM113.454 18.2766V16.3134H112.454V18.2766H113.454ZM113.454 14.3503V12.3872H112.454V14.3503H113.454ZM113.454 10.4241V8.46094H112.454V10.4241H113.454ZM113.454 6.49781V4.53469H112.454V6.49781H113.454ZM113.454 2.57156V1.59H112.454V2.57156H113.454ZM112.954 2.09H114.023V1.09H112.954V2.09ZM116.161 2.09H118.298V1.09H116.161V2.09ZM120.436 2.09H122.573V1.09H120.436V2.09ZM124.711 2.09H126.848V1.09H124.711V2.09ZM128.986 2.09H131.123V1.09H128.986V2.09ZM133.261 2.09H134.329V1.09H133.261V2.09ZM133.829 1.59V2.34937H134.829V1.59H133.829ZM133.829 3.86812V5.38687H134.829V3.86812H133.829ZM133.829 6.90562V7.665H134.829V6.90562H133.829ZM134.329 7.165H133.421V8.165H134.329V7.165ZM131.604 7.165H129.787V8.165H131.604V7.165ZM127.97 7.165H126.153V8.165H127.97V7.165ZM124.336 7.165H122.52V8.165H124.336V7.165ZM120.703 7.165H119.794V8.165H120.703V7.165ZM119.294 7.665V8.46937H120.294V7.665H119.294ZM119.294 10.0781V11.6869H120.294V10.0781H119.294ZM119.294 13.2956V14.1H120.294V13.2956H119.294ZM119.794 14.6H120.833V13.6H119.794V14.6ZM122.911 14.6H124.988V13.6H122.911V14.6ZM127.066 14.6H129.143V13.6H127.066V14.6ZM131.221 14.6H132.259V13.6H131.221V14.6ZM131.759 14.1V14.8537H132.759V14.1H131.759ZM131.759 16.3612V17.8687H132.759V16.3612H131.759ZM131.759 19.3762V20.13H132.759V19.3762H131.759ZM132.259 19.63H131.221V20.63H132.259V19.63ZM129.143 19.63H127.066V20.63H129.143V19.63ZM124.988 19.63H122.911V20.63H124.988V19.63ZM120.833 19.63H119.794V20.63H120.833V19.63ZM119.294 20.13V20.9794H120.294V20.13H119.294ZM119.294 22.6781V24.3769H120.294V22.6781H119.294ZM119.294 26.0756V26.925H120.294V26.0756H119.294ZM119.794 27.425H120.703V26.425H119.794V27.425ZM122.52 27.425H124.336V26.425H122.52V27.425ZM126.153 27.425H127.97V26.425H126.153V27.425ZM129.787 27.425H131.604V26.425H129.787V27.425ZM133.421 27.425H134.329V26.425H133.421V27.425ZM133.829 26.925V27.6844H134.829V26.925H133.829ZM133.829 29.2031V30.7219H134.829V29.2031H133.829ZM133.829 32.2406V33H134.829V32.2406H133.829ZM134.329 32.5H133.261V33.5H134.329V32.5ZM131.123 32.5H128.986V33.5H131.123V32.5ZM126.848 32.5H124.711V33.5H126.848V32.5ZM122.573 32.5H120.436V33.5H122.573V32.5ZM118.298 32.5H116.161V33.5H118.298V32.5ZM114.023 32.5H112.954V33.5H114.023V32.5ZM112.954 33H111.954V34H112.954V33ZM112.954 1.59V0.589999H111.954V1.59H112.954ZM134.329 1.59H135.329V0.589999H134.329V1.59ZM134.329 7.665V8.665H135.329V7.665H134.329ZM119.794 7.665V6.665H118.794V7.665H119.794ZM119.794 14.1H118.794V15.1H119.794V14.1ZM132.259 14.1H133.259V13.1H132.259V14.1ZM132.259 20.13V21.13H133.259V20.13H132.259ZM119.794 20.13V19.13H118.794V20.13H119.794ZM119.794 26.925H118.794V27.925H119.794V26.925ZM134.329 26.925H135.329V25.925H134.329V26.925ZM134.329 33V34H135.329V33H134.329ZM113.954 33V32.0184H111.954V33H113.954ZM113.954 30.0553V28.0922H111.954V30.0553H113.954ZM113.954 26.1291V24.1659H111.954V26.1291H113.954ZM113.954 22.2028V20.2397H111.954V22.2028H113.954ZM113.954 18.2766V16.3134H111.954V18.2766H113.954ZM113.954 14.3503V12.3872H111.954V14.3503H113.954ZM113.954 10.4241V8.46094H111.954V10.4241H113.954ZM113.954 6.49781V4.53469H111.954V6.49781H113.954ZM113.954 2.57156V1.59H111.954V2.57156H113.954ZM112.954 2.59H114.023V0.589999H112.954V2.59ZM116.161 2.59H118.298V0.589999H116.161V2.59ZM120.436 2.59H122.573V0.589999H120.436V2.59ZM124.711 2.59H126.848V0.589999H124.711V2.59ZM128.986 2.59H131.123V0.589999H128.986V2.59ZM133.261 2.59H134.329V0.589999H133.261V2.59ZM133.329 1.59V2.34937H135.329V1.59H133.329ZM133.329 3.86812V5.38687H135.329V3.86812H133.329ZM133.329 6.90562V7.665H135.329V6.90562H133.329ZM134.329 6.665H133.421V8.665H134.329V6.665ZM131.604 6.665H129.787V8.665H131.604V6.665ZM127.97 6.665H126.153V8.665H127.97V6.665ZM124.336 6.665H122.52V8.665H124.336V6.665ZM120.703 6.665H119.794V8.665H120.703V6.665ZM118.794 7.665V8.46937H120.794V7.665H118.794ZM118.794 10.0781V11.6869H120.794V10.0781H118.794ZM118.794 13.2956V14.1H120.794V13.2956H118.794ZM119.794 15.1H120.833V13.1H119.794V15.1ZM122.911 15.1H124.988V13.1H122.911V15.1ZM127.066 15.1H129.143V13.1H127.066V15.1ZM131.221 15.1H132.259V13.1H131.221V15.1ZM131.259 14.1V14.8537H133.259V14.1H131.259ZM131.259 16.3612V17.8687H133.259V16.3612H131.259ZM131.259 19.3762V20.13H133.259V19.3762H131.259ZM132.259 19.13H131.221V21.13H132.259V19.13ZM129.143 19.13H127.066V21.13H129.143V19.13ZM124.988 19.13H122.911V21.13H124.988V19.13ZM120.833 19.13H119.794V21.13H120.833V19.13ZM118.794 20.13V20.9794H120.794V20.13H118.794ZM118.794 22.6781V24.3769H120.794V22.6781H118.794ZM118.794 26.0756V26.925H120.794V26.0756H118.794ZM119.794 27.925H120.703V25.925H119.794V27.925ZM122.52 27.925H124.336V25.925H122.52V27.925ZM126.153 27.925H127.97V25.925H126.153V27.925ZM129.787 27.925H131.604V25.925H129.787V27.925ZM133.421 27.925H134.329V25.925H133.421V27.925ZM133.329 26.925V27.6844H135.329V26.925H133.329ZM133.329 29.2031V30.7219H135.329V29.2031H133.329ZM133.329 32.2406V33H135.329V32.2406H133.329ZM134.329 32H133.261V34H134.329V32ZM131.123 32H128.986V34H131.123V32ZM126.848 32H124.711V34H126.848V32ZM122.573 32H120.436V34H122.573V32ZM118.298 32H116.161V34H118.298V32ZM114.023 32H112.954V34H114.023V32ZM149.873 18.15L149.422 18.3658L149.431 18.3835L149.441 18.4005L149.873 18.15ZM146.858 11.85L147.309 11.6342L147.173 11.35H146.858V11.85ZM146.723 11.85V11.35H146.223V11.85H146.723ZM146.723 33V33.5H147.223V33H146.723ZM140.288 33H139.788V33.5H140.288V33ZM140.288 1.59V1.09H139.788V1.59H140.288ZM147.758 1.59L148.191 1.33953L148.047 1.09H147.758V1.59ZM156.353 16.44L156.804 16.2242L156.796 16.2065L156.786 16.1895L156.353 16.44ZM159.368 22.74L158.917 22.9558L159.053 23.24H159.368V22.74ZM159.503 22.74V23.24H160.003V22.74H159.503ZM159.503 1.59V1.09H159.003V1.59H159.503ZM165.938 1.59H166.438V1.09H165.938V1.59ZM165.938 33V33.5H166.438V33H165.938ZM158.468 33L158.036 33.2505L158.18 33.5H158.468V33ZM150.324 17.9342L149.947 17.1467L149.045 17.5783L149.422 18.3658L150.324 17.9342ZM149.194 15.5717L148.44 13.9967L147.538 14.4283L148.292 16.0033L149.194 15.5717ZM147.686 12.4217L147.309 11.6342L146.407 12.0658L146.784 12.8533L147.686 12.4217ZM146.858 11.35H146.824V12.35H146.858V11.35ZM146.757 11.35H146.723V12.35H146.757V11.35ZM146.223 11.85V12.9075H147.223V11.85H146.223ZM146.223 15.0225V17.1375H147.223V15.0225H146.223ZM146.223 19.2525V21.3675H147.223V19.2525H146.223ZM146.223 23.4825V25.5975H147.223V23.4825H146.223ZM146.223 27.7125V29.8275H147.223V27.7125H146.223ZM146.223 31.9425V33H147.223V31.9425H146.223ZM146.723 32.5H145.919V33.5H146.723V32.5ZM144.31 32.5H142.701V33.5H144.31V32.5ZM141.093 32.5H140.288V33.5H141.093V32.5ZM140.788 33V32.0184H139.788V33H140.788ZM140.788 30.0553V28.0922H139.788V30.0553H140.788ZM140.788 26.1291V24.1659H139.788V26.1291H140.788ZM140.788 22.2028V20.2397H139.788V22.2028H140.788ZM140.788 18.2766V16.3134H139.788V18.2766H140.788ZM140.788 14.3503V12.3872H139.788V14.3503H140.788ZM140.788 10.4241V8.46094H139.788V10.4241H140.788ZM140.788 6.49781V4.53469H139.788V6.49781H140.788ZM140.788 2.57156V1.59H139.788V2.57156H140.788ZM140.288 2.09H141.222V1.09H140.288V2.09ZM143.089 2.09H144.957V1.09H143.089V2.09ZM146.824 2.09H147.758V1.09H146.824V2.09ZM147.325 1.84047L147.863 2.76859L148.728 2.26766L148.191 1.33953L147.325 1.84047ZM148.937 4.62484L150.011 6.48109L150.877 5.98016L149.803 4.12391L148.937 4.62484ZM151.086 8.33734L152.16 10.1936L153.026 9.69266L151.951 7.83641L151.086 8.33734ZM153.235 12.0498L154.309 13.9061L155.174 13.4052L154.1 11.5489L153.235 12.0498ZM155.383 15.7623L155.92 16.6905L156.786 16.1895L156.249 15.2614L155.383 15.7623ZM155.902 16.6558L156.279 17.4433L157.181 17.0117L156.804 16.2242L155.902 16.6558ZM157.033 19.0183L157.787 20.5933L158.689 20.1617L157.935 18.5867L157.033 19.0183ZM158.54 22.1683L158.917 22.9558L159.819 22.5242L159.442 21.7367L158.54 22.1683ZM159.368 23.24H159.402V22.24H159.368V23.24ZM159.469 23.24H159.503V22.24H159.469V23.24ZM160.003 22.74V21.6825H159.003V22.74H160.003ZM160.003 19.5675V17.4525H159.003V19.5675H160.003ZM160.003 15.3375V13.2225H159.003V15.3375H160.003ZM160.003 11.1075V8.9925H159.003V11.1075H160.003ZM160.003 6.8775V4.7625H159.003V6.8775H160.003ZM160.003 2.6475V1.59H159.003V2.6475H160.003ZM159.503 2.09H160.308V1.09H159.503V2.09ZM161.916 2.09H163.525V1.09H161.916V2.09ZM165.134 2.09H165.938V1.09H165.134V2.09ZM165.438 1.59V2.57156H166.438V1.59H165.438ZM165.438 4.53469V6.49781H166.438V4.53469H165.438ZM165.438 8.46094V10.4241H166.438V8.46094H165.438ZM165.438 12.3872V14.3503H166.438V12.3872H165.438ZM165.438 16.3134V18.2766H166.438V16.3134H165.438ZM165.438 20.2397V22.2028H166.438V20.2397H165.438ZM165.438 24.1659V26.1291H166.438V24.1659H165.438ZM165.438 28.0922V30.0553H166.438V28.0922H165.438ZM165.438 32.0184V33H166.438V32.0184H165.438ZM165.938 32.5H165.004V33.5H165.938V32.5ZM163.137 32.5H161.269V33.5H163.137V32.5ZM159.402 32.5H158.468V33.5H159.402V32.5ZM158.901 32.7495L158.364 31.8214L157.498 32.3223L158.036 33.2505L158.901 32.7495ZM157.289 29.9652L156.215 28.1089L155.35 28.6098L156.424 30.4661L157.289 29.9652ZM155.141 26.2527L154.066 24.3964L153.201 24.8973L154.275 26.7536L155.141 26.2527ZM152.992 22.5402L151.918 20.6839L151.052 21.1848L152.126 23.0411L152.992 22.5402ZM150.843 18.8277L150.306 17.8995L149.441 18.4005L149.978 19.3286L150.843 18.8277ZM149.873 18.15L148.971 18.5817L148.988 18.617L149.008 18.6509L149.873 18.15ZM146.858 11.85L147.76 11.4183L147.488 10.85H146.858V11.85ZM146.723 11.85V10.85H145.723V11.85H146.723ZM146.723 33V34H147.723V33H146.723ZM140.288 33H139.288V34H140.288V33ZM140.288 1.59V0.589999H139.288V1.59H140.288ZM147.758 1.59L148.624 1.08907L148.335 0.589999H147.758V1.59ZM156.353 16.44L157.255 16.0083L157.238 15.973L157.219 15.9391L156.353 16.44ZM159.368 22.74L158.466 23.1717L158.738 23.74H159.368V22.74ZM159.503 22.74V23.74H160.503V22.74H159.503ZM159.503 1.59V0.589999H158.503V1.59H159.503ZM165.938 1.59H166.938V0.589999H165.938V1.59ZM165.938 33V34H166.938V33H165.938ZM158.468 33L157.603 33.5009L157.892 34H158.468V33ZM150.775 17.7183L150.398 16.9308L148.594 17.7942L148.971 18.5817L150.775 17.7183ZM149.645 15.3558L148.891 13.7808L147.087 14.6442L147.841 16.2192L149.645 15.3558ZM148.137 12.2058L147.76 11.4183L145.956 12.2817L146.333 13.0692L148.137 12.2058ZM146.858 10.85H146.824V12.85H146.858V10.85ZM146.757 10.85H146.723V12.85H146.757V10.85ZM145.723 11.85V12.9075H147.723V11.85H145.723ZM145.723 15.0225V17.1375H147.723V15.0225H145.723ZM145.723 19.2525V21.3675H147.723V19.2525H145.723ZM145.723 23.4825V25.5975H147.723V23.4825H145.723ZM145.723 27.7125V29.8275H147.723V27.7125H145.723ZM145.723 31.9425V33H147.723V31.9425H145.723ZM146.723 32H145.919V34H146.723V32ZM144.31 32H142.701V34H144.31V32ZM141.093 32H140.288V34H141.093V32ZM141.288 33V32.0184H139.288V33H141.288ZM141.288 30.0553V28.0922H139.288V30.0553H141.288ZM141.288 26.1291V24.1659H139.288V26.1291H141.288ZM141.288 22.2028V20.2397H139.288V22.2028H141.288ZM141.288 18.2766V16.3134H139.288V18.2766H141.288ZM141.288 14.3503V12.3872H139.288V14.3503H141.288ZM141.288 10.4241V8.46094H139.288V10.4241H141.288ZM141.288 6.49781V4.53469H139.288V6.49781H141.288ZM141.288 2.57156V1.59H139.288V2.57156H141.288ZM140.288 2.59H141.222V0.589999H140.288V2.59ZM143.089 2.59H144.957V0.589999H143.089V2.59ZM146.824 2.59H147.758V0.589999H146.824V2.59ZM146.893 2.09093L147.43 3.01906L149.161 2.01719L148.624 1.08907L146.893 2.09093ZM148.504 4.87531L149.579 6.73156L151.31 5.72969L150.235 3.87344L148.504 4.87531ZM150.653 8.58781L151.727 10.4441L153.458 9.44219L152.384 7.58594L150.653 8.58781ZM152.802 12.3003L153.876 14.1566L155.607 13.1547L154.533 11.2984L152.802 12.3003ZM154.951 16.0128L155.488 16.9409L157.219 15.9391L156.682 15.0109L154.951 16.0128ZM155.451 16.8717L155.828 17.6592L157.632 16.7958L157.255 16.0083L155.451 16.8717ZM156.582 19.2342L157.336 20.8092L159.14 19.9458L158.386 18.3708L156.582 19.2342ZM158.089 22.3842L158.466 23.1717L160.27 22.3083L159.893 21.5208L158.089 22.3842ZM159.368 23.74H159.402V21.74H159.368V23.74ZM159.469 23.74H159.503V21.74H159.469V23.74ZM160.503 22.74V21.6825H158.503V22.74H160.503ZM160.503 19.5675V17.4525H158.503V19.5675H160.503ZM160.503 15.3375V13.2225H158.503V15.3375H160.503ZM160.503 11.1075V8.9925H158.503V11.1075H160.503ZM160.503 6.8775V4.7625H158.503V6.8775H160.503ZM160.503 2.6475V1.59H158.503V2.6475H160.503ZM159.503 2.59H160.308V0.589999H159.503V2.59ZM161.916 2.59H163.525V0.589999H161.916V2.59ZM165.134 2.59H165.938V0.589999H165.134V2.59ZM164.938 1.59V2.57156H166.938V1.59H164.938ZM164.938 4.53469V6.49781H166.938V4.53469H164.938ZM164.938 8.46094V10.4241H166.938V8.46094H164.938ZM164.938 12.3872V14.3503H166.938V12.3872H164.938ZM164.938 16.3134V18.2766H166.938V16.3134H164.938ZM164.938 20.2397V22.2028H166.938V20.2397H164.938ZM164.938 24.1659V26.1291H166.938V24.1659H164.938ZM164.938 28.0922V30.0553H166.938V28.0922H164.938ZM164.938 32.0184V33H166.938V32.0184H164.938ZM165.938 32H165.004V34H165.938V32ZM163.137 32H161.269V34H163.137V32ZM159.402 32H158.468V34H159.402V32ZM159.334 32.4991L158.797 31.5709L157.066 32.5728L157.603 33.5009L159.334 32.4991ZM157.722 29.7147L156.648 27.8584L154.917 28.8603L155.991 30.7166L157.722 29.7147ZM155.573 26.0022L154.499 24.1459L152.768 25.1478L153.842 27.0041L155.573 26.0022ZM153.425 22.2897L152.35 20.4334L150.619 21.4353L151.694 23.2916L153.425 22.2897ZM151.276 18.5772L150.739 17.6491L149.008 18.6509L149.545 19.5791L151.276 18.5772Z" fill="#DADADA"></path> </svg> 