<?xml version="1.0" encoding="UTF-8"?> <svg xmlns="http://www.w3.org/2000/svg" width="198" height="35" viewBox="0 0 198 35" fill="none"> <path d="M16.56 7.665V7.165H16.06V7.665H16.56ZM16.56 33V33.5H17.06V33H16.56ZM9.72 33H9.22V33.5H9.72V33ZM9.72 7.665H10.22V7.165H9.72V7.665ZM1.215 7.665H0.715V8.165H1.215V7.665ZM1.215 1.59V1.09H0.715V1.59H1.215ZM25.065 1.59H25.565V1.09H25.065V1.59ZM25.065 7.665V8.165H25.565V7.665H25.065ZM16.06 7.665V8.72062H17.06V7.665H16.06ZM16.06 10.8319V12.9431H17.06V10.8319H16.06ZM16.06 15.0544V17.1656H17.06V15.0544H16.06ZM16.06 19.2769V21.3881H17.06V19.2769H16.06ZM16.06 23.4994V25.6106H17.06V23.4994H16.06ZM16.06 27.7219V29.8331H17.06V27.7219H16.06ZM16.06 31.9444V33H17.06V31.9444H16.06ZM16.56 32.5H15.705V33.5H16.56V32.5ZM13.995 32.5H12.285V33.5H13.995V32.5ZM10.575 32.5H9.72V33.5H10.575V32.5ZM10.22 33V31.9444H9.22V33H10.22ZM10.22 29.8331V27.7219H9.22V29.8331H10.22ZM10.22 25.6106V23.4994H9.22V25.6106H10.22ZM10.22 21.3881V19.2769H9.22V21.3881H10.22ZM10.22 17.1656V15.0544H9.22V17.1656H10.22ZM10.22 12.9431V10.8319H9.22V12.9431H10.22ZM10.22 8.72062V7.665H9.22V8.72062H10.22ZM9.72 7.165H8.65688V8.165H9.72V7.165ZM6.53063 7.165H4.40438V8.165H6.53063V7.165ZM2.27812 7.165H1.215V8.165H2.27812V7.165ZM1.715 7.665V6.90562H0.715V7.665H1.715ZM1.715 5.38687V3.86812H0.715V5.38687H1.715ZM1.715 2.34937V1.59H0.715V2.34937H1.715ZM1.215 2.09H2.20875V1.09H1.215V2.09ZM4.19625 2.09H6.18375V1.09H4.19625V2.09ZM8.17125 2.09H10.1588V1.09H8.17125V2.09ZM12.1463 2.09H14.1338V1.09H12.1463V2.09ZM16.1213 2.09H18.1088V1.09H16.1213V2.09ZM20.0963 2.09H22.0838V1.09H20.0963V2.09ZM24.0712 2.09H25.065V1.09H24.0712V2.09ZM24.565 1.59V2.34937H25.565V1.59H24.565ZM24.565 3.86812V5.38687H25.565V3.86812H24.565ZM24.565 6.90562V7.665H25.565V6.90562H24.565ZM25.065 7.165H24.0019V8.165H25.065V7.165ZM21.8756 7.165H19.7494V8.165H21.8756V7.165ZM17.6231 7.165H16.56V8.165H17.6231V7.165ZM16.56 7.665V6.665H15.56V7.665H16.56ZM16.56 33V34H17.56V33H16.56ZM9.72 33H8.72V34H9.72V33ZM9.72 7.665H10.72V6.665H9.72V7.665ZM1.215 7.665H0.215V8.665H1.215V7.665ZM1.215 1.59V0.589999H0.215V1.59H1.215ZM25.065 1.59H26.065V0.589999H25.065V1.59ZM25.065 7.665V8.665H26.065V7.665H25.065ZM15.56 7.665V8.72062H17.56V7.665H15.56ZM15.56 10.8319V12.9431H17.56V10.8319H15.56ZM15.56 15.0544V17.1656H17.56V15.0544H15.56ZM15.56 19.2769V21.3881H17.56V19.2769H15.56ZM15.56 23.4994V25.6106H17.56V23.4994H15.56ZM15.56 27.7219V29.8331H17.56V27.7219H15.56ZM15.56 31.9444V33H17.56V31.9444H15.56ZM16.56 32H15.705V34H16.56V32ZM13.995 32H12.285V34H13.995V32ZM10.575 32H9.72V34H10.575V32ZM10.72 33V31.9444H8.72V33H10.72ZM10.72 29.8331V27.7219H8.72V29.8331H10.72ZM10.72 25.6106V23.4994H8.72V25.6106H10.72ZM10.72 21.3881V19.2769H8.72V21.3881H10.72ZM10.72 17.1656V15.0544H8.72V17.1656H10.72ZM10.72 12.9431V10.8319H8.72V12.9431H10.72ZM10.72 8.72062V7.665H8.72V8.72062H10.72ZM9.72 6.665H8.65688V8.665H9.72V6.665ZM6.53063 6.665H4.40438V8.665H6.53063V6.665ZM2.27812 6.665H1.215V8.665H2.27812V6.665ZM2.215 7.665V6.90562H0.215V7.665H2.215ZM2.215 5.38687V3.86812H0.215V5.38687H2.215ZM2.215 2.34937V1.59H0.215V2.34937H2.215ZM1.215 2.59H2.20875V0.589999H1.215V2.59ZM4.19625 2.59H6.18375V0.589999H4.19625V2.59ZM8.17125 2.59H10.1588V0.589999H8.17125V2.59ZM12.1463 2.59H14.1338V0.589999H12.1463V2.59ZM16.1213 2.59H18.1088V0.589999H16.1213V2.59ZM20.0963 2.59H22.0838V0.589999H20.0963V2.59ZM24.0712 2.59H25.065V0.589999H24.0712V2.59ZM24.065 1.59V2.34937H26.065V1.59H24.065ZM24.065 3.86812V5.38687H26.065V3.86812H24.065ZM24.065 6.90562V7.665H26.065V6.90562H24.065ZM25.065 6.665H24.0019V8.665H25.065V6.665ZM21.8756 6.665H19.7494V8.665H21.8756V6.665ZM17.6231 6.665H16.56V8.665H17.6231V6.665ZM36.5843 33V33.5H37.0843V33H36.5843ZM29.7443 33H29.2443V33.5H29.7443V33ZM29.7443 1.59V1.09H29.2443V1.59H29.7443ZM48.5543 2.31L48.7441 1.84741L48.7441 1.84741L48.5543 2.31ZM51.5243 4.38L51.1527 4.71448L51.1585 4.72099L51.1646 4.7273L51.5243 4.38ZM52.6943 17.205L52.2662 16.9465L52.2627 16.9526L52.6943 17.205ZM48.4193 20.67L48.2437 20.2018L47.7237 20.3968L47.9721 20.8936L48.4193 20.67ZM54.5843 33V33.5H55.3933L55.0315 32.7764L54.5843 33ZM46.9793 33L46.5279 33.2151L46.6637 33.5H46.9793V33ZM41.4893 21.48L41.9407 21.2649L41.8049 20.98H41.4893V21.48ZM36.5843 21.48V20.98H36.0843V21.48H36.5843ZM46.1693 14.955L46.5027 15.3276L46.5038 15.3266L46.1693 14.955ZM46.1693 8.34L45.8254 8.70297L45.8352 8.71224L45.8455 8.72097L46.1693 8.34ZM36.5843 7.53V7.03H36.0843V7.53H36.5843ZM36.5843 15.72H36.0843V16.22H36.5843V15.72ZM36.5843 32.5H35.7293V33.5H36.5843V32.5ZM34.0193 32.5H32.3093V33.5H34.0193V32.5ZM30.5993 32.5H29.7443V33.5H30.5993V32.5ZM30.2443 33V32.0184H29.2443V33H30.2443ZM30.2443 30.0553V28.0922H29.2443V30.0553H30.2443ZM30.2443 26.1291V24.1659H29.2443V26.1291H30.2443ZM30.2443 22.2028V20.2397H29.2443V22.2028H30.2443ZM30.2443 18.2766V16.3134H29.2443V18.2766H30.2443ZM30.2443 14.3503V12.3872H29.2443V14.3503H30.2443ZM30.2443 10.4241V8.46094H29.2443V10.4241H30.2443ZM30.2443 6.49781V4.53469H29.2443V6.49781H30.2443ZM30.2443 2.57156V1.59H29.2443V2.57156H30.2443ZM29.7443 2.09H30.6752V1.09H29.7443V2.09ZM32.5371 2.09H34.399V1.09H32.5371V2.09ZM36.2609 2.09H38.1227V1.09H36.2609V2.09ZM39.9846 2.09H41.8465V1.09H39.9846V2.09ZM43.7084 2.09H44.6393V1.09H43.7084V2.09ZM44.6393 2.09C44.9672 2.09 45.287 2.10294 45.5986 2.1287L45.681 1.13209C45.3408 1.10398 44.9935 1.09 44.6393 1.09V2.09ZM47.471 2.46334C47.7781 2.55107 48.0759 2.65418 48.3645 2.77258L48.7441 1.84741C48.4205 1.71468 48.0877 1.59951 47.7457 1.50181L47.471 2.46334ZM48.3645 2.77258C48.6347 2.88341 48.8939 3.00578 49.1425 3.1396L49.6165 2.25911C49.3364 2.10829 49.0455 1.9711 48.7441 1.84741L48.3645 2.77258ZM50.5454 4.11326C50.7584 4.30096 50.9608 4.50133 51.1527 4.71448L51.8959 4.04552C51.6785 3.80394 51.4487 3.5764 51.2065 3.36299L50.5454 4.11326ZM51.1646 4.7273C51.3669 4.93685 51.5573 5.15756 51.7356 5.38952L52.5283 4.77993C52.3272 4.5184 52.1124 4.2693 51.884 4.0327L51.1646 4.7273ZM52.6482 6.88637C52.7725 7.14753 52.8864 7.41929 52.9897 7.70179L53.9289 7.35821C53.8152 7.04745 53.6893 6.74688 53.5512 6.45665L52.6482 6.88637ZM52.9897 7.70179C53.1019 8.00831 53.1995 8.32421 53.2825 8.64961L54.2515 8.40236C54.1604 8.04518 54.0528 7.69709 53.9289 7.35821L52.9897 7.70179ZM53.5979 10.6199C53.6221 10.9469 53.6343 11.2819 53.6343 11.625H54.6343C54.6343 11.2582 54.6213 10.8985 54.5951 10.5459L53.5979 10.6199ZM53.6343 11.625C53.6343 12.1077 53.6088 12.5744 53.558 13.0253L54.5517 13.1371C54.6069 12.647 54.6343 12.1429 54.6343 11.625H53.6343ZM52.8861 15.7132C52.7104 16.1421 52.5038 16.5531 52.2663 16.9466L53.1223 17.4634C53.3867 17.0256 53.6164 16.5684 53.8115 16.0922L52.8861 15.7132ZM52.2627 16.9526C52.0388 17.3353 51.7849 17.6902 51.5009 18.0178L52.2564 18.6729C52.5816 18.2978 52.8714 17.8925 53.1259 17.4574L52.2627 16.9526ZM49.4552 19.6493C49.0795 19.8555 48.6759 20.0398 48.2437 20.2018L48.5949 21.1382C49.0688 20.9604 49.5161 20.7566 49.9362 20.526L49.4552 19.6493ZM47.9721 20.8936L48.4858 21.9211L49.3803 21.4739L48.8665 20.4464L47.9721 20.8936ZM49.5133 23.9761L50.5408 26.0311L51.4353 25.5839L50.4078 23.5289L49.5133 23.9761ZM51.5683 28.0861L52.5958 30.1411L53.4903 29.6939L52.4628 27.6389L51.5683 28.0861ZM53.6233 32.1961L54.1371 33.2236L55.0315 32.7764L54.5178 31.7489L53.6233 32.1961ZM54.5843 32.5H53.6337V33.5H54.5843V32.5ZM51.7324 32.5H49.8312V33.5H51.7324V32.5ZM47.9299 32.5H46.9793V33.5H47.9299V32.5ZM47.4307 32.7849L46.9732 31.8249L46.0704 32.2551L46.5279 33.2151L47.4307 32.7849ZM46.0582 29.9049L45.1432 27.9849L44.2404 28.4151L45.1554 30.3351L46.0582 29.9049ZM44.2282 26.0649L43.3132 24.1449L42.4104 24.5751L43.3254 26.4951L44.2282 26.0649ZM42.3982 22.2249L41.9407 21.2649L41.0379 21.6951L41.4954 22.6551L42.3982 22.2249ZM41.4893 20.98H40.263V21.98H41.4893V20.98ZM37.8105 20.98H36.5843V21.98H37.8105V20.98ZM36.0843 21.48V22.44H37.0843V21.48H36.0843ZM36.0843 24.36V26.28H37.0843V24.36H36.0843ZM36.0843 28.2V30.12H37.0843V28.2H36.0843ZM36.0843 32.04V33H37.0843V32.04H36.0843ZM43.7843 15.22H42.8843V16.22H43.7843V15.22ZM41.0843 15.22H39.2843V16.22H41.0843V15.22ZM37.4843 15.22H36.5843V16.22H37.4843V15.22ZM37.0843 15.72V14.6962H36.0843V15.72H37.0843ZM37.0843 12.6487V10.6012H36.0843V12.6487H37.0843ZM37.0843 8.55375V7.53H36.0843V8.55375H37.0843ZM36.5843 8.03H37.4843V7.03H36.5843V8.03ZM39.2843 8.03H41.0843V7.03H39.2843V8.03ZM42.8843 8.03H43.7843V7.03H42.8843V8.03ZM43.7843 8.03C43.9905 8.03 44.1835 8.04208 44.3639 8.06548L44.4926 7.0738C44.2656 7.04435 44.0294 7.03 43.7843 7.03V8.03ZM45.4049 8.39269C45.5596 8.48027 45.6994 8.58363 45.8254 8.70297L46.5132 7.97702C46.3274 7.80104 46.1219 7.64945 45.8975 7.52246L45.4049 8.39269ZM45.8455 8.72097C45.9742 8.83041 46.0847 8.95397 46.1778 9.09243L47.0075 8.53413C46.8629 8.31926 46.6911 8.1273 46.4931 7.95903L45.8455 8.72097ZM46.5311 10.0718C46.5562 10.2449 46.5693 10.4324 46.5693 10.635H47.5693C47.5693 10.3896 47.5535 10.1538 47.5207 9.9282L46.5311 10.0718ZM46.5693 10.635V11.13H47.5693V10.635H46.5693ZM46.5693 12.12V12.615H47.5693V12.12H46.5693ZM46.5693 12.615C46.5693 12.82 46.5559 13.0105 46.5301 13.1872L47.5196 13.3317C47.5531 13.1024 47.5693 12.8634 47.5693 12.615H46.5693ZM46.1709 14.192C46.0765 14.3361 45.9648 14.4663 45.8348 14.5834L46.5038 15.3266C46.6973 15.1525 46.8656 14.9566 47.0075 14.7397L46.1709 14.192ZM45.8359 14.5824C45.7091 14.6958 45.5675 14.7945 45.41 14.8782L45.8791 15.7613C46.1059 15.6409 46.3141 15.4963 46.5027 15.3276L45.8359 14.5824ZM44.3632 15.1868C44.1828 15.2087 43.99 15.22 43.7843 15.22V16.22C44.0264 16.22 44.2597 16.2067 44.4838 16.1795L44.3632 15.1868ZM36.5843 33V34H37.5843V33H36.5843ZM29.7443 33H28.7443V34H29.7443V33ZM29.7443 1.59V0.589999H28.7443V1.59H29.7443ZM48.5543 2.31L48.9339 1.38483L48.9339 1.38483L48.5543 2.31ZM51.5243 4.38L50.781 5.04896L50.7927 5.06199L50.8049 5.07459L51.5243 4.38ZM52.6943 17.205L51.8381 16.6881L51.8311 16.7001L52.6943 17.205ZM48.4193 20.67L48.0682 19.7337L47.0281 20.1237L47.5249 21.1172L48.4193 20.67ZM54.5843 33V34H56.2023L55.4787 32.5528L54.5843 33ZM46.9793 33L46.0766 33.4302L46.3481 34H46.9793V33ZM41.4893 21.48L42.392 21.0498L42.1205 20.48H41.4893V21.48ZM36.5843 21.48V20.48H35.5843V21.48H36.5843ZM46.1693 14.955L46.8361 15.7002L46.8383 15.6983L46.1693 14.955ZM46.1693 8.34L45.4816 9.06595L45.5011 9.08448L45.5216 9.10194L46.1693 8.34ZM36.5843 7.53V6.53H35.5843V7.53H36.5843ZM36.5843 15.72H35.5843V16.72H36.5843V15.72ZM36.5843 32H35.7293V34H36.5843V32ZM34.0193 32H32.3093V34H34.0193V32ZM30.5993 32H29.7443V34H30.5993V32ZM30.7443 33V32.0184H28.7443V33H30.7443ZM30.7443 30.0553V28.0922H28.7443V30.0553H30.7443ZM30.7443 26.1291V24.1659H28.7443V26.1291H30.7443ZM30.7443 22.2028V20.2397H28.7443V22.2028H30.7443ZM30.7443 18.2766V16.3134H28.7443V18.2766H30.7443ZM30.7443 14.3503V12.3872H28.7443V14.3503H30.7443ZM30.7443 10.4241V8.46094H28.7443V10.4241H30.7443ZM30.7443 6.49781V4.53469H28.7443V6.49781H30.7443ZM30.7443 2.57156V1.59H28.7443V2.57156H30.7443ZM29.7443 2.59H30.6752V0.589999H29.7443V2.59ZM32.5371 2.59H34.399V0.589999H32.5371V2.59ZM36.2609 2.59H38.1227V0.589999H36.2609V2.59ZM39.9846 2.59H41.8465V0.589999H39.9846V2.59ZM43.7084 2.59H44.6393V0.589999H43.7084V2.59ZM44.6393 2.59C44.9541 2.59 45.2601 2.60243 45.5575 2.627L45.7222 0.633789C45.3677 0.604503 45.0067 0.589999 44.6393 0.589999V2.59ZM47.3337 2.9441C47.6234 3.02686 47.9036 3.12394 48.1747 3.23517L48.9339 1.38483C48.5929 1.24493 48.2425 1.12373 47.8831 1.02104L47.3337 2.9441ZM48.1747 3.23517C48.4292 3.33957 48.6727 3.45453 48.9054 3.57984L49.8536 1.81887C49.5577 1.65955 49.251 1.51494 48.9339 1.38483L48.1747 3.23517ZM50.2148 4.4884C50.4133 4.66325 50.602 4.85003 50.781 5.04896L52.2676 3.71103C52.0374 3.45525 51.7939 3.21411 51.5371 2.98785L50.2148 4.4884ZM50.8049 5.07459C50.9942 5.27063 51.1723 5.47714 51.3393 5.69431L52.9247 4.47514C52.7122 4.19882 52.4852 3.93552 52.2437 3.6854L50.8049 5.07459ZM52.1967 7.10124C52.3141 7.34785 52.422 7.60521 52.5202 7.87358L54.3984 7.18642C54.2796 6.86152 54.1477 6.54656 54.0027 6.24178L52.1967 7.10124ZM52.5202 7.87358C52.6264 8.16392 52.7191 8.46372 52.7981 8.77323L54.736 8.27873C54.6408 7.90567 54.5283 7.54149 54.3984 7.18642L52.5202 7.87358ZM53.0992 10.6568C53.1225 10.9711 53.1343 11.2937 53.1343 11.625H55.1343C55.1343 11.2464 55.1209 10.8744 55.0938 10.509L53.0992 10.6568ZM53.1343 11.625C53.1343 12.09 53.1097 12.538 53.0611 12.9693L55.0486 13.1931C55.1059 12.6834 55.1343 12.1606 55.1343 11.625H53.1343ZM52.4234 15.5237C52.2574 15.9289 52.0624 16.3169 51.8382 16.6881L53.5504 17.7219C53.8281 17.2618 54.0694 16.7816 54.2741 16.2817L52.4234 15.5237ZM51.8311 16.7001C51.6225 17.0567 51.3865 17.3864 51.1231 17.6902L52.6342 19.0004C52.98 18.6016 53.2878 18.171 53.5575 17.7099L51.8311 16.7001ZM49.2147 19.211C48.8612 19.4049 48.4795 19.5794 48.0682 19.7337L48.7704 21.6063C49.2652 21.4208 49.7344 21.2071 50.1767 20.9644L49.2147 19.211ZM47.5249 21.1172L48.0386 22.1447L49.8275 21.2503L49.3137 20.2228L47.5249 21.1172ZM49.0661 24.1997L50.0936 26.2547L51.8825 25.3603L50.855 23.3053L49.0661 24.1997ZM51.1211 28.3097L52.1486 30.3647L53.9375 29.4703L52.91 27.4153L51.1211 28.3097ZM53.1761 32.4197L53.6899 33.4472L55.4787 32.5528L54.965 31.5253L53.1761 32.4197ZM54.5843 32H53.6337V34H54.5843V32ZM51.7324 32H49.8312V34H51.7324V32ZM47.9299 32H46.9793V34H47.9299V32ZM47.882 32.5698L47.4245 31.6098L45.6191 32.4702L46.0766 33.4302L47.882 32.5698ZM46.5095 29.6898L45.5945 27.7698L43.7891 28.6302L44.7041 30.5502L46.5095 29.6898ZM44.6795 25.8498L43.7645 23.9298L41.9591 24.7902L42.8741 26.7102L44.6795 25.8498ZM42.8495 22.0098L42.392 21.0498L40.5866 21.9102L41.0441 22.8702L42.8495 22.0098ZM41.4893 20.48H40.263V22.48H41.4893V20.48ZM37.8105 20.48H36.5843V22.48H37.8105V20.48ZM35.5843 21.48V22.44H37.5843V21.48H35.5843ZM35.5843 24.36V26.28H37.5843V24.36H35.5843ZM35.5843 28.2V30.12H37.5843V28.2H35.5843ZM35.5843 32.04V33H37.5843V32.04H35.5843ZM43.7843 14.72H42.8843V16.72H43.7843V14.72ZM41.0843 14.72H39.2843V16.72H41.0843V14.72ZM37.4843 14.72H36.5843V16.72H37.4843V14.72ZM37.5843 15.72V14.6962H35.5843V15.72H37.5843ZM37.5843 12.6487V10.6012H35.5843V12.6487H37.5843ZM37.5843 8.55375V7.53H35.5843V8.55375H37.5843ZM36.5843 8.53H37.4843V6.53H36.5843V8.53ZM39.2843 8.53H41.0843V6.53H39.2843V8.53ZM42.8843 8.53H43.7843V6.53H42.8843V8.53ZM43.7843 8.53C43.9711 8.53 44.1425 8.54095 44.2995 8.56132L44.5569 6.57796C44.3067 6.54548 44.0488 6.53 43.7843 6.53V8.53ZM45.1586 8.82781C45.2785 8.89568 45.3855 8.97492 45.4816 9.06595L46.857 7.61405C46.6414 7.40975 46.403 7.23405 46.1439 7.08734L45.1586 8.82781ZM45.5216 9.10194C45.6158 9.18197 45.6956 9.27132 45.763 9.37158L47.4223 8.25499C47.252 8.00191 47.0495 7.77574 46.8169 7.57806L45.5216 9.10194ZM46.0363 10.1436C46.0576 10.2905 46.0693 10.4538 46.0693 10.635H48.0693C48.0693 10.3682 48.0521 10.1082 48.0155 9.8564L46.0363 10.1436ZM46.0693 10.635V11.13H48.0693V10.635H46.0693ZM46.0693 12.12V12.615H48.0693V12.12H46.0693ZM46.0693 12.615C46.0693 12.7983 46.0573 12.9645 46.0353 13.115L48.0144 13.4039C48.0517 13.1484 48.0693 12.885 48.0693 12.615H46.0693ZM45.7525 13.9181C45.682 14.0258 45.5986 14.1233 45.5003 14.2117L46.8383 15.6983C47.0636 15.4955 47.2601 15.2669 47.4259 15.0136L45.7525 13.9181ZM45.5025 14.2098C45.4066 14.2956 45.2984 14.3713 45.1755 14.4366L46.1137 16.2029C46.375 16.064 46.6166 15.8966 46.8361 15.7002L45.5025 14.2098ZM44.3028 14.6904C44.1443 14.7097 43.9718 14.72 43.7843 14.72V16.72C44.0446 16.72 44.2982 16.7057 44.5441 16.6758L44.3028 14.6904ZM79.4166 33L78.9378 33.1442L79.045 33.5H79.4166V33ZM77.1666 25.53L77.6453 25.3858L77.5381 25.03H77.1666V25.53ZM66.6816 25.53V25.03H66.31L66.2028 25.3858L66.6816 25.53ZM64.4316 33V33.5H64.8031L64.9103 33.1442L64.4316 33ZM57.5016 33L57.0267 32.8435L56.8104 33.5H57.5016V33ZM67.8516 1.59V1.09H67.4899L67.3767 1.43352L67.8516 1.59ZM76.3116 1.59L76.7871 1.43536L76.6747 1.09H76.3116V1.59ZM86.5266 33V33.5H87.2149L87.0021 32.8454L86.5266 33ZM71.9916 7.8L72.4712 7.65882L72.3656 7.3H71.9916V7.8ZM71.7666 7.8V7.3H71.3912L71.2864 7.66049L71.7666 7.8ZM68.3016 19.725L67.8214 19.5855L67.6356 20.225H68.3016V19.725ZM75.5016 19.725V20.225H76.1699L75.9812 19.5838L75.5016 19.725ZM79.8953 32.8558L79.6141 31.922L78.6566 32.2105L78.9378 33.1442L79.8953 32.8558ZM79.0516 30.0545L78.4891 28.187L77.5316 28.4755L78.0941 30.343L79.0516 30.0545ZM77.9266 26.3195L77.6453 25.3858L76.6878 25.6742L76.9691 26.608L77.9266 26.3195ZM77.1666 25.03H76.2928V26.03H77.1666V25.03ZM74.5453 25.03H72.7978V26.03H74.5453V25.03ZM71.0503 25.03H69.3028V26.03H71.0503V25.03ZM67.5553 25.03H66.6816V26.03H67.5553V25.03ZM66.2028 25.3858L65.9216 26.3195L66.8791 26.608L67.1603 25.6742L66.2028 25.3858ZM65.3591 28.187L64.7966 30.0545L65.7541 30.343L66.3166 28.4755L65.3591 28.187ZM64.2341 31.922L63.9528 32.8558L64.9103 33.1442L65.1916 32.2105L64.2341 31.922ZM64.4316 32.5H63.5653V33.5H64.4316V32.5ZM61.8328 32.5H60.1003V33.5H61.8328V32.5ZM58.3678 32.5H57.5016V33.5H58.3678V32.5ZM57.9764 33.1565L58.2999 32.1749L57.3501 31.862L57.0267 32.8435L57.9764 33.1565ZM58.9468 30.2118L59.5936 28.2487L58.6439 27.9357L57.997 29.8988L58.9468 30.2118ZM60.2405 26.2855L60.8874 24.3224L59.9376 24.0095L59.2907 25.9726L60.2405 26.2855ZM61.5343 22.3593L62.1811 20.3962L61.2314 20.0832L60.5845 22.0463L61.5343 22.3593ZM62.828 18.433L63.4749 16.4699L62.5251 16.157L61.8782 18.1201L62.828 18.433ZM64.1218 14.5068L64.7686 12.5437L63.8189 12.2307L63.172 14.1938L64.1218 14.5068ZM65.4155 10.5805L66.0624 8.61742L65.1126 8.30446L64.4657 10.2676L65.4155 10.5805ZM66.7093 6.6543L67.3561 4.69117L66.4064 4.37821L65.7595 6.34134L66.7093 6.6543ZM68.003 2.72805L68.3264 1.74648L67.3767 1.43352L67.0532 2.41509L68.003 2.72805ZM67.8516 2.09H68.9091V1.09H67.8516V2.09ZM71.0241 2.09H73.1391V1.09H71.0241V2.09ZM75.2541 2.09H76.3116V1.09H75.2541V2.09ZM75.8361 1.74463L76.1553 2.7262L77.1063 2.41693L76.7871 1.43536L75.8361 1.74463ZM76.7937 4.68932L77.4322 6.65245L78.3831 6.34318L77.7447 4.38005L76.7937 4.68932ZM78.0706 8.61557L78.709 10.5787L79.66 10.2694L79.0216 8.3063L78.0706 8.61557ZM79.3475 12.5418L79.9859 14.5049L80.9369 14.1957L80.2985 12.2326L79.3475 12.5418ZM80.6244 16.4681L81.2628 18.4312L82.2138 18.1219L81.5753 16.1588L80.6244 16.4681ZM81.9012 20.3943L82.5397 22.3574L83.4906 22.0482L82.8522 20.0851L81.9012 20.3943ZM83.1781 24.3206L83.8165 26.2837L84.7675 25.9744L84.1291 24.0113L83.1781 24.3206ZM84.455 28.2468L85.0934 30.2099L86.0444 29.9007L85.406 27.9376L84.455 28.2468ZM85.7319 32.1731L86.0511 33.1546L87.0021 32.8454L86.6828 31.8638L85.7319 32.1731ZM86.5266 32.5H85.6378V33.5H86.5266V32.5ZM83.8603 32.5H82.0828V33.5H83.8603V32.5ZM80.3053 32.5H79.4166V33.5H80.3053V32.5ZM71.9916 7.3H71.9353V8.3H71.9916V7.3ZM71.8228 7.3H71.7666V8.3H71.8228V7.3ZM71.2864 7.66049L70.9977 8.65424L71.958 8.93326L72.2467 7.93951L71.2864 7.66049ZM70.4202 10.6417L69.8427 12.6292L70.803 12.9083L71.3805 10.9208L70.4202 10.6417ZM69.2652 14.6167L68.6877 16.6042L69.648 16.8833L70.2255 14.8958L69.2652 14.6167ZM68.1102 18.5917L67.8214 19.5855L68.7817 19.8645L69.0705 18.8708L68.1102 18.5917ZM68.3016 20.225H69.2016V19.225H68.3016V20.225ZM71.0016 20.225H72.8016V19.225H71.0016V20.225ZM74.6016 20.225H75.5016V19.225H74.6016V20.225ZM75.9812 19.5838L75.6887 18.5901L74.7294 18.8724L75.0219 19.8662L75.9812 19.5838ZM75.1037 16.6026L74.5187 14.6151L73.5594 14.8974L74.1444 16.8849L75.1037 16.6026ZM73.9337 12.6276L73.3487 10.6401L72.3894 10.9224L72.9744 12.9099L73.9337 12.6276ZM72.7637 8.65257L72.4712 7.65882L71.5119 7.94118L71.8044 8.93493L72.7637 8.65257ZM79.4166 33L78.4591 33.2884L78.6734 34H79.4166V33ZM77.1666 25.53L78.1241 25.2416L77.9097 24.53H77.1666V25.53ZM66.6816 25.53V24.53H65.9384L65.7241 25.2416L66.6816 25.53ZM64.4316 33V34H65.1747L65.3891 33.2884L64.4316 33ZM57.5016 33L56.5518 32.687L56.1192 34H57.5016V33ZM67.8516 1.59V0.589999H67.1282L66.9018 1.27704L67.8516 1.59ZM76.3116 1.59L77.2625 1.28073L77.0379 0.589999H76.3116V1.59ZM86.5266 33V34H87.9033L87.4775 32.6907L86.5266 33ZM71.9916 7.8L72.9509 7.51764L72.7396 6.8H71.9916V7.8ZM71.7666 7.8V6.8H71.0158L70.8063 7.52097L71.7666 7.8ZM68.3016 19.725L67.3413 19.446L66.9696 20.725H68.3016V19.725ZM75.5016 19.725V20.725H76.8383L76.4609 19.4426L75.5016 19.725ZM80.3741 32.7116L80.0928 31.7778L78.1778 32.3547L78.4591 33.2884L80.3741 32.7116ZM79.5303 29.9103L78.9678 28.0428L77.0528 28.6197L77.6153 30.4872L79.5303 29.9103ZM78.4053 26.1753L78.1241 25.2416L76.2091 25.8184L76.4903 26.7522L78.4053 26.1753ZM77.1666 24.53H76.2928V26.53H77.1666V24.53ZM74.5453 24.53H72.7978V26.53H74.5453V24.53ZM71.0503 24.53H69.3028V26.53H71.0503V24.53ZM67.5553 24.53H66.6816V26.53H67.5553V24.53ZM65.7241 25.2416L65.4428 26.1753L67.3578 26.7522L67.6391 25.8184L65.7241 25.2416ZM64.8803 28.0428L64.3178 29.9103L66.2328 30.4872L66.7953 28.6197L64.8803 28.0428ZM63.7553 31.7778L63.4741 32.7116L65.3891 33.2884L65.6703 32.3547L63.7553 31.7778ZM64.4316 32H63.5653V34H64.4316V32ZM61.8328 32H60.1003V34H61.8328V32ZM58.3678 32H57.5016V34H58.3678V32ZM58.4513 33.313L58.7748 32.3314L56.8752 31.7055L56.5518 32.687L58.4513 33.313ZM59.4216 30.3683L60.0685 28.4051L58.169 27.7792L57.5221 29.7424L59.4216 30.3683ZM60.7154 26.442L61.3623 24.4789L59.4627 23.853L58.8159 25.8161L60.7154 26.442ZM62.0091 22.5158L62.656 20.5526L60.7565 19.9267L60.1096 21.8899L62.0091 22.5158ZM63.3029 18.5895L63.9498 16.6264L62.0502 16.0005L61.4034 17.9636L63.3029 18.5895ZM64.5966 14.6633L65.2435 12.7002L63.344 12.0742L62.6971 14.0374L64.5966 14.6633ZM65.8904 10.737L66.5373 8.7739L64.6377 8.14798L63.9909 10.1111L65.8904 10.737ZM67.1841 6.81078L67.831 4.84765L65.9315 4.22173L65.2846 6.18486L67.1841 6.81078ZM68.4779 2.88453L68.8013 1.90296L66.9018 1.27704L66.5784 2.25861L68.4779 2.88453ZM67.8516 2.59H68.9091V0.589999H67.8516V2.59ZM71.0241 2.59H73.1391V0.589999H71.0241V2.59ZM75.2541 2.59H76.3116V0.589999H75.2541V2.59ZM75.3606 1.89927L75.6798 2.88083L77.5818 2.26229L77.2625 1.28073L75.3606 1.89927ZM76.3182 4.84396L76.9567 6.80708L78.8586 6.18854L78.2202 4.22542L76.3182 4.84396ZM77.5951 8.77021L78.2336 10.7333L80.1355 10.1148L79.4971 8.15167L77.5951 8.77021ZM78.872 12.6965L79.5104 14.6596L81.4124 14.041L80.7739 12.0779L78.872 12.6965ZM80.1489 16.6227L80.7873 18.5858L82.6893 17.9673L82.0508 16.0042L80.1489 16.6227ZM81.4257 20.549L82.0642 22.5121L83.9661 21.8935L83.3277 19.9304L81.4257 20.549ZM82.7026 24.4752L83.3411 26.4383L85.243 25.8198L84.6046 23.8567L82.7026 24.4752ZM83.9795 28.4015L84.6179 30.3646L86.5199 29.746L85.8814 27.7829L83.9795 28.4015ZM85.2564 32.3277L85.5756 33.3093L87.4775 32.6907L87.1583 31.7092L85.2564 32.3277ZM86.5266 32H85.6378V34H86.5266V32ZM83.8603 32H82.0828V34H83.8603V32ZM80.3053 32H79.4166V34H80.3053V32ZM71.9916 6.8H71.9353V8.8H71.9916V6.8ZM71.8228 6.8H71.7666V8.8H71.8228V6.8ZM70.8063 7.52097L70.5175 8.51472L72.4381 9.07278L72.7268 8.07903L70.8063 7.52097ZM69.94 10.5022L69.3625 12.4897L71.2831 13.0478L71.8606 11.0603L69.94 10.5022ZM68.785 14.4772L68.2075 16.4647L70.1281 17.0228L70.7056 15.0353L68.785 14.4772ZM67.63 18.4522L67.3413 19.446L69.2618 20.004L69.5506 19.0103L67.63 18.4522ZM68.3016 20.725H69.2016V18.725H68.3016V20.725ZM71.0016 20.725H72.8016V18.725H71.0016V20.725ZM74.6016 20.725H75.5016V18.725H74.6016V20.725ZM76.4609 19.4426L76.1684 18.4489L74.2498 19.0136L74.5423 20.0074L76.4609 19.4426ZM75.5834 16.4614L74.9984 14.4739L73.0798 15.0386L73.6648 17.0261L75.5834 16.4614ZM74.4134 12.4864L73.8284 10.4989L71.9098 11.0636L72.4948 13.0511L74.4134 12.4864ZM73.2434 8.51139L72.9509 7.51764L71.0323 8.08236L71.3248 9.07611L73.2434 8.51139ZM96.4399 32.55L96.2528 33.0137L96.2599 33.0165L96.4399 32.55ZM92.0749 29.535L91.7012 29.8672L91.705 29.8713L92.0749 29.535ZM89.2849 24.54L88.8099 24.696L88.8106 24.6981L89.2849 24.54ZM89.2849 10.5L89.7606 10.6539L89.7613 10.6519L89.2849 10.5ZM92.0749 5.325L92.4522 5.65311L92.4557 5.64906L92.0749 5.325ZM96.4399 2.13L96.2459 1.66918L96.2459 1.66918L96.4399 2.13ZM109.4 2.85L109.132 3.27213L109.137 3.27513L109.4 2.85ZM113.945 8.43L114.175 8.87377L114.594 8.65649L114.401 8.22593L113.945 8.43ZM108.05 11.49L107.573 11.6416L107.753 12.2072L108.28 11.9338L108.05 11.49ZM106.07 8.34L105.729 8.70595L105.736 8.71201L105.742 8.71784L106.07 8.34ZM97.3399 9.105L96.9741 8.76414L96.9738 8.76445L97.3399 9.105ZM97.3399 25.53L96.9698 25.8664L96.9781 25.875L97.3399 25.53ZM106.205 26.115L106.541 26.485L106.542 26.4845L106.205 26.115ZM108.455 22.785L108.706 22.3526L108.193 22.0548L107.986 22.6106L108.455 22.785ZM114.035 26.025L114.484 26.2441L114.688 25.8261L114.286 25.5926L114.035 26.025ZM109.4 31.605L109.682 32.018L109.683 32.017L109.4 31.605ZM102.2 33.04C101.711 33.04 101.234 33.0222 100.77 32.9867L100.694 33.9838C101.185 34.0213 101.687 34.04 102.2 34.04V33.04ZM97.9658 32.5203C97.5024 32.3966 97.0538 32.251 96.62 32.0835L96.2599 33.0165C96.7281 33.1972 97.2108 33.3538 97.7079 33.4865L97.9658 32.5203ZM96.627 32.0863C96.2236 31.9235 95.8356 31.7428 95.4629 31.5442L94.9927 32.4268C95.3974 32.6424 95.8175 32.838 96.2528 33.0137L96.627 32.0863ZM93.3582 30.0951C93.0386 29.8156 92.7341 29.5168 92.4449 29.1987L91.705 29.8713C92.0196 30.2174 92.3513 30.543 92.7 30.8479L93.3582 30.0951ZM92.4486 29.2028C92.1463 28.8627 91.8614 28.5012 91.5941 28.1182L90.7741 28.6906C91.0633 29.1049 91.3723 29.4972 91.7012 29.8672L92.4486 29.2028ZM90.2554 25.6888C90.0759 25.271 89.9104 24.8354 89.7593 24.3819L88.8106 24.6981C88.9702 25.177 89.1455 25.6389 89.3366 26.0836L90.2554 25.6888ZM89.76 24.384C89.6716 24.1148 89.5892 23.8392 89.5128 23.557L88.5475 23.8183C88.6284 24.117 88.7158 24.4096 88.8099 24.696L89.76 24.384ZM89.1406 21.8647C89.0447 21.3107 88.9686 20.7356 88.9125 20.1392L87.9169 20.2329C87.9752 20.8535 88.0546 21.4543 88.1552 22.0353L89.1406 21.8647ZM88.8073 18.3957C88.799 18.1081 88.7949 17.8162 88.7949 17.52H87.7949C87.7949 17.8255 87.7992 18.1269 87.8077 18.4243L88.8073 18.3957ZM88.7949 17.52C88.7949 17.2242 88.7991 16.9325 88.8075 16.6447L87.808 16.6155C87.7993 16.9133 87.7949 17.2148 87.7949 17.52H88.7949ZM88.9143 14.9017C88.9709 14.3072 89.0476 13.7322 89.1442 13.1763L88.1589 13.0052C88.0577 13.5876 87.9777 14.1882 87.9188 14.8069L88.9143 14.9017ZM89.5157 11.4828C89.5915 11.2007 89.6731 10.9245 89.7606 10.6539L88.8092 10.3461C88.7164 10.6331 88.6299 10.9255 88.55 11.2234L89.5157 11.4828ZM89.7613 10.6519C89.9112 10.1819 90.075 9.73111 90.2526 9.29948L89.3279 8.91886C89.1393 9.37698 88.9663 9.85345 88.8085 10.3481L89.7613 10.6519ZM91.5894 6.77876C91.8592 6.37935 92.1469 6.00421 92.4522 5.65309L91.6976 4.99691C91.3649 5.37956 91.0526 5.78697 90.7608 6.21888L91.5894 6.77876ZM92.4557 5.64906C92.7417 5.31299 93.0424 4.99781 93.3578 4.70338L92.6754 3.9724C92.3315 4.29344 92.0044 4.63634 91.6942 5.00094L92.4557 5.64906ZM95.4597 3.16523C95.8355 2.95369 96.2269 2.76219 96.634 2.59082L96.2459 1.66918C95.8045 1.85501 95.3789 2.06318 94.9692 2.29376L95.4597 3.16523ZM96.634 2.59082C97.0646 2.40948 97.5097 2.25171 97.9693 2.1176L97.6893 1.15762C97.1937 1.3022 96.7126 1.47269 96.2459 1.66918L96.634 2.59082ZM100.768 1.60844C101.233 1.56953 101.71 1.55 102.2 1.55V0.549998C101.684 0.549998 101.179 0.570592 100.685 0.611929L100.768 1.60844ZM102.2 1.55C102.512 1.55 102.818 1.55706 103.117 1.57115L103.164 0.572261C102.848 0.557405 102.527 0.549998 102.2 0.549998V1.55ZM104.931 1.75474C105.552 1.85439 106.139 1.99011 106.693 2.1613L106.988 1.20584C106.386 1.01984 105.753 0.87389 105.089 0.767374L104.931 1.75474ZM108.357 2.83057C108.625 2.96697 108.883 3.11417 109.132 3.27211L109.668 2.42789C109.392 2.25265 109.106 2.08978 108.81 1.93925L108.357 2.83057ZM109.137 3.27513C109.381 3.42622 109.618 3.58958 109.85 3.76526L110.455 2.96899C110.198 2.77426 109.934 2.59286 109.663 2.42487L109.137 3.27513ZM111.131 4.93598C111.513 5.35073 111.874 5.80895 112.213 6.31138L113.042 5.75181C112.676 5.21059 112.285 4.71264 111.867 4.25869L111.131 4.93598ZM113.106 7.83305C113.238 8.09135 113.365 8.35834 113.488 8.63406L114.401 8.22593C114.271 7.93512 114.136 7.6526 113.996 7.37843L113.106 7.83305ZM113.715 7.98623L112.978 8.36873L113.438 9.25627L114.175 8.87377L113.715 7.98623ZM111.504 9.13372L110.03 9.89872L110.491 10.7863L111.965 10.0213L111.504 9.13372ZM108.556 10.6637L107.82 11.0462L108.28 11.9338L109.017 11.5513L108.556 10.6637ZM108.526 11.3384C108.423 11.0135 108.305 10.7025 108.173 10.4057L107.26 10.8128C107.376 11.0737 107.481 11.3499 107.573 11.6416L108.526 11.3384ZM107.113 8.68957C106.893 8.42722 106.654 8.18466 106.397 7.96215L105.742 8.71784C105.959 8.90538 106.16 9.11016 106.347 9.33247L107.113 8.68957ZM106.411 7.97405C106.128 7.71074 105.808 7.48702 105.454 7.30217L104.991 8.1888C105.27 8.33433 105.515 8.50696 105.729 8.70595L106.411 7.97405ZM103.292 6.68338C102.946 6.64425 102.581 6.625 102.2 6.625V7.625C102.548 7.625 102.874 7.64257 103.18 7.67708L103.292 6.68338ZM102.2 6.625C101.704 6.625 101.227 6.66307 100.77 6.74029L100.937 7.72632C101.335 7.65914 101.755 7.625 102.2 7.625V6.625ZM98.0769 7.80972C97.6801 8.08242 97.3125 8.40096 96.9741 8.76414L97.7057 9.44586C97.9964 9.1339 98.309 8.86363 98.6433 8.63385L98.0769 7.80972ZM96.9738 8.76445C96.7862 8.96612 96.6123 9.18093 96.4522 9.40867L97.2702 9.98393C97.4045 9.79284 97.5498 9.61346 97.706 9.44555L96.9738 8.76445ZM95.6833 10.8568C95.4957 11.3383 95.3502 11.8561 95.2454 12.4089L96.2279 12.5951C96.3225 12.0964 96.452 11.6384 96.6151 11.2198L95.6833 10.8568ZM95.0603 13.987C95.0467 14.2435 95.0399 14.5062 95.0399 14.775H96.0399C96.0399 14.523 96.0463 14.278 96.0589 14.04L95.0603 13.987ZM95.0399 14.775V16.035H96.0399V14.775H95.0399ZM95.0399 18.555V19.815H96.0399V18.555H95.0399ZM95.0399 19.815C95.0399 20.0854 95.0468 20.3498 95.0606 20.6081L96.0591 20.5548C96.0463 20.3151 96.0399 20.0685 96.0399 19.815H95.0399ZM95.2473 22.1959C95.3526 22.7509 95.4985 23.2716 95.6866 23.7569L96.619 23.3957C96.4551 22.9725 96.3249 22.5109 96.2298 22.0095L95.2473 22.1959ZM96.4525 25.2149C96.6115 25.4445 96.784 25.6618 96.97 25.8663L97.7099 25.1937C97.554 25.0222 97.409 24.8396 97.2748 24.6457L96.4525 25.2149ZM96.9781 25.875C97.3187 26.2323 97.6887 26.5453 98.0881 26.8127L98.6446 25.9819C98.3081 25.7565 97.9938 25.4912 97.7018 25.185L96.9781 25.875ZM100.778 27.8534C101.233 27.9281 101.707 27.965 102.2 27.965V26.965C101.757 26.965 101.337 26.9319 100.94 26.8666L100.778 27.8534ZM102.2 27.965C102.597 27.965 102.979 27.9411 103.345 27.8927L103.213 26.9013C102.895 26.9435 102.557 26.965 102.2 26.965V27.965ZM105.572 27.1816C105.923 26.9858 106.246 26.7535 106.541 26.485L105.869 25.745C105.63 25.962 105.369 26.1498 105.085 26.3086L105.572 27.1816ZM106.542 26.4845C106.809 26.2412 107.058 25.9857 107.291 25.7181L106.536 25.062C106.33 25.2998 106.107 25.5277 105.868 25.7455L106.542 26.4845ZM108.492 23.941C108.654 23.625 108.798 23.2977 108.924 22.9594L107.986 22.6106C107.874 22.9133 107.746 23.2049 107.602 23.4855L108.492 23.941ZM108.204 23.2174L108.901 23.6224L109.403 22.7576L108.706 22.3526L108.204 23.2174ZM110.296 24.4324L111.691 25.2424L112.193 24.3776L110.798 23.5676L110.296 24.4324ZM113.086 26.0524L113.784 26.4574L114.286 25.5926L113.588 25.1876L113.086 26.0524ZM113.585 25.8059C113.453 26.077 113.316 26.3407 113.175 26.5971L114.05 27.0808C114.2 26.8091 114.345 26.5302 114.484 26.2441L113.585 25.8059ZM112.23 28.1005C111.88 28.5909 111.507 29.0472 111.113 29.4696L111.844 30.1522C112.269 29.6966 112.669 29.2063 113.044 28.6815L112.23 28.1005ZM109.823 30.668C109.594 30.852 109.358 31.0269 109.117 31.193L109.683 32.017C109.945 31.837 110.2 31.6473 110.449 31.448L109.823 30.668ZM109.118 31.192C108.872 31.3597 108.618 31.516 108.353 31.6609L108.834 32.5377C109.126 32.3774 109.409 32.2041 109.682 32.018L109.118 31.192ZM106.702 32.3782C106.148 32.5632 105.561 32.7099 104.94 32.8177L105.111 33.803C105.778 33.6872 106.414 33.5286 107.019 33.3267L106.702 32.3782ZM103.121 33.017C102.82 33.0323 102.513 33.04 102.2 33.04V34.04C102.53 34.04 102.854 34.0319 103.172 34.0157L103.121 33.017ZM96.4399 32.55L96.0657 33.4774L96.0728 33.4802L96.0798 33.4829L96.4399 32.55ZM92.0749 29.535L91.3275 30.1994L91.335 30.2077L92.0749 29.535ZM89.2849 24.54L88.3348 24.852L88.3362 24.8562L89.2849 24.54ZM89.2849 10.5L90.2364 10.8078L90.2377 10.8038L89.2849 10.5ZM92.0749 5.325L92.8296 5.98122L92.8365 5.97312L92.0749 5.325ZM96.4399 2.13L96.0519 1.20836L96.0519 1.20836L96.4399 2.13ZM109.4 2.85L108.864 3.69427L108.874 3.70026L109.4 2.85ZM113.945 8.43L114.406 9.31755L115.243 8.88298L114.858 8.02187L113.945 8.43ZM108.05 11.49L107.097 11.7932L107.457 12.9245L108.511 12.3775L108.05 11.49ZM106.07 8.34L105.389 9.07189L105.402 9.08403L105.415 9.09569L106.07 8.34ZM97.3399 9.105L96.6083 8.42327L96.6077 8.4239L97.3399 9.105ZM97.3399 25.53L96.6 26.2027L96.608 26.2115L96.6162 26.2201L97.3399 25.53ZM106.205 26.115L106.878 26.8549L106.879 26.854L106.205 26.115ZM108.455 22.785L108.957 21.9202L107.931 21.3246L107.518 22.4363L108.455 22.785ZM114.035 26.025L114.934 26.4632L115.341 25.6272L114.537 25.1602L114.035 26.025ZM109.4 31.605L109.964 32.431L109.966 32.429L109.4 31.605ZM102.2 32.54C101.723 32.54 101.259 32.5226 100.808 32.4881L100.656 34.4823C101.16 34.5209 101.675 34.54 102.2 34.54V32.54ZM98.0947 32.0372C97.6481 31.918 97.2167 31.7779 96.8 31.6171L96.0798 33.4829C96.5653 33.6703 97.0651 33.8324 97.579 33.9696L98.0947 32.0372ZM96.8141 31.6226C96.4267 31.4663 96.0547 31.293 95.6981 31.103L94.7576 32.868C95.1783 33.0922 95.6144 33.2953 96.0657 33.4774L96.8141 31.6226ZM93.6874 29.7187C93.3822 29.4519 93.0914 29.1665 92.8149 28.8623L91.335 30.2077C91.6623 30.5677 92.0076 30.9067 92.3709 31.2243L93.6874 29.7187ZM92.8223 28.8706C92.5333 28.5455 92.2605 28.1994 92.0041 27.8321L90.3641 28.9768C90.6642 29.4068 90.9853 29.8144 91.3275 30.1994L92.8223 28.8706ZM90.7148 25.4914C90.541 25.087 90.3805 24.6646 90.2336 24.2238L88.3362 24.8562C88.5001 25.3478 88.6804 25.8228 88.8773 26.281L90.7148 25.4914ZM90.235 24.228C90.1495 23.9674 90.0696 23.7002 89.9954 23.4264L88.0649 23.9489C88.148 24.2559 88.2379 24.5569 88.3348 24.852L90.235 24.228ZM89.6333 21.7794C89.5397 21.2389 89.4652 20.6767 89.4103 20.0924L87.4191 20.2797C87.4786 20.9124 87.5596 21.5261 87.6626 22.1206L89.6333 21.7794ZM89.3071 18.3813C89.299 18.0987 89.2949 17.8116 89.2949 17.52H87.2949C87.2949 17.8301 87.2992 18.1363 87.3079 18.4386L89.3071 18.3813ZM89.2949 17.52C89.2949 17.229 89.2991 16.9421 89.3073 16.6593L87.3082 16.6009C87.2993 16.9037 87.2949 17.21 87.2949 17.52H89.2949ZM89.4121 14.9491C89.4675 14.3667 89.5425 13.8044 89.6368 13.2619L87.6663 12.9196C87.5628 13.5154 87.4811 14.1287 87.4211 14.7595L89.4121 14.9491ZM89.9986 11.6124C90.0722 11.3383 90.1515 11.0702 90.2364 10.8078L88.3335 10.1922C88.238 10.4874 88.1492 10.7879 88.0671 11.0938L89.9986 11.6124ZM90.2377 10.8038C90.3836 10.3461 90.5428 9.90817 90.715 9.48978L88.8655 8.72855C88.6715 9.19992 88.4938 9.68924 88.3322 10.1962L90.2377 10.8038ZM92.0037 7.0587C92.2625 6.67555 92.5379 6.31654 92.8295 5.98118L91.3203 4.66882C90.9739 5.06723 90.6493 5.49078 90.3465 5.93894L92.0037 7.0587ZM92.8365 5.97312C93.1103 5.65131 93.3979 5.35 93.699 5.06886L92.3342 3.60691C91.9761 3.94125 91.6358 4.29802 91.3134 4.67688L92.8365 5.97312ZM95.7049 3.60097C96.0639 3.39895 96.4381 3.21579 96.828 3.05163L96.0519 1.20836C95.5934 1.40142 95.1506 1.61792 94.724 1.85803L95.7049 3.60097ZM96.828 3.05163C97.2407 2.87787 97.6677 2.72646 98.1094 2.59758L97.5492 0.677637C97.0357 0.827454 96.5365 1.0043 96.0519 1.20836L96.828 3.05163ZM100.81 2.1067C101.26 2.069 101.724 2.05 102.2 2.05V0.0499983C101.67 0.0499983 101.152 0.071122 100.643 0.113671L100.81 2.1067ZM102.2 2.05C102.504 2.05 102.802 2.05689 103.093 2.0706L103.187 0.0728148C102.864 0.057576 102.535 0.0499983 102.2 0.0499983V2.05ZM104.851 2.24843C105.451 2.34463 106.015 2.47524 106.546 2.63903L107.136 0.728113C106.51 0.534706 105.854 0.383643 105.168 0.273689L104.851 2.24843ZM108.13 3.27623C108.384 3.40557 108.629 3.54493 108.864 3.69421L109.936 2.00579C109.646 1.82189 109.346 1.65118 109.037 1.49359L108.13 3.27623ZM108.874 3.70026C109.104 3.8429 109.329 3.99723 109.547 4.16339L110.757 2.57086C110.488 2.36661 110.211 2.17618 109.926 1.99973L108.874 3.70026ZM110.763 5.27463C111.127 5.66978 111.472 6.10813 111.799 6.59117L113.456 5.47202C113.078 4.91141 112.671 4.39359 112.235 3.92004L110.763 5.27463ZM112.66 8.06036C112.788 8.31073 112.912 8.56996 113.032 8.83813L114.858 8.02187C114.724 7.72351 114.586 7.43323 114.442 7.15112L112.66 8.06036ZM113.484 7.54245L112.747 7.92495L113.669 9.70005L114.406 9.31755L113.484 7.54245ZM111.274 8.68995L109.8 9.45495L110.721 11.23L112.195 10.465L111.274 8.68995ZM108.326 10.22L107.589 10.6024L108.511 12.3775L109.248 11.995L108.326 10.22ZM109.003 11.1868C108.894 10.8452 108.77 10.5168 108.63 10.2021L106.803 11.0163C106.911 11.2594 107.009 11.5181 107.097 11.7932L109.003 11.1868ZM107.496 8.36811C107.259 8.08575 107.002 7.8243 106.725 7.58431L105.415 9.09569C105.611 9.26574 105.794 9.45163 105.964 9.65392L107.496 8.36811ZM106.751 7.6081C106.434 7.31262 106.077 7.06337 105.685 6.85886L104.76 8.63212C105.001 8.75799 105.209 8.90507 105.389 9.07189L106.751 7.6081ZM103.349 6.18653C102.981 6.14509 102.598 6.125 102.2 6.125V8.125C102.531 8.125 102.839 8.14173 103.124 8.17393L103.349 6.18653ZM102.2 6.125C101.679 6.125 101.174 6.16503 100.687 6.24728L101.02 8.21934C101.388 8.15717 101.781 8.125 102.2 8.125V6.125ZM97.7937 7.39765C97.3657 7.69182 96.9706 8.0345 96.6083 8.42327L98.0715 9.78672C98.3384 9.50036 98.6234 9.25423 98.9265 9.04591L97.7937 7.39765ZM96.6077 8.4239C96.4044 8.64245 96.2162 8.87497 96.0432 9.12104L97.6791 10.2716C97.8006 10.0988 97.9316 9.93712 98.0721 9.7861L96.6077 8.4239ZM95.2174 10.6752C95.0175 11.1883 94.8641 11.736 94.7542 12.3158L96.7192 12.6882C96.8086 12.2165 96.9302 11.7884 97.081 11.4013L95.2174 10.6752ZM94.561 13.9605C94.5469 14.2263 94.5399 14.4978 94.5399 14.775H96.5399C96.5399 14.5314 96.5461 14.2952 96.5582 14.0665L94.561 13.9605ZM94.5399 14.775V16.035H96.5399V14.775H94.5399ZM94.5399 18.555V19.815H96.5399V18.555H94.5399ZM94.5399 19.815C94.5399 20.0938 94.547 20.3671 94.5613 20.6347L96.5584 20.5282C96.5461 20.2978 96.5399 20.0601 96.5399 19.815H94.5399ZM94.7561 22.2891C94.8664 22.8709 95.0203 23.4212 95.2203 23.9376L97.0853 23.215C96.9333 22.8229 96.811 22.3909 96.721 21.9164L94.7561 22.2891ZM96.0414 25.4995C96.2128 25.747 96.399 25.9816 96.6 26.2027L98.0799 24.8573C97.939 24.7024 97.8077 24.5371 97.6859 24.3612L96.0414 25.4995ZM96.6162 26.2201C96.9812 26.6029 97.3791 26.9396 97.8098 27.2282L98.9228 25.5665C98.6177 25.3621 98.3313 25.1207 98.0637 24.8399L96.6162 26.2201ZM100.697 28.3468C101.18 28.4263 101.682 28.465 102.2 28.465V26.465C101.782 26.465 101.389 26.4337 101.021 26.3733L100.697 28.3468ZM102.2 28.465C102.617 28.465 103.021 28.4399 103.41 28.3883L103.148 26.4057C102.853 26.4447 102.537 26.465 102.2 26.465V28.465ZM105.816 27.618C106.2 27.4039 106.554 27.1493 106.878 26.8549L105.532 25.3751C105.322 25.5662 105.092 25.7317 104.841 25.8721L105.816 27.618ZM106.879 26.854C107.159 26.5979 107.423 26.3287 107.668 26.0462L106.159 24.734C105.965 24.9569 105.756 25.1709 105.531 25.376L106.879 26.854ZM108.937 24.1687C109.108 23.8351 109.26 23.49 109.392 23.1337L107.518 22.4363C107.412 22.7211 107.291 22.9948 107.157 23.2578L108.937 24.1687ZM107.953 23.6498L108.65 24.0548L109.655 22.3252L108.957 21.9202L107.953 23.6498ZM110.045 24.8648L111.44 25.6748L112.445 23.9452L111.05 23.1352L110.045 24.8648ZM112.835 26.4848L113.533 26.8898L114.537 25.1602L113.84 24.7552L112.835 26.4848ZM113.136 25.5868C113.008 25.8504 112.875 26.1066 112.737 26.3553L114.488 27.3226C114.642 27.0432 114.791 26.7567 114.934 26.4632L113.136 25.5868ZM111.823 27.8099C111.485 28.2833 111.127 28.7225 110.747 29.1283L112.209 30.4935C112.65 30.0213 113.064 29.5139 113.451 28.9721L111.823 27.8099ZM109.51 30.278C109.29 30.4543 109.065 30.6219 108.833 30.781L109.966 32.429C110.238 32.242 110.504 32.045 110.761 31.838L109.51 30.278ZM108.836 30.779C108.604 30.9374 108.363 31.0853 108.113 31.2225L109.074 32.9761C109.381 32.8081 109.677 32.6264 109.964 32.4309L108.836 30.779ZM106.543 31.9039C106.015 32.0805 105.452 32.2213 104.855 32.3251L105.197 34.2956C105.887 34.1758 106.547 34.0113 107.177 33.8009L106.543 31.9039ZM103.095 32.5177C102.804 32.5325 102.505 32.54 102.2 32.54V34.54C102.538 34.54 102.87 34.5317 103.197 34.5151L103.095 32.5177ZM117.606 33H117.106V33.5H117.606V33ZM117.606 27.555V27.055H117.106V27.555H117.606ZM121.656 27.555V28.055H122.156V27.555H121.656ZM121.656 7.035H122.156V6.535H121.656V7.035ZM117.606 7.035H117.106V7.535H117.606V7.035ZM117.606 1.59V1.09H117.106V1.59H117.606ZM132.546 1.59H133.046V1.09H132.546V1.59ZM132.546 7.035V7.535H133.046V7.035H132.546ZM128.496 7.035V6.535H127.996V7.035H128.496ZM128.496 27.555H127.996V28.055H128.496V27.555ZM132.546 27.555H133.046V27.055H132.546V27.555ZM132.546 33V33.5H133.046V33H132.546ZM118.106 33V31.6387H117.106V33H118.106ZM118.106 28.9162V27.555H117.106V28.9162H118.106ZM117.606 28.055H118.619V27.055H117.606V28.055ZM120.644 28.055H121.656V27.055H120.644V28.055ZM122.156 27.555V26.529H121.156V27.555H122.156ZM122.156 24.477V22.425H121.156V24.477H122.156ZM122.156 20.373V18.321H121.156V20.373H122.156ZM122.156 16.269V14.217H121.156V16.269H122.156ZM122.156 12.165V10.113H121.156V12.165H122.156ZM122.156 8.061V7.035H121.156V8.061H122.156ZM121.656 6.535H120.644V7.535H121.656V6.535ZM118.619 6.535H117.606V7.535H118.619V6.535ZM118.106 7.035V5.67375H117.106V7.035H118.106ZM118.106 2.95125V1.59H117.106V2.95125H118.106ZM117.606 2.09H118.54V1.09H117.606V2.09ZM120.408 2.09H122.275V1.09H120.408V2.09ZM124.143 2.09H126.01V1.09H124.143V2.09ZM127.878 2.09H129.745V1.09H127.878V2.09ZM131.613 2.09H132.546V1.09H131.613V2.09ZM132.046 1.59V2.95125H133.046V1.59H132.046ZM132.046 5.67375V7.035H133.046V5.67375H132.046ZM132.546 6.535H131.534V7.535H132.546V6.535ZM129.509 6.535H128.496V7.535H129.509V6.535ZM127.996 7.035V8.061H128.996V7.035H127.996ZM127.996 10.113V12.165H128.996V10.113H127.996ZM127.996 14.217V16.269H128.996V14.217H127.996ZM127.996 18.321V20.373H128.996V18.321H127.996ZM127.996 22.425V24.477H128.996V22.425H127.996ZM127.996 26.529V27.555H128.996V26.529H127.996ZM128.496 28.055H129.509V27.055H128.496V28.055ZM131.534 28.055H132.546V27.055H131.534V28.055ZM132.046 27.555V28.9162H133.046V27.555H132.046ZM132.046 31.6387V33H133.046V31.6387H132.046ZM132.546 32.5H131.613V33.5H132.546V32.5ZM129.745 32.5H127.878V33.5H129.745V32.5ZM126.01 32.5H124.143V33.5H126.01V32.5ZM122.275 32.5H120.408V33.5H122.275V32.5ZM118.54 32.5H117.606V33.5H118.54V32.5ZM117.606 33H116.606V34H117.606V33ZM117.606 27.555V26.555H116.606V27.555H117.606ZM121.656 27.555V28.555H122.656V27.555H121.656ZM121.656 7.035H122.656V6.035H121.656V7.035ZM117.606 7.035H116.606V8.035H117.606V7.035ZM117.606 1.59V0.589999H116.606V1.59H117.606ZM132.546 1.59H133.546V0.589999H132.546V1.59ZM132.546 7.035V8.035H133.546V7.035H132.546ZM128.496 7.035V6.035H127.496V7.035H128.496ZM128.496 27.555H127.496V28.555H128.496V27.555ZM132.546 27.555H133.546V26.555H132.546V27.555ZM132.546 33V34H133.546V33H132.546ZM118.606 33V31.6387H116.606V33H118.606ZM118.606 28.9162V27.555H116.606V28.9162H118.606ZM117.606 28.555H118.619V26.555H117.606V28.555ZM120.644 28.555H121.656V26.555H120.644V28.555ZM122.656 27.555V26.529H120.656V27.555H122.656ZM122.656 24.477V22.425H120.656V24.477H122.656ZM122.656 20.373V18.321H120.656V20.373H122.656ZM122.656 16.269V14.217H120.656V16.269H122.656ZM122.656 12.165V10.113H120.656V12.165H122.656ZM122.656 8.061V7.035H120.656V8.061H122.656ZM121.656 6.035H120.644V8.035H121.656V6.035ZM118.619 6.035H117.606V8.035H118.619V6.035ZM118.606 7.035V5.67375H116.606V7.035H118.606ZM118.606 2.95125V1.59H116.606V2.95125H118.606ZM117.606 2.59H118.54V0.589999H117.606V2.59ZM120.408 2.59H122.275V0.589999H120.408V2.59ZM124.143 2.59H126.01V0.589999H124.143V2.59ZM127.878 2.59H129.745V0.589999H127.878V2.59ZM131.613 2.59H132.546V0.589999H131.613V2.59ZM131.546 1.59V2.95125H133.546V1.59H131.546ZM131.546 5.67375V7.035H133.546V5.67375H131.546ZM132.546 6.035H131.534V8.035H132.546V6.035ZM129.509 6.035H128.496V8.035H129.509V6.035ZM127.496 7.035V8.061H129.496V7.035H127.496ZM127.496 10.113V12.165H129.496V10.113H127.496ZM127.496 14.217V16.269H129.496V14.217H127.496ZM127.496 18.321V20.373H129.496V18.321H127.496ZM127.496 22.425V24.477H129.496V22.425H127.496ZM127.496 26.529V27.555H129.496V26.529H127.496ZM128.496 28.555H129.509V26.555H128.496V28.555ZM131.534 28.555H132.546V26.555H131.534V28.555ZM131.546 27.555V28.9162H133.546V27.555H131.546ZM131.546 31.6387V33H133.546V31.6387H131.546ZM132.546 32H131.613V34H132.546V32ZM129.745 32H127.878V34H129.745V32ZM126.01 32H124.143V34H126.01V32ZM122.275 32H120.408V34H122.275V32ZM118.54 32H117.606V34H118.54V32ZM147.83 18.15L147.379 18.3658L147.388 18.3835L147.398 18.4005L147.83 18.15ZM144.815 11.85L145.266 11.6342L145.13 11.35H144.815V11.85ZM144.68 11.85V11.35H144.18V11.85H144.68ZM144.68 33V33.5H145.18V33H144.68ZM138.245 33H137.745V33.5H138.245V33ZM138.245 1.59V1.09H137.745V1.59H138.245ZM145.715 1.59L146.148 1.33953L146.004 1.09H145.715V1.59ZM154.31 16.44L154.761 16.2242L154.753 16.2065L154.743 16.1895L154.31 16.44ZM157.325 22.74L156.874 22.9558L157.01 23.24H157.325V22.74ZM157.46 22.74V23.24H157.96V22.74H157.46ZM157.46 1.59V1.09H156.96V1.59H157.46ZM163.895 1.59H164.395V1.09H163.895V1.59ZM163.895 33V33.5H164.395V33H163.895ZM156.425 33L155.993 33.2505L156.137 33.5H156.425V33ZM148.281 17.9342L147.904 17.1467L147.002 17.5783L147.379 18.3658L148.281 17.9342ZM147.151 15.5717L146.397 13.9967L145.495 14.4283L146.249 16.0033L147.151 15.5717ZM145.643 12.4217L145.266 11.6342L144.364 12.0658L144.741 12.8533L145.643 12.4217ZM144.815 11.35H144.782V12.35H144.815V11.35ZM144.714 11.35H144.68V12.35H144.714V11.35ZM144.18 11.85V12.9075H145.18V11.85H144.18ZM144.18 15.0225V17.1375H145.18V15.0225H144.18ZM144.18 19.2525V21.3675H145.18V19.2525H144.18ZM144.18 23.4825V25.5975H145.18V23.4825H144.18ZM144.18 27.7125V29.8275H145.18V27.7125H144.18ZM144.18 31.9425V33H145.18V31.9425H144.18ZM144.68 32.5H143.876V33.5H144.68V32.5ZM142.267 32.5H140.658V33.5H142.267V32.5ZM139.05 32.5H138.245V33.5H139.05V32.5ZM138.745 33V32.0184H137.745V33H138.745ZM138.745 30.0553V28.0922H137.745V30.0553H138.745ZM138.745 26.1291V24.1659H137.745V26.1291H138.745ZM138.745 22.2028V20.2397H137.745V22.2028H138.745ZM138.745 18.2766V16.3134H137.745V18.2766H138.745ZM138.745 14.3503V12.3872H137.745V14.3503H138.745ZM138.745 10.4241V8.46094H137.745V10.4241H138.745ZM138.745 6.49781V4.53469H137.745V6.49781H138.745ZM138.745 2.57156V1.59H137.745V2.57156H138.745ZM138.245 2.09H139.179V1.09H138.245V2.09ZM141.047 2.09H142.914V1.09H141.047V2.09ZM144.782 2.09H145.715V1.09H144.782V2.09ZM145.283 1.84047L145.82 2.76859L146.685 2.26766L146.148 1.33953L145.283 1.84047ZM146.894 4.62484L147.968 6.48109L148.834 5.98016L147.76 4.12391L146.894 4.62484ZM149.043 8.33734L150.117 10.1936L150.983 9.69266L149.908 7.83641L149.043 8.33734ZM151.192 12.0498L152.266 13.9061L153.131 13.4052L152.057 11.5489L151.192 12.0498ZM153.34 15.7623L153.878 16.6905L154.743 16.1895L154.206 15.2614L153.34 15.7623ZM153.859 16.6558L154.236 17.4433L155.138 17.0117L154.761 16.2242L153.859 16.6558ZM154.99 19.0183L155.744 20.5933L156.646 20.1617L155.892 18.5867L154.99 19.0183ZM156.497 22.1683L156.874 22.9558L157.776 22.5242L157.399 21.7367L156.497 22.1683ZM157.325 23.24H157.359V22.24H157.325V23.24ZM157.427 23.24H157.46V22.24H157.427V23.24ZM157.96 22.74V21.6825H156.96V22.74H157.96ZM157.96 19.5675V17.4525H156.96V19.5675H157.96ZM157.96 15.3375V13.2225H156.96V15.3375H157.96ZM157.96 11.1075V8.9925H156.96V11.1075H157.96ZM157.96 6.8775V4.7625H156.96V6.8775H157.96ZM157.96 2.6475V1.59H156.96V2.6475H157.96ZM157.46 2.09H158.265V1.09H157.46V2.09ZM159.873 2.09H161.482V1.09H159.873V2.09ZM163.091 2.09H163.895V1.09H163.091V2.09ZM163.395 1.59V2.57156H164.395V1.59H163.395ZM163.395 4.53469V6.49781H164.395V4.53469H163.395ZM163.395 8.46094V10.4241H164.395V8.46094H163.395ZM163.395 12.3872V14.3503H164.395V12.3872H163.395ZM163.395 16.3134V18.2766H164.395V16.3134H163.395ZM163.395 20.2397V22.2028H164.395V20.2397H163.395ZM163.395 24.1659V26.1291H164.395V24.1659H163.395ZM163.395 28.0922V30.0553H164.395V28.0922H163.395ZM163.395 32.0184V33H164.395V32.0184H163.395ZM163.895 32.5H162.962V33.5H163.895V32.5ZM161.094 32.5H159.227V33.5H161.094V32.5ZM157.359 32.5H156.425V33.5H157.359V32.5ZM156.858 32.7495L156.321 31.8214L155.455 32.3223L155.993 33.2505L156.858 32.7495ZM155.246 29.9652L154.172 28.1089L153.307 28.6098L154.381 30.4661L155.246 29.9652ZM153.098 26.2527L152.023 24.3964L151.158 24.8973L152.232 26.7536L153.098 26.2527ZM150.949 22.5402L149.875 20.6839L149.009 21.1848L150.083 23.0411L150.949 22.5402ZM148.8 18.8277L148.263 17.8995L147.398 18.4005L147.935 19.3286L148.8 18.8277ZM147.83 18.15L146.928 18.5817L146.945 18.617L146.965 18.6509L147.83 18.15ZM144.815 11.85L145.717 11.4183L145.445 10.85H144.815V11.85ZM144.68 11.85V10.85H143.68V11.85H144.68ZM144.68 33V34H145.68V33H144.68ZM138.245 33H137.245V34H138.245V33ZM138.245 1.59V0.589999H137.245V1.59H138.245ZM145.715 1.59L146.581 1.08907L146.292 0.589999H145.715V1.59ZM154.31 16.44L155.212 16.0083L155.195 15.973L155.176 15.9391L154.31 16.44ZM157.325 22.74L156.423 23.1717L156.695 23.74H157.325V22.74ZM157.46 22.74V23.74H158.46V22.74H157.46ZM157.46 1.59V0.589999H156.46V1.59H157.46ZM163.895 1.59H164.895V0.589999H163.895V1.59ZM163.895 33V34H164.895V33H163.895ZM156.425 33L155.56 33.5009L155.849 34H156.425V33ZM148.732 17.7183L148.355 16.9308L146.551 17.7942L146.928 18.5817L148.732 17.7183ZM147.602 15.3558L146.848 13.7808L145.044 14.6442L145.798 16.2192L147.602 15.3558ZM146.094 12.2058L145.717 11.4183L143.913 12.2817L144.29 13.0692L146.094 12.2058ZM144.815 10.85H144.782V12.85H144.815V10.85ZM144.714 10.85H144.68V12.85H144.714V10.85ZM143.68 11.85V12.9075H145.68V11.85H143.68ZM143.68 15.0225V17.1375H145.68V15.0225H143.68ZM143.68 19.2525V21.3675H145.68V19.2525H143.68ZM143.68 23.4825V25.5975H145.68V23.4825H143.68ZM143.68 27.7125V29.8275H145.68V27.7125H143.68ZM143.68 31.9425V33H145.68V31.9425H143.68ZM144.68 32H143.876V34H144.68V32ZM142.267 32H140.658V34H142.267V32ZM139.05 32H138.245V34H139.05V32ZM139.245 33V32.0184H137.245V33H139.245ZM139.245 30.0553V28.0922H137.245V30.0553H139.245ZM139.245 26.1291V24.1659H137.245V26.1291H139.245ZM139.245 22.2028V20.2397H137.245V22.2028H139.245ZM139.245 18.2766V16.3134H137.245V18.2766H139.245ZM139.245 14.3503V12.3872H137.245V14.3503H139.245ZM139.245 10.4241V8.46094H137.245V10.4241H139.245ZM139.245 6.49781V4.53469H137.245V6.49781H139.245ZM139.245 2.57156V1.59H137.245V2.57156H139.245ZM138.245 2.59H139.179V0.589999H138.245V2.59ZM141.047 2.59H142.914V0.589999H141.047V2.59ZM144.782 2.59H145.715V0.589999H144.782V2.59ZM144.85 2.09093L145.387 3.01906L147.118 2.01719L146.581 1.08907L144.85 2.09093ZM146.461 4.87531L147.536 6.73156L149.267 5.72969L148.192 3.87344L146.461 4.87531ZM148.61 8.58781L149.684 10.4441L151.415 9.44219L150.341 7.58594L148.61 8.58781ZM150.759 12.3003L151.833 14.1566L153.564 13.1547L152.49 11.2984L150.759 12.3003ZM152.908 16.0128L153.445 16.9409L155.176 15.9391L154.639 15.0109L152.908 16.0128ZM153.408 16.8717L153.785 17.6592L155.589 16.7958L155.212 16.0083L153.408 16.8717ZM154.539 19.2342L155.293 20.8092L157.097 19.9458L156.343 18.3708L154.539 19.2342ZM156.046 22.3842L156.423 23.1717L158.227 22.3083L157.85 21.5208L156.046 22.3842ZM157.325 23.74H157.359V21.74H157.325V23.74ZM157.427 23.74H157.46V21.74H157.427V23.74ZM158.46 22.74V21.6825H156.46V22.74H158.46ZM158.46 19.5675V17.4525H156.46V19.5675H158.46ZM158.46 15.3375V13.2225H156.46V15.3375H158.46ZM158.46 11.1075V8.9925H156.46V11.1075H158.46ZM158.46 6.8775V4.7625H156.46V6.8775H158.46ZM158.46 2.6475V1.59H156.46V2.6475H158.46ZM157.46 2.59H158.265V0.589999H157.46V2.59ZM159.873 2.59H161.482V0.589999H159.873V2.59ZM163.091 2.59H163.895V0.589999H163.091V2.59ZM162.895 1.59V2.57156H164.895V1.59H162.895ZM162.895 4.53469V6.49781H164.895V4.53469H162.895ZM162.895 8.46094V10.4241H164.895V8.46094H162.895ZM162.895 12.3872V14.3503H164.895V12.3872H162.895ZM162.895 16.3134V18.2766H164.895V16.3134H162.895ZM162.895 20.2397V22.2028H164.895V20.2397H162.895ZM162.895 24.1659V26.1291H164.895V24.1659H162.895ZM162.895 28.0922V30.0553H164.895V28.0922H162.895ZM162.895 32.0184V33H164.895V32.0184H162.895ZM163.895 32H162.962V34H163.895V32ZM161.094 32H159.227V34H161.094V32ZM157.359 32H156.425V34H157.359V32ZM157.291 32.4991L156.754 31.5709L155.023 32.5728L155.56 33.5009L157.291 32.4991ZM155.679 29.7147L154.605 27.8584L152.874 28.8603L153.948 30.7166L155.679 29.7147ZM153.53 26.0022L152.456 24.1459L150.725 25.1478L151.799 27.0041L153.53 26.0022ZM151.382 22.2897L150.307 20.4334L148.576 21.4353L149.651 23.2916L151.382 22.2897ZM149.233 18.5772L148.696 17.6491L146.965 18.6509L147.502 19.5791L149.233 18.5772ZM190.744 28.005H191.244V27.505H190.744V28.005ZM190.519 28.005V27.505H190.089L190.024 27.9304L190.519 28.005ZM188.089 31.965L187.786 31.5671L188.089 31.965ZM177.424 32.505L177.221 32.9623L177.221 32.9623L177.424 32.505ZM173.329 29.445L172.951 29.7725L172.951 29.7725L173.329 29.445ZM170.584 24.405L171.059 24.249L171.059 24.249L170.584 24.405ZM170.629 10.41L171.102 10.5702L171.102 10.5702L170.629 10.41ZM173.509 5.28L173.139 4.94284L173.135 4.94731L173.509 5.28ZM178.009 2.13L178.2 2.59201L178.2 2.59201L178.009 2.13ZM191.104 2.895L190.846 3.32321L190.85 3.32597L191.104 2.895ZM195.919 8.34L196.167 8.7739L196.571 8.54257L196.369 8.12309L195.919 8.34ZM190.339 11.535L189.873 11.7168L190.084 12.2571L190.587 11.9689L190.339 11.535ZM188.089 8.43L187.764 8.81047L187.771 8.81597L188.089 8.43ZM178.729 8.97L179.078 9.32779L179.078 9.32779L178.729 8.97ZM178.729 25.62L178.375 25.9736L178.379 25.9778L178.729 25.62ZM186.199 27.195L186.315 27.6812L186.325 27.679L186.334 27.6765L186.199 27.195ZM188.179 26.295L188.461 26.7077L188.468 26.7027L188.475 26.6975L188.179 26.295ZM189.484 24.81L189.051 24.5595L189.046 24.5682L189.041 24.5771L189.484 24.81ZM189.979 21.21H190.479V20.71H189.979V21.21ZM184.129 21.21H183.629V21.71H184.129V21.21ZM184.129 15.495V14.995H183.629V15.495H184.129ZM196.504 15.495H197.004V14.995H196.504V15.495ZM196.504 33V33.5H197.004V33H196.504ZM190.744 33H190.244V33.5H190.744V33ZM190.744 27.505H190.688V28.505H190.744V27.505ZM190.575 27.505H190.519V28.505H190.575V27.505ZM190.024 27.9304C189.968 28.3009 189.879 28.6534 189.757 28.9886L190.697 29.3302C190.843 28.9303 190.948 28.5132 191.013 28.0796L190.024 27.9304ZM188.612 30.8277C188.369 31.0864 188.094 31.333 187.786 31.5671L188.392 32.3629C188.74 32.0978 189.057 31.8146 189.34 31.513L188.612 30.8277ZM187.786 31.5671C187.431 31.8374 187.038 32.0714 186.606 32.2684L187.021 33.1781C187.517 32.9519 187.974 32.6804 188.392 32.3629L187.786 31.5671ZM183.895 32.9675C183.443 33.0157 182.966 33.04 182.464 33.04V34.04C182.998 34.04 183.511 34.0141 184.001 33.9618L183.895 32.9675ZM182.464 33.04C182.041 33.04 181.626 33.0203 181.218 32.9809L181.122 33.9763C181.562 34.0188 182.01 34.04 182.464 34.04V33.04ZM178.786 32.4872C178.392 32.362 178.005 32.2156 177.626 32.0477L177.221 32.9623C177.634 33.1447 178.055 33.3041 178.484 33.4403L178.786 32.4872ZM177.626 32.0477C177.249 31.8808 176.883 31.6938 176.53 31.4867L176.024 32.3494C176.411 32.5758 176.81 32.7801 177.221 32.9623L177.626 32.0477ZM174.563 30.0102C174.267 29.732 173.981 29.4345 173.707 29.1175L172.951 29.7725C173.247 30.1145 173.556 30.4367 173.878 30.7389L174.563 30.0102ZM173.707 29.1175C173.409 28.7743 173.128 28.4082 172.864 28.0189L172.037 28.5803C172.322 29.0011 172.627 29.3986 172.951 29.7725L173.707 29.1175ZM171.549 25.5648C171.372 25.1446 171.209 24.706 171.059 24.249L170.109 24.561C170.267 25.0421 170.439 25.5058 170.626 25.9518L171.549 25.5648ZM171.059 24.249C170.971 23.9811 170.889 23.7072 170.813 23.4271L169.848 23.6891C169.928 23.9855 170.015 24.2762 170.109 24.561L171.059 24.249ZM170.441 21.7458C170.345 21.1948 170.268 20.6235 170.212 20.0319L169.217 20.1266C169.275 20.7426 169.355 21.3397 169.456 21.9178L170.441 21.7458ZM170.106 18.2998C170.098 18.0141 170.094 17.7241 170.094 17.43H169.094C169.094 17.7335 169.098 18.0332 169.107 18.3289L170.106 18.2998ZM170.094 17.43C170.094 17.1341 170.098 16.8422 170.107 16.5543L169.107 16.5237C169.098 16.8221 169.094 17.1241 169.094 17.43H170.094ZM170.219 14.8109C170.278 14.2167 170.358 13.6419 170.459 13.0865L169.475 12.9076C169.369 13.4908 169.285 14.0922 169.224 14.7117L170.219 14.8109ZM170.847 11.3962C170.926 11.1152 171.011 10.8398 171.102 10.5702L170.155 10.2498C170.058 10.5363 169.968 10.8283 169.884 11.1258L170.847 11.3962ZM171.102 10.5702C171.26 10.1037 171.432 9.6559 171.618 9.22661L170.701 8.82903C170.503 9.28481 170.321 9.75845 170.155 10.2498L171.102 10.5702ZM173.001 6.72798C173.277 6.33352 173.571 5.96182 173.882 5.61268L173.135 4.94731C172.798 5.32643 172.48 5.72895 172.182 6.15465L173.001 6.72798ZM173.878 5.61713C174.18 5.28637 174.496 4.97567 174.826 4.68491L174.165 3.93459C173.807 4.24967 173.466 4.5858 173.14 4.94286L173.878 5.61713ZM176.999 3.16491C177.385 2.9547 177.785 2.76372 178.2 2.59201L177.818 1.66799C177.37 1.85303 176.938 2.05929 176.52 2.28685L176.999 3.16491ZM178.2 2.59201C178.636 2.41136 179.086 2.2541 179.549 2.12031L179.272 1.15961C178.774 1.3035 178.289 1.47293 177.818 1.66799L178.2 2.59201ZM182.371 1.60913C182.841 1.56976 183.321 1.55 183.814 1.55V0.549998C183.295 0.549998 182.786 0.570829 182.288 0.612631L182.371 1.60913ZM183.814 1.55C184.128 1.55 184.436 1.55783 184.74 1.57344L184.791 0.574762C184.47 0.558239 184.144 0.549998 183.814 0.549998V1.55ZM186.573 1.77317C187.192 1.87899 187.786 2.02225 188.355 2.20259L188.657 1.24937C188.042 1.05449 187.404 0.900638 186.741 0.787445L186.573 1.77317ZM190.047 2.88478C190.32 3.02056 190.586 3.1667 190.846 3.32319L191.362 2.46681C191.079 2.29632 190.789 2.1372 190.492 1.98947L190.047 2.88478ZM190.85 3.32597C191.104 3.47522 191.351 3.63438 191.59 3.80346L192.167 2.98652C191.905 2.80142 191.635 2.62726 191.357 2.46403L190.85 3.32597ZM192.939 4.93406C193.351 5.34034 193.737 5.78515 194.097 6.26901L194.899 5.6721C194.51 5.14907 194.091 4.6657 193.642 4.22246L192.939 4.93406ZM195.058 7.76358C195.2 8.01966 195.337 8.28408 195.468 8.55691L196.369 8.12309C196.23 7.83328 196.084 7.55157 195.932 7.27798L195.058 7.76358ZM195.67 7.90609L194.973 8.30547L195.47 9.17328L196.167 8.7739L195.67 7.90609ZM193.578 9.10422L192.183 9.90297L192.68 10.7708L194.075 9.97203L193.578 9.10422ZM190.788 10.7017L190.09 11.1011L190.587 11.9689L191.285 11.5695L190.788 10.7017ZM190.805 11.3532C190.678 11.0293 190.534 10.7174 190.371 10.4177L189.492 10.894C189.634 11.1564 189.761 11.4306 189.873 11.7168L190.805 11.3532ZM189.161 8.74689C188.926 8.49933 188.675 8.26506 188.407 8.04403L187.771 8.81597C188.008 9.01132 188.229 9.2174 188.434 9.43414L189.161 8.74689ZM188.413 8.04958C188.096 7.7794 187.746 7.5483 187.363 7.35583L186.914 8.2492C187.228 8.40711 187.511 8.59433 187.764 8.81042L188.413 8.04958ZM185.01 6.69027C184.629 6.64656 184.23 6.625 183.814 6.625V7.625C184.195 7.625 184.556 7.64478 184.896 7.68376L185.01 6.69027ZM183.814 6.625C183.308 6.625 182.823 6.65815 182.358 6.72532L182.501 7.71503C182.914 7.6553 183.352 7.625 183.814 7.625V6.625ZM179.564 7.6934C179.136 7.95308 178.741 8.25957 178.379 8.61221L179.078 9.32779C179.385 9.02785 179.72 8.76832 180.083 8.54854L179.564 7.6934ZM178.379 8.61221C178.175 8.81177 177.986 9.02775 177.813 9.25979L178.614 9.85846C178.757 9.66719 178.911 9.49041 179.078 9.32779L178.379 8.61221ZM176.995 10.745C176.801 11.2363 176.652 11.7696 176.545 12.3433L177.528 12.5267C177.625 12.0079 177.758 11.5369 177.925 11.1121L176.995 10.745ZM176.359 13.9656C176.345 14.2285 176.339 14.4984 176.339 14.775H177.339C177.339 14.5145 177.345 14.2618 177.358 14.0169L176.359 13.9656ZM176.339 14.775V16.035H177.339V14.775H176.339ZM176.339 18.555V19.815H177.339V18.555H176.339ZM176.339 19.815C176.339 20.0915 176.346 20.3613 176.359 20.6244L177.358 20.5721C177.345 20.3273 177.339 20.075 177.339 19.815H176.339ZM176.548 22.246C176.657 22.8175 176.808 23.3499 177.003 23.8418L177.932 23.473C177.763 23.0468 177.629 22.5763 177.531 22.06L176.548 22.246ZM177.816 25.324C177.988 25.5557 178.174 25.7723 178.375 25.9736L179.082 25.2664C178.917 25.1009 178.763 24.922 178.621 24.7296L177.816 25.324ZM178.379 25.9778C178.741 26.3304 179.136 26.6369 179.564 26.8966L180.083 26.0415C179.72 25.8217 179.385 25.5622 179.078 25.2622L178.379 25.9778ZM182.358 27.8647C182.823 27.9318 183.308 27.965 183.814 27.965V26.965C183.352 26.965 182.914 26.9347 182.501 26.875L182.358 27.8647ZM183.814 27.965C184.025 27.965 184.235 27.9595 184.441 27.9485L184.388 26.9499C184.2 26.96 184.008 26.965 183.814 26.965V27.965ZM185.695 27.809C185.905 27.7727 186.111 27.7301 186.315 27.6812L186.082 26.7088C185.899 26.7527 185.714 26.7909 185.525 26.8236L185.695 27.809ZM186.334 27.6765C186.523 27.6234 186.708 27.5648 186.888 27.5005L186.551 26.5589C186.394 26.615 186.232 26.6666 186.064 26.7135L186.334 27.6765ZM187.957 27.0189C188.131 26.922 188.299 26.8183 188.461 26.7077L187.896 25.8823C187.761 25.9752 187.619 26.0627 187.471 26.1449L187.957 27.0189ZM188.475 26.6975C188.625 26.5875 188.766 26.4722 188.9 26.3515L188.23 25.609C188.122 25.7068 188.006 25.8013 187.882 25.8925L188.475 26.6975ZM189.635 25.5212C189.742 25.3675 189.839 25.208 189.926 25.0429L189.041 24.5771C188.974 24.7057 188.898 24.8301 188.814 24.9502L189.635 25.5212ZM189.916 25.0605C190.017 24.8868 190.104 24.705 190.177 24.5157L189.245 24.1542C189.19 24.2963 189.125 24.4313 189.051 24.5595L189.916 25.0605ZM190.449 23.3636C190.469 23.1754 190.479 22.9825 190.479 22.785H189.479C189.479 22.9498 189.471 23.1078 189.455 23.2593L190.449 23.3636ZM190.479 22.785V22.3912H189.479V22.785H190.479ZM190.479 21.6037V21.21H189.479V21.6037H190.479ZM189.979 20.71H188.516V21.71H189.979V20.71ZM185.591 20.71H184.129V21.71H185.591V20.71ZM184.629 21.21V19.7812H183.629V21.21H184.629ZM184.629 16.9237V15.495H183.629V16.9237H184.629ZM184.129 15.995H185.16V14.995H184.129V15.995ZM187.223 15.995H189.285V14.995H187.223V15.995ZM191.348 15.995H193.41V14.995H191.348V15.995ZM195.473 15.995H196.504V14.995H195.473V15.995ZM196.004 15.495V16.5891H197.004V15.495H196.004ZM196.004 18.7772V20.9653H197.004V18.7772H196.004ZM196.004 23.1534V25.3416H197.004V23.1534H196.004ZM196.004 27.5297V29.7178H197.004V27.5297H196.004ZM196.004 31.9059V33H197.004V31.9059H196.004ZM196.504 32.5H195.064V33.5H196.504V32.5ZM192.184 32.5H190.744V33.5H192.184V32.5ZM191.244 33V31.7512H190.244V33H191.244ZM191.244 29.2537V28.005H190.244V29.2537H191.244ZM190.744 28.005H191.744V27.005H190.744V28.005ZM190.519 28.005V27.005H189.658L189.53 27.8557L190.519 28.005ZM188.089 31.965L187.483 31.1692L188.089 31.965ZM177.424 32.505L177.019 33.4195L177.019 33.4195L177.424 32.505ZM173.329 29.445L172.573 30.0999L172.573 30.0999L173.329 29.445ZM170.584 24.405L171.534 24.093L171.534 24.093L170.584 24.405ZM170.629 10.41L171.576 10.7304L171.576 10.7304L170.629 10.41ZM173.509 5.28L172.77 4.60568L172.762 4.61463L173.509 5.28ZM178.009 2.13L178.391 3.05401L178.391 3.05401L178.009 2.13ZM191.104 2.895L190.587 3.75143L190.597 3.75693L191.104 2.895ZM195.919 8.34L196.416 9.20781L197.224 8.74514L196.82 7.90618L195.919 8.34ZM190.339 11.535L189.407 11.8985L189.829 12.9792L190.836 12.4028L190.339 11.535ZM188.089 8.43L187.44 9.19083L187.446 9.19644L187.453 9.20193L188.089 8.43ZM178.729 8.97L179.427 9.68557L179.427 9.68557L178.729 8.97ZM178.729 25.62L178.022 26.3272L178.03 26.3356L178.729 25.62ZM186.199 27.195L186.432 28.1674L186.45 28.163L186.468 28.158L186.199 27.195ZM188.179 26.295L188.743 27.1203L188.758 27.1104L188.772 27.1001L188.179 26.295ZM189.484 24.81L188.618 24.309L188.608 24.3264L188.599 24.3443L189.484 24.81ZM189.979 21.21H190.979V20.21H189.979V21.21ZM184.129 21.21H183.129V22.21H184.129V21.21ZM184.129 15.495V14.495H183.129V15.495H184.129ZM196.504 15.495H197.504V14.495H196.504V15.495ZM196.504 33V34H197.504V33H196.504ZM190.744 33H189.744V34H190.744V33ZM190.744 27.005H190.688V29.005H190.744V27.005ZM190.575 27.005H190.519V29.005H190.575V27.005ZM189.53 27.8557C189.479 28.1948 189.398 28.515 189.287 28.8178L191.167 29.501C191.324 29.0687 191.437 28.6193 191.508 28.1543L189.53 27.8557ZM188.248 30.485C188.025 30.7223 187.771 30.9506 187.483 31.1692L188.694 32.7608C189.063 32.4802 189.401 32.1787 189.705 31.8557L188.248 30.485ZM187.483 31.1692C187.159 31.4159 186.798 31.6311 186.399 31.8135L187.229 33.633C187.757 33.3921 188.246 33.1018 188.694 32.7608L187.483 31.1692ZM183.842 32.4703C183.409 32.5164 182.95 32.54 182.464 32.54V34.54C183.014 34.54 183.544 34.5133 184.054 34.459L183.842 32.4703ZM182.464 32.54C182.056 32.54 181.657 32.521 181.266 32.4832L181.074 34.474C181.531 34.5181 181.994 34.54 182.464 34.54V32.54ZM178.938 32.0107C178.561 31.891 178.191 31.751 177.828 31.5905L177.019 33.4195C177.448 33.6093 177.886 33.7751 178.332 33.9168L178.938 32.0107ZM177.828 31.5905C177.468 31.4312 177.12 31.2528 176.783 31.0554L175.772 32.7807C176.174 33.0168 176.59 33.2297 177.019 33.4195L177.828 31.5905ZM174.905 29.6458C174.622 29.3797 174.348 29.0945 174.084 28.7901L172.573 30.0999C172.88 30.4545 173.201 30.7891 173.536 31.1033L174.905 29.6458ZM174.084 28.7901C173.8 28.4622 173.531 28.1118 173.278 27.7383L171.623 28.8609C171.919 29.2976 172.236 29.7107 172.573 30.0999L174.084 28.7901ZM172.01 25.3713C171.839 24.964 171.68 24.538 171.534 24.093L169.634 24.717C169.796 25.2102 169.973 25.6864 170.165 26.1453L172.01 25.3713ZM171.534 24.093C171.449 23.8336 171.369 23.568 171.295 23.2961L169.365 23.8201C169.448 24.1247 169.537 24.4237 169.634 24.717L171.534 24.093ZM170.934 21.6598C170.84 21.1223 170.765 20.5639 170.71 19.9845L168.719 20.174C168.779 20.8022 168.86 21.4122 168.963 22.0038L170.934 21.6598ZM170.606 18.2853C170.598 18.0045 170.594 17.7194 170.594 17.43H168.594C168.594 17.7383 168.598 18.0427 168.607 18.3434L170.606 18.2853ZM170.594 17.43C170.594 17.139 170.598 16.8522 170.607 16.5696L168.608 16.5085C168.598 16.812 168.594 17.1192 168.594 17.43H170.594ZM170.716 14.8605C170.774 14.2789 170.853 13.7175 170.951 13.1759L168.983 12.8181C168.875 13.4153 168.789 14.03 168.726 14.6621L170.716 14.8605ZM171.329 11.5314C171.405 11.2586 171.488 10.9916 171.576 10.7304L169.681 10.0896C169.582 10.3846 169.489 10.6849 169.403 10.9906L171.329 11.5314ZM171.576 10.7304C171.73 10.2764 171.897 9.84145 172.077 9.42539L170.242 8.63025C170.039 9.09927 169.852 9.58581 169.681 10.0896L171.576 10.7304ZM173.411 7.01464C173.676 6.63581 173.957 6.27952 174.255 5.94537L172.762 4.61463C172.411 5.00874 172.081 5.42666 171.772 5.86799L173.411 7.01464ZM174.247 5.95427C174.537 5.63665 174.84 5.33868 175.157 5.06007L173.834 3.55943C173.463 3.88667 173.108 4.23552 172.77 4.60573L174.247 5.95427ZM177.238 3.60394C177.608 3.40241 177.992 3.21906 178.391 3.05401L177.626 1.20598C177.163 1.39768 176.715 1.61158 176.281 1.84782L177.238 3.60394ZM178.391 3.05401C178.81 2.88057 179.242 2.72941 179.688 2.60066L179.133 0.679257C178.617 0.828191 178.115 1.00372 177.626 1.20598L178.391 3.05401ZM182.413 2.10738C182.868 2.06922 183.335 2.05 183.814 2.05V0.0499983C183.281 0.0499983 182.759 0.0713659 182.246 0.114382L182.413 2.10738ZM183.814 2.05C184.119 2.05 184.42 2.05762 184.714 2.07278L184.817 0.0754232C184.487 0.0584464 184.153 0.0499983 183.814 0.0499983V2.05ZM186.488 2.26603C187.086 2.36817 187.658 2.50614 188.204 2.6792L188.808 0.772754C188.171 0.570601 187.509 0.411462 186.825 0.294582L186.488 2.26603ZM189.824 3.33244C190.085 3.46224 190.339 3.60189 190.587 3.75138L191.62 2.03862C191.326 1.86113 191.024 1.69552 190.715 1.54181L189.824 3.33244ZM190.597 3.75693C190.839 3.8992 191.074 4.05086 191.302 4.21194L192.455 2.57804C192.182 2.38494 191.9 2.20328 191.611 2.03306L190.597 3.75693ZM192.588 5.28987C192.981 5.67765 193.35 6.10319 193.696 6.56746L195.3 5.37364C194.896 4.83103 194.461 4.32838 193.993 3.86666L192.588 5.28987ZM194.621 8.00637C194.758 8.2537 194.89 8.50948 195.018 8.77381L196.82 7.90618C196.676 7.60788 196.526 7.31752 196.369 7.03519L194.621 8.00637ZM195.422 7.47219L194.724 7.87156L195.718 9.60719L196.416 9.20781L195.422 7.47219ZM193.329 8.67031L191.934 9.46906L192.928 11.2047L194.323 10.4059L193.329 8.67031ZM190.539 10.2678L189.842 10.6672L190.836 12.4028L191.533 12.0034L190.539 10.2678ZM191.27 11.1715C191.137 10.8287 190.984 10.4979 190.811 10.1795L189.053 11.1322C189.185 11.3759 189.303 11.6312 189.407 11.8985L191.27 11.1715ZM189.524 8.40326C189.275 8.1403 189.008 7.89193 188.724 7.65807L187.453 9.20193C187.675 9.38445 187.881 9.57643 188.071 9.77777L189.524 8.40326ZM188.738 7.66917C188.389 7.37194 188.005 7.11889 187.588 6.90915L186.689 8.69589C186.969 8.83652 187.218 9.00179 187.44 9.19083L188.738 7.66917ZM185.067 6.19353C184.665 6.14744 184.247 6.125 183.814 6.125V8.125C184.178 8.125 184.52 8.1439 184.839 8.1805L185.067 6.19353ZM183.814 6.125C183.286 6.125 182.777 6.15958 182.287 6.23047L182.573 8.20989C182.96 8.15387 183.374 8.125 183.814 8.125V6.125ZM179.305 7.26582C178.844 7.54546 178.418 7.87544 178.03 8.25442L179.427 9.68557C179.708 9.41198 180.012 9.17594 180.342 8.97612L179.305 7.26582ZM178.03 8.25442C177.807 8.47246 177.601 8.70803 177.412 8.96045L179.014 10.1578C179.142 9.98691 179.28 9.82973 179.427 9.68557L178.03 8.25442ZM176.53 10.5615C176.323 11.086 176.166 11.6505 176.053 12.2516L178.019 12.6184C178.111 12.1271 178.236 11.6872 178.391 11.2956L176.53 10.5615ZM175.86 13.9399C175.846 14.2119 175.839 14.4903 175.839 14.775H177.839C177.839 14.5226 177.845 14.2785 177.857 14.0425L175.86 13.9399ZM175.839 14.775V16.035H177.839V14.775H175.839ZM175.839 18.555V19.815H177.839V18.555H175.839ZM175.839 19.815C175.839 20.0997 175.846 20.3783 175.86 20.6506L177.857 20.5459C177.845 20.3103 177.839 20.0667 177.839 19.815H175.839ZM176.057 22.3391C176.171 22.938 176.33 23.5015 176.538 24.0262L178.397 23.2885C178.241 22.8952 178.115 22.4557 178.022 21.967L176.057 22.3391ZM177.414 25.6212C177.6 25.8725 177.803 26.108 178.022 26.3271L179.436 24.9129C179.288 24.7652 179.15 24.6052 179.023 24.4324L177.414 25.6212ZM178.03 26.3356C178.418 26.7146 178.844 27.0445 179.305 27.3242L180.342 25.6139C180.012 25.4141 179.708 25.178 179.427 24.9044L178.03 26.3356ZM182.287 28.3595C182.777 28.4304 183.286 28.465 183.814 28.465V26.465C183.374 26.465 182.96 26.4361 182.573 26.3801L182.287 28.3595ZM183.814 28.465C184.034 28.465 184.252 28.4593 184.468 28.4478L184.362 26.4506C184.182 26.4602 184 26.465 183.814 26.465V28.465ZM185.78 28.3017C186 28.2636 186.218 28.2189 186.432 28.1674L185.965 26.2226C185.793 26.2639 185.618 26.3 185.44 26.3309L185.78 28.3017ZM186.468 28.158C186.669 28.1019 186.865 28.0397 187.056 27.9713L186.383 26.0881C186.237 26.1401 186.086 26.1881 185.929 26.232L186.468 28.158ZM188.2 27.4559C188.388 27.3517 188.569 27.2399 188.743 27.1203L187.614 25.4697C187.491 25.5536 187.363 25.6331 187.228 25.7079L188.2 27.4559ZM188.772 27.1001C188.934 26.9806 189.089 26.8549 189.235 26.7227L187.895 25.2378C187.8 25.324 187.697 25.4081 187.586 25.4899L188.772 27.1001ZM190.046 25.8067C190.164 25.6362 190.272 25.4592 190.369 25.2757L188.599 24.3443C188.541 24.4546 188.476 24.5614 188.404 24.6647L190.046 25.8067ZM190.349 25.311C190.463 25.1145 190.561 24.9094 190.644 24.6965L188.779 23.9734C188.733 24.0919 188.679 24.2035 188.618 24.309L190.349 25.311ZM190.947 23.4157C190.968 23.2092 190.979 22.9989 190.979 22.785H188.979C188.979 22.9334 188.971 23.074 188.958 23.2072L190.947 23.4157ZM190.979 22.785V22.3912H188.979V22.785H190.979ZM190.979 21.6037V21.21H188.979V21.6037H190.979ZM189.979 20.21H188.516V22.21H189.979V20.21ZM185.591 20.21H184.129V22.21H185.591V20.21ZM185.129 21.21V19.7812H183.129V21.21H185.129ZM185.129 16.9237V15.495H183.129V16.9237H185.129ZM184.129 16.495H185.16V14.495H184.129V16.495ZM187.223 16.495H189.285V14.495H187.223V16.495ZM191.348 16.495H193.41V14.495H191.348V16.495ZM195.473 16.495H196.504V14.495H195.473V16.495ZM195.504 15.495V16.5891H197.504V15.495H195.504ZM195.504 18.7772V20.9653H197.504V18.7772H195.504ZM195.504 23.1534V25.3416H197.504V23.1534H195.504ZM195.504 27.5297V29.7178H197.504V27.5297H195.504ZM195.504 31.9059V33H197.504V31.9059H195.504ZM196.504 32H195.064V34H196.504V32ZM192.184 32H190.744V34H192.184V32ZM191.744 33V31.7512H189.744V33H191.744ZM191.744 29.2537V28.005H189.744V29.2537H191.744Z" fill="#DADADA"></path> </svg> 