<?xml version="1.0" encoding="UTF-8"?> <svg xmlns="http://www.w3.org/2000/svg" width="130" height="90" viewBox="0 0 130 90" fill="none"> <path d="M2.465 43H1.965V43.5H2.465V43ZM2.465 11.59V11.09H1.965V11.59H2.465ZM23.84 11.59H24.34V11.09H23.84V11.59ZM23.84 17.665V18.165H24.34V17.665H23.84ZM9.305 17.665V17.165H8.805V17.665H9.305ZM9.305 24.1H8.805V24.6H9.305V24.1ZM21.77 24.1H22.27V23.6H21.77V24.1ZM21.77 30.13V30.63H22.27V30.13H21.77ZM9.305 30.13V29.63H8.805V30.13H9.305ZM9.305 36.925H8.805V37.425H9.305V36.925ZM23.84 36.925H24.34V36.425H23.84V36.925ZM23.84 43V43.5H24.34V43H23.84ZM2.965 43V42.0184H1.965V43H2.965ZM2.965 40.0553V38.0922H1.965V40.0553H2.965ZM2.965 36.1291V34.1659H1.965V36.1291H2.965ZM2.965 32.2028V30.2397H1.965V32.2028H2.965ZM2.965 28.2766V26.3134H1.965V28.2766H2.965ZM2.965 24.3503V22.3872H1.965V24.3503H2.965ZM2.965 20.4241V18.4609H1.965V20.4241H2.965ZM2.965 16.4978V14.5347H1.965V16.4978H2.965ZM2.965 12.5716V11.59H1.965V12.5716H2.965ZM2.465 12.09H3.53375V11.09H2.465V12.09ZM5.67125 12.09H7.80875V11.09H5.67125V12.09ZM9.94625 12.09H12.0838V11.09H9.94625V12.09ZM14.2213 12.09H16.3588V11.09H14.2213V12.09ZM18.4963 12.09H20.6338V11.09H18.4963V12.09ZM22.7713 12.09H23.84V11.09H22.7713V12.09ZM23.34 11.59V12.3494H24.34V11.59H23.34ZM23.34 13.8681V15.3869H24.34V13.8681H23.34ZM23.34 16.9056V17.665H24.34V16.9056H23.34ZM23.84 17.165H22.9316V18.165H23.84V17.165ZM21.1147 17.165H19.2978V18.165H21.1147V17.165ZM17.4809 17.165H15.6641V18.165H17.4809V17.165ZM13.8472 17.165H12.0303V18.165H13.8472V17.165ZM10.2134 17.165H9.305V18.165H10.2134V17.165ZM8.805 17.665V18.4694H9.805V17.665H8.805ZM8.805 20.0781V21.6869H9.805V20.0781H8.805ZM8.805 23.2956V24.1H9.805V23.2956H8.805ZM9.305 24.6H10.3438V23.6H9.305V24.6ZM12.4213 24.6H14.4988V23.6H12.4213V24.6ZM16.5763 24.6H18.6538V23.6H16.5763V24.6ZM20.7313 24.6H21.77V23.6H20.7313V24.6ZM21.27 24.1V24.8537H22.27V24.1H21.27ZM21.27 26.3612V27.8687H22.27V26.3612H21.27ZM21.27 29.3762V30.13H22.27V29.3762H21.27ZM21.77 29.63H20.7313V30.63H21.77V29.63ZM18.6538 29.63H16.5763V30.63H18.6538V29.63ZM14.4988 29.63H12.4213V30.63H14.4988V29.63ZM10.3438 29.63H9.305V30.63H10.3438V29.63ZM8.805 30.13V30.9794H9.805V30.13H8.805ZM8.805 32.6781V34.3769H9.805V32.6781H8.805ZM8.805 36.0756V36.925H9.805V36.0756H8.805ZM9.305 37.425H10.2134V36.425H9.305V37.425ZM12.0303 37.425H13.8472V36.425H12.0303V37.425ZM15.6641 37.425H17.4809V36.425H15.6641V37.425ZM19.2978 37.425H21.1147V36.425H19.2978V37.425ZM22.9316 37.425H23.84V36.425H22.9316V37.425ZM23.34 36.925V37.6844H24.34V36.925H23.34ZM23.34 39.2031V40.7219H24.34V39.2031H23.34ZM23.34 42.2406V43H24.34V42.2406H23.34ZM23.84 42.5H22.7713V43.5H23.84V42.5ZM20.6338 42.5H18.4963V43.5H20.6338V42.5ZM16.3588 42.5H14.2213V43.5H16.3588V42.5ZM12.0837 42.5H9.94625V43.5H12.0837V42.5ZM7.80875 42.5H5.67125V43.5H7.80875V42.5ZM3.53375 42.5H2.465V43.5H3.53375V42.5ZM2.465 43H1.465V44H2.465V43ZM2.465 11.59V10.59H1.465V11.59H2.465ZM23.84 11.59H24.84V10.59H23.84V11.59ZM23.84 17.665V18.665H24.84V17.665H23.84ZM9.305 17.665V16.665H8.305V17.665H9.305ZM9.305 24.1H8.305V25.1H9.305V24.1ZM21.77 24.1H22.77V23.1H21.77V24.1ZM21.77 30.13V31.13H22.77V30.13H21.77ZM9.305 30.13V29.13H8.305V30.13H9.305ZM9.305 36.925H8.305V37.925H9.305V36.925ZM23.84 36.925H24.84V35.925H23.84V36.925ZM23.84 43V44H24.84V43H23.84ZM3.465 43V42.0184H1.465V43H3.465ZM3.465 40.0553V38.0922H1.465V40.0553H3.465ZM3.465 36.1291V34.1659H1.465V36.1291H3.465ZM3.465 32.2028V30.2397H1.465V32.2028H3.465ZM3.465 28.2766V26.3134H1.465V28.2766H3.465ZM3.465 24.3503V22.3872H1.465V24.3503H3.465ZM3.465 20.4241V18.4609H1.465V20.4241H3.465ZM3.465 16.4978V14.5347H1.465V16.4978H3.465ZM3.465 12.5716V11.59H1.465V12.5716H3.465ZM2.465 12.59H3.53375V10.59H2.465V12.59ZM5.67125 12.59H7.80875V10.59H5.67125V12.59ZM9.94625 12.59H12.0838V10.59H9.94625V12.59ZM14.2213 12.59H16.3588V10.59H14.2213V12.59ZM18.4963 12.59H20.6338V10.59H18.4963V12.59ZM22.7713 12.59H23.84V10.59H22.7713V12.59ZM22.84 11.59V12.3494H24.84V11.59H22.84ZM22.84 13.8681V15.3869H24.84V13.8681H22.84ZM22.84 16.9056V17.665H24.84V16.9056H22.84ZM23.84 16.665H22.9316V18.665H23.84V16.665ZM21.1147 16.665H19.2978V18.665H21.1147V16.665ZM17.4809 16.665H15.6641V18.665H17.4809V16.665ZM13.8472 16.665H12.0303V18.665H13.8472V16.665ZM10.2134 16.665H9.305V18.665H10.2134V16.665ZM8.305 17.665V18.4694H10.305V17.665H8.305ZM8.305 20.0781V21.6869H10.305V20.0781H8.305ZM8.305 23.2956V24.1H10.305V23.2956H8.305ZM9.305 25.1H10.3438V23.1H9.305V25.1ZM12.4213 25.1H14.4988V23.1H12.4213V25.1ZM16.5763 25.1H18.6538V23.1H16.5763V25.1ZM20.7313 25.1H21.77V23.1H20.7313V25.1ZM20.77 24.1V24.8537H22.77V24.1H20.77ZM20.77 26.3612V27.8687H22.77V26.3612H20.77ZM20.77 29.3762V30.13H22.77V29.3762H20.77ZM21.77 29.13H20.7313V31.13H21.77V29.13ZM18.6538 29.13H16.5763V31.13H18.6538V29.13ZM14.4988 29.13H12.4213V31.13H14.4988V29.13ZM10.3438 29.13H9.305V31.13H10.3438V29.13ZM8.305 30.13V30.9794H10.305V30.13H8.305ZM8.305 32.6781V34.3769H10.305V32.6781H8.305ZM8.305 36.0756V36.925H10.305V36.0756H8.305ZM9.305 37.925H10.2134V35.925H9.305V37.925ZM12.0303 37.925H13.8472V35.925H12.0303V37.925ZM15.6641 37.925H17.4809V35.925H15.6641V37.925ZM19.2978 37.925H21.1147V35.925H19.2978V37.925ZM22.9316 37.925H23.84V35.925H22.9316V37.925ZM22.84 36.925V37.6844H24.84V36.925H22.84ZM22.84 39.2031V40.7219H24.84V39.2031H22.84ZM22.84 42.2406V43H24.84V42.2406H22.84ZM23.84 42H22.7713V44H23.84V42ZM20.6338 42H18.4963V44H20.6338V42ZM16.3588 42H14.2213V44H16.3588V42ZM12.0837 42H9.94625V44H12.0837V42ZM7.80875 42H5.67125V44H7.80875V42ZM3.53375 42H2.465V44H3.53375V42ZM36.639 43V43.5H37.139V43H36.639ZM29.799 43H29.299V43.5H29.799V43ZM29.799 11.59V11.09H29.299V11.59H29.799ZM48.609 12.31L48.7988 11.8474L48.7988 11.8474L48.609 12.31ZM51.579 14.38L51.2073 14.7145L51.2132 14.721L51.2193 14.7273L51.579 14.38ZM52.749 27.205L52.3209 26.9465L52.3174 26.9526L52.749 27.205ZM48.474 30.67L48.2984 30.2018L47.7784 30.3968L48.0268 30.8936L48.474 30.67ZM54.639 43V43.5H55.448L55.0862 42.7764L54.639 43ZM47.034 43L46.5826 43.2151L46.7184 43.5H47.034V43ZM41.544 31.48L41.9954 31.2649L41.8596 30.98H41.544V31.48ZM36.639 31.48V30.98H36.139V31.48H36.639ZM46.224 24.955L46.5574 25.3276L46.5585 25.3266L46.224 24.955ZM46.224 18.34L45.8801 18.703L45.8899 18.7122L45.9002 18.721L46.224 18.34ZM36.639 17.53V17.03H36.139V17.53H36.639ZM36.639 25.72H36.139V26.22H36.639V25.72ZM36.639 42.5H35.784V43.5H36.639V42.5ZM34.074 42.5H32.364V43.5H34.074V42.5ZM30.654 42.5H29.799V43.5H30.654V42.5ZM30.299 43V42.0184H29.299V43H30.299ZM30.299 40.0553V38.0922H29.299V40.0553H30.299ZM30.299 36.1291V34.1659H29.299V36.1291H30.299ZM30.299 32.2028V30.2397H29.299V32.2028H30.299ZM30.299 28.2766V26.3134H29.299V28.2766H30.299ZM30.299 24.3503V22.3872H29.299V24.3503H30.299ZM30.299 20.4241V18.4609H29.299V20.4241H30.299ZM30.299 16.4978V14.5347H29.299V16.4978H30.299ZM30.299 12.5716V11.59H29.299V12.5716H30.299ZM29.799 12.09H30.7299V11.09H29.799V12.09ZM32.5918 12.09H34.4537V11.09H32.5918V12.09ZM36.3155 12.09H38.1774V11.09H36.3155V12.09ZM40.0393 12.09H41.9012V11.09H40.0393V12.09ZM43.763 12.09H44.694V11.09H43.763V12.09ZM44.694 12.09C45.0219 12.09 45.3417 12.1029 45.6533 12.1287L45.7357 11.1321C45.3955 11.104 45.0482 11.09 44.694 11.09V12.09ZM47.5257 12.4633C47.8328 12.5511 48.1306 12.6542 48.4192 12.7726L48.7988 11.8474C48.4752 11.7147 48.1424 11.5995 47.8004 11.5018L47.5257 12.4633ZM48.4192 12.7726C48.6894 12.8834 48.9486 13.0058 49.1972 13.1396L49.6712 12.2591C49.3911 12.1083 49.1002 11.9711 48.7988 11.8474L48.4192 12.7726ZM50.6001 14.1133C50.8131 14.301 51.0155 14.5013 51.2073 14.7145L51.9506 14.0455C51.7332 13.8039 51.5034 13.5764 51.2612 13.363L50.6001 14.1133ZM51.2193 14.7273C51.4216 14.9368 51.6119 15.1576 51.7903 15.3895L52.583 14.7799C52.3819 14.5184 52.1671 14.2693 51.9387 14.0327L51.2193 14.7273ZM52.7029 16.8864C52.8272 17.1475 52.9411 17.4193 53.0444 17.7018L53.9835 17.3582C53.8699 17.0474 53.744 16.7469 53.6059 16.4566L52.7029 16.8864ZM53.0444 17.7018C53.1566 18.0083 53.2542 18.3242 53.3372 18.6496L54.3062 18.4024C54.215 18.0452 54.1075 17.6971 53.9835 17.3582L53.0444 17.7018ZM53.6526 20.6199C53.6768 20.9469 53.689 21.2819 53.689 21.625H54.689C54.689 21.2582 54.676 20.8985 54.6498 20.5459L53.6526 20.6199ZM53.689 21.625C53.689 22.1077 53.6634 22.5744 53.6127 23.0253L54.6064 23.1371C54.6616 22.647 54.689 22.1429 54.689 21.625H53.689ZM52.9408 25.7132C52.7651 26.1421 52.5585 26.5531 52.321 26.9466L53.177 27.4634C53.4414 27.0256 53.6711 26.5684 53.8661 26.0922L52.9408 25.7132ZM52.3174 26.9526C52.0935 27.3353 51.8396 27.6902 51.5555 28.0178L52.3111 28.6729C52.6363 28.2978 52.9261 27.8925 53.1806 27.4574L52.3174 26.9526ZM49.5099 29.6493C49.1342 29.8555 48.7306 30.0398 48.2984 30.2018L48.6495 31.1382C49.1235 30.9604 49.5708 30.7566 49.9909 30.526L49.5099 29.6493ZM48.0268 30.8936L48.5405 31.9211L49.4349 31.4739L48.9212 30.4464L48.0268 30.8936ZM49.568 33.9761L50.5955 36.0311L51.4899 35.5839L50.4624 33.5289L49.568 33.9761ZM51.623 38.0861L52.6505 40.1411L53.5449 39.6939L52.5174 37.6389L51.623 38.0861ZM53.678 42.1961L54.1918 43.2236L55.0862 42.7764L54.5724 41.7489L53.678 42.1961ZM54.639 42.5H53.6884V43.5H54.639V42.5ZM51.7871 42.5H49.8859V43.5H51.7871V42.5ZM47.9846 42.5H47.034V43.5H47.9846V42.5ZM47.4853 42.7849L47.0278 41.8249L46.1251 42.2551L46.5826 43.2151L47.4853 42.7849ZM46.1129 39.9049L45.1979 37.9849L44.2951 38.4151L45.2101 40.3351L46.1129 39.9049ZM44.2829 36.0649L43.3679 34.1449L42.4651 34.5751L43.3801 36.4951L44.2829 36.0649ZM42.4529 32.2249L41.9954 31.2649L41.0926 31.6951L41.5501 32.6551L42.4529 32.2249ZM41.544 30.98H40.3177V31.98H41.544V30.98ZM37.8652 30.98H36.639V31.98H37.8652V30.98ZM36.139 31.48V32.44H37.139V31.48H36.139ZM36.139 34.36V36.28H37.139V34.36H36.139ZM36.139 38.2V40.12H37.139V38.2H36.139ZM36.139 42.04V43H37.139V42.04H36.139ZM43.839 25.22H42.939V26.22H43.839V25.22ZM41.139 25.22H39.339V26.22H41.139V25.22ZM37.539 25.22H36.639V26.22H37.539V25.22ZM37.139 25.72V24.6962H36.139V25.72H37.139ZM37.139 22.6487V20.6012H36.139V22.6487H37.139ZM37.139 18.5537V17.53H36.139V18.5537H37.139ZM36.639 18.03H37.539V17.03H36.639V18.03ZM39.339 18.03H41.139V17.03H39.339V18.03ZM42.939 18.03H43.839V17.03H42.939V18.03ZM43.839 18.03C44.0452 18.03 44.2382 18.0421 44.4186 18.0655L44.5473 17.0738C44.3203 17.0443 44.0841 17.03 43.839 17.03V18.03ZM45.4596 18.3927C45.6143 18.4803 45.7541 18.5836 45.8801 18.703L46.5679 17.977C46.3821 17.801 46.1766 17.6495 45.9522 17.5225L45.4596 18.3927ZM45.9002 18.721C46.0289 18.8304 46.1394 18.954 46.2325 19.0924L47.0622 18.5341C46.9176 18.3193 46.7458 18.1273 46.5478 17.959L45.9002 18.721ZM46.5858 20.0718C46.6109 20.2449 46.624 20.4324 46.624 20.635H47.624C47.624 20.3896 47.6081 20.1538 47.5754 19.9282L46.5858 20.0718ZM46.624 20.635V21.13H47.624V20.635H46.624ZM46.624 22.12V22.615H47.624V22.12H46.624ZM46.624 22.615C46.624 22.82 46.6106 23.0105 46.5848 23.1872L47.5743 23.3317C47.6078 23.1024 47.624 22.8634 47.624 22.615H46.624ZM46.2256 24.192C46.1312 24.3361 46.0195 24.4663 45.8895 24.5834L46.5585 25.3266C46.752 25.1525 46.9202 24.9566 47.0622 24.7397L46.2256 24.192ZM45.8906 24.5824C45.7638 24.6958 45.6222 24.7945 45.4647 24.8782L45.9338 25.7613C46.1605 25.6409 46.3688 25.4963 46.5574 25.3276L45.8906 24.5824ZM44.4178 25.1868C44.2375 25.2087 44.0447 25.22 43.839 25.22V26.22C44.0811 26.22 44.3144 26.2067 44.5385 26.1795L44.4178 25.1868ZM36.639 43V44H37.639V43H36.639ZM29.799 43H28.799V44H29.799V43ZM29.799 11.59V10.59H28.799V11.59H29.799ZM48.609 12.31L48.9885 11.3848L48.9885 11.3848L48.609 12.31ZM51.579 14.38L50.8357 15.049L50.8474 15.062L50.8596 15.0746L51.579 14.38ZM52.749 27.205L51.8928 26.6881L51.8858 26.7001L52.749 27.205ZM48.474 30.67L48.1229 29.7337L47.0828 30.1237L47.5796 31.1172L48.474 30.67ZM54.639 43V44H56.257L55.5334 42.5528L54.639 43ZM47.034 43L46.1313 43.4302L46.4028 44H47.034V43ZM41.544 31.48L42.4467 31.0498L42.1752 30.48H41.544V31.48ZM36.639 31.48V30.48H35.639V31.48H36.639ZM46.224 24.955L46.8908 25.7002L46.893 25.6983L46.224 24.955ZM46.224 18.34L45.5362 19.066L45.5558 19.0845L45.5763 19.1019L46.224 18.34ZM36.639 17.53V16.53H35.639V17.53H36.639ZM36.639 25.72H35.639V26.72H36.639V25.72ZM36.639 42H35.784V44H36.639V42ZM34.074 42H32.364V44H34.074V42ZM30.654 42H29.799V44H30.654V42ZM30.799 43V42.0184H28.799V43H30.799ZM30.799 40.0553V38.0922H28.799V40.0553H30.799ZM30.799 36.1291V34.1659H28.799V36.1291H30.799ZM30.799 32.2028V30.2397H28.799V32.2028H30.799ZM30.799 28.2766V26.3134H28.799V28.2766H30.799ZM30.799 24.3503V22.3872H28.799V24.3503H30.799ZM30.799 20.4241V18.4609H28.799V20.4241H30.799ZM30.799 16.4978V14.5347H28.799V16.4978H30.799ZM30.799 12.5716V11.59H28.799V12.5716H30.799ZM29.799 12.59H30.7299V10.59H29.799V12.59ZM32.5918 12.59H34.4537V10.59H32.5918V12.59ZM36.3155 12.59H38.1774V10.59H36.3155V12.59ZM40.0393 12.59H41.9012V10.59H40.0393V12.59ZM43.763 12.59H44.694V10.59H43.763V12.59ZM44.694 12.59C45.0088 12.59 45.3148 12.6024 45.6122 12.627L45.7768 10.6338C45.4224 10.6045 45.0614 10.59 44.694 10.59V12.59ZM47.3884 12.9441C47.678 13.0269 47.9583 13.1239 48.2294 13.2352L48.9885 11.3848C48.6475 11.2449 48.2972 11.1237 47.9378 11.021L47.3884 12.9441ZM48.2294 13.2352C48.4839 13.3396 48.7274 13.4545 48.9601 13.5798L49.9083 11.8189C49.6124 11.6595 49.3057 11.5149 48.9885 11.3848L48.2294 13.2352ZM50.2695 14.4884C50.4679 14.6632 50.6567 14.85 50.8357 15.049L52.3223 13.711C52.0921 13.4552 51.8486 13.2141 51.5918 12.9879L50.2695 14.4884ZM50.8596 15.0746C51.0489 15.2706 51.227 15.4771 51.394 15.6943L52.9794 14.4751C52.7669 14.1988 52.5399 13.9355 52.2984 13.6854L50.8596 15.0746ZM52.2514 17.1012C52.3688 17.3478 52.4767 17.6052 52.5749 17.8736L54.4531 17.1864C54.3342 16.8615 54.2024 16.5466 54.0573 16.2418L52.2514 17.1012ZM52.5749 17.8736C52.6811 18.1639 52.7738 18.4637 52.8528 18.7732L54.7907 18.2787C54.6955 17.9057 54.583 17.5415 54.4531 17.1864L52.5749 17.8736ZM53.1539 20.6568C53.1772 20.9711 53.189 21.2937 53.189 21.625H55.189C55.189 21.2464 55.1755 20.8744 55.1485 20.509L53.1539 20.6568ZM53.189 21.625C53.189 22.09 53.1644 22.538 53.1158 22.9693L55.1033 23.1931C55.1606 22.6834 55.189 22.1606 55.189 21.625H53.189ZM52.4781 25.5237C52.3121 25.9289 52.1171 26.3169 51.8929 26.6881L53.605 27.7219C53.8828 27.2618 54.1241 26.7816 54.3288 26.2817L52.4781 25.5237ZM51.8858 26.7001C51.6772 27.0567 51.4412 27.3864 51.1778 27.6902L52.6889 29.0004C53.0347 28.6016 53.3424 28.171 53.6122 27.7099L51.8858 26.7001ZM49.2694 29.211C48.9159 29.4049 48.5341 29.5794 48.1229 29.7337L48.8251 31.6063C49.3199 31.4208 49.7891 31.2071 50.2314 30.9644L49.2694 29.211ZM47.5796 31.1172L48.0933 32.1447L49.8822 31.2503L49.3684 30.2228L47.5796 31.1172ZM49.1208 34.1997L50.1483 36.2547L51.9372 35.3603L50.9097 33.3053L49.1208 34.1997ZM51.1758 38.3097L52.2033 40.3647L53.9922 39.4703L52.9647 37.4153L51.1758 38.3097ZM53.2308 42.4197L53.7446 43.4472L55.5334 42.5528L55.0197 41.5253L53.2308 42.4197ZM54.639 42H53.6884V44H54.639V42ZM51.7871 42H49.8859V44H51.7871V42ZM47.9846 42H47.034V44H47.9846V42ZM47.9367 42.5698L47.4792 41.6098L45.6738 42.4702L46.1313 43.4302L47.9367 42.5698ZM46.5642 39.6898L45.6492 37.7698L43.8438 38.6302L44.7588 40.5502L46.5642 39.6898ZM44.7342 35.8498L43.8192 33.9298L42.0138 34.7902L42.9288 36.7102L44.7342 35.8498ZM42.9042 32.0098L42.4467 31.0498L40.6413 31.9102L41.0988 32.8702L42.9042 32.0098ZM41.544 30.48H40.3177V32.48H41.544V30.48ZM37.8652 30.48H36.639V32.48H37.8652V30.48ZM35.639 31.48V32.44H37.639V31.48H35.639ZM35.639 34.36V36.28H37.639V34.36H35.639ZM35.639 38.2V40.12H37.639V38.2H35.639ZM35.639 42.04V43H37.639V42.04H35.639ZM43.839 24.72H42.939V26.72H43.839V24.72ZM41.139 24.72H39.339V26.72H41.139V24.72ZM37.539 24.72H36.639V26.72H37.539V24.72ZM37.639 25.72V24.6962H35.639V25.72H37.639ZM37.639 22.6487V20.6012H35.639V22.6487H37.639ZM37.639 18.5537V17.53H35.639V18.5537H37.639ZM36.639 18.53H37.539V16.53H36.639V18.53ZM39.339 18.53H41.139V16.53H39.339V18.53ZM42.939 18.53H43.839V16.53H42.939V18.53ZM43.839 18.53C44.0258 18.53 44.1972 18.5409 44.3542 18.5613L44.6116 16.578C44.3614 16.5455 44.1035 16.53 43.839 16.53V18.53ZM45.2133 18.8278C45.3332 18.8957 45.4402 18.9749 45.5362 19.066L46.9117 17.614C46.6961 17.4097 46.4577 17.234 46.1986 17.0873L45.2133 18.8278ZM45.5763 19.1019C45.6705 19.182 45.7502 19.2713 45.8177 19.3716L47.477 18.255C47.3067 18.0019 47.1042 17.7757 46.8716 17.5781L45.5763 19.1019ZM46.091 20.1436C46.1123 20.2905 46.124 20.4538 46.124 20.635H48.124C48.124 20.3682 48.1068 20.1082 48.0702 19.8564L46.091 20.1436ZM46.124 20.635V21.13H48.124V20.635H46.124ZM46.124 22.12V22.615H48.124V22.12H46.124ZM46.124 22.615C46.124 22.7983 46.112 22.9645 46.09 23.115L48.0691 23.4039C48.1063 23.1484 48.124 22.885 48.124 22.615H46.124ZM45.8072 23.9181C45.7367 24.0258 45.6533 24.1233 45.555 24.2117L46.893 25.6983C47.1183 25.4955 47.3147 25.2669 47.4806 25.0136L45.8072 23.9181ZM45.5572 24.2098C45.4613 24.2956 45.3531 24.3713 45.2301 24.4366L46.1684 26.2029C46.4297 26.064 46.6713 25.8966 46.8908 25.7002L45.5572 24.2098ZM44.3575 24.6904C44.199 24.7097 44.0265 24.72 43.839 24.72V26.72C44.0993 26.72 44.3528 26.7057 44.5988 26.6758L44.3575 24.6904ZM64.456 43L63.9684 43.1104L64.0565 43.5H64.456V43ZM57.346 11.59V11.09H56.7202L56.8584 11.7004L57.346 11.59ZM64.096 11.59L64.5866 11.4933L64.5071 11.09H64.096V11.59ZM67.066 26.665L67.5572 26.5713L67.5566 26.5684L67.066 26.665ZM68.731 35.395L68.2399 35.4887L68.3174 35.895H68.731V35.395ZM68.866 35.395V35.895H69.2653L69.3536 35.5056L68.866 35.395ZM70.846 26.665L70.3587 26.553L70.3584 26.5544L70.846 26.665ZM74.311 11.59V11.09H73.9129L73.8237 11.478L74.311 11.59ZM81.781 11.59L82.268 11.4766L82.178 11.09H81.781V11.59ZM85.291 26.665L85.7792 26.5568L85.778 26.5516L85.291 26.665ZM87.226 35.395L86.7379 35.5032L86.8247 35.895H87.226V35.395ZM87.361 35.395V35.895H87.7747L87.8522 35.4887L87.361 35.395ZM89.026 26.665L88.5357 26.5669L88.5349 26.5713L89.026 26.665ZM92.041 11.59V11.09H91.6311L91.5507 11.4919L92.041 11.59ZM98.521 11.59L99.0081 11.703L99.1504 11.09H98.521V11.59ZM91.231 43V43.5H91.6283L91.7181 43.113L91.231 43ZM83.446 43L82.959 43.1134L83.049 43.5H83.446V43ZM79.486 25.99L78.9979 26.0985L78.999 26.1034L79.486 25.99ZM77.956 19.105L78.4441 18.9965L78.3571 18.605H77.956V19.105ZM77.821 19.105V18.605H77.4225L77.3336 18.9935L77.821 19.105ZM76.246 25.99L76.733 26.1034L76.7334 26.1015L76.246 25.99ZM72.286 43V43.5H72.683L72.773 43.1134L72.286 43ZM64.9437 42.8896L64.7215 41.908L63.7462 42.1288L63.9684 43.1104L64.9437 42.8896ZM64.2771 39.9449L63.8327 37.9818L62.8574 38.2026L63.3018 40.1657L64.2771 39.9449ZM63.3884 36.0187L62.944 34.0555L61.9687 34.2763L62.413 36.2394L63.3884 36.0187ZM62.4996 32.0924L62.0552 30.1293L61.0799 30.3501L61.5243 32.3132L62.4996 32.0924ZM61.6109 28.1662L61.1665 26.203L60.1912 26.4238L60.6355 28.3869L61.6109 28.1662ZM60.7221 24.2399L60.2777 22.2768L59.3024 22.4976L59.7468 24.4607L60.7221 24.2399ZM59.8334 20.3137L59.389 18.3506L58.4137 18.5713L58.858 20.5344L59.8334 20.3137ZM58.9446 16.3874L58.5002 14.4243L57.5249 14.6451L57.9693 16.6082L58.9446 16.3874ZM58.0559 12.4612L57.8337 11.4796L56.8584 11.7004L57.0805 12.682L58.0559 12.4612ZM57.346 12.09H58.1898V11.09H57.346V12.09ZM59.8773 12.09H61.5648V11.09H59.8773V12.09ZM63.2523 12.09H64.096V11.09H63.2523V12.09ZM63.6054 11.6866L63.7911 12.6288L64.7722 12.4355L64.5866 11.4933L63.6054 11.6866ZM64.1623 14.5132L64.5336 16.3976L65.5147 16.2043L65.1435 14.3199L64.1623 14.5132ZM64.9048 18.282L65.2761 20.1663L66.2572 19.973L65.886 18.0887L64.9048 18.282ZM65.6473 22.0507L66.0186 23.9351L66.9997 23.7418L66.6285 21.8574L65.6473 22.0507ZM66.3898 25.8195L66.5754 26.7616L67.5566 26.5684L67.371 25.6262L66.3898 25.8195ZM66.5749 26.7587L66.783 27.8499L67.7653 27.6626L67.5572 26.5713L66.5749 26.7587ZM67.1992 30.0324L67.6155 32.2149L68.5978 32.0276L68.1815 29.8451L67.1992 30.0324ZM68.0317 34.3974L68.2399 35.4887L69.2222 35.3013L69.014 34.2101L68.0317 34.3974ZM68.731 35.895H68.7648V34.895H68.731V35.895ZM68.8323 35.895H68.866V34.895H68.8323V35.895ZM69.3536 35.5056L69.6011 34.4143L68.6259 34.1932L68.3784 35.2844L69.3536 35.5056ZM70.0961 32.2318L70.5911 30.0493L69.6159 29.8282L69.1209 32.0107L70.0961 32.2318ZM71.0861 27.8668L71.3336 26.7756L70.3584 26.5544L70.1109 27.6457L71.0861 27.8668ZM71.3333 26.777L71.5499 25.8348L70.5753 25.6108L70.3587 26.553L71.3333 26.777ZM71.983 23.9504L72.4161 22.0661L71.4415 21.8421L71.0084 23.7264L71.983 23.9504ZM72.8492 20.1817L73.2824 18.2973L72.3078 18.0733L71.8747 19.9577L72.8492 20.1817ZM73.7155 16.4129L74.1486 14.5286L73.174 14.3046L72.7409 16.1889L73.7155 16.4129ZM74.5817 12.6442L74.7983 11.702L73.8237 11.478L73.6072 12.4202L74.5817 12.6442ZM74.311 12.09H75.2448V11.09H74.311V12.09ZM77.1123 12.09H78.9798V11.09H77.1123V12.09ZM80.8473 12.09H81.781V11.09H80.8473V12.09ZM81.294 11.7034L81.5134 12.6456L82.4874 12.4188L82.268 11.4766L81.294 11.7034ZM81.9522 14.5299L82.3909 16.4143L83.3649 16.1876L82.9261 14.3032L81.9522 14.5299ZM82.8297 18.2987L83.2684 20.1831L84.2424 19.9563L83.8036 18.0719L82.8297 18.2987ZM83.7072 22.0674L84.1459 23.9518L85.1199 23.7251L84.6811 21.8407L83.7072 22.0674ZM84.5847 25.8362L84.804 26.7784L85.778 26.5516L85.5586 25.6094L84.5847 25.8362ZM84.8029 26.7732L85.0447 27.8644L86.021 27.6481L85.7792 26.5568L84.8029 26.7732ZM85.5285 30.0469L86.0122 32.2294L86.9885 32.0131L86.5048 29.8306L85.5285 30.0469ZM86.496 34.4119L86.7379 35.5032L87.7142 35.2868L87.4723 34.1956L86.496 34.4119ZM87.226 35.895H87.2598V34.895H87.226V35.895ZM87.3273 35.895H87.361V34.895H87.3273V35.895ZM87.8522 35.4887L88.0603 34.3974L87.078 34.2101L86.8699 35.3013L87.8522 35.4887ZM88.4765 32.2149L88.8928 30.0324L87.9105 29.8451L87.4942 32.0276L88.4765 32.2149ZM89.309 27.8499L89.5172 26.7587L88.5349 26.5713L88.3267 27.6626L89.309 27.8499ZM89.5163 26.7631L89.7047 25.8209L88.7242 25.6248L88.5357 26.5669L89.5163 26.7631ZM90.0816 23.9365L90.4585 22.0521L89.4779 21.856L89.101 23.7404L90.0816 23.9365ZM90.8354 20.1677L91.2122 18.2834L90.2317 18.0873L89.8548 19.9716L90.8354 20.1677ZM91.5891 16.399L91.966 14.5146L90.9854 14.3185L90.6085 16.2029L91.5891 16.399ZM92.3429 12.6302L92.5313 11.6881L91.5507 11.4919L91.3623 12.4341L92.3429 12.6302ZM92.041 12.09H92.851V11.09H92.041V12.09ZM94.471 12.09H96.091V11.09H94.471V12.09ZM97.711 12.09H98.521V11.09H97.711V12.09ZM98.034 11.477L97.8062 12.4585L98.7803 12.6846L99.0081 11.703L98.034 11.477ZM97.3505 14.4216L96.8949 16.3848L97.869 16.6109L98.3246 14.6477L97.3505 14.4216ZM96.4393 18.3479L95.9837 20.311L96.9578 20.5371L97.4134 18.574L96.4393 18.3479ZM95.528 22.2741L95.0724 24.2373L96.0465 24.4634L96.5021 22.5002L95.528 22.2741ZM94.6168 26.2004L94.1612 28.1635L95.1353 28.3896L95.5909 26.4265L94.6168 26.2004ZM93.7055 30.1266L93.2499 32.0898L94.224 32.3158L94.6796 30.3527L93.7055 30.1266ZM92.7943 34.0529L92.3387 36.016L93.3128 36.2421L93.7684 34.279L92.7943 34.0529ZM91.883 37.9791L91.4274 39.9423L92.4015 40.1683L92.8571 38.2052L91.883 37.9791ZM90.9718 41.9054L90.744 42.887L91.7181 43.113L91.9459 42.1315L90.9718 41.9054ZM91.231 42.5H90.2579V43.5H91.231V42.5ZM88.3116 42.5H86.3654V43.5H88.3116V42.5ZM84.4191 42.5H83.446V43.5H84.4191V42.5ZM83.933 42.8866L83.6855 41.8235L82.7115 42.0502L82.959 43.1134L83.933 42.8866ZM83.1905 39.6973L82.6955 37.571L81.7215 37.7977L82.2165 39.924L83.1905 39.6973ZM82.2005 35.4448L81.7055 33.3185L80.7315 33.5452L81.2265 35.6715L82.2005 35.4448ZM81.2105 31.1923L80.7155 29.066L79.7415 29.2927L80.2365 31.419L81.2105 31.1923ZM80.2205 26.9398L79.973 25.8766L78.999 26.1034L79.2465 27.1665L80.2205 26.9398ZM79.9741 25.8815L79.7829 25.0209L78.8067 25.2378L78.9979 26.0985L79.9741 25.8815ZM79.4004 23.2997L79.0179 21.5784L78.0417 21.7953L78.4242 23.5166L79.4004 23.2997ZM78.6354 19.8572L78.4441 18.9965L77.4679 19.2135L77.6592 20.0741L78.6354 19.8572ZM77.956 18.605H77.9223V19.605H77.956V18.605ZM77.8548 18.605H77.821V19.605H77.8548V18.605ZM77.3336 18.9935L77.1367 19.8541L78.1116 20.0771L78.3084 19.2165L77.3336 18.9935ZM76.743 21.5754L76.3492 23.2966L77.3241 23.5196L77.7178 21.7984L76.743 21.5754ZM75.9555 25.0179L75.7586 25.8785L76.7334 26.1015L76.9303 25.2409L75.9555 25.0179ZM75.759 25.8766L75.5115 26.9398L76.4855 27.1665L76.733 26.1034L75.759 25.8766ZM75.0165 29.066L74.5215 31.1923L75.4955 31.419L75.9905 29.2927L75.0165 29.066ZM74.0265 33.3185L73.5315 35.4448L74.5055 35.6715L75.0005 33.5452L74.0265 33.3185ZM73.0365 37.571L72.5415 39.6973L73.5155 39.924L74.0105 37.7977L73.0365 37.571ZM72.0465 41.8235L71.799 42.8866L72.773 43.1134L73.0205 42.0502L72.0465 41.8235ZM72.286 42.5H71.3073V43.5H72.286V42.5ZM69.3498 42.5H67.3923V43.5H69.3498V42.5ZM65.4348 42.5H64.456V43.5H65.4348V42.5ZM64.456 43L63.4807 43.2208L63.6571 44H64.456V43ZM57.346 11.59V10.59H56.0944L56.3707 11.8108L57.346 11.59ZM64.096 11.59L65.0772 11.3967L64.9182 10.59H64.096V11.59ZM67.066 26.665L68.0483 26.4777L68.0472 26.4717L67.066 26.665ZM68.731 35.395L67.7487 35.5823L67.9037 36.395H68.731V35.395ZM68.866 35.395V36.395H69.6646L69.8412 35.6162L68.866 35.395ZM70.846 26.665L69.8714 26.441L69.8708 26.4438L70.846 26.665ZM74.311 11.59V10.59H73.5148L73.3364 11.366L74.311 11.59ZM81.781 11.59L82.755 11.3632L82.5749 10.59H81.781V11.59ZM85.291 26.665L86.2674 26.4486L86.265 26.4382L85.291 26.665ZM87.226 35.395L86.2497 35.6114L86.4234 36.395H87.226V35.395ZM87.361 35.395V36.395H88.1883L88.3433 35.5823L87.361 35.395ZM89.026 26.665L88.0454 26.4689L88.0437 26.4777L89.026 26.665ZM92.041 11.59V10.59H91.2212L91.0604 11.3939L92.041 11.59ZM98.521 11.59L99.4951 11.8161L99.7797 10.59H98.521V11.59ZM91.231 43V44H92.0255L92.2051 43.2261L91.231 43ZM83.446 43L82.4721 43.2267L82.6521 44H83.446V43ZM79.486 25.99L78.5098 26.2069L78.5121 26.2167L79.486 25.99ZM77.956 19.105L78.9322 18.8881L78.7582 18.105H77.956V19.105ZM77.821 19.105V18.105H77.0239L76.8462 18.882L77.821 19.105ZM76.246 25.99L77.22 26.2167L77.2208 26.213L76.246 25.99ZM72.286 43V44H73.08L73.26 43.2267L72.286 43ZM65.4313 42.7792L65.2092 41.7977L63.2585 42.2392L63.4807 43.2208L65.4313 42.7792ZM64.7648 39.8345L64.3204 37.8714L62.3698 38.313L62.8141 40.2761L64.7648 39.8345ZM63.876 35.9083L63.4317 33.9452L61.481 34.3867L61.9254 36.3498L63.876 35.9083ZM62.9873 31.982L62.5429 30.0189L60.5923 30.4605L61.0366 32.4236L62.9873 31.982ZM62.0985 28.0558L61.6542 26.0927L59.7035 26.5342L60.1479 28.4973L62.0985 28.0558ZM61.2098 24.1295L60.7654 22.1664L58.8148 22.608L59.2591 24.5711L61.2098 24.1295ZM60.321 20.2033L59.8767 18.2402L57.926 18.6817L58.3704 20.6448L60.321 20.2033ZM59.4323 16.277L58.9879 14.3139L57.0373 14.7555L57.4816 16.7186L59.4323 16.277ZM58.5435 12.3508L58.3213 11.3692L56.3707 11.8108L56.5929 12.7923L58.5435 12.3508ZM57.346 12.59H58.1898V10.59H57.346V12.59ZM59.8773 12.59H61.5648V10.59H59.8773V12.59ZM63.2523 12.59H64.096V10.59H63.2523V12.59ZM63.1149 11.7833L63.3005 12.7255L65.2628 12.3389L65.0772 11.3967L63.1149 11.7833ZM63.6718 14.6099L64.043 16.4942L66.0053 16.1076L65.634 14.2233L63.6718 14.6099ZM64.4143 18.3786L64.7855 20.263L66.7478 19.8764L66.3765 17.992L64.4143 18.3786ZM65.1568 22.1474L65.528 24.0317L67.4903 23.6451L67.119 21.7608L65.1568 22.1474ZM65.8993 25.9161L66.0849 26.8583L68.0472 26.4717L67.8615 25.5295L65.8993 25.9161ZM66.0837 26.8523L66.2918 27.9436L68.2564 27.5689L68.0483 26.4777L66.0837 26.8523ZM66.7081 30.1261L67.1243 32.3086L69.0889 31.9339L68.6727 29.7514L66.7081 30.1261ZM67.5406 34.4911L67.7487 35.5823L69.7133 35.2077L69.5052 34.1164L67.5406 34.4911ZM68.731 36.395H68.7648V34.395H68.731V36.395ZM68.8323 36.395H68.866V34.395H68.8323V36.395ZM69.8412 35.6162L70.0887 34.5249L68.1383 34.0826L67.8908 35.1738L69.8412 35.6162ZM70.5837 32.3424L71.0787 30.1599L69.1283 29.7176L68.6333 31.9001L70.5837 32.3424ZM71.5737 27.9774L71.8212 26.8862L69.8708 26.4438L69.6233 27.5351L71.5737 27.9774ZM71.8206 26.889L72.0372 25.9468L70.088 25.4988L69.8714 26.441L71.8206 26.889ZM72.4703 24.0624L72.9034 22.1781L70.9542 21.7301L70.5211 23.6144L72.4703 24.0624ZM73.3365 20.2937L73.7697 18.4093L71.8205 17.9613L71.3874 19.8457L73.3365 20.2937ZM74.2028 16.5249L74.6359 14.6406L72.6867 14.1926L72.2536 16.0769L74.2028 16.5249ZM75.069 12.7562L75.2856 11.814L73.3364 11.366L73.1199 12.3082L75.069 12.7562ZM74.311 12.59H75.2448V10.59H74.311V12.59ZM77.1123 12.59H78.9798V10.59H77.1123V12.59ZM80.8473 12.59H81.781V10.59H80.8473V12.59ZM80.8071 11.8168L81.0264 12.759L82.9743 12.3054L82.755 11.3632L80.8071 11.8168ZM81.4652 14.6433L81.9039 16.5277L83.8518 16.0742L83.4131 14.1898L81.4652 14.6433ZM82.3427 18.4121L82.7814 20.2965L84.7293 19.8429L84.2906 17.9585L82.3427 18.4121ZM83.2202 22.1808L83.6589 24.0652L85.6068 23.6117L85.1681 21.7273L83.2202 22.1808ZM84.0977 25.9496L84.3171 26.8918L86.265 26.4382L86.0456 25.496L84.0977 25.9496ZM84.3147 26.8814L84.5566 27.9726L86.5092 27.5399L86.2673 26.4486L84.3147 26.8814ZM85.0403 30.1551L85.5241 32.3376L87.4767 31.9049L86.9929 29.7224L85.0403 30.1551ZM86.0078 34.5201L86.2497 35.6114L88.2023 35.1786L87.9604 34.0874L86.0078 34.5201ZM87.226 36.395H87.2598V34.395H87.226V36.395ZM87.3273 36.395H87.361V34.395H87.3273V36.395ZM88.3433 35.5823L88.5514 34.4911L86.5868 34.1164L86.3787 35.2077L88.3433 35.5823ZM88.9677 32.3086L89.3839 30.1261L87.4193 29.7514L87.0031 31.9339L88.9677 32.3086ZM89.8002 27.9436L90.0083 26.8523L88.0437 26.4777L87.8356 27.5689L89.8002 27.9436ZM90.0066 26.8611L90.195 25.9189L88.2339 25.5267L88.0454 26.4689L90.0066 26.8611ZM90.5719 24.0346L90.9488 22.1502L88.9876 21.7579L88.6107 23.6423L90.5719 24.0346ZM91.3257 20.2658L91.7025 18.3814L89.7414 17.9892L89.3645 19.8736L91.3257 20.2658ZM92.0794 16.4971L92.4563 14.6127L90.4951 14.2204L90.1182 16.1048L92.0794 16.4971ZM92.8332 12.7283L93.0216 11.7861L91.0604 11.3939L90.872 12.3361L92.8332 12.7283ZM92.041 12.59H92.851V10.59H92.041V12.59ZM94.471 12.59H96.091V10.59H94.471V12.59ZM97.711 12.59H98.521V10.59H97.711V12.59ZM97.5469 11.3639L97.3191 12.3455L99.2673 12.7976L99.4951 11.8161L97.5469 11.3639ZM96.8635 14.3086L96.4078 16.2717L98.3561 16.7239L98.8117 14.7608L96.8635 14.3086ZM95.9522 18.2349L95.4966 20.198L97.4448 20.6501L97.9004 18.687L95.9522 18.2349ZM95.041 22.1611L94.5853 24.1242L96.5336 24.5764L96.9892 22.6133L95.041 22.1611ZM94.1297 26.0874L93.6741 28.0505L95.6223 28.5026L96.0779 26.5395L94.1297 26.0874ZM93.2185 30.0136L92.7628 31.9767L94.7111 32.4289L95.1667 30.4658L93.2185 30.0136ZM92.3072 33.9399L91.8516 35.903L93.7998 36.3551L94.2554 34.392L92.3072 33.9399ZM91.396 37.8661L90.9403 39.8292L92.8886 40.2814L93.3442 38.3183L91.396 37.8661ZM90.4847 41.7923L90.2569 42.7739L92.2051 43.2261L92.4329 42.2445L90.4847 41.7923ZM91.231 42H90.2579V44H91.231V42ZM88.3116 42H86.3654V44H88.3116V42ZM84.4191 42H83.446V44H84.4191V42ZM84.42 42.7733L84.1725 41.7101L82.2246 42.1636L82.4721 43.2267L84.42 42.7733ZM83.6775 39.5839L83.1825 37.4576L81.2346 37.9111L81.7296 40.0374L83.6775 39.5839ZM82.6875 35.3314L82.1925 33.2051L80.2446 33.6586L80.7396 35.7849L82.6875 35.3314ZM81.6975 31.0789L81.2025 28.9526L79.2546 29.4061L79.7496 31.5324L81.6975 31.0789ZM80.7075 26.8264L80.46 25.7633L78.5121 26.2167L78.7596 27.2799L80.7075 26.8264ZM80.4622 25.7731L80.271 24.9124L78.3186 25.3463L78.5098 26.2069L80.4622 25.7731ZM79.8885 23.1912L79.506 21.4699L77.5536 21.9038L77.9361 23.6251L79.8885 23.1912ZM79.1235 19.7487L78.9322 18.8881L76.9798 19.3219L77.1711 20.1826L79.1235 19.7487ZM77.956 18.105H77.9223V20.105H77.956V18.105ZM77.8548 18.105H77.821V20.105H77.8548V18.105ZM76.8462 18.882L76.6493 19.7426L78.599 20.1886L78.7958 19.328L76.8462 18.882ZM76.2556 21.4639L75.8618 23.1851L77.8115 23.6311L78.2052 21.9099L76.2556 21.4639ZM75.4681 24.9064L75.2712 25.767L77.2208 26.213L77.4177 25.3524L75.4681 24.9064ZM75.2721 25.7633L75.0246 26.8264L76.9725 27.2799L77.22 26.2167L75.2721 25.7633ZM74.5296 28.9526L74.0346 31.0789L75.9825 31.5324L76.4775 29.4061L74.5296 28.9526ZM73.5396 33.2051L73.0446 35.3314L74.9925 35.7849L75.4875 33.6586L73.5396 33.2051ZM72.5496 37.4576L72.0546 39.5839L74.0025 40.0374L74.4975 37.9111L72.5496 37.4576ZM71.5596 41.7101L71.3121 42.7733L73.26 43.2267L73.5075 42.1636L71.5596 41.7101ZM72.286 42H71.3073V44H72.286V42ZM69.3498 42H67.3923V44H69.3498V42ZM65.4348 42H64.456V44H65.4348V42ZM121.351 43L120.872 43.1442L120.98 43.5H121.351V43ZM119.101 35.53L119.58 35.3858L119.473 35.03H119.101V35.53ZM108.616 35.53V35.03H108.245L108.137 35.3858L108.616 35.53ZM106.366 43V43.5H106.738L106.845 43.1442L106.366 43ZM99.4361 43L98.9612 42.8435L98.7449 43.5H99.4361V43ZM109.786 11.59V11.09H109.424L109.311 11.4335L109.786 11.59ZM118.246 11.59L118.722 11.4354L118.609 11.09H118.246V11.59ZM128.461 43V43.5H129.15L128.937 42.8454L128.461 43ZM113.926 17.8L114.406 17.6588L114.3 17.3H113.926V17.8ZM113.701 17.8V17.3H113.326L113.221 17.6605L113.701 17.8ZM110.236 29.725L109.756 29.5855L109.57 30.225H110.236V29.725ZM117.436 29.725V30.225H118.105L117.916 29.5838L117.436 29.725ZM106.006 7.945L105.634 8.2784L105.643 8.28874L105.653 8.29855L106.006 7.945ZM106.006 2.815L105.643 2.47112L105.643 2.47169L106.006 2.815ZM111.631 2.815L111.259 3.14839L111.268 3.15874L111.278 3.16855L111.631 2.815ZM111.631 7.945L111.268 7.60113L111.268 7.60169L111.631 7.945ZM115.906 7.945L115.534 8.2784L115.543 8.28874L115.553 8.29855L115.906 7.945ZM115.906 2.815L115.543 2.47112L115.543 2.47169L115.906 2.815ZM121.531 2.815L121.159 3.14839L121.168 3.15874L121.178 3.16855L121.531 2.815ZM121.531 7.945L121.168 7.60113L121.168 7.60169L121.531 7.945ZM121.83 42.8558L121.549 41.922L120.591 42.2105L120.872 43.1442L121.83 42.8558ZM120.986 40.0545L120.424 38.187L119.466 38.4755L120.029 40.343L120.986 40.0545ZM119.861 36.3195L119.58 35.3858L118.622 35.6742L118.904 36.608L119.861 36.3195ZM119.101 35.03H118.227V36.03H119.101V35.03ZM116.48 35.03H114.732V36.03H116.48V35.03ZM112.985 35.03H111.237V36.03H112.985V35.03ZM109.49 35.03H108.616V36.03H109.49V35.03ZM108.137 35.3858L107.856 36.3195L108.814 36.608L109.095 35.6742L108.137 35.3858ZM107.294 38.187L106.731 40.0545L107.689 40.343L108.251 38.4755L107.294 38.187ZM106.169 41.922L105.887 42.8558L106.845 43.1442L107.126 42.2105L106.169 41.922ZM106.366 42.5H105.5V43.5H106.366V42.5ZM103.767 42.5H102.035V43.5H103.767V42.5ZM100.302 42.5H99.4361V43.5H100.302V42.5ZM99.911 43.1565L100.234 42.1749L99.2847 41.862L98.9612 42.8435L99.911 43.1565ZM100.881 40.2118L101.528 38.2487L100.578 37.9357L99.9316 39.8988L100.881 40.2118ZM102.175 36.2855L102.822 34.3224L101.872 34.0095L101.225 35.9726L102.175 36.2855ZM103.469 32.3593L104.116 30.3962L103.166 30.0832L102.519 32.0463L103.469 32.3593ZM104.763 28.433L105.409 26.4699L104.46 26.157L103.813 28.1201L104.763 28.433ZM106.056 24.5068L106.703 22.5437L105.753 22.2307L105.107 24.1938L106.056 24.5068ZM107.35 20.5805L107.997 18.6174L107.047 18.3045L106.4 20.2676L107.35 20.5805ZM108.644 16.6543L109.291 14.6912L108.341 14.3782L107.694 16.3413L108.644 16.6543ZM109.938 12.728L110.261 11.7465L109.311 11.4335L108.988 12.4151L109.938 12.728ZM109.786 12.09H110.844V11.09H109.786V12.09ZM112.959 12.09H115.074V11.09H112.959V12.09ZM117.189 12.09H118.246V11.09H117.189V12.09ZM117.771 11.7446L118.09 12.7262L119.041 12.4169L118.722 11.4354L117.771 11.7446ZM118.728 14.6893L119.367 16.6524L120.318 16.3432L119.679 14.3801L118.728 14.6893ZM120.005 18.6156L120.644 20.5787L121.595 20.2694L120.956 18.3063L120.005 18.6156ZM121.282 22.5418L121.92 24.5049L122.871 24.1957L122.233 22.2326L121.282 22.5418ZM122.559 26.4681L123.197 28.4312L124.148 28.1219L123.51 26.1588L122.559 26.4681ZM123.836 30.3943L124.474 32.3574L125.425 32.0482L124.787 30.0851L123.836 30.3943ZM125.113 34.3206L125.751 36.2837L126.702 35.9744L126.064 34.0113L125.113 34.3206ZM126.39 38.2468L127.028 40.2099L127.979 39.9007L127.341 37.9376L126.39 38.2468ZM127.666 42.1731L127.986 43.1546L128.937 42.8454L128.617 41.8638L127.666 42.1731ZM128.461 42.5H127.572V43.5H128.461V42.5ZM125.795 42.5H124.017V43.5H125.795V42.5ZM122.24 42.5H121.351V43.5H122.24V42.5ZM113.926 17.3H113.87V18.3H113.926V17.3ZM113.757 17.3H113.701V18.3H113.757V17.3ZM113.221 17.6605L112.932 18.6542L113.893 18.9333L114.181 17.9395L113.221 17.6605ZM112.355 20.6417L111.777 22.6292L112.738 22.9083L113.315 20.9208L112.355 20.6417ZM111.2 24.6167L110.622 26.6042L111.583 26.8833L112.16 24.8958L111.2 24.6167ZM110.045 28.5917L109.756 29.5855L110.716 29.8645L111.005 28.8708L110.045 28.5917ZM110.236 30.225H111.136V29.225H110.236V30.225ZM112.936 30.225H114.736V29.225H112.936V30.225ZM116.536 30.225H117.436V29.225H116.536V30.225ZM117.916 29.5838L117.623 28.5901L116.664 28.8724L116.956 29.8662L117.916 29.5838ZM117.038 26.6026L116.453 24.6151L115.494 24.8974L116.079 26.8849L117.038 26.6026ZM115.868 22.6276L115.283 20.6401L114.324 20.9224L114.909 22.9099L115.868 22.6276ZM114.698 18.6526L114.406 17.6588L113.446 17.9412L113.739 18.9349L114.698 18.6526ZM108.841 8.255C108.587 8.255 108.35 8.24492 108.131 8.22523L108.042 9.22121C108.294 9.24389 108.561 9.255 108.841 9.255V8.255ZM106.839 7.91736C106.638 7.82284 106.481 7.71275 106.36 7.59144L105.653 8.29855C105.866 8.51245 106.123 8.68555 106.413 8.8222L106.839 7.91736ZM106.379 7.6116C106.271 7.49146 106.179 7.36749 106.1 7.23975L105.249 7.76479C105.36 7.94509 105.488 8.11626 105.634 8.2784L106.379 7.6116ZM105.779 6.3875C105.754 6.23913 105.741 6.08345 105.741 5.92H104.741C104.741 6.13672 104.758 6.34875 104.794 6.55561L105.779 6.3875ZM105.741 5.92V5.63875H104.741V5.92H105.741ZM105.741 5.07625V4.795H104.741V5.07625H105.741ZM105.741 4.795C105.741 4.63368 105.754 4.48112 105.778 4.33679L104.792 4.16938C104.758 4.37245 104.741 4.58116 104.741 4.795H105.741ZM106.093 3.51167C106.171 3.38929 106.263 3.27148 106.37 3.15831L105.643 2.47169C105.494 2.62881 105.363 2.79632 105.249 2.97429L106.093 3.51167ZM106.369 3.15887C106.49 3.03098 106.645 2.91609 106.842 2.81769L106.394 1.92358C106.106 2.0677 105.854 2.24905 105.643 2.47112L106.369 3.15887ZM108.129 2.49172C108.349 2.47075 108.586 2.46 108.841 2.46V1.46C108.558 1.46 108.289 1.47191 108.034 1.49627L108.129 2.49172ZM108.841 2.46C109.094 2.46 109.328 2.47051 109.543 2.491L109.638 1.49547C109.387 1.47164 109.121 1.46 108.841 1.46V2.46ZM110.808 2.81204C110.999 2.90965 111.146 3.02311 111.259 3.14839L112.004 2.4816C111.799 2.25307 111.549 2.06762 111.262 1.92122L110.808 2.81204ZM111.278 3.16855C111.39 3.28085 111.486 3.39737 111.568 3.51792L112.396 2.9565C112.277 2.78093 112.139 2.61597 111.985 2.46144L111.278 3.16855ZM111.901 4.33742C111.928 4.48138 111.941 4.6337 111.941 4.795H112.941C112.941 4.57751 112.923 4.3652 112.885 4.15867L111.901 4.33742ZM111.941 4.795V5.07625H112.941V4.795H111.941ZM111.941 5.63875V5.92H112.941V5.63875H111.941ZM111.941 5.92C111.941 6.08335 111.927 6.23875 111.9 6.38676L112.884 6.56615C112.922 6.35589 112.941 6.14032 112.941 5.92H111.941ZM111.561 7.23346C111.478 7.35937 111.381 7.48198 111.268 7.60113L111.994 8.28887C112.145 8.12915 112.28 7.96032 112.397 7.78223L111.561 7.23346ZM111.268 7.60169C111.156 7.72022 111.007 7.82894 110.811 7.92278L111.243 8.82472C111.532 8.68594 111.786 8.50883 111.995 8.28831L111.268 7.60169ZM109.541 8.22592C109.326 8.24515 109.093 8.255 108.841 8.255V9.255C109.118 9.255 109.382 9.24415 109.63 9.22197L109.541 8.22592ZM118.741 8.255C118.487 8.255 118.25 8.24492 118.031 8.22523L117.942 9.22121C118.194 9.24389 118.461 9.255 118.741 9.255V8.255ZM116.739 7.91736C116.538 7.82284 116.381 7.71275 116.26 7.59144L115.553 8.29855C115.766 8.51245 116.023 8.68555 116.313 8.8222L116.739 7.91736ZM116.279 7.6116C116.171 7.49146 116.079 7.36749 116 7.23975L115.149 7.76479C115.26 7.94509 115.388 8.11626 115.534 8.2784L116.279 7.6116ZM115.679 6.3875C115.654 6.23913 115.641 6.08345 115.641 5.92H114.641C114.641 6.13672 114.658 6.34875 114.694 6.55561L115.679 6.3875ZM115.641 5.92V5.63875H114.641V5.92H115.641ZM115.641 5.07625V4.795H114.641V5.07625H115.641ZM115.641 4.795C115.641 4.63368 115.654 4.48112 115.678 4.33679L114.692 4.16938C114.658 4.37245 114.641 4.58116 114.641 4.795H115.641ZM115.993 3.51167C116.071 3.38929 116.163 3.27148 116.27 3.15831L115.543 2.47169C115.394 2.62881 115.263 2.79632 115.149 2.97429L115.993 3.51167ZM116.269 3.15887C116.39 3.03098 116.545 2.91609 116.742 2.81769L116.294 1.92358C116.006 2.0677 115.754 2.24905 115.543 2.47112L116.269 3.15887ZM118.029 2.49172C118.249 2.47075 118.486 2.46 118.741 2.46V1.46C118.458 1.46 118.189 1.47191 117.934 1.49627L118.029 2.49172ZM118.741 2.46C118.994 2.46 119.228 2.47051 119.443 2.491L119.538 1.49547C119.287 1.47164 119.021 1.46 118.741 1.46V2.46ZM120.708 2.81204C120.899 2.90965 121.046 3.02311 121.159 3.14839L121.904 2.4816C121.699 2.25307 121.449 2.06762 121.162 1.92122L120.708 2.81204ZM121.178 3.16855C121.29 3.28085 121.386 3.39737 121.468 3.51792L122.296 2.9565C122.177 2.78093 122.039 2.61597 121.885 2.46144L121.178 3.16855ZM121.801 4.33742C121.828 4.48138 121.841 4.6337 121.841 4.795H122.841C122.841 4.57751 122.823 4.3652 122.785 4.15867L121.801 4.33742ZM121.841 4.795V5.07625H122.841V4.795H121.841ZM121.841 5.63875V5.92H122.841V5.63875H121.841ZM121.841 5.92C121.841 6.08335 121.827 6.23875 121.8 6.38676L122.784 6.56615C122.822 6.35589 122.841 6.14032 122.841 5.92H121.841ZM121.461 7.23346C121.378 7.35937 121.281 7.48198 121.168 7.60113L121.894 8.28887C122.045 8.12915 122.18 7.96032 122.297 7.78223L121.461 7.23346ZM121.168 7.60169C121.056 7.72022 120.907 7.82894 120.711 7.92278L121.143 8.82472C121.432 8.68594 121.686 8.50883 121.895 8.28831L121.168 7.60169ZM119.441 8.22592C119.226 8.24515 118.993 8.255 118.741 8.255V9.255C119.018 9.255 119.282 9.24415 119.53 9.22197L119.441 8.22592ZM121.351 43L120.394 43.2884L120.608 44H121.351V43ZM119.101 35.53L120.059 35.2416L119.844 34.53H119.101V35.53ZM108.616 35.53V34.53H107.873L107.659 35.2416L108.616 35.53ZM106.366 43V44H107.109L107.324 43.2884L106.366 43ZM99.4361 43L98.4864 42.687L98.0537 44H99.4361V43ZM109.786 11.59V10.59H109.063L108.836 11.277L109.786 11.59ZM118.246 11.59L119.197 11.2807L118.972 10.59H118.246V11.59ZM128.461 43V44H129.838L129.412 42.6907L128.461 43ZM113.926 17.8L114.885 17.5176L114.674 16.8H113.926V17.8ZM113.701 17.8V16.8H112.95L112.741 17.521L113.701 17.8ZM110.236 29.725L109.276 29.446L108.904 30.725H110.236V29.725ZM117.436 29.725V30.725H118.773L118.395 29.4426L117.436 29.725ZM106.006 7.945L105.261 8.61179L105.279 8.63248L105.299 8.6521L106.006 7.945ZM106.006 2.815L105.28 2.12725L105.279 2.12837L106.006 2.815ZM111.631 2.815L110.886 3.48179L110.904 3.50248L110.924 3.5221L111.631 2.815ZM111.631 7.945L110.905 7.25725L110.904 7.25837L111.631 7.945ZM115.906 7.945L115.161 8.61179L115.179 8.63248L115.199 8.6521L115.906 7.945ZM115.906 2.815L115.18 2.12725L115.179 2.12837L115.906 2.815ZM121.531 2.815L120.786 3.48179L120.804 3.50248L120.824 3.5221L121.531 2.815ZM121.531 7.945L120.805 7.25725L120.804 7.25837L121.531 7.945ZM122.309 42.7116L122.027 41.7778L120.112 42.3547L120.394 43.2884L122.309 42.7116ZM121.465 39.9103L120.902 38.0428L118.987 38.6197L119.55 40.4872L121.465 39.9103ZM120.34 36.1753L120.059 35.2416L118.144 35.8184L118.425 36.7522L120.34 36.1753ZM119.101 34.53H118.227V36.53H119.101V34.53ZM116.48 34.53H114.732V36.53H116.48V34.53ZM112.985 34.53H111.237V36.53H112.985V34.53ZM109.49 34.53H108.616V36.53H109.49V34.53ZM107.659 35.2416L107.377 36.1753L109.292 36.7522L109.574 35.8184L107.659 35.2416ZM106.815 38.0428L106.252 39.9103L108.167 40.4872L108.73 38.6197L106.815 38.0428ZM105.69 41.7778L105.409 42.7116L107.324 43.2884L107.605 42.3547L105.69 41.7778ZM106.366 42H105.5V44H106.366V42ZM103.767 42H102.035V44H103.767V42ZM100.302 42H99.4361V44H100.302V42ZM100.386 43.313L100.709 42.3314L98.8098 41.7055L98.4864 42.687L100.386 43.313ZM101.356 40.3683L102.003 38.4051L100.104 37.7792L99.4567 39.7424L101.356 40.3683ZM102.65 36.442L103.297 34.4789L101.397 33.853L100.75 35.8161L102.65 36.442ZM103.944 32.5158L104.591 30.5526L102.691 29.9267L102.044 31.8899L103.944 32.5158ZM105.237 28.5895L105.884 26.6264L103.985 26.0005L103.338 27.9636L105.237 28.5895ZM106.531 24.6633L107.178 22.7002L105.279 22.0742L104.632 24.0374L106.531 24.6633ZM107.825 20.737L108.472 18.7739L106.572 18.148L105.925 20.1111L107.825 20.737ZM109.119 16.8108L109.766 14.8477L107.866 14.2217L107.219 16.1849L109.119 16.8108ZM110.412 12.8845L110.736 11.903L108.836 11.277L108.513 12.2586L110.412 12.8845ZM109.786 12.59H110.844V10.59H109.786V12.59ZM112.959 12.59H115.074V10.59H112.959V12.59ZM117.189 12.59H118.246V10.59H117.189V12.59ZM117.295 11.8993L117.614 12.8808L119.516 12.2623L119.197 11.2807L117.295 11.8993ZM118.253 14.844L118.891 16.8071L120.793 16.1885L120.155 14.2254L118.253 14.844ZM119.53 18.7702L120.168 20.7333L122.07 20.1148L121.432 18.1517L119.53 18.7702ZM120.807 22.6965L121.445 24.6596L123.347 24.041L122.709 22.0779L120.807 22.6965ZM122.083 26.6227L122.722 28.5858L124.624 27.9673L123.985 26.0042L122.083 26.6227ZM123.36 30.549L123.999 32.5121L125.901 31.8935L125.262 29.9304L123.36 30.549ZM124.637 34.4752L125.276 36.4383L127.178 35.8198L126.539 33.8567L124.637 34.4752ZM125.914 38.4015L126.553 40.3646L128.454 39.746L127.816 37.7829L125.914 38.4015ZM127.191 42.3277L127.51 43.3093L129.412 42.6907L129.093 41.7092L127.191 42.3277ZM128.461 42H127.572V44H128.461V42ZM125.795 42H124.017V44H125.795V42ZM122.24 42H121.351V44H122.24V42ZM113.926 16.8H113.87V18.8H113.926V16.8ZM113.757 16.8H113.701V18.8H113.757V16.8ZM112.741 17.521L112.452 18.5147L114.373 19.0728L114.661 18.079L112.741 17.521ZM111.875 20.5022L111.297 22.4897L113.218 23.0478L113.795 21.0603L111.875 20.5022ZM110.72 24.4772L110.142 26.4647L112.063 27.0228L112.64 25.0353L110.72 24.4772ZM109.565 28.4522L109.276 29.446L111.196 30.004L111.485 29.0103L109.565 28.4522ZM110.236 30.725H111.136V28.725H110.236V30.725ZM112.936 30.725H114.736V28.725H112.936V30.725ZM116.536 30.725H117.436V28.725H116.536V30.725ZM118.395 29.4426L118.103 28.4489L116.184 29.0136L116.477 30.0074L118.395 29.4426ZM117.518 26.4614L116.933 24.4739L115.014 25.0386L115.599 27.0261L117.518 26.4614ZM116.348 22.4864L115.763 20.4989L113.844 21.0636L114.429 23.0511L116.348 22.4864ZM115.178 18.5114L114.885 17.5176L112.967 18.0824L113.259 19.0761L115.178 18.5114ZM108.841 7.755C108.6 7.755 108.378 7.74543 108.176 7.72724L107.997 9.7192C108.266 9.74338 108.548 9.755 108.841 9.755V7.755ZM107.052 7.46495C106.896 7.39149 106.788 7.31291 106.713 7.23789L105.299 8.6521C105.559 8.9123 105.865 9.1169 106.2 9.27461L107.052 7.46495ZM106.751 7.2782C106.663 7.17906 106.588 7.07868 106.525 6.97723L104.823 8.02731C104.951 8.23389 105.097 8.42866 105.261 8.61179L106.751 7.2782ZM106.272 6.30345C106.252 6.18432 106.241 6.05682 106.241 5.92H104.241C104.241 6.16335 104.261 6.40357 104.301 6.63967L106.272 6.30345ZM106.241 5.92V5.63875H104.241V5.92H106.241ZM106.241 5.07625V4.795H104.241V5.07625H106.241ZM106.241 4.795C106.241 4.65993 106.252 4.53545 106.271 4.42049L104.299 4.08567C104.26 4.31811 104.241 4.55491 104.241 4.795H106.241ZM106.514 3.78036C106.575 3.68578 106.647 3.59281 106.733 3.50162L105.279 2.12837C105.11 2.30747 104.959 2.49983 104.828 2.7056L106.514 3.78036ZM106.732 3.50274C106.809 3.42195 106.915 3.34029 107.066 3.26474L106.17 1.47652C105.837 1.6435 105.535 1.85808 105.28 2.12725L106.732 3.50274ZM108.177 2.98945C108.379 2.97017 108.6 2.96 108.841 2.96V0.959997C108.544 0.959997 108.259 0.972485 107.987 0.998537L108.177 2.98945ZM108.841 2.96C109.08 2.96 109.298 2.96995 109.496 2.98876L109.685 0.997705C109.416 0.972203 109.135 0.959997 108.841 0.959997V2.96ZM110.581 3.25745C110.724 3.33067 110.82 3.40813 110.886 3.48179L112.376 2.1482C112.126 1.86805 111.824 1.6466 111.489 1.47581L110.581 3.25745ZM110.924 3.5221C111.015 3.61328 111.091 3.70558 111.154 3.79864L112.809 2.67578C112.672 2.47271 112.514 2.28354 112.338 2.10789L110.924 3.5221ZM111.409 4.42679C111.43 4.53947 111.441 4.66179 111.441 4.795H113.441C113.441 4.54942 113.42 4.30711 113.377 4.0693L111.409 4.42679ZM111.441 4.795V5.07625H113.441V4.795H111.441ZM111.441 5.63875V5.92H113.441V5.63875H111.441ZM111.441 5.92C111.441 6.05487 111.43 6.18018 111.408 6.29707L113.376 6.65584C113.42 6.41446 113.441 6.1688 113.441 5.92H111.441ZM111.143 6.95907C111.077 7.05889 110.999 7.15839 110.905 7.25725L112.357 8.63274C112.528 8.45274 112.681 8.2608 112.815 8.05662L111.143 6.95907ZM110.904 7.25837C110.84 7.32592 110.744 7.40044 110.595 7.47181L111.458 9.27569C111.795 9.11444 112.102 8.90313 112.358 8.63162L110.904 7.25837ZM109.497 7.7279C109.298 7.74565 109.08 7.755 108.841 7.755V9.755C109.131 9.755 109.409 9.74365 109.675 9.71999L109.497 7.7279ZM118.741 7.755C118.5 7.755 118.278 7.74543 118.076 7.72724L117.897 9.7192C118.166 9.74338 118.448 9.755 118.741 9.755V7.755ZM116.952 7.46495C116.796 7.39149 116.688 7.31291 116.613 7.23789L115.199 8.6521C115.459 8.9123 115.765 9.1169 116.1 9.27461L116.952 7.46495ZM116.651 7.2782C116.563 7.17906 116.488 7.07869 116.425 6.97723L114.723 8.02731C114.851 8.23389 114.997 8.42866 115.161 8.61179L116.651 7.2782ZM116.172 6.30345C116.152 6.18432 116.141 6.05682 116.141 5.92H114.141C114.141 6.16335 114.161 6.40357 114.201 6.63967L116.172 6.30345ZM116.141 5.92V5.63875H114.141V5.92H116.141ZM116.141 5.07625V4.795H114.141V5.07625H116.141ZM116.141 4.795C116.141 4.65993 116.152 4.53545 116.171 4.42049L114.199 4.08567C114.16 4.31811 114.141 4.55491 114.141 4.795H116.141ZM116.414 3.78036C116.475 3.68578 116.547 3.59281 116.633 3.50162L115.179 2.12837C115.01 2.30747 114.859 2.49983 114.728 2.7056L116.414 3.78036ZM116.632 3.50274C116.709 3.42195 116.815 3.34029 116.966 3.26474L116.07 1.47652C115.737 1.6435 115.435 1.85808 115.18 2.12725L116.632 3.50274ZM118.077 2.98945C118.279 2.97017 118.5 2.96 118.741 2.96V0.959997C118.444 0.959997 118.159 0.972485 117.887 0.998537L118.077 2.98945ZM118.741 2.96C118.98 2.96 119.198 2.96995 119.396 2.98876L119.585 0.997705C119.316 0.972203 119.035 0.959997 118.741 0.959997V2.96ZM120.481 3.25745C120.624 3.33067 120.72 3.40813 120.786 3.48179L122.276 2.1482C122.026 1.86805 121.724 1.6466 121.389 1.47581L120.481 3.25745ZM120.824 3.5221C120.915 3.61328 120.991 3.70558 121.054 3.79864L122.709 2.67578C122.572 2.47271 122.414 2.28354 122.238 2.10789L120.824 3.5221ZM121.309 4.42679C121.33 4.53947 121.341 4.66179 121.341 4.795H123.341C123.341 4.54942 123.32 4.30711 123.277 4.0693L121.309 4.42679ZM121.341 4.795V5.07625H123.341V4.795H121.341ZM121.341 5.63875V5.92H123.341V5.63875H121.341ZM121.341 5.92C121.341 6.05487 121.33 6.18018 121.308 6.29707L123.276 6.65584C123.32 6.41446 123.341 6.1688 123.341 5.92H121.341ZM121.043 6.95907C120.977 7.05889 120.899 7.15839 120.805 7.25725L122.257 8.63274C122.428 8.45274 122.581 8.2608 122.715 8.05662L121.043 6.95907ZM120.804 7.25837C120.74 7.32592 120.644 7.40044 120.495 7.47181L121.358 9.27569C121.695 9.11444 122.002 8.90313 122.258 8.63162L120.804 7.25837ZM119.397 7.7279C119.198 7.74565 118.98 7.755 118.741 7.755V9.755C119.031 9.755 119.309 9.74365 119.575 9.71999L119.397 7.7279ZM22.4 83.005H22.9V82.505H22.4V83.005ZM22.175 83.005V82.505H21.7448L21.6806 82.9304L22.175 83.005ZM19.745 86.965L19.4422 86.5671L19.745 86.965ZM9.08 87.505L8.87775 87.9623L8.87775 87.9623L9.08 87.505ZM4.985 84.445L4.60716 84.7725L4.60716 84.7725L4.985 84.445ZM2.24 79.405L2.71505 79.249L2.71505 79.249L2.24 79.405ZM2.285 65.41L2.75864 65.5702L2.75864 65.5702L2.285 65.41ZM5.165 60.28L4.79573 59.9428L4.79174 59.9473L5.165 60.28ZM9.665 57.13L9.85618 57.592L9.85618 57.592L9.665 57.13ZM22.76 57.895L22.5018 58.3232L22.5065 58.326L22.76 57.895ZM27.575 63.34L27.8234 63.7739L28.2275 63.5426L28.0255 63.1231L27.575 63.34ZM21.995 66.535L21.5292 66.7168L21.7401 67.2571L22.2434 66.9689L21.995 66.535ZM19.745 63.43L19.4205 63.8105L19.4271 63.816L19.745 63.43ZM10.385 63.97L10.7343 64.3278L10.7343 64.3278L10.385 63.97ZM10.385 80.62L10.0314 80.9736L10.0357 80.9778L10.385 80.62ZM17.855 82.195L17.9717 82.6812L17.9808 82.679L17.9898 82.6765L17.855 82.195ZM19.835 81.295L20.1173 81.7077L20.1246 81.7027L20.1316 81.6975L19.835 81.295ZM21.14 79.81L20.7073 79.5595L20.7022 79.5682L20.6975 79.5771L21.14 79.81ZM21.635 76.21H22.135V75.71H21.635V76.21ZM15.785 76.21H15.285V76.71H15.785V76.21ZM15.785 70.495V69.995H15.285V70.495H15.785ZM28.16 70.495H28.66V69.995H28.16V70.495ZM28.16 88V88.5H28.66V88H28.16ZM22.4 88H21.9V88.5H22.4V88ZM22.4 82.505H22.3438V83.505H22.4V82.505ZM22.2313 82.505H22.175V83.505H22.2313V82.505ZM21.6806 82.9304C21.6247 83.3009 21.5355 83.6534 21.4137 83.9886L22.3535 84.3302C22.4989 83.9303 22.604 83.5132 22.6694 83.0796L21.6806 82.9304ZM20.2685 85.8277C20.025 86.0864 19.7499 86.333 19.4422 86.5671L20.0478 87.3629C20.3962 87.0978 20.7129 86.8146 20.9967 86.513L20.2685 85.8277ZM19.4422 86.5671C19.087 86.8374 18.6941 87.0714 18.2624 87.2684L18.6775 88.1781C19.1734 87.9519 19.6306 87.6804 20.0478 87.3629L19.4422 86.5671ZM15.5509 87.9675C15.0991 88.0157 14.6223 88.04 14.12 88.04V89.04C14.6544 89.04 15.1668 89.0141 15.657 88.9618L15.5509 87.9675ZM14.12 88.04C13.6972 88.04 13.2819 88.0203 12.8742 87.9809L12.7781 88.9763C13.2187 89.0188 13.666 89.04 14.12 89.04V88.04ZM10.4425 87.4872C10.0484 87.362 9.66169 87.2156 9.28225 87.0477L8.87775 87.9623C9.29029 88.1447 9.711 88.3041 10.1398 88.4403L10.4425 87.4872ZM9.28225 87.0477C8.90491 86.8808 8.53971 86.6938 8.18656 86.4867L7.68072 87.3494C8.06686 87.5758 8.4659 87.7801 8.87775 87.9623L9.28225 87.0477ZM6.21901 85.0102C5.92298 84.732 5.63757 84.4345 5.36284 84.1175L4.60716 84.7725C4.9036 85.1145 5.2126 85.4367 5.53421 85.7389L6.21901 85.0102ZM5.36284 84.1175C5.06542 83.7743 4.78463 83.4082 4.52058 83.0189L3.69299 83.5803C3.97845 84.0011 4.28314 84.3986 4.60716 84.7725L5.36284 84.1175ZM3.20478 80.5648C3.0284 80.1446 2.86512 79.706 2.71505 79.249L1.76495 79.561C1.92294 80.0421 2.09548 80.5058 2.28271 80.9518L3.20478 80.5648ZM2.71505 79.249C2.62709 78.9811 2.54507 78.7072 2.46902 78.4271L1.50396 78.6891C1.58444 78.9855 1.67143 79.2762 1.76495 79.561L2.71505 79.249ZM2.0972 76.7458C2.00101 76.1948 1.92467 75.6235 1.86836 75.0319L0.872859 75.1266C0.931492 75.7426 1.01119 76.3397 1.1121 76.9178L2.0972 76.7458ZM1.76247 73.2998C1.75416 73.0141 1.75 72.7241 1.75 72.43H0.75C0.75 72.7335 0.754295 73.0332 0.762896 73.3289L1.76247 73.2998ZM1.75 72.43C1.75 72.1341 1.75441 71.8422 1.76321 71.5543L0.763678 71.5237C0.754555 71.8221 0.75 72.1241 0.75 72.43H1.75ZM1.87502 69.8109C1.93424 69.2167 2.01443 68.6419 2.11544 68.0865L1.13157 67.9076C1.02552 68.4908 0.941694 69.0922 0.879948 69.7117L1.87502 69.8109ZM2.50343 66.3962C2.58236 66.1152 2.66744 65.8398 2.75864 65.5702L1.81136 65.2498C1.71444 65.5363 1.62422 65.8283 1.54068 66.1258L2.50343 66.3962ZM2.75864 65.5702C2.91642 65.1037 3.08837 64.6559 3.27438 64.2266L2.35681 63.829C2.15933 64.2848 1.97755 64.7584 1.81136 65.2498L2.75864 65.5702ZM4.65741 61.728C4.93343 61.3335 5.22707 60.9618 5.53826 60.6127L4.79174 59.9473C4.45383 60.3264 4.13596 60.7289 3.83808 61.1547L4.65741 61.728ZM5.53424 60.6171C5.83624 60.2864 6.15225 59.9757 6.48227 59.6849L5.82119 58.9346C5.46358 59.2497 5.12177 59.5858 4.79576 59.9429L5.53424 60.6171ZM8.65527 58.1649C9.04095 57.9547 9.44121 57.7637 9.85618 57.592L9.47383 56.668C9.02665 56.853 8.59424 57.0593 8.17671 57.2868L8.65527 58.1649ZM9.85618 57.592C10.2927 57.4114 10.7425 57.2541 11.2055 57.1203L10.928 56.1596C10.43 56.3035 9.94522 56.4729 9.47382 56.668L9.85618 57.592ZM14.0276 56.6091C14.4969 56.5698 14.9777 56.55 15.47 56.55V55.55C14.9509 55.55 14.4422 55.5708 13.944 55.6126L14.0276 56.6091ZM15.47 56.55C15.784 56.55 16.0927 56.5578 16.396 56.5734L16.4474 55.5748C16.1264 55.5582 15.8006 55.55 15.47 55.55V56.55ZM18.2288 56.7732C18.8484 56.879 19.4423 57.0223 20.011 57.2026L20.3133 56.2494C19.6987 56.0545 19.0599 55.9006 18.3971 55.7874L18.2288 56.7732ZM21.7032 57.8848C21.9761 58.0206 22.2423 58.1667 22.5018 58.3232L23.0182 57.4668C22.7354 57.2963 22.4455 57.1372 22.1486 56.9895L21.7032 57.8848ZM22.5065 58.326C22.7602 58.4752 23.0068 58.6344 23.2463 58.8035L23.8231 57.9865C23.5609 57.8014 23.291 57.6273 23.0135 57.464L22.5065 58.326ZM24.5956 59.9341C25.0071 60.3403 25.3929 60.7852 25.7529 61.269L26.5552 60.6721C26.1661 60.1491 25.7472 59.6657 25.2982 59.2225L24.5956 59.9341ZM26.7141 62.7636C26.8563 63.0197 26.9931 63.2841 27.1245 63.5569L28.0255 63.1231C27.886 62.8333 27.7402 62.5516 27.5883 62.278L26.7141 62.7636ZM27.3266 62.9061L26.6291 63.3055L27.1259 64.1733L27.8234 63.7739L27.3266 62.9061ZM25.2341 64.1042L23.8391 64.903L24.3359 65.7708L25.7309 64.972L25.2341 64.1042ZM22.4441 65.7017L21.7466 66.1011L22.2434 66.9689L22.9409 66.5695L22.4441 65.7017ZM22.4608 66.3532C22.3344 66.0293 22.1901 65.7174 22.0277 65.4177L21.1484 65.894C21.2906 66.1564 21.4175 66.4306 21.5292 66.7168L22.4608 66.3532ZM20.8169 63.7469C20.5827 63.4993 20.3312 63.2651 20.0629 63.044L19.4271 63.816C19.6644 64.0113 19.8854 64.2174 20.0905 64.4341L20.8169 63.7469ZM20.0695 63.0496C19.7527 62.7794 19.4023 62.5483 19.0196 62.3558L18.5703 63.2492C18.8843 63.4071 19.1672 63.5943 19.4205 63.8104L20.0695 63.0496ZM16.666 61.6903C16.2849 61.6466 15.8861 61.625 15.47 61.625V62.625C15.8517 62.625 16.2123 62.6448 16.5521 62.6838L16.666 61.6903ZM15.47 61.625C14.9644 61.625 14.479 61.6582 14.0144 61.7253L14.1575 62.715C14.5707 62.6553 15.008 62.625 15.47 62.625V61.625ZM11.2204 62.6934C10.792 62.9531 10.397 63.2596 10.0357 63.6122L10.7343 64.3278C11.0415 64.0278 11.3762 63.7683 11.7388 63.5485L11.2204 62.6934ZM10.0357 63.6122C9.8313 63.8118 9.64238 64.0277 9.46894 64.2598L10.2699 64.8585C10.4129 64.6672 10.5677 64.4904 10.7343 64.3278L10.0357 63.6122ZM8.65151 65.745C8.45767 66.2363 8.30815 66.7696 8.20112 67.3433L9.18416 67.5267C9.28095 67.0079 9.41408 66.5369 9.58172 66.1121L8.65151 65.745ZM8.01522 68.9656C8.00172 69.2285 7.995 69.4984 7.995 69.775H8.995C8.995 69.5145 9.00132 69.2618 9.0139 69.0169L8.01522 68.9656ZM7.995 69.775V71.035H8.995V69.775H7.995ZM7.995 73.555V74.815H8.995V73.555H7.995ZM7.995 74.815C7.995 75.0915 8.00186 75.3613 8.01564 75.6244L9.01427 75.5721C9.00145 75.3273 8.995 75.075 8.995 74.815H7.995ZM8.20472 77.246C8.31292 77.8175 8.46377 78.3499 8.65895 78.8418L9.58845 78.473C9.41933 78.0468 9.28503 77.5763 9.18725 77.06L8.20472 77.246ZM9.47271 80.324C9.64394 80.5557 9.83019 80.7723 10.0314 80.9736L10.7386 80.2664C10.573 80.1009 10.4191 79.922 10.2769 79.7296L9.47271 80.324ZM10.0357 80.9778C10.397 81.3304 10.792 81.6369 11.2204 81.8966L11.7388 81.0415C11.3762 80.8217 11.0415 80.5622 10.7343 80.2622L10.0357 80.9778ZM14.0144 82.8647C14.479 82.9318 14.9644 82.965 15.47 82.965V81.965C15.008 81.965 14.5707 81.9347 14.1575 81.875L14.0144 82.8647ZM15.47 82.965C15.6817 82.965 15.8909 82.9595 16.0977 82.9485L16.0447 81.9499C15.8559 81.96 15.6644 81.965 15.47 81.965V82.965ZM17.3512 82.809C17.5609 82.7727 17.7677 82.7301 17.9717 82.6812L17.7383 81.7088C17.5556 81.7527 17.3698 81.7909 17.1809 81.8236L17.3512 82.809ZM17.9898 82.6765C18.1793 82.6234 18.364 82.5648 18.5438 82.5005L18.2071 81.5589C18.0502 81.615 17.8879 81.6666 17.7202 81.7135L17.9898 82.6765ZM19.6135 82.0189C19.7876 81.922 19.9556 81.8183 20.1173 81.7077L19.5527 80.8823C19.417 80.9752 19.2753 81.0627 19.1275 81.1449L19.6135 82.0189ZM20.1316 81.6975C20.2809 81.5875 20.4225 81.4722 20.5563 81.3515L19.8864 80.609C19.7781 80.7068 19.6622 80.8013 19.5384 80.8925L20.1316 81.6975ZM21.2917 80.5212C21.3986 80.3675 21.4955 80.208 21.5825 80.0429L20.6975 79.5771C20.6299 79.7057 20.5543 79.8301 20.4707 79.9502L21.2917 80.5212ZM21.5727 80.0605C21.6733 79.8868 21.7603 79.705 21.8337 79.5157L20.9013 79.1542C20.8462 79.2963 20.7815 79.4313 20.7073 79.5595L21.5727 80.0605ZM22.1056 78.3636C22.1253 78.1754 22.135 77.9825 22.135 77.785H21.135C21.135 77.9498 21.1269 78.1078 21.111 78.2593L22.1056 78.3636ZM22.135 77.785V77.3912H21.135V77.785H22.135ZM22.135 76.6037V76.21H21.135V76.6037H22.135ZM21.635 75.71H20.1725V76.71H21.635V75.71ZM17.2475 75.71H15.785V76.71H17.2475V75.71ZM16.285 76.21V74.7812H15.285V76.21H16.285ZM16.285 71.9237V70.495H15.285V71.9237H16.285ZM15.785 70.995H16.8163V69.995H15.785V70.995ZM18.8788 70.995H20.9413V69.995H18.8788V70.995ZM23.0038 70.995H25.0663V69.995H23.0038V70.995ZM27.1288 70.995H28.16V69.995H27.1288V70.995ZM27.66 70.495V71.5891H28.66V70.495H27.66ZM27.66 73.7772V75.9653H28.66V73.7772H27.66ZM27.66 78.1534V80.3416H28.66V78.1534H27.66ZM27.66 82.5297V84.7178H28.66V82.5297H27.66ZM27.66 86.9059V88H28.66V86.9059H27.66ZM28.16 87.5H26.72V88.5H28.16V87.5ZM23.84 87.5H22.4V88.5H23.84V87.5ZM22.9 88V86.7512H21.9V88H22.9ZM22.9 84.2537V83.005H21.9V84.2537H22.9ZM22.4 83.005H23.4V82.005H22.4V83.005ZM22.175 83.005V82.005H21.3146L21.1862 82.8557L22.175 83.005ZM19.745 86.965L19.1395 86.1692L19.745 86.965ZM9.08 87.505L8.67549 88.4195L8.67549 88.4195L9.08 87.505ZM4.985 84.445L4.22931 85.0999L4.22931 85.0999L4.985 84.445ZM2.24 79.405L3.19009 79.093L3.19009 79.093L2.24 79.405ZM2.285 65.41L3.23228 65.7304L3.23228 65.7304L2.285 65.41ZM5.165 60.28L4.42646 59.6057L4.41849 59.6146L5.165 60.28ZM9.665 57.13L10.0474 58.054L10.0474 58.054L9.665 57.13ZM22.76 57.895L22.2436 58.7514L22.253 58.7569L22.76 57.895ZM27.575 63.34L28.0719 64.2078L28.8799 63.7451L28.476 62.9062L27.575 63.34ZM21.995 66.535L21.0634 66.8985L21.4852 67.9792L22.4919 67.4028L21.995 66.535ZM19.745 63.43L19.0961 64.1908L19.1026 64.1964L19.1093 64.2019L19.745 63.43ZM10.385 63.97L11.0835 64.6856L11.0835 64.6856L10.385 63.97ZM10.385 80.62L9.67784 81.3272L9.68646 81.3356L10.385 80.62ZM17.855 82.195L18.0884 83.1674L18.1066 83.163L18.1246 83.158L17.855 82.195ZM19.835 81.295L20.3997 82.1203L20.4141 82.1104L20.4282 82.1001L19.835 81.295ZM21.14 79.81L20.2746 79.309L20.2645 79.3264L20.2551 79.3443L21.14 79.81ZM21.635 76.21H22.635V75.21H21.635V76.21ZM15.785 76.21H14.785V77.21H15.785V76.21ZM15.785 70.495V69.495H14.785V70.495H15.785ZM28.16 70.495H29.16V69.495H28.16V70.495ZM28.16 88V89H29.16V88H28.16ZM22.4 88H21.4V89H22.4V88ZM22.4 82.005H22.3438V84.005H22.4V82.005ZM22.2313 82.005H22.175V84.005H22.2313V82.005ZM21.1862 82.8557C21.135 83.1948 21.0538 83.515 20.9437 83.8178L22.8234 84.501C22.9806 84.0687 23.0936 83.6193 23.1638 83.1543L21.1862 82.8557ZM19.9044 85.485C19.6811 85.7223 19.4268 85.9506 19.1395 86.1692L20.3505 87.7608C20.7194 87.4802 21.0568 87.1787 21.3608 86.8557L19.9044 85.485ZM19.1395 86.1692C18.8152 86.4159 18.4545 86.6311 18.0548 86.8135L18.8851 88.633C19.413 88.3921 19.9023 88.1018 20.3505 87.7608L19.1395 86.1692ZM15.4979 87.4703C15.0653 87.5164 14.6062 87.54 14.12 87.54V89.54C14.6705 89.54 15.2007 89.5133 15.71 89.459L15.4979 87.4703ZM14.12 87.54C13.7127 87.54 13.3135 87.521 12.9222 87.4832L12.7301 89.474C13.1871 89.5181 13.6504 89.54 14.12 89.54V87.54ZM10.5939 87.0107C10.2171 86.891 9.8474 86.751 9.48451 86.5905L8.67549 88.4195C9.10459 88.6093 9.54229 88.7751 9.98845 88.9168L10.5939 87.0107ZM9.48451 86.5905C9.12441 86.4312 8.77614 86.2528 8.43949 86.0554L7.42779 87.7807C7.83043 88.0168 8.2464 88.2297 8.67549 88.4195L9.48451 86.5905ZM6.5614 84.6458C6.27816 84.3797 6.00456 84.0945 5.74069 83.7901L4.22931 85.0999C4.53661 85.4545 4.85741 85.7891 5.19182 86.1033L6.5614 84.6458ZM5.74069 83.7901C5.45655 83.4622 5.18772 83.1118 4.93437 82.7383L3.27919 83.8609C3.57535 84.2976 3.892 84.7107 4.22931 85.0999L5.74069 83.7901ZM3.66581 80.3713C3.49486 79.964 3.3362 79.538 3.19009 79.093L1.28991 79.717C1.45185 80.2102 1.62902 80.6864 1.82167 81.1453L3.66581 80.3713ZM3.19009 79.093C3.10492 78.8336 3.02538 78.568 2.95155 78.2961L1.02143 78.8201C1.10413 79.1247 1.1936 79.4237 1.28991 79.717L3.19009 79.093ZM2.58976 76.6598C2.49592 76.1223 2.42126 75.5639 2.36611 74.9845L0.375108 75.174C0.434902 75.8022 0.516277 76.4122 0.619549 77.0038L2.58976 76.6598ZM2.26226 73.2853C2.25409 73.0045 2.25 72.7194 2.25 72.43H0.25C0.25 72.7383 0.254362 73.0427 0.263107 73.3434L2.26226 73.2853ZM2.25 72.43C2.25 72.139 2.25433 71.8522 2.26298 71.5696L0.263912 71.5085C0.254629 71.812 0.25 72.1192 0.25 72.43H2.25ZM2.37255 69.8605C2.43052 69.2789 2.50889 68.7175 2.60737 68.1759L0.63964 67.8181C0.531058 68.4153 0.44542 69.03 0.382414 69.6621L2.37255 69.8605ZM2.9848 66.5314C3.06143 66.2586 3.14394 65.9916 3.23228 65.7304L1.33772 65.0896C1.23794 65.3846 1.14516 65.6849 1.05931 65.9906L2.9848 66.5314ZM3.23228 65.7304C3.38585 65.2764 3.5529 64.8414 3.73317 64.4254L1.89803 63.6302C1.69481 64.0993 1.50812 64.5858 1.33772 65.0896L3.23228 65.7304ZM5.06707 62.0146C5.33216 61.6358 5.61368 61.2795 5.91151 60.9454L4.41849 59.6146C4.06721 60.0087 3.73723 60.4267 3.42841 60.868L5.06707 62.0146ZM5.90349 60.9543C6.19348 60.6367 6.49659 60.3387 6.8128 60.0601L5.49066 58.5594C5.11924 58.8867 4.76453 59.2355 4.42651 59.6057L5.90349 60.9543ZM8.89454 58.6039C9.26431 58.4024 9.64849 58.2191 10.0474 58.054L9.28265 56.206C8.81938 56.3977 8.37089 56.6116 7.93744 56.8478L8.89454 58.6039ZM10.0474 58.054C10.4665 57.8806 10.8987 57.7294 11.3443 57.6007L10.7892 55.6793C10.2737 55.8282 9.77145 56.0037 9.28265 56.206L10.0474 58.054ZM14.0694 57.1074C14.5242 57.0692 14.991 57.05 15.47 57.05V55.05C14.9375 55.05 14.4149 55.0714 13.9022 55.1144L14.0694 57.1074ZM15.47 57.05C15.7757 57.05 16.0758 57.0576 16.3703 57.0728L16.4731 55.0754C16.1433 55.0584 15.8089 55.05 15.47 55.05V57.05ZM18.1446 57.266C18.7426 57.3682 19.3141 57.5061 19.8599 57.6792L20.4644 55.7728C19.8269 55.5706 19.1657 55.4115 18.4813 55.2946L18.1446 57.266ZM21.4804 58.3324C21.7413 58.4622 21.9957 58.6019 22.2437 58.7514L23.2763 57.0386C22.982 56.8611 22.6803 56.6955 22.3713 56.5418L21.4804 58.3324ZM22.253 58.7569C22.4948 58.8992 22.7298 59.0509 22.958 59.2119L24.1114 57.578C23.8379 57.3849 23.5564 57.2033 23.267 57.0331L22.253 58.7569ZM24.2444 60.2899C24.6371 60.6777 25.0064 61.1032 25.3518 61.5675L26.9564 60.3736C26.5527 59.831 26.1172 59.3284 25.6495 58.8667L24.2444 60.2899ZM26.277 63.0064C26.4144 63.2537 26.5467 63.5095 26.674 63.7738L28.476 62.9062C28.3324 62.6079 28.1822 62.3175 28.0254 62.0352L26.277 63.0064ZM27.0781 62.4722L26.3806 62.8716L27.3744 64.6072L28.0719 64.2078L27.0781 62.4722ZM24.9856 63.6703L23.5906 64.4691L24.5844 66.2047L25.9794 65.4059L24.9856 63.6703ZM22.1956 65.2678L21.4981 65.6672L22.4919 67.4028L23.1894 67.0034L22.1956 65.2678ZM22.9266 66.1715C22.7928 65.8287 22.6398 65.4979 22.4673 65.1795L20.7088 66.1322C20.8408 66.3759 20.9591 66.6312 21.0634 66.8985L22.9266 66.1715ZM21.1801 63.4033C20.9313 63.1403 20.6647 62.8919 20.3807 62.6581L19.1093 64.2019C19.3309 64.3845 19.5368 64.5764 19.7272 64.7778L21.1801 63.4033ZM20.3939 62.6692C20.0455 62.3719 19.6613 62.1189 19.2443 61.9091L18.3456 63.6959C18.6252 63.8365 18.8744 64.0018 19.0961 64.1908L20.3939 62.6692ZM16.723 61.1935C16.3212 61.1474 15.9033 61.125 15.47 61.125V63.125C15.8346 63.125 16.176 63.1439 16.4951 63.1805L16.723 61.1935ZM15.47 61.125C14.9426 61.125 14.4332 61.1596 13.9429 61.2305L14.229 63.2099C14.6165 63.1539 15.0298 63.125 15.47 63.125V61.125ZM10.9612 62.2658C10.4999 62.5455 10.0747 62.8754 9.68646 63.2544L11.0835 64.6856C11.3638 64.412 11.6683 64.1759 11.998 63.9761L10.9612 62.2658ZM9.68646 63.2544C9.46311 63.4725 9.25711 63.708 9.06845 63.9604L10.6704 65.1578C10.7982 64.9869 10.9359 64.8297 11.0835 64.6856L9.68646 63.2544ZM8.1864 65.5615C7.97947 66.086 7.82175 66.6505 7.7096 67.2516L9.67568 67.6184C9.76735 67.1271 9.89228 66.6872 10.0468 66.2956L8.1864 65.5615ZM7.51587 68.9399C7.50191 69.2119 7.495 69.4903 7.495 69.775H9.495C9.495 69.5226 9.50113 69.2785 9.51324 69.0425L7.51587 68.9399ZM7.495 69.775V71.035H9.495V69.775H7.495ZM7.495 73.555V74.815H9.495V73.555H7.495ZM7.495 74.815C7.495 75.0997 7.50206 75.3783 7.51633 75.6506L9.51359 75.5459C9.50124 75.3103 9.495 75.0667 9.495 74.815H7.495ZM7.71345 77.3391C7.82687 77.938 7.98599 78.5015 8.1942 79.0262L10.0532 78.2885C9.89711 77.8952 9.77108 77.4557 9.67852 76.967L7.71345 77.3391ZM9.07062 80.6212C9.25637 80.8725 9.45879 81.108 9.67789 81.3271L11.0921 79.9129C10.9444 79.7652 10.8067 79.6052 10.679 79.4324L9.07062 80.6212ZM9.68646 81.3356C10.0747 81.7146 10.4999 82.0445 10.9612 82.3242L11.998 80.6139C11.6683 80.4141 11.3638 80.178 11.0835 79.9044L9.68646 81.3356ZM13.9429 83.3595C14.4332 83.4304 14.9426 83.465 15.47 83.465V81.465C15.0298 81.465 14.6165 81.4361 14.229 81.3801L13.9429 83.3595ZM15.47 83.465C15.6903 83.465 15.9084 83.4593 16.1243 83.4478L16.0181 81.4506C15.8385 81.4602 15.6558 81.465 15.47 81.465V83.465ZM17.4363 83.3017C17.6564 83.2636 17.8738 83.2189 18.0884 83.1674L17.6216 81.2226C17.4495 81.2639 17.2743 81.3 17.0958 81.3309L17.4363 83.3017ZM18.1246 83.158C18.325 83.1019 18.5209 83.0397 18.7122 82.9713L18.0388 81.0881C17.8933 81.1401 17.7422 81.1881 17.5854 81.232L18.1246 83.158ZM19.8564 82.4559C20.0438 82.3517 20.2249 82.2399 20.3997 82.1203L19.2703 80.4697C19.1476 80.5536 19.0191 80.6331 18.8845 80.7079L19.8564 82.4559ZM20.4282 82.1001C20.5903 81.9806 20.7448 81.8549 20.8913 81.7227L19.5515 80.2378C19.4559 80.324 19.3528 80.4081 19.2418 80.4899L20.4282 82.1001ZM21.7021 80.8067C21.8207 80.6362 21.9284 80.4592 22.0249 80.2757L20.2551 79.3443C20.197 79.4546 20.1321 79.5614 20.0602 79.6647L21.7021 80.8067ZM22.0054 80.311C22.1192 80.1145 22.2173 79.9094 22.2999 79.6965L20.4351 78.9734C20.3892 79.0919 20.3356 79.2035 20.2746 79.309L22.0054 80.311ZM22.6029 78.4157C22.6245 78.2092 22.635 77.9989 22.635 77.785H20.635C20.635 77.9334 20.6277 78.074 20.6138 78.2072L22.6029 78.4157ZM22.635 77.785V77.3912H20.635V77.785H22.635ZM22.635 76.6037V76.21H20.635V76.6037H22.635ZM21.635 75.21H20.1725V77.21H21.635V75.21ZM17.2475 75.21H15.785V77.21H17.2475V75.21ZM16.785 76.21V74.7812H14.785V76.21H16.785ZM16.785 71.9237V70.495H14.785V71.9237H16.785ZM15.785 71.495H16.8163V69.495H15.785V71.495ZM18.8788 71.495H20.9413V69.495H18.8788V71.495ZM23.0038 71.495H25.0663V69.495H23.0038V71.495ZM27.1288 71.495H28.16V69.495H27.1288V71.495ZM27.16 70.495V71.5891H29.16V70.495H27.16ZM27.16 73.7772V75.9653H29.16V73.7772H27.16ZM27.16 78.1534V80.3416H29.16V78.1534H27.16ZM27.16 82.5297V84.7178H29.16V82.5297H27.16ZM27.16 86.9059V88H29.16V86.9059H27.16ZM28.16 87H26.72V89H28.16V87ZM23.84 87H22.4V89H23.84V87ZM23.4 88V86.7512H21.4V88H23.4ZM23.4 84.2537V83.005H21.4V84.2537H23.4ZM34.8088 88H34.3088V88.5H34.8088V88ZM34.8088 56.59V56.09H34.3088V56.59H34.8088ZM56.1838 56.59H56.6838V56.09H56.1838V56.59ZM56.1838 62.665V63.165H56.6838V62.665H56.1838ZM41.6488 62.665V62.165H41.1488V62.665H41.6488ZM41.6488 69.1H41.1488V69.6H41.6488V69.1ZM54.1138 69.1H54.6138V68.6H54.1138V69.1ZM54.1138 75.13V75.63H54.6138V75.13H54.1138ZM41.6488 75.13V74.63H41.1488V75.13H41.6488ZM41.6488 81.925H41.1488V82.425H41.6488V81.925ZM56.1838 81.925H56.6838V81.425H56.1838V81.925ZM56.1838 88V88.5H56.6838V88H56.1838ZM35.3088 88V87.0184H34.3088V88H35.3088ZM35.3088 85.0553V83.0922H34.3088V85.0553H35.3088ZM35.3088 81.1291V79.1659H34.3088V81.1291H35.3088ZM35.3088 77.2028V75.2397H34.3088V77.2028H35.3088ZM35.3088 73.2766V71.3134H34.3088V73.2766H35.3088ZM35.3088 69.3503V67.3872H34.3088V69.3503H35.3088ZM35.3088 65.4241V63.4609H34.3088V65.4241H35.3088ZM35.3088 61.4978V59.5347H34.3088V61.4978H35.3088ZM35.3088 57.5716V56.59H34.3088V57.5716H35.3088ZM34.8088 57.09H35.8775V56.09H34.8088V57.09ZM38.015 57.09H40.1525V56.09H38.015V57.09ZM42.29 57.09H44.4275V56.09H42.29V57.09ZM46.565 57.09H48.7025V56.09H46.565V57.09ZM50.84 57.09H52.9775V56.09H50.84V57.09ZM55.115 57.09H56.1838V56.09H55.115V57.09ZM55.6838 56.59V57.3494H56.6838V56.59H55.6838ZM55.6838 58.8681V60.3869H56.6838V58.8681H55.6838ZM55.6838 61.9056V62.665H56.6838V61.9056H55.6838ZM56.1838 62.165H55.2753V63.165H56.1838V62.165ZM53.4584 62.165H51.6416V63.165H53.4584V62.165ZM49.8247 62.165H48.0078V63.165H49.8247V62.165ZM46.1909 62.165H44.3741V63.165H46.1909V62.165ZM42.5572 62.165H41.6488V63.165H42.5572V62.165ZM41.1488 62.665V63.4694H42.1488V62.665H41.1488ZM41.1488 65.0781V66.6869H42.1488V65.0781H41.1488ZM41.1488 68.2956V69.1H42.1488V68.2956H41.1488ZM41.6488 69.6H42.6875V68.6H41.6488V69.6ZM44.765 69.6H46.8425V68.6H44.765V69.6ZM48.92 69.6H50.9975V68.6H48.92V69.6ZM53.075 69.6H54.1138V68.6H53.075V69.6ZM53.6138 69.1V69.8537H54.6138V69.1H53.6138ZM53.6138 71.3612V72.8687H54.6138V71.3612H53.6138ZM53.6138 74.3762V75.13H54.6138V74.3762H53.6138ZM54.1138 74.63H53.075V75.63H54.1138V74.63ZM50.9975 74.63H48.92V75.63H50.9975V74.63ZM46.8425 74.63H44.765V75.63H46.8425V74.63ZM42.6875 74.63H41.6488V75.63H42.6875V74.63ZM41.1488 75.13V75.9794H42.1488V75.13H41.1488ZM41.1488 77.6781V79.3769H42.1488V77.6781H41.1488ZM41.1488 81.0756V81.925H42.1488V81.0756H41.1488ZM41.6488 82.425H42.5572V81.425H41.6488V82.425ZM44.3741 82.425H46.1909V81.425H44.3741V82.425ZM48.0078 82.425H49.8247V81.425H48.0078V82.425ZM51.6416 82.425H53.4584V81.425H51.6416V82.425ZM55.2753 82.425H56.1838V81.425H55.2753V82.425ZM55.6838 81.925V82.6844H56.6838V81.925H55.6838ZM55.6838 84.2031V85.7219H56.6838V84.2031H55.6838ZM55.6838 87.2406V88H56.6838V87.2406H55.6838ZM56.1838 87.5H55.115V88.5H56.1838V87.5ZM52.9775 87.5H50.84V88.5H52.9775V87.5ZM48.7025 87.5H46.565V88.5H48.7025V87.5ZM44.4275 87.5H42.29V88.5H44.4275V87.5ZM40.1525 87.5H38.015V88.5H40.1525V87.5ZM35.8775 87.5H34.8088V88.5H35.8775V87.5ZM34.8088 88H33.8088V89H34.8088V88ZM34.8088 56.59V55.59H33.8088V56.59H34.8088ZM56.1838 56.59H57.1838V55.59H56.1838V56.59ZM56.1838 62.665V63.665H57.1838V62.665H56.1838ZM41.6488 62.665V61.665H40.6488V62.665H41.6488ZM41.6488 69.1H40.6488V70.1H41.6488V69.1ZM54.1138 69.1H55.1138V68.1H54.1138V69.1ZM54.1138 75.13V76.13H55.1138V75.13H54.1138ZM41.6488 75.13V74.13H40.6488V75.13H41.6488ZM41.6488 81.925H40.6488V82.925H41.6488V81.925ZM56.1838 81.925H57.1838V80.925H56.1838V81.925ZM56.1838 88V89H57.1838V88H56.1838ZM35.8088 88V87.0184H33.8088V88H35.8088ZM35.8088 85.0553V83.0922H33.8088V85.0553H35.8088ZM35.8088 81.1291V79.1659H33.8088V81.1291H35.8088ZM35.8088 77.2028V75.2397H33.8088V77.2028H35.8088ZM35.8088 73.2766V71.3134H33.8088V73.2766H35.8088ZM35.8088 69.3503V67.3872H33.8088V69.3503H35.8088ZM35.8088 65.4241V63.4609H33.8088V65.4241H35.8088ZM35.8088 61.4978V59.5347H33.8088V61.4978H35.8088ZM35.8088 57.5716V56.59H33.8088V57.5716H35.8088ZM34.8088 57.59H35.8775V55.59H34.8088V57.59ZM38.015 57.59H40.1525V55.59H38.015V57.59ZM42.29 57.59H44.4275V55.59H42.29V57.59ZM46.565 57.59H48.7025V55.59H46.565V57.59ZM50.84 57.59H52.9775V55.59H50.84V57.59ZM55.115 57.59H56.1838V55.59H55.115V57.59ZM55.1838 56.59V57.3494H57.1838V56.59H55.1838ZM55.1838 58.8681V60.3869H57.1838V58.8681H55.1838ZM55.1838 61.9056V62.665H57.1838V61.9056H55.1838ZM56.1838 61.665H55.2753V63.665H56.1838V61.665ZM53.4584 61.665H51.6416V63.665H53.4584V61.665ZM49.8247 61.665H48.0078V63.665H49.8247V61.665ZM46.1909 61.665H44.3741V63.665H46.1909V61.665ZM42.5572 61.665H41.6488V63.665H42.5572V61.665ZM40.6488 62.665V63.4694H42.6488V62.665H40.6488ZM40.6488 65.0781V66.6869H42.6488V65.0781H40.6488ZM40.6488 68.2956V69.1H42.6488V68.2956H40.6488ZM41.6488 70.1H42.6875V68.1H41.6488V70.1ZM44.765 70.1H46.8425V68.1H44.765V70.1ZM48.92 70.1H50.9975V68.1H48.92V70.1ZM53.075 70.1H54.1138V68.1H53.075V70.1ZM53.1138 69.1V69.8537H55.1138V69.1H53.1138ZM53.1138 71.3612V72.8687H55.1138V71.3612H53.1138ZM53.1138 74.3762V75.13H55.1138V74.3762H53.1138ZM54.1138 74.13H53.075V76.13H54.1138V74.13ZM50.9975 74.13H48.92V76.13H50.9975V74.13ZM46.8425 74.13H44.765V76.13H46.8425V74.13ZM42.6875 74.13H41.6488V76.13H42.6875V74.13ZM40.6488 75.13V75.9794H42.6488V75.13H40.6488ZM40.6488 77.6781V79.3769H42.6488V77.6781H40.6488ZM40.6488 81.0756V81.925H42.6488V81.0756H40.6488ZM41.6488 82.925H42.5572V80.925H41.6488V82.925ZM44.3741 82.925H46.1909V80.925H44.3741V82.925ZM48.0078 82.925H49.8247V80.925H48.0078V82.925ZM51.6416 82.925H53.4584V80.925H51.6416V82.925ZM55.2753 82.925H56.1838V80.925H55.2753V82.925ZM55.1838 81.925V82.6844H57.1838V81.925H55.1838ZM55.1838 84.2031V85.7219H57.1838V84.2031H55.1838ZM55.1838 87.2406V88H57.1838V87.2406H55.1838ZM56.1838 87H55.115V89H56.1838V87ZM52.9775 87H50.84V89H52.9775V87ZM48.7025 87H46.565V89H48.7025V87ZM44.4275 87H42.29V89H44.4275V87ZM40.1525 87H38.015V89H40.1525V87ZM35.8775 87H34.8088V89H35.8775V87ZM71.7277 73.15L71.2767 73.3658L71.2852 73.3835L71.295 73.4005L71.7277 73.15ZM68.7127 66.85L69.1637 66.6342L69.0278 66.35H68.7127V66.85ZM68.5777 66.85V66.35H68.0777V66.85H68.5777ZM68.5777 88V88.5H69.0777V88H68.5777ZM62.1427 88H61.6427V88.5H62.1427V88ZM62.1427 56.59V56.09H61.6427V56.59H62.1427ZM69.6127 56.59L70.0455 56.3395L69.9011 56.09H69.6127V56.59ZM78.2077 71.44L78.6587 71.2242L78.6503 71.2065L78.6405 71.1895L78.2077 71.44ZM81.2227 77.74L80.7717 77.9558L80.9077 78.24H81.2227V77.74ZM81.3577 77.74V78.24H81.8577V77.74H81.3577ZM81.3577 56.59V56.09H80.8577V56.59H81.3577ZM87.7927 56.59H88.2927V56.09H87.7927V56.59ZM87.7927 88V88.5H88.2927V88H87.7927ZM80.3227 88L79.89 88.2505L80.0344 88.5H80.3227V88ZM72.1787 72.9342L71.8019 72.1467L70.8998 72.5783L71.2767 73.3658L72.1787 72.9342ZM71.0481 70.5717L70.2944 68.9967L69.3923 69.4283L70.1461 71.0033L71.0481 70.5717ZM69.5406 67.4217L69.1637 66.6342L68.2617 67.0658L68.6386 67.8533L69.5406 67.4217ZM68.7127 66.35H68.679V67.35H68.7127V66.35ZM68.6115 66.35H68.5777V67.35H68.6115V66.35ZM68.0777 66.85V67.9075H69.0777V66.85H68.0777ZM68.0777 70.0225V72.1375H69.0777V70.0225H68.0777ZM68.0777 74.2525V76.3675H69.0777V74.2525H68.0777ZM68.0777 78.4825V80.5975H69.0777V78.4825H68.0777ZM68.0777 82.7125V84.8275H69.0777V82.7125H68.0777ZM68.0777 86.9425V88H69.0777V86.9425H68.0777ZM68.5777 87.5H67.7734V88.5H68.5777V87.5ZM66.1646 87.5H64.5559V88.5H66.1646V87.5ZM62.9471 87.5H62.1427V88.5H62.9471V87.5ZM62.6427 88V87.0184H61.6427V88H62.6427ZM62.6427 85.0553V83.0922H61.6427V85.0553H62.6427ZM62.6427 81.1291V79.1659H61.6427V81.1291H62.6427ZM62.6427 77.2028V75.2397H61.6427V77.2028H62.6427ZM62.6427 73.2766V71.3134H61.6427V73.2766H62.6427ZM62.6427 69.3503V67.3872H61.6427V69.3503H62.6427ZM62.6427 65.4241V63.4609H61.6427V65.4241H62.6427ZM62.6427 61.4978V59.5347H61.6427V61.4978H62.6427ZM62.6427 57.5716V56.59H61.6427V57.5716H62.6427ZM62.1427 57.09H63.0765V56.09H62.1427V57.09ZM64.944 57.09H66.8115V56.09H64.944V57.09ZM68.679 57.09H69.6127V56.09H68.679V57.09ZM69.18 56.8405L69.7172 57.7686L70.5827 57.2677L70.0455 56.3395L69.18 56.8405ZM70.7916 59.6248L71.8659 61.4811L72.7314 60.9802L71.657 59.1239L70.7916 59.6248ZM72.9403 63.3373L74.0147 65.1936L74.8802 64.6927L73.8058 62.8364L72.9403 63.3373ZM75.0891 67.0498L76.1634 68.9061L77.0289 68.4052L75.9545 66.5489L75.0891 67.0498ZM77.2378 70.7623L77.775 71.6905L78.6405 71.1895L78.1033 70.2614L77.2378 70.7623ZM77.7567 71.6558L78.1336 72.4433L79.0356 72.0117L78.6587 71.2242L77.7567 71.6558ZM78.8873 74.0183L79.6411 75.5933L80.5431 75.1617L79.7894 73.5867L78.8873 74.0183ZM80.3948 77.1683L80.7717 77.9558L81.6737 77.5242L81.2969 76.7367L80.3948 77.1683ZM81.2227 78.24H81.2565V77.24H81.2227V78.24ZM81.324 78.24H81.3577V77.24H81.324V78.24ZM81.8577 77.74V76.6825H80.8577V77.74H81.8577ZM81.8577 74.5675V72.4525H80.8577V74.5675H81.8577ZM81.8577 70.3375V68.2225H80.8577V70.3375H81.8577ZM81.8577 66.1075V63.9925H80.8577V66.1075H81.8577ZM81.8577 61.8775V59.7625H80.8577V61.8775H81.8577ZM81.8577 57.6475V56.59H80.8577V57.6475H81.8577ZM81.3577 57.09H82.1621V56.09H81.3577V57.09ZM83.7709 57.09H85.3796V56.09H83.7709V57.09ZM86.9884 57.09H87.7927V56.09H86.9884V57.09ZM87.2927 56.59V57.5716H88.2927V56.59H87.2927ZM87.2927 59.5347V61.4978H88.2927V59.5347H87.2927ZM87.2927 63.4609V65.4241H88.2927V63.4609H87.2927ZM87.2927 67.3872V69.3503H88.2927V67.3872H87.2927ZM87.2927 71.3134V73.2766H88.2927V71.3134H87.2927ZM87.2927 75.2397V77.2028H88.2927V75.2397H87.2927ZM87.2927 79.1659V81.1291H88.2927V79.1659H87.2927ZM87.2927 83.0922V85.0553H88.2927V83.0922H87.2927ZM87.2927 87.0184V88H88.2927V87.0184H87.2927ZM87.7927 87.5H86.859V88.5H87.7927V87.5ZM84.9915 87.5H83.124V88.5H84.9915V87.5ZM81.2565 87.5H80.3227V88.5H81.2565V87.5ZM80.7555 87.7495L80.2183 86.8214L79.3528 87.3223L79.89 88.2505L80.7555 87.7495ZM79.1439 84.9652L78.0695 83.1089L77.2041 83.6098L78.2784 85.4661L79.1439 84.9652ZM76.9952 81.2527L75.9208 79.3964L75.0553 79.8973L76.1297 81.7536L76.9952 81.2527ZM74.8464 77.5402L73.772 75.6839L72.9066 76.1848L73.9809 78.0411L74.8464 77.5402ZM72.6977 73.8277L72.1605 72.8995L71.295 73.4005L71.8322 74.3286L72.6977 73.8277ZM71.7277 73.15L70.8257 73.5817L70.8426 73.617L70.8622 73.6509L71.7277 73.15ZM68.7127 66.85L69.6148 66.4183L69.3428 65.85H68.7127V66.85ZM68.5777 66.85V65.85H67.5777V66.85H68.5777ZM68.5777 88V89H69.5777V88H68.5777ZM62.1427 88H61.1427V89H62.1427V88ZM62.1427 56.59V55.59H61.1427V56.59H62.1427ZM69.6127 56.59L70.4782 56.0891L70.1894 55.59H69.6127V56.59ZM78.2077 71.44L79.1098 71.0083L79.0928 70.973L79.0732 70.9391L78.2077 71.44ZM81.2227 77.74L80.3207 78.1717L80.5927 78.74H81.2227V77.74ZM81.3577 77.74V78.74H82.3577V77.74H81.3577ZM81.3577 56.59V55.59H80.3577V56.59H81.3577ZM87.7927 56.59H88.7927V55.59H87.7927V56.59ZM87.7927 88V89H88.7927V88H87.7927ZM80.3227 88L79.4572 88.5009L79.7461 89H80.3227V88ZM72.6298 72.7183L72.2529 71.9308L70.4488 72.7942L70.8257 73.5817L72.6298 72.7183ZM71.4991 70.3558L70.7454 68.7808L68.9413 69.6442L69.6951 71.2192L71.4991 70.3558ZM69.9916 67.2058L69.6148 66.4183L67.8107 67.2817L68.1876 68.0692L69.9916 67.2058ZM68.7127 65.85H68.679V67.85H68.7127V65.85ZM68.6115 65.85H68.5777V67.85H68.6115V65.85ZM67.5777 66.85V67.9075H69.5777V66.85H67.5777ZM67.5777 70.0225V72.1375H69.5777V70.0225H67.5777ZM67.5777 74.2525V76.3675H69.5777V74.2525H67.5777ZM67.5777 78.4825V80.5975H69.5777V78.4825H67.5777ZM67.5777 82.7125V84.8275H69.5777V82.7125H67.5777ZM67.5777 86.9425V88H69.5777V86.9425H67.5777ZM68.5777 87H67.7734V89H68.5777V87ZM66.1646 87H64.5559V89H66.1646V87ZM62.9471 87H62.1427V89H62.9471V87ZM63.1427 88V87.0184H61.1427V88H63.1427ZM63.1427 85.0553V83.0922H61.1427V85.0553H63.1427ZM63.1427 81.1291V79.1659H61.1427V81.1291H63.1427ZM63.1427 77.2028V75.2397H61.1427V77.2028H63.1427ZM63.1427 73.2766V71.3134H61.1427V73.2766H63.1427ZM63.1427 69.3503V67.3872H61.1427V69.3503H63.1427ZM63.1427 65.4241V63.4609H61.1427V65.4241H63.1427ZM63.1427 61.4978V59.5347H61.1427V61.4978H63.1427ZM63.1427 57.5716V56.59H61.1427V57.5716H63.1427ZM62.1427 57.59H63.0765V55.59H62.1427V57.59ZM64.944 57.59H66.8115V55.59H64.944V57.59ZM68.679 57.59H69.6127V55.59H68.679V57.59ZM68.7472 57.0909L69.2844 58.0191L71.0154 57.0172L70.4782 56.0891L68.7472 57.0909ZM70.3588 59.8753L71.4332 61.7316L73.1642 60.7297L72.0898 58.8734L70.3588 59.8753ZM72.5076 63.5878L73.5819 65.4441L75.3129 64.4422L74.2385 62.5859L72.5076 63.5878ZM74.6563 67.3003L75.7307 69.1566L77.4617 68.1547L76.3873 66.2984L74.6563 67.3003ZM76.8051 71.0128L77.3422 71.9409L79.0732 70.9391L78.536 70.0109L76.8051 71.0128ZM77.3057 71.8717L77.6826 72.6592L79.4866 71.7958L79.1098 71.0083L77.3057 71.8717ZM78.4363 74.2342L79.1901 75.8092L80.9941 74.9458L80.2404 73.3708L78.4363 74.2342ZM79.9438 77.3842L80.3207 78.1717L82.1248 77.3083L81.7479 76.5208L79.9438 77.3842ZM81.2227 78.74H81.2565V76.74H81.2227V78.74ZM81.324 78.74H81.3577V76.74H81.324V78.74ZM82.3577 77.74V76.6825H80.3577V77.74H82.3577ZM82.3577 74.5675V72.4525H80.3577V74.5675H82.3577ZM82.3577 70.3375V68.2225H80.3577V70.3375H82.3577ZM82.3577 66.1075V63.9925H80.3577V66.1075H82.3577ZM82.3577 61.8775V59.7625H80.3577V61.8775H82.3577ZM82.3577 57.6475V56.59H80.3577V57.6475H82.3577ZM81.3577 57.59H82.1621V55.59H81.3577V57.59ZM83.7709 57.59H85.3796V55.59H83.7709V57.59ZM86.9884 57.59H87.7927V55.59H86.9884V57.59ZM86.7927 56.59V57.5716H88.7927V56.59H86.7927ZM86.7927 59.5347V61.4978H88.7927V59.5347H86.7927ZM86.7927 63.4609V65.4241H88.7927V63.4609H86.7927ZM86.7927 67.3872V69.3503H88.7927V67.3872H86.7927ZM86.7927 71.3134V73.2766H88.7927V71.3134H86.7927ZM86.7927 75.2397V77.2028H88.7927V75.2397H86.7927ZM86.7927 79.1659V81.1291H88.7927V79.1659H86.7927ZM86.7927 83.0922V85.0553H88.7927V83.0922H86.7927ZM86.7927 87.0184V88H88.7927V87.0184H86.7927ZM87.7927 87H86.859V89H87.7927V87ZM84.9915 87H83.124V89H84.9915V87ZM81.2565 87H80.3227V89H81.2565V87ZM81.1882 87.4991L80.651 86.5709L78.9201 87.5728L79.4572 88.5009L81.1882 87.4991ZM79.5767 84.7147L78.5023 82.8584L76.7713 83.8603L77.8457 85.7166L79.5767 84.7147ZM77.4279 81.0022L76.3535 79.1459L74.6226 80.1478L75.6969 82.0041L77.4279 81.0022ZM75.2792 77.2897L74.2048 75.4334L72.4738 76.4353L73.5482 78.2916L75.2792 77.2897ZM73.1304 73.5772L72.5932 72.6491L70.8622 73.6509L71.3994 74.5791L73.1304 73.5772Z" fill="#DADADA"></path> </svg> 