<?xml version="1.0" encoding="UTF-8"?> <svg xmlns="http://www.w3.org/2000/svg" width="85" height="79" viewBox="0 0 85 79" fill="none"> <path d="M7.615 32.145L7.39138 32.5922L7.39704 32.595L7.615 32.145ZM2.71 28.455L2.35469 28.1032L2.02259 28.4386L2.33835 28.7895L2.71 28.455ZM7.21 23.91L7.58396 23.5781L7.22994 23.1792L6.85469 23.5582L7.21 23.91ZM18.82 26.475L19.1442 26.8556L19.1442 26.8556L18.82 26.475ZM19.315 21.57L18.9244 21.8824L18.9325 21.8921L19.315 21.57ZM16.39 20.355L16.4607 19.86L16.4547 19.8592L16.39 20.355ZM13.285 19.95L13.3497 19.4542L13.3476 19.4539L13.285 19.95ZM5.95 16.935L5.5897 17.2817L5.5931 17.2852L5.95 16.935ZM4.465 6.72L4.01102 6.51047L4.01102 6.51047L4.465 6.72ZM6.76 3.705L6.44211 3.31899L6.43651 3.32374L6.76 3.705ZM10.45 1.77L10.5991 2.24728L10.6052 2.2453L10.45 1.77ZM21.7 2.175L21.8923 1.71346L21.8923 1.71346L21.7 2.175ZM26.335 5.46L26.6903 5.81181L27.0217 5.47716L26.7074 5.12637L26.335 5.46ZM21.79 10.05L21.4113 10.3765L21.7646 10.7863L22.1453 10.4018L21.79 10.05ZM19.045 7.935L18.8065 8.37442L18.8139 8.37844L18.8214 8.38221L19.045 7.935ZM11.62 7.89L11.9122 8.29577L11.9122 8.29577L11.62 7.89ZM11.35 12.48L11.0278 12.8626L11.0377 12.8704L11.35 12.48ZM14.23 13.515L14.3087 13.0212L14.3086 13.0212L14.23 13.515ZM17.335 14.01L17.2563 14.5038L17.2573 14.5039L17.335 14.01ZM24.535 17.025L24.1884 17.3854L24.1921 17.3889L24.535 17.025ZM26.065 27.465L25.6054 27.268L26.065 27.465ZM23.68 30.705L23.3546 30.3253L23.3492 30.3301L23.68 30.705ZM19.855 32.82L20.0047 33.2971L20.0131 33.2943L19.855 32.82ZM14.635 33.04C14.3353 33.04 14.0409 33.0344 13.752 33.0232L13.7134 34.0225C14.0156 34.0342 14.3228 34.04 14.635 34.04V33.04ZM11.9993 32.879C11.3989 32.8012 10.8259 32.6955 10.2801 32.5621L10.0428 33.5335C10.6269 33.6763 11.2364 33.7885 11.8709 33.8707L11.9993 32.879ZM8.6242 32.041C8.3522 31.9341 8.08848 31.8188 7.83296 31.695L7.39704 32.595C7.67612 32.7302 7.96327 32.8557 8.25843 32.9717L8.6242 32.041ZM7.83861 31.6978C7.61299 31.585 7.39156 31.4684 7.17429 31.3481L6.68982 32.2229C6.91954 32.3501 7.1534 32.4732 7.39139 32.5922L7.83861 31.6978ZM5.89672 30.565C5.47974 30.2827 5.08055 29.9842 4.69906 29.6693L4.06252 30.4405C4.46881 30.7759 4.89338 31.0934 5.33614 31.3931L5.89672 30.565ZM3.59493 28.6631C3.41935 28.4865 3.24826 28.3056 3.08165 28.1205L2.33835 28.7895C2.51603 28.9869 2.69849 29.1798 2.88573 29.3681L3.59493 28.6631ZM3.06531 28.8068L3.62781 28.2387L2.91719 27.5351L2.35469 28.1032L3.06531 28.8068ZM4.75281 27.1024L5.87781 25.9662L5.16719 25.2626L4.04219 26.3988L4.75281 27.1024ZM7.00281 24.8299L7.56531 24.2618L6.85469 23.5582L6.29219 24.1263L7.00281 24.8299ZM6.83604 24.2419C7.09792 24.537 7.3676 24.8152 7.64515 25.0765L8.33061 24.3484C8.07568 24.1084 7.82677 23.8517 7.58396 23.5781L6.83604 24.2419ZM9.49894 26.4969C10.1738 26.9077 10.8839 27.2353 11.6288 27.4791L11.9399 26.5287C11.2688 26.309 10.6287 26.0139 10.0189 25.6427L9.49894 26.4969ZM13.9204 27.9544C14.3018 27.9915 14.69 28.01 15.085 28.01V27.01C14.7212 27.01 14.3653 26.993 14.0173 26.9591L13.9204 27.9544ZM15.085 28.01C15.4469 28.01 15.7921 27.9946 16.1201 27.9634L16.0252 26.9679C15.7321 26.9958 15.4188 27.01 15.085 27.01V28.01ZM18.1916 27.453C18.5464 27.2917 18.8652 27.0933 19.1442 26.8556L18.4958 26.0944C18.2945 26.2659 18.0564 26.416 17.7778 26.5426L18.1916 27.453ZM19.1442 26.8556C19.3736 26.6602 19.5768 26.4466 19.7522 26.2144L18.9544 25.6116C18.8253 25.7824 18.6729 25.9435 18.4958 26.0944L19.1442 26.8556ZM20.4584 24.5936C20.5099 24.3163 20.535 24.0281 20.535 23.73H19.535C19.535 23.972 19.5146 24.1987 19.4752 24.411L20.4584 24.5936ZM20.535 23.73C20.535 23.5074 20.5208 23.2911 20.4917 23.0815L19.5012 23.2189C19.5235 23.3797 19.535 23.5499 19.535 23.73H20.535ZM20.0817 21.8094C19.9728 21.6099 19.8446 21.4226 19.6975 21.2479L18.9325 21.8921C19.037 22.0161 19.1274 22.1482 19.2041 22.2887L20.0817 21.8094ZM19.7054 21.2577C19.5068 21.0094 19.2524 20.7995 18.955 20.6225L18.4437 21.4819C18.6588 21.6099 18.8148 21.7452 18.9246 21.8823L19.7054 21.2577ZM17.295 20.0104C17.0339 19.9522 16.7557 19.9022 16.4607 19.86L16.3193 20.85C16.592 20.8889 16.8445 20.9345 17.0772 20.9865L17.295 20.0104ZM16.4547 19.8592L15.6784 19.7579L15.5491 20.7495L16.3253 20.8508L16.4547 19.8592ZM14.1259 19.5554L13.3497 19.4542L13.2203 20.4458L13.9966 20.547L14.1259 19.5554ZM13.3476 19.4539C13.0121 19.4116 12.6864 19.3633 12.3704 19.3091L12.2012 20.2947C12.5326 20.3515 12.873 20.402 13.2224 20.4461L13.3476 19.4539ZM10.4571 18.8747C9.79468 18.6822 9.18966 18.456 8.6408 18.1973L8.21435 19.1018C8.81611 19.3855 9.47107 19.6295 10.178 19.8349L10.4571 18.8747ZM7.01084 17.2102C6.75699 17.013 6.52247 16.8045 6.3069 16.5848L5.5931 17.2852C5.84118 17.538 6.1094 17.7762 6.39738 18L7.01084 17.2102ZM6.31029 16.5883C6.12148 16.3921 5.94537 16.1876 5.78183 15.9749L4.98901 16.5844C5.17534 16.8267 5.37561 17.0592 5.58971 17.2817L6.31029 16.5883ZM4.94714 14.5915C4.72635 14.1126 4.55102 13.5994 4.42201 13.051L3.44857 13.2799C3.59206 13.8899 3.78859 14.467 4.039 15.0102L4.94714 14.5915ZM4.1825 11.4213C4.1642 11.1512 4.155 10.8741 4.155 10.59H3.155C3.155 10.8957 3.1649 11.1954 3.18479 11.4889L4.1825 11.4213ZM4.155 10.59C4.155 10.2668 4.16986 9.95108 4.19942 9.6428L3.20398 9.54736C3.17127 9.88853 3.155 10.2361 3.155 10.59H4.155ZM4.57718 7.80191C4.67435 7.50347 4.78828 7.21272 4.91898 6.92953L4.01102 6.51047C3.86379 6.82946 3.73555 7.15679 3.62631 7.49232L4.57718 7.80191ZM4.91898 6.92953C5.04616 6.65397 5.18635 6.38853 5.3395 6.13308L4.48183 5.61887C4.30993 5.9056 4.153 6.20284 4.01102 6.51047L4.91898 6.92953ZM6.42748 4.70475C6.63275 4.48937 6.85137 4.2832 7.08349 4.08625L6.43651 3.32374C6.17802 3.54307 5.93367 3.77343 5.70359 4.01484L6.42748 4.70475ZM7.07785 4.09096C7.33046 3.88293 7.59711 3.6872 7.87795 3.50382L7.33121 2.66652C7.02019 2.86961 6.72378 3.0871 6.44215 3.31903L7.07785 4.09096ZM9.65047 2.58574C9.9546 2.46272 10.2708 2.34985 10.5991 2.24724L10.3009 1.29276C9.94768 1.40313 9.60585 1.52508 9.27548 1.65872L9.65047 2.58574ZM10.6052 2.2453C10.9826 2.12207 11.3743 2.01501 11.7805 1.92429L11.5626 0.948336C11.1265 1.04573 10.7039 1.16113 10.2948 1.2947L10.6052 2.2453ZM14.2103 1.58796C14.6108 1.56268 15.0224 1.55 15.445 1.55V0.549998C15.0024 0.549998 14.5698 0.563282 14.1473 0.589942L14.2103 1.58796ZM15.445 1.55C15.7092 1.55 15.9696 1.55477 16.2261 1.56428L16.2632 0.564969C15.994 0.554983 15.7213 0.549998 15.445 0.549998V1.55ZM17.7782 1.68534C18.3059 1.74946 18.815 1.83626 19.3057 1.94552L19.523 0.969427C18.9988 0.852693 18.4573 0.760504 17.8988 0.692638L17.7782 1.68534ZM20.7896 2.36345C21.0342 2.44796 21.2736 2.539 21.5077 2.63654L21.8923 1.71346C21.6387 1.6078 21.38 1.50941 21.1161 1.41825L20.7896 2.36345ZM21.5077 2.63654C21.9371 2.81544 22.3508 3.0145 22.7491 3.23363L23.2312 2.35748C22.8006 2.1206 22.3543 1.90595 21.8923 1.71346L21.5077 2.63654ZM24.9895 4.82015C25.3288 5.12373 25.6531 5.44818 25.9626 5.79362L26.7074 5.12637C26.3738 4.75398 26.0234 4.40345 25.6563 4.07493L24.9895 4.82015ZM25.9797 5.10819L25.4116 5.68194L26.1222 6.38556L26.6903 5.81181L25.9797 5.10819ZM24.2753 6.82944L23.1391 7.97694L23.8497 8.68056L24.9859 7.53306L24.2753 6.82944ZM22.0028 9.12444L21.4347 9.69819L22.1453 10.4018L22.7134 9.82806L22.0028 9.12444ZM22.1687 9.72353C21.9673 9.48991 21.7546 9.26745 21.5307 9.05622L20.8445 9.78369C21.0434 9.97127 21.2323 10.1688 21.4113 10.3765L22.1687 9.72353ZM20.07 7.93508C19.8127 7.77533 19.5455 7.62625 19.2686 7.48778L18.8214 8.38221C19.0716 8.50733 19.312 8.64149 19.5425 8.78464L20.07 7.93508ZM19.2835 7.49557C18.9634 7.32176 18.6213 7.17355 18.2581 7.05024L17.9366 7.99715C18.2497 8.10347 18.5394 8.22946 18.8065 8.37442L19.2835 7.49557ZM16.1153 6.62361C15.7698 6.59445 15.4113 6.58 15.04 6.58V7.58C15.3854 7.58 15.7158 7.59344 16.0312 7.62007L16.1153 6.62361ZM15.04 6.58C14.7144 6.58 14.4037 6.59177 14.1081 6.61565L14.1886 7.61241C14.4546 7.59091 14.7384 7.58 15.04 7.58V6.58ZM12.2281 7.00744C11.8955 7.13459 11.5941 7.29255 11.3278 7.48423L11.9122 8.29577C12.0992 8.16112 12.3221 8.04207 12.5852 7.9415L12.2281 7.00744ZM11.3278 7.48423C11.1148 7.63762 10.9242 7.80847 10.7582 7.99753L11.5095 8.65743C11.622 8.52933 11.7555 8.40852 11.9122 8.29577L11.3278 7.48423ZM10.0695 9.38696C10.0192 9.62851 9.995 9.8799 9.995 10.14H10.995C10.995 9.94207 11.0134 9.75935 11.0485 9.59068L10.0695 9.38696ZM9.995 10.14C9.995 10.3857 10.0086 10.6207 10.0368 10.8444L11.029 10.7196C11.0066 10.542 10.995 10.3489 10.995 10.14H9.995ZM10.5072 12.26C10.6503 12.489 10.8239 12.6907 11.0279 12.8625L11.6721 12.0975C11.5503 11.995 11.4447 11.8733 11.3552 11.7301L10.5072 12.26ZM11.0377 12.8704C11.2565 13.0455 11.5084 13.1996 11.789 13.3351L12.2239 12.4347C11.9987 12.3259 11.8129 12.21 11.6623 12.0896L11.0377 12.8704ZM13.3605 13.8581C13.6103 13.9145 13.874 13.9647 14.1514 14.0088L14.3086 13.0212C14.05 12.9801 13.8074 12.9338 13.5806 12.8827L13.3605 13.8581ZM14.1513 14.0088L14.9275 14.1325L15.085 13.145L14.3087 13.0212L14.1513 14.0088ZM16.48 14.38L17.2563 14.5038L17.4137 13.5162L16.6375 13.3925L16.48 14.38ZM17.2573 14.5039C17.585 14.5555 17.9035 14.6122 18.2128 14.6739L18.4085 13.6933C18.0852 13.6287 17.7533 13.5697 17.4127 13.5161L17.2573 14.5039ZM20.0839 15.143C20.7314 15.343 21.3248 15.5714 21.8653 15.8272L22.2931 14.9233C21.705 14.645 21.0667 14.4 20.3791 14.1875L20.0839 15.143ZM23.4803 16.7864C23.735 16.9765 23.9709 17.1763 24.1884 17.3854L24.8816 16.6646C24.6328 16.4254 24.365 16.199 24.0785 15.985L23.4803 16.7864ZM24.1921 17.3889C24.3879 17.5734 24.5702 17.7684 24.7392 17.9738L25.5116 17.3387C25.3155 17.1003 25.1042 16.8744 24.8779 16.6611L24.1921 17.3889ZM25.5918 19.3289C25.8122 19.7983 25.9872 20.3092 26.1154 20.863L27.0896 20.6375C26.9468 20.0204 26.7497 19.442 26.497 18.9039L25.5918 19.3289ZM26.3486 22.4928C26.3662 22.7623 26.375 23.0397 26.375 23.325H27.375C27.375 23.0191 27.3655 22.72 27.3465 22.4278L26.3486 22.4928ZM26.375 23.325C26.375 23.671 26.36 24.0096 26.3302 24.3408L27.3262 24.4304C27.3588 24.0684 27.375 23.6999 27.375 23.325H26.375ZM25.95 26.3226C25.852 26.6455 25.7372 26.9606 25.6054 27.268L26.5246 27.662C26.6709 27.3205 26.7984 26.9707 26.9069 26.6129L25.95 26.3226ZM25.6054 27.268C25.4782 27.565 25.3362 27.8508 25.1794 28.1258L26.0482 28.621C26.2239 28.3127 26.3827 27.993 26.5246 27.662L25.6054 27.268ZM24.0473 29.6624C23.8316 29.8934 23.6007 30.1144 23.3546 30.3254L24.0054 31.0846C24.279 30.8501 24.5366 30.6036 24.7782 30.345L24.0473 29.6624ZM23.3492 30.3301C23.0936 30.5556 22.8204 30.7687 22.5293 30.9693L23.0968 31.7927C23.4197 31.5702 23.7244 31.3326 24.0108 31.0799L23.3492 30.3301ZM20.688 31.9713C20.3719 32.1059 20.0416 32.2308 19.6969 32.3457L20.0131 33.2943C20.3821 33.1713 20.7377 33.037 21.0799 32.8913L20.688 31.9713ZM19.7053 32.3429C19.3098 32.467 18.8987 32.5747 18.4718 32.666L18.6808 33.6439C19.1367 33.5465 19.578 33.4309 20.0047 33.2971L19.7053 32.3429ZM15.9268 33.0022C15.508 33.0274 15.0774 33.04 14.635 33.04V34.04C15.0964 34.04 15.547 34.0268 15.9868 34.0004L15.9268 33.0022ZM7.615 32.145L7.16775 33.0395L7.17907 33.045L7.615 32.145ZM2.71 28.455L1.99938 27.7514L1.33518 28.4223L1.96671 29.124L2.71 28.455ZM7.21 23.91L7.95793 23.2462L7.24988 22.4484L6.49938 23.2064L7.21 23.91ZM18.82 26.475L19.4685 27.2362L19.4685 27.2362L18.82 26.475ZM19.315 21.57L18.5341 22.1947L18.542 22.2045L18.5501 22.2141L19.315 21.57ZM16.39 20.355L16.5314 19.365L16.5193 19.3634L16.39 20.355ZM13.285 19.95L13.4143 18.9584L13.4101 18.9579L13.285 19.95ZM5.95 16.935L5.22939 17.6284L5.23619 17.6353L5.95 16.935ZM4.465 6.72L3.55704 6.30094L3.55704 6.30094L4.465 6.72ZM6.76 3.705L6.12429 2.93307L6.11862 2.93774L6.11302 2.94249L6.76 3.705ZM10.45 1.77L10.7483 2.72456L10.7604 2.72061L10.45 1.77ZM21.7 2.175L22.0846 1.25192L22.0846 1.25192L21.7 2.175ZM26.335 5.46L27.0456 6.16361L27.7083 5.49431L27.0798 4.79275L26.335 5.46ZM21.79 10.05L21.0326 10.7029L21.7392 11.5226L22.5006 10.7536L21.79 10.05ZM19.045 7.935L18.5679 8.81385L18.5827 8.82189L18.5978 8.82943L19.045 7.935ZM11.62 7.89L12.2043 8.70153L12.2043 8.70153L11.62 7.89ZM11.35 12.48L10.7059 13.2449L10.7155 13.253L10.7253 13.2609L11.35 12.48ZM14.23 13.515L14.3874 12.5275L14.3871 12.5274L14.23 13.515ZM17.335 14.01L17.1776 14.9975L17.1795 14.9978L17.335 14.01ZM24.535 17.025L23.8419 17.7459L23.8492 17.7528L24.535 17.025ZM26.065 27.465L25.1459 27.0711L26.065 27.465ZM23.68 30.705L23.0292 29.9457L23.0238 29.9504L23.0184 29.9552L23.68 30.705ZM19.855 32.82L20.1543 33.7741L20.1628 33.7715L20.1712 33.7687L19.855 32.82ZM14.635 32.54C14.3415 32.54 14.0536 32.5345 13.7713 32.5236L13.694 34.5221C14.003 34.5341 14.3166 34.54 14.635 34.54V32.54ZM12.0636 32.3831C11.4802 32.3076 10.9255 32.2051 10.3988 32.0764L9.92409 34.0193C10.5274 34.1667 11.1551 34.2822 11.8067 34.3666L12.0636 32.3831ZM8.80709 31.5757C8.54667 31.4733 8.29466 31.3631 8.05093 31.245L7.17907 33.045C7.46994 33.1859 7.76881 33.3165 8.07555 33.4371L8.80709 31.5757ZM8.06221 31.2506C7.84279 31.1409 7.62757 31.0276 7.41653 30.9107L6.44758 32.6603C6.68353 32.791 6.92361 32.9173 7.16779 33.0394L8.06221 31.2506ZM6.17702 30.151C5.77292 29.8774 5.38642 29.5883 5.01734 29.2837L3.74424 30.8262C4.16293 31.1717 4.6002 31.4987 5.05585 31.8072L6.17702 30.151ZM3.94953 28.3106C3.77978 28.1399 3.61437 27.965 3.45329 27.786L1.96671 29.124C2.14991 29.3275 2.33806 29.5264 2.53113 29.7206L3.94953 28.3106ZM3.42062 29.1586L3.98312 28.5905L2.56188 27.1833L1.99938 27.7514L3.42062 29.1586ZM5.10812 27.4542L6.23312 26.318L4.81188 24.9108L3.68688 26.047L5.10812 27.4542ZM7.35812 25.1817L7.92062 24.6136L6.49938 23.2064L5.93688 23.7745L7.35812 25.1817ZM6.46208 24.5738C6.73349 24.8796 7.01356 25.1686 7.30242 25.4406L8.67334 23.9844C8.42971 23.755 8.1912 23.5091 7.95793 23.2462L6.46208 24.5738ZM9.23897 26.924C9.94634 27.3546 10.6915 27.6984 11.4732 27.9543L12.0955 26.0535C11.4612 25.8459 10.8561 25.567 10.2789 25.2156L9.23897 26.924ZM13.872 28.4521C14.27 28.4908 14.6744 28.51 15.085 28.51V26.51C14.7368 26.51 14.3971 26.4937 14.0657 26.4615L13.872 28.4521ZM15.085 28.51C15.461 28.51 15.8221 28.494 16.1675 28.4611L15.9778 26.4701C15.7021 26.4964 15.4048 26.51 15.085 26.51V28.51ZM18.3985 27.9082C18.7914 27.7296 19.1505 27.5071 19.4685 27.2362L18.1715 25.7138C18.0091 25.8521 17.8114 25.9781 17.571 26.0874L18.3985 27.9082ZM19.4685 27.2362C19.724 27.0186 19.9526 26.7787 20.1511 26.5159L18.5555 25.3101C18.4495 25.4503 18.3226 25.5851 18.1715 25.7138L19.4685 27.2362ZM20.95 24.6849C21.0075 24.375 21.035 24.0562 21.035 23.73H19.035C19.035 23.9439 19.017 24.14 18.9836 24.3197L20.95 24.6849ZM21.035 23.73C21.035 23.4862 21.0194 23.2468 20.987 23.0128L19.0059 23.2876C19.0249 23.424 19.035 23.5712 19.035 23.73H21.035ZM20.5206 21.5697C20.3955 21.3407 20.2483 21.1259 20.0799 20.9259L18.5501 22.2141C18.6332 22.3129 18.7047 22.4174 18.7653 22.5283L20.5206 21.5697ZM20.0959 20.9453C19.8528 20.6415 19.5492 20.3943 19.2106 20.1928L18.188 21.9116C18.362 22.0151 18.4688 22.1131 18.5341 22.1947L20.0959 20.9453ZM17.4039 19.5224C17.1286 19.461 16.8376 19.4088 16.5314 19.365L16.2486 21.3449C16.5101 21.3823 16.7498 21.4257 16.9684 21.4745L17.4039 19.5224ZM16.5193 19.3634L15.7431 19.2621L15.4844 21.2453L16.2607 21.3466L16.5193 19.3634ZM14.1906 19.0596L13.4143 18.9584L13.1557 20.9416L13.9319 21.0428L14.1906 19.0596ZM13.4101 18.9579C13.0817 18.9164 12.7633 18.8692 12.455 18.8163L12.1166 20.7875C12.4557 20.8457 12.8035 20.8972 13.1599 20.9421L13.4101 18.9579ZM10.5966 18.3945C9.95648 18.2085 9.37644 17.9913 8.85402 17.745L8.00113 19.554C8.62933 19.8502 9.30926 20.1032 10.0385 20.3151L10.5966 18.3945ZM7.31757 16.8154C7.08079 16.6314 6.86311 16.4378 6.66381 16.2347L5.23619 17.6353C5.50054 17.9048 5.7856 18.1579 6.09065 18.3948L7.31757 16.8154ZM6.67057 16.2416C6.49442 16.0586 6.33038 15.8681 6.17824 15.6702L4.5926 16.8891C4.79032 17.1463 5.00267 17.3927 5.22943 17.6284L6.67057 16.2416ZM5.40121 14.3822C5.19523 13.9354 5.0305 13.4542 4.90872 12.9365L2.96186 13.3944C3.11259 14.0352 3.31971 14.6442 3.58493 15.2195L5.40121 14.3822ZM4.68135 11.3875C4.66385 11.1292 4.655 10.8634 4.655 10.59H2.655C2.655 10.9065 2.66525 11.2174 2.68593 11.5227L4.68135 11.3875ZM4.655 10.59C4.655 10.2821 4.66916 9.98235 4.69713 9.69052L2.70626 9.49964C2.67198 9.85726 2.655 10.2208 2.655 10.59H4.655ZM5.05262 7.9567C5.14374 7.67682 5.25052 7.40434 5.37296 7.13906L3.55704 6.30094C3.40155 6.63784 3.26616 6.98344 3.15087 7.33753L5.05262 7.9567ZM5.37296 7.13906C5.49274 6.87954 5.62456 6.62999 5.76833 6.39018L4.053 5.36177C3.87172 5.66414 3.70642 5.97728 3.55704 6.30094L5.37296 7.13906ZM6.78943 5.04971C6.98229 4.84735 7.18805 4.65326 7.40698 4.46751L6.11302 2.94249C5.84135 3.173 5.58413 3.41545 5.34164 3.66988L6.78943 5.04971ZM7.39571 4.47693C7.6338 4.28085 7.88557 4.096 8.15132 3.92247L7.05783 2.24787C6.73173 2.46081 6.42044 2.68918 6.12429 2.93307L7.39571 4.47693ZM9.83797 3.04926C10.129 2.93154 10.4323 2.82321 10.7483 2.72448L10.1517 0.81552C9.78613 0.929767 9.43147 1.05626 9.08798 1.1952L9.83797 3.04926ZM10.7604 2.72061C11.122 2.60254 11.4982 2.49966 11.8895 2.41227L11.4536 0.460357C11.0026 0.561082 10.5645 0.680653 10.1396 0.819394L10.7604 2.72061ZM14.2418 2.08696C14.6313 2.06238 15.0324 2.05 15.445 2.05V0.0499983C14.9924 0.0499983 14.5493 0.0635813 14.1158 0.0909347L14.2418 2.08696ZM15.445 2.05C15.7032 2.05 15.9574 2.05466 16.2075 2.06394L16.2817 0.0653132C16.0062 0.0550909 15.7273 0.0499983 15.445 0.0499983V2.05ZM17.7179 2.18169C18.2302 2.24394 18.7231 2.32804 19.197 2.43356L19.6317 0.481381C19.0907 0.360909 18.5331 0.266027 17.9591 0.196289L17.7179 2.18169ZM20.6263 2.83606C20.8614 2.91724 21.091 3.0046 21.3154 3.09807L22.0846 1.25192C21.8213 1.1422 21.5528 1.04013 21.2793 0.945647L20.6263 2.83606ZM21.3154 3.09807C21.7285 3.27019 22.1259 3.46144 22.5081 3.6717L23.4722 1.9194C23.0255 1.67366 22.5629 1.45121 22.0846 1.25192L21.3154 3.09807ZM24.6561 5.19276C24.9814 5.48387 25.2928 5.79528 25.5902 6.12725L27.0798 4.79275C26.7342 4.40688 26.3708 4.04331 25.9897 3.70232L24.6561 5.19276ZM25.6244 4.75638L25.0563 5.33013L26.4775 6.73736L27.0456 6.16361L25.6244 4.75638ZM23.92 6.47763L22.7838 7.62513L24.205 9.03236L25.3412 7.88486L23.92 6.47763ZM21.6475 8.77263L21.0794 9.34638L22.5006 10.7536L23.0687 10.1799L21.6475 8.77263ZM22.5474 9.39706C22.3348 9.15044 22.1102 8.91554 21.8737 8.69248L20.5014 10.1474C20.6878 10.3232 20.8648 10.5083 21.0326 10.7029L22.5474 9.39706ZM20.3337 7.51029C20.0631 7.34225 19.7825 7.18572 19.4922 7.04057L18.5978 8.82943C18.8347 8.94786 19.0616 9.07458 19.2788 9.20943L20.3337 7.51029ZM19.5221 7.05614C19.1754 6.86792 18.807 6.70859 18.4188 6.57678L17.7758 8.4706C18.064 8.56843 18.3274 8.68331 18.5679 8.81385L19.5221 7.05614ZM16.1573 6.12538C15.7968 6.09495 15.4242 6.08 15.04 6.08V8.08C15.3725 8.08 15.6888 8.09294 15.9891 8.11829L16.1573 6.12538ZM15.04 6.08C14.7025 6.08 14.3782 6.0922 14.0678 6.11728L14.2289 8.11078C14.4801 8.09048 14.7503 8.08 15.04 8.08V6.08ZM12.0495 6.5404C11.6822 6.68085 11.3415 6.85827 11.0357 7.07846L12.2043 8.70153C12.3517 8.59541 12.5355 8.49581 12.7638 8.40853L12.0495 6.5404ZM11.0357 7.07846C10.7944 7.25217 10.5753 7.44805 10.3825 7.66758L11.8852 8.98738C11.9709 8.88975 12.0759 8.79397 12.2043 8.70153L11.0357 7.07846ZM9.57999 9.28509C9.52215 9.56309 9.495 9.84882 9.495 10.14H11.495C11.495 9.97316 11.5105 9.82476 11.5381 9.69254L9.57999 9.28509ZM9.495 10.14C9.495 10.404 9.50965 10.66 9.54069 10.9069L11.5251 10.6572C11.5056 10.5026 11.495 10.3306 11.495 10.14H9.495ZM10.0832 12.525C10.2531 12.7969 10.4607 13.0385 10.7059 13.2449L11.9941 11.7151C11.9135 11.6472 11.842 11.5655 11.7792 11.4651L10.0832 12.525ZM10.7253 13.2609C10.9783 13.4632 11.2632 13.6364 11.5715 13.7853L12.4414 11.9844C12.2438 11.889 12.0911 11.7923 11.9747 11.6991L10.7253 13.2609ZM13.2505 14.3459C13.5118 14.4048 13.7861 14.4569 14.0729 14.5026L14.3871 12.5274C14.138 12.4878 13.906 12.4435 13.6906 12.3949L13.2505 14.3459ZM14.0726 14.5025L14.8488 14.6263L15.1637 12.6512L14.3874 12.5275L14.0726 14.5025ZM16.4013 14.8738L17.1776 14.9975L17.4924 13.0225L16.7162 12.8987L16.4013 14.8738ZM17.1795 14.9978C17.5008 15.0484 17.8126 15.1039 18.1149 15.1642L18.5064 13.2029C18.1761 13.137 17.8375 13.0768 17.4905 13.0222L17.1795 14.9978ZM19.9363 15.6207C20.5637 15.8145 21.1348 16.0346 21.6514 16.2791L22.507 14.4713C21.8951 14.1817 21.2343 13.9285 20.5267 13.7098L19.9363 15.6207ZM23.1811 17.187C23.42 17.3653 23.64 17.5517 23.8419 17.7458L25.2281 16.3042C24.9638 16.05 24.68 15.8102 24.3776 15.5844L23.1811 17.187ZM23.8492 17.7528C24.0298 17.9229 24.1976 18.1024 24.353 18.2914L25.8978 17.0211C25.6881 16.7662 25.4624 16.5249 25.2208 16.2972L23.8492 17.7528ZM25.1392 19.5414C25.3435 19.9765 25.5074 20.4536 25.6282 20.9757L27.5767 20.5247C27.4266 19.8759 27.2184 19.2639 26.9496 18.6913L25.1392 19.5414ZM25.8497 22.5253C25.8665 22.7834 25.875 23.05 25.875 23.325H27.875C27.875 23.0088 27.8652 22.6988 27.8454 22.3953L25.8497 22.5253ZM25.875 23.325C25.875 23.6566 25.8607 23.9802 25.8322 24.296L27.8242 24.4752C27.8582 24.0978 27.875 23.7143 27.875 23.325H25.875ZM25.4715 26.1775C25.3789 26.4829 25.2703 26.7807 25.1459 27.0711L26.9841 27.8589C27.1378 27.5004 27.2715 27.1334 27.3854 26.758L25.4715 26.1775ZM25.1459 27.0711C25.0259 27.351 24.8923 27.6199 24.7451 27.8782L26.4826 28.8686C26.6678 28.5436 26.835 28.207 26.9841 27.8589L25.1459 27.0711ZM23.6819 29.3211C23.4791 29.5383 23.2616 29.7465 23.0292 29.9457L24.3308 31.4643C24.6181 31.218 24.8892 30.9587 25.1436 30.6862L23.6819 29.3211ZM23.0184 29.9552C22.7782 30.1671 22.5208 30.368 22.2456 30.5576L23.3805 32.2044C23.7193 31.9709 24.0398 31.7211 24.3416 31.4548L23.0184 29.9552ZM20.4921 31.5113C20.189 31.6404 19.8714 31.7605 19.5388 31.8713L20.1712 33.7687C20.5524 33.6416 20.9206 33.5026 21.2758 33.3514L20.4921 31.5113ZM19.5557 31.8659C19.1757 31.9851 18.7797 32.0889 18.3673 32.177L18.7853 34.1328C19.2557 34.0323 19.7122 33.9129 20.1543 33.7741L19.5557 31.8659ZM15.8969 32.5031C15.4885 32.5277 15.0679 32.54 14.635 32.54V34.54C15.1059 34.54 15.5665 34.5266 16.0167 34.4995L15.8969 32.5031ZM39.4761 32.505L39.289 32.9687L39.289 32.9687L39.4761 32.505ZM35.1111 29.445L34.7337 29.7731L34.7374 29.7772L35.1111 29.445ZM32.3211 24.36L31.8453 24.5139L31.846 24.516L32.3211 24.36ZM32.3211 10.275L32.7961 10.431L32.7968 10.4289L32.3211 10.275ZM35.1111 5.19L35.4848 5.5222L35.4884 5.51809L35.1111 5.19ZM39.4761 2.085L39.289 1.62132L39.289 1.62132L39.4761 2.085ZM50.8161 2.085L50.629 2.54867L50.629 2.54867L50.8161 2.085ZM55.1811 5.19L54.8037 5.51811L54.8074 5.52218L55.1811 5.19ZM57.9711 10.275L57.4953 10.4289L57.496 10.431L57.9711 10.275ZM57.9711 24.36L58.4461 24.516L58.4468 24.5139L57.9711 24.36ZM55.1811 29.445L55.5548 29.7772L55.5584 29.7731L55.1811 29.445ZM50.8161 32.505L50.629 32.0413L50.629 32.0413L50.8161 32.505ZM49.9611 25.44L49.5832 25.1125L49.579 25.1174L49.9611 25.44ZM49.9611 9.15L49.579 9.47262L49.5832 9.47746L49.9611 9.15ZM40.2861 9.15L39.9082 8.82251L39.904 8.82741L40.2861 9.15ZM40.2861 25.44L39.904 25.7626L39.9082 25.7675L40.2861 25.44ZM45.1461 33.04C44.6663 33.04 44.1973 33.021 43.7389 32.983L43.6564 33.9796C44.1432 34.0199 44.6398 34.04 45.1461 34.04V33.04ZM40.9835 32.4924C40.5312 32.3644 40.0911 32.214 39.6632 32.0413L39.289 32.9687C39.7508 33.155 40.2249 33.317 40.7112 33.4546L40.9835 32.4924ZM39.6632 32.0413C39.2585 31.8781 38.8694 31.6958 38.4957 31.4947L38.0218 32.3753C38.4287 32.5942 38.8511 32.792 39.289 32.9687L39.6632 32.0413ZM36.393 30.0237C36.0753 29.7401 35.7725 29.4366 35.4848 29.1128L34.7374 29.7772C35.0503 30.1293 35.3803 30.4602 35.7272 30.7698L36.393 30.0237ZM35.4884 29.1169C35.1855 28.7686 34.9002 28.399 34.6324 28.0077L33.8071 28.5725C34.0962 28.9948 34.405 29.395 34.7338 29.7731L35.4884 29.1169ZM33.2926 25.5324C33.1129 25.1074 32.9474 24.6647 32.7961 24.204L31.846 24.516C32.0055 25.0016 32.1806 25.4703 32.3715 25.9218L33.2926 25.5324ZM32.7968 24.2061C32.7088 23.9342 32.6268 23.6562 32.5507 23.3722L31.5848 23.6308C31.6651 23.9309 31.752 24.2253 31.8453 24.5139L32.7968 24.2061ZM32.1787 21.6675C32.0824 21.1088 32.006 20.5299 31.9496 19.9307L30.954 20.0244C31.0127 20.6477 31.0924 21.252 31.1933 21.8374L32.1787 21.6675ZM31.8436 18.1761C31.8352 17.8866 31.8311 17.5929 31.8311 17.295H30.8311C30.8311 17.6022 30.8354 17.9055 30.844 18.2048L31.8436 18.1761ZM31.8311 17.295C31.8311 16.9988 31.8352 16.7069 31.8434 16.4193L30.8438 16.3907C30.8353 16.6881 30.8311 16.9895 30.8311 17.295H31.8311ZM31.9486 14.6758C32.0047 14.0794 32.0808 13.5043 32.1767 12.9503L31.1914 12.7797C31.0908 13.3607 31.0114 13.9615 30.953 14.5821L31.9486 14.6758ZM32.5489 11.258C32.6253 10.9758 32.7077 10.7002 32.7961 10.431L31.846 10.119C31.752 10.4054 31.6645 10.698 31.5837 10.9967L32.5489 11.258ZM32.7968 10.4289C32.9465 9.96602 33.1102 9.52241 33.2877 9.09793L32.3652 8.71213C32.1764 9.16349 32.0032 9.63319 31.8453 10.1211L32.7968 10.4289ZM34.6233 6.62304C34.8928 6.23197 35.1799 5.8651 35.4848 5.52218L34.7374 4.85782C34.4044 5.2324 34.0919 5.63177 33.7998 6.05566L34.6233 6.62304ZM35.4884 5.51809C35.7747 5.18881 36.0758 4.88048 36.3916 4.59293L35.7184 3.85349C35.3733 4.16768 35.0451 4.50387 34.7338 4.86191L35.4884 5.51809ZM38.4923 3.09988C38.8671 2.8962 39.2573 2.71244 39.6632 2.54867L39.289 1.62132C38.8486 1.79902 38.4238 1.99896 38.0148 2.22124L38.4923 3.09988ZM39.6632 2.54867C40.0911 2.37598 40.5312 2.22559 40.9835 2.09758L40.7112 1.13538C40.2249 1.27301 39.7508 1.43497 39.289 1.62132L39.6632 2.54867ZM43.7389 1.607C44.1973 1.56904 44.6663 1.55 45.1461 1.55V0.549998C44.6398 0.549998 44.1432 0.570093 43.6564 0.610413L43.7389 1.607ZM45.1461 1.55C45.6258 1.55 46.0948 1.56904 46.5532 1.607L46.6357 0.610413C46.1489 0.570093 45.6523 0.549998 45.1461 0.549998V1.55ZM49.3086 2.09758C49.7609 2.22559 50.201 2.37598 50.629 2.54867L51.0032 1.62132C50.5413 1.43497 50.0672 1.27301 49.5809 1.13538L49.3086 2.09758ZM50.629 2.54867C51.0348 2.71244 51.425 2.8962 51.7998 3.09988L52.2773 2.22124C51.8683 1.99896 51.4435 1.79902 51.0032 1.62132L50.629 2.54867ZM53.9005 4.59293C54.2163 4.88048 54.5174 5.18881 54.8038 5.51809L55.5584 4.86191C55.247 4.50387 54.9188 4.16768 54.5737 3.85349L53.9005 4.59293ZM54.8074 5.52218C55.1122 5.8651 55.3993 6.23197 55.6688 6.62304L56.4923 6.05566C56.2002 5.63177 55.8877 5.2324 55.5548 4.85782L54.8074 5.52218ZM57.0044 9.09793C57.1819 9.52241 57.3456 9.96602 57.4953 10.4289L58.4468 10.1211C58.2889 9.63319 58.1157 9.16349 57.9269 8.71213L57.0044 9.09793ZM57.496 10.431C57.5844 10.7002 57.6668 10.9758 57.7432 11.258L58.7084 10.9967C58.6276 10.698 58.5402 10.4054 58.4461 10.119L57.496 10.431ZM58.1154 12.9503C58.2113 13.5043 58.2874 14.0794 58.3435 14.6758L59.3391 14.5821C59.2807 13.9615 59.2013 13.3607 59.1007 12.7797L58.1154 12.9503ZM58.4487 16.4193C58.4569 16.7069 58.4611 16.9988 58.4611 17.295H59.4611C59.4611 16.9895 59.4568 16.6881 59.4483 16.3907L58.4487 16.4193ZM58.4611 17.295C58.4611 17.5929 58.4569 17.8866 58.4486 18.1761L59.4481 18.2048C59.4568 17.9055 59.4611 17.6022 59.4611 17.295H58.4611ZM58.3425 19.9307C58.2861 20.5299 58.2097 21.1088 58.1134 21.6675L59.0988 21.8374C59.1997 21.252 59.2794 20.6477 59.3381 20.0244L58.3425 19.9307ZM57.7414 23.3722C57.6653 23.6562 57.5833 23.9342 57.4953 24.2061L58.4468 24.5139C58.5401 24.2253 58.627 23.9309 58.7074 23.6308L57.7414 23.3722ZM57.496 24.204C57.3447 24.6647 57.1792 25.1074 56.9996 25.5324L57.9206 25.9218C58.1115 25.4703 58.2866 25.0016 58.4461 24.516L57.496 24.204ZM55.6597 28.0077C55.3919 28.399 55.1066 28.7686 54.8038 29.1169L55.5584 29.7731C55.8871 29.395 56.1959 28.9948 56.485 28.5725L55.6597 28.0077ZM54.8074 29.1128C54.5196 29.4366 54.2168 29.7401 53.8991 30.0237L54.5649 30.7698C54.9118 30.4602 55.2418 30.1293 55.5548 29.7772L54.8074 29.1128ZM51.7964 31.4947C51.4227 31.6958 51.0336 31.8781 50.629 32.0413L51.0032 32.9687C51.441 32.792 51.8634 32.5942 52.2703 32.3753L51.7964 31.4947ZM50.629 32.0413C50.201 32.214 49.7609 32.3644 49.3086 32.4924L49.5809 33.4546C50.0672 33.317 50.5413 33.155 51.0032 32.9687L50.629 32.0413ZM46.5532 32.983C46.0948 33.021 45.6258 33.04 45.1461 33.04V34.04C45.6523 34.04 46.1489 34.0199 46.6357 33.9796L46.5532 32.983ZM45.1461 26.965C44.6957 26.965 44.2717 26.9313 43.8734 26.865L43.7093 27.8515C44.1667 27.9275 44.6458 27.965 45.1461 27.965V26.965ZM41.5783 25.9477C41.2474 25.712 40.9426 25.4341 40.6639 25.1125L39.9082 25.7675C40.237 26.1468 40.6004 26.4789 40.9983 26.7622L41.5783 25.9477ZM40.6681 25.1174C40.5179 24.9396 40.3781 24.7501 40.2488 24.5488L39.4074 25.0892C39.5597 25.3263 39.7252 25.5508 39.904 25.7626L40.6681 25.1174ZM39.6234 23.2646C39.4682 22.8332 39.345 22.3636 39.2552 21.8545L38.2704 22.0284C38.3691 22.5876 38.506 23.1129 38.6824 23.6031L39.6234 23.2646ZM39.0942 20.3824C39.0821 20.1401 39.0761 19.891 39.0761 19.635H38.0761C38.0761 19.9067 38.0825 20.1724 38.0954 20.4321L39.0942 20.3824ZM39.0761 19.635V18.465H38.0761V19.635H39.0761ZM39.0761 16.125V14.955H38.0761V16.125H39.0761ZM39.0761 14.955C39.0761 14.699 39.0821 14.4499 39.0942 14.2076L38.0954 14.1579C38.0825 14.4176 38.0761 14.6833 38.0761 14.955H39.0761ZM39.2552 12.7355C39.345 12.2264 39.4682 11.7568 39.6234 11.3254L38.6824 10.9869C38.506 11.4771 38.3691 12.0024 38.2704 12.5616L39.2552 12.7355ZM40.2488 10.0412C40.3781 9.83989 40.5179 9.65044 40.6681 9.47259L39.904 8.82741C39.7252 9.03918 39.5597 9.26371 39.4074 9.50077L40.2488 10.0412ZM40.6639 9.47746C40.9426 9.15588 41.2474 8.87796 41.5783 8.64233L40.9983 7.82775C40.6004 8.1111 40.237 8.44316 39.9082 8.82253L40.6639 9.47746ZM43.8734 7.72498C44.2717 7.65872 44.6957 7.625 45.1461 7.625V6.625C44.6458 6.625 44.1667 6.66245 43.7093 6.73854L43.8734 7.72498ZM45.1461 7.625C45.594 7.625 46.015 7.65836 46.4097 7.72387L46.5734 6.73736C46.1196 6.66204 45.6436 6.625 45.1461 6.625V7.625ZM48.682 8.63721C49.0082 8.87269 49.3072 9.15066 49.579 9.47259L50.3431 8.82741C50.0205 8.44547 49.662 8.11132 49.2674 7.82643L48.682 8.63721ZM49.5832 9.47746C49.7365 9.65432 49.8791 9.84256 50.0111 10.0424L50.8456 9.49137C50.6901 9.25588 50.5212 9.03287 50.3389 8.82253L49.5832 9.47746ZM50.6523 11.3221C50.812 11.7532 50.9388 12.2227 51.0314 12.7317L52.0152 12.5528C51.9133 11.9923 51.772 11.4659 51.59 10.9747L50.6523 11.3221ZM51.1974 14.206C51.2098 14.4488 51.2161 14.6985 51.2161 14.955H52.2161C52.2161 14.6822 52.2094 14.4155 52.196 14.1548L51.1974 14.206ZM51.2161 14.955V16.125H52.2161V14.955H51.2161ZM51.2161 18.465V19.635H52.2161V18.465H51.2161ZM51.2161 19.635C51.2161 19.8915 51.2098 20.1412 51.1974 20.384L52.196 20.4352C52.2094 20.1745 52.2161 19.9078 52.2161 19.635H51.2161ZM51.0314 21.8583C50.9388 22.3673 50.812 22.8368 50.6523 23.2679L51.59 23.6153C51.772 23.1241 51.9133 22.5977 52.0152 22.0372L51.0314 21.8583ZM50.0111 24.5476C49.8791 24.7474 49.7365 24.9357 49.5832 25.1125L50.3389 25.7675C50.5212 25.5571 50.6901 25.3341 50.8456 25.0986L50.0111 24.5476ZM49.579 25.1174C49.3072 25.4393 49.0082 25.7173 48.682 25.9528L49.2674 26.7636C49.662 26.4787 50.0205 26.1445 50.3431 25.7626L49.579 25.1174ZM46.4097 26.8661C46.015 26.9316 45.594 26.965 45.1461 26.965V27.965C45.6436 27.965 46.1196 27.928 46.5734 27.8526L46.4097 26.8661ZM39.4761 32.505L39.1019 33.4324L39.1019 33.4324L39.4761 32.505ZM35.1111 29.445L34.3564 30.1012L34.3636 30.1094L35.1111 29.445ZM32.3211 24.36L31.3696 24.6678L31.371 24.672L32.3211 24.36ZM32.3211 10.275L33.2712 10.587L33.2725 10.5828L32.3211 10.275ZM35.1111 5.19L35.8585 5.8544L35.8657 5.84618L35.1111 5.19ZM39.4761 2.085L39.1019 1.15765L39.1019 1.15765L39.4761 2.085ZM50.8161 2.085L50.4419 3.01235L50.4419 3.01235L50.8161 2.085ZM55.1811 5.19L54.4264 5.84622L54.4336 5.85436L55.1811 5.19ZM57.9711 10.275L57.0196 10.5828L57.021 10.587L57.9711 10.275ZM57.9711 24.36L58.9212 24.672L58.9225 24.6678L57.9711 24.36ZM55.1811 29.445L55.9285 30.1094L55.9357 30.1012L55.1811 29.445ZM50.8161 32.505L50.4419 31.5776L50.4419 31.5776L50.8161 32.505ZM49.9611 25.44L49.2053 24.785L49.197 24.7948L49.9611 25.44ZM49.9611 9.15L49.197 9.79523L49.2054 9.80493L49.9611 9.15ZM40.2861 9.15L39.5303 8.49501L39.522 8.50482L40.2861 9.15ZM40.2861 25.44L39.522 26.0852L39.5304 26.0949L40.2861 25.44ZM45.1461 32.54C44.6795 32.54 44.2243 32.5215 43.7802 32.4847L43.6151 34.4779C44.1162 34.5194 44.6266 34.54 45.1461 34.54V32.54ZM41.1197 32.0113C40.6844 31.8881 40.2613 31.7435 39.8502 31.5776L39.1019 33.4324C39.5806 33.6255 40.0718 33.7933 40.575 33.9357L41.1197 32.0113ZM39.8502 31.5776C39.4622 31.4211 39.0898 31.2466 38.7326 31.0544L37.7849 32.8156C38.2083 33.0435 38.6474 33.249 39.1019 33.4324L39.8502 31.5776ZM36.7259 29.6506C36.4228 29.3801 36.1336 29.0902 35.8585 28.7806L34.3636 30.1094C34.6892 30.4756 35.0328 30.8202 35.3943 31.1428L36.7259 29.6506ZM35.8657 28.7888C35.5758 28.4554 35.3022 28.101 35.045 27.7253L33.3945 28.8548C33.6942 29.2927 34.0148 29.7082 34.3564 30.1012L35.8657 28.7888ZM33.7531 25.3377C33.579 24.926 33.4183 24.4962 33.2711 24.048L31.371 24.672C31.5345 25.1701 31.7145 25.6517 31.911 26.1165L33.7531 25.3377ZM33.2725 24.0522C33.1872 23.7886 33.1076 23.5189 33.0337 23.2428L31.1018 23.7601C31.1843 24.0683 31.2735 24.3709 31.3696 24.6678L33.2725 24.0522ZM32.6715 21.5826C32.5775 21.0372 32.5027 20.471 32.4474 19.8839L30.4562 20.0712C30.516 20.7065 30.5974 21.3236 30.7005 21.9223L32.6715 21.5826ZM32.3434 18.1617C32.3352 17.8771 32.3311 17.5882 32.3311 17.295H30.3311C30.3311 17.6069 30.3354 17.9149 30.3442 18.2192L32.3434 18.1617ZM32.3311 17.295C32.3311 17.0034 32.3351 16.7163 32.3432 16.4337L30.344 16.3764C30.3354 16.6787 30.3311 16.9849 30.3311 17.295H32.3311ZM32.4464 14.7226C32.5014 14.1383 32.5758 13.5761 32.6694 13.0356L30.6987 12.6944C30.5958 13.2889 30.5147 13.9026 30.4552 14.5353L32.4464 14.7226ZM33.0316 11.3886C33.1057 11.1148 33.1856 10.8476 33.2711 10.587L31.371 9.96303C31.2741 10.2581 31.1841 10.5591 31.101 10.8661L33.0316 11.3886ZM33.2725 10.5828C33.4182 10.1324 33.5771 9.70187 33.749 9.29083L31.9039 8.51922C31.7095 8.98403 31.5315 9.46678 31.3696 9.96718L33.2725 10.5828ZM35.035 6.90672C35.2932 6.53206 35.5677 6.18145 35.8585 5.85436L34.3636 4.52563C34.0166 4.91606 33.6915 5.33168 33.3881 5.77198L35.035 6.90672ZM35.8657 5.84618C36.1395 5.53127 36.427 5.23688 36.7282 4.96265L35.3818 3.48377C35.022 3.81128 34.6803 4.16141 34.3564 4.53382L35.8657 5.84618ZM38.731 3.53919C39.0887 3.34482 39.4617 3.16915 39.8502 3.01235L39.1019 1.15765C38.6442 1.34231 38.2022 1.55034 37.776 1.78193L38.731 3.53919ZM39.8502 3.01235C40.2613 2.84648 40.6844 2.70189 41.1197 2.57869L40.575 0.654276C40.0718 0.796712 39.5806 0.964461 39.1019 1.15765L39.8502 3.01235ZM43.7802 2.10529C44.2243 2.06852 44.6795 2.05 45.1461 2.05V0.0499983C44.6266 0.0499983 44.1162 0.0706184 43.6151 0.112119L43.7802 2.10529ZM45.1461 2.05C45.6126 2.05 46.0678 2.06852 46.5119 2.10529L46.677 0.112119C46.1759 0.0706184 45.6655 0.0499983 45.1461 0.0499983V2.05ZM49.1724 2.57869C49.6077 2.70189 50.0308 2.84648 50.4419 3.01235L51.1902 1.15765C50.7115 0.964461 50.2203 0.796712 49.7171 0.654276L49.1724 2.57869ZM50.4419 3.01235C50.8305 3.16915 51.2034 3.34482 51.5611 3.53919L52.5161 1.78193C52.0899 1.55034 51.6479 1.34231 51.1902 1.15765L50.4419 3.01235ZM53.5639 4.96265C53.8651 5.23688 54.1526 5.53127 54.4265 5.84618L55.9357 4.53382C55.6118 4.16141 55.2701 3.81128 54.9103 3.48377L53.5639 4.96265ZM54.4336 5.85436C54.7244 6.18145 54.9989 6.53206 55.2571 6.90672L56.904 5.77198C56.6006 5.33168 56.2755 4.91606 55.9285 4.52564L54.4336 5.85436ZM56.5431 9.29083C56.715 9.70187 56.8739 10.1324 57.0196 10.5828L58.9225 9.96718C58.7606 9.46678 58.5826 8.98403 58.3882 8.51922L56.5431 9.29083ZM57.021 10.587C57.1065 10.8476 57.1864 11.1148 57.2605 11.3886L59.1911 10.8661C59.108 10.5591 59.018 10.2581 58.9211 9.96303L57.021 10.587ZM57.6227 13.0356C57.7163 13.5761 57.7907 14.1383 57.8457 14.7226L59.8369 14.5353C59.7774 13.9026 59.6963 13.2889 59.5934 12.6944L57.6227 13.0356ZM57.9489 16.4337C57.957 16.7163 57.9611 17.0034 57.9611 17.295H59.9611C59.9611 16.9849 59.9567 16.6787 59.9481 16.3764L57.9489 16.4337ZM57.9611 17.295C57.9611 17.5882 57.957 17.8771 57.9488 18.1617L59.9479 18.2192C59.9567 17.9149 59.9611 17.6069 59.9611 17.295H57.9611ZM57.8447 19.8839C57.7894 20.471 57.7146 21.0372 57.6206 21.5826L59.5916 21.9223C59.6948 21.3236 59.7761 20.7065 59.8359 20.0712L57.8447 19.8839ZM57.2584 23.2428C57.1845 23.5189 57.1049 23.7886 57.0196 24.0522L58.9225 24.6678C59.0186 24.3709 59.1078 24.0683 59.1903 23.7601L57.2584 23.2428ZM57.021 24.048C56.8738 24.4962 56.7131 24.926 56.539 25.3377L58.3811 26.1165C58.5777 25.6517 58.7576 25.1701 58.9211 24.672L57.021 24.048ZM55.2471 27.7253C54.9899 28.101 54.7164 28.4554 54.4265 28.7888L55.9357 30.1012C56.2773 29.7082 56.598 29.2927 56.8976 28.8548L55.2471 27.7253ZM54.4336 28.7806C54.1585 29.0902 53.8693 29.3801 53.5662 29.6506L54.8978 31.1428C55.2593 30.8202 55.6029 30.4756 55.9285 30.1094L54.4336 28.7806ZM51.5595 31.0544C51.2023 31.2466 50.8299 31.4211 50.4419 31.5776L51.1902 33.4324C51.6447 33.249 52.0838 33.0435 52.5072 32.8156L51.5595 31.0544ZM50.4419 31.5776C50.0308 31.7435 49.6077 31.8881 49.1724 32.0113L49.7171 33.9357C50.2203 33.7933 50.7115 33.6255 51.1902 33.4324L50.4419 31.5776ZM46.5119 32.4847C46.0678 32.5215 45.6126 32.54 45.1461 32.54V34.54C45.6655 34.54 46.1759 34.5194 46.677 34.4779L46.5119 32.4847ZM45.1461 26.465C44.7206 26.465 44.3242 26.4331 43.9554 26.3718L43.6272 28.3447C44.1142 28.4257 44.6209 28.465 45.1461 28.465V26.465ZM41.8683 25.5404C41.5709 25.3286 41.2954 25.0778 41.0417 24.7851L39.5304 26.0949C39.8842 26.5032 40.2768 26.8623 40.7082 27.1695L41.8683 25.5404ZM41.0501 24.7948C40.9142 24.6339 40.7873 24.462 40.6695 24.2786L38.9867 25.3594C39.1505 25.6144 39.3289 25.8565 39.522 26.0852L41.0501 24.7948ZM40.0938 23.0953C39.9493 22.6934 39.833 22.2516 39.7475 21.7676L37.778 22.1154C37.8812 22.6996 38.025 23.2527 38.2119 23.7723L40.0938 23.0953ZM39.5936 20.3575C39.5819 20.1239 39.5761 19.8831 39.5761 19.635H37.5761C37.5761 19.9146 37.5827 20.1886 37.596 20.457L39.5936 20.3575ZM39.5761 19.635V18.465H37.5761V19.635H39.5761ZM39.5761 16.125V14.955H37.5761V16.125H39.5761ZM39.5761 14.955C39.5761 14.7069 39.5819 14.4661 39.5936 14.2324L37.596 14.133C37.5827 14.4014 37.5761 14.6754 37.5761 14.955H39.5761ZM39.7475 12.8224C39.833 12.3384 39.9493 11.8966 40.0938 11.4947L38.2119 10.8177C38.025 11.3373 37.8812 11.8904 37.778 12.4746L39.7475 12.8224ZM40.6695 10.3114C40.7873 10.128 40.9142 9.95607 41.0501 9.79518L39.522 8.50482C39.3289 8.73354 39.1505 8.97562 38.9867 9.23057L40.6695 10.3114ZM41.0417 9.80493C41.2954 9.51224 41.5709 9.26139 41.8683 9.04962L40.7082 7.42046C40.2768 7.72767 39.8842 8.08679 39.5304 8.49507L41.0417 9.80493ZM43.9554 8.21821C44.3242 8.15686 44.7206 8.125 45.1461 8.125V6.125C44.6209 6.125 44.1142 6.16431 43.6272 6.24532L43.9554 8.21821ZM45.1461 8.125C45.5693 8.125 45.9627 8.15652 46.3278 8.21712L46.6553 6.24411C46.1719 6.16388 45.6683 6.125 45.1461 6.125V8.125ZM48.3893 9.0426C48.6813 9.25337 48.9505 9.50326 49.197 9.79518L50.7251 8.50482C50.3772 8.09287 49.9889 7.73064 49.56 7.42104L48.3893 9.0426ZM49.2054 9.80493C49.3441 9.96505 49.4736 10.1359 49.5938 10.3179L51.2628 9.21585C51.0955 8.96254 50.9135 8.72214 50.7167 8.49507L49.2054 9.80493ZM50.1835 11.4958C50.332 11.8969 50.4515 12.3379 50.5394 12.8212L52.5072 12.4633C52.4005 11.8771 52.252 11.3223 52.0589 10.8011L50.1835 11.4958ZM50.698 14.2316C50.71 14.4655 50.7161 14.7066 50.7161 14.955H52.7161C52.7161 14.6741 52.7092 14.3988 52.6954 14.1292L50.698 14.2316ZM50.7161 14.955V16.125H52.7161V14.955H50.7161ZM50.7161 18.465V19.635H52.7161V18.465H50.7161ZM50.7161 19.635C50.7161 19.8834 50.71 20.1245 50.698 20.3584L52.6954 20.4608C52.7092 20.1911 52.7161 19.9159 52.7161 19.635H50.7161ZM50.5394 21.7688C50.4515 22.2521 50.332 22.6931 50.1835 23.0942L52.0589 23.7889C52.252 23.2677 52.4005 22.7129 52.5072 22.1267L50.5394 21.7688ZM49.5938 24.2721C49.4736 24.4541 49.3441 24.6249 49.2054 24.7851L50.7167 26.0949C50.9135 25.8679 51.0955 25.6275 51.2628 25.3741L49.5938 24.2721ZM49.197 24.7948C48.9505 25.0867 48.6813 25.3366 48.3893 25.5474L49.56 27.169C49.9889 26.8594 50.3772 26.4971 50.7251 26.0852L49.197 24.7948ZM46.3278 26.3729C45.9627 26.4335 45.5693 26.465 45.1461 26.465V28.465C45.6683 28.465 46.1719 28.4261 46.6553 28.3459L46.3278 26.3729ZM64.6701 33H64.1701V33.5H64.6701V33ZM64.6701 1.59V1.09H64.1701V1.59H64.6701ZM71.5101 1.59H72.0101V1.09H71.5101V1.59ZM71.5101 26.925H71.0101V27.425H71.5101V26.925ZM83.4801 26.925H83.9801V26.425H83.4801V26.925ZM83.4801 33V33.5H83.9801V33H83.4801ZM65.1701 33V32.0184H64.1701V33H65.1701ZM65.1701 30.0553V28.0922H64.1701V30.0553H65.1701ZM65.1701 26.1291V24.1659H64.1701V26.1291H65.1701ZM65.1701 22.2028V20.2397H64.1701V22.2028H65.1701ZM65.1701 18.2766V16.3134H64.1701V18.2766H65.1701ZM65.1701 14.3503V12.3872H64.1701V14.3503H65.1701ZM65.1701 10.4241V8.46094H64.1701V10.4241H65.1701ZM65.1701 6.49781V4.53469H64.1701V6.49781H65.1701ZM65.1701 2.57156V1.59H64.1701V2.57156H65.1701ZM64.6701 2.09H65.5251V1.09H64.6701V2.09ZM67.2351 2.09H68.9451V1.09H67.2351V2.09ZM70.6551 2.09H71.5101V1.09H70.6551V2.09ZM71.0101 1.59V2.64562H72.0101V1.59H71.0101ZM71.0101 4.75687V6.86813H72.0101V4.75687H71.0101ZM71.0101 8.97937V11.0906H72.0101V8.97937H71.0101ZM71.0101 13.2019V15.3131H72.0101V13.2019H71.0101ZM71.0101 17.4244V19.5356H72.0101V17.4244H71.0101ZM71.0101 21.6469V23.7581H72.0101V21.6469H71.0101ZM71.0101 25.8694V26.925H72.0101V25.8694H71.0101ZM71.5101 27.425H72.5076V26.425H71.5101V27.425ZM74.5026 27.425H76.4976V26.425H74.5026V27.425ZM78.4926 27.425H80.4876V26.425H78.4926V27.425ZM82.4826 27.425H83.4801V26.425H82.4826V27.425ZM82.9801 26.925V27.6844H83.9801V26.925H82.9801ZM82.9801 29.2031V30.7219H83.9801V29.2031H82.9801ZM82.9801 32.2406V33H83.9801V32.2406H82.9801ZM83.4801 32.5H82.5396V33.5H83.4801V32.5ZM80.6586 32.5H78.7776V33.5H80.6586V32.5ZM76.8966 32.5H75.0156V33.5H76.8966V32.5ZM73.1346 32.5H71.2536V33.5H73.1346V32.5ZM69.3726 32.5H67.4916V33.5H69.3726V32.5ZM65.6106 32.5H64.6701V33.5H65.6106V32.5ZM64.6701 33H63.6701V34H64.6701V33ZM64.6701 1.59V0.589999H63.6701V1.59H64.6701ZM71.5101 1.59H72.5101V0.589999H71.5101V1.59ZM71.5101 26.925H70.5101V27.925H71.5101V26.925ZM83.4801 26.925H84.4801V25.925H83.4801V26.925ZM83.4801 33V34H84.4801V33H83.4801ZM65.6701 33V32.0184H63.6701V33H65.6701ZM65.6701 30.0553V28.0922H63.6701V30.0553H65.6701ZM65.6701 26.1291V24.1659H63.6701V26.1291H65.6701ZM65.6701 22.2028V20.2397H63.6701V22.2028H65.6701ZM65.6701 18.2766V16.3134H63.6701V18.2766H65.6701ZM65.6701 14.3503V12.3872H63.6701V14.3503H65.6701ZM65.6701 10.4241V8.46094H63.6701V10.4241H65.6701ZM65.6701 6.49781V4.53469H63.6701V6.49781H65.6701ZM65.6701 2.57156V1.59H63.6701V2.57156H65.6701ZM64.6701 2.59H65.5251V0.589999H64.6701V2.59ZM67.2351 2.59H68.9451V0.589999H67.2351V2.59ZM70.6551 2.59H71.5101V0.589999H70.6551V2.59ZM70.5101 1.59V2.64562H72.5101V1.59H70.5101ZM70.5101 4.75687V6.86813H72.5101V4.75687H70.5101ZM70.5101 8.97937V11.0906H72.5101V8.97937H70.5101ZM70.5101 13.2019V15.3131H72.5101V13.2019H70.5101ZM70.5101 17.4244V19.5356H72.5101V17.4244H70.5101ZM70.5101 21.6469V23.7581H72.5101V21.6469H70.5101ZM70.5101 25.8694V26.925H72.5101V25.8694H70.5101ZM71.5101 27.925H72.5076V25.925H71.5101V27.925ZM74.5026 27.925H76.4976V25.925H74.5026V27.925ZM78.4926 27.925H80.4876V25.925H78.4926V27.925ZM82.4826 27.925H83.4801V25.925H82.4826V27.925ZM82.4801 26.925V27.6844H84.4801V26.925H82.4801ZM82.4801 29.2031V30.7219H84.4801V29.2031H82.4801ZM82.4801 32.2406V33H84.4801V32.2406H82.4801ZM83.4801 32H82.5396V34H83.4801V32ZM80.6586 32H78.7776V34H80.6586V32ZM76.8966 32H75.0156V34H76.8966V32ZM73.1346 32H71.2536V34H73.1346V32ZM69.3726 32H67.4916V34H69.3726V32ZM65.6106 32H64.6701V34H65.6106V32ZM11.755 78L11.2791 78.1534L11.3908 78.5H11.755V78ZM1.63 46.59V46.09H0.94349L1.15411 46.7434L1.63 46.59ZM8.56 46.59L9.03752 46.4418L8.92832 46.09H8.56V46.59ZM13.24 61.665L13.7249 61.5432L13.7216 61.5299L13.7175 61.5168L13.24 61.665ZM15.715 71.52L15.2301 71.6418L15.325 72.02H15.715V71.52ZM15.85 71.52V72.02H16.2434L16.336 71.6376L15.85 71.52ZM18.235 61.665L17.7575 61.5168L17.7528 61.5319L17.749 61.5474L18.235 61.665ZM22.915 46.59V46.09H22.5467L22.4375 46.4418L22.915 46.59ZM29.62 46.59L30.0955 46.7446L30.3084 46.09H29.62V46.59ZM19.405 78V78.5H19.7682L19.8805 78.1546L19.405 78ZM12.2309 77.8466L11.9145 76.865L10.9627 77.1718L11.2791 78.1534L12.2309 77.8466ZM11.2817 74.9019L10.6489 72.9388L9.69708 73.2456L10.3299 75.2087L11.2817 74.9019ZM10.016 70.9757L9.38323 69.0125L8.43146 69.3193L9.06427 71.2825L10.016 70.9757ZM8.75042 67.0494L8.11761 65.0863L7.16583 65.3931L7.79865 67.3562L8.75042 67.0494ZM7.48479 63.1232L6.85198 61.16L5.90021 61.4668L6.53302 63.43L7.48479 63.1232ZM6.21917 59.1969L5.58635 57.2338L4.63458 57.5406L5.26739 59.5037L6.21917 59.1969ZM4.95354 55.2707L4.32073 53.3075L3.36896 53.6143L4.00177 55.5775L4.95354 55.2707ZM3.68792 51.3444L3.0551 49.3813L2.10333 49.6881L2.73614 51.6512L3.68792 51.3444ZM2.42229 47.4182L2.10589 46.4366L1.15411 46.7434L1.47052 47.725L2.42229 47.4182ZM1.63 47.09H2.49625V46.09H1.63V47.09ZM4.22875 47.09H5.96125V46.09H4.22875V47.09ZM7.69375 47.09H8.56V46.09H7.69375V47.09ZM8.08248 46.7382L8.37498 47.6804L9.33002 47.3839L9.03752 46.4418L8.08248 46.7382ZM8.95998 49.5648L9.54498 51.4492L10.5 51.1527L9.91502 49.2683L8.95998 49.5648ZM10.13 53.3336L10.715 55.2179L11.67 54.9214L11.085 53.0371L10.13 53.3336ZM11.3 57.1023L11.885 58.9867L12.84 58.6902L12.255 56.8058L11.3 57.1023ZM12.47 60.8711L12.7625 61.8132L13.7175 61.5168L13.425 60.5746L12.47 60.8711ZM12.7551 61.7868L12.9613 62.608L13.9312 62.3645L13.7249 61.5432L12.7551 61.7868ZM13.3738 64.2505L13.7863 65.893L14.7562 65.6495L14.3437 64.007L13.3738 64.2505ZM14.1988 67.5355L14.6113 69.178L15.5812 68.9345L15.1687 67.292L14.1988 67.5355ZM15.0238 70.8205L15.2301 71.6418L16.1999 71.3982L15.9937 70.577L15.0238 70.8205ZM15.715 72.02H15.7488V71.02H15.715V72.02ZM15.8163 72.02H15.85V71.02H15.8163V72.02ZM16.336 71.6376L16.5347 70.8164L15.5628 70.5811L15.364 71.4024L16.336 71.6376ZM16.9322 69.1739L17.3297 67.5314L16.3578 67.2961L15.9603 68.9386L16.9322 69.1739ZM17.7272 65.8889L18.1247 64.2464L17.1528 64.0111L16.7553 65.6536L17.7272 65.8889ZM18.5222 62.6039L18.721 61.7826L17.749 61.5474L17.5503 62.3686L18.5222 62.6039ZM18.7125 61.8132L19.005 60.8711L18.05 60.5746L17.7575 61.5168L18.7125 61.8132ZM19.59 58.9867L20.175 57.1023L19.22 56.8058L18.635 58.6902L19.59 58.9867ZM20.76 55.2179L21.345 53.3336L20.39 53.0371L19.805 54.9214L20.76 55.2179ZM21.93 51.4492L22.515 49.5648L21.56 49.2683L20.975 51.1527L21.93 51.4492ZM23.1 47.6804L23.3925 46.7382L22.4375 46.4418L22.145 47.3839L23.1 47.6804ZM22.915 47.09H23.7531V46.09H22.915V47.09ZM25.4294 47.09H27.1056V46.09H25.4294V47.09ZM28.7819 47.09H29.62V46.09H28.7819V47.09ZM29.1445 46.4354L28.8253 47.4169L29.7763 47.7262L30.0955 46.7446L29.1445 46.4354ZM28.1869 49.3801L27.5484 51.3432L28.4994 51.6524L29.1378 49.6893L28.1869 49.3801ZM26.91 53.3063L26.2715 55.2694L27.2225 55.5787L27.861 53.6156L26.91 53.3063ZM25.6331 57.2326L24.9947 59.1957L25.9456 59.5049L26.5841 57.5418L25.6331 57.2326ZM24.3562 61.1588L23.7178 63.1219L24.6688 63.4312L25.3072 61.4681L24.3562 61.1588ZM23.0794 65.0851L22.4409 67.0482L23.3919 67.3574L24.0303 65.3943L23.0794 65.0851ZM21.8025 69.0113L21.164 70.9744L22.115 71.2837L22.7535 69.3206L21.8025 69.0113ZM20.5256 72.9376L19.8872 74.9007L20.8381 75.2099L21.4766 73.2468L20.5256 72.9376ZM19.2487 76.8638L18.9295 77.8454L19.8805 78.1546L20.1997 77.1731L19.2487 76.8638ZM19.405 77.5H18.4488V78.5H19.405V77.5ZM16.5363 77.5H14.6238V78.5H16.5363V77.5ZM12.7113 77.5H11.755V78.5H12.7113V77.5ZM11.755 78L10.8032 78.3068L11.0267 79H11.755V78ZM1.63 46.59V45.59H0.25698L0.678227 46.8968L1.63 46.59ZM8.56 46.59L9.51504 46.2935L9.29663 45.59H8.56V46.59ZM13.24 61.665L14.2099 61.4214L14.2032 61.3948L14.195 61.3685L13.24 61.665ZM15.715 71.52L14.7451 71.7636L14.9351 72.52H15.715V71.52ZM15.85 71.52V72.52H16.6369L16.8219 71.7552L15.85 71.52ZM18.235 61.665L17.28 61.3685L17.2705 61.3989L17.2631 61.4298L18.235 61.665ZM22.915 46.59V45.59H22.1784L21.96 46.2935L22.915 46.59ZM29.62 46.59L30.571 46.8993L30.9968 45.59H29.62V46.59ZM19.405 78V79H20.1313L20.356 78.3093L19.405 78ZM12.7068 77.6932L12.3904 76.7116L10.4868 77.3252L10.8032 78.3068L12.7068 77.6932ZM11.7576 74.7485L11.1247 72.7854L9.2212 73.399L9.85401 75.3621L11.7576 74.7485ZM10.4919 70.8223L9.85912 68.8591L7.95557 69.4727L8.58838 71.4359L10.4919 70.8223ZM9.2263 66.896L8.59349 64.9329L6.68995 65.5465L7.32276 67.5096L9.2263 66.896ZM7.96068 62.9698L7.32787 61.0066L5.42432 61.6202L6.05713 63.5834L7.96068 62.9698ZM6.69505 59.0435L6.06224 57.0804L4.1587 57.694L4.79151 59.6571L6.69505 59.0435ZM5.42943 55.1173L4.79662 53.1541L2.89307 53.7677L3.52588 55.7309L5.42943 55.1173ZM4.1638 51.191L3.53099 49.2279L1.62744 49.8415L2.26026 51.8046L4.1638 51.191ZM2.89818 47.2648L2.58177 46.2832L0.678227 46.8968L0.994631 47.8784L2.89818 47.2648ZM1.63 47.59H2.49625V45.59H1.63V47.59ZM4.22875 47.59H5.96125V45.59H4.22875V47.59ZM7.69375 47.59H8.56V45.59H7.69375V47.59ZM7.60496 46.8865L7.89746 47.8287L9.80754 47.2357L9.51504 46.2935L7.60496 46.8865ZM8.48246 49.7131L9.06746 51.5974L10.9775 51.0044L10.3925 49.1201L8.48246 49.7131ZM9.65246 53.4818L10.2375 55.3662L12.1475 54.7732L11.5625 52.8888L9.65246 53.4818ZM10.8225 57.2506L11.4075 59.1349L13.3175 58.5419L12.7325 56.6576L10.8225 57.2506ZM11.9925 61.0193L12.285 61.9615L14.195 61.3685L13.9025 60.4263L11.9925 61.0193ZM12.2701 61.9086L12.4764 62.7298L14.4161 62.2427L14.2099 61.4214L12.2701 61.9086ZM12.8889 64.3723L13.3014 66.0148L15.2411 65.5277L14.8286 63.8852L12.8889 64.3723ZM13.7139 67.6573L14.1264 69.2998L16.0661 68.8127L15.6536 67.1702L13.7139 67.6573ZM14.5389 70.9423L14.7451 71.7636L16.6849 71.2764L16.4786 70.4552L14.5389 70.9423ZM15.715 72.52H15.7488V70.52H15.715V72.52ZM15.8163 72.52H15.85V70.52H15.8163V72.52ZM16.8219 71.7552L17.0207 70.934L15.0768 70.4635L14.8781 71.2848L16.8219 71.7552ZM17.4182 69.2915L17.8157 67.649L15.8718 67.1785L15.4743 68.821L17.4182 69.2915ZM18.2132 66.0065L18.6107 64.364L16.6668 63.8935L16.2693 65.536L18.2132 66.0065ZM19.0082 62.7215L19.2069 61.9002L17.2631 61.4298L17.0643 62.251L19.0082 62.7215ZM19.19 61.9615L19.4825 61.0193L17.5725 60.4263L17.28 61.3685L19.19 61.9615ZM20.0675 59.1349L20.6525 57.2506L18.7425 56.6576L18.1575 58.5419L20.0675 59.1349ZM21.2375 55.3662L21.8225 53.4818L19.9125 52.8888L19.3275 54.7732L21.2375 55.3662ZM22.4075 51.5974L22.9925 49.7131L21.0825 49.1201L20.4975 51.0044L22.4075 51.5974ZM23.5775 47.8287L23.87 46.8865L21.96 46.2935L21.6675 47.2357L23.5775 47.8287ZM22.915 47.59H23.7531V45.59H22.915V47.59ZM25.4294 47.59H27.1056V45.59H25.4294V47.59ZM28.7819 47.59H29.62V45.59H28.7819V47.59ZM28.669 46.2807L28.3498 47.2623L30.2518 47.8808L30.571 46.8993L28.669 46.2807ZM27.7114 49.2254L27.0729 51.1885L28.9749 51.8071L29.6133 49.844L27.7114 49.2254ZM26.4345 53.1517L25.7961 55.1148L27.698 55.7333L28.3364 53.7702L26.4345 53.1517ZM25.1576 57.0779L24.5192 59.041L26.4211 59.6596L27.0596 57.6965L25.1576 57.0779ZM23.8807 61.0042L23.2423 62.9673L25.1443 63.5858L25.7827 61.6227L23.8807 61.0042ZM22.6039 64.9304L21.9654 66.8935L23.8674 67.5121L24.5058 65.549L22.6039 64.9304ZM21.327 68.8567L20.6886 70.8198L22.5905 71.4383L23.2289 69.4752L21.327 68.8567ZM20.0501 72.7829L19.4117 74.746L21.3136 75.3646L21.9521 73.4015L20.0501 72.7829ZM18.7732 76.7092L18.454 77.6907L20.356 78.3093L20.6752 77.3277L18.7732 76.7092ZM19.405 77H18.4488V79H19.405V77ZM16.5363 77H14.6238V79H16.5363V77ZM12.7113 77H11.755V79H12.7113V77ZM33.7326 78H33.2326V78.5H33.7326V78ZM33.7326 46.59V46.09H33.2326V46.59H33.7326ZM55.1076 46.59H55.6076V46.09H55.1076V46.59ZM55.1076 52.665V53.165H55.6076V52.665H55.1076ZM40.5726 52.665V52.165H40.0726V52.665H40.5726ZM40.5726 59.1H40.0726V59.6H40.5726V59.1ZM53.0376 59.1H53.5376V58.6H53.0376V59.1ZM53.0376 65.13V65.63H53.5376V65.13H53.0376ZM40.5726 65.13V64.63H40.0726V65.13H40.5726ZM40.5726 71.925H40.0726V72.425H40.5726V71.925ZM55.1076 71.925H55.6076V71.425H55.1076V71.925ZM55.1076 78V78.5H55.6076V78H55.1076ZM34.2326 78V77.0184H33.2326V78H34.2326ZM34.2326 75.0553V73.0922H33.2326V75.0553H34.2326ZM34.2326 71.1291V69.1659H33.2326V71.1291H34.2326ZM34.2326 67.2028V65.2397H33.2326V67.2028H34.2326ZM34.2326 63.2766V61.3134H33.2326V63.2766H34.2326ZM34.2326 59.3503V57.3872H33.2326V59.3503H34.2326ZM34.2326 55.4241V53.4609H33.2326V55.4241H34.2326ZM34.2326 51.4978V49.5347H33.2326V51.4978H34.2326ZM34.2326 47.5716V46.59H33.2326V47.5716H34.2326ZM33.7326 47.09H34.8013V46.09H33.7326V47.09ZM36.9388 47.09H39.0763V46.09H36.9388V47.09ZM41.2138 47.09H43.3513V46.09H41.2138V47.09ZM45.4888 47.09H47.6263V46.09H45.4888V47.09ZM49.7638 47.09H51.9013V46.09H49.7638V47.09ZM54.0388 47.09H55.1076V46.09H54.0388V47.09ZM54.6076 46.59V47.3494H55.6076V46.59H54.6076ZM54.6076 48.8681V50.3869H55.6076V48.8681H54.6076ZM54.6076 51.9056V52.665H55.6076V51.9056H54.6076ZM55.1076 52.165H54.1991V53.165H55.1076V52.165ZM52.3823 52.165H50.5654V53.165H52.3823V52.165ZM48.7485 52.165H46.9316V53.165H48.7485V52.165ZM45.1148 52.165H43.2979V53.165H45.1148V52.165ZM41.481 52.165H40.5726V53.165H41.481V52.165ZM40.0726 52.665V53.4694H41.0726V52.665H40.0726ZM40.0726 55.0781V56.6869H41.0726V55.0781H40.0726ZM40.0726 58.2956V59.1H41.0726V58.2956H40.0726ZM40.5726 59.6H41.6113V58.6H40.5726V59.6ZM43.6888 59.6H45.7663V58.6H43.6888V59.6ZM47.8438 59.6H49.9213V58.6H47.8438V59.6ZM51.9988 59.6H53.0376V58.6H51.9988V59.6ZM52.5376 59.1V59.8537H53.5376V59.1H52.5376ZM52.5376 61.3612V62.8687H53.5376V61.3612H52.5376ZM52.5376 64.3762V65.13H53.5376V64.3762H52.5376ZM53.0376 64.63H51.9988V65.63H53.0376V64.63ZM49.9213 64.63H47.8438V65.63H49.9213V64.63ZM45.7663 64.63H43.6888V65.63H45.7663V64.63ZM41.6113 64.63H40.5726V65.63H41.6113V64.63ZM40.0726 65.13V65.9794H41.0726V65.13H40.0726ZM40.0726 67.6781V69.3769H41.0726V67.6781H40.0726ZM40.0726 71.0756V71.925H41.0726V71.0756H40.0726ZM40.5726 72.425H41.481V71.425H40.5726V72.425ZM43.2979 72.425H45.1148V71.425H43.2979V72.425ZM46.9316 72.425H48.7485V71.425H46.9316V72.425ZM50.5654 72.425H52.3823V71.425H50.5654V72.425ZM54.1991 72.425H55.1076V71.425H54.1991V72.425ZM54.6076 71.925V72.6844H55.6076V71.925H54.6076ZM54.6076 74.2031V75.7219H55.6076V74.2031H54.6076ZM54.6076 77.2406V78H55.6076V77.2406H54.6076ZM55.1076 77.5H54.0388V78.5H55.1076V77.5ZM51.9013 77.5H49.7638V78.5H51.9013V77.5ZM47.6263 77.5H45.4888V78.5H47.6263V77.5ZM43.3513 77.5H41.2138V78.5H43.3513V77.5ZM39.0763 77.5H36.9388V78.5H39.0763V77.5ZM34.8013 77.5H33.7326V78.5H34.8013V77.5ZM33.7326 78H32.7326V79H33.7326V78ZM33.7326 46.59V45.59H32.7326V46.59H33.7326ZM55.1076 46.59H56.1076V45.59H55.1076V46.59ZM55.1076 52.665V53.665H56.1076V52.665H55.1076ZM40.5726 52.665V51.665H39.5726V52.665H40.5726ZM40.5726 59.1H39.5726V60.1H40.5726V59.1ZM53.0376 59.1H54.0376V58.1H53.0376V59.1ZM53.0376 65.13V66.13H54.0376V65.13H53.0376ZM40.5726 65.13V64.13H39.5726V65.13H40.5726ZM40.5726 71.925H39.5726V72.925H40.5726V71.925ZM55.1076 71.925H56.1076V70.925H55.1076V71.925ZM55.1076 78V79H56.1076V78H55.1076ZM34.7326 78V77.0184H32.7326V78H34.7326ZM34.7326 75.0553V73.0922H32.7326V75.0553H34.7326ZM34.7326 71.1291V69.1659H32.7326V71.1291H34.7326ZM34.7326 67.2028V65.2397H32.7326V67.2028H34.7326ZM34.7326 63.2766V61.3134H32.7326V63.2766H34.7326ZM34.7326 59.3503V57.3872H32.7326V59.3503H34.7326ZM34.7326 55.4241V53.4609H32.7326V55.4241H34.7326ZM34.7326 51.4978V49.5347H32.7326V51.4978H34.7326ZM34.7326 47.5716V46.59H32.7326V47.5716H34.7326ZM33.7326 47.59H34.8013V45.59H33.7326V47.59ZM36.9388 47.59H39.0763V45.59H36.9388V47.59ZM41.2138 47.59H43.3513V45.59H41.2138V47.59ZM45.4888 47.59H47.6263V45.59H45.4888V47.59ZM49.7638 47.59H51.9013V45.59H49.7638V47.59ZM54.0388 47.59H55.1076V45.59H54.0388V47.59ZM54.1076 46.59V47.3494H56.1076V46.59H54.1076ZM54.1076 48.8681V50.3869H56.1076V48.8681H54.1076ZM54.1076 51.9056V52.665H56.1076V51.9056H54.1076ZM55.1076 51.665H54.1991V53.665H55.1076V51.665ZM52.3823 51.665H50.5654V53.665H52.3823V51.665ZM48.7485 51.665H46.9316V53.665H48.7485V51.665ZM45.1148 51.665H43.2979V53.665H45.1148V51.665ZM41.481 51.665H40.5726V53.665H41.481V51.665ZM39.5726 52.665V53.4694H41.5726V52.665H39.5726ZM39.5726 55.0781V56.6869H41.5726V55.0781H39.5726ZM39.5726 58.2956V59.1H41.5726V58.2956H39.5726ZM40.5726 60.1H41.6113V58.1H40.5726V60.1ZM43.6888 60.1H45.7663V58.1H43.6888V60.1ZM47.8438 60.1H49.9213V58.1H47.8438V60.1ZM51.9988 60.1H53.0376V58.1H51.9988V60.1ZM52.0376 59.1V59.8537H54.0376V59.1H52.0376ZM52.0376 61.3612V62.8687H54.0376V61.3612H52.0376ZM52.0376 64.3762V65.13H54.0376V64.3762H52.0376ZM53.0376 64.13H51.9988V66.13H53.0376V64.13ZM49.9213 64.13H47.8438V66.13H49.9213V64.13ZM45.7663 64.13H43.6888V66.13H45.7663V64.13ZM41.6113 64.13H40.5726V66.13H41.6113V64.13ZM39.5726 65.13V65.9794H41.5726V65.13H39.5726ZM39.5726 67.6781V69.3769H41.5726V67.6781H39.5726ZM39.5726 71.0756V71.925H41.5726V71.0756H39.5726ZM40.5726 72.925H41.481V70.925H40.5726V72.925ZM43.2979 72.925H45.1148V70.925H43.2979V72.925ZM46.9316 72.925H48.7485V70.925H46.9316V72.925ZM50.5654 72.925H52.3823V70.925H50.5654V72.925ZM54.1991 72.925H55.1076V70.925H54.1991V72.925ZM54.1076 71.925V72.6844H56.1076V71.925H54.1076ZM54.1076 74.2031V75.7219H56.1076V74.2031H54.1076ZM54.1076 77.2406V78H56.1076V77.2406H54.1076ZM55.1076 77H54.0388V79H55.1076V77ZM51.9013 77H49.7638V79H51.9013V77ZM47.6263 77H45.4888V79H47.6263V77ZM43.3513 77H41.2138V79H43.3513V77ZM39.0763 77H36.9388V79H39.0763V77ZM34.8013 77H33.7326V79H34.8013V77Z" fill="#DADADA"></path> </svg> 