<?xml version="1.0" encoding="UTF-8"?> <svg xmlns="http://www.w3.org/2000/svg" width="95" height="80" viewBox="0 0 95 80" fill="none"> <path d="M1.465 33H0.965V33.5H1.465V33ZM1.465 1.59V1.09H0.965V1.59H1.465ZM22.3 1.59H22.8V1.09H22.3V1.59ZM22.3 7.665V8.165H22.8V7.665H22.3ZM8.305 7.665V7.165H7.805V7.665H8.305ZM8.305 14.1H7.805V14.6H8.305V14.1ZM20.23 14.1H20.73V13.6H20.23V14.1ZM20.23 20.13V20.63H20.73V20.13H20.23ZM8.305 20.13V19.63H7.805V20.13H8.305ZM8.305 33V33.5H8.805V33H8.305ZM1.965 33V32.0184H0.965V33H1.965ZM1.965 30.0553V28.0922H0.965V30.0553H1.965ZM1.965 26.1291V24.1659H0.965V26.1291H1.965ZM1.965 22.2028V20.2397H0.965V22.2028H1.965ZM1.965 18.2766V16.3134H0.965V18.2766H1.965ZM1.965 14.3503V12.3872H0.965V14.3503H1.965ZM1.965 10.4241V8.46094H0.965V10.4241H1.965ZM1.965 6.49781V4.53469H0.965V6.49781H1.965ZM1.965 2.57156V1.59H0.965V2.57156H1.965ZM1.465 2.09H2.50675V1.09H1.465V2.09ZM4.59025 2.09H6.67375V1.09H4.59025V2.09ZM8.75725 2.09H10.8408V1.09H8.75725V2.09ZM12.9243 2.09H15.0078V1.09H12.9243V2.09ZM17.0913 2.09H19.1748V1.09H17.0913V2.09ZM21.2583 2.09H22.3V1.09H21.2583V2.09ZM21.8 1.59V2.34937H22.8V1.59H21.8ZM21.8 3.86812V5.38687H22.8V3.86812H21.8ZM21.8 6.90562V7.665H22.8V6.90562H21.8ZM22.3 7.165H21.1338V8.165H22.3V7.165ZM18.8013 7.165H16.4688V8.165H18.8013V7.165ZM14.1363 7.165H11.8038V8.165H14.1363V7.165ZM9.47125 7.165H8.305V8.165H9.47125V7.165ZM7.805 7.665V8.46937H8.805V7.665H7.805ZM7.805 10.0781V11.6869H8.805V10.0781H7.805ZM7.805 13.2956V14.1H8.805V13.2956H7.805ZM8.305 14.6H9.29875V13.6H8.305V14.6ZM11.2863 14.6H13.2738V13.6H11.2863V14.6ZM15.2613 14.6H17.2488V13.6H15.2613V14.6ZM19.2363 14.6H20.23V13.6H19.2363V14.6ZM19.73 14.1V14.8537H20.73V14.1H19.73ZM19.73 16.3612V17.8687H20.73V16.3612H19.73ZM19.73 19.3762V20.13H20.73V19.3762H19.73ZM20.23 19.63H19.2363V20.63H20.23V19.63ZM17.2488 19.63H15.2613V20.63H17.2488V19.63ZM13.2738 19.63H11.2863V20.63H13.2738V19.63ZM9.29875 19.63H8.305V20.63H9.29875V19.63ZM7.805 20.13V21.2025H8.805V20.13H7.805ZM7.805 23.3475V25.4925H8.805V23.3475H7.805ZM7.805 27.6375V29.7825H8.805V27.6375H7.805ZM7.805 31.9275V33H8.805V31.9275H7.805ZM8.305 32.5H7.45V33.5H8.305V32.5ZM5.74 32.5H4.03V33.5H5.74V32.5ZM2.32 32.5H1.465V33.5H2.32V32.5ZM1.465 33H0.465V34H1.465V33ZM1.465 1.59V0.589999H0.465V1.59H1.465ZM22.3 1.59H23.3V0.589999H22.3V1.59ZM22.3 7.665V8.665H23.3V7.665H22.3ZM8.305 7.665V6.665H7.305V7.665H8.305ZM8.305 14.1H7.305V15.1H8.305V14.1ZM20.23 14.1H21.23V13.1H20.23V14.1ZM20.23 20.13V21.13H21.23V20.13H20.23ZM8.305 20.13V19.13H7.305V20.13H8.305ZM8.305 33V34H9.305V33H8.305ZM2.465 33V32.0184H0.465V33H2.465ZM2.465 30.0553V28.0922H0.465V30.0553H2.465ZM2.465 26.1291V24.1659H0.465V26.1291H2.465ZM2.465 22.2028V20.2397H0.465V22.2028H2.465ZM2.465 18.2766V16.3134H0.465V18.2766H2.465ZM2.465 14.3503V12.3872H0.465V14.3503H2.465ZM2.465 10.4241V8.46094H0.465V10.4241H2.465ZM2.465 6.49781V4.53469H0.465V6.49781H2.465ZM2.465 2.57156V1.59H0.465V2.57156H2.465ZM1.465 2.59H2.50675V0.589999H1.465V2.59ZM4.59025 2.59H6.67375V0.589999H4.59025V2.59ZM8.75725 2.59H10.8408V0.589999H8.75725V2.59ZM12.9243 2.59H15.0078V0.589999H12.9243V2.59ZM17.0913 2.59H19.1748V0.589999H17.0913V2.59ZM21.2583 2.59H22.3V0.589999H21.2583V2.59ZM21.3 1.59V2.34937H23.3V1.59H21.3ZM21.3 3.86812V5.38687H23.3V3.86812H21.3ZM21.3 6.90562V7.665H23.3V6.90562H21.3ZM22.3 6.665H21.1338V8.665H22.3V6.665ZM18.8013 6.665H16.4688V8.665H18.8013V6.665ZM14.1363 6.665H11.8038V8.665H14.1363V6.665ZM9.47125 6.665H8.305V8.665H9.47125V6.665ZM7.305 7.665V8.46937H9.305V7.665H7.305ZM7.305 10.0781V11.6869H9.305V10.0781H7.305ZM7.305 13.2956V14.1H9.305V13.2956H7.305ZM8.305 15.1H9.29875V13.1H8.305V15.1ZM11.2863 15.1H13.2738V13.1H11.2863V15.1ZM15.2613 15.1H17.2488V13.1H15.2613V15.1ZM19.2363 15.1H20.23V13.1H19.2363V15.1ZM19.23 14.1V14.8537H21.23V14.1H19.23ZM19.23 16.3612V17.8687H21.23V16.3612H19.23ZM19.23 19.3762V20.13H21.23V19.3762H19.23ZM20.23 19.13H19.2363V21.13H20.23V19.13ZM17.2488 19.13H15.2613V21.13H17.2488V19.13ZM13.2738 19.13H11.2863V21.13H13.2738V19.13ZM9.29875 19.13H8.305V21.13H9.29875V19.13ZM7.305 20.13V21.2025H9.305V20.13H7.305ZM7.305 23.3475V25.4925H9.305V23.3475H7.305ZM7.305 27.6375V29.7825H9.305V27.6375H7.305ZM7.305 31.9275V33H9.305V31.9275H7.305ZM8.305 32H7.45V34H8.305V32ZM5.74 32H4.03V34H5.74V32ZM2.32 32H1.465V34H2.32V32ZM33.3559 32.505L33.1688 32.9687L33.1688 32.9687L33.3559 32.505ZM28.9909 29.445L28.6136 29.7731L28.6172 29.7772L28.9909 29.445ZM26.2009 24.36L25.7252 24.5139L25.7259 24.516L26.2009 24.36ZM26.2009 10.275L26.676 10.431L26.6767 10.4289L26.2009 10.275ZM28.9909 5.19L29.3647 5.5222L29.3682 5.51809L28.9909 5.19ZM33.3559 2.085L33.1688 1.62132L33.1688 1.62132L33.3559 2.085ZM44.6959 2.085L44.5088 2.54867L44.5088 2.54867L44.6959 2.085ZM49.0609 5.19L48.6836 5.51811L48.6872 5.52218L49.0609 5.19ZM51.8509 10.275L51.3752 10.4289L51.3759 10.431L51.8509 10.275ZM51.8509 24.36L52.326 24.516L52.3267 24.5139L51.8509 24.36ZM49.0609 29.445L49.4347 29.7772L49.4382 29.7731L49.0609 29.445ZM44.6959 32.505L44.5088 32.0413L44.5088 32.0413L44.6959 32.505ZM43.8409 25.44L43.4631 25.1125L43.4589 25.1174L43.8409 25.44ZM43.8409 9.15L43.4589 9.47262L43.4631 9.47746L43.8409 9.15ZM34.1659 9.15L33.7881 8.82251L33.7839 8.82741L34.1659 9.15ZM34.1659 25.44L33.7839 25.7626L33.7881 25.7675L34.1659 25.44ZM39.0259 33.04C38.5462 33.04 38.0772 33.021 37.6188 32.983L37.5363 33.9796C38.0231 34.0199 38.5197 34.04 39.0259 34.04V33.04ZM34.8634 32.4924C34.4111 32.3644 33.971 32.214 33.543 32.0413L33.1688 32.9687C33.6307 33.155 34.1048 33.317 34.5911 33.4546L34.8634 32.4924ZM33.543 32.0413C33.1384 31.8781 32.7493 31.6958 32.3756 31.4947L31.9017 32.3753C32.3086 32.5942 32.731 32.792 33.1688 32.9687L33.543 32.0413ZM30.2729 30.0237C29.9552 29.7401 29.6524 29.4366 29.3646 29.1128L28.6172 29.7772C28.9302 30.1293 29.2602 30.4602 29.6071 30.7698L30.2729 30.0237ZM29.3682 29.1169C29.0654 28.7686 28.7801 28.399 28.5123 28.0077L27.687 28.5725C27.976 28.9948 28.2849 29.395 28.6136 29.7731L29.3682 29.1169ZM27.1724 25.5324C26.9928 25.1074 26.8272 24.6647 26.676 24.204L25.7259 24.516C25.8854 25.0016 26.0605 25.4703 26.2514 25.9218L27.1724 25.5324ZM26.6767 24.2061C26.5887 23.9342 26.5067 23.6562 26.4306 23.3722L25.4646 23.6308C25.545 23.9309 25.6318 24.2253 25.7252 24.5139L26.6767 24.2061ZM26.0586 21.6675C25.9623 21.1088 25.8859 20.5299 25.8295 19.9307L24.8339 20.0244C24.8926 20.6477 24.9723 21.252 25.0732 21.8374L26.0586 21.6675ZM25.7234 18.1761C25.7151 17.8866 25.7109 17.5929 25.7109 17.295H24.7109C24.7109 17.6022 24.7152 17.9055 24.7239 18.2048L25.7234 18.1761ZM25.7109 17.295C25.7109 16.9988 25.7151 16.7069 25.7233 16.4193L24.7237 16.3907C24.7152 16.6881 24.7109 16.9895 24.7109 17.295H25.7109ZM25.8285 14.6758C25.8846 14.0794 25.9607 13.5043 26.0566 12.9503L25.0713 12.7797C24.9707 13.3607 24.8913 13.9615 24.8329 14.5821L25.8285 14.6758ZM26.4288 11.258C26.5052 10.9758 26.5876 10.7002 26.676 10.431L25.7259 10.119C25.6318 10.4054 25.5444 10.698 25.4636 10.9967L26.4288 11.258ZM26.6767 10.4289C26.8264 9.96602 26.9901 9.52241 27.1676 9.09793L26.245 8.71213C26.0563 9.16349 25.8831 9.63319 25.7252 10.1211L26.6767 10.4289ZM28.5032 6.62304C28.7726 6.23197 29.0598 5.8651 29.3646 5.52218L28.6172 4.85782C28.2843 5.2324 27.9718 5.63177 27.6797 6.05566L28.5032 6.62304ZM29.3682 5.51809C29.6546 5.18881 29.9557 4.88048 30.2715 4.59293L29.5983 3.85349C29.2532 4.16768 28.925 4.50387 28.6136 4.86191L29.3682 5.51809ZM32.3722 3.09988C32.7469 2.8962 33.1372 2.71244 33.543 2.54867L33.1688 1.62132C32.7285 1.79902 32.3037 1.99896 31.8947 2.22124L32.3722 3.09988ZM33.543 2.54867C33.971 2.37598 34.4111 2.22559 34.8634 2.09758L34.5911 1.13538C34.1048 1.27301 33.6307 1.43497 33.1688 1.62132L33.543 2.54867ZM37.6188 1.607C38.0772 1.56904 38.5462 1.55 39.0259 1.55V0.549998C38.5197 0.549998 38.0231 0.570093 37.5363 0.610413L37.6188 1.607ZM39.0259 1.55C39.5057 1.55 39.9747 1.56904 40.4331 1.607L40.5156 0.610413C40.0287 0.570093 39.5322 0.549998 39.0259 0.549998V1.55ZM43.1885 2.09758C43.6408 2.22559 44.0809 2.37598 44.5088 2.54867L44.883 1.62132C44.4212 1.43497 43.9471 1.27301 43.4608 1.13538L43.1885 2.09758ZM44.5088 2.54867C44.9147 2.71244 45.3049 2.8962 45.6797 3.09988L46.1572 2.22124C45.7482 1.99896 45.3234 1.79902 44.883 1.62132L44.5088 2.54867ZM47.7804 4.59293C48.0962 4.88048 48.3973 5.18881 48.6836 5.51809L49.4382 4.86191C49.1269 4.50387 48.7987 4.16768 48.4536 3.85349L47.7804 4.59293ZM48.6872 5.52218C48.9921 5.8651 49.2792 6.23197 49.5487 6.62304L50.3721 6.05566C50.0801 5.63177 49.7676 5.2324 49.4346 4.85782L48.6872 5.52218ZM50.8842 9.09793C51.0618 9.52241 51.2255 9.96602 51.3752 10.4289L52.3267 10.1211C52.1688 9.63319 51.9956 9.16349 51.8068 8.71213L50.8842 9.09793ZM51.3759 10.431C51.4643 10.7002 51.5467 10.9758 51.6231 11.258L52.5883 10.9967C52.5075 10.698 52.42 10.4054 52.326 10.119L51.3759 10.431ZM51.9953 12.9503C52.0912 13.5043 52.1673 14.0794 52.2234 14.6758L53.219 14.5821C53.1606 13.9615 53.0812 13.3607 52.9806 12.7797L51.9953 12.9503ZM52.3286 16.4193C52.3368 16.7069 52.3409 16.9988 52.3409 17.295H53.3409C53.3409 16.9895 53.3367 16.6881 53.3282 16.3907L52.3286 16.4193ZM52.3409 17.295C52.3409 17.5929 52.3368 17.8866 52.3284 18.1761L53.328 18.2048C53.3366 17.9055 53.3409 17.6022 53.3409 17.295H52.3409ZM52.2224 19.9307C52.166 20.5299 52.0895 21.1088 51.9932 21.6675L52.9787 21.8374C53.0796 21.252 53.1593 20.6477 53.218 20.0244L52.2224 19.9307ZM51.6213 23.3722C51.5452 23.6562 51.4632 23.9342 51.3752 24.2061L52.3267 24.5139C52.42 24.2253 52.5069 23.9309 52.5872 23.6308L51.6213 23.3722ZM51.3759 24.204C51.2246 24.6647 51.0591 25.1074 50.8794 25.5324L51.8005 25.9218C51.9914 25.4703 52.1665 25.0016 52.326 24.516L51.3759 24.204ZM49.5396 28.0077C49.2718 28.399 48.9865 28.7686 48.6836 29.1169L49.4382 29.7731C49.767 29.395 50.0758 28.9948 50.3648 28.5725L49.5396 28.0077ZM48.6872 29.1128C48.3995 29.4366 48.0967 29.7401 47.779 30.0237L48.4448 30.7698C48.7917 30.4602 49.1217 30.1293 49.4346 29.7772L48.6872 29.1128ZM45.6763 31.4947C45.3026 31.6958 44.9135 31.8781 44.5088 32.0413L44.883 32.9687C45.3209 32.792 45.7433 32.5942 46.1502 32.3753L45.6763 31.4947ZM44.5088 32.0413C44.0809 32.214 43.6408 32.3644 43.1885 32.4924L43.4608 33.4546C43.9471 33.317 44.4212 33.155 44.883 32.9687L44.5088 32.0413ZM40.4331 32.983C39.9747 33.021 39.5057 33.04 39.0259 33.04V34.04C39.5322 34.04 40.0287 34.0199 40.5156 33.9796L40.4331 32.983ZM39.0259 26.965C38.5755 26.965 38.1516 26.9313 37.7533 26.865L37.5891 27.8515C38.0466 27.9275 38.5257 27.965 39.0259 27.965V26.965ZM35.4582 25.9477C35.1273 25.712 34.8225 25.4341 34.5438 25.1125L33.7881 25.7675C34.1169 26.1468 34.4802 26.4789 34.8782 26.7622L35.4582 25.9477ZM34.548 25.1174C34.3978 24.9396 34.258 24.7501 34.1287 24.5488L33.2873 25.0892C33.4396 25.3263 33.6051 25.5508 33.7839 25.7626L34.548 25.1174ZM33.5032 23.2646C33.3481 22.8332 33.2249 22.3636 33.135 21.8545L32.1503 22.0284C32.249 22.5876 32.3859 23.1129 32.5623 23.6031L33.5032 23.2646ZM32.9741 20.3824C32.962 20.1401 32.9559 19.891 32.9559 19.635H31.9559C31.9559 19.9067 31.9624 20.1724 31.9753 20.4321L32.9741 20.3824ZM32.9559 19.635V18.465H31.9559V19.635H32.9559ZM32.9559 16.125V14.955H31.9559V16.125H32.9559ZM32.9559 14.955C32.9559 14.699 32.962 14.4499 32.9741 14.2076L31.9753 14.1579C31.9624 14.4176 31.9559 14.6833 31.9559 14.955H32.9559ZM33.135 12.7355C33.2249 12.2264 33.3481 11.7568 33.5032 11.3254L32.5623 10.9869C32.3859 11.4771 32.249 12.0024 32.1503 12.5616L33.135 12.7355ZM34.1287 10.0412C34.258 9.83989 34.3978 9.65044 34.548 9.47259L33.7839 8.82741C33.6051 9.03918 33.4396 9.26371 33.2873 9.50077L34.1287 10.0412ZM34.5438 9.47746C34.8225 9.15588 35.1273 8.87796 35.4582 8.64233L34.8782 7.82775C34.4802 8.1111 34.1169 8.44316 33.7881 8.82253L34.5438 9.47746ZM37.7533 7.72498C38.1516 7.65872 38.5755 7.625 39.0259 7.625V6.625C38.5257 6.625 38.0466 6.66245 37.5891 6.73854L37.7533 7.72498ZM39.0259 7.625C39.4739 7.625 39.8949 7.65836 40.2896 7.72387L40.4533 6.73736C39.9995 6.66204 39.5234 6.625 39.0259 6.625V7.625ZM42.5619 8.63721C42.8881 8.87269 43.1871 9.15066 43.4589 9.47259L44.223 8.82741C43.9004 8.44547 43.5419 8.11132 43.1472 7.82643L42.5619 8.63721ZM43.4631 9.47746C43.6164 9.65432 43.759 9.84256 43.891 10.0424L44.7254 9.49137C44.5699 9.25588 44.4011 9.03287 44.2188 8.82253L43.4631 9.47746ZM44.5322 11.3221C44.6919 11.7532 44.8187 12.2227 44.9112 12.7317L45.8951 12.5528C45.7932 11.9923 45.6519 11.4659 45.4699 10.9747L44.5322 11.3221ZM45.0772 14.206C45.0897 14.4488 45.0959 14.6985 45.0959 14.955H46.0959C46.0959 14.6822 46.0893 14.4155 46.0759 14.1548L45.0772 14.206ZM45.0959 14.955V16.125H46.0959V14.955H45.0959ZM45.0959 18.465V19.635H46.0959V18.465H45.0959ZM45.0959 19.635C45.0959 19.8915 45.0897 20.1412 45.0772 20.384L46.0759 20.4352C46.0893 20.1745 46.0959 19.9078 46.0959 19.635H45.0959ZM44.9112 21.8583C44.8187 22.3673 44.6919 22.8368 44.5322 23.2679L45.4699 23.6153C45.6519 23.1241 45.7932 22.5977 45.8951 22.0372L44.9112 21.8583ZM43.891 24.5476C43.759 24.7474 43.6164 24.9357 43.4631 25.1125L44.2188 25.7675C44.4011 25.5571 44.5699 25.3341 44.7254 25.0986L43.891 24.5476ZM43.4589 25.1174C43.1871 25.4393 42.8881 25.7173 42.5619 25.9528L43.1472 26.7636C43.5419 26.4787 43.9004 26.1445 44.223 25.7626L43.4589 25.1174ZM40.2896 26.8661C39.8949 26.9316 39.4739 26.965 39.0259 26.965V27.965C39.5234 27.965 39.9995 27.928 40.4533 27.8526L40.2896 26.8661ZM33.3559 32.505L32.9817 33.4324L32.9817 33.4324L33.3559 32.505ZM28.9909 29.445L28.2363 30.1012L28.2435 30.1094L28.9909 29.445ZM26.2009 24.36L25.2495 24.6678L25.2508 24.672L26.2009 24.36ZM26.2009 10.275L27.151 10.587L27.1524 10.5828L26.2009 10.275ZM28.9909 5.19L29.7384 5.8544L29.7455 5.84618L28.9909 5.19ZM33.3559 2.085L32.9817 1.15765L32.9817 1.15765L33.3559 2.085ZM44.6959 2.085L44.3217 3.01235L44.3217 3.01235L44.6959 2.085ZM49.0609 5.19L48.3063 5.84622L48.3135 5.85436L49.0609 5.19ZM51.8509 10.275L50.8995 10.5828L50.9008 10.587L51.8509 10.275ZM51.8509 24.36L52.801 24.672L52.8024 24.6678L51.8509 24.36ZM49.0609 29.445L49.8084 30.1094L49.8155 30.1012L49.0609 29.445ZM44.6959 32.505L44.3217 31.5776L44.3217 31.5776L44.6959 32.505ZM43.8409 25.44L43.0852 24.785L43.0769 24.7948L43.8409 25.44ZM43.8409 9.15L43.0768 9.79523L43.0852 9.80493L43.8409 9.15ZM34.1659 9.15L33.4102 8.49501L33.4019 8.50482L34.1659 9.15ZM34.1659 25.44L33.4018 26.0852L33.4102 26.0949L34.1659 25.44ZM39.0259 32.54C38.5594 32.54 38.1042 32.5215 37.6601 32.4847L37.495 34.4779C37.9961 34.5194 38.5065 34.54 39.0259 34.54V32.54ZM34.9996 32.0113C34.5643 31.8881 34.1412 31.7435 33.7301 31.5776L32.9817 33.4324C33.4605 33.6255 33.9516 33.7933 34.4549 33.9357L34.9996 32.0113ZM33.7301 31.5776C33.3421 31.4211 32.9697 31.2466 32.6125 31.0544L31.6648 32.8156C32.0882 33.0435 32.5273 33.249 32.9817 33.4324L33.7301 31.5776ZM30.6058 29.6506C30.3027 29.3801 30.0135 29.0902 29.7383 28.7806L28.2435 30.1094C28.5691 30.4756 28.9127 30.8202 29.2742 31.1428L30.6058 29.6506ZM29.7455 28.7888C29.4556 28.4554 29.1821 28.101 28.9249 27.7253L27.2744 28.8548C27.574 29.2927 27.8946 29.7082 28.2363 30.1012L29.7455 28.7888ZM27.633 25.3377C27.4589 24.926 27.2982 24.4962 27.151 24.048L25.2508 24.672C25.4144 25.1701 25.5943 25.6517 25.7909 26.1165L27.633 25.3377ZM27.1524 24.0522C27.0671 23.7886 26.9875 23.5189 26.9136 23.2428L24.9816 23.7601C25.0642 24.0683 25.1534 24.3709 25.2495 24.6678L27.1524 24.0522ZM26.5514 21.5826C26.4574 21.0372 26.3826 20.471 26.3273 19.8839L24.3361 20.0712C24.3959 20.7065 24.4772 21.3236 24.5804 21.9223L26.5514 21.5826ZM26.2232 18.1617C26.215 17.8771 26.2109 17.5882 26.2109 17.295H24.2109C24.2109 17.6069 24.2153 17.9149 24.2241 18.2192L26.2232 18.1617ZM26.2109 17.295C26.2109 17.0034 26.215 16.7163 26.2231 16.4337L24.2239 16.3764C24.2153 16.6787 24.2109 16.9849 24.2109 17.295H26.2109ZM26.3263 14.7226C26.3812 14.1383 26.4557 13.5761 26.5493 13.0356L24.5786 12.6944C24.4757 13.2889 24.3946 13.9026 24.3351 14.5353L26.3263 14.7226ZM26.9114 11.3886C26.9856 11.1148 27.0655 10.8476 27.151 10.587L25.2508 9.96303C25.154 10.2581 25.064 10.5591 24.9809 10.8661L26.9114 11.3886ZM27.1524 10.5828C27.2981 10.1324 27.457 9.70187 27.6289 9.29083L25.7838 8.51922C25.5894 8.98403 25.4114 9.46678 25.2495 9.96718L27.1524 10.5828ZM28.9149 6.90672C29.1731 6.53206 29.4476 6.18145 29.7383 5.85436L28.2435 4.52563C27.8965 4.91606 27.5714 5.33168 27.268 5.77198L28.9149 6.90672ZM29.7455 5.84618C30.0194 5.53127 30.3069 5.23688 30.6081 4.96265L29.2617 3.48377C28.9019 3.81128 28.5602 4.16141 28.2363 4.53382L29.7455 5.84618ZM32.6109 3.53919C32.9686 3.34482 33.3415 3.16915 33.7301 3.01235L32.9817 1.15765C32.5241 1.34231 32.0821 1.55034 31.6559 1.78193L32.6109 3.53919ZM33.7301 3.01235C34.1412 2.84648 34.5643 2.70189 34.9996 2.57869L34.4549 0.654276C33.9516 0.796712 33.4605 0.964461 32.9817 1.15765L33.7301 3.01235ZM37.6601 2.10529C38.1042 2.06852 38.5594 2.05 39.0259 2.05V0.0499983C38.5065 0.0499983 37.9961 0.0706184 37.495 0.112119L37.6601 2.10529ZM39.0259 2.05C39.4925 2.05 39.9477 2.06852 40.3918 2.10529L40.5569 0.112119C40.0558 0.0706184 39.5454 0.0499983 39.0259 0.0499983V2.05ZM43.0523 2.57869C43.4876 2.70189 43.9107 2.84648 44.3217 3.01235L45.0701 1.15765C44.5914 0.964461 44.1002 0.796712 43.597 0.654276L43.0523 2.57869ZM44.3217 3.01235C44.7103 3.16915 45.0833 3.34482 45.441 3.53919L46.3959 1.78193C45.9698 1.55034 45.5278 1.34231 45.0701 1.15765L44.3217 3.01235ZM47.4438 4.96265C47.745 5.23688 48.0325 5.53127 48.3063 5.84618L49.8155 4.53382C49.4917 4.16141 49.1499 3.81128 48.7902 3.48377L47.4438 4.96265ZM48.3135 5.85436C48.6043 6.18145 48.8788 6.53206 49.137 6.90672L50.7839 5.77198C50.4805 5.33168 50.1554 4.91606 49.8083 4.52564L48.3135 5.85436ZM50.423 9.29083C50.5948 9.70187 50.7538 10.1324 50.8995 10.5828L52.8024 9.96718C52.6405 9.46678 52.4625 8.98403 52.2681 8.51922L50.423 9.29083ZM50.9008 10.587C50.9864 10.8476 51.0663 11.1148 51.1404 11.3886L53.071 10.8661C52.9879 10.5591 52.8979 10.2581 52.801 9.96303L50.9008 10.587ZM51.5026 13.0356C51.5962 13.5761 51.6706 14.1383 51.7256 14.7226L53.7168 14.5353C53.6573 13.9026 53.5762 13.2889 53.4733 12.6944L51.5026 13.0356ZM51.8288 16.4337C51.8369 16.7163 51.8409 17.0034 51.8409 17.295H53.8409C53.8409 16.9849 53.8366 16.6787 53.828 16.3764L51.8288 16.4337ZM51.8409 17.295C51.8409 17.5882 51.8368 17.8771 51.8286 18.1617L53.8278 18.2192C53.8366 17.9149 53.8409 17.6069 53.8409 17.295H51.8409ZM51.7246 19.8839C51.6693 20.471 51.5945 21.0372 51.5005 21.5826L53.4714 21.9223C53.5746 21.3236 53.656 20.7065 53.7158 20.0712L51.7246 19.8839ZM51.1383 23.2428C51.0644 23.5189 50.9848 23.7886 50.8995 24.0522L52.8024 24.6678C52.8984 24.3709 52.9877 24.0683 53.0702 23.7601L51.1383 23.2428ZM50.9008 24.048C50.7537 24.4962 50.593 24.926 50.4189 25.3377L52.261 26.1165C52.4575 25.6517 52.6375 25.1701 52.801 24.672L50.9008 24.048ZM49.127 27.7253C48.8698 28.101 48.5962 28.4554 48.3063 28.7888L49.8155 30.1012C50.1572 29.7082 50.4778 29.2927 50.7775 28.8548L49.127 27.7253ZM48.3135 28.7806C48.0384 29.0902 47.7492 29.3801 47.4461 29.6506L48.7777 31.1428C49.1392 30.8202 49.4828 30.4756 49.8083 30.1094L48.3135 28.7806ZM45.4394 31.0544C45.0822 31.2466 44.7098 31.4211 44.3217 31.5776L45.0701 33.4324C45.5246 33.249 45.9637 33.0435 46.3871 32.8156L45.4394 31.0544ZM44.3217 31.5776C43.9107 31.7435 43.4876 31.8881 43.0523 32.0113L43.597 33.9357C44.1002 33.7933 44.5914 33.6255 45.0701 33.4324L44.3217 31.5776ZM40.3918 32.4847C39.9477 32.5215 39.4925 32.54 39.0259 32.54V34.54C39.5454 34.54 40.0558 34.5194 40.5569 34.4779L40.3918 32.4847ZM39.0259 26.465C38.6004 26.465 38.204 26.4331 37.8353 26.3718L37.5071 28.3447C37.9941 28.4257 38.5008 28.465 39.0259 28.465V26.465ZM35.7482 25.5404C35.4508 25.3286 35.1753 25.0778 34.9216 24.7851L33.4102 26.0949C33.7641 26.5032 34.1567 26.8623 34.5881 27.1695L35.7482 25.5404ZM34.93 24.7948C34.7941 24.6339 34.6672 24.462 34.5494 24.2786L32.8666 25.3594C33.0304 25.6144 33.2088 25.8565 33.4019 26.0852L34.93 24.7948ZM33.9737 23.0953C33.8291 22.6934 33.7129 22.2516 33.6274 21.7676L31.6579 22.1154C31.761 22.6996 31.9049 23.2527 32.0918 23.7723L33.9737 23.0953ZM33.4734 20.3575C33.4618 20.1239 33.4559 19.8831 33.4559 19.635H31.4559C31.4559 19.9146 31.4626 20.1886 31.4759 20.457L33.4734 20.3575ZM33.4559 19.635V18.465H31.4559V19.635H33.4559ZM33.4559 16.125V14.955H31.4559V16.125H33.4559ZM33.4559 14.955C33.4559 14.7069 33.4618 14.4661 33.4734 14.2324L31.4759 14.133C31.4626 14.4014 31.4559 14.6754 31.4559 14.955H33.4559ZM33.6274 12.8224C33.7129 12.3384 33.8291 11.8966 33.9737 11.4947L32.0918 10.8177C31.9049 11.3373 31.761 11.8904 31.6579 12.4746L33.6274 12.8224ZM34.5494 10.3114C34.6672 10.128 34.7941 9.95607 34.93 9.79518L33.4019 8.50482C33.2088 8.73354 33.0304 8.97562 32.8666 9.23057L34.5494 10.3114ZM34.9216 9.80493C35.1753 9.51224 35.4508 9.26139 35.7482 9.04962L34.5881 7.42046C34.1567 7.72767 33.7641 8.08679 33.4102 8.49507L34.9216 9.80493ZM37.8353 8.21821C38.204 8.15686 38.6004 8.125 39.0259 8.125V6.125C38.5008 6.125 37.9941 6.16431 37.5071 6.24532L37.8353 8.21821ZM39.0259 8.125C39.4492 8.125 39.8426 8.15652 40.2077 8.21712L40.5352 6.24411C40.0518 6.16388 39.5482 6.125 39.0259 6.125V8.125ZM42.2692 9.0426C42.5612 9.25337 42.8304 9.50326 43.0769 9.79518L44.605 8.50482C44.2571 8.09287 43.8688 7.73064 43.4399 7.42104L42.2692 9.0426ZM43.0852 9.80493C43.224 9.96505 43.3535 10.1359 43.4737 10.3179L45.1427 9.21585C44.9754 8.96254 44.7934 8.72214 44.5966 8.49507L43.0852 9.80493ZM44.0633 11.4958C44.2119 11.8969 44.3314 12.3379 44.4193 12.8212L46.387 12.4633C46.2804 11.8771 46.1319 11.3223 45.9388 10.8011L44.0633 11.4958ZM44.5779 14.2316C44.5899 14.4655 44.5959 14.7066 44.5959 14.955H46.5959C46.5959 14.6741 46.5891 14.3988 46.5753 14.1292L44.5779 14.2316ZM44.5959 14.955V16.125H46.5959V14.955H44.5959ZM44.5959 18.465V19.635H46.5959V18.465H44.5959ZM44.5959 19.635C44.5959 19.8834 44.5899 20.1245 44.5779 20.3584L46.5753 20.4608C46.5891 20.1911 46.5959 19.9159 46.5959 19.635H44.5959ZM44.4193 21.7688C44.3314 22.2521 44.2119 22.6931 44.0633 23.0942L45.9388 23.7889C46.1319 23.2677 46.2804 22.7129 46.387 22.1267L44.4193 21.7688ZM43.4737 24.2721C43.3535 24.4541 43.224 24.6249 43.0852 24.7851L44.5966 26.0949C44.7934 25.8679 44.9754 25.6275 45.1427 25.3741L43.4737 24.2721ZM43.0769 24.7948C42.8304 25.0867 42.5612 25.3366 42.2692 25.5474L43.4399 27.169C43.8688 26.8594 44.2571 26.4971 44.605 26.0852L43.0769 24.7948ZM40.2077 26.3729C39.8426 26.4335 39.4492 26.465 39.0259 26.465V28.465C39.5482 28.465 40.0518 28.4261 40.5352 28.3459L40.2077 26.3729ZM58.55 33H58.05V33.5H58.55V33ZM58.55 1.59V1.09H58.05V1.59H58.55ZM65.39 1.59H65.89V1.09H65.39V1.59ZM65.39 26.925H64.89V27.425H65.39V26.925ZM77.36 26.925H77.86V26.425H77.36V26.925ZM77.36 33V33.5H77.86V33H77.36ZM59.05 33V32.0184H58.05V33H59.05ZM59.05 30.0553V28.0922H58.05V30.0553H59.05ZM59.05 26.1291V24.1659H58.05V26.1291H59.05ZM59.05 22.2028V20.2397H58.05V22.2028H59.05ZM59.05 18.2766V16.3134H58.05V18.2766H59.05ZM59.05 14.3503V12.3872H58.05V14.3503H59.05ZM59.05 10.4241V8.46094H58.05V10.4241H59.05ZM59.05 6.49781V4.53469H58.05V6.49781H59.05ZM59.05 2.57156V1.59H58.05V2.57156H59.05ZM58.55 2.09H59.405V1.09H58.55V2.09ZM61.115 2.09H62.825V1.09H61.115V2.09ZM64.535 2.09H65.39V1.09H64.535V2.09ZM64.89 1.59V2.64562H65.89V1.59H64.89ZM64.89 4.75687V6.86813H65.89V4.75687H64.89ZM64.89 8.97937V11.0906H65.89V8.97937H64.89ZM64.89 13.2019V15.3131H65.89V13.2019H64.89ZM64.89 17.4244V19.5356H65.89V17.4244H64.89ZM64.89 21.6469V23.7581H65.89V21.6469H64.89ZM64.89 25.8694V26.925H65.89V25.8694H64.89ZM65.39 27.425H66.3875V26.425H65.39V27.425ZM68.3825 27.425H70.3775V26.425H68.3825V27.425ZM72.3725 27.425H74.3675V26.425H72.3725V27.425ZM76.3625 27.425H77.36V26.425H76.3625V27.425ZM76.86 26.925V27.6844H77.86V26.925H76.86ZM76.86 29.2031V30.7219H77.86V29.2031H76.86ZM76.86 32.2406V33H77.86V32.2406H76.86ZM77.36 32.5H76.4195V33.5H77.36V32.5ZM74.5385 32.5H72.6575V33.5H74.5385V32.5ZM70.7765 32.5H68.8955V33.5H70.7765V32.5ZM67.0145 32.5H65.1335V33.5H67.0145V32.5ZM63.2525 32.5H61.3715V33.5H63.2525V32.5ZM59.4905 32.5H58.55V33.5H59.4905V32.5ZM58.55 33H57.55V34H58.55V33ZM58.55 1.59V0.589999H57.55V1.59H58.55ZM65.39 1.59H66.39V0.589999H65.39V1.59ZM65.39 26.925H64.39V27.925H65.39V26.925ZM77.36 26.925H78.36V25.925H77.36V26.925ZM77.36 33V34H78.36V33H77.36ZM59.55 33V32.0184H57.55V33H59.55ZM59.55 30.0553V28.0922H57.55V30.0553H59.55ZM59.55 26.1291V24.1659H57.55V26.1291H59.55ZM59.55 22.2028V20.2397H57.55V22.2028H59.55ZM59.55 18.2766V16.3134H57.55V18.2766H59.55ZM59.55 14.3503V12.3872H57.55V14.3503H59.55ZM59.55 10.4241V8.46094H57.55V10.4241H59.55ZM59.55 6.49781V4.53469H57.55V6.49781H59.55ZM59.55 2.57156V1.59H57.55V2.57156H59.55ZM58.55 2.59H59.405V0.589999H58.55V2.59ZM61.115 2.59H62.825V0.589999H61.115V2.59ZM64.535 2.59H65.39V0.589999H64.535V2.59ZM64.39 1.59V2.64562H66.39V1.59H64.39ZM64.39 4.75687V6.86813H66.39V4.75687H64.39ZM64.39 8.97937V11.0906H66.39V8.97937H64.39ZM64.39 13.2019V15.3131H66.39V13.2019H64.39ZM64.39 17.4244V19.5356H66.39V17.4244H64.39ZM64.39 21.6469V23.7581H66.39V21.6469H64.39ZM64.39 25.8694V26.925H66.39V25.8694H64.39ZM65.39 27.925H66.3875V25.925H65.39V27.925ZM68.3825 27.925H70.3775V25.925H68.3825V27.925ZM72.3725 27.925H74.3675V25.925H72.3725V27.925ZM76.3625 27.925H77.36V25.925H76.3625V27.925ZM76.36 26.925V27.6844H78.36V26.925H76.36ZM76.36 29.2031V30.7219H78.36V29.2031H76.36ZM76.36 32.2406V33H78.36V32.2406H76.36ZM77.36 32H76.4195V34H77.36V32ZM74.5385 32H72.6575V34H74.5385V32ZM70.7765 32H68.8955V34H70.7765V32ZM67.0145 32H65.1335V34H67.0145V32ZM63.2525 32H61.3715V34H63.2525V32ZM59.4905 32H58.55V34H59.4905V32ZM1.465 78H0.965V78.5H1.465V78ZM1.465 46.59V46.09H0.965V46.59H1.465ZM8.305 46.59H8.805V46.09H8.305V46.59ZM8.305 71.925H7.805V72.425H8.305V71.925ZM20.275 71.925H20.775V71.425H20.275V71.925ZM20.275 78V78.5H20.775V78H20.275ZM1.965 78V77.0184H0.965V78H1.965ZM1.965 75.0553V73.0922H0.965V75.0553H1.965ZM1.965 71.1291V69.1659H0.965V71.1291H1.965ZM1.965 67.2028V65.2397H0.965V67.2028H1.965ZM1.965 63.2766V61.3134H0.965V63.2766H1.965ZM1.965 59.3503V57.3872H0.965V59.3503H1.965ZM1.965 55.4241V53.4609H0.965V55.4241H1.965ZM1.965 51.4978V49.5347H0.965V51.4978H1.965ZM1.965 47.5716V46.59H0.965V47.5716H1.965ZM1.465 47.09H2.32V46.09H1.465V47.09ZM4.03 47.09H5.74V46.09H4.03V47.09ZM7.45 47.09H8.305V46.09H7.45V47.09ZM7.805 46.59V47.6456H8.805V46.59H7.805ZM7.805 49.7569V51.8681H8.805V49.7569H7.805ZM7.805 53.9794V56.0906H8.805V53.9794H7.805ZM7.805 58.2019V60.3131H8.805V58.2019H7.805ZM7.805 62.4244V64.5356H8.805V62.4244H7.805ZM7.805 66.6469V68.7581H8.805V66.6469H7.805ZM7.805 70.8694V71.925H8.805V70.8694H7.805ZM8.305 72.425H9.3025V71.425H8.305V72.425ZM11.2975 72.425H13.2925V71.425H11.2975V72.425ZM15.2875 72.425H17.2825V71.425H15.2875V72.425ZM19.2775 72.425H20.275V71.425H19.2775V72.425ZM19.775 71.925V72.6844H20.775V71.925H19.775ZM19.775 74.2031V75.7219H20.775V74.2031H19.775ZM19.775 77.2406V78H20.775V77.2406H19.775ZM20.275 77.5H19.3345V78.5H20.275V77.5ZM17.4535 77.5H15.5725V78.5H17.4535V77.5ZM13.6915 77.5H11.8105V78.5H13.6915V77.5ZM9.9295 77.5H8.0485V78.5H9.9295V77.5ZM6.1675 77.5H4.2865V78.5H6.1675V77.5ZM2.4055 77.5H1.465V78.5H2.4055V77.5ZM1.465 78H0.465V79H1.465V78ZM1.465 46.59V45.59H0.465V46.59H1.465ZM8.305 46.59H9.305V45.59H8.305V46.59ZM8.305 71.925H7.305V72.925H8.305V71.925ZM20.275 71.925H21.275V70.925H20.275V71.925ZM20.275 78V79H21.275V78H20.275ZM2.465 78V77.0184H0.465V78H2.465ZM2.465 75.0553V73.0922H0.465V75.0553H2.465ZM2.465 71.1291V69.1659H0.465V71.1291H2.465ZM2.465 67.2028V65.2397H0.465V67.2028H2.465ZM2.465 63.2766V61.3134H0.465V63.2766H2.465ZM2.465 59.3503V57.3872H0.465V59.3503H2.465ZM2.465 55.4241V53.4609H0.465V55.4241H2.465ZM2.465 51.4978V49.5347H0.465V51.4978H2.465ZM2.465 47.5716V46.59H0.465V47.5716H2.465ZM1.465 47.59H2.32V45.59H1.465V47.59ZM4.03 47.59H5.74V45.59H4.03V47.59ZM7.45 47.59H8.305V45.59H7.45V47.59ZM7.305 46.59V47.6456H9.305V46.59H7.305ZM7.305 49.7569V51.8681H9.305V49.7569H7.305ZM7.305 53.9794V56.0906H9.305V53.9794H7.305ZM7.305 58.2019V60.3131H9.305V58.2019H7.305ZM7.305 62.4244V64.5356H9.305V62.4244H7.305ZM7.305 66.6469V68.7581H9.305V66.6469H7.305ZM7.305 70.8694V71.925H9.305V70.8694H7.305ZM8.305 72.925H9.3025V70.925H8.305V72.925ZM11.2975 72.925H13.2925V70.925H11.2975V72.925ZM15.2875 72.925H17.2825V70.925H15.2875V72.925ZM19.2775 72.925H20.275V70.925H19.2775V72.925ZM19.275 71.925V72.6844H21.275V71.925H19.275ZM19.275 74.2031V75.7219H21.275V74.2031H19.275ZM19.275 77.2406V78H21.275V77.2406H19.275ZM20.275 77H19.3345V79H20.275V77ZM17.4535 77H15.5725V79H17.4535V77ZM13.6915 77H11.8105V79H13.6915V77ZM9.9295 77H8.0485V79H9.9295V77ZM6.1675 77H4.2865V79H6.1675V77ZM2.4055 77H1.465V79H2.4055V77ZM30.4555 77.505L30.2685 77.9687L30.2685 77.9687L30.4555 77.505ZM26.0905 74.445L25.7132 74.7731L25.7168 74.7772L26.0905 74.445ZM23.3005 69.36L22.8248 69.5139L22.8255 69.516L23.3005 69.36ZM23.3005 55.275L23.7756 55.431L23.7763 55.4289L23.3005 55.275ZM26.0905 50.19L26.4643 50.5222L26.4678 50.5181L26.0905 50.19ZM30.4555 47.085L30.2685 46.6213L30.2685 46.6213L30.4555 47.085ZM41.7955 47.085L41.6085 47.5487L41.6085 47.5487L41.7955 47.085ZM46.1605 50.19L45.7832 50.5181L45.7868 50.5222L46.1605 50.19ZM48.9505 55.275L48.4748 55.4289L48.4755 55.431L48.9505 55.275ZM48.9505 69.36L49.4256 69.516L49.4263 69.5139L48.9505 69.36ZM46.1605 74.445L46.5343 74.7772L46.5379 74.7731L46.1605 74.445ZM41.7955 77.505L41.6085 77.0413L41.6085 77.0413L41.7955 77.505ZM40.9405 70.44L40.5627 70.1125L40.5585 70.1174L40.9405 70.44ZM40.9405 54.15L40.5585 54.4726L40.5627 54.4775L40.9405 54.15ZM31.2655 54.15L30.8877 53.8225L30.8835 53.8274L31.2655 54.15ZM31.2655 70.44L30.8835 70.7626L30.8877 70.7675L31.2655 70.44ZM36.1255 78.04C35.6458 78.04 35.1768 78.021 34.7184 77.983L34.6359 78.9796C35.1227 79.0199 35.6193 79.04 36.1255 79.04V78.04ZM31.963 77.4924C31.5107 77.3644 31.0706 77.214 30.6426 77.0413L30.2685 77.9687C30.7303 78.155 31.2044 78.317 31.6907 78.4546L31.963 77.4924ZM30.6426 77.0413C30.238 76.8781 29.8489 76.6958 29.4752 76.4947L29.0013 77.3753C29.4082 77.5942 29.8306 77.792 30.2685 77.9687L30.6426 77.0413ZM27.3725 75.0237C27.0548 74.7401 26.752 74.4366 26.4643 74.1128L25.7168 74.7772C26.0298 75.1293 26.3598 75.4602 26.7067 75.7698L27.3725 75.0237ZM26.4678 74.1169C26.165 73.7686 25.8797 73.399 25.6119 73.0077L24.7866 73.5725C25.0757 73.9948 25.3845 74.395 25.7132 74.7731L26.4678 74.1169ZM24.2721 70.5324C24.0924 70.1074 23.9269 69.6647 23.7756 69.204L22.8255 69.516C22.985 70.0016 23.1601 70.4703 23.351 70.9218L24.2721 70.5324ZM23.7763 69.2061C23.6883 68.9342 23.6063 68.6562 23.5302 68.3722L22.5642 68.6308C22.6446 68.9309 22.7315 69.2253 22.8248 69.5139L23.7763 69.2061ZM23.1582 66.6675C23.0619 66.1088 22.9855 65.5299 22.9291 64.9307L21.9335 65.0244C21.9922 65.6477 22.0719 66.252 22.1728 66.8374L23.1582 66.6675ZM22.8231 63.1761C22.8147 62.8866 22.8105 62.5929 22.8105 62.295H21.8105C21.8105 62.6022 21.8148 62.9055 21.8235 63.2048L22.8231 63.1761ZM22.8105 62.295C22.8105 61.9988 22.8147 61.7069 22.8229 61.4193L21.8233 61.3907C21.8148 61.6881 21.8105 61.9895 21.8105 62.295H22.8105ZM22.9281 59.6758C22.9842 59.0794 23.0603 58.5043 23.1562 57.9503L22.1709 57.7797C22.0703 58.3607 21.9909 58.9615 21.9325 59.5821L22.9281 59.6758ZM23.5284 56.258C23.6048 55.9758 23.6872 55.7002 23.7756 55.431L22.8255 55.119C22.7314 55.4054 22.644 55.698 22.5632 55.9967L23.5284 56.258ZM23.7763 55.4289C23.926 54.966 24.0897 54.5224 24.2672 54.0979L23.3447 53.7121C23.1559 54.1635 22.9827 54.6332 22.8248 55.1211L23.7763 55.4289ZM25.6028 51.623C25.8723 51.232 26.1594 50.8651 26.4643 50.5222L25.7168 49.8578C25.3839 50.2324 25.0714 50.6318 24.7793 51.0557L25.6028 51.623ZM26.4678 50.5181C26.7542 50.1888 27.0553 49.8805 27.3711 49.5929L26.6979 48.8535C26.3528 49.1677 26.0246 49.5039 25.7132 49.8619L26.4678 50.5181ZM29.4718 48.0999C29.8466 47.8962 30.2368 47.7124 30.6426 47.5487L30.2685 46.6213C29.8281 46.799 29.4033 46.999 28.9943 47.2212L29.4718 48.0999ZM30.6426 47.5487C31.0706 47.376 31.5107 47.2256 31.963 47.0976L31.6907 46.1354C31.2044 46.273 30.7303 46.435 30.2685 46.6213L30.6426 47.5487ZM34.7184 46.607C35.1768 46.569 35.6458 46.55 36.1255 46.55V45.55C35.6193 45.55 35.1227 45.5701 34.6359 45.6104L34.7184 46.607ZM36.1255 46.55C36.6053 46.55 37.0743 46.569 37.5327 46.607L37.6152 45.6104C37.1284 45.5701 36.6318 45.55 36.1255 45.55V46.55ZM40.2881 47.0976C40.7404 47.2256 41.1805 47.376 41.6085 47.5487L41.9826 46.6213C41.5208 46.435 41.0467 46.273 40.5604 46.1354L40.2881 47.0976ZM41.6085 47.5487C42.0143 47.7124 42.4045 47.8962 42.7793 48.0999L43.2568 47.2212C42.8478 46.999 42.423 46.799 41.9826 46.6213L41.6085 47.5487ZM44.88 49.5929C45.1958 49.8805 45.4969 50.1888 45.7832 50.5181L46.5379 49.8619C46.2265 49.5039 45.8983 49.1677 45.5532 48.8535L44.88 49.5929ZM45.7868 50.5222C46.0917 50.8651 46.3788 51.232 46.6483 51.623L47.4718 51.0557C47.1797 50.6318 46.8672 50.2324 46.5343 49.8578L45.7868 50.5222ZM47.9839 54.0979C48.1614 54.5224 48.3251 54.966 48.4748 55.4289L49.4263 55.1211C49.2684 54.6332 49.0952 54.1635 48.9064 53.7121L47.9839 54.0979ZM48.4755 55.431C48.5639 55.7002 48.6463 55.9758 48.7227 56.258L49.6879 55.9967C49.6071 55.698 49.5196 55.4054 49.4256 55.119L48.4755 55.431ZM49.0949 57.9503C49.1908 58.5043 49.2669 59.0794 49.323 59.6758L50.3186 59.5821C50.2602 58.9615 50.1808 58.3607 50.0802 57.7797L49.0949 57.9503ZM49.4282 61.4193C49.4364 61.7069 49.4405 61.9988 49.4405 62.295H50.4405C50.4405 61.9895 50.4363 61.6881 50.4278 61.3907L49.4282 61.4193ZM49.4405 62.295C49.4405 62.5929 49.4364 62.8866 49.428 63.1761L50.4276 63.2048C50.4362 62.9055 50.4405 62.6022 50.4405 62.295H49.4405ZM49.322 64.9307C49.2656 65.5299 49.1892 66.1088 49.0929 66.6675L50.0783 66.8374C50.1792 66.252 50.2589 65.6477 50.3176 65.0244L49.322 64.9307ZM48.7209 68.3722C48.6448 68.6562 48.5628 68.9342 48.4748 69.2061L49.4263 69.5139C49.5196 69.2253 49.6065 68.9309 49.6868 68.6308L48.7209 68.3722ZM48.4755 69.204C48.3242 69.6647 48.1587 70.1074 47.979 70.5324L48.9001 70.9218C49.091 70.4703 49.2661 70.0016 49.4256 69.516L48.4755 69.204ZM46.6392 73.0077C46.3714 73.399 46.0861 73.7686 45.7832 74.1169L46.5379 74.7731C46.8666 74.395 47.1754 73.9948 47.4645 73.5725L46.6392 73.0077ZM45.7868 74.1128C45.4991 74.4366 45.1963 74.7401 44.8786 75.0237L45.5444 75.7698C45.8913 75.4602 46.2213 75.1293 46.5343 74.7772L45.7868 74.1128ZM42.7759 76.4947C42.4022 76.6958 42.0131 76.8781 41.6085 77.0413L41.9826 77.9687C42.4205 77.792 42.8429 77.5942 43.2498 77.3753L42.7759 76.4947ZM41.6085 77.0413C41.1805 77.214 40.7404 77.3644 40.2881 77.4924L40.5604 78.4546C41.0467 78.317 41.5208 78.155 41.9826 77.9687L41.6085 77.0413ZM37.5327 77.983C37.0743 78.021 36.6053 78.04 36.1255 78.04V79.04C36.6318 79.04 37.1284 79.0199 37.6152 78.9796L37.5327 77.983ZM36.1255 71.965C35.6751 71.965 35.2512 71.9313 34.8529 71.865L34.6888 72.8515C35.1462 72.9275 35.6253 72.965 36.1255 72.965V71.965ZM32.5578 70.9477C32.2269 70.712 31.9221 70.4341 31.6434 70.1125L30.8877 70.7675C31.2165 71.1468 31.5798 71.4789 31.9778 71.7622L32.5578 70.9477ZM31.6476 70.1174C31.4974 69.9396 31.3576 69.7501 31.2283 69.5488L30.3869 70.0892C30.5392 70.3263 30.7047 70.5508 30.8835 70.7626L31.6476 70.1174ZM30.6029 68.2646C30.4477 67.8332 30.3245 67.3636 30.2346 66.8545L29.2499 67.0284C29.3486 67.5876 29.4855 68.1129 29.6619 68.6031L30.6029 68.2646ZM30.0737 65.3824C30.0616 65.1401 30.0555 64.891 30.0555 64.635H29.0555C29.0555 64.9067 29.062 65.1724 29.0749 65.4321L30.0737 65.3824ZM30.0555 64.635V63.465H29.0555V64.635H30.0555ZM30.0555 61.125V59.955H29.0555V61.125H30.0555ZM30.0555 59.955C30.0555 59.699 30.0616 59.4499 30.0737 59.2076L29.0749 59.1579C29.062 59.4176 29.0555 59.6833 29.0555 59.955H30.0555ZM30.2346 57.7355C30.3245 57.2264 30.4477 56.7568 30.6029 56.3254L29.6619 55.9869C29.4855 56.4771 29.3486 57.0024 29.2499 57.5616L30.2346 57.7355ZM31.2283 55.0412C31.3576 54.8399 31.4974 54.6504 31.6476 54.4726L30.8835 53.8274C30.7047 54.0392 30.5392 54.2637 30.3869 54.5008L31.2283 55.0412ZM31.6434 54.4775C31.9221 54.1559 32.2269 53.878 32.5578 53.6423L31.9778 52.8278C31.5798 53.1111 31.2165 53.4432 30.8877 53.8225L31.6434 54.4775ZM34.8529 52.725C35.2512 52.6587 35.6751 52.625 36.1255 52.625V51.625C35.6253 51.625 35.1462 51.6624 34.6888 51.7385L34.8529 52.725ZM36.1255 52.625C36.5735 52.625 36.9945 52.6584 37.3892 52.7239L37.5529 51.7374C37.0991 51.662 36.6231 51.625 36.1255 51.625V52.625ZM39.6615 53.6372C39.9877 53.8727 40.2867 54.1507 40.5585 54.4726L41.3226 53.8274C41 53.4455 40.6415 53.1113 40.2469 52.8264L39.6615 53.6372ZM40.5627 54.4775C40.716 54.6543 40.8586 54.8426 40.9906 55.0424L41.8251 54.4914C41.6696 54.2559 41.5007 54.0329 41.3184 53.8225L40.5627 54.4775ZM41.6318 56.3221C41.7915 56.7532 41.9183 57.2227 42.0109 57.7317L42.9947 57.5528C42.8928 56.9923 42.7515 56.4659 42.5695 55.9747L41.6318 56.3221ZM42.1768 59.206C42.1893 59.4488 42.1955 59.6985 42.1955 59.955H43.1955C43.1955 59.6822 43.1889 59.4155 43.1755 59.1548L42.1768 59.206ZM42.1955 59.955V61.125H43.1955V59.955H42.1955ZM42.1955 63.465V64.635H43.1955V63.465H42.1955ZM42.1955 64.635C42.1955 64.8915 42.1893 65.1412 42.1768 65.384L43.1755 65.4352C43.1889 65.1745 43.1955 64.9078 43.1955 64.635H42.1955ZM42.0109 66.8583C41.9183 67.3673 41.7915 67.8368 41.6318 68.2679L42.5695 68.6153C42.7515 68.1241 42.8928 67.5977 42.9947 67.0372L42.0109 66.8583ZM40.9906 69.5476C40.8586 69.7474 40.716 69.9357 40.5627 70.1125L41.3184 70.7675C41.5007 70.5571 41.6696 70.3341 41.8251 70.0986L40.9906 69.5476ZM40.5585 70.1174C40.2867 70.4393 39.9877 70.7173 39.6615 70.9528L40.2469 71.7636C40.6415 71.4787 41 71.1445 41.3226 70.7626L40.5585 70.1174ZM37.3892 71.8661C36.9945 71.9316 36.5735 71.965 36.1255 71.965V72.965C36.6231 72.965 37.0991 72.928 37.5529 72.8526L37.3892 71.8661ZM30.4555 77.505L30.0814 78.4324L30.0814 78.4324L30.4555 77.505ZM26.0905 74.445L25.3359 75.1012L25.3431 75.1094L26.0905 74.445ZM23.3005 69.36L22.3491 69.6678L22.3505 69.672L23.3005 69.36ZM23.3005 55.275L24.2506 55.587L24.252 55.5828L23.3005 55.275ZM26.0905 50.19L26.838 50.8544L26.8452 50.8462L26.0905 50.19ZM30.4555 47.085L30.0814 46.1576L30.0814 46.1576L30.4555 47.085ZM41.7955 47.085L41.4214 48.0123L41.4214 48.0123L41.7955 47.085ZM46.1605 50.19L45.4059 50.8462L45.4131 50.8544L46.1605 50.19ZM48.9505 55.275L47.9991 55.5828L48.0005 55.587L48.9505 55.275ZM48.9505 69.36L49.9006 69.672L49.902 69.6678L48.9505 69.36ZM46.1605 74.445L46.908 75.1094L46.9152 75.1012L46.1605 74.445ZM41.7955 77.505L41.4214 76.5776L41.4214 76.5776L41.7955 77.505ZM40.9405 70.44L40.1848 69.785L40.1765 69.7948L40.9405 70.44ZM40.9405 54.15L40.1765 54.7952L40.1849 54.8049L40.9405 54.15ZM31.2655 54.15L30.5098 53.495L30.5015 53.5048L31.2655 54.15ZM31.2655 70.44L30.5015 71.0852L30.5099 71.0949L31.2655 70.44ZM36.1255 77.54C35.659 77.54 35.2038 77.5215 34.7597 77.4847L34.5946 79.4779C35.0957 79.5194 35.6061 79.54 36.1255 79.54V77.54ZM32.0992 77.0113C31.6639 76.8881 31.2408 76.7435 30.8297 76.5776L30.0814 78.4324C30.5601 78.6255 31.0513 78.7933 31.5545 78.9357L32.0992 77.0113ZM30.8297 76.5776C30.4417 76.4211 30.0693 76.2466 29.7121 76.0544L28.7644 77.8156C29.1878 78.0435 29.6269 78.249 30.0814 78.4324L30.8297 76.5776ZM27.7054 74.6506C27.4023 74.3801 27.1131 74.0902 26.838 73.7806L25.3431 75.1094C25.6687 75.4756 26.0123 75.8202 26.3738 76.1428L27.7054 74.6506ZM26.8452 73.7888C26.5553 73.4554 26.2817 73.101 26.0245 72.7253L24.374 73.8548C24.6737 74.2927 24.9943 74.7082 25.3359 75.1012L26.8452 73.7888ZM24.7326 70.3377C24.5585 69.926 24.3978 69.4962 24.2506 69.048L22.3505 69.672C22.514 70.1701 22.6939 70.6517 22.8905 71.1165L24.7326 70.3377ZM24.252 69.0522C24.1667 68.7886 24.0871 68.5189 24.0132 68.2428L22.0813 68.7601C22.1638 69.0683 22.253 69.3709 22.3491 69.6678L24.252 69.0522ZM23.651 66.5826C23.557 66.0372 23.4822 65.471 23.4269 64.8839L21.4357 65.0712C21.4955 65.7065 21.5768 66.3236 21.68 66.9223L23.651 66.5826ZM23.3228 63.1617C23.3147 62.8771 23.3105 62.5882 23.3105 62.295H21.3105C21.3105 62.6069 21.3149 62.9149 21.3237 63.2192L23.3228 63.1617ZM23.3105 62.295C23.3105 62.0034 23.3146 61.7163 23.3227 61.4337L21.3235 61.3764C21.3149 61.6787 21.3105 61.9849 21.3105 62.295H23.3105ZM23.4259 59.7226C23.4809 59.1383 23.5553 58.5761 23.6489 58.0356L21.6782 57.6944C21.5753 58.2889 21.4942 58.9026 21.4347 59.5353L23.4259 59.7226ZM24.0111 56.3886C24.0852 56.1148 24.1651 55.8476 24.2506 55.587L22.3505 54.963C22.2536 55.2581 22.1636 55.5591 22.0805 55.8661L24.0111 56.3886ZM24.252 55.5828C24.3977 55.1324 24.5566 54.7019 24.7285 54.2908L22.8834 53.5192C22.689 53.984 22.511 54.4668 22.3491 54.9672L24.252 55.5828ZM26.0145 51.9067C26.2727 51.5321 26.5472 51.1814 26.838 50.8544L25.3431 49.5256C24.9961 49.9161 24.671 50.3317 24.3676 50.772L26.0145 51.9067ZM26.8452 50.8462C27.119 50.5313 27.4065 50.2369 27.7077 49.9627L26.3613 48.4838C26.0015 48.8113 25.6598 49.1614 25.3359 49.5338L26.8452 50.8462ZM29.7105 48.5392C30.0682 48.3448 30.4412 48.1691 30.8297 48.0123L30.0814 46.1576C29.6237 46.3423 29.1817 46.5503 28.7555 46.7819L29.7105 48.5392ZM30.8297 48.0123C31.2408 47.8465 31.6639 47.7019 32.0992 47.5787L31.5545 45.6543C31.0513 45.7967 30.5601 45.9645 30.0814 46.1576L30.8297 48.0123ZM34.7597 47.1053C35.2038 47.0685 35.659 47.05 36.1255 47.05V45.05C35.6061 45.05 35.0957 45.0706 34.5946 45.1121L34.7597 47.1053ZM36.1255 47.05C36.5921 47.05 37.0473 47.0685 37.4914 47.1053L37.6565 45.1121C37.1554 45.0706 36.645 45.05 36.1255 45.05V47.05ZM40.1519 47.5787C40.5872 47.7019 41.0103 47.8465 41.4214 48.0123L42.1697 46.1576C41.691 45.9645 41.1998 45.7967 40.6966 45.6543L40.1519 47.5787ZM41.4214 48.0123C41.8099 48.1691 42.1829 48.3448 42.5406 48.5392L43.4956 46.7819C43.0694 46.5503 42.6274 46.3423 42.1697 46.1576L41.4214 48.0123ZM44.5434 49.9627C44.8446 50.2369 45.1321 50.5313 45.4059 50.8462L46.9152 49.5338C46.5913 49.1614 46.2496 48.8113 45.8898 48.4838L44.5434 49.9627ZM45.4131 50.8544C45.7039 51.1814 45.9784 51.5321 46.2366 51.9067L47.8835 50.772C47.5801 50.3317 47.255 49.9161 46.908 49.5256L45.4131 50.8544ZM47.5226 54.2908C47.6945 54.7019 47.8534 55.1324 47.9991 55.5828L49.902 54.9672C49.7401 54.4668 49.5621 53.984 49.3677 53.5192L47.5226 54.2908ZM48.0005 55.587C48.086 55.8476 48.1659 56.1148 48.24 56.3886L50.1706 55.8661C50.0875 55.5591 49.9975 55.2581 49.9006 54.963L48.0005 55.587ZM48.6022 58.0356C48.6958 58.5761 48.7702 59.1383 48.8252 59.7226L50.8164 59.5353C50.7569 58.9026 50.6758 58.2889 50.5729 57.6944L48.6022 58.0356ZM48.9284 61.4337C48.9365 61.7163 48.9405 62.0034 48.9405 62.295H50.9405C50.9405 61.9849 50.9362 61.6787 50.9276 61.3764L48.9284 61.4337ZM48.9405 62.295C48.9405 62.5882 48.9364 62.8771 48.9283 63.1617L50.9274 63.2192C50.9362 62.9149 50.9405 62.6069 50.9405 62.295H48.9405ZM48.8242 64.8839C48.7689 65.471 48.6941 66.0372 48.6001 66.5826L50.5711 66.9223C50.6742 66.3236 50.7556 65.7065 50.8154 65.0712L48.8242 64.8839ZM48.2379 68.2428C48.164 68.5189 48.0844 68.7886 47.9991 69.0522L49.902 69.6678C49.9981 69.3709 50.0873 69.0683 50.1698 68.7601L48.2379 68.2428ZM48.0005 69.048C47.8533 69.4962 47.6926 69.926 47.5185 70.3377L49.3606 71.1165C49.5571 70.6517 49.7371 70.1701 49.9006 69.672L48.0005 69.048ZM46.2266 72.7253C45.9694 73.101 45.6958 73.4554 45.4059 73.7888L46.9152 75.1012C47.2568 74.7082 47.5774 74.2927 47.8771 73.8548L46.2266 72.7253ZM45.4131 73.7806C45.138 74.0902 44.8488 74.3801 44.5457 74.6506L45.8773 76.1428C46.2388 75.8202 46.5824 75.4756 46.908 75.1094L45.4131 73.7806ZM42.539 76.0544C42.1818 76.2466 41.8094 76.4211 41.4214 76.5776L42.1697 78.4324C42.6242 78.249 43.0633 78.0435 43.4867 77.8156L42.539 76.0544ZM41.4214 76.5776C41.0103 76.7435 40.5872 76.8881 40.1519 77.0113L40.6966 78.9357C41.1998 78.7933 41.691 78.6255 42.1697 78.4324L41.4214 76.5776ZM37.4914 77.4847C37.0473 77.5215 36.5921 77.54 36.1255 77.54V79.54C36.645 79.54 37.1554 79.5194 37.6565 79.4779L37.4914 77.4847ZM36.1255 71.465C35.7001 71.465 35.3037 71.4331 34.9349 71.3718L34.6067 73.3447C35.0937 73.4257 35.6004 73.465 36.1255 73.465V71.465ZM32.8478 70.5404C32.5504 70.3286 32.2749 70.0778 32.0212 69.7851L30.5099 71.0949C30.8637 71.5032 31.2563 71.8623 31.6877 72.1695L32.8478 70.5404ZM32.0296 69.7948C31.8937 69.6339 31.7668 69.462 31.649 69.2786L29.9662 70.3594C30.13 70.6144 30.3084 70.8565 30.5015 71.0852L32.0296 69.7948ZM31.0733 68.0953C30.9288 67.6934 30.8125 67.2516 30.727 66.7676L28.7575 67.1154C28.8607 67.6996 29.0045 68.2527 29.1914 68.7723L31.0733 68.0953ZM30.5731 65.3575C30.5614 65.1239 30.5555 64.8831 30.5555 64.635H28.5555C28.5555 64.9146 28.5622 65.1886 28.5755 65.457L30.5731 65.3575ZM30.5555 64.635V63.465H28.5555V64.635H30.5555ZM30.5555 61.125V59.955H28.5555V61.125H30.5555ZM30.5555 59.955C30.5555 59.7069 30.5614 59.4661 30.5731 59.2324L28.5755 59.133C28.5622 59.4014 28.5555 59.6754 28.5555 59.955H30.5555ZM30.727 57.8224C30.8125 57.3384 30.9288 56.8966 31.0733 56.4947L29.1914 55.8177C29.0045 56.3373 28.8607 56.8904 28.7575 57.4746L30.727 57.8224ZM31.649 55.3114C31.7668 55.128 31.8937 54.9561 32.0296 54.7952L30.5015 53.5048C30.3084 53.7335 30.13 53.9756 29.9662 54.2306L31.649 55.3114ZM32.0212 54.8049C32.2749 54.5122 32.5504 54.2614 32.8478 54.0496L31.6877 52.4205C31.2563 52.7277 30.8637 53.0868 30.5099 53.4951L32.0212 54.8049ZM34.9349 53.2182C35.3037 53.1569 35.7001 53.125 36.1255 53.125V51.125C35.6004 51.125 35.0937 51.1643 34.6067 51.2453L34.9349 53.2182ZM36.1255 53.125C36.5488 53.125 36.9422 53.1565 37.3073 53.2171L37.6348 51.2441C37.1514 51.1639 36.6478 51.125 36.1255 51.125V53.125ZM39.3688 54.0426C39.6608 54.2534 39.93 54.5033 40.1765 54.7952L41.7046 53.5048C41.3567 53.0929 40.9684 52.7306 40.5395 52.421L39.3688 54.0426ZM40.1849 54.8049C40.3236 54.9651 40.4531 55.1359 40.5733 55.3179L42.2423 54.2159C42.075 53.9625 41.893 53.7221 41.6962 53.4951L40.1849 54.8049ZM41.1629 56.4958C41.3115 56.8969 41.431 57.3379 41.5189 57.8212L43.4866 57.4633C43.38 56.8771 43.2315 56.3223 43.0384 55.8011L41.1629 56.4958ZM41.6775 59.2316C41.6895 59.4655 41.6955 59.7066 41.6955 59.955H43.6955C43.6955 59.6741 43.6887 59.3988 43.6749 59.1292L41.6775 59.2316ZM41.6955 59.955V61.125H43.6955V59.955H41.6955ZM41.6955 63.465V64.635H43.6955V63.465H41.6955ZM41.6955 64.635C41.6955 64.8834 41.6895 65.1245 41.6775 65.3584L43.6749 65.4608C43.6887 65.1911 43.6955 64.9159 43.6955 64.635H41.6955ZM41.5189 66.7688C41.431 67.2521 41.3115 67.6931 41.1629 68.0942L43.0384 68.7889C43.2315 68.2677 43.38 67.7129 43.4866 67.1267L41.5189 66.7688ZM40.5733 69.2721C40.4531 69.4541 40.3236 69.6249 40.1849 69.7851L41.6962 71.0949C41.893 70.8679 42.075 70.6275 42.2423 70.3741L40.5733 69.2721ZM40.1765 69.7948C39.93 70.0867 39.6608 70.3366 39.3688 70.5474L40.5395 72.169C40.9684 71.8594 41.3567 71.4971 41.7046 71.0852L40.1765 69.7948ZM37.3073 71.3729C36.9422 71.4335 36.5488 71.465 36.1255 71.465V73.465C36.6478 73.465 37.1514 73.4261 37.6348 73.3459L37.3073 71.3729ZM59.5449 78L59.0572 78.1104L59.1454 78.5H59.5449V78ZM52.4349 46.59V46.09H51.8091L51.9472 46.7004L52.4349 46.59ZM59.1849 46.59L59.6755 46.4933L59.596 46.09H59.1849V46.59ZM62.1549 61.665L62.646 61.5713L62.6455 61.5684L62.1549 61.665ZM63.8199 70.395L63.3287 70.4887L63.4062 70.895H63.8199V70.395ZM63.9549 70.395V70.895H64.3542L64.4425 70.5056L63.9549 70.395ZM65.9349 61.665L65.4476 61.553L65.4473 61.5544L65.9349 61.665ZM69.3999 46.59V46.09H69.0018L68.9126 46.478L69.3999 46.59ZM76.8699 46.59L77.3569 46.4766L77.2668 46.09H76.8699V46.59ZM80.3799 61.665L80.8681 61.5568L80.8669 61.5516L80.3799 61.665ZM82.3149 70.395L81.8267 70.5032L81.9136 70.895H82.3149V70.395ZM82.4499 70.395V70.895H82.8635L82.941 70.4887L82.4499 70.395ZM84.1149 61.665L83.6246 61.5669L83.6237 61.5713L84.1149 61.665ZM87.1299 46.59V46.09H86.72L86.6396 46.4919L87.1299 46.59ZM93.6099 46.59L94.0969 46.703L94.2392 46.09H93.6099V46.59ZM86.3199 78V78.5H86.7171L86.8069 78.113L86.3199 78ZM78.5349 78L78.0479 78.1134L78.1379 78.5H78.5349V78ZM74.5749 60.99L74.0868 61.0985L74.0879 61.1034L74.5749 60.99ZM73.0449 54.105L73.533 53.9965L73.446 53.605H73.0449V54.105ZM72.9099 54.105V53.605H72.5113L72.4225 53.9935L72.9099 54.105ZM71.3349 60.99L71.8219 61.1034L71.8223 61.1015L71.3349 60.99ZM67.3749 78V78.5H67.7719L67.8619 78.1134L67.3749 78ZM60.0325 77.8896L59.8104 76.908L58.835 77.1288L59.0572 78.1104L60.0325 77.8896ZM59.366 74.9449L58.9216 72.9818L57.9463 73.2026L58.3907 75.1657L59.366 74.9449ZM58.4772 71.0187L58.0329 69.0555L57.0575 69.2763L57.5019 71.2394L58.4772 71.0187ZM57.5885 67.0924L57.1441 65.1293L56.1688 65.3501L56.6132 67.3132L57.5885 67.0924ZM56.6997 63.1662L56.2554 61.203L55.28 61.4238L55.7244 63.3869L56.6997 63.1662ZM55.811 59.2399L55.3666 57.2768L54.3913 57.4976L54.8357 59.4607L55.811 59.2399ZM54.9222 55.3137L54.4779 53.3506L53.5025 53.5713L53.9469 55.5344L54.9222 55.3137ZM54.0335 51.3874L53.5891 49.4243L52.6138 49.6451L53.0582 51.6082L54.0335 51.3874ZM53.1447 47.4612L52.9225 46.4796L51.9472 46.7004L52.1694 47.682L53.1447 47.4612ZM52.4349 47.09H53.2786V46.09H52.4349V47.09ZM54.9661 47.09H56.6536V46.09H54.9661V47.09ZM58.3411 47.09H59.1849V46.09H58.3411V47.09ZM58.6943 46.6866L58.8799 47.6288L59.8611 47.4355L59.6755 46.4933L58.6943 46.6866ZM59.2512 49.5132L59.6224 51.3976L60.6036 51.2043L60.2323 49.3199L59.2512 49.5132ZM59.9937 53.282L60.3649 55.1663L61.3461 54.973L60.9748 53.0887L59.9937 53.282ZM60.7362 57.0507L61.1074 58.9351L62.0886 58.7418L61.7173 56.8574L60.7362 57.0507ZM61.4787 60.8195L61.6643 61.7616L62.6455 61.5684L62.4598 60.6262L61.4787 60.8195ZM61.6637 61.7587L61.8719 62.8499L62.8542 62.6626L62.646 61.5713L61.6637 61.7587ZM62.2881 65.0324L62.7044 67.2149L63.6867 67.0276L63.2704 64.8451L62.2881 65.0324ZM63.1206 69.3974L63.3287 70.4887L64.311 70.3013L64.1029 69.2101L63.1206 69.3974ZM63.8199 70.895H63.8536V69.895H63.8199V70.895ZM63.9211 70.895H63.9549V69.895H63.9211V70.895ZM64.4425 70.5056L64.69 69.4143L63.7148 69.1932L63.4673 70.2844L64.4425 70.5056ZM65.185 67.2318L65.68 65.0493L64.7048 64.8282L64.2098 67.0107L65.185 67.2318ZM66.175 62.8668L66.4225 61.7756L65.4473 61.5544L65.1998 62.6457L66.175 62.8668ZM66.4222 61.777L66.6387 60.8348L65.6642 60.6108L65.4476 61.553L66.4222 61.777ZM67.0719 58.9504L67.505 57.0661L66.5304 56.8421L66.0973 58.7264L67.0719 58.9504ZM67.9381 55.1817L68.3712 53.2973L67.3967 53.0733L66.9635 54.9577L67.9381 55.1817ZM68.8044 51.4129L69.2375 49.5286L68.2629 49.3046L67.8298 51.1889L68.8044 51.4129ZM69.6706 47.6442L69.8872 46.702L68.9126 46.478L68.696 47.4202L69.6706 47.6442ZM69.3999 47.09H70.3336V46.09H69.3999V47.09ZM72.2011 47.09H74.0686V46.09H72.2011V47.09ZM75.9361 47.09H76.8699V46.09H75.9361V47.09ZM76.3829 46.7034L76.6023 47.6456L77.5762 47.4188L77.3569 46.4766L76.3829 46.7034ZM77.041 49.5299L77.4798 51.4143L78.4537 51.1876L78.015 49.3032L77.041 49.5299ZM77.9185 53.2987L78.3573 55.1831L79.3312 54.9563L78.8925 53.0719L77.9185 53.2987ZM78.796 57.0674L79.2348 58.9518L80.2087 58.7251L79.77 56.8407L78.796 57.0674ZM79.6735 60.8362L79.8929 61.7784L80.8669 61.5516L80.6475 60.6094L79.6735 60.8362ZM79.8917 61.7732L80.1336 62.8644L81.1099 62.6481L80.868 61.5568L79.8917 61.7732ZM80.6174 65.0469L81.1011 67.2294L82.0774 67.0131L81.5937 64.8306L80.6174 65.0469ZM81.5849 69.4119L81.8267 70.5032L82.803 70.2868L82.5612 69.1956L81.5849 69.4119ZM82.3149 70.895H82.3486V69.895H82.3149V70.895ZM82.4161 70.895H82.4499V69.895H82.4161V70.895ZM82.941 70.4887L83.1492 69.3974L82.1669 69.2101L81.9587 70.3013L82.941 70.4887ZM83.5654 67.2149L83.9817 65.0324L82.9994 64.8451L82.5831 67.0276L83.5654 67.2149ZM84.3979 62.8499L84.606 61.7587L83.6237 61.5713L83.4156 62.6626L84.3979 62.8499ZM84.6052 61.7631L84.7936 60.8209L83.813 60.6248L83.6246 61.5669L84.6052 61.7631ZM85.1705 58.9365L85.5474 57.0521L84.5668 56.856L84.1899 58.7404L85.1705 58.9365ZM85.9242 55.1677L86.3011 53.2834L85.3205 53.0873L84.9437 54.9716L85.9242 55.1677ZM86.678 51.399L87.0549 49.5146L86.0743 49.3185L85.6974 51.2029L86.678 51.399ZM87.4317 47.6302L87.6202 46.6881L86.6396 46.4919L86.4512 47.4341L87.4317 47.6302ZM87.1299 47.09H87.9399V46.09H87.1299V47.09ZM89.5599 47.09H91.1799V46.09H89.5599V47.09ZM92.7999 47.09H93.6099V46.09H92.7999V47.09ZM93.1228 46.477L92.895 47.4585L93.8691 47.6846L94.0969 46.703L93.1228 46.477ZM92.4394 49.4216L91.9838 51.3848L92.9579 51.6109L93.4135 49.6477L92.4394 49.4216ZM91.5281 53.3479L91.0725 55.311L92.0466 55.5371L92.5023 53.574L91.5281 53.3479ZM90.6169 57.2741L90.1613 59.2373L91.1354 59.4634L91.591 57.5002L90.6169 57.2741ZM89.7056 61.2004L89.25 63.1635L90.2241 63.3896L90.6798 61.4265L89.7056 61.2004ZM88.7944 65.1266L88.3388 67.0898L89.3129 67.3158L89.7685 65.3527L88.7944 65.1266ZM87.8831 69.0529L87.4275 71.016L88.4016 71.2421L88.8573 69.279L87.8831 69.0529ZM86.9719 72.9791L86.5163 74.9423L87.4904 75.1683L87.946 73.2052L86.9719 72.9791ZM86.0606 76.9054L85.8328 77.887L86.8069 78.113L87.0348 77.1315L86.0606 76.9054ZM86.3199 77.5H85.3468V78.5H86.3199V77.5ZM83.4005 77.5H81.4543V78.5H83.4005V77.5ZM79.508 77.5H78.5349V78.5H79.508V77.5ZM79.0219 77.8866L78.7744 76.8235L77.8004 77.0502L78.0479 78.1134L79.0219 77.8866ZM78.2794 74.6973L77.7844 72.571L76.8104 72.7977L77.3054 74.924L78.2794 74.6973ZM77.2894 70.4448L76.7944 68.3185L75.8204 68.5452L76.3154 70.6715L77.2894 70.4448ZM76.2994 66.1923L75.8044 64.066L74.8304 64.2927L75.3254 66.419L76.2994 66.1923ZM75.3094 61.9398L75.0619 60.8766L74.0879 61.1034L74.3354 62.1665L75.3094 61.9398ZM75.063 60.8815L74.8717 60.0209L73.8955 60.2378L74.0868 61.0985L75.063 60.8815ZM74.4892 58.2997L74.1067 56.5784L73.1305 56.7953L73.513 58.5166L74.4892 58.2997ZM73.7242 54.8572L73.533 53.9965L72.5568 54.2135L72.748 55.0741L73.7242 54.8572ZM73.0449 53.605H73.0111V54.605H73.0449V53.605ZM72.9436 53.605H72.9099V54.605H72.9436V53.605ZM72.4225 53.9935L72.2256 54.8541L73.2004 55.0771L73.3973 54.2165L72.4225 53.9935ZM71.8318 56.5754L71.4381 58.2966L72.4129 58.5196L72.8067 56.7984L71.8318 56.5754ZM71.0443 60.0179L70.8475 60.8785L71.8223 61.1015L72.0192 60.2409L71.0443 60.0179ZM70.8479 60.8766L70.6004 61.9398L71.5744 62.1665L71.8219 61.1034L70.8479 60.8766ZM70.1054 64.066L69.6104 66.1923L70.5844 66.419L71.0794 64.2927L70.1054 64.066ZM69.1154 68.3185L68.6204 70.4448L69.5944 70.6715L70.0894 68.5452L69.1154 68.3185ZM68.1254 72.571L67.6304 74.6973L68.6044 74.924L69.0994 72.7977L68.1254 72.571ZM67.1354 76.8235L66.8879 77.8866L67.8619 78.1134L68.1094 77.0502L67.1354 76.8235ZM67.3749 77.5H66.3961V78.5H67.3749V77.5ZM64.4386 77.5H62.4811V78.5H64.4386V77.5ZM60.5236 77.5H59.5449V78.5H60.5236V77.5ZM59.5449 78L58.5696 78.2208L58.7459 79H59.5449V78ZM52.4349 46.59V45.59H51.1832L51.4596 46.8108L52.4349 46.59ZM59.1849 46.59L60.166 46.3967L60.0071 45.59H59.1849V46.59ZM62.1549 61.665L63.1372 61.4777L63.136 61.4717L62.1549 61.665ZM63.8199 70.395L62.8376 70.5823L62.9926 71.395H63.8199V70.395ZM63.9549 70.395V71.395H64.7535L64.9301 70.6162L63.9549 70.395ZM65.9349 61.665L64.9603 61.441L64.9597 61.4438L65.9349 61.665ZM69.3999 46.59V45.59H68.6037L68.4253 46.366L69.3999 46.59ZM76.8699 46.59L77.8438 46.3632L77.6638 45.59H76.8699V46.59ZM80.3799 61.665L81.3562 61.4486L81.3538 61.4382L80.3799 61.665ZM82.3149 70.395L81.3386 70.6114L81.5123 71.395H82.3149V70.395ZM82.4499 70.395V71.395H83.2772L83.4322 70.5823L82.4499 70.395ZM84.1149 61.665L83.1343 61.4689L83.1326 61.4777L84.1149 61.665ZM87.1299 46.59V45.59H86.3101L86.1493 46.3939L87.1299 46.59ZM93.6099 46.59L94.584 46.8161L94.8686 45.59H93.6099V46.59ZM86.3199 78V79H87.1144L87.294 78.2261L86.3199 78ZM78.5349 78L77.5609 78.2267L77.7409 79H78.5349V78ZM74.5749 60.99L73.5986 61.2069L73.6009 61.2167L74.5749 60.99ZM73.0449 54.105L74.0211 53.8881L73.8471 53.105H73.0449V54.105ZM72.9099 54.105V53.105H72.1128L71.9351 53.882L72.9099 54.105ZM71.3349 60.99L72.3088 61.2167L72.3097 61.213L71.3349 60.99ZM67.3749 78V79H68.1688L68.3488 78.2267L67.3749 78ZM60.5202 77.7792L60.298 76.7977L58.3474 77.2392L58.5696 78.2208L60.5202 77.7792ZM59.8536 74.8345L59.4093 72.8714L57.4586 73.313L57.903 75.2761L59.8536 74.8345ZM58.9649 70.9083L58.5205 68.9452L56.5699 69.3867L57.0142 71.3498L58.9649 70.9083ZM58.0761 66.982L57.6318 65.0189L55.6811 65.4605L56.1255 67.4236L58.0761 66.982ZM57.1874 63.0558L56.743 61.0927L54.7924 61.5342L55.2367 63.4973L57.1874 63.0558ZM56.2986 59.1295L55.8543 57.1664L53.9036 57.608L54.348 59.5711L56.2986 59.1295ZM55.4099 55.2033L54.9655 53.2402L53.0149 53.6817L53.4592 55.6448L55.4099 55.2033ZM54.5211 51.277L54.0768 49.3139L52.1261 49.7555L52.5705 51.7186L54.5211 51.277ZM53.6324 47.3508L53.4102 46.3692L51.4596 46.8108L51.6817 47.7923L53.6324 47.3508ZM52.4349 47.59H53.2786V45.59H52.4349V47.59ZM54.9661 47.59H56.6536V45.59H54.9661V47.59ZM58.3411 47.59H59.1849V45.59H58.3411V47.59ZM58.2037 46.7833L58.3894 47.7255L60.3516 47.3389L60.166 46.3967L58.2037 46.7833ZM58.7606 49.6099L59.1319 51.4942L61.0941 51.1076L60.7229 49.2233L58.7606 49.6099ZM59.5031 53.3786L59.8744 55.263L61.8366 54.8764L61.4654 52.992L59.5031 53.3786ZM60.2456 57.1474L60.6169 59.0317L62.5791 58.6451L62.2079 56.7608L60.2456 57.1474ZM60.9881 60.9161L61.1737 61.8583L63.136 61.4717L62.9504 60.5295L60.9881 60.9161ZM61.1726 61.8523L61.3807 62.9436L63.3453 62.5689L63.1372 61.4777L61.1726 61.8523ZM61.797 65.1261L62.2132 67.3086L64.1778 66.9339L63.7616 64.7514L61.797 65.1261ZM62.6295 69.4911L62.8376 70.5823L64.8022 70.2077L64.5941 69.1164L62.6295 69.4911ZM63.8199 71.395H63.8536V69.395H63.8199V71.395ZM63.9211 71.395H63.9549V69.395H63.9211V71.395ZM64.9301 70.6162L65.1776 69.5249L63.2272 69.0826L62.9797 70.1738L64.9301 70.6162ZM65.6726 67.3424L66.1676 65.1599L64.2172 64.7176L63.7222 66.9001L65.6726 67.3424ZM66.6626 62.9774L66.9101 61.8862L64.9597 61.4438L64.7122 62.5351L66.6626 62.9774ZM66.9095 61.889L67.126 60.9468L65.1769 60.4988L64.9603 61.441L66.9095 61.889ZM67.5592 59.0624L67.9923 57.1781L66.0431 56.7301L65.61 58.6144L67.5592 59.0624ZM68.4254 55.2937L68.8585 53.4093L66.9094 52.9613L66.4762 54.8457L68.4254 55.2937ZM69.2917 51.5249L69.7248 49.6406L67.7756 49.1926L67.3425 51.0769L69.2917 51.5249ZM70.1579 47.7562L70.3745 46.814L68.4253 46.366L68.2087 47.3082L70.1579 47.7562ZM69.3999 47.59H70.3336V45.59H69.3999V47.59ZM72.2011 47.59H74.0686V45.59H72.2011V47.59ZM75.9361 47.59H76.8699V45.59H75.9361V47.59ZM75.8959 46.8168L76.1153 47.759L78.0632 47.3054L77.8438 46.3632L75.8959 46.8168ZM76.5541 49.6433L76.9928 51.5277L78.9407 51.0742L78.502 49.1898L76.5541 49.6433ZM77.4316 53.4121L77.8703 55.2965L79.8182 54.8429L79.3795 52.9585L77.4316 53.4121ZM78.3091 57.1808L78.7478 59.0652L80.6957 58.6117L80.257 56.7273L78.3091 57.1808ZM79.1866 60.9496L79.4059 61.8918L81.3538 61.4382L81.1345 60.496L79.1866 60.9496ZM79.4036 61.8814L79.6455 62.9726L81.5981 62.5399L81.3562 61.4486L79.4036 61.8814ZM80.1292 65.1551L80.613 67.3376L82.5656 66.9049L82.0818 64.7224L80.1292 65.1551ZM81.0967 69.5201L81.3386 70.6114L83.2912 70.1786L83.0493 69.0874L81.0967 69.5201ZM82.3149 71.395H82.3486V69.395H82.3149V71.395ZM82.4161 71.395H82.4499V69.395H82.4161V71.395ZM83.4322 70.5823L83.6403 69.4911L81.6757 69.1164L81.4676 70.2077L83.4322 70.5823ZM84.0566 67.3086L84.4728 65.1261L82.5082 64.7514L82.092 66.9339L84.0566 67.3086ZM84.8891 62.9436L85.0972 61.8523L83.1326 61.4777L82.9245 62.5689L84.8891 62.9436ZM85.0955 61.8611L85.2839 60.9189L83.3227 60.5267L83.1343 61.4689L85.0955 61.8611ZM85.6608 59.0346L86.0377 57.1502L84.0765 56.7579L83.6996 58.6423L85.6608 59.0346ZM86.4145 55.2658L86.7914 53.3814L84.8302 52.9892L84.4534 54.8736L86.4145 55.2658ZM87.1683 51.4971L87.5452 49.6127L85.584 49.2204L85.2071 51.1048L87.1683 51.4971ZM87.922 47.7283L88.1105 46.7861L86.1493 46.3939L85.9609 47.3361L87.922 47.7283ZM87.1299 47.59H87.9399V45.59H87.1299V47.59ZM89.5599 47.59H91.1799V45.59H89.5599V47.59ZM92.7999 47.59H93.6099V45.59H92.7999V47.59ZM92.6358 46.3639L92.408 47.3455L94.3562 47.7976L94.584 46.8161L92.6358 46.3639ZM91.9523 49.3086L91.4967 51.2717L93.4449 51.7239L93.9006 49.7608L91.9523 49.3086ZM91.0411 53.2349L90.5855 55.198L92.5337 55.6501L92.9893 53.687L91.0411 53.2349ZM90.1298 57.1611L89.6742 59.1242L91.6224 59.5764L92.0781 57.6133L90.1298 57.1611ZM89.2186 61.0874L88.763 63.0505L90.7112 63.5026L91.1668 61.5395L89.2186 61.0874ZM88.3073 65.0136L87.8517 66.9767L89.7999 67.4289L90.2556 65.4658L88.3073 65.0136ZM87.3961 68.9399L86.9405 70.903L88.8887 71.3551L89.3443 69.392L87.3961 68.9399ZM86.4848 72.8661L86.0292 74.8292L87.9774 75.2814L88.4331 73.3183L86.4848 72.8661ZM85.5736 76.7923L85.3458 77.7739L87.294 78.2261L87.5218 77.2445L85.5736 76.7923ZM86.3199 77H85.3468V79H86.3199V77ZM83.4005 77H81.4543V79H83.4005V77ZM79.508 77H78.5349V79H79.508V77ZM79.5088 77.7733L79.2613 76.7101L77.3134 77.1636L77.5609 78.2267L79.5088 77.7733ZM78.7663 74.5839L78.2713 72.4576L76.3234 72.9111L76.8184 75.0374L78.7663 74.5839ZM77.7763 70.3314L77.2813 68.2051L75.3334 68.6586L75.8284 70.7849L77.7763 70.3314ZM76.7863 66.0789L76.2913 63.9526L74.3434 64.4061L74.8384 66.5324L76.7863 66.0789ZM75.7963 61.8264L75.5488 60.7633L73.6009 61.2167L73.8484 62.2799L75.7963 61.8264ZM75.5511 60.7731L75.3598 59.9124L73.4074 60.3463L73.5987 61.2069L75.5511 60.7731ZM74.9773 58.1912L74.5948 56.4699L72.6424 56.9038L73.0249 58.6251L74.9773 58.1912ZM74.2123 54.7487L74.0211 53.8881L72.0687 54.3219L72.2599 55.1826L74.2123 54.7487ZM73.0449 53.105H73.0111V55.105H73.0449V53.105ZM72.9436 53.105H72.9099V55.105H72.9436V53.105ZM71.9351 53.882L71.7382 54.7426L73.6878 55.1886L73.8847 54.328L71.9351 53.882ZM71.3444 56.4639L70.9507 58.1851L72.9003 58.6311L73.2941 56.9099L71.3444 56.4639ZM70.5569 59.9064L70.3601 60.767L72.3097 61.213L72.5066 60.3524L70.5569 59.9064ZM70.3609 60.7633L70.1134 61.8264L72.0613 62.2799L72.3088 61.2167L70.3609 60.7633ZM69.6184 63.9526L69.1234 66.0789L71.0713 66.5324L71.5663 64.4061L69.6184 63.9526ZM68.6284 68.2051L68.1334 70.3314L70.0813 70.7849L70.5763 68.6586L68.6284 68.2051ZM67.6384 72.4576L67.1434 74.5839L69.0913 75.0374L69.5863 72.9111L67.6384 72.4576ZM66.6484 76.7101L66.4009 77.7733L68.3488 78.2267L68.5963 77.1636L66.6484 76.7101ZM67.3749 77H66.3961V79H67.3749V77ZM64.4386 77H62.4811V79H64.4386V77ZM60.5236 77H59.5449V79H60.5236V77Z" fill="#DADADA"></path> </svg> 