<?xml version="1.0" encoding="UTF-8"?> <svg xmlns="http://www.w3.org/2000/svg" width="218" height="43" viewBox="0 0 218 43" fill="none"> <path d="M1.312 41H0.812V41.5H1.312V41ZM1.312 1.912V1.412H0.812V1.912H1.312ZM27.24 1.912H27.74V1.412H27.24V1.912ZM27.24 9.472V9.972H27.74V9.472H27.24ZM9.824 9.472V8.972H9.324V9.472H9.824ZM9.824 17.48H9.324V17.98H9.824V17.48ZM24.664 17.48H25.164V16.98H24.664V17.48ZM24.664 24.984V25.484H25.164V24.984H24.664ZM9.824 24.984V24.484H9.324V24.984H9.824ZM9.824 41V41.5H10.324V41H9.824ZM1.812 41V40.0228H0.812V41H1.812ZM1.812 38.0684V36.114H0.812V38.0684H1.812ZM1.812 34.1596V32.2052H0.812V34.1596H1.812ZM1.812 30.2508V28.2964H0.812V30.2508H1.812ZM1.812 26.342V24.3876H0.812V26.342H1.812ZM1.812 22.4332V20.4788H0.812V22.4332H1.812ZM1.812 18.5244V16.57H0.812V18.5244H1.812ZM1.812 14.6156V12.6612H0.812V14.6156H1.812ZM1.812 10.7068V8.75241H0.812V10.7068H1.812ZM1.812 6.79801V4.84361H0.812V6.79801H1.812ZM1.812 2.88921V1.912H0.812V2.88921H1.812ZM1.312 2.412H2.39233V1.412H1.312V2.412ZM4.553 2.412H6.71367V1.412H4.553V2.412ZM8.87433 2.412H11.035V1.412H8.87433V2.412ZM13.1957 2.412H15.3563V1.412H13.1957V2.412ZM17.517 2.412H19.6777V1.412H17.517V2.412ZM21.8383 2.412H23.999V1.412H21.8383V2.412ZM26.1597 2.412H27.24V1.412H26.1597V2.412ZM26.74 1.912V2.857H27.74V1.912H26.74ZM26.74 4.747V6.637H27.74V4.747H26.74ZM26.74 8.527V9.472H27.74V8.527H26.74ZM27.24 8.972H26.1515V9.972H27.24V8.972ZM23.9745 8.972H21.7975V9.972H23.9745V8.972ZM19.6205 8.972H17.4435V9.972H19.6205V8.972ZM15.2665 8.972H13.0895V9.972H15.2665V8.972ZM10.9125 8.972H9.824V9.972H10.9125V8.972ZM9.324 9.472V10.473H10.324V9.472H9.324ZM9.324 12.475V14.477H10.324V12.475H9.324ZM9.324 16.479V17.48H10.324V16.479H9.324ZM9.824 17.98H10.7515V16.98H9.824V17.98ZM12.6065 17.98H14.4615V16.98H12.6065V17.98ZM16.3165 17.98H18.1715V16.98H16.3165V17.98ZM20.0265 17.98H21.8815V16.98H20.0265V17.98ZM23.7365 17.98H24.664V16.98H23.7365V17.98ZM24.164 17.48V18.418H25.164V17.48H24.164ZM24.164 20.294V22.17H25.164V20.294H24.164ZM24.164 24.046V24.984H25.164V24.046H24.164ZM24.664 24.484H23.7365V25.484H24.664V24.484ZM21.8815 24.484H20.0265V25.484H21.8815V24.484ZM18.1715 24.484H16.3165V25.484H18.1715V24.484ZM14.4615 24.484H12.6065V25.484H14.4615V24.484ZM10.7515 24.484H9.824V25.484H10.7515V24.484ZM9.324 24.984V25.985H10.324V24.984H9.324ZM9.324 27.987V29.989H10.324V27.987H9.324ZM9.324 31.991V33.993H10.324V31.991H9.324ZM9.324 35.995V37.997H10.324V35.995H9.324ZM9.324 39.999V41H10.324V39.999H9.324ZM9.824 40.5H8.76V41.5H9.824V40.5ZM6.632 40.5H4.504V41.5H6.632V40.5ZM2.376 40.5H1.312V41.5H2.376V40.5ZM1.312 41H0.312V42H1.312V41ZM1.312 1.912V0.911999H0.312V1.912H1.312ZM27.24 1.912H28.24V0.911999H27.24V1.912ZM27.24 9.472V10.472H28.24V9.472H27.24ZM9.824 9.472V8.472H8.824V9.472H9.824ZM9.824 17.48H8.824V18.48H9.824V17.48ZM24.664 17.48H25.664V16.48H24.664V17.48ZM24.664 24.984V25.984H25.664V24.984H24.664ZM9.824 24.984V23.984H8.824V24.984H9.824ZM9.824 41V42H10.824V41H9.824ZM2.312 41V40.0228H0.312V41H2.312ZM2.312 38.0684V36.114H0.312V38.0684H2.312ZM2.312 34.1596V32.2052H0.312V34.1596H2.312ZM2.312 30.2508V28.2964H0.312V30.2508H2.312ZM2.312 26.342V24.3876H0.312V26.342H2.312ZM2.312 22.4332V20.4788H0.312V22.4332H2.312ZM2.312 18.5244V16.57H0.312V18.5244H2.312ZM2.312 14.6156V12.6612H0.312V14.6156H2.312ZM2.312 10.7068V8.75241H0.312V10.7068H2.312ZM2.312 6.79801V4.84361H0.312V6.79801H2.312ZM2.312 2.88921V1.912H0.312V2.88921H2.312ZM1.312 2.912H2.39233V0.911999H1.312V2.912ZM4.553 2.912H6.71367V0.911999H4.553V2.912ZM8.87433 2.912H11.035V0.911999H8.87433V2.912ZM13.1957 2.912H15.3563V0.911999H13.1957V2.912ZM17.517 2.912H19.6777V0.911999H17.517V2.912ZM21.8383 2.912H23.999V0.911999H21.8383V2.912ZM26.1597 2.912H27.24V0.911999H26.1597V2.912ZM26.24 1.912V2.857H28.24V1.912H26.24ZM26.24 4.747V6.637H28.24V4.747H26.24ZM26.24 8.527V9.472H28.24V8.527H26.24ZM27.24 8.472H26.1515V10.472H27.24V8.472ZM23.9745 8.472H21.7975V10.472H23.9745V8.472ZM19.6205 8.472H17.4435V10.472H19.6205V8.472ZM15.2665 8.472H13.0895V10.472H15.2665V8.472ZM10.9125 8.472H9.824V10.472H10.9125V8.472ZM8.824 9.472V10.473H10.824V9.472H8.824ZM8.824 12.475V14.477H10.824V12.475H8.824ZM8.824 16.479V17.48H10.824V16.479H8.824ZM9.824 18.48H10.7515V16.48H9.824V18.48ZM12.6065 18.48H14.4615V16.48H12.6065V18.48ZM16.3165 18.48H18.1715V16.48H16.3165V18.48ZM20.0265 18.48H21.8815V16.48H20.0265V18.48ZM23.7365 18.48H24.664V16.48H23.7365V18.48ZM23.664 17.48V18.418H25.664V17.48H23.664ZM23.664 20.294V22.17H25.664V20.294H23.664ZM23.664 24.046V24.984H25.664V24.046H23.664ZM24.664 23.984H23.7365V25.984H24.664V23.984ZM21.8815 23.984H20.0265V25.984H21.8815V23.984ZM18.1715 23.984H16.3165V25.984H18.1715V23.984ZM14.4615 23.984H12.6065V25.984H14.4615V23.984ZM10.7515 23.984H9.824V25.984H10.7515V23.984ZM8.824 24.984V25.985H10.824V24.984H8.824ZM8.824 27.987V29.989H10.824V27.987H8.824ZM8.824 31.991V33.993H10.824V31.991H8.824ZM8.824 35.995V37.997H10.824V35.995H8.824ZM8.824 39.999V41H10.824V39.999H8.824ZM9.824 40H8.76V42H9.824V40ZM6.632 40H4.504V42H6.632V40ZM2.376 40H1.312V42H2.376V40ZM40.9985 40.384L40.8114 40.8477L40.8114 40.8477L40.9985 40.384ZM35.5665 36.576L35.1892 36.9041L35.1928 36.9082L35.5665 36.576ZM32.0945 30.248L31.6188 30.4019L31.6195 30.404L32.0945 30.248ZM32.0945 12.72L32.5696 12.876L32.5702 12.8739L32.0945 12.72ZM35.5665 6.392L35.9402 6.7242L35.9438 6.72009L35.5665 6.392ZM40.9985 2.528L40.8114 2.06432L40.8114 2.06432L40.9985 2.528ZM55.1105 2.528L54.9234 2.99167L54.9234 2.99167L55.1105 2.528ZM60.5425 6.392L60.1652 6.72011L60.1688 6.72418L60.5425 6.392ZM64.0145 12.72L63.5388 12.8739L63.5395 12.876L64.0145 12.72ZM64.0145 30.248L64.4896 30.404L64.4902 30.4019L64.0145 30.248ZM60.5425 36.576L60.9162 36.9082L60.9198 36.9041L60.5425 36.576ZM55.1105 40.384L54.9234 39.9203L54.9234 39.9203L55.1105 40.384ZM54.0465 31.592L53.6686 31.2645L53.6645 31.2694L54.0465 31.592ZM54.0465 11.32L53.6645 11.6426L53.6687 11.6475L54.0465 11.32ZM42.0065 11.32L41.6286 10.9925L41.6245 10.9974L42.0065 11.32ZM42.0065 31.592L41.6245 31.9146L41.6287 31.9195L42.0065 31.592ZM48.0545 41.172C47.7573 41.172 47.4633 41.1662 47.1725 41.1545L47.1324 42.1537C47.4368 42.1659 47.7442 42.172 48.0545 42.172V41.172ZM45.4186 41.0086C44.828 40.9328 44.2519 40.8308 43.6902 40.7027L43.4678 41.6776C44.0619 41.8131 44.6698 41.9207 45.2914 42.0004L45.4186 41.0086ZM42.0054 40.2253C41.7284 40.1307 41.4551 40.0291 41.1856 39.9203L40.8114 40.8477C41.0979 40.9633 41.3882 41.0713 41.6823 41.1717L42.0054 40.2253ZM41.1856 39.9203C40.9333 39.8185 40.6859 39.7109 40.4432 39.5973L40.0194 40.5031C40.2787 40.6244 40.5427 40.7392 40.8114 40.8477L41.1856 39.9203ZM39.0205 38.8313C38.5601 38.5482 38.1194 38.24 37.6982 37.9067L37.0777 38.6908C37.5299 39.0487 38.0029 39.3795 38.4967 39.6831L39.0205 38.8313ZM36.494 36.8323C36.3047 36.6424 36.1201 36.4462 35.9402 36.2438L35.1928 36.9082C35.3853 37.1247 35.5829 37.3347 35.7858 37.5382L36.494 36.8323ZM35.9438 36.2479C35.7526 36.0281 35.5671 35.8015 35.3871 35.5681L34.5952 36.1788C34.787 36.4275 34.985 36.6693 35.1892 36.9041L35.9438 36.2479ZM34.3925 34.116C34.0929 33.6228 33.8134 33.1049 33.554 32.562L32.6517 32.9931C32.9249 33.5649 33.2202 34.1123 33.5378 34.6351L34.3925 34.116ZM32.8633 30.9304C32.761 30.6564 32.6631 30.3769 32.5695 30.092L31.6195 30.404C31.7171 30.7012 31.8194 30.9933 31.9264 31.2801L32.8633 30.9304ZM32.5702 30.0941C32.4601 29.7537 32.3574 29.4058 32.2623 29.0503L31.2963 29.3089C31.3958 29.6805 31.5033 30.0448 31.6188 30.4019L32.5702 30.0941ZM31.797 26.9181C31.6766 26.2196 31.5811 25.4961 31.5106 24.7474L30.515 24.8411C30.5877 25.6138 30.6865 26.3628 30.8115 27.088L31.797 26.9181ZM31.3781 22.556C31.3677 22.1945 31.3625 21.8278 31.3625 21.456H30.3625C30.3625 21.8371 30.3678 22.2134 30.3785 22.5847L31.3781 22.556ZM31.3625 21.456C31.3625 21.0862 31.3676 20.7218 31.3779 20.3628L30.3783 20.3341C30.3678 20.703 30.3625 21.077 30.3625 21.456H31.3625ZM31.5093 18.1851C31.5794 17.4399 31.6745 16.7211 31.7945 16.0284L30.8091 15.8578C30.6845 16.5775 30.5861 17.3221 30.5137 18.0914L31.5093 18.1851ZM32.2601 13.9113C32.3557 13.5582 32.4589 13.2131 32.5695 12.876L31.6195 12.564C31.5031 12.9184 31.3949 13.2804 31.2948 13.6501L32.2601 13.9113ZM32.5702 12.8739C32.6627 12.5881 32.7595 12.308 32.8605 12.0338L31.9221 11.6881C31.8164 11.9752 31.7153 12.2679 31.6188 12.5661L32.5702 12.8739ZM33.545 10.3993C33.8035 9.85383 34.0821 9.33574 34.3806 8.8448L33.5262 8.3253C33.2089 8.84709 32.914 9.39572 32.6414 9.97098L33.545 10.3993ZM35.3787 7.39782C35.5602 7.16568 35.7474 6.94114 35.9402 6.72418L35.1928 6.05982C34.9858 6.2927 34.7851 6.53341 34.5909 6.78189L35.3787 7.39782ZM35.9438 6.72009C36.1227 6.51441 36.3061 6.31522 36.4942 6.12251L35.7785 5.42411C35.5769 5.63067 35.3805 5.84394 35.1892 6.06391L35.9438 6.72009ZM37.6936 5.03086C38.1145 4.69159 38.5549 4.37863 39.0149 4.09195L38.4859 3.24329C37.9918 3.55128 37.5185 3.88763 37.066 4.25228L37.6936 5.03086ZM40.4404 3.31682C40.684 3.20223 40.9324 3.09385 41.1856 2.99167L40.8114 2.06432C40.5411 2.17341 40.2755 2.28928 40.0147 2.41194L40.4404 3.31682ZM41.1856 2.99167C41.4551 2.88293 41.7284 2.78126 42.0054 2.68666L41.6823 1.7403C41.3882 1.84073 41.0979 1.94873 40.8114 2.06432L41.1856 2.99167ZM43.6902 2.20935C44.2519 2.0812 44.828 1.97919 45.4186 1.90344L45.2914 0.911568C44.6698 0.991291 44.0619 1.09886 43.4678 1.2344L43.6902 2.20935ZM47.1725 1.75751C47.4633 1.74584 47.7573 1.74 48.0545 1.74V0.739998C47.7442 0.739998 47.4368 0.746098 47.1324 0.758313L47.1725 1.75751ZM48.0545 1.74C48.3517 1.74 48.6457 1.74584 48.9365 1.75751L48.9766 0.758313C48.6722 0.746098 48.3648 0.739998 48.0545 0.739998V1.74ZM50.6904 1.90344C51.281 1.97919 51.8571 2.0812 52.4188 2.20935L52.6412 1.2344C52.0471 1.09886 51.4392 0.99129 50.8176 0.911568L50.6904 1.90344ZM54.1036 2.68666C54.3806 2.78126 54.6539 2.88293 54.9234 2.99167L55.2976 2.06432C55.0111 1.94873 54.7208 1.84073 54.4267 1.7403L54.1036 2.68666ZM54.9234 2.99167C55.1766 3.09385 55.425 3.20223 55.6686 3.31682L56.0943 2.41194C55.8335 2.28928 55.5679 2.17341 55.2976 2.06432L54.9234 2.99167ZM57.0941 4.09195C57.5541 4.37863 57.9945 4.69159 58.4154 5.03086L59.043 4.25228C58.5905 3.88762 58.1172 3.55128 57.6231 3.24329L57.0941 4.09195ZM59.6148 6.12251C59.8029 6.31522 59.9863 6.51441 60.1652 6.72009L60.9198 6.06391C60.7285 5.84394 60.5321 5.63067 60.3305 5.42411L59.6148 6.12251ZM60.1688 6.72418C60.3617 6.94114 60.5488 7.16568 60.7303 7.39782L61.5181 6.78189C61.3239 6.53341 61.1232 6.2927 60.9162 6.05982L60.1688 6.72418ZM61.7284 8.8448C62.0269 9.33574 62.3055 9.85383 62.564 10.3993L63.4676 9.97098C63.195 9.39572 62.9001 8.84709 62.5828 8.3253L61.7284 8.8448ZM63.2485 12.0338C63.3495 12.308 63.4463 12.5881 63.5388 12.8739L64.4902 12.5661C64.3937 12.2679 64.2926 11.9752 64.1869 11.6881L63.2485 12.0338ZM63.5395 12.876C63.6501 13.2131 63.7533 13.5582 63.8489 13.9113L64.8142 13.6501C64.7141 13.2804 64.6059 12.9184 64.4895 12.564L63.5395 12.876ZM64.3146 16.0284C64.4345 16.7211 64.5296 17.4399 64.5997 18.1851L65.5953 18.0914C65.5229 17.3221 65.4245 16.5775 65.2999 15.8578L64.3146 16.0284ZM64.7311 20.3628C64.7414 20.7218 64.7465 21.0862 64.7465 21.456H65.7465C65.7465 21.077 65.7412 20.703 65.7307 20.3341L64.7311 20.3628ZM64.7465 21.456C64.7465 21.8278 64.7413 22.1945 64.7309 22.556L65.7305 22.5847C65.7412 22.2134 65.7465 21.8371 65.7465 21.456H64.7465ZM64.5984 24.7474C64.5279 25.4961 64.4324 26.2196 64.312 26.9181L65.2975 27.088C65.4225 26.3628 65.5213 25.6138 65.594 24.8411L64.5984 24.7474ZM63.8467 29.0503C63.7516 29.4058 63.6489 29.7537 63.5388 30.0941L64.4902 30.4019C64.6058 30.0448 64.7132 29.6805 64.8127 29.3089L63.8467 29.0503ZM63.5395 30.092C63.4459 30.3769 63.348 30.6564 63.2457 30.9304L64.1826 31.2801C64.2896 30.9933 64.3919 30.7012 64.4895 30.404L63.5395 30.092ZM62.555 32.562C62.2956 33.1049 62.0161 33.6228 61.7165 34.116L62.5712 34.6351C62.8888 34.1123 63.1841 33.5649 63.4573 32.9931L62.555 32.562ZM60.7219 35.5681C60.5419 35.8015 60.3564 36.0281 60.1652 36.2479L60.9198 36.9041C61.124 36.6693 61.322 36.4275 61.5138 36.1788L60.7219 35.5681ZM60.1688 36.2438C59.9889 36.4462 59.8043 36.6424 59.615 36.8323L60.3232 37.5382C60.5261 37.3347 60.7237 37.1247 60.9162 36.9082L60.1688 36.2438ZM58.4108 37.9067C57.9896 38.24 57.5489 38.5482 57.0885 38.8313L57.6123 39.6831C58.1061 39.3795 58.5791 39.0487 59.0313 38.6908L58.4108 37.9067ZM55.6658 39.5973C55.4231 39.7109 55.1757 39.8185 54.9234 39.9203L55.2976 40.8477C55.5663 40.7392 55.8303 40.6244 56.0896 40.5031L55.6658 39.5973ZM54.9234 39.9203C54.6539 40.0291 54.3806 40.1307 54.1036 40.2253L54.4267 41.1717C54.7208 41.0713 55.0111 40.9633 55.2976 40.8477L54.9234 39.9203ZM52.4188 40.7027C51.8571 40.8308 51.281 40.9328 50.6904 41.0086L50.8176 42.0004C51.4392 41.9207 52.0471 41.8131 52.6412 41.6776L52.4188 40.7027ZM48.9365 41.1545C48.6457 41.1662 48.3517 41.172 48.0545 41.172V42.172C48.3648 42.172 48.6722 42.1659 48.9766 42.1537L48.9365 41.1545ZM48.0545 33.612C47.7777 33.612 47.5085 33.6019 47.2469 33.5817L47.1702 34.5788C47.4585 34.601 47.7533 34.612 48.0545 34.612V33.612ZM45.6728 33.3171C45.1477 33.1747 44.6603 32.9813 44.2093 32.7377L43.7341 33.6176C44.256 33.8995 44.8155 34.1207 45.4111 34.2822L45.6728 33.3171ZM42.9337 31.8297C42.7424 31.6547 42.5593 31.4664 42.3843 31.2645L41.6287 31.9195C41.8283 32.1498 42.0382 32.3659 42.2586 32.5675L42.9337 31.8297ZM42.3885 31.2694C42.1981 31.0439 42.021 30.8039 41.8574 30.549L41.016 31.0894C41.2026 31.3801 41.4054 31.6552 41.6245 31.9146L42.3885 31.2694ZM41.0668 28.9262C40.8711 28.3822 40.7162 27.791 40.6032 27.1514L39.6185 27.3252C39.7403 28.015 39.909 28.6618 40.1258 29.2647L41.0668 28.9262ZM40.4012 25.3042C40.3861 25.0005 40.3785 24.6884 40.3785 24.368H39.3785C39.3785 24.7042 39.3865 25.0329 39.4024 25.3539L40.4012 25.3042ZM40.3785 24.368V22.912H39.3785V24.368H40.3785ZM40.3785 20V18.544H39.3785V20H40.3785ZM40.3785 18.544C40.3785 18.2236 40.3861 17.9115 40.4012 17.6078L39.4024 17.5581C39.3865 17.8791 39.3785 18.2078 39.3785 18.544H40.3785ZM40.6032 15.7606C40.7162 15.121 40.8711 14.5298 41.0668 13.9858L40.1258 13.6473C39.909 14.2502 39.7403 14.897 39.6185 15.5868L40.6032 15.7606ZM41.8574 12.363C42.021 12.1081 42.1981 11.8681 42.3885 11.6426L41.6245 10.9974C41.4054 11.2568 41.2026 11.5319 41.016 11.8226L41.8574 12.363ZM42.3843 11.6475C42.5593 11.4456 42.7424 11.2573 42.9337 11.0823L42.2586 10.3445C42.0382 10.5461 41.8283 10.7622 41.6287 10.9925L42.3843 11.6475ZM44.2093 10.1743C44.6603 9.93071 45.1477 9.7373 45.6728 9.59494L45.4111 8.62979C44.8155 8.79126 44.256 9.01252 43.7341 9.29442L44.2093 10.1743ZM47.2469 9.33025C47.5085 9.31013 47.7777 9.3 48.0545 9.3V8.3C47.7533 8.3 47.4585 8.31102 47.1702 8.33319L47.2469 9.33025ZM48.0545 9.3C48.3296 9.3 48.5969 9.31 48.8565 9.32987L48.9328 8.33279C48.6467 8.31088 48.3539 8.3 48.0545 8.3V9.3ZM50.419 9.59214C50.941 9.73376 51.4239 9.92635 51.869 10.1689L52.3475 9.29077C51.8301 9.00891 51.2741 8.78799 50.6808 8.62703L50.419 9.59214ZM53.1267 11.0766C53.3144 11.2517 53.4937 11.4403 53.6645 11.6426L54.4285 10.9974C54.2328 10.7656 54.0262 10.5482 53.8088 10.3454L53.1267 11.0766ZM53.6687 11.6475C53.8629 11.8716 54.0437 12.1102 54.2107 12.3632L55.0452 11.8122C54.8546 11.5235 54.6476 11.2502 54.4243 10.9925L53.6687 11.6475ZM55.0214 13.9806C55.2228 14.5245 55.3824 15.1157 55.4987 15.7554L56.4825 15.5764C56.3569 14.8853 56.1828 14.2371 55.9591 13.6332L55.0214 13.9806ZM55.7071 17.6057C55.7227 17.91 55.7305 18.2228 55.7305 18.544H56.7305C56.7305 18.2066 56.7223 17.8767 56.7058 17.5545L55.7071 17.6057ZM55.7305 18.544V20H56.7305V18.544H55.7305ZM55.7305 22.912V24.368H56.7305V22.912H55.7305ZM55.7305 24.368C55.7305 24.6892 55.7227 25.002 55.7071 25.3063L56.7058 25.3575C56.7223 25.0353 56.7305 24.7054 56.7305 24.368H55.7305ZM55.4987 27.1566C55.3824 27.7963 55.2228 28.3875 55.0214 28.9314L55.9591 29.2787C56.1828 28.6748 56.3569 28.0267 56.4825 27.3356L55.4987 27.1566ZM54.2107 30.5488C54.0437 30.8018 53.8629 31.0404 53.6687 31.2645L54.4243 31.9195C54.6476 31.6618 54.8546 31.3885 55.0452 31.0998L54.2107 30.5488ZM53.6645 31.2694C53.4937 31.4717 53.3144 31.6603 53.1267 31.8354L53.8088 32.5666C54.0262 32.3638 54.2328 32.1464 54.4285 31.9146L53.6645 31.2694ZM51.869 32.7431C51.4239 32.9856 50.941 33.1782 50.419 33.3199L50.6808 34.285C51.2741 34.124 51.8301 33.9031 52.3475 33.6212L51.869 32.7431ZM48.8565 33.5821C48.5969 33.602 48.3296 33.612 48.0545 33.612V34.612C48.3539 34.612 48.6467 34.6011 48.9328 34.5792L48.8565 33.5821ZM40.9985 40.384L40.6243 41.3114L40.6243 41.3114L40.9985 40.384ZM35.5665 36.576L34.8118 37.2322L34.8191 37.2404L35.5665 36.576ZM32.0945 30.248L31.143 30.5558L31.1444 30.56L32.0945 30.248ZM32.0945 12.72L33.0446 13.032L33.0459 13.0278L32.0945 12.72ZM35.5665 6.392L36.314 7.0564L36.3211 7.04818L35.5665 6.392ZM40.9985 2.528L40.6243 1.60065L40.6243 1.60065L40.9985 2.528ZM55.1105 2.528L54.7363 3.45535L54.7363 3.45535L55.1105 2.528ZM60.5425 6.392L59.7879 7.04822L59.7951 7.05636L60.5425 6.392ZM64.0145 12.72L63.063 13.0278L63.0644 13.032L64.0145 12.72ZM64.0145 30.248L64.9646 30.56L64.9659 30.5558L64.0145 30.248ZM60.5425 36.576L61.29 37.2404L61.2971 37.2322L60.5425 36.576ZM55.1105 40.384L54.7363 39.4566L54.7363 39.4566L55.1105 40.384ZM54.0465 31.592L53.2907 30.937L53.2825 30.9468L54.0465 31.592ZM54.0465 11.32L53.2824 11.9652L53.2908 11.9749L54.0465 11.32ZM42.0065 11.32L41.2507 10.665L41.2425 10.6748L42.0065 11.32ZM42.0065 31.592L41.2424 32.2372L41.2508 32.2469L42.0065 31.592ZM48.0545 40.672C47.7638 40.672 47.4765 40.6663 47.1926 40.6549L47.1124 42.6533C47.4236 42.6658 47.7376 42.672 48.0545 42.672V40.672ZM45.4822 40.5126C44.9071 40.4389 44.3469 40.3396 43.8015 40.2152L43.3566 42.1651C43.9668 42.3043 44.5906 42.4147 45.2278 42.4964L45.4822 40.5126ZM42.167 39.7522C41.8985 39.6605 41.6337 39.562 41.3727 39.4566L40.6243 41.3114C40.9193 41.4304 41.2181 41.5415 41.5208 41.6449L42.167 39.7522ZM41.3727 39.4566C41.1287 39.3582 40.8895 39.2541 40.655 39.1444L39.8075 40.956C40.0751 41.0811 40.3473 41.1996 40.6243 41.3114L41.3727 39.4566ZM39.2825 38.4054C38.8387 38.1325 38.4142 37.8356 38.0085 37.5146L36.7674 39.0829C37.2352 39.4531 37.7243 39.7951 38.2347 40.109L39.2825 38.4054ZM36.8482 36.4793C36.6657 36.2962 36.4876 36.107 36.3139 35.9116L34.8191 37.2404C35.0178 37.4639 35.222 37.6809 35.4316 37.8912L36.8482 36.4793ZM36.3211 35.9198C36.1364 35.7075 35.9571 35.4884 35.783 35.2627L34.1993 36.4841C34.397 36.7405 34.6012 36.9899 34.8119 37.2322L36.3211 35.9198ZM34.8198 33.8564C34.5292 33.378 34.2576 32.8748 34.0052 32.3465L32.2006 33.2086C32.4807 33.795 32.7839 34.3571 33.1105 34.8947L34.8198 33.8564ZM33.3317 30.7556C33.2318 30.4879 33.1361 30.2147 33.0446 29.936L31.1444 30.56C31.244 30.8634 31.3486 31.1617 31.458 31.4549L33.3317 30.7556ZM33.0459 29.9402C32.9385 29.6081 32.8383 29.2684 32.7452 28.921L30.8133 29.4382C30.9149 29.8178 31.0248 30.1904 31.1431 30.5558L33.0459 29.9402ZM32.2897 26.8332C32.1716 26.148 32.0777 25.4372 32.0084 24.7006L30.0172 24.888C30.091 25.6727 30.1915 26.4344 30.3188 27.1729L32.2897 26.8332ZM31.8779 22.5416C31.8676 22.185 31.8625 21.8232 31.8625 21.456H29.8625C29.8625 21.8418 29.8679 22.2229 29.8787 22.5991L31.8779 22.5416ZM31.8625 21.456C31.8625 21.0909 31.8676 20.7313 31.8777 20.3771L29.8786 20.3198C29.8678 20.6936 29.8625 21.0723 29.8625 21.456H31.8625ZM32.0071 18.2319C32.0761 17.4989 32.1695 16.7929 32.2871 16.1137L30.3164 15.7725C30.1895 16.5057 30.0894 17.2631 30.0159 18.0446L32.0071 18.2319ZM32.7427 14.042C32.8361 13.6971 32.9367 13.3605 33.0446 13.032L31.1444 12.408C31.0252 12.771 30.9145 13.1415 30.8122 13.5194L32.7427 14.042ZM33.0459 13.0278C33.1364 12.7481 33.231 12.4744 33.3297 12.2066L31.4529 11.5153C31.3448 11.8088 31.2415 12.1078 31.1431 12.4122L33.0459 13.0278ZM33.9968 10.6135C34.2483 10.0829 34.5187 9.58007 34.8079 9.10456L33.0989 8.06554C32.7723 8.60276 32.4693 9.16667 32.1895 9.75682L33.9968 10.6135ZM35.7726 7.70579C35.9477 7.48181 36.1281 7.26536 36.3139 7.05636L34.8191 5.72763C34.605 5.96849 34.3976 6.21727 34.197 6.47393L35.7726 7.70579ZM36.3211 7.04818C36.4937 6.84964 36.6707 6.6575 36.852 6.47172L35.4206 5.07491C35.2123 5.28839 35.0094 5.50871 34.8119 5.73582L36.3211 7.04818ZM38.0074 5.42015C38.4125 5.09357 38.8365 4.79231 39.2794 4.51627L38.2214 2.81897C37.7102 3.1376 37.2204 3.48564 36.7523 3.86299L38.0074 5.42015ZM40.6532 3.76926C40.8882 3.65871 41.1281 3.55406 41.3727 3.45535L40.6243 1.60065C40.3454 1.71319 40.0712 1.8328 39.8019 1.9595L40.6532 3.76926ZM41.3727 3.45535C41.6337 3.35003 41.8985 3.25153 42.167 3.15984L41.5208 1.26711C41.2181 1.37046 40.9193 1.48163 40.6243 1.60065L41.3727 3.45535ZM43.8015 2.69682C44.3469 2.57237 44.9071 2.47314 45.4822 2.39938L45.2278 0.41563C44.5906 0.497341 43.9668 0.607689 43.3566 0.746927L43.8015 2.69682ZM47.1926 2.25711C47.4765 2.24571 47.7638 2.24 48.0545 2.24V0.239998C47.7376 0.239998 47.4236 0.246226 47.1124 0.258715L47.1926 2.25711ZM48.0545 2.24C48.3452 2.24 48.6325 2.24571 48.9164 2.25711L48.9966 0.258715C48.6854 0.246226 48.3714 0.239998 48.0545 0.239998V2.24ZM50.6268 2.39938C51.2019 2.47314 51.7621 2.57237 52.3075 2.69682L52.7524 0.746927C52.1422 0.607689 51.5184 0.497341 50.8812 0.41563L50.6268 2.39938ZM53.942 3.15984C54.2105 3.25153 54.4753 3.35003 54.7363 3.45535L55.4847 1.60065C55.1897 1.48163 54.8909 1.37046 54.5882 1.26711L53.942 3.15984ZM54.7363 3.45535C54.9809 3.55406 55.2208 3.65871 55.4558 3.76926L56.3071 1.9595C56.0378 1.8328 55.7636 1.71319 55.4847 1.60065L54.7363 3.45535ZM56.8297 4.51627C57.2725 4.79231 57.6965 5.09357 58.1016 5.42015L59.3567 3.86299C58.8886 3.48564 58.3988 3.1376 57.8876 2.81897L56.8297 4.51627ZM59.257 6.47172C59.4383 6.6575 59.6153 6.84964 59.7879 7.04818L61.2971 5.73582C61.0996 5.50871 60.8967 5.28839 60.6884 5.07491L59.257 6.47172ZM59.7951 7.05636C59.9809 7.26536 60.1613 7.48181 60.3364 7.70579L61.912 6.47393C61.7114 6.21727 61.504 5.96849 61.2899 5.72763L59.7951 7.05636ZM61.3011 9.10456C61.5903 9.58007 61.8607 10.0829 62.1122 10.6135L63.9195 9.75682C63.6397 9.16667 63.3367 8.60276 63.0101 8.06554L61.3011 9.10456ZM62.7793 12.2066C62.878 12.4744 62.9726 12.7481 63.0631 13.0278L64.9659 12.4122C64.8675 12.1078 64.7642 11.8088 64.6561 11.5153L62.7793 12.2066ZM63.0644 13.032C63.1723 13.3605 63.2729 13.6971 63.3663 14.042L65.2968 13.5194C65.1945 13.1415 65.0838 12.771 64.9646 12.408L63.0644 13.032ZM63.8219 16.1137C63.9395 16.7929 64.0329 17.4989 64.1019 18.2319L66.0931 18.0446C66.0196 17.2631 65.9195 16.5057 65.7926 15.7725L63.8219 16.1137ZM64.2313 20.3771C64.2414 20.7313 64.2465 21.0909 64.2465 21.456H66.2465C66.2465 21.0723 66.2412 20.6936 66.2304 20.3198L64.2313 20.3771ZM64.2465 21.456C64.2465 21.8232 64.2414 22.185 64.2311 22.5416L66.2303 22.5991C66.2411 22.2229 66.2465 21.8418 66.2465 21.456H64.2465ZM64.1006 24.7006C64.0313 25.4372 63.9374 26.148 63.8193 26.8332L65.7902 27.1729C65.9175 26.4344 66.018 25.6727 66.0918 24.888L64.1006 24.7006ZM63.3638 28.921C63.2707 29.2684 63.1705 29.6081 63.0631 29.9402L64.9659 30.5558C65.0842 30.1904 65.1941 29.8178 65.2957 29.4382L63.3638 28.921ZM63.0644 29.936C62.9729 30.2147 62.8772 30.4879 62.7773 30.7556L64.651 31.4549C64.7604 31.1617 64.865 30.8634 64.9646 30.56L63.0644 29.936ZM62.1038 32.3465C61.8514 32.8748 61.5798 33.378 61.2892 33.8564L62.9985 34.8947C63.3251 34.3571 63.6283 33.7949 63.9084 33.2086L62.1038 32.3465ZM60.326 35.2628C60.1519 35.4884 59.9726 35.7075 59.7879 35.9198L61.2971 37.2322C61.5078 36.9899 61.712 36.7405 61.9097 36.4841L60.326 35.2628ZM59.7951 35.9116C59.6214 36.107 59.4434 36.2962 59.2609 36.4793L60.6774 37.8912C60.887 37.6809 61.0912 37.4639 61.2899 37.2404L59.7951 35.9116ZM58.1005 37.5146C57.6948 37.8356 57.2703 38.1325 56.8265 38.4054L57.8743 40.109C58.3847 39.7951 58.8738 39.4531 59.3416 39.0829L58.1005 37.5146ZM55.454 39.1444C55.2195 39.2541 54.9803 39.3582 54.7363 39.4566L55.4847 41.3114C55.7617 41.1996 56.0339 41.0811 56.3015 40.956L55.454 39.1444ZM54.7363 39.4566C54.4753 39.562 54.2105 39.6605 53.942 39.7522L54.5882 41.6449C54.8909 41.5415 55.1897 41.4304 55.4847 41.3114L54.7363 39.4566ZM52.3075 40.2152C51.7621 40.3396 51.2019 40.4389 50.6268 40.5126L50.8812 42.4964C51.5184 42.4147 52.1422 42.3043 52.7524 42.1651L52.3075 40.2152ZM48.9164 40.6549C48.6325 40.6663 48.3452 40.672 48.0545 40.672V42.672C48.3714 42.672 48.6854 42.6658 48.9966 42.6533L48.9164 40.6549ZM48.0545 33.112C47.7898 33.112 47.5335 33.1023 47.2853 33.0832L47.1319 35.0773C47.4335 35.1005 47.7411 35.112 48.0545 35.112V33.112ZM45.8036 32.8345C45.3138 32.7017 44.8624 32.5222 44.4469 32.2978L43.4965 34.0575C44.0539 34.3586 44.6494 34.5938 45.2803 34.7648L45.8036 32.8345ZM43.2712 31.4608C43.0945 31.2992 42.9248 31.1247 42.7622 30.9371L41.2508 32.2469C41.4627 32.4915 41.6862 32.7214 41.9211 32.9364L43.2712 31.4608ZM42.7705 30.9468C42.5945 30.7383 42.4303 30.5158 42.2781 30.2788L40.5953 31.3596C40.7934 31.6682 41.0091 31.9608 41.2425 32.2372L42.7705 30.9468ZM41.5373 28.7569C41.3522 28.2424 41.2041 27.679 41.0956 27.0644L39.1261 27.4122C39.2523 28.127 39.4279 28.8016 39.6554 29.4339L41.5373 28.7569ZM40.9006 25.2793C40.8859 24.9843 40.8785 24.6806 40.8785 24.368H38.8785C38.8785 24.7121 38.8866 25.049 38.9031 25.3788L40.9006 25.2793ZM40.8785 24.368V22.912H38.8785V24.368H40.8785ZM40.8785 20V18.544H38.8785V20H40.8785ZM40.8785 18.544C40.8785 18.2314 40.8859 17.9277 40.9006 17.6327L38.9031 17.5332C38.8866 17.863 38.8785 18.1999 38.8785 18.544H40.8785ZM41.0956 15.8476C41.2041 15.233 41.3522 14.6696 41.5373 14.1551L39.6554 13.4781C39.4279 14.1104 39.2523 14.785 39.1261 15.4998L41.0956 15.8476ZM42.2781 12.6332C42.4303 12.3962 42.5945 12.1737 42.7705 11.9652L41.2425 10.6748C41.0091 10.9512 40.7934 11.2438 40.5953 11.5524L42.2781 12.6332ZM42.7622 11.9749C42.9248 11.7873 43.0945 11.6128 43.2712 11.4512L41.9211 9.97559C41.6862 10.1906 41.4627 10.4205 41.2508 10.6651L42.7622 11.9749ZM44.4469 10.6142C44.8624 10.3898 45.3138 10.2103 45.8036 10.0775L45.2803 8.14721C44.6494 8.31824 44.0539 8.55342 43.4965 8.85449L44.4469 10.6142ZM47.2853 9.82878C47.5335 9.80968 47.7898 9.8 48.0545 9.8V7.8C47.7411 7.8 47.4335 7.81146 47.1319 7.83467L47.2853 9.82878ZM48.0545 9.8C48.3175 9.8 48.5721 9.80956 48.8183 9.82841L48.971 7.83425C48.6715 7.81132 48.366 7.8 48.0545 7.8V9.8ZM50.2881 10.0747C50.7744 10.2067 51.2207 10.3851 51.6298 10.608L52.5867 8.85171C52.0333 8.55019 51.4407 8.3151 50.8117 8.14447L50.2881 10.0747ZM52.7856 11.4422C52.9585 11.6035 53.1241 11.7777 53.2825 11.9652L54.8105 10.6748C54.6024 10.4283 54.3822 10.1965 54.1499 9.97979L52.7856 11.4422ZM53.2908 11.9749C53.4706 12.1824 53.6382 12.4035 53.7935 12.6387L55.4625 11.5366C55.2601 11.2301 55.04 10.9395 54.8022 10.6651L53.2908 11.9749ZM54.5525 14.1543C54.7428 14.6681 54.8951 15.2309 55.0068 15.8448L56.9745 15.487C56.8441 14.7701 56.6628 14.0935 56.4279 13.4596L54.5525 14.1543ZM55.2077 17.6313C55.2229 17.9267 55.2305 18.2309 55.2305 18.544H57.2305C57.2305 18.1984 57.2221 17.86 57.2051 17.5289L55.2077 17.6313ZM55.2305 18.544V20H57.2305V18.544H55.2305ZM55.2305 22.912V24.368H57.2305V22.912H55.2305ZM55.2305 24.368C55.2305 24.6811 55.2229 24.9853 55.2077 25.2807L57.2051 25.3831C57.2221 25.052 57.2305 24.7136 57.2305 24.368H55.2305ZM55.0068 27.0672C54.8951 27.6811 54.7428 28.2439 54.5525 28.7577L56.4279 29.4524C56.6628 28.8185 56.8441 28.1419 56.9745 27.425L55.0068 27.0672ZM53.7935 30.2733C53.6382 30.5085 53.4706 30.7296 53.2908 30.9371L54.8022 32.2469C55.04 31.9725 55.2601 31.6819 55.4625 31.3753L53.7935 30.2733ZM53.2825 30.9468C53.1241 31.1343 52.9585 31.3085 52.7856 31.4698L54.1499 32.9322C54.3822 32.7155 54.6024 32.4837 54.8105 32.2372L53.2825 30.9468ZM51.6298 32.304C51.2207 32.5269 50.7744 32.7053 50.2881 32.8373L50.8117 34.7675C51.4407 34.5969 52.0333 34.3618 52.5867 34.0603L51.6298 32.304ZM48.8183 33.0836C48.5721 33.1024 48.3175 33.112 48.0545 33.112V35.112C48.366 35.112 48.6715 35.1007 48.971 35.0777L48.8183 33.0836ZM72.3511 41H71.8511V41.5H72.3511V41ZM72.3511 1.912V1.412H71.8511V1.912H72.3511ZM80.8631 1.912H81.3631V1.412H80.8631V1.912ZM80.8631 33.44H80.3631V33.94H80.8631V33.44ZM95.7591 33.44H96.2591V32.94H95.7591V33.44ZM95.7591 41V41.5H96.2591V41H95.7591ZM72.8511 41V40.0228H71.8511V41H72.8511ZM72.8511 38.0684V36.114H71.8511V38.0684H72.8511ZM72.8511 34.1596V32.2052H71.8511V34.1596H72.8511ZM72.8511 30.2508V28.2964H71.8511V30.2508H72.8511ZM72.8511 26.342V24.3876H71.8511V26.342H72.8511ZM72.8511 22.4332V20.4788H71.8511V22.4332H72.8511ZM72.8511 18.5244V16.57H71.8511V18.5244H72.8511ZM72.8511 14.6156V12.6612H71.8511V14.6156H72.8511ZM72.8511 10.7068V8.75241H71.8511V10.7068H72.8511ZM72.8511 6.79801V4.84361H71.8511V6.79801H72.8511ZM72.8511 2.88921V1.912H71.8511V2.88921H72.8511ZM72.3511 2.412H73.4151V1.412H72.3511V2.412ZM75.5431 2.412H77.6711V1.412H75.5431V2.412ZM79.7991 2.412H80.8631V1.412H79.7991V2.412ZM80.3631 1.912V2.89725H81.3631V1.912H80.3631ZM80.3631 4.86775V6.83825H81.3631V4.86775H80.3631ZM80.3631 8.80875V10.7793H81.3631V8.80875H80.3631ZM80.3631 12.7498V14.7203H81.3631V12.7498H80.3631ZM80.3631 16.6908V18.6612H81.3631V16.6908H80.3631ZM80.3631 20.6317V22.6022H81.3631V20.6317H80.3631ZM80.3631 24.5728V26.5433H81.3631V24.5728H80.3631ZM80.3631 28.5138V30.4843H81.3631V28.5138H80.3631ZM80.3631 32.4548V33.44H81.3631V32.4548H80.3631ZM80.8631 33.94H81.7941V32.94H80.8631V33.94ZM83.6561 33.94H85.5181V32.94H83.6561V33.94ZM87.3801 33.94H89.2421V32.94H87.3801V33.94ZM91.1041 33.94H92.9661V32.94H91.1041V33.94ZM94.8281 33.94H95.7591V32.94H94.8281V33.94ZM95.2591 33.44V34.385H96.2591V33.44H95.2591ZM95.2591 36.275V38.165H96.2591V36.275H95.2591ZM95.2591 40.055V41H96.2591V40.055H95.2591ZM95.7591 40.5H94.7837V41.5H95.7591V40.5ZM92.8331 40.5H90.8824V41.5H92.8331V40.5ZM88.9317 40.5H86.9811V41.5H88.9317V40.5ZM85.0304 40.5H83.0797V41.5H85.0304V40.5ZM81.1291 40.5H79.1784V41.5H81.1291V40.5ZM77.2277 40.5H75.2771V41.5H77.2277V40.5ZM73.3264 40.5H72.3511V41.5H73.3264V40.5ZM72.3511 41H71.3511V42H72.3511V41ZM72.3511 1.912V0.911999H71.3511V1.912H72.3511ZM80.8631 1.912H81.8631V0.911999H80.8631V1.912ZM80.8631 33.44H79.8631V34.44H80.8631V33.44ZM95.7591 33.44H96.7591V32.44H95.7591V33.44ZM95.7591 41V42H96.7591V41H95.7591ZM73.3511 41V40.0228H71.3511V41H73.3511ZM73.3511 38.0684V36.114H71.3511V38.0684H73.3511ZM73.3511 34.1596V32.2052H71.3511V34.1596H73.3511ZM73.3511 30.2508V28.2964H71.3511V30.2508H73.3511ZM73.3511 26.342V24.3876H71.3511V26.342H73.3511ZM73.3511 22.4332V20.4788H71.3511V22.4332H73.3511ZM73.3511 18.5244V16.57H71.3511V18.5244H73.3511ZM73.3511 14.6156V12.6612H71.3511V14.6156H73.3511ZM73.3511 10.7068V8.75241H71.3511V10.7068H73.3511ZM73.3511 6.79801V4.84361H71.3511V6.79801H73.3511ZM73.3511 2.88921V1.912H71.3511V2.88921H73.3511ZM72.3511 2.912H73.4151V0.911999H72.3511V2.912ZM75.5431 2.912H77.6711V0.911999H75.5431V2.912ZM79.7991 2.912H80.8631V0.911999H79.7991V2.912ZM79.8631 1.912V2.89725H81.8631V1.912H79.8631ZM79.8631 4.86775V6.83825H81.8631V4.86775H79.8631ZM79.8631 8.80875V10.7793H81.8631V8.80875H79.8631ZM79.8631 12.7498V14.7203H81.8631V12.7498H79.8631ZM79.8631 16.6908V18.6612H81.8631V16.6908H79.8631ZM79.8631 20.6317V22.6022H81.8631V20.6317H79.8631ZM79.8631 24.5728V26.5433H81.8631V24.5728H79.8631ZM79.8631 28.5138V30.4843H81.8631V28.5138H79.8631ZM79.8631 32.4548V33.44H81.8631V32.4548H79.8631ZM80.8631 34.44H81.7941V32.44H80.8631V34.44ZM83.6561 34.44H85.5181V32.44H83.6561V34.44ZM87.3801 34.44H89.2421V32.44H87.3801V34.44ZM91.1041 34.44H92.9661V32.44H91.1041V34.44ZM94.8281 34.44H95.7591V32.44H94.8281V34.44ZM94.7591 33.44V34.385H96.7591V33.44H94.7591ZM94.7591 36.275V38.165H96.7591V36.275H94.7591ZM94.7591 40.055V41H96.7591V40.055H94.7591ZM95.7591 40H94.7837V42H95.7591V40ZM92.8331 40H90.8824V42H92.8331V40ZM88.9317 40H86.9811V42H88.9317V40ZM85.0304 40H83.0797V42H85.0304V40ZM81.1291 40H79.1784V42H81.1291V40ZM77.2277 40H75.2771V42H77.2277V40ZM73.3264 40H72.3511V42H73.3264V40ZM102.046 41H101.546V41.5H102.046V41ZM102.046 1.912V1.412H101.546V1.912H102.046ZM110.558 1.912H111.058V1.412H110.558V1.912ZM110.558 33.44H110.058V33.94H110.558V33.44ZM125.454 33.44H125.954V32.94H125.454V33.44ZM125.454 41V41.5H125.954V41H125.454ZM102.546 41V40.0228H101.546V41H102.546ZM102.546 38.0684V36.114H101.546V38.0684H102.546ZM102.546 34.1596V32.2052H101.546V34.1596H102.546ZM102.546 30.2508V28.2964H101.546V30.2508H102.546ZM102.546 26.342V24.3876H101.546V26.342H102.546ZM102.546 22.4332V20.4788H101.546V22.4332H102.546ZM102.546 18.5244V16.57H101.546V18.5244H102.546ZM102.546 14.6156V12.6612H101.546V14.6156H102.546ZM102.546 10.7068V8.75241H101.546V10.7068H102.546ZM102.546 6.79801V4.84361H101.546V6.79801H102.546ZM102.546 2.88921V1.912H101.546V2.88921H102.546ZM102.046 2.412H103.11V1.412H102.046V2.412ZM105.238 2.412H107.366V1.412H105.238V2.412ZM109.494 2.412H110.558V1.412H109.494V2.412ZM110.058 1.912V2.89725H111.058V1.912H110.058ZM110.058 4.86775V6.83825H111.058V4.86775H110.058ZM110.058 8.80875V10.7793H111.058V8.80875H110.058ZM110.058 12.7498V14.7203H111.058V12.7498H110.058ZM110.058 16.6908V18.6612H111.058V16.6908H110.058ZM110.058 20.6317V22.6022H111.058V20.6317H110.058ZM110.058 24.5728V26.5433H111.058V24.5728H110.058ZM110.058 28.5138V30.4843H111.058V28.5138H110.058ZM110.058 32.4548V33.44H111.058V32.4548H110.058ZM110.558 33.94H111.489V32.94H110.558V33.94ZM113.351 33.94H115.213V32.94H113.351V33.94ZM117.075 33.94H118.937V32.94H117.075V33.94ZM120.799 33.94H122.661V32.94H120.799V33.94ZM124.523 33.94H125.454V32.94H124.523V33.94ZM124.954 33.44V34.385H125.954V33.44H124.954ZM124.954 36.275V38.165H125.954V36.275H124.954ZM124.954 40.055V41H125.954V40.055H124.954ZM125.454 40.5H124.479V41.5H125.454V40.5ZM122.528 40.5H120.578V41.5H122.528V40.5ZM118.627 40.5H116.676V41.5H118.627V40.5ZM114.726 40.5H112.775V41.5H114.726V40.5ZM110.824 40.5H108.874V41.5H110.824V40.5ZM106.923 40.5H104.972V41.5H106.923V40.5ZM103.022 40.5H102.046V41.5H103.022V40.5ZM102.046 41H101.046V42H102.046V41ZM102.046 1.912V0.911999H101.046V1.912H102.046ZM110.558 1.912H111.558V0.911999H110.558V1.912ZM110.558 33.44H109.558V34.44H110.558V33.44ZM125.454 33.44H126.454V32.44H125.454V33.44ZM125.454 41V42H126.454V41H125.454ZM103.046 41V40.0228H101.046V41H103.046ZM103.046 38.0684V36.114H101.046V38.0684H103.046ZM103.046 34.1596V32.2052H101.046V34.1596H103.046ZM103.046 30.2508V28.2964H101.046V30.2508H103.046ZM103.046 26.342V24.3876H101.046V26.342H103.046ZM103.046 22.4332V20.4788H101.046V22.4332H103.046ZM103.046 18.5244V16.57H101.046V18.5244H103.046ZM103.046 14.6156V12.6612H101.046V14.6156H103.046ZM103.046 10.7068V8.75241H101.046V10.7068H103.046ZM103.046 6.79801V4.84361H101.046V6.79801H103.046ZM103.046 2.88921V1.912H101.046V2.88921H103.046ZM102.046 2.912H103.11V0.911999H102.046V2.912ZM105.238 2.912H107.366V0.911999H105.238V2.912ZM109.494 2.912H110.558V0.911999H109.494V2.912ZM109.558 1.912V2.89725H111.558V1.912H109.558ZM109.558 4.86775V6.83825H111.558V4.86775H109.558ZM109.558 8.80875V10.7793H111.558V8.80875H109.558ZM109.558 12.7498V14.7203H111.558V12.7498H109.558ZM109.558 16.6908V18.6612H111.558V16.6908H109.558ZM109.558 20.6317V22.6022H111.558V20.6317H109.558ZM109.558 24.5728V26.5433H111.558V24.5728H109.558ZM109.558 28.5138V30.4843H111.558V28.5138H109.558ZM109.558 32.4548V33.44H111.558V32.4548H109.558ZM110.558 34.44H111.489V32.44H110.558V34.44ZM113.351 34.44H115.213V32.44H113.351V34.44ZM117.075 34.44H118.937V32.44H117.075V34.44ZM120.799 34.44H122.661V32.44H120.799V34.44ZM124.523 34.44H125.454V32.44H124.523V34.44ZM124.454 33.44V34.385H126.454V33.44H124.454ZM124.454 36.275V38.165H126.454V36.275H124.454ZM124.454 40.055V41H126.454V40.055H124.454ZM125.454 40H124.479V42H125.454V40ZM122.528 40H120.578V42H122.528V40ZM118.627 40H116.676V42H118.627V40ZM114.726 40H112.775V42H114.726V40ZM110.824 40H108.874V42H110.824V40ZM106.923 40H104.972V42H106.923V40ZM103.022 40H102.046V42H103.022V40ZM138.124 40.384L137.936 40.8477L137.936 40.8477L138.124 40.384ZM132.692 36.576L132.314 36.9041L132.318 36.9082L132.692 36.576ZM129.22 30.248L128.744 30.4019L128.744 30.404L129.22 30.248ZM129.22 12.72L129.695 12.876L129.695 12.8739L129.22 12.72ZM132.692 6.392L133.065 6.7242L133.069 6.72009L132.692 6.392ZM138.124 2.528L137.936 2.06432L137.936 2.06432L138.124 2.528ZM152.236 2.528L152.048 2.99167L152.048 2.99167L152.236 2.528ZM157.668 6.392L157.29 6.72011L157.294 6.72418L157.668 6.392ZM161.14 12.72L160.664 12.8739L160.664 12.876L161.14 12.72ZM161.14 30.248L161.615 30.404L161.615 30.4019L161.14 30.248ZM157.668 36.576L158.041 36.9082L158.045 36.9041L157.668 36.576ZM152.236 40.384L152.048 39.9203L152.048 39.9203L152.236 40.384ZM151.172 31.592L150.794 31.2645L150.789 31.2694L151.172 31.592ZM151.172 11.32L150.789 11.6426L150.794 11.6475L151.172 11.32ZM139.132 11.32L138.754 10.9925L138.749 10.9974L139.132 11.32ZM139.132 31.592L138.749 31.9146L138.754 31.9195L139.132 31.592ZM145.18 41.172C144.882 41.172 144.588 41.1662 144.298 41.1545L144.257 42.1537C144.562 42.1659 144.869 42.172 145.18 42.172V41.172ZM142.544 41.0086C141.953 40.9328 141.377 40.8308 140.815 40.7027L140.593 41.6776C141.187 41.8131 141.795 41.9207 142.416 42.0004L142.544 41.0086ZM139.13 40.2253C138.853 40.1307 138.58 40.0291 138.311 39.9203L137.936 40.8477C138.223 40.9633 138.513 41.0713 138.807 41.1717L139.13 40.2253ZM138.311 39.9203C138.058 39.8185 137.811 39.7109 137.568 39.5973L137.144 40.5031C137.404 40.6244 137.668 40.7392 137.936 40.8477L138.311 39.9203ZM136.146 38.8313C135.685 38.5482 135.244 38.24 134.823 37.9067L134.203 38.6908C134.655 39.0487 135.128 39.3795 135.622 39.6831L136.146 38.8313ZM133.619 36.8323C133.43 36.6424 133.245 36.4462 133.065 36.2438L132.318 36.9082C132.51 37.1247 132.708 37.3347 132.911 37.5382L133.619 36.8323ZM133.069 36.2479C132.878 36.0281 132.692 35.8015 132.512 35.5681L131.72 36.1788C131.912 36.4275 132.11 36.6693 132.314 36.9041L133.069 36.2479ZM131.517 34.116C131.218 33.6228 130.938 33.1049 130.679 32.562L129.777 32.9931C130.05 33.5649 130.345 34.1123 130.663 34.6351L131.517 34.116ZM129.988 30.9304C129.886 30.6564 129.788 30.3769 129.695 30.092L128.744 30.404C128.842 30.7012 128.944 30.9933 129.051 31.2801L129.988 30.9304ZM129.695 30.0941C129.585 29.7537 129.482 29.4058 129.387 29.0503L128.421 29.3089C128.521 29.6805 128.628 30.0448 128.744 30.4019L129.695 30.0941ZM128.922 26.9181C128.802 26.2196 128.706 25.4961 128.636 24.7474L127.64 24.8411C127.713 25.6138 127.811 26.3628 127.936 27.088L128.922 26.9181ZM128.503 22.556C128.493 22.1945 128.488 21.8278 128.488 21.456H127.488C127.488 21.8371 127.493 22.2134 127.504 22.5847L128.503 22.556ZM128.488 21.456C128.488 21.0862 128.493 20.7218 128.503 20.3628L127.503 20.3341C127.493 20.703 127.488 21.077 127.488 21.456H128.488ZM128.634 18.1851C128.704 17.4399 128.8 16.7211 128.919 16.0284L127.934 15.8578C127.809 16.5775 127.711 17.3221 127.639 18.0914L128.634 18.1851ZM129.385 13.9113C129.481 13.5582 129.584 13.2131 129.695 12.876L128.744 12.564C128.628 12.9184 128.52 13.2804 128.42 13.6501L129.385 13.9113ZM129.695 12.8739C129.788 12.5881 129.884 12.308 129.985 12.0338L129.047 11.6881C128.941 11.9752 128.84 12.2679 128.744 12.5661L129.695 12.8739ZM130.67 10.3993C130.929 9.85383 131.207 9.33574 131.506 8.8448L130.651 8.3253C130.334 8.84709 130.039 9.39572 129.766 9.97098L130.67 10.3993ZM132.504 7.39782C132.685 7.16568 132.872 6.94114 133.065 6.72418L132.318 6.05982C132.111 6.2927 131.91 6.53341 131.716 6.78189L132.504 7.39782ZM133.069 6.72009C133.248 6.51441 133.431 6.31522 133.619 6.12251L132.903 5.42411C132.702 5.63067 132.505 5.84394 132.314 6.06391L133.069 6.72009ZM134.819 5.03086C135.24 4.69159 135.68 4.37863 136.14 4.09195L135.611 3.24329C135.117 3.55128 134.643 3.88763 134.191 4.25228L134.819 5.03086ZM137.565 3.31682C137.809 3.20223 138.057 3.09385 138.311 2.99167L137.936 2.06432C137.666 2.17341 137.4 2.28928 137.14 2.41194L137.565 3.31682ZM138.311 2.99167C138.58 2.88293 138.853 2.78126 139.13 2.68666L138.807 1.7403C138.513 1.84073 138.223 1.94873 137.936 2.06432L138.311 2.99167ZM140.815 2.20935C141.377 2.0812 141.953 1.97919 142.544 1.90344L142.416 0.911568C141.795 0.991291 141.187 1.09886 140.593 1.2344L140.815 2.20935ZM144.298 1.75751C144.588 1.74584 144.882 1.74 145.18 1.74V0.739998C144.869 0.739998 144.562 0.746098 144.257 0.758313L144.298 1.75751ZM145.18 1.74C145.477 1.74 145.771 1.74584 146.061 1.75751L146.102 0.758313C145.797 0.746098 145.49 0.739998 145.18 0.739998V1.74ZM147.815 1.90344C148.406 1.97919 148.982 2.0812 149.544 2.20935L149.766 1.2344C149.172 1.09886 148.564 0.99129 147.943 0.911568L147.815 1.90344ZM151.229 2.68666C151.506 2.78126 151.779 2.88293 152.048 2.99167L152.423 2.06432C152.136 1.94873 151.846 1.84073 151.552 1.7403L151.229 2.68666ZM152.048 2.99167C152.302 3.09385 152.55 3.20223 152.794 3.31682L153.219 2.41194C152.959 2.28928 152.693 2.17341 152.423 2.06432L152.048 2.99167ZM154.219 4.09195C154.679 4.37863 155.119 4.69159 155.54 5.03086L156.168 4.25228C155.716 3.88762 155.242 3.55128 154.748 3.24329L154.219 4.09195ZM156.74 6.12251C156.928 6.31522 157.111 6.51441 157.29 6.72009L158.045 6.06391C157.854 5.84394 157.657 5.63067 157.456 5.42411L156.74 6.12251ZM157.294 6.72418C157.487 6.94114 157.674 7.16568 157.855 7.39782L158.643 6.78189C158.449 6.53341 158.248 6.2927 158.041 6.05982L157.294 6.72418ZM158.853 8.8448C159.152 9.33574 159.43 9.85383 159.689 10.3993L160.593 9.97098C160.32 9.39572 160.025 8.84709 159.708 8.3253L158.853 8.8448ZM160.374 12.0338C160.475 12.308 160.571 12.5881 160.664 12.8739L161.615 12.5661C161.519 12.2679 161.418 11.9752 161.312 11.6881L160.374 12.0338ZM160.664 12.876C160.775 13.2131 160.878 13.5582 160.974 13.9113L161.939 13.6501C161.839 13.2804 161.731 12.9184 161.615 12.564L160.664 12.876ZM161.44 16.0284C161.559 16.7211 161.655 17.4399 161.725 18.1851L162.72 18.0914C162.648 17.3221 162.55 16.5775 162.425 15.8578L161.44 16.0284ZM161.856 20.3628C161.866 20.7218 161.872 21.0862 161.872 21.456H162.872C162.872 21.077 162.866 20.703 162.856 20.3341L161.856 20.3628ZM161.872 21.456C161.872 21.8278 161.866 22.1945 161.856 22.556L162.855 22.5847C162.866 22.2134 162.872 21.8371 162.872 21.456H161.872ZM161.723 24.7474C161.653 25.4961 161.557 26.2196 161.437 26.9181L162.423 27.088C162.548 26.3628 162.646 25.6138 162.719 24.8411L161.723 24.7474ZM160.972 29.0503C160.877 29.4058 160.774 29.7537 160.664 30.0941L161.615 30.4019C161.731 30.0448 161.838 29.6805 161.938 29.3089L160.972 29.0503ZM160.664 30.092C160.571 30.3769 160.473 30.6564 160.371 30.9304L161.308 31.2801C161.415 30.9933 161.517 30.7012 161.615 30.404L160.664 30.092ZM159.68 32.562C159.421 33.1049 159.141 33.6228 158.842 34.116L159.696 34.6351C160.014 34.1123 160.309 33.5649 160.582 32.9931L159.68 32.562ZM157.847 35.5681C157.667 35.8015 157.481 36.0281 157.29 36.2479L158.045 36.9041C158.249 36.6693 158.447 36.4275 158.639 36.1788L157.847 35.5681ZM157.294 36.2438C157.114 36.4462 156.929 36.6424 156.74 36.8323L157.448 37.5382C157.651 37.3347 157.849 37.1247 158.041 36.9082L157.294 36.2438ZM155.536 37.9067C155.115 38.24 154.674 38.5482 154.213 38.8313L154.737 39.6831C155.231 39.3795 155.704 39.0487 156.156 38.6908L155.536 37.9067ZM152.791 39.5973C152.548 39.7109 152.301 39.8185 152.048 39.9203L152.423 40.8477C152.691 40.7392 152.955 40.6244 153.215 40.5031L152.791 39.5973ZM152.048 39.9203C151.779 40.0291 151.506 40.1307 151.229 40.2253L151.552 41.1717C151.846 41.0713 152.136 40.9633 152.423 40.8477L152.048 39.9203ZM149.544 40.7027C148.982 40.8308 148.406 40.9328 147.815 41.0086L147.943 42.0004C148.564 41.9207 149.172 41.8131 149.766 41.6776L149.544 40.7027ZM146.061 41.1545C145.771 41.1662 145.477 41.172 145.18 41.172V42.172C145.49 42.172 145.797 42.1659 146.102 42.1537L146.061 41.1545ZM145.18 33.612C144.903 33.612 144.633 33.6019 144.372 33.5817L144.295 34.5788C144.584 34.601 144.878 34.612 145.18 34.612V33.612ZM142.798 33.3171C142.273 33.1747 141.785 32.9813 141.334 32.7377L140.859 33.6176C141.381 33.8995 141.94 34.1207 142.536 34.2822L142.798 33.3171ZM140.059 31.8297C139.867 31.6547 139.684 31.4664 139.509 31.2645L138.754 31.9195C138.953 32.1498 139.163 32.3659 139.384 32.5675L140.059 31.8297ZM139.514 31.2694C139.323 31.0439 139.146 30.8039 138.982 30.549L138.141 31.0894C138.328 31.3801 138.53 31.6552 138.749 31.9146L139.514 31.2694ZM138.192 28.9262C137.996 28.3822 137.841 27.791 137.728 27.1514L136.743 27.3252C136.865 28.015 137.034 28.6618 137.251 29.2647L138.192 28.9262ZM137.526 25.3042C137.511 25.0005 137.504 24.6884 137.504 24.368H136.504C136.504 24.7042 136.511 25.0329 136.527 25.3539L137.526 25.3042ZM137.504 24.368V22.912H136.504V24.368H137.504ZM137.504 20V18.544H136.504V20H137.504ZM137.504 18.544C137.504 18.2236 137.511 17.9115 137.526 17.6078L136.527 17.5581C136.511 17.8791 136.504 18.2078 136.504 18.544H137.504ZM137.728 15.7606C137.841 15.121 137.996 14.5298 138.192 13.9858L137.251 13.6473C137.034 14.2502 136.865 14.897 136.743 15.5868L137.728 15.7606ZM138.982 12.363C139.146 12.1081 139.323 11.8681 139.514 11.6426L138.749 10.9974C138.53 11.2568 138.328 11.5319 138.141 11.8226L138.982 12.363ZM139.509 11.6475C139.684 11.4456 139.867 11.2573 140.059 11.0823L139.384 10.3445C139.163 10.5461 138.953 10.7622 138.754 10.9925L139.509 11.6475ZM141.334 10.1743C141.785 9.93071 142.273 9.7373 142.798 9.59494L142.536 8.62979C141.94 8.79126 141.381 9.01252 140.859 9.29442L141.334 10.1743ZM144.372 9.33025C144.633 9.31013 144.903 9.3 145.18 9.3V8.3C144.878 8.3 144.584 8.31102 144.295 8.33319L144.372 9.33025ZM145.18 9.3C145.455 9.3 145.722 9.31 145.981 9.32987L146.058 8.33279C145.772 8.31088 145.479 8.3 145.18 8.3V9.3ZM147.544 9.59214C148.066 9.73376 148.549 9.92635 148.994 10.1689L149.472 9.29077C148.955 9.00891 148.399 8.78799 147.806 8.62703L147.544 9.59214ZM150.252 11.0766C150.439 11.2517 150.619 11.4403 150.789 11.6426L151.554 10.9974C151.358 10.7656 151.151 10.5482 150.934 10.3454L150.252 11.0766ZM150.794 11.6475C150.988 11.8716 151.169 12.1102 151.336 12.3632L152.17 11.8122C151.98 11.5235 151.773 11.2502 151.549 10.9925L150.794 11.6475ZM152.146 13.9806C152.348 14.5245 152.507 15.1157 152.624 15.7554L153.608 15.5764C153.482 14.8853 153.308 14.2371 153.084 13.6332L152.146 13.9806ZM152.832 17.6057C152.848 17.91 152.856 18.2228 152.856 18.544H153.856C153.856 18.2066 153.847 17.8767 153.831 17.5545L152.832 17.6057ZM152.856 18.544V20H153.856V18.544H152.856ZM152.856 22.912V24.368H153.856V22.912H152.856ZM152.856 24.368C152.856 24.6892 152.848 25.002 152.832 25.3063L153.831 25.3575C153.847 25.0353 153.856 24.7054 153.856 24.368H152.856ZM152.624 27.1566C152.507 27.7963 152.348 28.3875 152.146 28.9314L153.084 29.2787C153.308 28.6748 153.482 28.0267 153.608 27.3356L152.624 27.1566ZM151.336 30.5488C151.169 30.8018 150.988 31.0404 150.794 31.2645L151.549 31.9195C151.773 31.6618 151.98 31.3885 152.17 31.0998L151.336 30.5488ZM150.789 31.2694C150.619 31.4717 150.439 31.6603 150.252 31.8354L150.934 32.5666C151.151 32.3638 151.358 32.1464 151.554 31.9146L150.789 31.2694ZM148.994 32.7431C148.549 32.9856 148.066 33.1782 147.544 33.3199L147.806 34.285C148.399 34.124 148.955 33.9031 149.472 33.6212L148.994 32.7431ZM145.981 33.5821C145.722 33.602 145.455 33.612 145.18 33.612V34.612C145.479 34.612 145.772 34.6011 146.058 34.5792L145.981 33.5821ZM138.124 40.384L137.749 41.3114L137.749 41.3114L138.124 40.384ZM132.692 36.576L131.937 37.2322L131.944 37.2404L132.692 36.576ZM129.22 30.248L128.268 30.5558L128.269 30.56L129.22 30.248ZM129.22 12.72L130.17 13.032L130.171 13.0278L129.22 12.72ZM132.692 6.392L133.439 7.0564L133.446 7.04818L132.692 6.392ZM138.124 2.528L137.749 1.60065L137.749 1.60065L138.124 2.528ZM152.236 2.528L151.861 3.45535L151.861 3.45535L152.236 2.528ZM157.668 6.392L156.913 7.04822L156.92 7.05636L157.668 6.392ZM161.14 12.72L160.188 13.0278L160.189 13.032L161.14 12.72ZM161.14 30.248L162.09 30.56L162.091 30.5558L161.14 30.248ZM157.668 36.576L158.415 37.2404L158.422 37.2322L157.668 36.576ZM152.236 40.384L151.861 39.4566L151.861 39.4566L152.236 40.384ZM151.172 31.592L150.416 30.937L150.407 30.9468L151.172 31.592ZM151.172 11.32L150.407 11.9652L150.416 11.9749L151.172 11.32ZM139.132 11.32L138.376 10.665L138.367 10.6748L139.132 11.32ZM139.132 31.592L138.367 32.2372L138.376 32.2469L139.132 31.592ZM145.18 40.672C144.889 40.672 144.602 40.6663 144.318 40.6549L144.237 42.6533C144.549 42.6658 144.863 42.672 145.18 42.672V40.672ZM142.607 40.5126C142.032 40.4389 141.472 40.3396 140.926 40.2152L140.482 42.1651C141.092 42.3043 141.716 42.4147 142.353 42.4964L142.607 40.5126ZM139.292 39.7522C139.023 39.6605 138.759 39.562 138.498 39.4566L137.749 41.3114C138.044 41.4304 138.343 41.5415 138.646 41.6449L139.292 39.7522ZM138.498 39.4566C138.254 39.3582 138.014 39.2541 137.78 39.1444L136.933 40.956C137.2 41.0811 137.472 41.1996 137.749 41.3114L138.498 39.4566ZM136.407 38.4054C135.964 38.1325 135.539 37.8356 135.133 37.5146L133.892 39.0829C134.36 39.4531 134.849 39.7951 135.36 40.109L136.407 38.4054ZM133.973 36.4793C133.791 36.2962 133.613 36.107 133.439 35.9116L131.944 37.2404C132.143 37.4639 132.347 37.6809 132.557 37.8912L133.973 36.4793ZM133.446 35.9198C133.261 35.7075 133.082 35.4884 132.908 35.2627L131.324 36.4841C131.522 36.7405 131.726 36.9899 131.937 37.2322L133.446 35.9198ZM131.945 33.8564C131.654 33.378 131.383 32.8748 131.13 32.3465L129.326 33.2086C129.606 33.795 129.909 34.3571 130.235 34.8947L131.945 33.8564ZM130.457 30.7556C130.357 30.4879 130.261 30.2147 130.17 29.936L128.269 30.56C128.369 30.8634 128.474 31.1617 128.583 31.4549L130.457 30.7556ZM130.171 29.9402C130.064 29.6081 129.963 29.2684 129.87 28.921L127.938 29.4382C128.04 29.8178 128.15 30.1904 128.268 30.5558L130.171 29.9402ZM129.415 26.8332C129.297 26.148 129.203 25.4372 129.133 24.7006L127.142 24.888C127.216 25.6727 127.316 26.4344 127.444 27.1729L129.415 26.8332ZM129.003 22.5416C128.993 22.185 128.988 21.8232 128.988 21.456H126.988C126.988 21.8418 126.993 22.2229 127.004 22.5991L129.003 22.5416ZM128.988 21.456C128.988 21.0909 128.993 20.7313 129.003 20.3771L127.004 20.3198C126.993 20.6936 126.988 21.0723 126.988 21.456H128.988ZM129.132 18.2319C129.201 17.4989 129.295 16.7929 129.412 16.1137L127.441 15.7725C127.314 16.5057 127.214 17.2631 127.141 18.0446L129.132 18.2319ZM129.868 14.042C129.961 13.6971 130.062 13.3605 130.17 13.032L128.269 12.408C128.15 12.771 128.04 13.1415 127.937 13.5194L129.868 14.042ZM130.171 13.0278C130.261 12.7481 130.356 12.4744 130.455 12.2066L128.578 11.5153C128.47 11.8088 128.367 12.1078 128.268 12.4122L130.171 13.0278ZM131.122 10.6135C131.373 10.0829 131.644 9.58007 131.933 9.10456L130.224 8.06554C129.897 8.60276 129.594 9.16667 129.315 9.75682L131.122 10.6135ZM132.898 7.70579C133.073 7.48181 133.253 7.26536 133.439 7.05636L131.944 5.72763C131.73 5.96849 131.523 6.21727 131.322 6.47393L132.898 7.70579ZM133.446 7.04818C133.619 6.84964 133.796 6.6575 133.977 6.47172L132.546 5.07491C132.337 5.28839 132.134 5.50871 131.937 5.73582L133.446 7.04818ZM135.132 5.42015C135.538 5.09357 135.961 4.79231 136.404 4.51627L135.346 2.81897C134.835 3.1376 134.345 3.48564 133.877 3.86299L135.132 5.42015ZM137.778 3.76926C138.013 3.65871 138.253 3.55406 138.498 3.45535L137.749 1.60065C137.47 1.71319 137.196 1.8328 136.927 1.9595L137.778 3.76926ZM138.498 3.45535C138.759 3.35003 139.023 3.25153 139.292 3.15984L138.646 1.26711C138.343 1.37046 138.044 1.48163 137.749 1.60065L138.498 3.45535ZM140.926 2.69682C141.472 2.57237 142.032 2.47314 142.607 2.39938L142.353 0.41563C141.716 0.497341 141.092 0.607689 140.482 0.746927L140.926 2.69682ZM144.318 2.25711C144.602 2.24571 144.889 2.24 145.18 2.24V0.239998C144.863 0.239998 144.549 0.246226 144.237 0.258715L144.318 2.25711ZM145.18 2.24C145.47 2.24 145.757 2.24571 146.041 2.25711L146.122 0.258715C145.81 0.246226 145.496 0.239998 145.18 0.239998V2.24ZM147.752 2.39938C148.327 2.47314 148.887 2.57237 149.433 2.69682L149.877 0.746927C149.267 0.607689 148.643 0.497341 148.006 0.41563L147.752 2.39938ZM151.067 3.15984C151.336 3.25153 151.6 3.35003 151.861 3.45535L152.61 1.60065C152.315 1.48163 152.016 1.37046 151.713 1.26711L151.067 3.15984ZM151.861 3.45535C152.106 3.55406 152.346 3.65871 152.581 3.76926L153.432 1.9595C153.163 1.8328 152.889 1.71319 152.61 1.60065L151.861 3.45535ZM153.955 4.51627C154.398 4.79231 154.821 5.09357 155.227 5.42015L156.482 3.86299C156.014 3.48564 155.524 3.1376 155.013 2.81897L153.955 4.51627ZM156.382 6.47172C156.563 6.6575 156.74 6.84964 156.913 7.04818L158.422 5.73582C158.225 5.50871 158.022 5.28839 157.813 5.07491L156.382 6.47172ZM156.92 7.05636C157.106 7.26536 157.286 7.48181 157.461 7.70579L159.037 6.47393C158.836 6.21727 158.629 5.96849 158.415 5.72763L156.92 7.05636ZM158.426 9.10456C158.715 9.58007 158.986 10.0829 159.237 10.6135L161.044 9.75682C160.765 9.16667 160.462 8.60276 160.135 8.06554L158.426 9.10456ZM159.904 12.2066C160.003 12.4744 160.098 12.7481 160.188 13.0278L162.091 12.4122C161.992 12.1078 161.889 11.8088 161.781 11.5153L159.904 12.2066ZM160.189 13.032C160.297 13.3605 160.398 13.6971 160.491 14.042L162.422 13.5194C162.319 13.1415 162.209 12.771 162.09 12.408L160.189 13.032ZM160.947 16.1137C161.064 16.7929 161.158 17.4989 161.227 18.2319L163.218 18.0446C163.145 17.2631 163.045 16.5057 162.918 15.7725L160.947 16.1137ZM161.356 20.3771C161.366 20.7313 161.372 21.0909 161.372 21.456H163.372C163.372 21.0723 163.366 20.6936 163.355 20.3198L161.356 20.3771ZM161.372 21.456C161.372 21.8232 161.366 22.185 161.356 22.5416L163.355 22.5991C163.366 22.2229 163.372 21.8418 163.372 21.456H161.372ZM161.226 24.7006C161.156 25.4372 161.062 26.148 160.944 26.8332L162.915 27.1729C163.043 26.4344 163.143 25.6727 163.217 24.888L161.226 24.7006ZM160.489 28.921C160.396 29.2684 160.295 29.6081 160.188 29.9402L162.091 30.5558C162.209 30.1904 162.319 29.8178 162.421 29.4382L160.489 28.921ZM160.189 29.936C160.098 30.2147 160.002 30.4879 159.902 30.7556L161.776 31.4549C161.885 31.1617 161.99 30.8634 162.09 30.56L160.189 29.936ZM159.229 32.3465C158.976 32.8748 158.705 33.378 158.414 33.8564L160.124 34.8947C160.45 34.3571 160.753 33.7949 161.033 33.2086L159.229 32.3465ZM157.451 35.2628C157.277 35.4884 157.098 35.7075 156.913 35.9198L158.422 37.2322C158.633 36.9899 158.837 36.7405 159.035 36.4841L157.451 35.2628ZM156.92 35.9116C156.746 36.107 156.568 36.2962 156.386 36.4793L157.802 37.8912C158.012 37.6809 158.216 37.4639 158.415 37.2404L156.92 35.9116ZM155.226 37.5146C154.82 37.8356 154.395 38.1325 153.952 38.4054L154.999 40.109C155.51 39.7951 155.999 39.4531 156.467 39.0829L155.226 37.5146ZM152.579 39.1444C152.345 39.2541 152.105 39.3582 151.861 39.4566L152.61 41.3114C152.887 41.1996 153.159 41.0811 153.426 40.956L152.579 39.1444ZM151.861 39.4566C151.6 39.562 151.336 39.6605 151.067 39.7522L151.713 41.6449C152.016 41.5415 152.315 41.4304 152.61 41.3114L151.861 39.4566ZM149.433 40.2152C148.887 40.3396 148.327 40.4389 147.752 40.5126L148.006 42.4964C148.643 42.4147 149.267 42.3043 149.877 42.1651L149.433 40.2152ZM146.041 40.6549C145.757 40.6663 145.47 40.672 145.18 40.672V42.672C145.496 42.672 145.81 42.6658 146.122 42.6533L146.041 40.6549ZM145.18 33.112C144.915 33.112 144.658 33.1023 144.41 33.0832L144.257 35.0773C144.559 35.1005 144.866 35.112 145.18 35.112V33.112ZM142.929 32.8345C142.439 32.7017 141.987 32.5222 141.572 32.2978L140.621 34.0575C141.179 34.3586 141.774 34.5938 142.405 34.7648L142.929 32.8345ZM140.396 31.4608C140.22 31.2992 140.05 31.1247 139.887 30.9371L138.376 32.2469C138.588 32.4915 138.811 32.7214 139.046 32.9364L140.396 31.4608ZM139.896 30.9468C139.719 30.7383 139.555 30.5158 139.403 30.2788L137.72 31.3596C137.918 31.6682 138.134 31.9608 138.367 32.2372L139.896 30.9468ZM138.662 28.7569C138.477 28.2424 138.329 27.679 138.221 27.0644L136.251 27.4122C136.377 28.127 136.553 28.8016 136.78 29.4339L138.662 28.7569ZM138.026 25.2793C138.011 24.9843 138.004 24.6806 138.004 24.368H136.004C136.004 24.7121 136.012 25.049 136.028 25.3788L138.026 25.2793ZM138.004 24.368V22.912H136.004V24.368H138.004ZM138.004 20V18.544H136.004V20H138.004ZM138.004 18.544C138.004 18.2314 138.011 17.9277 138.026 17.6327L136.028 17.5332C136.012 17.863 136.004 18.1999 136.004 18.544H138.004ZM138.221 15.8476C138.329 15.233 138.477 14.6696 138.662 14.1551L136.78 13.4781C136.553 14.1104 136.377 14.785 136.251 15.4998L138.221 15.8476ZM139.403 12.6332C139.555 12.3962 139.719 12.1737 139.896 11.9652L138.367 10.6748C138.134 10.9512 137.918 11.2438 137.72 11.5524L139.403 12.6332ZM139.887 11.9749C140.05 11.7873 140.22 11.6128 140.396 11.4512L139.046 9.97559C138.811 10.1906 138.588 10.4205 138.376 10.6651L139.887 11.9749ZM141.572 10.6142C141.987 10.3898 142.439 10.2103 142.929 10.0775L142.405 8.14721C141.774 8.31824 141.179 8.55342 140.621 8.85449L141.572 10.6142ZM144.41 9.82878C144.658 9.80968 144.915 9.8 145.18 9.8V7.8C144.866 7.8 144.559 7.81146 144.257 7.83467L144.41 9.82878ZM145.18 9.8C145.443 9.8 145.697 9.80956 145.943 9.82841L146.096 7.83425C145.797 7.81132 145.491 7.8 145.18 7.8V9.8ZM147.413 10.0747C147.899 10.2067 148.346 10.3851 148.755 10.608L149.712 8.85171C149.158 8.55019 148.566 8.3151 147.937 8.14447L147.413 10.0747ZM149.911 11.4422C150.083 11.6035 150.249 11.7777 150.407 11.9652L151.936 10.6748C151.727 10.4283 151.507 10.1965 151.275 9.97979L149.911 11.4422ZM150.416 11.9749C150.596 12.1824 150.763 12.4035 150.918 12.6387L152.587 11.5366C152.385 11.2301 152.165 10.9395 151.927 10.6651L150.416 11.9749ZM151.677 14.1543C151.868 14.6681 152.02 15.2309 152.132 15.8448L154.099 15.487C153.969 14.7701 153.788 14.0935 153.553 13.4596L151.677 14.1543ZM152.333 17.6313C152.348 17.9267 152.356 18.2309 152.356 18.544H154.356C154.356 18.1984 154.347 17.86 154.33 17.5289L152.333 17.6313ZM152.356 18.544V20H154.356V18.544H152.356ZM152.356 22.912V24.368H154.356V22.912H152.356ZM152.356 24.368C152.356 24.6811 152.348 24.9853 152.333 25.2807L154.33 25.3831C154.347 25.052 154.356 24.7136 154.356 24.368H152.356ZM152.132 27.0672C152.02 27.6811 151.868 28.2439 151.677 28.7577L153.553 29.4524C153.788 28.8185 153.969 28.1419 154.099 27.425L152.132 27.0672ZM150.918 30.2733C150.763 30.5085 150.596 30.7296 150.416 30.9371L151.927 32.2469C152.165 31.9725 152.385 31.6819 152.587 31.3753L150.918 30.2733ZM150.407 30.9468C150.249 31.1343 150.083 31.3085 149.911 31.4698L151.275 32.9322C151.507 32.7155 151.727 32.4837 151.936 32.2372L150.407 30.9468ZM148.755 32.304C148.346 32.5269 147.899 32.7053 147.413 32.8373L147.937 34.7675C148.566 34.5969 149.158 34.3618 149.712 34.0603L148.755 32.304ZM145.943 33.0836C145.697 33.1024 145.443 33.112 145.18 33.112V35.112C145.491 35.112 145.797 35.1007 146.096 35.0777L145.943 33.0836ZM174.324 41L173.836 41.1104L173.924 41.5H174.324V41ZM165.476 1.912V1.412H164.85L164.988 2.02239L165.476 1.912ZM173.876 1.912L174.366 1.81535L174.287 1.412H173.876V1.912ZM177.572 20.672L178.063 20.5783L178.062 20.5754L177.572 20.672ZM179.644 31.536L179.152 31.6297L179.23 32.036H179.644V31.536ZM179.812 31.536V32.036H180.211L180.299 31.6466L179.812 31.536ZM182.276 20.672L181.788 20.56L181.788 20.5614L182.276 20.672ZM186.588 1.912V1.412H186.189L186.1 1.79999L186.588 1.912ZM195.884 1.912L196.371 1.79861L196.281 1.412H195.884V1.912ZM200.252 20.672L200.74 20.5638L200.739 20.5586L200.252 20.672ZM202.66 31.536L202.171 31.6442L202.258 32.036H202.66V31.536ZM202.828 31.536V32.036H203.241L203.319 31.6297L202.828 31.536ZM204.9 20.672L204.409 20.5739L204.408 20.5783L204.9 20.672ZM208.652 1.912V1.412H208.242L208.161 1.81394L208.652 1.912ZM216.716 1.912L217.203 2.02504L217.345 1.412H216.716V1.912ZM207.644 41V41.5H208.041L208.131 41.113L207.644 41ZM197.956 41L197.469 41.1134L197.559 41.5H197.956V41ZM193.028 19.832L192.539 19.9405L192.541 19.9454L193.028 19.832ZM191.124 11.264L191.612 11.1555L191.525 10.764H191.124V11.264ZM190.956 11.264V10.764H190.557L190.468 11.1525L190.956 11.264ZM188.996 19.832L189.483 19.9454L189.483 19.9435L188.996 19.832ZM184.068 41V41.5H184.465L184.555 41.1134L184.068 41ZM174.811 40.8896L174.59 39.9124L173.615 40.1332L173.836 41.1104L174.811 40.8896ZM174.148 37.958L173.705 36.0036L172.73 36.2244L173.172 38.1788L174.148 37.958ZM173.263 34.0492L172.82 32.0948L171.845 32.3156L172.288 34.27L173.263 34.0492ZM172.378 30.1404L171.936 28.186L170.96 28.4068L171.403 30.3612L172.378 30.1404ZM171.493 26.2316L171.051 24.2772L170.076 24.498L170.518 26.4524L171.493 26.2316ZM170.608 22.3228L170.166 20.3684L169.191 20.5892L169.633 22.5436L170.608 22.3228ZM169.724 18.414L169.281 16.4596L168.306 16.6804L168.748 18.6348L169.724 18.414ZM168.839 14.5052L168.396 12.5508L167.421 12.7716L167.864 14.726L168.839 14.5052ZM167.954 10.5964L167.512 8.64201L166.536 8.86279L166.979 10.8172L167.954 10.5964ZM167.069 6.68761L166.627 4.73322L165.652 4.95399L166.094 6.90839L167.069 6.68761ZM166.184 2.77882L165.963 1.80161L164.988 2.02239L165.209 2.99959L166.184 2.77882ZM165.476 2.412H166.526V1.412H165.476V2.412ZM168.626 2.412H170.726V1.412H168.626V2.412ZM172.826 2.412H173.876V1.412H172.826V2.412ZM173.385 2.00865L173.57 2.94665L174.551 2.75335L174.366 1.81535L173.385 2.00865ZM173.939 4.82265L174.309 6.69865L175.29 6.50535L174.921 4.62935L173.939 4.82265ZM174.679 8.57465L175.048 10.4506L176.029 10.2574L175.66 8.38135L174.679 8.57465ZM175.418 12.3266L175.787 14.2026L176.769 14.0093L176.399 12.1334L175.418 12.3266ZM176.157 16.0786L176.527 17.9546L177.508 17.7613L177.138 15.8853L176.157 16.0786ZM176.896 19.8306L177.081 20.7686L178.062 20.5754L177.877 19.6373L176.896 19.8306ZM177.08 20.7657L177.253 21.671L178.235 21.4837L178.063 20.5783L177.08 20.7657ZM177.598 23.4817L177.944 25.2923L178.926 25.105L178.581 23.2943L177.598 23.4817ZM178.289 27.103L178.634 28.9137L179.617 28.7263L179.271 26.9157L178.289 27.103ZM178.98 30.7243L179.152 31.6297L180.135 31.4423L179.962 30.537L178.98 30.7243ZM179.644 32.036H179.686V31.036H179.644V32.036ZM179.77 32.036H179.812V31.036H179.77V32.036ZM180.299 31.6466L180.505 30.7413L179.529 30.5201L179.324 31.4254L180.299 31.6466ZM180.915 28.9306L181.326 27.1199L180.351 26.8987L179.94 28.7094L180.915 28.9306ZM181.737 25.3093L182.147 23.4986L181.172 23.2774L180.761 25.0881L181.737 25.3093ZM182.558 21.6879L182.763 20.7826L181.788 20.5614L181.583 21.4667L182.558 21.6879ZM182.763 20.784L182.978 19.846L182.004 19.622L181.788 20.56L182.763 20.784ZM183.41 17.97L183.841 16.094L182.866 15.87L182.435 17.746L183.41 17.97ZM184.272 14.218L184.703 12.342L183.729 12.118L183.297 13.994L184.272 14.218ZM185.134 10.466L185.566 8.59L184.591 8.36599L184.16 10.242L185.134 10.466ZM185.997 6.714L186.428 4.838L185.453 4.61399L185.022 6.48999L185.997 6.714ZM186.859 2.962L187.075 2.024L186.1 1.79999L185.885 2.73799L186.859 2.962ZM186.588 2.412H187.75V1.412H186.588V2.412ZM190.074 2.412H192.398V1.412H190.074V2.412ZM194.722 2.412H195.884V1.412H194.722V2.412ZM195.397 2.02538L195.615 2.96338L196.589 2.73661L196.371 1.79861L195.397 2.02538ZM196.052 4.83938L196.489 6.71538L197.463 6.48861L197.026 4.61261L196.052 4.83938ZM196.925 8.59138L197.362 10.4674L198.336 10.2406L197.899 8.36461L196.925 8.59138ZM197.799 12.3434L198.236 14.2194L199.21 13.9926L198.773 12.1166L197.799 12.3434ZM198.673 16.0954L199.109 17.9714L200.083 17.7446L199.647 15.8686L198.673 16.0954ZM199.546 19.8474L199.765 20.7854L200.739 20.5586L200.52 19.6206L199.546 19.8474ZM199.763 20.7802L199.964 21.6855L200.94 21.4691L200.74 20.5638L199.763 20.7802ZM200.365 23.4962L200.767 25.3069L201.743 25.0905L201.342 23.2798L200.365 23.4962ZM201.168 27.1175L201.569 28.9282L202.546 28.7118L202.144 26.9011L201.168 27.1175ZM201.971 30.7389L202.171 31.6442L203.148 31.4278L202.947 30.5225L201.971 30.7389ZM202.66 32.036H202.702V31.036H202.66V32.036ZM202.786 32.036H202.828V31.036H202.786V32.036ZM203.319 31.6297L203.491 30.7243L202.509 30.537L202.336 31.4423L203.319 31.6297ZM203.837 28.9137L204.182 27.103L203.2 26.9157L202.854 28.7263L203.837 28.9137ZM204.527 25.2923L204.873 23.4817L203.89 23.2943L203.545 25.105L204.527 25.2923ZM205.218 21.671L205.391 20.7657L204.408 20.5783L204.236 21.4837L205.218 21.671ZM205.39 20.7701L205.577 19.8321L204.597 19.6359L204.409 20.5739L205.39 20.7701ZM205.953 17.9561L206.328 16.0801L205.347 15.8839L204.972 17.7599L205.953 17.9561ZM206.703 14.2041L207.078 12.3281L206.098 12.1319L205.722 14.0079L206.703 14.2041ZM207.453 10.4521L207.829 8.57606L206.848 8.37994L206.473 10.2559L207.453 10.4521ZM208.204 6.70006L208.579 4.82406L207.598 4.62794L207.223 6.50394L208.204 6.70006ZM208.954 2.94806L209.142 2.01006L208.161 1.81394L207.974 2.75194L208.954 2.94806ZM208.652 2.412H209.66V1.412H208.652V2.412ZM211.676 2.412H213.692V1.412H211.676V2.412ZM215.708 2.412H216.716V1.412H215.708V2.412ZM216.229 1.79896L216.002 2.77616L216.976 3.00224L217.203 2.02504L216.229 1.79896ZM215.548 4.73056L215.095 6.68496L216.069 6.91104L216.522 4.95664L215.548 4.73056ZM214.641 8.63936L214.187 10.5938L215.161 10.8198L215.615 8.86544L214.641 8.63936ZM213.734 12.5482L213.28 14.5026L214.254 14.7286L214.708 12.7742L213.734 12.5482ZM212.827 16.457L212.373 18.4114L213.347 18.6374L213.801 16.683L212.827 16.457ZM211.919 20.3658L211.466 22.3202L212.44 22.5462L212.893 20.5918L211.919 20.3658ZM211.012 24.2746L210.559 26.229L211.533 26.455L211.986 24.5006L211.012 24.2746ZM210.105 28.1834L209.651 30.1378L210.625 30.3638L211.079 28.4094L210.105 28.1834ZM209.198 32.0922L208.744 34.0466L209.718 34.2726L210.172 32.3182L209.198 32.0922ZM208.291 36.001L207.837 37.9554L208.811 38.1814L209.265 36.227L208.291 36.001ZM207.383 39.9098L207.157 40.887L208.131 41.113L208.357 40.1358L207.383 39.9098ZM207.644 40.5H206.433V41.5H207.644V40.5ZM204.011 40.5H201.589V41.5H204.011V40.5ZM199.167 40.5H197.956V41.5H199.167V40.5ZM198.443 40.8866L198.196 39.8282L197.222 40.055L197.469 41.1134L198.443 40.8866ZM197.703 37.7114L197.211 35.5946L196.237 35.8214L196.729 37.9382L197.703 37.7114ZM196.718 33.4778L196.225 31.361L195.251 31.5878L195.744 33.7046L196.718 33.4778ZM195.732 29.2442L195.239 27.1274L194.265 27.3542L194.758 29.471L195.732 29.2442ZM194.747 25.0106L194.254 22.8938L193.28 23.1206L193.773 25.2374L194.747 25.0106ZM193.761 20.777L193.515 19.7186L192.541 19.9454L192.787 21.0038L193.761 20.777ZM193.516 19.7235L193.278 18.6525L192.301 18.8695L192.539 19.9405L193.516 19.7235ZM192.802 16.5105L192.326 14.3685L191.349 14.5855L191.825 16.7275L192.802 16.5105ZM191.85 12.2265L191.612 11.1555L190.635 11.3725L190.873 12.4435L191.85 12.2265ZM191.124 10.764H191.082V11.764H191.124V10.764ZM190.998 10.764H190.956V11.764H190.998V10.764ZM190.468 11.1525L190.223 12.2235L191.198 12.4465L191.443 11.3755L190.468 11.1525ZM189.733 14.3655L189.243 16.5075L190.218 16.7305L190.708 14.5885L189.733 14.3655ZM188.753 18.6495L188.508 19.7205L189.483 19.9435L189.728 18.8725L188.753 18.6495ZM188.509 19.7186L188.262 20.777L189.236 21.0038L189.483 19.9454L188.509 19.7186ZM187.769 22.8938L187.277 25.0106L188.251 25.2374L188.743 23.1206L187.769 22.8938ZM186.784 27.1274L186.291 29.2442L187.265 29.471L187.758 27.3542L186.784 27.1274ZM185.798 31.361L185.305 33.4778L186.279 33.7046L186.772 31.5878L185.798 31.361ZM184.813 35.5946L184.32 37.7114L185.294 37.9382L185.787 35.8214L184.813 35.5946ZM183.827 39.8282L183.581 40.8866L184.555 41.1134L184.801 40.055L183.827 39.8282ZM184.068 40.5H182.85V41.5H184.068V40.5ZM180.414 40.5H177.978V41.5H180.414V40.5ZM175.542 40.5H174.324V41.5H175.542V40.5ZM174.324 41L173.348 41.2208L173.525 42H174.324V41ZM165.476 1.912V0.911999H164.224L164.5 2.13277L165.476 1.912ZM173.876 1.912L174.857 1.7187L174.698 0.911999H173.876V1.912ZM177.572 20.672L178.554 20.4847L178.553 20.4787L177.572 20.672ZM179.644 31.536L178.661 31.7233L178.816 32.536H179.644V31.536ZM179.812 31.536V32.536H180.61L180.787 31.7572L179.812 31.536ZM182.276 20.672L181.301 20.448L181.3 20.4508L182.276 20.672ZM186.588 1.912V0.911999H185.791L185.613 1.68799L186.588 1.912ZM195.884 1.912L196.858 1.68523L196.677 0.911999H195.884V1.912ZM200.252 20.672L201.228 20.4556L201.226 20.4452L200.252 20.672ZM202.66 31.536L201.683 31.7524L201.857 32.536H202.66V31.536ZM202.828 31.536V32.536H203.655L203.81 31.7233L202.828 31.536ZM204.9 20.672L203.919 20.4759L203.917 20.4847L204.9 20.672ZM208.652 1.912V0.911999H207.832L207.671 1.71588L208.652 1.912ZM216.716 1.912L217.69 2.13808L217.974 0.911999H216.716V1.912ZM207.644 41V42H208.438L208.618 41.2261L207.644 41ZM197.956 41L196.982 41.2267L197.162 42H197.956V41ZM193.028 19.832L192.051 20.0489L192.054 20.0587L193.028 19.832ZM191.124 11.264L192.1 11.0471L191.926 10.264H191.124V11.264ZM190.956 11.264V10.264H190.158L189.981 11.041L190.956 11.264ZM188.996 19.832L189.97 20.0587L189.97 20.055L188.996 19.832ZM184.068 41V42H184.862L185.042 41.2267L184.068 41ZM175.299 40.7792L175.078 39.802L173.127 40.2436L173.348 41.2208L175.299 40.7792ZM174.635 37.8476L174.193 35.8932L172.242 36.3348L172.685 38.2892L174.635 37.8476ZM173.75 33.9388L173.308 31.9844L171.357 32.426L171.8 34.3804L173.75 33.9388ZM172.866 30.03L172.423 28.0756L170.473 28.5172L170.915 30.4716L172.866 30.03ZM171.981 26.1212L171.538 24.1668L169.588 24.6084L170.03 26.5628L171.981 26.1212ZM171.096 22.2124L170.654 20.258L168.703 20.6996L169.145 22.654L171.096 22.2124ZM170.211 18.3036L169.769 16.3492L167.818 16.7908L168.261 18.7452L170.211 18.3036ZM169.326 14.3948L168.884 12.4404L166.933 12.882L167.376 14.8364L169.326 14.3948ZM168.442 10.486L167.999 8.53163L166.049 8.97318L166.491 10.9276L168.442 10.486ZM167.557 6.57723L167.114 4.62283L165.164 5.06438L165.606 7.01878L167.557 6.57723ZM166.672 2.66843L166.451 1.69122L164.5 2.13277L164.721 3.10998L166.672 2.66843ZM165.476 2.912H166.526V0.911999H165.476V2.912ZM168.626 2.912H170.726V0.911999H168.626V2.912ZM172.826 2.912H173.876V0.911999H172.826V2.912ZM172.894 2.1053L173.079 3.0433L175.042 2.6567L174.857 1.7187L172.894 2.1053ZM173.449 4.9193L173.818 6.7953L175.781 6.4087L175.411 4.5327L173.449 4.9193ZM174.188 8.6713L174.558 10.5473L176.52 10.1607L176.15 8.2847L174.188 8.6713ZM174.927 12.4233L175.297 14.2993L177.259 13.9127L176.89 12.0367L174.927 12.4233ZM175.666 16.1753L176.036 18.0513L177.998 17.6647L177.629 15.7887L175.666 16.1753ZM176.406 19.9273L176.59 20.8653L178.553 20.4787L178.368 19.5407L176.406 19.9273ZM176.589 20.8593L176.762 21.7647L178.727 21.39L178.554 20.4847L176.589 20.8593ZM177.107 23.5753L177.453 25.386L179.417 25.0113L179.072 23.2007L177.107 23.5753ZM177.798 27.1967L178.143 29.0073L180.108 28.6327L179.763 26.822L177.798 27.1967ZM178.489 30.818L178.661 31.7233L180.626 31.3487L180.453 30.4433L178.489 30.818ZM179.644 32.536H179.686V30.536H179.644V32.536ZM179.77 32.536H179.812V30.536H179.77V32.536ZM180.787 31.7572L180.992 30.8519L179.042 30.4095L178.836 31.3148L180.787 31.7572ZM181.403 29.0412L181.813 27.2305L179.863 26.7881L179.452 28.5988L181.403 29.0412ZM182.224 25.4199L182.635 23.6092L180.684 23.1668L180.274 24.9775L182.224 25.4199ZM183.045 21.7985L183.251 20.8932L181.3 20.4508L181.095 21.3561L183.045 21.7985ZM183.25 20.896L183.466 19.958L181.517 19.51L181.301 20.448L183.25 20.896ZM183.897 18.082L184.328 16.206L182.379 15.758L181.948 17.634L183.897 18.082ZM184.759 14.33L185.191 12.454L183.241 12.006L182.81 13.882L184.759 14.33ZM185.622 10.578L186.053 8.70201L184.104 8.25399L183.673 10.13L185.622 10.578ZM186.484 6.82601L186.915 4.95001L184.966 4.50199L184.535 6.37799L186.484 6.82601ZM187.347 3.07401L187.562 2.13601L185.613 1.68799L185.397 2.62599L187.347 3.07401ZM186.588 2.912H187.75V0.911999H186.588V2.912ZM190.074 2.912H192.398V0.911999H190.074V2.912ZM194.722 2.912H195.884V0.911999H194.722V2.912ZM194.91 2.13877L195.128 3.07677L197.076 2.62323L196.858 1.68523L194.91 2.13877ZM195.565 4.95277L196.002 6.82877L197.95 6.37523L197.513 4.49923L195.565 4.95277ZM196.438 8.70477L196.875 10.5808L198.823 10.1272L198.386 8.25123L196.438 8.70477ZM197.312 12.4568L197.749 14.3328L199.697 13.8792L199.26 12.0032L197.312 12.4568ZM198.186 16.2088L198.622 18.0848L200.57 17.6312L200.134 15.7552L198.186 16.2088ZM199.059 19.9608L199.278 20.8988L201.226 20.4452L201.007 19.5072L199.059 19.9608ZM199.275 20.8884L199.476 21.7937L201.429 21.3609L201.228 20.4556L199.275 20.8884ZM199.877 23.6044L200.279 25.4151L202.231 24.9823L201.83 23.1716L199.877 23.6044ZM200.68 27.2257L201.081 29.0364L203.034 28.6036L202.633 26.7929L200.68 27.2257ZM201.483 30.8471L201.683 31.7524L203.636 31.3196L203.435 30.4143L201.483 30.8471ZM202.66 32.536H202.702V30.536H202.66V32.536ZM202.786 32.536H202.828V30.536H202.786V32.536ZM203.81 31.7233L203.983 30.818L202.018 30.4433L201.845 31.3487L203.81 31.7233ZM204.328 29.0073L204.673 27.1967L202.709 26.822L202.363 28.6327L204.328 29.0073ZM205.019 25.386L205.364 23.5753L203.399 23.2007L203.054 25.0113L205.019 25.386ZM205.709 21.7647L205.882 20.8593L203.917 20.4847L203.745 21.39L205.709 21.7647ZM205.88 20.8681L206.068 19.9301L204.107 19.5379L203.919 20.4759L205.88 20.8681ZM206.443 18.0541L206.818 16.1781L204.857 15.7859L204.482 17.6619L206.443 18.0541ZM207.193 14.3021L207.569 12.4261L205.607 12.0339L205.232 13.9099L207.193 14.3021ZM207.944 10.5501L208.319 8.67412L206.358 8.28188L205.983 10.1579L207.944 10.5501ZM208.694 6.79812L209.069 4.92212L207.108 4.52989L206.733 6.40588L208.694 6.79812ZM209.445 3.04612L209.632 2.10812L207.671 1.71588L207.483 2.65388L209.445 3.04612ZM208.652 2.912H209.66V0.911999H208.652V2.912ZM211.676 2.912H213.692V0.911999H211.676V2.912ZM215.708 2.912H216.716V0.911999H215.708V2.912ZM215.741 1.68592L215.515 2.66312L217.463 3.11528L217.69 2.13808L215.741 1.68592ZM215.061 4.61752L214.607 6.57192L216.556 7.02408L217.009 5.06968L215.061 4.61752ZM214.154 8.52632L213.7 10.4807L215.648 10.9329L216.102 8.97848L214.154 8.52632ZM213.247 12.4351L212.793 14.3895L214.741 14.8417L215.195 12.8873L213.247 12.4351ZM212.339 16.3439L211.886 18.2983L213.834 18.7505L214.288 16.7961L212.339 16.3439ZM211.432 20.2527L210.979 22.2071L212.927 22.6593L213.38 20.7049L211.432 20.2527ZM210.525 24.1615L210.071 26.1159L212.02 26.5681L212.473 24.6137L210.525 24.1615ZM209.618 28.0703L209.164 30.0247L211.112 30.4769L211.566 28.5225L209.618 28.0703ZM208.711 31.9791L208.257 33.9335L210.205 34.3857L210.659 32.4313L208.711 31.9791ZM207.803 35.8879L207.35 37.8423L209.298 38.2945L209.752 36.3401L207.803 35.8879ZM206.896 39.7967L206.669 40.7739L208.618 41.2261L208.844 40.2489L206.896 39.7967ZM207.644 40H206.433V42H207.644V40ZM204.011 40H201.589V42H204.011V40ZM199.167 40H197.956V42H199.167V40ZM198.93 40.7733L198.683 39.7149L196.735 40.1683L196.982 41.2267L198.93 40.7733ZM198.19 37.5981L197.698 35.4813L195.75 35.9347L196.242 38.0515L198.19 37.5981ZM197.205 33.3645L196.712 31.2477L194.764 31.7011L195.257 33.8179L197.205 33.3645ZM196.219 29.1309L195.726 27.0141L193.778 27.4675L194.271 29.5843L196.219 29.1309ZM195.234 24.8973L194.741 22.7805L192.793 23.2339L193.286 25.3507L195.234 24.8973ZM194.248 20.6637L194.002 19.6053L192.054 20.0587L192.3 21.1171L194.248 20.6637ZM194.004 19.6151L193.766 18.5441L191.813 18.9779L192.051 20.0489L194.004 19.6151ZM193.29 16.4021L192.814 14.2601L190.861 14.6939L191.337 16.8359L193.29 16.4021ZM192.338 12.1181L192.1 11.0471L190.147 11.4809L190.385 12.5519L192.338 12.1181ZM191.124 10.264H191.082V12.264H191.124V10.264ZM190.998 10.264H190.956V12.264H190.998V10.264ZM189.981 11.041L189.736 12.112L191.685 12.558L191.93 11.487L189.981 11.041ZM189.246 14.254L188.756 16.396L190.705 16.842L191.195 14.7L189.246 14.254ZM188.266 18.538L188.021 19.609L189.97 20.055L190.215 18.984L188.266 18.538ZM188.022 19.6053L187.775 20.6637L189.723 21.1171L189.97 20.0587L188.022 19.6053ZM187.282 22.7805L186.79 24.8973L188.738 25.3507L189.23 23.2339L187.282 22.7805ZM186.297 27.0141L185.804 29.1309L187.752 29.5843L188.245 27.4675L186.297 27.0141ZM185.311 31.2477L184.818 33.3645L186.766 33.8179L187.259 31.7011L185.311 31.2477ZM184.326 35.4813L183.833 37.5981L185.781 38.0515L186.274 35.9347L184.326 35.4813ZM183.34 39.7149L183.094 40.7733L185.042 41.2267L185.288 40.1683L183.34 39.7149ZM184.068 40H182.85V42H184.068V40ZM180.414 40H177.978V42H180.414V40ZM175.542 40H174.324V42H175.542V40Z" fill="#DADADA"></path> </svg> 