<?xml version="1.0" encoding="UTF-8"?> <svg xmlns="http://www.w3.org/2000/svg" width="247" height="42" viewBox="0 0 247 42" fill="none"> <path d="M1.312 41H0.812V41.5H1.312V41ZM1.312 1.912V1.412H0.812V1.912H1.312ZM24.72 2.864L24.5202 3.32245L24.5302 3.32658L24.72 2.864ZM28.416 5.384L28.05 5.72476L28.0563 5.7313L28.416 5.384ZM30.824 9.36L30.3531 9.52817L30.3544 9.53179L30.824 9.36ZM30.824 19.496L31.2936 19.6678L31.2936 19.6678L30.824 19.496ZM28.416 23.416L28.0562 23.0686L28.0501 23.0753L28.416 23.416ZM24.72 25.992L24.9098 26.4547L24.9198 26.4503L24.72 25.992ZM9.824 26.888V26.388H9.324V26.888H9.824ZM9.824 41V41.5H10.324V41H9.824ZM9.824 19.496H9.324V19.996H9.824V19.496ZM21.752 18.544L22.0854 18.9166L22.0865 18.9156L21.752 18.544ZM21.752 10.312L21.4081 10.675L21.4179 10.6842L21.4282 10.693L21.752 10.312ZM9.824 9.304V8.804H9.324V9.304H9.824ZM1.812 41V40.0228H0.812V41H1.812ZM1.812 38.0684V36.114H0.812V38.0684H1.812ZM1.812 34.1596V32.2052H0.812V34.1596H1.812ZM1.812 30.2508V28.2964H0.812V30.2508H1.812ZM1.812 26.342V24.3876H0.812V26.342H1.812ZM1.812 22.4332V20.4788H0.812V22.4332H1.812ZM1.812 18.5244V16.57H0.812V18.5244H1.812ZM1.812 14.6156V12.6612H0.812V14.6156H1.812ZM1.812 10.7068V8.75241H0.812V10.7068H1.812ZM1.812 6.79801V4.84361H0.812V6.79801H1.812ZM1.812 2.88921V1.912H0.812V2.88921H1.812ZM1.312 2.412H2.236V1.412H1.312V2.412ZM4.084 2.412H5.932V1.412H4.084V2.412ZM7.78 2.412H9.628V1.412H7.78V2.412ZM11.476 2.412H13.324V1.412H11.476V2.412ZM15.172 2.412H17.02V1.412H15.172V2.412ZM18.868 2.412H19.792V1.412H18.868V2.412ZM19.792 2.412C20.2095 2.412 20.616 2.42907 21.0116 2.46305L21.0972 1.46672C20.6719 1.43018 20.2368 1.412 19.792 1.412V2.412ZM23.39 2.90835C23.7796 3.02569 24.1563 3.16372 24.5202 3.32235L24.9198 2.40565C24.5189 2.23089 24.105 2.07931 23.6783 1.95082L23.39 2.90835ZM24.5302 3.32658C24.8688 3.4655 25.1941 3.61782 25.5061 3.78342L25.9749 2.90014C25.633 2.71864 25.2779 2.55243 24.9098 2.40141L24.5302 3.32658ZM27.2778 4.98446C27.549 5.21625 27.8064 5.46297 28.0501 5.72471L28.7819 5.04329C28.5125 4.75384 28.2277 4.48082 27.9276 4.22432L27.2778 4.98446ZM28.0563 5.7313C28.3128 5.99699 28.5541 6.27823 28.7802 6.57513L29.5758 5.96934C29.3263 5.64165 29.0596 5.33073 28.7757 5.0367L28.0563 5.7313ZM29.9273 8.48765C30.0822 8.82035 30.2242 9.16714 30.3531 9.52817L31.2949 9.19183C31.1559 8.80282 31.0023 8.42734 30.8338 8.06552L29.9273 8.48765ZM30.3544 9.53179C30.4945 9.91452 30.6164 10.3074 30.7202 10.7105L31.6886 10.4611C31.5768 10.0267 31.4451 9.60241 31.2936 9.18821L30.3544 9.53179ZM31.1177 13.155C31.1485 13.5611 31.164 13.976 31.164 14.4H32.164C32.164 13.9517 32.1476 13.5114 32.1148 13.0792L31.1177 13.155ZM31.164 14.4C31.164 14.8299 31.1487 15.2498 31.1183 15.6599L32.1156 15.7338C32.1479 15.2981 32.164 14.8535 32.164 14.4H31.164ZM30.7225 18.1329C30.6181 18.5418 30.4954 18.9388 30.3544 19.3242L31.2936 19.6678C31.4464 19.25 31.579 18.8208 31.6914 18.3802L30.7225 18.1329ZM30.3544 19.3242C30.2246 19.6792 30.0814 20.0209 29.925 20.3495L30.828 20.7792C30.9982 20.4216 31.1533 20.0511 31.2936 19.6678L30.3544 19.3242ZM28.7759 22.2342C28.5511 22.5265 28.3113 22.8046 28.0563 23.0687L28.7757 23.7633C29.0568 23.4722 29.3211 23.1656 29.5686 22.8438L28.7759 22.2342ZM28.0501 23.0753C27.8049 23.3386 27.5457 23.5881 27.2726 23.8236L27.9258 24.5809C28.2264 24.3215 28.5119 24.0468 28.7819 23.7567L28.0501 23.0753ZM25.4963 25.054C25.1841 25.2261 24.8588 25.386 24.5202 25.5337L24.9198 26.4503C25.2859 26.2908 25.6391 26.1173 25.9792 25.9297L25.4963 25.054ZM24.5302 25.5294C24.1643 25.6796 23.7853 25.8102 23.3931 25.9211L23.6654 26.8834C24.093 26.7624 24.5079 26.6195 24.9098 26.4546L24.5302 25.5294ZM21.0108 26.3401C20.6154 26.372 20.2092 26.388 19.792 26.388V27.388C20.2348 27.388 20.6679 27.371 21.0912 27.3369L21.0108 26.3401ZM19.792 26.388H18.546V27.388H19.792V26.388ZM16.054 26.388H13.562V27.388H16.054V26.388ZM11.07 26.388H9.824V27.388H11.07V26.388ZM9.324 26.888V27.77H10.324V26.888H9.324ZM9.324 29.534V31.298H10.324V29.534H9.324ZM9.324 33.062V34.826H10.324V33.062H9.324ZM9.324 36.59V38.354H10.324V36.59H9.324ZM9.324 40.118V41H10.324V40.118H9.324ZM9.824 40.5H8.76V41.5H9.824V40.5ZM6.632 40.5H4.504V41.5H6.632V40.5ZM2.376 40.5H1.312V41.5H2.376V40.5ZM10.324 19.496V18.6467H9.324V19.496H10.324ZM10.324 16.948V15.2493H9.324V16.948H10.324ZM10.324 13.5507V11.852H9.324V13.5507H10.324ZM10.324 10.1533V9.304H9.324V10.1533H10.324ZM9.824 9.804H10.944V8.804H9.824V9.804ZM13.184 9.804H15.424V8.804H13.184V9.804ZM17.664 9.804H18.784V8.804H17.664V9.804ZM18.784 9.804C19.0454 9.804 19.2909 9.81931 19.521 9.84917L19.6497 8.85749C19.373 8.82158 19.0843 8.804 18.784 8.804V9.804ZM20.861 10.2712C21.062 10.385 21.2441 10.5195 21.4081 10.675L22.0959 9.94902C21.872 9.73695 21.6243 9.5542 21.3536 9.40098L20.861 10.2712ZM21.4282 10.693C21.5969 10.8364 21.7418 10.9985 21.864 11.1801L22.6937 10.6218C22.52 10.3638 22.3137 10.1332 22.0758 9.93103L21.4282 10.693ZM22.3232 12.4496C22.3554 12.6714 22.372 12.9107 22.372 13.168H23.372C23.372 12.8679 23.3526 12.5803 23.3128 12.306L22.3232 12.4496ZM22.372 13.168V13.784H23.372V13.168H22.372ZM22.372 15.016V15.632H23.372V15.016H22.372ZM22.372 15.632C22.372 15.8924 22.355 16.1354 22.3219 16.3617L23.3114 16.5062C23.3522 16.2274 23.372 15.9358 23.372 15.632H22.372ZM21.8562 17.6614C21.733 17.8496 21.5871 18.0197 21.4175 18.1724L22.0865 18.9156C22.3196 18.7059 22.522 18.4702 22.6929 18.2091L21.8562 17.6614ZM21.4186 18.1714C21.2533 18.3193 21.0689 18.4477 20.8645 18.5563L21.3336 19.4394C21.6073 19.2941 21.8583 19.1198 22.0854 18.9166L21.4186 18.1714ZM19.5191 18.9538C19.2893 18.9817 19.0444 18.996 18.784 18.996V19.996C19.0808 19.996 19.3662 19.9797 19.6397 19.9465L19.5191 18.9538ZM18.784 18.996H17.664V19.996H18.784V18.996ZM15.424 18.996H13.184V19.996H15.424V18.996ZM10.944 18.996H9.824V19.996H10.944V18.996ZM1.312 41H0.312V42H1.312V41ZM1.312 1.912V0.911999H0.312V1.912H1.312ZM24.72 2.864L24.3204 3.78069L24.3304 3.78504L24.3404 3.78917L24.72 2.864ZM28.416 5.384L27.6841 6.06542L27.6903 6.07206L27.6966 6.07859L28.416 5.384ZM30.824 9.36L29.8822 9.69635L29.8849 9.70358L30.824 9.36ZM30.824 19.496L31.7631 19.8396L31.7631 19.8396L30.824 19.496ZM28.416 23.416L27.6966 22.7214L27.6903 22.7279L27.6841 22.7346L28.416 23.416ZM24.72 25.992L25.0996 26.9172L25.1096 26.913L25.1196 26.9087L24.72 25.992ZM9.824 26.888V25.888H8.824V26.888H9.824ZM9.824 41V42H10.824V41H9.824ZM9.824 19.496H8.824V20.496H9.824V19.496ZM21.752 18.544L22.4188 19.2892L22.421 19.2873L21.752 18.544ZM21.752 10.312L21.0643 11.038L21.0838 11.0565L21.1044 11.0739L21.752 10.312ZM9.824 9.304V8.304H8.824V9.304H9.824ZM2.312 41V40.0228H0.312V41H2.312ZM2.312 38.0684V36.114H0.312V38.0684H2.312ZM2.312 34.1596V32.2052H0.312V34.1596H2.312ZM2.312 30.2508V28.2964H0.312V30.2508H2.312ZM2.312 26.342V24.3876H0.312V26.342H2.312ZM2.312 22.4332V20.4788H0.312V22.4332H2.312ZM2.312 18.5244V16.57H0.312V18.5244H2.312ZM2.312 14.6156V12.6612H0.312V14.6156H2.312ZM2.312 10.7068V8.75241H0.312V10.7068H2.312ZM2.312 6.79801V4.84361H0.312V6.79801H2.312ZM2.312 2.88921V1.912H0.312V2.88921H2.312ZM1.312 2.912H2.236V0.911999H1.312V2.912ZM4.084 2.912H5.932V0.911999H4.084V2.912ZM7.78 2.912H9.628V0.911999H7.78V2.912ZM11.476 2.912H13.324V0.911999H11.476V2.912ZM15.172 2.912H17.02V0.911999H15.172V2.912ZM18.868 2.912H19.792V0.911999H18.868V2.912ZM19.792 2.912C20.1959 2.912 20.5881 2.92851 20.9688 2.96121L21.14 0.968552C20.6998 0.930741 20.2504 0.911999 19.792 0.911999V2.912ZM23.2458 3.38712C23.6169 3.49888 23.975 3.63014 24.3204 3.78069L25.1196 1.9473C24.7001 1.76447 24.2677 1.60612 23.8225 1.47206L23.2458 3.38712ZM24.3404 3.78917C24.6643 3.92204 24.9746 4.06741 25.2717 4.22507L26.2093 2.4585C25.8524 2.26904 25.4824 2.09589 25.0996 1.93883L24.3404 3.78917ZM26.9529 5.36452C27.2096 5.58396 27.4533 5.81754 27.6841 6.06542L29.1479 4.70258C28.8655 4.39927 28.567 4.11311 28.2525 3.84426L26.9529 5.36452ZM27.6966 6.07859C27.9395 6.33012 28.168 6.59652 28.3824 6.87803L29.9736 5.66644C29.7124 5.32336 29.433 4.99761 29.1354 4.6894L27.6966 6.07859ZM29.474 8.69871C29.6222 9.01685 29.7583 9.3493 29.8823 9.69634L31.7657 9.02366C31.6218 8.62066 31.4623 8.23084 31.2871 7.85446L29.474 8.69871ZM29.8849 9.70358C30.0191 10.0706 30.1362 10.4477 30.236 10.8352L32.1728 10.3364C32.0569 9.8864 31.9204 9.44636 31.7631 9.01642L29.8849 9.70358ZM30.6191 13.1928C30.649 13.5859 30.664 13.9882 30.664 14.4H32.664C32.664 13.9396 32.6472 13.4866 32.6134 13.0414L30.6191 13.1928ZM30.664 14.4C30.664 14.818 30.6492 15.2256 30.6197 15.6229L32.6142 15.7708C32.6475 15.3223 32.664 14.8653 32.664 14.4H30.664ZM30.238 18.0093C30.1377 18.4022 30.02 18.7832 29.8849 19.1524L31.7631 19.8396C31.9219 19.4056 32.0594 18.9603 32.1759 18.5038L30.238 18.0093ZM29.8849 19.1524C29.7602 19.4933 29.623 19.8206 29.4735 20.1346L31.2795 20.9941C31.4566 20.6219 31.6177 20.237 31.7631 19.8396L29.8849 19.1524ZM28.3795 21.9294C28.1661 22.2069 27.9385 22.4708 27.6966 22.7214L29.1354 24.1106C29.4295 23.8059 29.7061 23.4852 29.965 23.1486L28.3795 21.9294ZM27.6841 22.7346C27.4514 22.9846 27.2054 23.2213 26.9461 23.445L28.2523 24.9595C28.5668 24.6883 28.8654 24.4009 29.1479 24.0974L27.6841 22.7346ZM25.2549 24.6162C24.9567 24.7806 24.6453 24.9337 24.3204 25.0753L25.1196 26.9087C25.4994 26.7431 25.8665 26.5628 26.2206 26.3676L25.2549 24.6162ZM24.3404 25.0668C23.9925 25.2096 23.6314 25.3341 23.257 25.44L23.8015 27.3645C24.2469 27.2384 24.6797 27.0894 25.0996 26.9172L24.3404 25.0668ZM20.9706 25.8417C20.5892 25.8725 20.1964 25.888 19.792 25.888V27.888C20.2476 27.888 20.6941 27.8705 21.1314 27.8353L20.9706 25.8417ZM19.792 25.888H18.546V27.888H19.792V25.888ZM16.054 25.888H13.562V27.888H16.054V25.888ZM11.07 25.888H9.824V27.888H11.07V25.888ZM8.824 26.888V27.77H10.824V26.888H8.824ZM8.824 29.534V31.298H10.824V29.534H8.824ZM8.824 33.062V34.826H10.824V33.062H8.824ZM8.824 36.59V38.354H10.824V36.59H8.824ZM8.824 40.118V41H10.824V40.118H8.824ZM9.824 40H8.76V42H9.824V40ZM6.632 40H4.504V42H6.632V40ZM2.376 40H1.312V42H2.376V40ZM10.824 19.496V18.6467H8.824V19.496H10.824ZM10.824 16.948V15.2493H8.824V16.948H10.824ZM10.824 13.5507V11.852H8.824V13.5507H10.824ZM10.824 10.1533V9.304H8.824V10.1533H10.824ZM9.824 10.304H10.944V8.304H9.824V10.304ZM13.184 10.304H15.424V8.304H13.184V10.304ZM17.664 10.304H18.784V8.304H17.664V10.304ZM18.784 10.304C19.0259 10.304 19.2498 10.3182 19.4566 10.345L19.714 8.36165C19.414 8.32271 19.1037 8.304 18.784 8.304V10.304ZM20.6146 10.7063C20.7809 10.8004 20.9301 10.9108 21.0643 11.038L22.4397 9.58604C22.186 9.34565 21.9054 9.13879 21.5999 8.96586L20.6146 10.7063ZM21.1044 11.0739C21.2384 11.1879 21.3527 11.3158 21.4492 11.4593L23.1085 10.3427C22.9091 10.0464 22.6722 9.78169 22.3997 9.55006L21.1044 11.0739ZM21.8284 12.5214C21.8568 12.717 21.872 12.9321 21.872 13.168H23.872C23.872 12.8465 23.8513 12.5348 23.8076 12.2342L21.8284 12.5214ZM21.872 13.168V13.784H23.872V13.168H21.872ZM21.872 15.016V15.632H23.872V15.016H21.872ZM21.872 15.632C21.872 15.8707 21.8564 16.0894 21.8272 16.2895L23.8062 16.5784C23.8507 16.2733 23.872 15.9574 23.872 15.632H21.872ZM21.4379 17.3876C21.3385 17.5394 21.2208 17.6767 21.083 17.8007L22.421 19.2873C22.6858 19.0489 22.9165 18.7804 23.1112 18.483L21.4379 17.3876ZM21.0852 17.7988C20.9507 17.9191 20.7998 18.0245 20.6299 18.1147L21.5681 19.881C21.8764 19.7172 22.1608 19.5201 22.4188 19.2892L21.0852 17.7988ZM19.4588 18.4574C19.2509 18.4827 19.0262 18.496 18.784 18.496V20.496C19.099 20.496 19.4047 20.4787 19.7001 20.4428L19.4588 18.4574ZM18.784 18.496H17.664V20.496H18.784V18.496ZM15.424 18.496H13.184V20.496H15.424V18.496ZM10.944 18.496H9.824V20.496H10.944V18.496ZM46.574 41V41.5H47.074V41H46.574ZM38.062 41H37.562V41.5H38.062V41ZM38.062 1.912V1.412H37.562V1.912H38.062ZM61.47 2.808L61.6598 2.34541L61.6598 2.34541L61.47 2.808ZM65.166 5.384L64.7944 5.71848L64.8002 5.72499L64.8063 5.7313L65.166 5.384ZM67.574 9.304L68.0436 9.13221L67.574 9.304ZM66.622 21.344L66.1939 21.0855L66.1904 21.0916L66.622 21.344ZM61.302 25.656L61.1264 25.1878L60.6064 25.3828L60.8548 25.8796L61.302 25.656ZM68.974 41V41.5H69.783L69.4212 40.7764L68.974 41ZM59.51 41L59.0586 41.2151L59.1944 41.5H59.51V41ZM52.678 26.664L53.1294 26.4489L52.9936 26.164H52.678V26.664ZM46.574 26.664V26.164H46.074V26.664H46.574ZM58.502 18.544L58.8354 18.9166L58.8365 18.9156L58.502 18.544ZM58.502 10.312L58.1581 10.675L58.1679 10.6842L58.1782 10.693L58.502 10.312ZM46.574 9.304V8.804H46.074V9.304H46.574ZM46.574 19.496H46.074V19.996H46.574V19.496ZM46.574 40.5H45.51V41.5H46.574V40.5ZM43.382 40.5H41.254V41.5H43.382V40.5ZM39.126 40.5H38.062V41.5H39.126V40.5ZM38.562 41V40.0228H37.562V41H38.562ZM38.562 38.0684V36.114H37.562V38.0684H38.562ZM38.562 34.1596V32.2052H37.562V34.1596H38.562ZM38.562 30.2508V28.2964H37.562V30.2508H38.562ZM38.562 26.342V24.3876H37.562V26.342H38.562ZM38.562 22.4332V20.4788H37.562V22.4332H38.562ZM38.562 18.5244V16.57H37.562V18.5244H38.562ZM38.562 14.6156V12.6612H37.562V14.6156H38.562ZM38.562 10.7068V8.75241H37.562V10.7068H38.562ZM38.562 6.79801V4.84361H37.562V6.79801H38.562ZM38.562 2.88921V1.912H37.562V2.88921H38.562ZM38.062 2.412H38.9888V1.412H38.062V2.412ZM40.8424 2.412H42.696V1.412H40.8424V2.412ZM44.5496 2.412H46.4032V1.412H44.5496V2.412ZM48.2568 2.412H50.1104V1.412H48.2568V2.412ZM51.964 2.412H53.8176V1.412H51.964V2.412ZM55.6712 2.412H56.598V1.412H55.6712V2.412ZM56.598 2.412C57.0093 2.412 57.4106 2.42824 57.8019 2.46057L57.8843 1.46397C57.4644 1.42927 57.0356 1.412 56.598 1.412V2.412ZM60.1555 2.8813C60.542 2.9917 60.9168 3.12149 61.2802 3.27058L61.6598 2.34541C61.2614 2.18199 60.8515 2.04014 60.4302 1.91977L60.1555 2.8813ZM61.2802 3.27058C61.6202 3.41007 61.9467 3.56417 62.2599 3.73278L62.734 2.85229C62.3892 2.66668 62.0311 2.49776 61.6598 2.34541L61.2802 3.27058ZM64.0286 4.96036C64.2973 5.19708 64.5525 5.44976 64.7944 5.71848L65.5376 5.04952C65.2702 4.75237 64.9876 4.47252 64.6898 4.21008L64.0286 4.96036ZM64.8063 5.7313C65.0613 5.99538 65.3011 6.27351 65.5259 6.56579L66.3186 5.9562C66.0711 5.63435 65.8068 5.32783 65.5257 5.0367L64.8063 5.7313ZM66.675 8.45052C66.8314 8.77906 66.9746 9.12078 67.1044 9.47579L68.0436 9.13221C67.9033 8.74893 67.7482 8.37842 67.578 8.02079L66.675 8.45052ZM67.1044 9.47579C67.2454 9.86119 67.3681 10.2582 67.4725 10.6671L68.4414 10.4198C68.329 9.97922 68.1964 9.54998 68.0436 9.13221L67.1044 9.47579ZM67.8683 13.1401C67.8987 13.5502 67.914 13.9701 67.914 14.4H68.914C68.914 13.9465 68.8979 13.5019 68.8656 13.0662L67.8683 13.1401ZM67.914 14.4C67.914 14.6983 67.9062 14.9919 67.8907 15.2807L68.8892 15.3344C68.9058 15.0272 68.914 14.7157 68.914 14.4H67.914ZM67.6932 17.0234C67.5895 17.6098 67.4494 18.1741 67.2731 18.7167L68.2242 19.0257C68.4153 18.4373 68.5664 17.8278 68.6779 17.1976L67.6932 17.0234ZM66.6138 20.325C66.4836 20.584 66.3437 20.8376 66.194 21.0856L67.05 21.6024C67.2132 21.3323 67.3656 21.0561 67.5074 20.7739L66.6138 20.325ZM66.1904 21.0916C66.0499 21.3318 65.8999 21.5634 65.7406 21.7864L66.5542 22.3678C66.7314 22.1198 66.8979 21.8626 67.0536 21.5964L66.1904 21.0916ZM64.6591 23.0337C64.266 23.4092 63.8342 23.7526 63.3631 24.0635L63.914 24.8981C64.4333 24.5553 64.9121 24.1749 65.3499 23.7568L64.6591 23.0337ZM61.9023 24.8669C61.6522 24.9807 61.3936 25.0877 61.1264 25.1878L61.4776 26.1242C61.7652 26.0163 62.0448 25.9006 62.3163 25.7772L61.9023 24.8669ZM60.8548 25.8796L61.3343 26.8386L62.2287 26.3914L61.7492 25.4324L60.8548 25.8796ZM62.2933 28.7566L63.2523 30.6746L64.1467 30.2274L63.1877 28.3094L62.2933 28.7566ZM64.2113 32.5926L65.1703 34.5106L66.0647 34.0634L65.1057 32.1454L64.2113 32.5926ZM66.1293 36.4286L67.0883 38.3466L67.9827 37.8994L67.0237 35.9814L66.1293 36.4286ZM68.0473 40.2646L68.5268 41.2236L69.4212 40.7764L68.9417 39.8174L68.0473 40.2646ZM68.974 40.5H67.791V41.5H68.974V40.5ZM65.425 40.5H63.059V41.5H65.425V40.5ZM60.693 40.5H59.51V41.5H60.693V40.5ZM59.9614 40.7849L59.5344 39.8889L58.6316 40.3191L59.0586 41.2151L59.9614 40.7849ZM58.6804 38.0969L57.8264 36.3049L56.9236 36.7351L57.7776 38.5271L58.6804 38.0969ZM56.9724 34.5129L56.1184 32.7209L55.2156 33.1511L56.0696 34.9431L56.9724 34.5129ZM55.2644 30.9289L54.4104 29.1369L53.5076 29.5671L54.3616 31.3591L55.2644 30.9289ZM53.5564 27.3449L53.1294 26.4489L52.2266 26.8791L52.6536 27.7751L53.5564 27.3449ZM52.678 26.164H51.915V27.164H52.678V26.164ZM50.389 26.164H48.863V27.164H50.389V26.164ZM47.337 26.164H46.574V27.164H47.337V26.164ZM46.074 26.664V27.56H47.074V26.664H46.074ZM46.074 29.352V31.144H47.074V29.352H46.074ZM46.074 32.936V34.728H47.074V32.936H46.074ZM46.074 36.52V38.312H47.074V36.52H46.074ZM46.074 40.104V41H47.074V40.104H46.074ZM55.534 18.996H54.414V19.996H55.534V18.996ZM52.174 18.996H49.934V19.996H52.174V18.996ZM47.694 18.996H46.574V19.996H47.694V18.996ZM47.074 19.496V18.6467H46.074V19.496H47.074ZM47.074 16.948V15.2493H46.074V16.948H47.074ZM47.074 13.5507V11.852H46.074V13.5507H47.074ZM47.074 10.1533V9.304H46.074V10.1533H47.074ZM46.574 9.804H47.694V8.804H46.574V9.804ZM49.934 9.804H52.174V8.804H49.934V9.804ZM54.414 9.804H55.534V8.804H54.414V9.804ZM55.534 9.804C55.7954 9.804 56.0409 9.81931 56.271 9.84917L56.3997 8.85749C56.123 8.82158 55.8343 8.804 55.534 8.804V9.804ZM57.611 10.2712C57.812 10.385 57.9941 10.5195 58.1581 10.675L58.8459 9.94902C58.622 9.73695 58.3743 9.5542 58.1036 9.40098L57.611 10.2712ZM58.1782 10.693C58.3469 10.8364 58.4918 10.9985 58.614 11.1801L59.4437 10.6218C59.27 10.3638 59.0637 10.1332 58.8258 9.93103L58.1782 10.693ZM59.0732 12.4496C59.1054 12.6714 59.122 12.9107 59.122 13.168H60.122C60.122 12.8679 60.1026 12.5803 60.0628 12.306L59.0732 12.4496ZM59.122 13.168V13.784H60.122V13.168H59.122ZM59.122 15.016V15.632H60.122V15.016H59.122ZM59.122 15.632C59.122 15.8924 59.105 16.1354 59.0719 16.3617L60.0614 16.5062C60.1022 16.2274 60.122 15.9358 60.122 15.632H59.122ZM58.6062 17.6614C58.483 17.8496 58.3371 18.0197 58.1675 18.1724L58.8365 18.9156C59.0696 18.7059 59.272 18.4702 59.4429 18.2091L58.6062 17.6614ZM58.1686 18.1714C58.0033 18.3193 57.8189 18.4477 57.6145 18.5563L58.0836 19.4394C58.3573 19.2941 58.6083 19.1198 58.8354 18.9166L58.1686 18.1714ZM56.2691 18.9538C56.0393 18.9817 55.7944 18.996 55.534 18.996V19.996C55.8308 19.996 56.1162 19.9797 56.3897 19.9465L56.2691 18.9538ZM46.574 41V42H47.574V41H46.574ZM38.062 41H37.062V42H38.062V41ZM38.062 1.912V0.911999H37.062V1.912H38.062ZM61.47 2.808L61.8496 1.88283L61.8496 1.88283L61.47 2.808ZM65.166 5.384L64.4227 6.05296L64.4344 6.06599L64.4466 6.07859L65.166 5.384ZM67.574 9.304L68.5131 8.96042L67.574 9.304ZM66.622 21.344L65.7659 20.8271L65.7588 20.8391L66.622 21.344ZM61.302 25.656L60.9509 24.7197L59.9108 25.1097L60.4076 26.1032L61.302 25.656ZM68.974 41V42H70.592L69.8684 40.5528L68.974 41ZM59.51 41L58.6073 41.4302L58.8788 42H59.51V41ZM52.678 26.664L53.5807 26.2338L53.3092 25.664H52.678V26.664ZM46.574 26.664V25.664H45.574V26.664H46.574ZM58.502 18.544L59.1688 19.2892L59.171 19.2873L58.502 18.544ZM58.502 10.312L57.8143 11.038L57.8338 11.0565L57.8544 11.0739L58.502 10.312ZM46.574 9.304V8.304H45.574V9.304H46.574ZM46.574 19.496H45.574V20.496H46.574V19.496ZM46.574 40H45.51V42H46.574V40ZM43.382 40H41.254V42H43.382V40ZM39.126 40H38.062V42H39.126V40ZM39.062 41V40.0228H37.062V41H39.062ZM39.062 38.0684V36.114H37.062V38.0684H39.062ZM39.062 34.1596V32.2052H37.062V34.1596H39.062ZM39.062 30.2508V28.2964H37.062V30.2508H39.062ZM39.062 26.342V24.3876H37.062V26.342H39.062ZM39.062 22.4332V20.4788H37.062V22.4332H39.062ZM39.062 18.5244V16.57H37.062V18.5244H39.062ZM39.062 14.6156V12.6612H37.062V14.6156H39.062ZM39.062 10.7068V8.75241H37.062V10.7068H39.062ZM39.062 6.79801V4.84361H37.062V6.79801H39.062ZM39.062 2.88921V1.912H37.062V2.88921H39.062ZM38.062 2.912H38.9888V0.911999H38.062V2.912ZM40.8424 2.912H42.696V0.911999H40.8424V2.912ZM44.5496 2.912H46.4032V0.911999H44.5496V2.912ZM48.2568 2.912H50.1104V0.911999H48.2568V2.912ZM51.964 2.912H53.8176V0.911999H51.964V2.912ZM55.6712 2.912H56.598V0.911999H55.6712V2.912ZM56.598 2.912C56.9961 2.912 57.3837 2.92772 57.7607 2.95887L57.9254 0.965663C57.4913 0.929794 57.0488 0.911999 56.598 0.911999V2.912ZM60.0182 3.36207C60.3872 3.46748 60.7445 3.59124 61.0904 3.73317L61.8496 1.88283C61.4337 1.71224 61.0063 1.56435 60.5676 1.43901L60.0182 3.36207ZM61.0904 3.73317C61.4148 3.86623 61.7255 4.01292 62.0228 4.17302L62.971 2.41204C62.6105 2.21794 62.2366 2.0416 61.8496 1.88283L61.0904 3.73317ZM63.6981 5.33549C63.9521 5.55937 64.1936 5.79845 64.4227 6.05296L65.9093 4.71503C65.6291 4.40367 65.3327 4.11024 65.0203 3.83495L63.6981 5.33549ZM64.4466 6.07859C64.6885 6.32915 64.9161 6.5931 65.1295 6.87058L66.715 5.6514C66.4561 5.31477 66.1795 4.99405 65.8854 4.6894L64.4466 6.07859ZM66.2235 8.66538C66.373 8.97939 66.5102 9.3067 66.6349 9.64758L68.5131 8.96042C68.3677 8.56301 68.2066 8.1781 68.0295 7.80593L66.2235 8.66538ZM66.6349 9.64758C66.77 10.0168 66.8877 10.3978 66.988 10.7907L68.9259 10.2962C68.8094 9.8397 68.6719 9.39437 68.5131 8.96042L66.6349 9.64758ZM67.3697 13.1771C67.3992 13.5744 67.414 13.982 67.414 14.4H69.414C69.414 13.9347 69.3975 13.4777 69.3642 13.0292L67.3697 13.1771ZM67.414 14.4C67.414 14.6896 67.4064 14.9742 67.3914 15.2539L69.3885 15.3613C69.4055 15.0449 69.414 14.7244 69.414 14.4H67.414ZM67.2009 16.9363C67.101 17.5007 66.9664 18.0425 66.7976 18.5623L68.6997 19.1801C68.8983 18.5689 69.0549 17.9369 69.1703 17.2847L67.2009 16.9363ZM66.167 20.1005C66.0427 20.348 65.909 20.5902 65.7659 20.8271L67.4781 21.8609C67.6479 21.5796 67.8066 21.2921 67.9542 20.9983L66.167 20.1005ZM65.7588 20.8391C65.6258 21.0664 65.4842 21.2853 65.3338 21.4957L66.961 22.6585C67.1472 22.3979 67.3219 22.128 67.4852 21.8489L65.7588 20.8391ZM64.3137 22.6721C63.9429 23.0264 63.5346 23.3512 63.0877 23.6462L64.1894 25.3154C64.7328 24.9567 65.2352 24.5578 65.6952 24.1183L64.3137 22.6721ZM61.6953 24.4118C61.4558 24.5207 61.2077 24.6233 60.9509 24.7197L61.6531 26.5923C61.9511 26.4806 62.2412 26.3606 62.5233 26.2323L61.6953 24.4118ZM60.4076 26.1032L60.8871 27.0622L62.6759 26.1678L62.1964 25.2088L60.4076 26.1032ZM61.8461 28.9802L62.8051 30.8982L64.5939 30.0038L63.6349 28.0858L61.8461 28.9802ZM63.7641 32.8162L64.7231 34.7342L66.5119 33.8398L65.5529 31.9218L63.7641 32.8162ZM65.6821 36.6522L66.6411 38.5702L68.4299 37.6758L67.4709 35.7578L65.6821 36.6522ZM67.6001 40.4882L68.0796 41.4472L69.8684 40.5528L69.3889 39.5938L67.6001 40.4882ZM68.974 40H67.791V42H68.974V40ZM65.425 40H63.059V42H65.425V40ZM60.693 40H59.51V42H60.693V40ZM60.4127 40.5698L59.9857 39.6738L58.1803 40.5342L58.6073 41.4302L60.4127 40.5698ZM59.1317 37.8818L58.2777 36.0898L56.4723 36.9502L57.3263 38.7422L59.1317 37.8818ZM57.4237 34.2978L56.5697 32.5058L54.7643 33.3662L55.6183 35.1582L57.4237 34.2978ZM55.7157 30.7138L54.8617 28.9218L53.0563 29.7822L53.9103 31.5742L55.7157 30.7138ZM54.0077 27.1298L53.5807 26.2338L51.7753 27.0942L52.2023 27.9902L54.0077 27.1298ZM52.678 25.664H51.915V27.664H52.678V25.664ZM50.389 25.664H48.863V27.664H50.389V25.664ZM47.337 25.664H46.574V27.664H47.337V25.664ZM45.574 26.664V27.56H47.574V26.664H45.574ZM45.574 29.352V31.144H47.574V29.352H45.574ZM45.574 32.936V34.728H47.574V32.936H45.574ZM45.574 36.52V38.312H47.574V36.52H45.574ZM45.574 40.104V41H47.574V40.104H45.574ZM55.534 18.496H54.414V20.496H55.534V18.496ZM52.174 18.496H49.934V20.496H52.174V18.496ZM47.694 18.496H46.574V20.496H47.694V18.496ZM47.574 19.496V18.6467H45.574V19.496H47.574ZM47.574 16.948V15.2493H45.574V16.948H47.574ZM47.574 13.5507V11.852H45.574V13.5507H47.574ZM47.574 10.1533V9.304H45.574V10.1533H47.574ZM46.574 10.304H47.694V8.304H46.574V10.304ZM49.934 10.304H52.174V8.304H49.934V10.304ZM54.414 10.304H55.534V8.304H54.414V10.304ZM55.534 10.304C55.7759 10.304 55.9998 10.3182 56.2066 10.345L56.464 8.36165C56.164 8.32271 55.8537 8.304 55.534 8.304V10.304ZM57.3646 10.7063C57.5309 10.8004 57.6801 10.9108 57.8143 11.038L59.1897 9.58604C58.936 9.34565 58.6554 9.13879 58.3499 8.96586L57.3646 10.7063ZM57.8544 11.0739C57.9884 11.1879 58.1027 11.3158 58.1992 11.4593L59.8585 10.3427C59.6591 10.0464 59.4222 9.78169 59.1497 9.55006L57.8544 11.0739ZM58.5784 12.5214C58.6068 12.717 58.622 12.9321 58.622 13.168H60.622C60.622 12.8465 60.6013 12.5348 60.5576 12.2342L58.5784 12.5214ZM58.622 13.168V13.784H60.622V13.168H58.622ZM58.622 15.016V15.632H60.622V15.016H58.622ZM58.622 15.632C58.622 15.8707 58.6064 16.0894 58.5772 16.2895L60.5562 16.5784C60.6007 16.2733 60.622 15.9574 60.622 15.632H58.622ZM58.1879 17.3876C58.0885 17.5394 57.9708 17.6767 57.833 17.8007L59.171 19.2873C59.4358 19.0489 59.6665 18.7804 59.8612 18.483L58.1879 17.3876ZM57.8352 17.7988C57.7007 17.9191 57.5498 18.0245 57.3799 18.1147L58.3181 19.881C58.6264 19.7172 58.9108 19.5201 59.1688 19.2892L57.8352 17.7988ZM56.2088 18.4574C56.0009 18.4827 55.7762 18.496 55.534 18.496V20.496C55.849 20.496 56.1547 20.4787 56.4501 20.4428L56.2088 18.4574ZM75.7964 41H75.2964V41.5H75.7964V41ZM75.7964 1.912V1.412H75.2964V1.912H75.7964ZM102.396 1.912H102.896V1.412H102.396V1.912ZM102.396 9.472V9.972H102.896V9.472H102.396ZM84.3084 9.472V8.972H83.8084V9.472H84.3084ZM84.3084 17.48H83.8084V17.98H84.3084V17.48ZM99.8204 17.48H100.32V16.98H99.8204V17.48ZM99.8204 24.984V25.484H100.32V24.984H99.8204ZM84.3084 24.984V24.484H83.8084V24.984H84.3084ZM84.3084 33.44H83.8084V33.94H84.3084V33.44ZM102.396 33.44H102.896V32.94H102.396V33.44ZM102.396 41V41.5H102.896V41H102.396ZM76.2964 41V40.0228H75.2964V41H76.2964ZM76.2964 38.0684V36.114H75.2964V38.0684H76.2964ZM76.2964 34.1596V32.2052H75.2964V34.1596H76.2964ZM76.2964 30.2508V28.2964H75.2964V30.2508H76.2964ZM76.2964 26.342V24.3876H75.2964V26.342H76.2964ZM76.2964 22.4332V20.4788H75.2964V22.4332H76.2964ZM76.2964 18.5244V16.57H75.2964V18.5244H76.2964ZM76.2964 14.6156V12.6612H75.2964V14.6156H76.2964ZM76.2964 10.7068V8.75241H75.2964V10.7068H76.2964ZM76.2964 6.79801V4.84361H75.2964V6.79801H76.2964ZM76.2964 2.88921V1.912H75.2964V2.88921H76.2964ZM75.7964 2.412H76.7464V1.412H75.7964V2.412ZM78.6464 2.412H80.5464V1.412H78.6464V2.412ZM82.4464 2.412H84.3464V1.412H82.4464V2.412ZM86.2464 2.412H88.1464V1.412H86.2464V2.412ZM90.0464 2.412H91.9464V1.412H90.0464V2.412ZM93.8464 2.412H95.7464V1.412H93.8464V2.412ZM97.6464 2.412H99.5464V1.412H97.6464V2.412ZM101.446 2.412H102.396V1.412H101.446V2.412ZM101.896 1.912V2.857H102.896V1.912H101.896ZM101.896 4.747V6.637H102.896V4.747H101.896ZM101.896 8.527V9.472H102.896V8.527H101.896ZM102.396 8.972H101.492V9.972H102.396V8.972ZM99.6832 8.972H97.8744V9.972H99.6832V8.972ZM96.0656 8.972H94.2568V9.972H96.0656V8.972ZM92.448 8.972H90.6392V9.972H92.448V8.972ZM88.8304 8.972H87.0216V9.972H88.8304V8.972ZM85.2128 8.972H84.3084V9.972H85.2128V8.972ZM83.8084 9.472V10.473H84.8084V9.472H83.8084ZM83.8084 12.475V14.477H84.8084V12.475H83.8084ZM83.8084 16.479V17.48H84.8084V16.479H83.8084ZM84.3084 17.98H85.2779V16.98H84.3084V17.98ZM87.2169 17.98H89.1559V16.98H87.2169V17.98ZM91.0949 17.98H93.0339V16.98H91.0949V17.98ZM94.9729 17.98H96.9119V16.98H94.9729V17.98ZM98.8509 17.98H99.8204V16.98H98.8509V17.98ZM99.3204 17.48V18.418H100.32V17.48H99.3204ZM99.3204 20.294V22.17H100.32V20.294H99.3204ZM99.3204 24.046V24.984H100.32V24.046H99.3204ZM99.8204 24.484H98.8509V25.484H99.8204V24.484ZM96.9119 24.484H94.9729V25.484H96.9119V24.484ZM93.0339 24.484H91.0949V25.484H93.0339V24.484ZM89.1559 24.484H87.2169V25.484H89.1559V24.484ZM85.2779 24.484H84.3084V25.484H85.2779V24.484ZM83.8084 24.984V26.041H84.8084V24.984H83.8084ZM83.8084 28.155V30.269H84.8084V28.155H83.8084ZM83.8084 32.383V33.44H84.8084V32.383H83.8084ZM84.3084 33.94H85.2128V32.94H84.3084V33.94ZM87.0216 33.94H88.8304V32.94H87.0216V33.94ZM90.6392 33.94H92.448V32.94H90.6392V33.94ZM94.2568 33.94H96.0656V32.94H94.2568V33.94ZM97.8744 33.94H99.6832V32.94H97.8744V33.94ZM101.492 33.94H102.396V32.94H101.492V33.94ZM101.896 33.44V34.385H102.896V33.44H101.896ZM101.896 36.275V38.165H102.896V36.275H101.896ZM101.896 40.055V41H102.896V40.055H101.896ZM102.396 40.5H101.446V41.5H102.396V40.5ZM99.5464 40.5H97.6464V41.5H99.5464V40.5ZM95.7464 40.5H93.8464V41.5H95.7464V40.5ZM91.9464 40.5H90.0464V41.5H91.9464V40.5ZM88.1464 40.5H86.2464V41.5H88.1464V40.5ZM84.3464 40.5H82.4464V41.5H84.3464V40.5ZM80.5464 40.5H78.6464V41.5H80.5464V40.5ZM76.7464 40.5H75.7964V41.5H76.7464V40.5ZM75.7964 41H74.7964V42H75.7964V41ZM75.7964 1.912V0.911999H74.7964V1.912H75.7964ZM102.396 1.912H103.396V0.911999H102.396V1.912ZM102.396 9.472V10.472H103.396V9.472H102.396ZM84.3084 9.472V8.472H83.3084V9.472H84.3084ZM84.3084 17.48H83.3084V18.48H84.3084V17.48ZM99.8204 17.48H100.82V16.48H99.8204V17.48ZM99.8204 24.984V25.984H100.82V24.984H99.8204ZM84.3084 24.984V23.984H83.3084V24.984H84.3084ZM84.3084 33.44H83.3084V34.44H84.3084V33.44ZM102.396 33.44H103.396V32.44H102.396V33.44ZM102.396 41V42H103.396V41H102.396ZM76.7964 41V40.0228H74.7964V41H76.7964ZM76.7964 38.0684V36.114H74.7964V38.0684H76.7964ZM76.7964 34.1596V32.2052H74.7964V34.1596H76.7964ZM76.7964 30.2508V28.2964H74.7964V30.2508H76.7964ZM76.7964 26.342V24.3876H74.7964V26.342H76.7964ZM76.7964 22.4332V20.4788H74.7964V22.4332H76.7964ZM76.7964 18.5244V16.57H74.7964V18.5244H76.7964ZM76.7964 14.6156V12.6612H74.7964V14.6156H76.7964ZM76.7964 10.7068V8.75241H74.7964V10.7068H76.7964ZM76.7964 6.79801V4.84361H74.7964V6.79801H76.7964ZM76.7964 2.88921V1.912H74.7964V2.88921H76.7964ZM75.7964 2.912H76.7464V0.911999H75.7964V2.912ZM78.6464 2.912H80.5464V0.911999H78.6464V2.912ZM82.4464 2.912H84.3464V0.911999H82.4464V2.912ZM86.2464 2.912H88.1464V0.911999H86.2464V2.912ZM90.0464 2.912H91.9464V0.911999H90.0464V2.912ZM93.8464 2.912H95.7464V0.911999H93.8464V2.912ZM97.6464 2.912H99.5464V0.911999H97.6464V2.912ZM101.446 2.912H102.396V0.911999H101.446V2.912ZM101.396 1.912V2.857H103.396V1.912H101.396ZM101.396 4.747V6.637H103.396V4.747H101.396ZM101.396 8.527V9.472H103.396V8.527H101.396ZM102.396 8.472H101.492V10.472H102.396V8.472ZM99.6832 8.472H97.8744V10.472H99.6832V8.472ZM96.0656 8.472H94.2568V10.472H96.0656V8.472ZM92.448 8.472H90.6392V10.472H92.448V8.472ZM88.8304 8.472H87.0216V10.472H88.8304V8.472ZM85.2128 8.472H84.3084V10.472H85.2128V8.472ZM83.3084 9.472V10.473H85.3084V9.472H83.3084ZM83.3084 12.475V14.477H85.3084V12.475H83.3084ZM83.3084 16.479V17.48H85.3084V16.479H83.3084ZM84.3084 18.48H85.2779V16.48H84.3084V18.48ZM87.2169 18.48H89.1559V16.48H87.2169V18.48ZM91.0949 18.48H93.0339V16.48H91.0949V18.48ZM94.9729 18.48H96.9119V16.48H94.9729V18.48ZM98.8509 18.48H99.8204V16.48H98.8509V18.48ZM98.8204 17.48V18.418H100.82V17.48H98.8204ZM98.8204 20.294V22.17H100.82V20.294H98.8204ZM98.8204 24.046V24.984H100.82V24.046H98.8204ZM99.8204 23.984H98.8509V25.984H99.8204V23.984ZM96.9119 23.984H94.9729V25.984H96.9119V23.984ZM93.0339 23.984H91.0949V25.984H93.0339V23.984ZM89.1559 23.984H87.2169V25.984H89.1559V23.984ZM85.2779 23.984H84.3084V25.984H85.2779V23.984ZM83.3084 24.984V26.041H85.3084V24.984H83.3084ZM83.3084 28.155V30.269H85.3084V28.155H83.3084ZM83.3084 32.383V33.44H85.3084V32.383H83.3084ZM84.3084 34.44H85.2128V32.44H84.3084V34.44ZM87.0216 34.44H88.8304V32.44H87.0216V34.44ZM90.6392 34.44H92.448V32.44H90.6392V34.44ZM94.2568 34.44H96.0656V32.44H94.2568V34.44ZM97.8744 34.44H99.6832V32.44H97.8744V34.44ZM101.492 34.44H102.396V32.44H101.492V34.44ZM101.396 33.44V34.385H103.396V33.44H101.396ZM101.396 36.275V38.165H103.396V36.275H101.396ZM101.396 40.055V41H103.396V40.055H101.396ZM102.396 40H101.446V42H102.396V40ZM99.5464 40H97.6464V42H99.5464V40ZM95.7464 40H93.8464V42H95.7464V40ZM91.9464 40H90.0464V42H91.9464V40ZM88.1464 40H86.2464V42H88.1464V40ZM84.3464 40H82.4464V42H84.3464V40ZM80.5464 40H78.6464V42H80.5464V40ZM76.7464 40H75.7964V42H76.7464V40ZM109.812 41H109.312V41.5H109.812V41ZM109.812 1.912V1.412H109.312V1.912H109.812ZM133.22 2.864L133.02 3.32245L133.03 3.32658L133.22 2.864ZM136.916 5.384L136.55 5.72476L136.556 5.7313L136.916 5.384ZM139.324 9.36L138.853 9.52817L138.854 9.53179L139.324 9.36ZM139.324 19.496L139.794 19.6678L139.794 19.6678L139.324 19.496ZM136.916 23.416L136.556 23.0686L136.55 23.0753L136.916 23.416ZM133.22 25.992L133.41 26.4547L133.42 26.4503L133.22 25.992ZM118.324 26.888V26.388H117.824V26.888H118.324ZM118.324 41V41.5H118.824V41H118.324ZM118.324 19.496H117.824V19.996H118.324V19.496ZM130.252 18.544L130.585 18.9166L130.586 18.9156L130.252 18.544ZM130.252 10.312L129.908 10.675L129.918 10.6842L129.928 10.693L130.252 10.312ZM118.324 9.304V8.804H117.824V9.304H118.324ZM110.312 41V40.0228H109.312V41H110.312ZM110.312 38.0684V36.114H109.312V38.0684H110.312ZM110.312 34.1596V32.2052H109.312V34.1596H110.312ZM110.312 30.2508V28.2964H109.312V30.2508H110.312ZM110.312 26.342V24.3876H109.312V26.342H110.312ZM110.312 22.4332V20.4788H109.312V22.4332H110.312ZM110.312 18.5244V16.57H109.312V18.5244H110.312ZM110.312 14.6156V12.6612H109.312V14.6156H110.312ZM110.312 10.7068V8.75241H109.312V10.7068H110.312ZM110.312 6.79801V4.84361H109.312V6.79801H110.312ZM110.312 2.88921V1.912H109.312V2.88921H110.312ZM109.812 2.412H110.736V1.412H109.812V2.412ZM112.584 2.412H114.432V1.412H112.584V2.412ZM116.28 2.412H118.128V1.412H116.28V2.412ZM119.976 2.412H121.824V1.412H119.976V2.412ZM123.672 2.412H125.52V1.412H123.672V2.412ZM127.368 2.412H128.292V1.412H127.368V2.412ZM128.292 2.412C128.71 2.412 129.116 2.42907 129.512 2.46305L129.597 1.46672C129.172 1.43018 128.737 1.412 128.292 1.412V2.412ZM131.89 2.90835C132.28 3.02569 132.656 3.16372 133.02 3.32235L133.42 2.40565C133.019 2.23089 132.605 2.07931 132.178 1.95082L131.89 2.90835ZM133.03 3.32658C133.369 3.4655 133.694 3.61782 134.006 3.78342L134.475 2.90014C134.133 2.71864 133.778 2.55243 133.41 2.40141L133.03 3.32658ZM135.778 4.98446C136.049 5.21625 136.306 5.46297 136.55 5.72471L137.282 5.04329C137.012 4.75384 136.728 4.48082 136.428 4.22432L135.778 4.98446ZM136.556 5.7313C136.813 5.99699 137.054 6.27823 137.28 6.57513L138.076 5.96934C137.826 5.64165 137.56 5.33073 137.276 5.0367L136.556 5.7313ZM138.427 8.48765C138.582 8.82035 138.724 9.16714 138.853 9.52817L139.795 9.19183C139.656 8.80282 139.502 8.42734 139.334 8.06552L138.427 8.48765ZM138.854 9.53179C138.994 9.91452 139.116 10.3074 139.22 10.7105L140.189 10.4611C140.077 10.0267 139.945 9.60241 139.794 9.18821L138.854 9.53179ZM139.618 13.155C139.649 13.5611 139.664 13.976 139.664 14.4H140.664C140.664 13.9517 140.648 13.5114 140.615 13.0792L139.618 13.155ZM139.664 14.4C139.664 14.8299 139.649 15.2498 139.618 15.6599L140.616 15.7338C140.648 15.2981 140.664 14.8535 140.664 14.4H139.664ZM139.222 18.1329C139.118 18.5418 138.995 18.9388 138.854 19.3242L139.794 19.6678C139.946 19.25 140.079 18.8208 140.191 18.3802L139.222 18.1329ZM138.854 19.3242C138.725 19.6792 138.581 20.0209 138.425 20.3495L139.328 20.7792C139.498 20.4216 139.653 20.0511 139.794 19.6678L138.854 19.3242ZM137.276 22.2342C137.051 22.5265 136.811 22.8046 136.556 23.0687L137.276 23.7633C137.557 23.4722 137.821 23.1656 138.069 22.8438L137.276 22.2342ZM136.55 23.0753C136.305 23.3386 136.046 23.5881 135.773 23.8236L136.426 24.5809C136.726 24.3215 137.012 24.0468 137.282 23.7567L136.55 23.0753ZM133.996 25.054C133.684 25.2261 133.359 25.386 133.02 25.5337L133.42 26.4503C133.786 26.2908 134.139 26.1173 134.479 25.9297L133.996 25.054ZM133.03 25.5294C132.664 25.6796 132.285 25.8102 131.893 25.9211L132.165 26.8834C132.593 26.7624 133.008 26.6195 133.41 26.4546L133.03 25.5294ZM129.511 26.3401C129.115 26.372 128.709 26.388 128.292 26.388V27.388C128.735 27.388 129.168 27.371 129.591 27.3369L129.511 26.3401ZM128.292 26.388H127.046V27.388H128.292V26.388ZM124.554 26.388H122.062V27.388H124.554V26.388ZM119.57 26.388H118.324V27.388H119.57V26.388ZM117.824 26.888V27.77H118.824V26.888H117.824ZM117.824 29.534V31.298H118.824V29.534H117.824ZM117.824 33.062V34.826H118.824V33.062H117.824ZM117.824 36.59V38.354H118.824V36.59H117.824ZM117.824 40.118V41H118.824V40.118H117.824ZM118.324 40.5H117.26V41.5H118.324V40.5ZM115.132 40.5H113.004V41.5H115.132V40.5ZM110.876 40.5H109.812V41.5H110.876V40.5ZM118.824 19.496V18.6467H117.824V19.496H118.824ZM118.824 16.948V15.2493H117.824V16.948H118.824ZM118.824 13.5507V11.852H117.824V13.5507H118.824ZM118.824 10.1533V9.304H117.824V10.1533H118.824ZM118.324 9.804H119.444V8.804H118.324V9.804ZM121.684 9.804H123.924V8.804H121.684V9.804ZM126.164 9.804H127.284V8.804H126.164V9.804ZM127.284 9.804C127.545 9.804 127.791 9.81931 128.021 9.84917L128.15 8.85749C127.873 8.82158 127.584 8.804 127.284 8.804V9.804ZM129.361 10.2712C129.562 10.385 129.744 10.5195 129.908 10.675L130.596 9.94902C130.372 9.73695 130.124 9.5542 129.854 9.40098L129.361 10.2712ZM129.928 10.693C130.097 10.8364 130.242 10.9985 130.364 11.1801L131.194 10.6218C131.02 10.3638 130.814 10.1332 130.576 9.93103L129.928 10.693ZM130.823 12.4496C130.855 12.6714 130.872 12.9107 130.872 13.168H131.872C131.872 12.8679 131.853 12.5803 131.813 12.306L130.823 12.4496ZM130.872 13.168V13.784H131.872V13.168H130.872ZM130.872 15.016V15.632H131.872V15.016H130.872ZM130.872 15.632C130.872 15.8924 130.855 16.1354 130.822 16.3617L131.811 16.5062C131.852 16.2274 131.872 15.9358 131.872 15.632H130.872ZM130.356 17.6614C130.233 17.8496 130.087 18.0197 129.918 18.1724L130.586 18.9156C130.82 18.7059 131.022 18.4702 131.193 18.2091L130.356 17.6614ZM129.919 18.1714C129.753 18.3193 129.569 18.4477 129.364 18.5563L129.834 19.4394C130.107 19.2941 130.358 19.1198 130.585 18.9166L129.919 18.1714ZM128.019 18.9538C127.789 18.9817 127.544 18.996 127.284 18.996V19.996C127.581 19.996 127.866 19.9797 128.14 19.9465L128.019 18.9538ZM127.284 18.996H126.164V19.996H127.284V18.996ZM123.924 18.996H121.684V19.996H123.924V18.996ZM119.444 18.996H118.324V19.996H119.444V18.996ZM109.812 41H108.812V42H109.812V41ZM109.812 1.912V0.911999H108.812V1.912H109.812ZM133.22 2.864L132.82 3.78069L132.83 3.78504L132.84 3.78917L133.22 2.864ZM136.916 5.384L136.184 6.06542L136.19 6.07206L136.197 6.07859L136.916 5.384ZM139.324 9.36L138.382 9.69635L138.385 9.70358L139.324 9.36ZM139.324 19.496L140.263 19.8396L140.263 19.8396L139.324 19.496ZM136.916 23.416L136.197 22.7214L136.19 22.7279L136.184 22.7346L136.916 23.416ZM133.22 25.992L133.6 26.9172L133.61 26.913L133.62 26.9087L133.22 25.992ZM118.324 26.888V25.888H117.324V26.888H118.324ZM118.324 41V42H119.324V41H118.324ZM118.324 19.496H117.324V20.496H118.324V19.496ZM130.252 18.544L130.919 19.2892L130.921 19.2873L130.252 18.544ZM130.252 10.312L129.564 11.038L129.584 11.0565L129.604 11.0739L130.252 10.312ZM118.324 9.304V8.304H117.324V9.304H118.324ZM110.812 41V40.0228H108.812V41H110.812ZM110.812 38.0684V36.114H108.812V38.0684H110.812ZM110.812 34.1596V32.2052H108.812V34.1596H110.812ZM110.812 30.2508V28.2964H108.812V30.2508H110.812ZM110.812 26.342V24.3876H108.812V26.342H110.812ZM110.812 22.4332V20.4788H108.812V22.4332H110.812ZM110.812 18.5244V16.57H108.812V18.5244H110.812ZM110.812 14.6156V12.6612H108.812V14.6156H110.812ZM110.812 10.7068V8.75241H108.812V10.7068H110.812ZM110.812 6.79801V4.84361H108.812V6.79801H110.812ZM110.812 2.88921V1.912H108.812V2.88921H110.812ZM109.812 2.912H110.736V0.911999H109.812V2.912ZM112.584 2.912H114.432V0.911999H112.584V2.912ZM116.28 2.912H118.128V0.911999H116.28V2.912ZM119.976 2.912H121.824V0.911999H119.976V2.912ZM123.672 2.912H125.52V0.911999H123.672V2.912ZM127.368 2.912H128.292V0.911999H127.368V2.912ZM128.292 2.912C128.696 2.912 129.088 2.92851 129.469 2.96121L129.64 0.968552C129.2 0.930741 128.75 0.911999 128.292 0.911999V2.912ZM131.746 3.38712C132.117 3.49888 132.475 3.63014 132.82 3.78069L133.62 1.9473C133.2 1.76447 132.768 1.60612 132.322 1.47206L131.746 3.38712ZM132.84 3.78917C133.164 3.92204 133.475 4.06741 133.772 4.22507L134.709 2.4585C134.352 2.26904 133.982 2.09589 133.6 1.93883L132.84 3.78917ZM135.453 5.36452C135.71 5.58396 135.953 5.81754 136.184 6.06542L137.648 4.70258C137.366 4.39927 137.067 4.11311 136.752 3.84426L135.453 5.36452ZM136.197 6.07859C136.439 6.33012 136.668 6.59652 136.882 6.87803L138.474 5.66644C138.212 5.32336 137.933 4.99761 137.635 4.6894L136.197 6.07859ZM137.974 8.69871C138.122 9.01685 138.258 9.3493 138.382 9.69634L140.266 9.02366C140.122 8.62066 139.962 8.23084 139.787 7.85446L137.974 8.69871ZM138.385 9.70358C138.519 10.0706 138.636 10.4477 138.736 10.8352L140.673 10.3364C140.557 9.8864 140.42 9.44636 140.263 9.01642L138.385 9.70358ZM139.119 13.1928C139.149 13.5859 139.164 13.9882 139.164 14.4H141.164C141.164 13.9396 141.147 13.4866 141.113 13.0414L139.119 13.1928ZM139.164 14.4C139.164 14.818 139.149 15.2256 139.12 15.6229L141.114 15.7708C141.147 15.3223 141.164 14.8653 141.164 14.4H139.164ZM138.738 18.0093C138.638 18.4022 138.52 18.7832 138.385 19.1524L140.263 19.8396C140.422 19.4056 140.559 18.9603 140.676 18.5038L138.738 18.0093ZM138.385 19.1524C138.26 19.4933 138.123 19.8206 137.974 20.1346L139.779 20.9941C139.957 20.6219 140.118 20.237 140.263 19.8396L138.385 19.1524ZM136.88 21.9294C136.666 22.2069 136.439 22.4708 136.197 22.7214L137.635 24.1106C137.93 23.8059 138.206 23.4852 138.465 23.1486L136.88 21.9294ZM136.184 22.7346C135.951 22.9846 135.705 23.2213 135.446 23.445L136.752 24.9595C137.067 24.6883 137.365 24.4009 137.648 24.0974L136.184 22.7346ZM133.755 24.6162C133.457 24.7806 133.145 24.9337 132.82 25.0753L133.62 26.9087C133.999 26.7431 134.367 26.5628 134.721 26.3676L133.755 24.6162ZM132.84 25.0668C132.492 25.2096 132.131 25.3341 131.757 25.44L132.301 27.3645C132.747 27.2384 133.18 27.0894 133.6 26.9172L132.84 25.0668ZM129.471 25.8417C129.089 25.8725 128.696 25.888 128.292 25.888V27.888C128.748 27.888 129.194 27.8705 129.631 27.8353L129.471 25.8417ZM128.292 25.888H127.046V27.888H128.292V25.888ZM124.554 25.888H122.062V27.888H124.554V25.888ZM119.57 25.888H118.324V27.888H119.57V25.888ZM117.324 26.888V27.77H119.324V26.888H117.324ZM117.324 29.534V31.298H119.324V29.534H117.324ZM117.324 33.062V34.826H119.324V33.062H117.324ZM117.324 36.59V38.354H119.324V36.59H117.324ZM117.324 40.118V41H119.324V40.118H117.324ZM118.324 40H117.26V42H118.324V40ZM115.132 40H113.004V42H115.132V40ZM110.876 40H109.812V42H110.876V40ZM119.324 19.496V18.6467H117.324V19.496H119.324ZM119.324 16.948V15.2493H117.324V16.948H119.324ZM119.324 13.5507V11.852H117.324V13.5507H119.324ZM119.324 10.1533V9.304H117.324V10.1533H119.324ZM118.324 10.304H119.444V8.304H118.324V10.304ZM121.684 10.304H123.924V8.304H121.684V10.304ZM126.164 10.304H127.284V8.304H126.164V10.304ZM127.284 10.304C127.526 10.304 127.75 10.3182 127.957 10.345L128.214 8.36165C127.914 8.32271 127.604 8.304 127.284 8.304V10.304ZM129.115 10.7063C129.281 10.8004 129.43 10.9108 129.564 11.038L130.94 9.58604C130.686 9.34565 130.405 9.13879 130.1 8.96586L129.115 10.7063ZM129.604 11.0739C129.738 11.1879 129.853 11.3158 129.949 11.4593L131.609 10.3427C131.409 10.0464 131.172 9.78169 130.9 9.55006L129.604 11.0739ZM130.328 12.5214C130.357 12.717 130.372 12.9321 130.372 13.168H132.372C132.372 12.8465 132.351 12.5348 132.308 12.2342L130.328 12.5214ZM130.372 13.168V13.784H132.372V13.168H130.372ZM130.372 15.016V15.632H132.372V15.016H130.372ZM130.372 15.632C130.372 15.8707 130.356 16.0894 130.327 16.2895L132.306 16.5784C132.351 16.2733 132.372 15.9574 132.372 15.632H130.372ZM129.938 17.3876C129.838 17.5394 129.721 17.6767 129.583 17.8007L130.921 19.2873C131.186 19.0489 131.417 18.7804 131.611 18.483L129.938 17.3876ZM129.585 17.7988C129.451 17.9191 129.3 18.0245 129.13 18.1147L130.068 19.881C130.376 19.7172 130.661 19.5201 130.919 19.2892L129.585 17.7988ZM127.959 18.4574C127.751 18.4827 127.526 18.496 127.284 18.496V20.496C127.599 20.496 127.905 20.4787 128.2 20.4428L127.959 18.4574ZM127.284 18.496H126.164V20.496H127.284V18.496ZM123.924 18.496H121.684V20.496H123.924V18.496ZM119.444 18.496H118.324V20.496H119.444V18.496ZM166.54 41L166.062 41.1442L166.169 41.5H166.54V41ZM163.74 31.704L164.219 31.5598L164.112 31.204H163.74V31.704ZM150.692 31.704V31.204H150.321L150.214 31.5598L150.692 31.704ZM147.892 41V41.5H148.264L148.371 41.1442L147.892 41ZM139.268 41L138.794 40.8435L138.577 41.5H139.268V41ZM152.148 1.912V1.412H151.787L151.674 1.75552L152.148 1.912ZM162.676 1.912L163.152 1.75736L163.04 1.412H162.676V1.912ZM175.388 41V41.5H176.077L175.864 40.8454L175.388 41ZM157.3 9.64L157.78 9.49882L157.674 9.14H157.3V9.64ZM157.02 9.64V9.14H156.645L156.54 9.50049L157.02 9.64ZM152.708 24.48L152.228 24.3405L152.042 24.98H152.708V24.48ZM161.668 24.48V24.98H162.337L162.148 24.3388L161.668 24.48ZM167.019 40.8558L166.669 39.6938L165.712 39.9822L166.062 41.1442L167.019 40.8558ZM165.969 37.3698L165.269 35.0458L164.312 35.3342L165.012 37.6582L165.969 37.3698ZM164.569 32.7218L164.219 31.5598L163.262 31.8482L163.612 33.0102L164.569 32.7218ZM163.74 31.204H162.653V32.204H163.74V31.204ZM160.478 31.204H158.304V32.204H160.478V31.204ZM156.129 31.204H153.954V32.204H156.129V31.204ZM151.78 31.204H150.692V32.204H151.78V31.204ZM150.214 31.5598L149.864 32.7218L150.821 33.0102L151.171 31.8482L150.214 31.5598ZM149.164 35.0458L148.464 37.3698L149.421 37.6582L150.121 35.3342L149.164 35.0458ZM147.764 39.6938L147.414 40.8558L148.371 41.1442L148.721 39.9822L147.764 39.6938ZM147.892 40.5H146.814V41.5H147.892V40.5ZM144.658 40.5H142.502V41.5H144.658V40.5ZM140.346 40.5H139.268V41.5H140.346V40.5ZM139.743 41.1565L140.065 40.1793L139.116 39.8663L138.794 40.8435L139.743 41.1565ZM140.709 38.2249L141.353 36.2705L140.404 35.9575L139.76 37.9119L140.709 38.2249ZM141.997 34.3161L142.641 32.3617L141.692 32.0487L141.048 34.0031L141.997 34.3161ZM143.285 30.4073L143.929 28.4529L142.98 28.1399L142.336 30.0943L143.285 30.4073ZM144.573 26.4985L145.217 24.5441L144.268 24.2311L143.624 26.1855L144.573 26.4985ZM145.861 22.5897L146.505 20.6353L145.556 20.3223L144.912 22.2767L145.861 22.5897ZM147.149 18.6809L147.793 16.7265L146.844 16.4135L146.2 18.3679L147.149 18.6809ZM148.437 14.7721L149.081 12.8177L148.132 12.5047L147.488 14.4591L148.437 14.7721ZM149.725 10.8633L150.369 8.90888L149.42 8.59592L148.776 10.5503L149.725 10.8633ZM151.013 6.95448L151.657 5.00008L150.708 4.68712L150.064 6.64152L151.013 6.95448ZM152.301 3.04568L152.623 2.06848L151.674 1.75552L151.352 2.73272L152.301 3.04568ZM152.148 2.412H153.026V1.412H152.148V2.412ZM154.78 2.412H156.535V1.412H154.78V2.412ZM158.29 2.412H160.044V1.412H158.29V2.412ZM161.799 2.412H162.676V1.412H161.799V2.412ZM162.201 2.06663L162.519 3.04383L163.47 2.73456L163.152 1.75736L162.201 2.06663ZM163.154 4.99823L163.79 6.95264L164.741 6.64336L164.105 4.68896L163.154 4.99823ZM164.426 8.90704L165.061 10.8614L166.012 10.5522L165.377 8.59776L164.426 8.90704ZM165.697 12.8158L166.332 14.7702L167.283 14.461L166.648 12.5066L165.697 12.8158ZM166.968 16.7246L167.604 18.679L168.555 18.3698L167.919 16.4154L166.968 16.7246ZM168.239 20.6334L168.875 22.5878L169.826 22.2786L169.19 20.3242L168.239 20.6334ZM169.51 24.5422L170.146 26.4966L171.097 26.1874L170.461 24.233L169.51 24.5422ZM170.782 28.451L171.417 30.4054L172.368 30.0962L171.733 28.1418L170.782 28.451ZM172.053 32.3598L172.688 34.3142L173.639 34.005L173.004 32.0506L172.053 32.3598ZM173.324 36.2686L173.96 38.223L174.911 37.9138L174.275 35.9594L173.324 36.2686ZM174.595 40.1774L174.913 41.1546L175.864 40.8454L175.546 39.8682L174.595 40.1774ZM175.388 40.5H174.282V41.5H175.388V40.5ZM172.07 40.5H169.858V41.5H172.07V40.5ZM167.646 40.5H166.54V41.5H167.646V40.5ZM157.3 9.14H157.23V10.14H157.3V9.14ZM157.09 9.14H157.02V10.14H157.09V9.14ZM156.54 9.50049L156.271 10.428L157.231 10.707L157.501 9.77951L156.54 9.50049ZM155.732 12.283L155.193 14.138L156.153 14.417L156.692 12.562L155.732 12.283ZM154.654 15.993L154.115 17.848L155.075 18.127L155.614 16.272L154.654 15.993ZM153.576 19.703L153.037 21.558L153.997 21.837L154.536 19.982L153.576 19.703ZM152.498 23.413L152.228 24.3405L153.189 24.6195L153.458 23.692L152.498 23.413ZM152.708 24.98H153.828V23.98H152.708V24.98ZM156.068 24.98H158.308V23.98H156.068V24.98ZM160.548 24.98H161.668V23.98H160.548V24.98ZM162.148 24.3388L161.875 23.4113L160.916 23.6937L161.189 24.6212L162.148 24.3388ZM161.329 21.5563L160.783 19.7013L159.824 19.9837L160.37 21.8387L161.329 21.5563ZM160.237 17.8463L159.691 15.9913L158.732 16.2737L159.278 18.1287L160.237 17.8463ZM159.145 14.1363L158.599 12.2813L157.64 12.5637L158.186 14.4187L159.145 14.1363ZM158.053 10.4263L157.78 9.49882L156.821 9.78118L157.094 10.7087L158.053 10.4263ZM166.54 41L165.583 41.2884L165.797 42H166.54V41ZM163.74 31.704L164.698 31.4156L164.484 30.704H163.74V31.704ZM150.692 31.704V30.704H149.949L149.735 31.4156L150.692 31.704ZM147.892 41V42H148.636L148.85 41.2884L147.892 41ZM139.268 41L138.319 40.687L137.886 42H139.268V41ZM152.148 1.912V0.911999H151.425L151.199 1.59904L152.148 1.912ZM162.676 1.912L163.627 1.60273L163.403 0.911999H162.676V1.912ZM175.388 41V42H176.765L176.339 40.6907L175.388 41ZM157.3 9.64L158.26 9.35764L158.049 8.64H157.3V9.64ZM157.02 9.64V8.64H156.27L156.06 9.36097L157.02 9.64ZM152.708 24.48L151.748 24.201L151.377 25.48H152.708V24.48ZM161.668 24.48V25.48H163.005L162.628 24.1976L161.668 24.48ZM167.498 40.7116L167.148 39.5496L165.233 40.1264L165.583 41.2884L167.498 40.7116ZM166.448 37.2256L165.748 34.9016L163.833 35.4784L164.533 37.8024L166.448 37.2256ZM165.048 32.5776L164.698 31.4156L162.783 31.9924L163.133 33.1544L165.048 32.5776ZM163.74 30.704H162.653V32.704H163.74V30.704ZM160.478 30.704H158.304V32.704H160.478V30.704ZM156.129 30.704H153.954V32.704H156.129V30.704ZM151.78 30.704H150.692V32.704H151.78V30.704ZM149.735 31.4156L149.385 32.5776L151.3 33.1544L151.65 31.9924L149.735 31.4156ZM148.685 34.9016L147.985 37.2256L149.9 37.8024L150.6 35.4784L148.685 34.9016ZM147.285 39.5496L146.935 40.7116L148.85 41.2884L149.2 40.1264L147.285 39.5496ZM147.892 40H146.814V42H147.892V40ZM144.658 40H142.502V42H144.658V40ZM140.346 40H139.268V42H140.346V40ZM140.218 41.313L140.54 40.3358L138.641 39.7098L138.319 40.687L140.218 41.313ZM141.184 38.3814L141.828 36.427L139.929 35.801L139.285 37.7554L141.184 38.3814ZM142.472 34.4726L143.116 32.5182L141.217 31.8922L140.573 33.8466L142.472 34.4726ZM143.76 30.5638L144.404 28.6094L142.505 27.9834L141.861 29.9378L143.76 30.5638ZM145.048 26.655L145.692 24.7006L143.793 24.0746L143.149 26.029L145.048 26.655ZM146.336 22.7462L146.98 20.7918L145.081 20.1658L144.437 22.1202L146.336 22.7462ZM147.624 18.8374L148.268 16.883L146.369 16.257L145.725 18.2114L147.624 18.8374ZM148.912 14.9286L149.556 12.9742L147.657 12.3482L147.013 14.3026L148.912 14.9286ZM150.2 11.0198L150.844 9.06536L148.945 8.43944L148.301 10.3938L150.2 11.0198ZM151.488 7.11096L152.132 5.15656L150.233 4.53064L149.589 6.48504L151.488 7.11096ZM152.776 3.20216L153.098 2.22496L151.199 1.59904L150.877 2.57624L152.776 3.20216ZM152.148 2.912H153.026V0.911999H152.148V2.912ZM154.78 2.912H156.535V0.911999H154.78V2.912ZM158.29 2.912H160.044V0.911999H158.29V2.912ZM161.799 2.912H162.676V0.911999H161.799V2.912ZM161.725 2.22127L162.043 3.19847L163.945 2.57993L163.627 1.60273L161.725 2.22127ZM162.679 5.15287L163.314 7.10727L165.216 6.48873L164.581 4.53433L162.679 5.15287ZM163.95 9.06167L164.586 11.0161L166.488 10.3975L165.852 8.44313L163.95 9.06167ZM165.221 12.9705L165.857 14.9249L167.759 14.3063L167.123 12.3519L165.221 12.9705ZM166.492 16.8793L167.128 18.8337L169.03 18.2151L168.394 16.2607L166.492 16.8793ZM167.764 20.7881L168.399 22.7425L170.301 22.1239L169.666 20.1695L167.764 20.7881ZM169.035 24.6969L169.67 26.6513L171.572 26.0327L170.937 24.0783L169.035 24.6969ZM170.306 28.6057L170.942 30.5601L172.844 29.9415L172.208 27.9871L170.306 28.6057ZM171.577 32.5145L172.213 34.4689L174.115 33.8503L173.479 31.8959L171.577 32.5145ZM172.848 36.4233L173.484 38.3777L175.386 37.7591L174.75 35.8047L172.848 36.4233ZM174.12 40.3321L174.437 41.3093L176.339 40.6907L176.022 39.7135L174.12 40.3321ZM175.388 40H174.282V42H175.388V40ZM172.07 40H169.858V42H172.07V40ZM167.646 40H166.54V42H167.646V40ZM157.3 8.64H157.23V10.64H157.3V8.64ZM157.09 8.64H157.02V10.64H157.09V8.64ZM156.06 9.36097L155.791 10.2885L157.711 10.8465L157.981 9.91903L156.06 9.36097ZM155.252 12.1435L154.713 13.9985L156.633 14.5565L157.172 12.7015L155.252 12.1435ZM154.174 15.8535L153.635 17.7085L155.555 18.2665L156.094 16.4115L154.174 15.8535ZM153.096 19.5635L152.557 21.4185L154.477 21.9765L155.016 20.1215L153.096 19.5635ZM152.018 23.2735L151.748 24.201L153.669 24.759L153.938 23.8315L152.018 23.2735ZM152.708 25.48H153.828V23.48H152.708V25.48ZM156.068 25.48H158.308V23.48H156.068V25.48ZM160.548 25.48H161.668V23.48H160.548V25.48ZM162.628 24.1976L162.355 23.2701L160.436 23.8349L160.709 24.7624L162.628 24.1976ZM161.809 21.4151L161.263 19.5601L159.344 20.1249L159.89 21.9799L161.809 21.4151ZM160.717 17.7051L160.171 15.8501L158.252 16.4149L158.798 18.2699L160.717 17.7051ZM159.625 13.9951L159.079 12.1401L157.16 12.7049L157.706 14.5599L159.625 13.9951ZM158.533 10.2851L158.26 9.35764L156.341 9.92236L156.614 10.8499L158.533 10.2851ZM189.308 41V41.5H189.808V41H189.308ZM180.796 41H180.296V41.5H180.796V41ZM180.796 1.912V1.412H180.296V1.912H180.796ZM204.204 2.808L204.394 2.34541L204.394 2.34541L204.204 2.808ZM207.9 5.384L207.529 5.71848L207.535 5.72499L207.541 5.7313L207.9 5.384ZM210.308 9.304L210.778 9.13221L210.308 9.304ZM209.356 21.344L208.928 21.0855L208.925 21.0916L209.356 21.344ZM204.036 25.656L203.861 25.1878L203.341 25.3828L203.589 25.8796L204.036 25.656ZM211.708 41V41.5H212.517L212.156 40.7764L211.708 41ZM202.244 41L201.793 41.2151L201.929 41.5H202.244V41ZM195.412 26.664L195.864 26.4489L195.728 26.164H195.412V26.664ZM189.308 26.664V26.164H188.808V26.664H189.308ZM201.236 18.544L201.57 18.9166L201.571 18.9156L201.236 18.544ZM201.236 10.312L200.893 10.675L200.902 10.6842L200.913 10.693L201.236 10.312ZM189.308 9.304V8.804H188.808V9.304H189.308ZM189.308 19.496H188.808V19.996H189.308V19.496ZM189.308 40.5H188.244V41.5H189.308V40.5ZM186.116 40.5H183.988V41.5H186.116V40.5ZM181.86 40.5H180.796V41.5H181.86V40.5ZM181.296 41V40.0228H180.296V41H181.296ZM181.296 38.0684V36.114H180.296V38.0684H181.296ZM181.296 34.1596V32.2052H180.296V34.1596H181.296ZM181.296 30.2508V28.2964H180.296V30.2508H181.296ZM181.296 26.342V24.3876H180.296V26.342H181.296ZM181.296 22.4332V20.4788H180.296V22.4332H181.296ZM181.296 18.5244V16.57H180.296V18.5244H181.296ZM181.296 14.6156V12.6612H180.296V14.6156H181.296ZM181.296 10.7068V8.75241H180.296V10.7068H181.296ZM181.296 6.79801V4.84361H180.296V6.79801H181.296ZM181.296 2.88921V1.912H180.296V2.88921H181.296ZM180.796 2.412H181.723V1.412H180.796V2.412ZM183.577 2.412H185.43V1.412H183.577V2.412ZM187.284 2.412H189.138V1.412H187.284V2.412ZM190.991 2.412H192.845V1.412H190.991V2.412ZM194.698 2.412H196.552V1.412H194.698V2.412ZM198.406 2.412H199.332V1.412H198.406V2.412ZM199.332 2.412C199.744 2.412 200.145 2.42824 200.536 2.46057L200.619 1.46397C200.199 1.42927 199.77 1.412 199.332 1.412V2.412ZM202.89 2.8813C203.276 2.9917 203.651 3.12149 204.015 3.27058L204.394 2.34541C203.996 2.18199 203.586 2.04014 203.165 1.91977L202.89 2.8813ZM204.015 3.27058C204.355 3.41007 204.681 3.56417 204.994 3.73278L205.468 2.85229C205.124 2.66668 204.765 2.49776 204.394 2.34541L204.015 3.27058ZM206.763 4.96036C207.032 5.19708 207.287 5.44976 207.529 5.71848L208.272 5.04952C208.005 4.75237 207.722 4.47252 207.424 4.21008L206.763 4.96036ZM207.541 5.7313C207.796 5.99538 208.035 6.27351 208.26 6.56579L209.053 5.9562C208.805 5.63435 208.541 5.32783 208.26 5.0367L207.541 5.7313ZM209.409 8.45052C209.566 8.77906 209.709 9.12078 209.839 9.47579L210.778 9.13221C210.638 8.74893 210.483 8.37842 210.312 8.02079L209.409 8.45052ZM209.839 9.47579C209.98 9.86119 210.103 10.2582 210.207 10.6671L211.176 10.4198C211.063 9.97922 210.931 9.54998 210.778 9.13221L209.839 9.47579ZM210.603 13.1401C210.633 13.5502 210.648 13.9701 210.648 14.4H211.648C211.648 13.9465 211.632 13.5019 211.6 13.0662L210.603 13.1401ZM210.648 14.4C210.648 14.6983 210.641 14.9919 210.625 15.2807L211.624 15.3344C211.64 15.0272 211.648 14.7157 211.648 14.4H210.648ZM210.428 17.0234C210.324 17.6098 210.184 18.1741 210.007 18.7167L210.959 19.0257C211.15 18.4373 211.301 17.8278 211.412 17.1976L210.428 17.0234ZM209.348 20.325C209.218 20.584 209.078 20.8376 208.928 21.0856L209.784 21.6024C209.948 21.3323 210.1 21.0561 210.242 20.7739L209.348 20.325ZM208.925 21.0916C208.784 21.3318 208.634 21.5634 208.475 21.7864L209.289 22.3678C209.466 22.1198 209.632 21.8626 209.788 21.5964L208.925 21.0916ZM207.393 23.0337C207 23.4092 206.569 23.7526 206.097 24.0635L206.648 24.8981C207.168 24.5553 207.646 24.1749 208.084 23.7568L207.393 23.0337ZM204.637 24.8669C204.387 24.9807 204.128 25.0877 203.861 25.1878L204.212 26.1242C204.5 26.0163 204.779 25.9006 205.051 25.7772L204.637 24.8669ZM203.589 25.8796L204.069 26.8386L204.963 26.3914L204.484 25.4324L203.589 25.8796ZM205.028 28.7566L205.987 30.6746L206.881 30.2274L205.922 28.3094L205.028 28.7566ZM206.946 32.5926L207.905 34.5106L208.799 34.0634L207.84 32.1454L206.946 32.5926ZM208.864 36.4286L209.823 38.3466L210.717 37.8994L209.758 35.9814L208.864 36.4286ZM210.782 40.2646L211.261 41.2236L212.156 40.7764L211.676 39.8174L210.782 40.2646ZM211.708 40.5H210.525V41.5H211.708V40.5ZM208.159 40.5H205.793V41.5H208.159V40.5ZM203.427 40.5H202.244V41.5H203.427V40.5ZM202.696 40.7849L202.269 39.8889L201.366 40.3191L201.793 41.2151L202.696 40.7849ZM201.415 38.0969L200.561 36.3049L199.658 36.7351L200.512 38.5271L201.415 38.0969ZM199.707 34.5129L198.853 32.7209L197.95 33.1511L198.804 34.9431L199.707 34.5129ZM197.999 30.9289L197.145 29.1369L196.242 29.5671L197.096 31.3591L197.999 30.9289ZM196.291 27.3449L195.864 26.4489L194.961 26.8791L195.388 27.7751L196.291 27.3449ZM195.412 26.164H194.649V27.164H195.412V26.164ZM193.123 26.164H191.597V27.164H193.123V26.164ZM190.071 26.164H189.308V27.164H190.071V26.164ZM188.808 26.664V27.56H189.808V26.664H188.808ZM188.808 29.352V31.144H189.808V29.352H188.808ZM188.808 32.936V34.728H189.808V32.936H188.808ZM188.808 36.52V38.312H189.808V36.52H188.808ZM188.808 40.104V41H189.808V40.104H188.808ZM198.268 18.996H197.148V19.996H198.268V18.996ZM194.908 18.996H192.668V19.996H194.908V18.996ZM190.428 18.996H189.308V19.996H190.428V18.996ZM189.808 19.496V18.6467H188.808V19.496H189.808ZM189.808 16.948V15.2493H188.808V16.948H189.808ZM189.808 13.5507V11.852H188.808V13.5507H189.808ZM189.808 10.1533V9.304H188.808V10.1533H189.808ZM189.308 9.804H190.428V8.804H189.308V9.804ZM192.668 9.804H194.908V8.804H192.668V9.804ZM197.148 9.804H198.268V8.804H197.148V9.804ZM198.268 9.804C198.53 9.804 198.775 9.81931 199.005 9.84917L199.134 8.85749C198.857 8.82158 198.569 8.804 198.268 8.804V9.804ZM200.345 10.2712C200.546 10.385 200.728 10.5195 200.893 10.675L201.58 9.94902C201.356 9.73695 201.109 9.5542 200.838 9.40098L200.345 10.2712ZM200.913 10.693C201.081 10.8364 201.226 10.9985 201.348 11.1801L202.178 10.6218C202.004 10.3638 201.798 10.1332 201.56 9.93103L200.913 10.693ZM201.808 12.4496C201.84 12.6714 201.856 12.9107 201.856 13.168H202.856C202.856 12.8679 202.837 12.5803 202.797 12.306L201.808 12.4496ZM201.856 13.168V13.784H202.856V13.168H201.856ZM201.856 15.016V15.632H202.856V15.016H201.856ZM201.856 15.632C201.856 15.8924 201.839 16.1354 201.806 16.3617L202.796 16.5062C202.837 16.2274 202.856 15.9358 202.856 15.632H201.856ZM201.341 17.6614C201.217 17.8496 201.071 18.0197 200.902 18.1724L201.571 18.9156C201.804 18.7059 202.006 18.4702 202.177 18.2091L201.341 17.6614ZM200.903 18.1714C200.738 18.3193 200.553 18.4477 200.349 18.5563L200.818 19.4394C201.092 19.2941 201.343 19.1198 201.57 18.9166L200.903 18.1714ZM199.003 18.9538C198.774 18.9817 198.529 18.996 198.268 18.996V19.996C198.565 19.996 198.851 19.9797 199.124 19.9465L199.003 18.9538ZM189.308 41V42H190.308V41H189.308ZM180.796 41H179.796V42H180.796V41ZM180.796 1.912V0.911999H179.796V1.912H180.796ZM204.204 2.808L204.584 1.88283L204.584 1.88283L204.204 2.808ZM207.9 5.384L207.157 6.05296L207.169 6.06599L207.181 6.07859L207.9 5.384ZM210.308 9.304L211.247 8.96042L210.308 9.304ZM209.356 21.344L208.5 20.8271L208.493 20.8391L209.356 21.344ZM204.036 25.656L203.685 24.7197L202.645 25.1097L203.142 26.1032L204.036 25.656ZM211.708 41V42H213.326L212.603 40.5528L211.708 41ZM202.244 41L201.342 41.4302L201.613 42H202.244V41ZM195.412 26.664L196.315 26.2338L196.044 25.664H195.412V26.664ZM189.308 26.664V25.664H188.308V26.664H189.308ZM201.236 18.544L201.903 19.2892L201.905 19.2873L201.236 18.544ZM201.236 10.312L200.549 11.038L200.568 11.0565L200.589 11.0739L201.236 10.312ZM189.308 9.304V8.304H188.308V9.304H189.308ZM189.308 19.496H188.308V20.496H189.308V19.496ZM189.308 40H188.244V42H189.308V40ZM186.116 40H183.988V42H186.116V40ZM181.86 40H180.796V42H181.86V40ZM181.796 41V40.0228H179.796V41H181.796ZM181.796 38.0684V36.114H179.796V38.0684H181.796ZM181.796 34.1596V32.2052H179.796V34.1596H181.796ZM181.796 30.2508V28.2964H179.796V30.2508H181.796ZM181.796 26.342V24.3876H179.796V26.342H181.796ZM181.796 22.4332V20.4788H179.796V22.4332H181.796ZM181.796 18.5244V16.57H179.796V18.5244H181.796ZM181.796 14.6156V12.6612H179.796V14.6156H181.796ZM181.796 10.7068V8.75241H179.796V10.7068H181.796ZM181.796 6.79801V4.84361H179.796V6.79801H181.796ZM181.796 2.88921V1.912H179.796V2.88921H181.796ZM180.796 2.912H181.723V0.911999H180.796V2.912ZM183.577 2.912H185.43V0.911999H183.577V2.912ZM187.284 2.912H189.138V0.911999H187.284V2.912ZM190.991 2.912H192.845V0.911999H190.991V2.912ZM194.698 2.912H196.552V0.911999H194.698V2.912ZM198.406 2.912H199.332V0.911999H198.406V2.912ZM199.332 2.912C199.731 2.912 200.118 2.92772 200.495 2.95887L200.66 0.965663C200.226 0.929794 199.783 0.911999 199.332 0.911999V2.912ZM202.753 3.36207C203.122 3.46748 203.479 3.59124 203.825 3.73317L204.584 1.88283C204.168 1.71224 203.741 1.56435 203.302 1.43901L202.753 3.36207ZM203.825 3.73317C204.149 3.86623 204.46 4.01292 204.757 4.17302L205.705 2.41204C205.345 2.21794 204.971 2.0416 204.584 1.88283L203.825 3.73317ZM206.432 5.33549C206.686 5.55937 206.928 5.79845 207.157 6.05296L208.644 4.71503C208.363 4.40367 208.067 4.11024 207.755 3.83495L206.432 5.33549ZM207.181 6.07859C207.423 6.32915 207.651 6.5931 207.864 6.87058L209.449 5.6514C209.19 5.31477 208.914 4.99405 208.62 4.6894L207.181 6.07859ZM208.958 8.66538C209.107 8.97939 209.245 9.3067 209.369 9.64758L211.247 8.96042C211.102 8.56301 210.941 8.1781 210.764 7.80593L208.958 8.66538ZM209.369 9.64758C209.504 10.0168 209.622 10.3978 209.722 10.7907L211.66 10.2962C211.544 9.8397 211.406 9.39437 211.247 8.96042L209.369 9.64758ZM210.104 13.1771C210.134 13.5744 210.148 13.982 210.148 14.4H212.148C212.148 13.9347 212.132 13.4777 212.099 13.0292L210.104 13.1771ZM210.148 14.4C210.148 14.6896 210.141 14.9742 210.126 15.2539L212.123 15.3613C212.14 15.0449 212.148 14.7244 212.148 14.4H210.148ZM209.935 16.9363C209.835 17.5007 209.701 18.0425 209.532 18.5623L211.434 19.1801C211.633 18.5689 211.789 17.9369 211.905 17.2847L209.935 16.9363ZM208.901 20.1005C208.777 20.348 208.643 20.5902 208.5 20.8271L210.212 21.8609C210.382 21.5796 210.541 21.2921 210.689 20.9983L208.901 20.1005ZM208.493 20.8391C208.36 21.0664 208.219 21.2853 208.068 21.4957L209.695 22.6585C209.882 22.3979 210.056 22.128 210.22 21.8489L208.493 20.8391ZM207.048 22.6721C206.677 23.0264 206.269 23.3512 205.822 23.6462L206.924 25.3154C207.467 24.9567 207.97 24.5578 208.43 24.1183L207.048 22.6721ZM204.43 24.4118C204.19 24.5207 203.942 24.6233 203.685 24.7197L204.387 26.5923C204.685 26.4806 204.976 26.3606 205.258 26.2323L204.43 24.4118ZM203.142 26.1032L203.621 27.0622L205.41 26.1678L204.931 25.2088L203.142 26.1032ZM204.58 28.9802L205.539 30.8982L207.328 30.0038L206.369 28.0858L204.58 28.9802ZM206.498 32.8162L207.457 34.7342L209.246 33.8398L208.287 31.9218L206.498 32.8162ZM208.416 36.6522L209.375 38.5702L211.164 37.6758L210.205 35.7578L208.416 36.6522ZM210.334 40.4882L210.814 41.4472L212.603 40.5528L212.123 39.5938L210.334 40.4882ZM211.708 40H210.525V42H211.708V40ZM208.159 40H205.793V42H208.159V40ZM203.427 40H202.244V42H203.427V40ZM203.147 40.5698L202.72 39.6738L200.915 40.5342L201.342 41.4302L203.147 40.5698ZM201.866 37.8818L201.012 36.0898L199.207 36.9502L200.061 38.7422L201.866 37.8818ZM200.158 34.2978L199.304 32.5058L197.499 33.3662L198.353 35.1582L200.158 34.2978ZM198.45 30.7138L197.596 28.9218L195.791 29.7822L196.645 31.5742L198.45 30.7138ZM196.742 27.1298L196.315 26.2338L194.51 27.0942L194.937 27.9902L196.742 27.1298ZM195.412 25.664H194.649V27.664H195.412V25.664ZM193.123 25.664H191.597V27.664H193.123V25.664ZM190.071 25.664H189.308V27.664H190.071V25.664ZM188.308 26.664V27.56H190.308V26.664H188.308ZM188.308 29.352V31.144H190.308V29.352H188.308ZM188.308 32.936V34.728H190.308V32.936H188.308ZM188.308 36.52V38.312H190.308V36.52H188.308ZM188.308 40.104V41H190.308V40.104H188.308ZM198.268 18.496H197.148V20.496H198.268V18.496ZM194.908 18.496H192.668V20.496H194.908V18.496ZM190.428 18.496H189.308V20.496H190.428V18.496ZM190.308 19.496V18.6467H188.308V19.496H190.308ZM190.308 16.948V15.2493H188.308V16.948H190.308ZM190.308 13.5507V11.852H188.308V13.5507H190.308ZM190.308 10.1533V9.304H188.308V10.1533H190.308ZM189.308 10.304H190.428V8.304H189.308V10.304ZM192.668 10.304H194.908V8.304H192.668V10.304ZM197.148 10.304H198.268V8.304H197.148V10.304ZM198.268 10.304C198.51 10.304 198.734 10.3182 198.941 10.345L199.198 8.36165C198.898 8.32271 198.588 8.304 198.268 8.304V10.304ZM200.099 10.7063C200.265 10.8004 200.414 10.9108 200.549 11.038L201.924 9.58604C201.67 9.34565 201.39 9.13879 201.084 8.96586L200.099 10.7063ZM200.589 11.0739C200.723 11.1879 200.837 11.3158 200.934 11.4593L202.593 10.3427C202.394 10.0464 202.157 9.78169 201.884 9.55006L200.589 11.0739ZM201.313 12.5214C201.341 12.717 201.356 12.9321 201.356 13.168H203.356C203.356 12.8465 203.336 12.5348 203.292 12.2342L201.313 12.5214ZM201.356 13.168V13.784H203.356V13.168H201.356ZM201.356 15.016V15.632H203.356V15.016H201.356ZM201.356 15.632C201.356 15.8707 201.341 16.0894 201.312 16.2895L203.291 16.5784C203.335 16.2733 203.356 15.9574 203.356 15.632H201.356ZM200.922 17.3876C200.823 17.5394 200.705 17.6767 200.567 17.8007L201.905 19.2873C202.17 19.0489 202.401 18.7804 202.596 18.483L200.922 17.3876ZM200.57 17.7988C200.435 17.9191 200.284 18.0245 200.114 18.1147L201.053 19.881C201.361 19.7172 201.645 19.5201 201.903 19.2892L200.57 17.7988ZM198.943 18.4574C198.735 18.4827 198.511 18.496 198.268 18.496V20.496C198.583 20.496 198.889 20.4787 199.184 20.4428L198.943 18.4574ZM218.531 41H218.031V41.5H218.531V41ZM218.531 1.912V1.412H218.031V1.912H218.531ZM245.131 1.912H245.631V1.412H245.131V1.912ZM245.131 9.472V9.972H245.631V9.472H245.131ZM227.043 9.472V8.972H226.543V9.472H227.043ZM227.043 17.48H226.543V17.98H227.043V17.48ZM242.555 17.48H243.055V16.98H242.555V17.48ZM242.555 24.984V25.484H243.055V24.984H242.555ZM227.043 24.984V24.484H226.543V24.984H227.043ZM227.043 33.44H226.543V33.94H227.043V33.44ZM245.131 33.44H245.631V32.94H245.131V33.44ZM245.131 41V41.5H245.631V41H245.131ZM219.031 41V40.0228H218.031V41H219.031ZM219.031 38.0684V36.114H218.031V38.0684H219.031ZM219.031 34.1596V32.2052H218.031V34.1596H219.031ZM219.031 30.2508V28.2964H218.031V30.2508H219.031ZM219.031 26.342V24.3876H218.031V26.342H219.031ZM219.031 22.4332V20.4788H218.031V22.4332H219.031ZM219.031 18.5244V16.57H218.031V18.5244H219.031ZM219.031 14.6156V12.6612H218.031V14.6156H219.031ZM219.031 10.7068V8.75241H218.031V10.7068H219.031ZM219.031 6.79801V4.84361H218.031V6.79801H219.031ZM219.031 2.88921V1.912H218.031V2.88921H219.031ZM218.531 2.412H219.481V1.412H218.531V2.412ZM221.381 2.412H223.281V1.412H221.381V2.412ZM225.181 2.412H227.081V1.412H225.181V2.412ZM228.981 2.412H230.881V1.412H228.981V2.412ZM232.781 2.412H234.681V1.412H232.781V2.412ZM236.581 2.412H238.481V1.412H236.581V2.412ZM240.381 2.412H242.281V1.412H240.381V2.412ZM244.181 2.412H245.131V1.412H244.181V2.412ZM244.631 1.912V2.857H245.631V1.912H244.631ZM244.631 4.747V6.637H245.631V4.747H244.631ZM244.631 8.527V9.472H245.631V8.527H244.631ZM245.131 8.972H244.226V9.972H245.131V8.972ZM242.418 8.972H240.609V9.972H242.418V8.972ZM238.8 8.972H236.991V9.972H238.8V8.972ZM235.182 8.972H233.374V9.972H235.182V8.972ZM231.565 8.972H229.756V9.972H231.565V8.972ZM227.947 8.972H227.043V9.972H227.947V8.972ZM226.543 9.472V10.473H227.543V9.472H226.543ZM226.543 12.475V14.477H227.543V12.475H226.543ZM226.543 16.479V17.48H227.543V16.479H226.543ZM227.043 17.98H228.012V16.98H227.043V17.98ZM229.951 17.98H231.89V16.98H229.951V17.98ZM233.829 17.98H235.768V16.98H233.829V17.98ZM237.707 17.98H239.646V16.98H237.707V17.98ZM241.585 17.98H242.555V16.98H241.585V17.98ZM242.055 17.48V18.418H243.055V17.48H242.055ZM242.055 20.294V22.17H243.055V20.294H242.055ZM242.055 24.046V24.984H243.055V24.046H242.055ZM242.555 24.484H241.585V25.484H242.555V24.484ZM239.646 24.484H237.707V25.484H239.646V24.484ZM235.768 24.484H233.829V25.484H235.768V24.484ZM231.89 24.484H229.951V25.484H231.89V24.484ZM228.012 24.484H227.043V25.484H228.012V24.484ZM226.543 24.984V26.041H227.543V24.984H226.543ZM226.543 28.155V30.269H227.543V28.155H226.543ZM226.543 32.383V33.44H227.543V32.383H226.543ZM227.043 33.94H227.947V32.94H227.043V33.94ZM229.756 33.94H231.565V32.94H229.756V33.94ZM233.374 33.94H235.182V32.94H233.374V33.94ZM236.991 33.94H238.8V32.94H236.991V33.94ZM240.609 33.94H242.418V32.94H240.609V33.94ZM244.226 33.94H245.131V32.94H244.226V33.94ZM244.631 33.44V34.385H245.631V33.44H244.631ZM244.631 36.275V38.165H245.631V36.275H244.631ZM244.631 40.055V41H245.631V40.055H244.631ZM245.131 40.5H244.181V41.5H245.131V40.5ZM242.281 40.5H240.381V41.5H242.281V40.5ZM238.481 40.5H236.581V41.5H238.481V40.5ZM234.681 40.5H232.781V41.5H234.681V40.5ZM230.881 40.5H228.981V41.5H230.881V40.5ZM227.081 40.5H225.181V41.5H227.081V40.5ZM223.281 40.5H221.381V41.5H223.281V40.5ZM219.481 40.5H218.531V41.5H219.481V40.5ZM218.531 41H217.531V42H218.531V41ZM218.531 1.912V0.911999H217.531V1.912H218.531ZM245.131 1.912H246.131V0.911999H245.131V1.912ZM245.131 9.472V10.472H246.131V9.472H245.131ZM227.043 9.472V8.472H226.043V9.472H227.043ZM227.043 17.48H226.043V18.48H227.043V17.48ZM242.555 17.48H243.555V16.48H242.555V17.48ZM242.555 24.984V25.984H243.555V24.984H242.555ZM227.043 24.984V23.984H226.043V24.984H227.043ZM227.043 33.44H226.043V34.44H227.043V33.44ZM245.131 33.44H246.131V32.44H245.131V33.44ZM245.131 41V42H246.131V41H245.131ZM219.531 41V40.0228H217.531V41H219.531ZM219.531 38.0684V36.114H217.531V38.0684H219.531ZM219.531 34.1596V32.2052H217.531V34.1596H219.531ZM219.531 30.2508V28.2964H217.531V30.2508H219.531ZM219.531 26.342V24.3876H217.531V26.342H219.531ZM219.531 22.4332V20.4788H217.531V22.4332H219.531ZM219.531 18.5244V16.57H217.531V18.5244H219.531ZM219.531 14.6156V12.6612H217.531V14.6156H219.531ZM219.531 10.7068V8.75241H217.531V10.7068H219.531ZM219.531 6.79801V4.84361H217.531V6.79801H219.531ZM219.531 2.88921V1.912H217.531V2.88921H219.531ZM218.531 2.912H219.481V0.911999H218.531V2.912ZM221.381 2.912H223.281V0.911999H221.381V2.912ZM225.181 2.912H227.081V0.911999H225.181V2.912ZM228.981 2.912H230.881V0.911999H228.981V2.912ZM232.781 2.912H234.681V0.911999H232.781V2.912ZM236.581 2.912H238.481V0.911999H236.581V2.912ZM240.381 2.912H242.281V0.911999H240.381V2.912ZM244.181 2.912H245.131V0.911999H244.181V2.912ZM244.131 1.912V2.857H246.131V1.912H244.131ZM244.131 4.747V6.637H246.131V4.747H244.131ZM244.131 8.527V9.472H246.131V8.527H244.131ZM245.131 8.472H244.226V10.472H245.131V8.472ZM242.418 8.472H240.609V10.472H242.418V8.472ZM238.8 8.472H236.991V10.472H238.8V8.472ZM235.182 8.472H233.374V10.472H235.182V8.472ZM231.565 8.472H229.756V10.472H231.565V8.472ZM227.947 8.472H227.043V10.472H227.947V8.472ZM226.043 9.472V10.473H228.043V9.472H226.043ZM226.043 12.475V14.477H228.043V12.475H226.043ZM226.043 16.479V17.48H228.043V16.479H226.043ZM227.043 18.48H228.012V16.48H227.043V18.48ZM229.951 18.48H231.89V16.48H229.951V18.48ZM233.829 18.48H235.768V16.48H233.829V18.48ZM237.707 18.48H239.646V16.48H237.707V18.48ZM241.585 18.48H242.555V16.48H241.585V18.48ZM241.555 17.48V18.418H243.555V17.48H241.555ZM241.555 20.294V22.17H243.555V20.294H241.555ZM241.555 24.046V24.984H243.555V24.046H241.555ZM242.555 23.984H241.585V25.984H242.555V23.984ZM239.646 23.984H237.707V25.984H239.646V23.984ZM235.768 23.984H233.829V25.984H235.768V23.984ZM231.89 23.984H229.951V25.984H231.89V23.984ZM228.012 23.984H227.043V25.984H228.012V23.984ZM226.043 24.984V26.041H228.043V24.984H226.043ZM226.043 28.155V30.269H228.043V28.155H226.043ZM226.043 32.383V33.44H228.043V32.383H226.043ZM227.043 34.44H227.947V32.44H227.043V34.44ZM229.756 34.44H231.565V32.44H229.756V34.44ZM233.374 34.44H235.182V32.44H233.374V34.44ZM236.991 34.44H238.8V32.44H236.991V34.44ZM240.609 34.44H242.418V32.44H240.609V34.44ZM244.226 34.44H245.131V32.44H244.226V34.44ZM244.131 33.44V34.385H246.131V33.44H244.131ZM244.131 36.275V38.165H246.131V36.275H244.131ZM244.131 40.055V41H246.131V40.055H244.131ZM245.131 40H244.181V42H245.131V40ZM242.281 40H240.381V42H242.281V40ZM238.481 40H236.581V42H238.481V40ZM234.681 40H232.781V42H234.681V40ZM230.881 40H228.981V42H230.881V40ZM227.081 40H225.181V42H227.081V40ZM223.281 40H221.381V42H223.281V40ZM219.481 40H218.531V42H219.481V40Z" fill="#DADADA"></path> </svg> 