<?xml version="1.0" encoding="UTF-8"?> <svg xmlns="http://www.w3.org/2000/svg" width="161" height="80" viewBox="0 0 161 80" fill="none"> <path d="M10.395 32.505L10.2079 32.9687L10.2079 32.9687L10.395 32.505ZM6.03 29.445L5.65267 29.7731L5.6563 29.7772L6.03 29.445ZM3.24 24.36L2.76427 24.5139L2.76495 24.516L3.24 24.36ZM3.24 10.275L3.71505 10.431L3.71572 10.4289L3.24 10.275ZM6.03 5.19L6.40373 5.5222L6.4073 5.51809L6.03 5.19ZM10.395 2.085L10.2079 1.62132L10.2079 1.62132L10.395 2.085ZM21.735 2.085L21.5479 2.54867L21.5479 2.54867L21.735 2.085ZM26.1 5.19L25.7227 5.51811L25.7263 5.52218L26.1 5.19ZM28.89 10.275L28.4143 10.4289L28.415 10.431L28.89 10.275ZM28.89 24.36L29.3651 24.516L29.3657 24.5139L28.89 24.36ZM26.1 29.445L26.4737 29.7772L26.4773 29.7731L26.1 29.445ZM21.735 32.505L21.5479 32.0413L21.5479 32.0413L21.735 32.505ZM20.88 25.44L20.5021 25.1125L20.498 25.1174L20.88 25.44ZM20.88 9.15L20.498 9.47262L20.5022 9.47746L20.88 9.15ZM11.205 9.15L10.8271 8.82251L10.823 8.82741L11.205 9.15ZM11.205 25.44L10.823 25.7626L10.8272 25.7675L11.205 25.44ZM16.065 33.04C15.5852 33.04 15.1162 33.021 14.6579 32.983L14.5754 33.9796C15.0622 34.0199 15.5588 34.04 16.065 34.04V33.04ZM11.9025 32.4924C11.4502 32.3644 11.0101 32.214 10.5821 32.0413L10.2079 32.9687C10.6697 33.155 11.1439 33.317 11.6301 33.4546L11.9025 32.4924ZM10.5821 32.0413C10.1775 31.8781 9.78836 31.6958 9.41464 31.4947L8.94077 32.3753C9.34763 32.5942 9.77006 32.792 10.2079 32.9687L10.5821 32.0413ZM7.31196 30.0237C6.99422 29.7401 6.69147 29.4366 6.4037 29.1128L5.6563 29.7772C5.96927 30.1293 6.29922 30.4602 6.64613 30.7698L7.31196 30.0237ZM6.4073 29.1169C6.10445 28.7686 5.81911 28.399 5.55134 28.0077L4.72609 28.5725C5.01511 28.9948 5.32396 29.395 5.6527 29.7731L6.4073 29.1169ZM4.21151 25.5324C4.03183 25.1074 3.86631 24.6647 3.71505 24.204L2.76495 24.516C2.92442 25.0016 3.09955 25.4703 3.29044 25.9218L4.21151 25.5324ZM3.71572 24.2061C3.62776 23.9342 3.54574 23.6562 3.46968 23.3722L2.5037 23.6308C2.58406 23.9309 2.67091 24.2253 2.76428 24.5139L3.71572 24.2061ZM3.09769 21.6675C3.00139 21.1088 2.92497 20.5299 2.86859 19.9307L1.87298 20.0244C1.93163 20.6477 2.01133 21.252 2.11223 21.8374L3.09769 21.6675ZM2.7625 18.1761C2.75417 17.8866 2.75 17.5929 2.75 17.295H1.75C1.75 17.6022 1.7543 17.9055 1.76292 18.2048L2.7625 18.1761ZM2.75 17.295C2.75 16.9988 2.75413 16.7069 2.76236 16.4193L1.76277 16.3907C1.75425 16.6881 1.75 16.9895 1.75 17.295H2.75ZM2.86755 14.6758C2.92365 14.0794 2.99974 13.5043 3.09566 12.9503L2.11033 12.7797C2.00972 13.3607 1.93032 13.9615 1.87195 14.5821L2.86755 14.6758ZM3.46788 11.258C3.54425 10.9758 3.62665 10.7002 3.71505 10.431L2.76495 10.119C2.6709 10.4054 2.58347 10.698 2.50262 10.9967L3.46788 11.258ZM3.71572 10.4289C3.86548 9.96602 4.02918 9.52241 4.20669 9.09793L3.28411 8.71213C3.09536 9.16349 2.92213 9.63319 2.76428 10.1211L3.71572 10.4289ZM5.54226 6.62304C5.81171 6.23197 6.09889 5.8651 6.4037 5.52218L5.6563 4.85782C5.32333 5.2324 5.01086 5.63177 4.7188 6.05566L5.54226 6.62304ZM6.4073 5.51809C6.69363 5.18881 6.99472 4.88048 7.31055 4.59293L6.63733 3.85349C6.29224 4.16768 5.96403 4.50387 5.6527 4.86191L6.4073 5.51809ZM9.41124 3.09988C9.78601 2.8962 10.1762 2.71244 10.5821 2.54867L10.2079 1.62132C9.76752 1.79902 9.34275 1.99896 8.93374 2.22124L9.41124 3.09988ZM10.5821 2.54867C11.0101 2.37598 11.4502 2.22559 11.9025 2.09758L11.6301 1.13538C11.1439 1.27301 10.6697 1.43497 10.2079 1.62132L10.5821 2.54867ZM14.6579 1.607C15.1162 1.56904 15.5852 1.55 16.065 1.55V0.549998C15.5588 0.549998 15.0622 0.570093 14.5754 0.610413L14.6579 1.607ZM16.065 1.55C16.5448 1.55 17.0138 1.56904 17.4721 1.607L17.5547 0.610413C17.0678 0.570093 16.5712 0.549998 16.065 0.549998V1.55ZM20.2275 2.09758C20.6798 2.22559 21.1199 2.37598 21.5479 2.54867L21.9221 1.62132C21.4603 1.43497 20.9861 1.27301 20.4999 1.13538L20.2275 2.09758ZM21.5479 2.54867C21.9538 2.71244 22.344 2.8962 22.7188 3.09988L23.1963 2.22124C22.7873 1.99896 22.3625 1.79902 21.9221 1.62132L21.5479 2.54867ZM24.8195 4.59293C25.1353 4.88048 25.4364 5.18881 25.7227 5.51809L26.4773 4.86191C26.166 4.50387 25.8378 4.16768 25.4927 3.85349L24.8195 4.59293ZM25.7263 5.52218C26.0311 5.8651 26.3183 6.23197 26.5877 6.62304L27.4112 6.05566C27.1191 5.63177 26.8067 5.2324 26.4737 4.85782L25.7263 5.52218ZM27.9233 9.09793C28.1008 9.52241 28.2645 9.96602 28.4143 10.4289L29.3657 10.1211C29.2079 9.63319 29.0346 9.16349 28.8459 8.71213L27.9233 9.09793ZM28.415 10.431C28.5033 10.7002 28.5857 10.9758 28.6621 11.258L29.6274 10.9967C29.5465 10.698 29.4591 10.4054 29.365 10.119L28.415 10.431ZM29.0343 12.9503C29.1303 13.5043 29.2064 14.0794 29.2624 14.6758L30.2581 14.5821C30.1997 13.9615 30.1203 13.3607 30.0197 12.7797L29.0343 12.9503ZM29.3676 16.4193C29.3759 16.7069 29.38 16.9988 29.38 17.295H30.38C30.38 16.9895 30.3757 16.6881 30.3672 16.3907L29.3676 16.4193ZM29.38 17.295C29.38 17.5929 29.3758 17.8866 29.3675 18.1761L30.3671 18.2048C30.3757 17.9055 30.38 17.6022 30.38 17.295H29.38ZM29.2614 19.9307C29.205 20.5299 29.1286 21.1088 29.0323 21.6675L30.0178 21.8374C30.1187 21.252 30.1984 20.6477 30.257 20.0244L29.2614 19.9307ZM28.6603 23.3722C28.5843 23.6562 28.5022 23.9342 28.4143 24.2061L29.3657 24.5139C29.4591 24.2253 29.5459 23.9309 29.6263 23.6308L28.6603 23.3722ZM28.415 24.204C28.2637 24.6647 28.0982 25.1074 27.9185 25.5324L28.8396 25.9218C29.0305 25.4703 29.2056 25.0016 29.365 24.516L28.415 24.204ZM26.5787 28.0077C26.3109 28.399 26.0255 28.7686 25.7227 29.1169L26.4773 29.7731C26.806 29.395 27.1149 28.9948 27.4039 28.5725L26.5787 28.0077ZM25.7263 29.1128C25.4385 29.4366 25.1358 29.7401 24.818 30.0237L25.4839 30.7698C25.8308 30.4602 26.1607 30.1293 26.4737 29.7772L25.7263 29.1128ZM22.7154 31.4947C22.3416 31.6958 21.9525 31.8781 21.5479 32.0413L21.9221 32.9687C22.3599 32.792 22.7824 32.5942 23.1892 32.3753L22.7154 31.4947ZM21.5479 32.0413C21.1199 32.214 20.6798 32.3644 20.2275 32.4924L20.4999 33.4546C20.9861 33.317 21.4603 33.155 21.9221 32.9687L21.5479 32.0413ZM17.4721 32.983C17.0138 33.021 16.5448 33.04 16.065 33.04V34.04C16.5712 34.04 17.0678 34.0199 17.5547 33.9796L17.4721 32.983ZM16.065 26.965C15.6146 26.965 15.1906 26.9313 14.7923 26.865L14.6282 27.8515C15.0856 27.9275 15.5648 27.965 16.065 27.965V26.965ZM12.4973 25.9477C12.1664 25.712 11.8616 25.4341 11.5828 25.1125L10.8272 25.7675C11.156 26.1468 11.5193 26.4789 11.9172 26.7622L12.4973 25.9477ZM11.587 25.1174C11.4368 24.9396 11.2971 24.7501 11.1678 24.5488L10.3264 25.0892C10.4786 25.3263 10.6442 25.5508 10.823 25.7626L11.587 25.1174ZM10.5423 23.2646C10.3871 22.8332 10.264 22.3636 10.1741 21.8545L9.18933 22.0284C9.28807 22.5876 9.42499 23.1129 9.60134 23.6031L10.5423 23.2646ZM10.0131 20.3824C10.0011 20.1401 9.995 19.891 9.995 19.635H8.995C8.995 19.9067 9.00143 20.1724 9.01436 20.4321L10.0131 20.3824ZM9.995 19.635V18.465H8.995V19.635H9.995ZM9.995 16.125V14.955H8.995V16.125H9.995ZM9.995 14.955C9.995 14.699 10.0011 14.4499 10.0131 14.2076L9.01436 14.1579C9.00143 14.4176 8.995 14.6833 8.995 14.955H9.995ZM10.1741 12.7355C10.264 12.2264 10.3871 11.7568 10.5423 11.3254L9.60134 10.9869C9.42499 11.4771 9.28807 12.0024 9.18933 12.5616L10.1741 12.7355ZM11.1678 10.0412C11.2971 9.83989 11.4368 9.65044 11.587 9.47259L10.823 8.82741C10.6442 9.03918 10.4786 9.26371 10.3264 9.50077L11.1678 10.0412ZM11.5828 9.47746C11.8616 9.15588 12.1664 8.87796 12.4973 8.64233L11.9172 7.82775C11.5193 8.1111 11.156 8.44316 10.8272 8.82253L11.5828 9.47746ZM14.7923 7.72498C15.1906 7.65872 15.6146 7.625 16.065 7.625V6.625C15.5648 6.625 15.0856 6.66245 14.6282 6.73854L14.7923 7.72498ZM16.065 7.625C16.513 7.625 16.9339 7.65836 17.3286 7.72387L17.4924 6.73736C17.0385 6.66204 16.5625 6.625 16.065 6.625V7.625ZM19.601 8.63721C19.9271 8.87269 20.2261 9.15066 20.498 9.47259L21.262 8.82741C20.9395 8.44547 20.5809 8.11132 20.1863 7.82643L19.601 8.63721ZM20.5022 9.47746C20.6554 9.65432 20.7981 9.84256 20.93 10.0424L21.7645 9.49137C21.609 9.25588 21.4401 9.03287 21.2578 8.82253L20.5022 9.47746ZM21.5713 11.3221C21.731 11.7532 21.8577 12.2227 21.9503 12.7317L22.9342 12.5528C22.8322 11.9923 22.6909 11.4659 22.509 10.9747L21.5713 11.3221ZM22.1163 14.206C22.1287 14.4488 22.135 14.6985 22.135 14.955H23.135C23.135 14.6822 23.1284 14.4155 23.115 14.1548L22.1163 14.206ZM22.135 14.955V16.125H23.135V14.955H22.135ZM22.135 18.465V19.635H23.135V18.465H22.135ZM22.135 19.635C22.135 19.8915 22.1287 20.1412 22.1163 20.384L23.115 20.4352C23.1284 20.1745 23.135 19.9078 23.135 19.635H22.135ZM21.9503 21.8583C21.8577 22.3673 21.731 22.8368 21.5713 23.2679L22.509 23.6153C22.6909 23.1241 22.8322 22.5977 22.9342 22.0372L21.9503 21.8583ZM20.93 24.5476C20.7981 24.7474 20.6554 24.9357 20.5022 25.1125L21.2578 25.7675C21.4401 25.5571 21.609 25.3341 21.7645 25.0986L20.93 24.5476ZM20.498 25.1174C20.2261 25.4393 19.9271 25.7173 19.601 25.9528L20.1863 26.7636C20.5809 26.4787 20.9395 26.1445 21.262 25.7626L20.498 25.1174ZM17.3286 26.8661C16.9339 26.9316 16.513 26.965 16.065 26.965V27.965C16.5625 27.965 17.0385 27.928 17.4923 27.8526L17.3286 26.8661ZM10.395 32.505L10.0208 33.4324L10.0208 33.4324L10.395 32.505ZM6.03 29.445L5.27535 30.1012L5.28259 30.1094L6.03 29.445ZM3.24 24.36L2.28855 24.6678L2.28991 24.672L3.24 24.36ZM3.24 10.275L4.1901 10.587L4.19144 10.5828L3.24 10.275ZM6.03 5.19L6.77745 5.8544L6.78461 5.84618L6.03 5.19ZM10.395 2.085L10.0208 1.15765L10.0208 1.15765L10.395 2.085ZM21.735 2.085L21.3608 3.01235L21.3608 3.01235L21.735 2.085ZM26.1 5.19L25.3454 5.84622L25.3526 5.85436L26.1 5.19ZM28.89 10.275L27.9385 10.5828L27.9399 10.587L28.89 10.275ZM28.89 24.36L29.8401 24.672L29.8414 24.6678L28.89 24.36ZM26.1 29.445L26.8475 30.1094L26.8546 30.1012L26.1 29.445ZM21.735 32.505L21.3608 31.5776L21.3608 31.5776L21.735 32.505ZM20.88 25.44L20.1242 24.785L20.116 24.7948L20.88 25.44ZM20.88 9.15L20.1159 9.79523L20.1243 9.80493L20.88 9.15ZM11.205 9.15L10.4492 8.49501L10.441 8.50482L11.205 9.15ZM11.205 25.44L10.4409 26.0852L10.4493 26.0949L11.205 25.44ZM16.065 32.54C15.5985 32.54 15.1432 32.5215 14.6992 32.4847L14.5341 34.4779C15.0352 34.5194 15.5455 34.54 16.065 34.54V32.54ZM12.0386 32.0113C11.6033 31.8881 11.1803 31.7435 10.7692 31.5776L10.0208 33.4324C10.4996 33.6255 10.9907 33.7933 11.494 33.9357L12.0386 32.0113ZM10.7692 31.5776C10.3812 31.4211 10.0087 31.2466 9.65157 31.0544L8.70384 32.8156C9.12726 33.0435 9.56635 33.249 10.0208 33.4324L10.7692 31.5776ZM7.64487 29.6506C7.34172 29.3801 7.05257 29.0902 6.77741 28.7806L5.28259 30.1094C5.60817 30.4756 5.95172 30.8202 6.31322 31.1428L7.64487 29.6506ZM6.78461 28.7888C6.4947 28.4554 6.22112 28.101 5.96396 27.7253L4.31347 28.8548C4.6131 29.2927 4.93371 29.7082 5.27539 30.1012L6.78461 28.7888ZM4.67204 25.3377C4.49798 24.926 4.33725 24.4962 4.19009 24.048L2.28991 24.672C2.45348 25.1701 2.6334 25.6517 2.82991 26.1165L4.67204 25.3377ZM4.19144 24.0522C4.10618 23.7886 4.02657 23.5189 3.95267 23.2428L2.02071 23.7601C2.10323 24.0683 2.19249 24.3709 2.28856 24.6678L4.19144 24.0522ZM3.59043 21.5826C3.49642 21.0372 3.42164 20.471 3.36639 19.8839L1.37518 20.0712C1.43496 20.7065 1.5163 21.3236 1.61949 21.9223L3.59043 21.5826ZM3.2623 18.1617C3.25411 17.8771 3.25 17.5882 3.25 17.295H1.25C1.25 17.6069 1.25437 17.9149 1.26312 18.2192L3.2623 18.1617ZM3.25 17.295C3.25 17.0034 3.25406 16.7163 3.26216 16.4337L1.26298 16.3764C1.25432 16.6787 1.25 16.9849 1.25 17.295H3.25ZM3.36536 14.7226C3.42031 14.1383 3.49474 13.5761 3.58833 13.0356L1.61766 12.6944C1.51472 13.2889 1.43366 13.9026 1.37414 14.5353L3.36536 14.7226ZM3.95051 11.3886C4.02465 11.1148 4.10453 10.8476 4.19009 10.587L2.28991 9.96303C2.19303 10.2581 2.10307 10.5591 2.01998 10.8661L3.95051 11.3886ZM4.19144 10.5828C4.33716 10.1324 4.49609 9.70187 4.66798 9.29083L2.82282 8.51922C2.62845 8.98403 2.45045 9.46678 2.28856 9.96718L4.19144 10.5828ZM5.95399 6.90672C6.21213 6.53206 6.48667 6.18145 6.77741 5.85436L5.28259 4.52563C4.93555 4.91606 4.61044 5.33168 4.30706 5.77198L5.95399 6.90672ZM6.78461 5.84618C7.05844 5.53127 7.34596 5.23688 7.64716 4.96265L6.30072 3.48377C5.94099 3.81128 5.59923 4.16141 5.27539 4.53382L6.78461 5.84618ZM9.64999 3.53919C10.0076 3.34482 10.3806 3.16915 10.7692 3.01235L10.0208 1.15765C9.56316 1.34231 9.12112 1.55034 8.69499 1.78193L9.64999 3.53919ZM10.7692 3.01235C11.1803 2.84648 11.6033 2.70189 12.0386 2.57869L11.494 0.654276C10.9907 0.796712 10.4996 0.964461 10.0208 1.15765L10.7692 3.01235ZM14.6992 2.10529C15.1432 2.06852 15.5985 2.05 16.065 2.05V0.0499983C15.5455 0.0499983 15.0352 0.0706184 14.5341 0.112119L14.6992 2.10529ZM16.065 2.05C16.5315 2.05 16.9868 2.06852 17.4308 2.10529L17.5959 0.112119C17.0948 0.0706184 16.5845 0.0499983 16.065 0.0499983V2.05ZM20.0914 2.57869C20.5267 2.70189 20.9497 2.84648 21.3608 3.01235L22.1092 1.15765C21.6304 0.964461 21.1393 0.796712 20.636 0.654276L20.0914 2.57869ZM21.3608 3.01235C21.7494 3.16915 22.1224 3.34482 22.48 3.53919L23.435 1.78193C23.0089 1.55034 22.5668 1.34231 22.1092 1.15765L21.3608 3.01235ZM24.4828 4.96265C24.784 5.23688 25.0716 5.53127 25.3454 5.84618L26.8546 4.53382C26.5308 4.16141 26.189 3.81128 25.8293 3.48377L24.4828 4.96265ZM25.3526 5.85436C25.6433 6.18145 25.9179 6.53206 26.176 6.90672L27.8229 5.77198C27.5196 5.33168 27.1945 4.91606 26.8474 4.52564L25.3526 5.85436ZM27.462 9.29083C27.6339 9.70187 27.7928 10.1324 27.9386 10.5828L29.8414 9.96718C29.6795 9.46678 29.5016 8.98403 29.3072 8.51922L27.462 9.29083ZM27.9399 10.587C28.0255 10.8476 28.1054 11.1148 28.1795 11.3886L30.11 10.8661C30.0269 10.5591 29.937 10.2581 29.8401 9.96303L27.9399 10.587ZM28.5417 13.0356C28.6353 13.5761 28.7097 14.1383 28.7646 14.7226L30.7559 14.5353C30.6963 13.9026 30.6153 13.2889 30.5123 12.6944L28.5417 13.0356ZM28.8678 16.4337C28.8759 16.7163 28.88 17.0034 28.88 17.295H30.88C30.88 16.9849 30.8757 16.6787 30.867 16.3764L28.8678 16.4337ZM28.88 17.295C28.88 17.5882 28.8759 17.8771 28.8677 18.1617L30.8669 18.2192C30.8756 17.9149 30.88 17.6069 30.88 17.295H28.88ZM28.7636 19.8839C28.7084 20.471 28.6336 21.0372 28.5396 21.5826L30.5105 21.9223C30.6137 21.3236 30.695 20.7065 30.7548 20.0712L28.7636 19.8839ZM28.1773 23.2428C28.1034 23.5189 28.0238 23.7886 27.9386 24.0522L29.8414 24.6678C29.9375 24.3709 30.0268 24.0683 30.1093 23.7601L28.1773 23.2428ZM27.9399 24.048C27.7928 24.4962 27.632 24.926 27.458 25.3377L29.3001 26.1165C29.4966 25.6517 29.6765 25.1701 29.8401 24.672L27.9399 24.048ZM26.166 27.7253C25.9089 28.101 25.6353 28.4554 25.3454 28.7888L26.8546 30.1012C27.1963 29.7082 27.5169 29.2927 27.8165 28.8548L26.166 27.7253ZM25.3526 28.7806C25.0774 29.0902 24.7883 29.3801 24.4851 29.6506L25.8168 31.1428C26.1783 30.8202 26.5218 30.4756 26.8474 30.1094L25.3526 28.7806ZM22.4784 31.0544C22.1213 31.2466 21.7488 31.4211 21.3608 31.5776L22.1092 33.4324C22.5636 33.249 23.0027 33.0435 23.4262 32.8156L22.4784 31.0544ZM21.3608 31.5776C20.9497 31.7435 20.5267 31.8881 20.0914 32.0113L20.636 33.9357C21.1393 33.7933 21.6304 33.6255 22.1092 33.4324L21.3608 31.5776ZM17.4308 32.4847C16.9868 32.5215 16.5315 32.54 16.065 32.54V34.54C16.5845 34.54 17.0948 34.5194 17.5959 34.4779L17.4308 32.4847ZM16.065 26.465C15.6395 26.465 15.2431 26.4331 14.8744 26.3718L14.5462 28.3447C15.0331 28.4257 15.5399 28.465 16.065 28.465V26.465ZM12.7873 25.5404C12.4899 25.3286 12.2144 25.0778 11.9607 24.7851L10.4493 26.0949C10.8031 26.5032 11.1958 26.8623 11.6272 27.1695L12.7873 25.5404ZM11.969 24.7948C11.8332 24.6339 11.7063 24.462 11.5885 24.2786L9.90568 25.3594C10.0694 25.6144 10.2478 25.8565 10.441 26.0852L11.969 24.7948ZM11.0128 23.0953C10.8682 22.6934 10.7519 22.2516 10.6665 21.7676L8.69695 22.1154C8.80011 22.6996 8.94392 23.2527 9.13086 23.7723L11.0128 23.0953ZM10.5125 20.3575C10.5009 20.1239 10.495 19.8831 10.495 19.635H8.495C8.495 19.9146 8.50162 20.1886 8.51498 20.457L10.5125 20.3575ZM10.495 19.635V18.465H8.495V19.635H10.495ZM10.495 16.125V14.955H8.495V16.125H10.495ZM10.495 14.955C10.495 14.7069 10.5009 14.4661 10.5125 14.2324L8.51498 14.133C8.50162 14.4014 8.495 14.6754 8.495 14.955H10.495ZM10.6665 12.8224C10.7519 12.3384 10.8682 11.8966 11.0128 11.4947L9.13086 10.8177C8.94392 11.3373 8.80011 11.8904 8.69695 12.4746L10.6665 12.8224ZM11.5885 10.3114C11.7063 10.128 11.8332 9.95607 11.969 9.79518L10.441 8.50482C10.2478 8.73354 10.0694 8.97562 9.90568 9.23057L11.5885 10.3114ZM11.9607 9.80493C12.2144 9.51224 12.4899 9.26139 12.7873 9.04962L11.6272 7.42046C11.1958 7.72767 10.8031 8.08679 10.4493 8.49507L11.9607 9.80493ZM14.8744 8.21821C15.2431 8.15686 15.6395 8.125 16.065 8.125V6.125C15.5399 6.125 15.0331 6.16431 14.5462 6.24532L14.8744 8.21821ZM16.065 8.125C16.4882 8.125 16.8816 8.15652 17.2468 8.21712L17.5742 6.24411C17.0908 6.16388 16.5873 6.125 16.065 6.125V8.125ZM19.3083 9.0426C19.6002 9.25337 19.8695 9.50326 20.116 9.79518L21.644 8.50482C21.2962 8.09287 20.9078 7.73064 20.479 7.42104L19.3083 9.0426ZM20.1243 9.80493C20.2631 9.96505 20.3926 10.1359 20.5128 10.3179L22.1817 9.21585C22.0145 8.96254 21.8325 8.72214 21.6357 8.49507L20.1243 9.80493ZM21.1024 11.4958C21.251 11.8969 21.3705 12.3379 21.4584 12.8212L23.4261 12.4633C23.3195 11.8771 23.1709 11.3223 22.9779 10.8011L21.1024 11.4958ZM21.617 14.2316C21.6289 14.4655 21.635 14.7066 21.635 14.955H23.635C23.635 14.6741 23.6282 14.3988 23.6143 14.1292L21.617 14.2316ZM21.635 14.955V16.125H23.635V14.955H21.635ZM21.635 18.465V19.635H23.635V18.465H21.635ZM21.635 19.635C21.635 19.8834 21.6289 20.1245 21.617 20.3584L23.6143 20.4608C23.6282 20.1911 23.635 19.9159 23.635 19.635H21.635ZM21.4584 21.7688C21.3705 22.2521 21.251 22.6931 21.1024 23.0942L22.9779 23.7889C23.1709 23.2677 23.3195 22.7129 23.4261 22.1267L21.4584 21.7688ZM20.5128 24.2721C20.3926 24.4541 20.2631 24.6249 20.1243 24.7851L21.6357 26.0949C21.8325 25.8679 22.0145 25.6275 22.1817 25.3741L20.5128 24.2721ZM20.116 24.7948C19.8695 25.0867 19.6002 25.3366 19.3083 25.5474L20.479 27.169C20.9078 26.8594 21.2962 26.4971 21.644 26.0852L20.116 24.7948ZM17.2467 26.3729C16.8816 26.4335 16.4882 26.465 16.065 26.465V28.465C16.5873 28.465 17.0908 28.4261 17.5742 28.3459L17.2467 26.3729ZM41.4728 33L40.9969 33.1534L41.1086 33.5H41.4728V33ZM31.3478 1.59V1.09H30.6613L30.8719 1.7434L31.3478 1.59ZM38.2778 1.59L38.7553 1.44175L38.6461 1.09H38.2778V1.59ZM42.9578 16.665L43.4427 16.5432L43.4394 16.5299L43.4353 16.5168L42.9578 16.665ZM45.4328 26.52L44.9478 26.6418L45.0428 27.02H45.4328V26.52ZM45.5678 26.52V27.02H45.9612L46.0537 26.6376L45.5678 26.52ZM47.9528 16.665L47.4753 16.5168L47.4705 16.5319L47.4668 16.5474L47.9528 16.665ZM52.6328 1.59V1.09H52.2645L52.1553 1.44175L52.6328 1.59ZM59.3378 1.59L59.8133 1.74463L60.0262 1.09H59.3378V1.59ZM49.1228 33V33.5H49.4859L49.5983 33.1546L49.1228 33ZM41.9487 32.8466L41.6323 31.865L40.6805 32.1718L40.9969 33.1534L41.9487 32.8466ZM40.9994 29.9019L40.3666 27.9388L39.4149 28.2456L40.0477 30.2087L40.9994 29.9019ZM39.7338 25.9757L39.101 24.0125L38.1492 24.3193L38.782 26.2825L39.7338 25.9757ZM38.4682 22.0494L37.8354 20.0863L36.8836 20.3931L37.5164 22.3562L38.4682 22.0494ZM37.2026 18.1232L36.5698 16.16L35.618 16.4668L36.2508 18.43L37.2026 18.1232ZM35.9369 14.1969L35.3041 12.2338L34.3524 12.5406L34.9852 14.5037L35.9369 14.1969ZM34.6713 10.2707L34.0385 8.30753L33.0867 8.61434L33.7195 10.5775L34.6713 10.2707ZM33.4057 6.3444L32.7729 4.38128L31.8211 4.68808L32.4539 6.65121L33.4057 6.3444ZM32.1401 2.41815L31.8237 1.4366L30.8719 1.7434L31.1883 2.72496L32.1401 2.41815ZM31.3478 2.09H32.214V1.09H31.3478V2.09ZM33.9465 2.09H35.679V1.09H33.9465V2.09ZM37.4115 2.09H38.2778V1.09H37.4115V2.09ZM37.8003 1.73824L38.0928 2.68043L39.0478 2.38394L38.7553 1.44175L37.8003 1.73824ZM38.6778 4.56481L39.2628 6.44918L40.2178 6.15269L39.6328 4.26832L38.6778 4.56481ZM39.8478 8.33356L40.4328 10.2179L41.3878 9.92144L40.8028 8.03707L39.8478 8.33356ZM41.0178 12.1023L41.6028 13.9867L42.5578 13.6902L41.9728 11.8058L41.0178 12.1023ZM42.1878 15.8711L42.4803 16.8132L43.4353 16.5168L43.1428 15.5746L42.1878 15.8711ZM42.4728 16.7868L42.6791 17.608L43.649 17.3645L43.4427 16.5432L42.4728 16.7868ZM43.0916 19.2505L43.5041 20.893L44.474 20.6495L44.0615 19.007L43.0916 19.2505ZM43.9166 22.5355L44.3291 24.178L45.299 23.9345L44.8865 22.292L43.9166 22.5355ZM44.7416 25.8205L44.9478 26.6418L45.9177 26.3982L45.7115 25.577L44.7416 25.8205ZM45.4328 27.02H45.4665V26.02H45.4328V27.02ZM45.534 27.02H45.5678V26.02H45.534V27.02ZM46.0537 26.6376L46.2525 25.8164L45.2806 25.5811L45.0818 26.4024L46.0537 26.6376ZM46.65 24.1739L47.0475 22.5314L46.0756 22.2961L45.6781 23.9386L46.65 24.1739ZM47.445 20.8889L47.8425 19.2464L46.8706 19.0111L46.4731 20.6536L47.445 20.8889ZM48.24 17.6039L48.4387 16.7826L47.4668 16.5474L47.2681 17.3686L48.24 17.6039ZM48.4303 16.8132L48.7228 15.8711L47.7678 15.5746L47.4753 16.5168L48.4303 16.8132ZM49.3078 13.9867L49.8928 12.1023L48.9378 11.8058L48.3528 13.6902L49.3078 13.9867ZM50.4778 10.2179L51.0628 8.33356L50.1078 8.03707L49.5228 9.92144L50.4778 10.2179ZM51.6478 6.44918L52.2328 4.56481L51.2778 4.26832L50.6928 6.15269L51.6478 6.44918ZM52.8178 2.68043L53.1103 1.73824L52.1553 1.44175L51.8628 2.38394L52.8178 2.68043ZM52.6328 2.09H53.4709V1.09H52.6328V2.09ZM55.1471 2.09H56.8234V1.09H55.1471V2.09ZM58.4997 2.09H59.3378V1.09H58.4997V2.09ZM58.8623 1.43536L58.5431 2.41693L59.494 2.7262L59.8133 1.74463L58.8623 1.43536ZM57.9046 4.38005L57.2662 6.34318L58.2172 6.65245L58.8556 4.68932L57.9046 4.38005ZM56.6278 8.3063L55.9893 10.2694L56.9403 10.5787L57.5787 8.61557L56.6278 8.3063ZM55.3509 12.2326L54.7124 14.1957L55.6634 14.5049L56.3019 12.5418L55.3509 12.2326ZM54.074 16.1588L53.4356 18.1219L54.3865 18.4312L55.025 16.4681L54.074 16.1588ZM52.7971 20.0851L52.1587 22.0482L53.1097 22.3574L53.7481 20.3943L52.7971 20.0851ZM51.5203 24.0113L50.8818 25.9744L51.8328 26.2837L52.4712 24.3206L51.5203 24.0113ZM50.2434 27.9376L49.6049 29.9007L50.5559 30.2099L51.1944 28.2468L50.2434 27.9376ZM48.9665 31.8638L48.6473 32.8454L49.5983 33.1546L49.9175 32.1731L48.9665 31.8638ZM49.1228 32.5H48.1665V33.5H49.1228V32.5ZM46.254 32.5H44.3415V33.5H46.254V32.5ZM42.429 32.5H41.4728V33.5H42.429V32.5ZM41.4728 33L40.521 33.3068L40.7445 34H41.4728V33ZM31.3478 1.59V0.589999H29.9748L30.396 1.8968L31.3478 1.59ZM38.2778 1.59L39.2328 1.29351L39.0144 0.589999H38.2778V1.59ZM42.9578 16.665L43.9277 16.4214L43.921 16.3948L43.9128 16.3685L42.9578 16.665ZM45.4328 26.52L44.4629 26.7636L44.6529 27.52H45.4328V26.52ZM45.5678 26.52V27.52H46.3546L46.5397 26.7552L45.5678 26.52ZM47.9528 16.665L46.9977 16.3685L46.9883 16.3989L46.9808 16.4298L47.9528 16.665ZM52.6328 1.59V0.589999H51.8961L51.6777 1.29351L52.6328 1.59ZM59.3378 1.59L60.2887 1.89927L60.7145 0.589999H59.3378V1.59ZM49.1228 33V34H49.8491L50.0737 33.3093L49.1228 33ZM42.4245 32.6932L42.1081 31.7116L40.2046 32.3252L40.521 33.3068L42.4245 32.6932ZM41.4753 29.7485L40.8425 27.7854L38.939 28.399L39.5718 30.3621L41.4753 29.7485ZM40.2097 25.8223L39.5769 23.8591L37.6733 24.4727L38.3062 26.4359L40.2097 25.8223ZM38.9441 21.896L38.3113 19.9329L36.4077 20.5465L37.0405 22.5096L38.9441 21.896ZM37.6785 17.9698L37.0456 16.0066L35.1421 16.6202L35.7749 18.5834L37.6785 17.9698ZM36.4128 14.0435L35.78 12.0804L33.8765 12.694L34.5093 14.6571L36.4128 14.0435ZM35.1472 10.1173L34.5144 8.15413L32.6108 8.76774L33.2437 10.7309L35.1472 10.1173ZM33.8816 6.191L33.2488 4.22788L31.3452 4.84148L31.978 6.80461L33.8816 6.191ZM32.616 2.26475L32.2995 1.2832L30.396 1.8968L30.7124 2.87836L32.616 2.26475ZM31.3478 2.59H32.214V0.589999H31.3478V2.59ZM33.9465 2.59H35.679V0.589999H33.9465V2.59ZM37.4115 2.59H38.2778V0.589999H37.4115V2.59ZM37.3227 1.88649L37.6152 2.82868L39.5253 2.2357L39.2328 1.29351L37.3227 1.88649ZM38.2002 4.71305L38.7852 6.59743L40.6953 6.00445L40.1103 4.12007L38.2002 4.71305ZM39.3702 8.4818L39.9552 10.3662L41.8653 9.7732L41.2803 7.88882L39.3702 8.4818ZM40.5402 12.2506L41.1252 14.1349L43.0353 13.5419L42.4503 11.6576L40.5402 12.2506ZM41.7102 16.0193L42.0027 16.9615L43.9128 16.3685L43.6203 15.4263L41.7102 16.0193ZM41.9879 16.9086L42.1941 17.7298L44.1339 17.2427L43.9277 16.4214L41.9879 16.9086ZM42.6066 19.3723L43.0191 21.0148L44.9589 20.5277L44.5464 18.8852L42.6066 19.3723ZM43.4316 22.6573L43.8441 24.2998L45.7839 23.8127L45.3714 22.1702L43.4316 22.6573ZM44.2566 25.9423L44.4629 26.7636L46.4027 26.2764L46.1964 25.4552L44.2566 25.9423ZM45.4328 27.52H45.4665V25.52H45.4328V27.52ZM45.534 27.52H45.5678V25.52H45.534V27.52ZM46.5397 26.7552L46.7385 25.934L44.7946 25.4635L44.5958 26.2848L46.5397 26.7552ZM47.136 24.2915L47.5335 22.649L45.5896 22.1785L45.1921 23.821L47.136 24.2915ZM47.931 21.0065L48.3285 19.364L46.3846 18.8935L45.9871 20.536L47.931 21.0065ZM48.726 17.7215L48.9247 16.9002L46.9808 16.4298L46.7821 17.251L48.726 17.7215ZM48.9078 16.9615L49.2003 16.0193L47.2902 15.4263L46.9977 16.3685L48.9078 16.9615ZM49.7853 14.1349L50.3703 12.2506L48.4602 11.6576L47.8752 13.5419L49.7853 14.1349ZM50.9553 10.3662L51.5403 8.4818L49.6302 7.88882L49.0452 9.7732L50.9553 10.3662ZM52.1253 6.59743L52.7103 4.71305L50.8002 4.12007L50.2152 6.00445L52.1253 6.59743ZM53.2953 2.82867L53.5878 1.88649L51.6777 1.29351L51.3852 2.2357L53.2953 2.82867ZM52.6328 2.59H53.4709V0.589999H52.6328V2.59ZM55.1471 2.59H56.8234V0.589999H55.1471V2.59ZM58.4997 2.59H59.3378V0.589999H58.4997V2.59ZM58.3868 1.28073L58.0676 2.26229L59.9695 2.88083L60.2887 1.89927L58.3868 1.28073ZM57.4291 4.22542L56.7907 6.18854L58.6927 6.80708L59.3311 4.84396L57.4291 4.22542ZM56.1523 8.15167L55.5138 10.1148L57.4158 10.7333L58.0542 8.77021L56.1523 8.15167ZM54.8754 12.0779L54.237 14.041L56.1389 14.6596L56.7773 12.6965L54.8754 12.0779ZM53.5985 16.0042L52.9601 17.9673L54.862 18.5858L55.5005 16.6227L53.5985 16.0042ZM52.3216 19.9304L51.6832 21.8935L53.5852 22.5121L54.2236 20.549L52.3216 19.9304ZM51.0448 23.8567L50.4063 25.8198L52.3083 26.4383L52.9467 24.4752L51.0448 23.8567ZM49.7679 27.7829L49.1295 29.746L51.0314 30.3646L51.6698 28.4015L49.7679 27.7829ZM48.491 31.7092L48.1718 32.6907L50.0737 33.3093L50.393 32.3277L48.491 31.7092ZM49.1228 32H48.1665V34H49.1228V32ZM46.254 32H44.3415V34H46.254V32ZM42.429 32H41.4728V34H42.429V32ZM63.4504 33H62.9504V33.5H63.4504V33ZM63.4504 1.59V1.09H62.9504V1.59H63.4504ZM84.8254 1.59H85.3254V1.09H84.8254V1.59ZM84.8254 7.665V8.165H85.3254V7.665H84.8254ZM70.2904 7.665V7.165H69.7904V7.665H70.2904ZM70.2904 14.1H69.7904V14.6H70.2904V14.1ZM82.7554 14.1H83.2554V13.6H82.7554V14.1ZM82.7554 20.13V20.63H83.2554V20.13H82.7554ZM70.2904 20.13V19.63H69.7904V20.13H70.2904ZM70.2904 26.925H69.7904V27.425H70.2904V26.925ZM84.8254 26.925H85.3254V26.425H84.8254V26.925ZM84.8254 33V33.5H85.3254V33H84.8254ZM63.9504 33V32.0184H62.9504V33H63.9504ZM63.9504 30.0553V28.0922H62.9504V30.0553H63.9504ZM63.9504 26.1291V24.1659H62.9504V26.1291H63.9504ZM63.9504 22.2028V20.2397H62.9504V22.2028H63.9504ZM63.9504 18.2766V16.3134H62.9504V18.2766H63.9504ZM63.9504 14.3503V12.3872H62.9504V14.3503H63.9504ZM63.9504 10.4241V8.46094H62.9504V10.4241H63.9504ZM63.9504 6.49781V4.53469H62.9504V6.49781H63.9504ZM63.9504 2.57156V1.59H62.9504V2.57156H63.9504ZM63.4504 2.09H64.5191V1.09H63.4504V2.09ZM66.6566 2.09H68.7941V1.09H66.6566V2.09ZM70.9316 2.09H73.0691V1.09H70.9316V2.09ZM75.2066 2.09H77.3441V1.09H75.2066V2.09ZM79.4816 2.09H81.6191V1.09H79.4816V2.09ZM83.7566 2.09H84.8254V1.09H83.7566V2.09ZM84.3254 1.59V2.34937H85.3254V1.59H84.3254ZM84.3254 3.86812V5.38687H85.3254V3.86812H84.3254ZM84.3254 6.90562V7.665H85.3254V6.90562H84.3254ZM84.8254 7.165H83.9169V8.165H84.8254V7.165ZM82.1 7.165H80.2832V8.165H82.1V7.165ZM78.4663 7.165H76.6494V8.165H78.4663V7.165ZM74.8325 7.165H73.0157V8.165H74.8325V7.165ZM71.1988 7.165H70.2904V8.165H71.1988V7.165ZM69.7904 7.665V8.46937H70.7904V7.665H69.7904ZM69.7904 10.0781V11.6869H70.7904V10.0781H69.7904ZM69.7904 13.2956V14.1H70.7904V13.2956H69.7904ZM70.2904 14.6H71.3291V13.6H70.2904V14.6ZM73.4066 14.6H75.4841V13.6H73.4066V14.6ZM77.5616 14.6H79.6391V13.6H77.5616V14.6ZM81.7166 14.6H82.7554V13.6H81.7166V14.6ZM82.2554 14.1V14.8537H83.2554V14.1H82.2554ZM82.2554 16.3612V17.8687H83.2554V16.3612H82.2554ZM82.2554 19.3762V20.13H83.2554V19.3762H82.2554ZM82.7554 19.63H81.7166V20.63H82.7554V19.63ZM79.6391 19.63H77.5616V20.63H79.6391V19.63ZM75.4841 19.63H73.4066V20.63H75.4841V19.63ZM71.3291 19.63H70.2904V20.63H71.3291V19.63ZM69.7904 20.13V20.9794H70.7904V20.13H69.7904ZM69.7904 22.6781V24.3769H70.7904V22.6781H69.7904ZM69.7904 26.0756V26.925H70.7904V26.0756H69.7904ZM70.2904 27.425H71.1988V26.425H70.2904V27.425ZM73.0157 27.425H74.8325V26.425H73.0157V27.425ZM76.6494 27.425H78.4663V26.425H76.6494V27.425ZM80.2832 27.425H82.1V26.425H80.2832V27.425ZM83.9169 27.425H84.8254V26.425H83.9169V27.425ZM84.3254 26.925V27.6844H85.3254V26.925H84.3254ZM84.3254 29.2031V30.7219H85.3254V29.2031H84.3254ZM84.3254 32.2406V33H85.3254V32.2406H84.3254ZM84.8254 32.5H83.7566V33.5H84.8254V32.5ZM81.6191 32.5H79.4816V33.5H81.6191V32.5ZM77.3441 32.5H75.2066V33.5H77.3441V32.5ZM73.0691 32.5H70.9316V33.5H73.0691V32.5ZM68.7941 32.5H66.6566V33.5H68.7941V32.5ZM64.5191 32.5H63.4504V33.5H64.5191V32.5ZM63.4504 33H62.4504V34H63.4504V33ZM63.4504 1.59V0.589999H62.4504V1.59H63.4504ZM84.8254 1.59H85.8254V0.589999H84.8254V1.59ZM84.8254 7.665V8.665H85.8254V7.665H84.8254ZM70.2904 7.665V6.665H69.2904V7.665H70.2904ZM70.2904 14.1H69.2904V15.1H70.2904V14.1ZM82.7554 14.1H83.7554V13.1H82.7554V14.1ZM82.7554 20.13V21.13H83.7554V20.13H82.7554ZM70.2904 20.13V19.13H69.2904V20.13H70.2904ZM70.2904 26.925H69.2904V27.925H70.2904V26.925ZM84.8254 26.925H85.8254V25.925H84.8254V26.925ZM84.8254 33V34H85.8254V33H84.8254ZM64.4504 33V32.0184H62.4504V33H64.4504ZM64.4504 30.0553V28.0922H62.4504V30.0553H64.4504ZM64.4504 26.1291V24.1659H62.4504V26.1291H64.4504ZM64.4504 22.2028V20.2397H62.4504V22.2028H64.4504ZM64.4504 18.2766V16.3134H62.4504V18.2766H64.4504ZM64.4504 14.3503V12.3872H62.4504V14.3503H64.4504ZM64.4504 10.4241V8.46094H62.4504V10.4241H64.4504ZM64.4504 6.49781V4.53469H62.4504V6.49781H64.4504ZM64.4504 2.57156V1.59H62.4504V2.57156H64.4504ZM63.4504 2.59H64.5191V0.589999H63.4504V2.59ZM66.6566 2.59H68.7941V0.589999H66.6566V2.59ZM70.9316 2.59H73.0691V0.589999H70.9316V2.59ZM75.2066 2.59H77.3441V0.589999H75.2066V2.59ZM79.4816 2.59H81.6191V0.589999H79.4816V2.59ZM83.7566 2.59H84.8254V0.589999H83.7566V2.59ZM83.8254 1.59V2.34937H85.8254V1.59H83.8254ZM83.8254 3.86812V5.38687H85.8254V3.86812H83.8254ZM83.8254 6.90562V7.665H85.8254V6.90562H83.8254ZM84.8254 6.665H83.9169V8.665H84.8254V6.665ZM82.1 6.665H80.2832V8.665H82.1V6.665ZM78.4663 6.665H76.6494V8.665H78.4663V6.665ZM74.8325 6.665H73.0157V8.665H74.8325V6.665ZM71.1988 6.665H70.2904V8.665H71.1988V6.665ZM69.2904 7.665V8.46937H71.2904V7.665H69.2904ZM69.2904 10.0781V11.6869H71.2904V10.0781H69.2904ZM69.2904 13.2956V14.1H71.2904V13.2956H69.2904ZM70.2904 15.1H71.3291V13.1H70.2904V15.1ZM73.4066 15.1H75.4841V13.1H73.4066V15.1ZM77.5616 15.1H79.6391V13.1H77.5616V15.1ZM81.7166 15.1H82.7554V13.1H81.7166V15.1ZM81.7554 14.1V14.8537H83.7554V14.1H81.7554ZM81.7554 16.3612V17.8687H83.7554V16.3612H81.7554ZM81.7554 19.3762V20.13H83.7554V19.3762H81.7554ZM82.7554 19.13H81.7166V21.13H82.7554V19.13ZM79.6391 19.13H77.5616V21.13H79.6391V19.13ZM75.4841 19.13H73.4066V21.13H75.4841V19.13ZM71.3291 19.13H70.2904V21.13H71.3291V19.13ZM69.2904 20.13V20.9794H71.2904V20.13H69.2904ZM69.2904 22.6781V24.3769H71.2904V22.6781H69.2904ZM69.2904 26.0756V26.925H71.2904V26.0756H69.2904ZM70.2904 27.925H71.1988V25.925H70.2904V27.925ZM73.0157 27.925H74.8325V25.925H73.0157V27.925ZM76.6494 27.925H78.4663V25.925H76.6494V27.925ZM80.2832 27.925H82.1V25.925H80.2832V27.925ZM83.9169 27.925H84.8254V25.925H83.9169V27.925ZM83.8254 26.925V27.6844H85.8254V26.925H83.8254ZM83.8254 29.2031V30.7219H85.8254V29.2031H83.8254ZM83.8254 32.2406V33H85.8254V32.2406H83.8254ZM84.8254 32H83.7566V34H84.8254V32ZM81.6191 32H79.4816V34H81.6191V32ZM77.3441 32H75.2066V34H77.3441V32ZM73.0691 32H70.9316V34H73.0691V32ZM68.7941 32H66.6566V34H68.7941V32ZM64.5191 32H63.4504V34H64.5191V32ZM97.6243 33V33.5H98.1243V33H97.6243ZM90.7843 33H90.2843V33.5H90.7843V33ZM90.7843 1.59V1.09H90.2843V1.59H90.7843ZM109.594 2.31L109.784 1.84741L109.784 1.84741L109.594 2.31ZM112.564 4.38L112.193 4.71448L112.199 4.72099L112.205 4.7273L112.564 4.38ZM113.734 17.205L113.306 16.9465L113.303 16.9526L113.734 17.205ZM109.459 20.67L109.284 20.2018L108.764 20.3968L109.012 20.8936L109.459 20.67ZM115.624 33V33.5H116.433L116.072 32.7764L115.624 33ZM108.019 33L107.568 33.2151L107.704 33.5H108.019V33ZM102.529 21.48L102.981 21.2649L102.845 20.98H102.529V21.48ZM97.6243 21.48V20.98H97.1243V21.48H97.6243ZM107.209 14.955L107.543 15.3276L107.544 15.3266L107.209 14.955ZM107.209 8.34L106.865 8.70297L106.875 8.71224L106.886 8.72097L107.209 8.34ZM97.6243 7.53V7.03H97.1243V7.53H97.6243ZM97.6243 15.72H97.1243V16.22H97.6243V15.72ZM97.6243 32.5H96.7693V33.5H97.6243V32.5ZM95.0593 32.5H93.3493V33.5H95.0593V32.5ZM91.6393 32.5H90.7843V33.5H91.6393V32.5ZM91.2843 33V32.0184H90.2843V33H91.2843ZM91.2843 30.0553V28.0922H90.2843V30.0553H91.2843ZM91.2843 26.1291V24.1659H90.2843V26.1291H91.2843ZM91.2843 22.2028V20.2397H90.2843V22.2028H91.2843ZM91.2843 18.2766V16.3134H90.2843V18.2766H91.2843ZM91.2843 14.3503V12.3872H90.2843V14.3503H91.2843ZM91.2843 10.4241V8.46094H90.2843V10.4241H91.2843ZM91.2843 6.49781V4.53469H90.2843V6.49781H91.2843ZM91.2843 2.57156V1.59H90.2843V2.57156H91.2843ZM90.7843 2.09H91.7153V1.09H90.7843V2.09ZM93.5771 2.09H95.439V1.09H93.5771V2.09ZM97.3009 2.09H99.1628V1.09H97.3009V2.09ZM101.025 2.09H102.887V1.09H101.025V2.09ZM104.748 2.09H105.679V1.09H104.748V2.09ZM105.679 2.09C106.007 2.09 106.327 2.10294 106.639 2.1287L106.721 1.13209C106.381 1.10398 106.034 1.09 105.679 1.09V2.09ZM108.511 2.46334C108.818 2.55107 109.116 2.65418 109.405 2.77258L109.784 1.84741C109.461 1.71468 109.128 1.59951 108.786 1.50181L108.511 2.46334ZM109.405 2.77258C109.675 2.88341 109.934 3.00578 110.183 3.1396L110.657 2.25911C110.376 2.10829 110.086 1.9711 109.784 1.84741L109.405 2.77258ZM111.585 4.11326C111.798 4.30096 112.001 4.50133 112.193 4.71448L112.936 4.04552C112.719 3.80394 112.489 3.5764 112.247 3.36299L111.585 4.11326ZM112.205 4.7273C112.407 4.93685 112.597 5.15756 112.776 5.38952L113.568 4.77993C113.367 4.5184 113.152 4.2693 112.924 4.0327L112.205 4.7273ZM113.688 6.88637C113.813 7.14753 113.926 7.41929 114.03 7.70179L114.969 7.35821C114.855 7.04745 114.729 6.74688 114.591 6.45665L113.688 6.88637ZM114.03 7.70179C114.142 8.00831 114.24 8.32421 114.323 8.64961L115.292 8.40236C115.2 8.04518 115.093 7.69709 114.969 7.35821L114.03 7.70179ZM114.638 10.6199C114.662 10.9469 114.674 11.2819 114.674 11.625H115.674C115.674 11.2582 115.661 10.8985 115.635 10.5459L114.638 10.6199ZM114.674 11.625C114.674 12.1077 114.649 12.5744 114.598 13.0253L115.592 13.1371C115.647 12.647 115.674 12.1429 115.674 11.625H114.674ZM113.926 15.7132C113.75 16.1421 113.544 16.5531 113.306 16.9466L114.162 17.4634C114.427 17.0256 114.656 16.5684 114.851 16.0922L113.926 15.7132ZM113.303 16.9526C113.079 17.3353 112.825 17.6902 112.541 18.0178L113.296 18.6729C113.622 18.2978 113.911 17.8925 114.166 17.4574L113.303 16.9526ZM110.495 19.6493C110.12 19.8555 109.716 20.0398 109.284 20.2018L109.635 21.1382C110.109 20.9604 110.556 20.7566 110.976 20.526L110.495 19.6493ZM109.012 20.8936L109.526 21.9211L110.42 21.4739L109.907 20.4464L109.012 20.8936ZM110.553 23.9761L111.581 26.0311L112.475 25.5839L111.448 23.5289L110.553 23.9761ZM112.608 28.0861L113.636 30.1411L114.53 29.6939L113.503 27.6389L112.608 28.0861ZM114.663 32.1961L115.177 33.2236L116.072 32.7764L115.558 31.7489L114.663 32.1961ZM115.624 32.5H114.674V33.5H115.624V32.5ZM112.772 32.5H110.871V33.5H112.772V32.5ZM108.97 32.5H108.019V33.5H108.97V32.5ZM108.471 32.7849L108.013 31.8249L107.11 32.2551L107.568 33.2151L108.471 32.7849ZM107.098 29.9049L106.183 27.9849L105.28 28.4151L106.195 30.3351L107.098 29.9049ZM105.268 26.0649L104.353 24.1449L103.45 24.5751L104.365 26.4951L105.268 26.0649ZM103.438 22.2249L102.981 21.2649L102.078 21.6951L102.535 22.6551L103.438 22.2249ZM102.529 20.98H101.303V21.98H102.529V20.98ZM98.8506 20.98H97.6243V21.98H98.8506V20.98ZM97.1243 21.48V22.44H98.1243V21.48H97.1243ZM97.1243 24.36V26.28H98.1243V24.36H97.1243ZM97.1243 28.2V30.12H98.1243V28.2H97.1243ZM97.1243 32.04V33H98.1243V32.04H97.1243ZM104.824 15.22H103.924V16.22H104.824V15.22ZM102.124 15.22H100.324V16.22H102.124V15.22ZM98.5243 15.22H97.6243V16.22H98.5243V15.22ZM98.1243 15.72V14.6962H97.1243V15.72H98.1243ZM98.1243 12.6487V10.6012H97.1243V12.6487H98.1243ZM98.1243 8.55375V7.53H97.1243V8.55375H98.1243ZM97.6243 8.03H98.5243V7.03H97.6243V8.03ZM100.324 8.03H102.124V7.03H100.324V8.03ZM103.924 8.03H104.824V7.03H103.924V8.03ZM104.824 8.03C105.031 8.03 105.224 8.04208 105.404 8.06548L105.533 7.0738C105.306 7.04435 105.069 7.03 104.824 7.03V8.03ZM106.445 8.39269C106.6 8.48027 106.739 8.58363 106.865 8.70297L107.553 7.97702C107.367 7.80104 107.162 7.64945 106.938 7.52246L106.445 8.39269ZM106.886 8.72097C107.014 8.83041 107.125 8.95397 107.218 9.09243L108.048 8.53413C107.903 8.31926 107.731 8.1273 107.533 7.95903L106.886 8.72097ZM107.571 10.0718C107.596 10.2449 107.609 10.4324 107.609 10.635H108.609C108.609 10.3896 108.593 10.1538 108.561 9.9282L107.571 10.0718ZM107.609 10.635V11.13H108.609V10.635H107.609ZM107.609 12.12V12.615H108.609V12.12H107.609ZM107.609 12.615C107.609 12.82 107.596 13.0105 107.57 13.1872L108.56 13.3317C108.593 13.1024 108.609 12.8634 108.609 12.615H107.609ZM107.211 14.192C107.117 14.3361 107.005 14.4663 106.875 14.5834L107.544 15.3266C107.737 15.1525 107.906 14.9566 108.048 14.7397L107.211 14.192ZM106.876 14.5824C106.749 14.6958 106.608 14.7945 106.45 14.8782L106.919 15.7613C107.146 15.6409 107.354 15.4963 107.543 15.3276L106.876 14.5824ZM105.403 15.1868C105.223 15.2087 105.03 15.22 104.824 15.22V16.22C105.066 16.22 105.3 16.2067 105.524 16.1795L105.403 15.1868ZM97.6243 33V34H98.6243V33H97.6243ZM90.7843 33H89.7843V34H90.7843V33ZM90.7843 1.59V0.589999H89.7843V1.59H90.7843ZM109.594 2.31L109.974 1.38483L109.974 1.38483L109.594 2.31ZM112.564 4.38L111.821 5.04896L111.833 5.06199L111.845 5.07459L112.564 4.38ZM113.734 17.205L112.878 16.6881L112.871 16.7001L113.734 17.205ZM109.459 20.67L109.108 19.7337L108.068 20.1237L108.565 21.1172L109.459 20.67ZM115.624 33V34H117.242L116.519 32.5528L115.624 33ZM108.019 33L107.117 33.4302L107.388 34H108.019V33ZM102.529 21.48L103.432 21.0498L103.161 20.48H102.529V21.48ZM97.6243 21.48V20.48H96.6243V21.48H97.6243ZM107.209 14.955L107.876 15.7002L107.878 15.6983L107.209 14.955ZM107.209 8.34L106.522 9.06595L106.541 9.08448L106.562 9.10194L107.209 8.34ZM97.6243 7.53V6.53H96.6243V7.53H97.6243ZM97.6243 15.72H96.6243V16.72H97.6243V15.72ZM97.6243 32H96.7693V34H97.6243V32ZM95.0593 32H93.3493V34H95.0593V32ZM91.6393 32H90.7843V34H91.6393V32ZM91.7843 33V32.0184H89.7843V33H91.7843ZM91.7843 30.0553V28.0922H89.7843V30.0553H91.7843ZM91.7843 26.1291V24.1659H89.7843V26.1291H91.7843ZM91.7843 22.2028V20.2397H89.7843V22.2028H91.7843ZM91.7843 18.2766V16.3134H89.7843V18.2766H91.7843ZM91.7843 14.3503V12.3872H89.7843V14.3503H91.7843ZM91.7843 10.4241V8.46094H89.7843V10.4241H91.7843ZM91.7843 6.49781V4.53469H89.7843V6.49781H91.7843ZM91.7843 2.57156V1.59H89.7843V2.57156H91.7843ZM90.7843 2.59H91.7153V0.589999H90.7843V2.59ZM93.5771 2.59H95.439V0.589999H93.5771V2.59ZM97.3009 2.59H99.1628V0.589999H97.3009V2.59ZM101.025 2.59H102.887V0.589999H101.025V2.59ZM104.748 2.59H105.679V0.589999H104.748V2.59ZM105.679 2.59C105.994 2.59 106.3 2.60243 106.598 2.627L106.762 0.633789C106.408 0.604503 106.047 0.589999 105.679 0.589999V2.59ZM108.374 2.9441C108.663 3.02686 108.944 3.12394 109.215 3.23517L109.974 1.38483C109.633 1.24493 109.283 1.12373 108.923 1.02104L108.374 2.9441ZM109.215 3.23517C109.469 3.33957 109.713 3.45453 109.945 3.57984L110.894 1.81887C110.598 1.65955 110.291 1.51494 109.974 1.38483L109.215 3.23517ZM111.255 4.4884C111.453 4.66325 111.642 4.85003 111.821 5.04896L113.308 3.71103C113.077 3.45525 112.834 3.21411 112.577 2.98785L111.255 4.4884ZM111.845 5.07459C112.034 5.27063 112.212 5.47714 112.379 5.69431L113.965 4.47514C113.752 4.19882 113.525 3.93552 113.284 3.6854L111.845 5.07459ZM113.237 7.10124C113.354 7.34785 113.462 7.60521 113.56 7.87358L115.438 7.18642C115.32 6.86152 115.188 6.54656 115.043 6.24178L113.237 7.10124ZM113.56 7.87358C113.666 8.16392 113.759 8.46372 113.838 8.77323L115.776 8.27873C115.681 7.90567 115.568 7.54149 115.438 7.18642L113.56 7.87358ZM114.139 10.6568C114.163 10.9711 114.174 11.2937 114.174 11.625H116.174C116.174 11.2464 116.161 10.8744 116.134 10.509L114.139 10.6568ZM114.174 11.625C114.174 12.09 114.15 12.538 114.101 12.9693L116.089 13.1931C116.146 12.6834 116.174 12.1606 116.174 11.625H114.174ZM113.463 15.5237C113.297 15.9289 113.102 16.3169 112.878 16.6881L114.59 17.7219C114.868 17.2618 115.109 16.7816 115.314 16.2817L113.463 15.5237ZM112.871 16.7001C112.663 17.0567 112.427 17.3864 112.163 17.6902L113.674 19.0004C114.02 18.6016 114.328 18.171 114.598 17.7099L112.871 16.7001ZM110.255 19.211C109.901 19.4049 109.519 19.5794 109.108 19.7337L109.81 21.6063C110.305 21.4208 110.774 21.2071 111.217 20.9644L110.255 19.211ZM108.565 21.1172L109.079 22.1447L110.868 21.2503L110.354 20.2228L108.565 21.1172ZM110.106 24.1997L111.134 26.2547L112.923 25.3603L111.895 23.3053L110.106 24.1997ZM112.161 28.3097L113.189 30.3647L114.978 29.4703L113.95 27.4153L112.161 28.3097ZM114.216 32.4197L114.73 33.4472L116.519 32.5528L116.005 31.5253L114.216 32.4197ZM115.624 32H114.674V34H115.624V32ZM112.772 32H110.871V34H112.772V32ZM108.97 32H108.019V34H108.97V32ZM108.922 32.5698L108.465 31.6098L106.659 32.4702L107.117 33.4302L108.922 32.5698ZM107.55 29.6898L106.635 27.7698L104.829 28.6302L105.744 30.5502L107.55 29.6898ZM105.72 25.8498L104.805 23.9298L102.999 24.7902L103.914 26.7102L105.72 25.8498ZM103.89 22.0098L103.432 21.0498L101.627 21.9102L102.084 22.8702L103.89 22.0098ZM102.529 20.48H101.303V22.48H102.529V20.48ZM98.8506 20.48H97.6243V22.48H98.8506V20.48ZM96.6243 21.48V22.44H98.6243V21.48H96.6243ZM96.6243 24.36V26.28H98.6243V24.36H96.6243ZM96.6243 28.2V30.12H98.6243V28.2H96.6243ZM96.6243 32.04V33H98.6243V32.04H96.6243ZM104.824 14.72H103.924V16.72H104.824V14.72ZM102.124 14.72H100.324V16.72H102.124V14.72ZM98.5243 14.72H97.6243V16.72H98.5243V14.72ZM98.6243 15.72V14.6962H96.6243V15.72H98.6243ZM98.6243 12.6487V10.6012H96.6243V12.6487H98.6243ZM98.6243 8.55375V7.53H96.6243V8.55375H98.6243ZM97.6243 8.53H98.5243V6.53H97.6243V8.53ZM100.324 8.53H102.124V6.53H100.324V8.53ZM103.924 8.53H104.824V6.53H103.924V8.53ZM104.824 8.53C105.011 8.53 105.183 8.54095 105.34 8.56132L105.597 6.57796C105.347 6.54548 105.089 6.53 104.824 6.53V8.53ZM106.199 8.82781C106.319 8.89568 106.426 8.97492 106.522 9.06595L107.897 7.61405C107.681 7.40975 107.443 7.23405 107.184 7.08734L106.199 8.82781ZM106.562 9.10194C106.656 9.18197 106.736 9.27132 106.803 9.37158L108.462 8.25499C108.292 8.00191 108.09 7.77574 107.857 7.57806L106.562 9.10194ZM107.076 10.1436C107.098 10.2905 107.109 10.4538 107.109 10.635H109.109C109.109 10.3682 109.092 10.1082 109.056 9.8564L107.076 10.1436ZM107.109 10.635V11.13H109.109V10.635H107.109ZM107.109 12.12V12.615H109.109V12.12H107.109ZM107.109 12.615C107.109 12.7983 107.097 12.9645 107.075 13.115L109.054 13.4039C109.092 13.1484 109.109 12.885 109.109 12.615H107.109ZM106.793 13.9181C106.722 14.0258 106.639 14.1233 106.54 14.2117L107.878 15.6983C108.104 15.4955 108.3 15.2669 108.466 15.0136L106.793 13.9181ZM106.543 14.2098C106.447 14.2956 106.338 14.3713 106.215 14.4366L107.154 16.2029C107.415 16.064 107.657 15.8966 107.876 15.7002L106.543 14.2098ZM105.343 14.6904C105.184 14.7097 105.012 14.72 104.824 14.72V16.72C105.085 16.72 105.338 16.7057 105.584 16.6758L105.343 14.6904ZM8.415 78L7.92734 78.1104L8.01553 78.5H8.415V78ZM1.305 46.59V46.09H0.67917L0.817338 46.7004L1.305 46.59ZM8.055 46.59L8.54557 46.4933L8.4661 46.09H8.055V46.59ZM11.025 61.665L11.5162 61.5713L11.5156 61.5684L11.025 61.665ZM12.69 70.395L12.1989 70.4887L12.2763 70.895H12.69V70.395ZM12.825 70.395V70.895H13.2243L13.3126 70.5056L12.825 70.395ZM14.805 61.665L14.3177 61.553L14.3174 61.5544L14.805 61.665ZM18.27 46.59V46.09H17.8719L17.7827 46.478L18.27 46.59ZM25.74 46.59L26.227 46.4766L26.137 46.09H25.74V46.59ZM29.25 61.665L29.7382 61.5568L29.737 61.5516L29.25 61.665ZM31.185 70.395L30.6968 70.5032L30.7837 70.895H31.185V70.395ZM31.32 70.395V70.895H31.7337L31.8111 70.4887L31.32 70.395ZM32.985 61.665L32.4947 61.5669L32.4939 61.5713L32.985 61.665ZM36 46.59V46.09H35.5901L35.5097 46.4919L36 46.59ZM42.48 46.59L42.9671 46.703L43.1093 46.09H42.48V46.59ZM35.19 78V78.5H35.5872L35.6771 78.113L35.19 78ZM27.405 78L26.918 78.1134L27.008 78.5H27.405V78ZM23.445 60.99L22.9569 61.0985L22.958 61.1034L23.445 60.99ZM21.915 54.105L22.4031 53.9965L22.3161 53.605H21.915V54.105ZM21.78 54.105V53.605H21.3815L21.2926 53.9935L21.78 54.105ZM20.205 60.99L20.692 61.1034L20.6924 61.1015L20.205 60.99ZM16.245 78V78.5H16.642L16.732 78.1134L16.245 78ZM8.90266 77.8896L8.68048 76.908L7.70515 77.1288L7.92734 78.1104L8.90266 77.8896ZM8.2361 74.9449L7.79173 72.9818L6.8164 73.2026L7.26078 75.1657L8.2361 74.9449ZM7.34735 71.0187L6.90297 69.0555L5.92765 69.2763L6.37203 71.2394L7.34735 71.0187ZM6.4586 67.0924L6.01422 65.1293L5.0389 65.3501L5.48328 67.3132L6.4586 67.0924ZM5.56985 63.1662L5.12547 61.203L4.15015 61.4238L4.59453 63.3869L5.56985 63.1662ZM4.6811 59.2399L4.23672 57.2768L3.2614 57.4976L3.70578 59.4607L4.6811 59.2399ZM3.79235 55.3137L3.34798 53.3506L2.37265 53.5713L2.81703 55.5344L3.79235 55.3137ZM2.9036 51.3874L2.45923 49.4243L1.4839 49.6451L1.92828 51.6082L2.9036 51.3874ZM2.01485 47.4612L1.79266 46.4796L0.817338 46.7004L1.03953 47.682L2.01485 47.4612ZM1.305 47.09H2.14875V46.09H1.305V47.09ZM3.83625 47.09H5.52375V46.09H3.83625V47.09ZM7.21125 47.09H8.055V46.09H7.21125V47.09ZM7.56443 46.6866L7.75006 47.6288L8.7312 47.4355L8.54557 46.4933L7.56443 46.6866ZM8.12131 49.5132L8.49256 51.3976L9.4737 51.2043L9.10245 49.3199L8.12131 49.5132ZM8.86381 53.282L9.23506 55.1663L10.2162 54.973L9.84495 53.0887L8.86381 53.282ZM9.60631 57.0507L9.97756 58.9351L10.9587 58.7418L10.5874 56.8574L9.60631 57.0507ZM10.3488 60.8195L10.5344 61.7616L11.5156 61.5684L11.3299 60.6262L10.3488 60.8195ZM10.5339 61.7587L10.742 62.8499L11.7243 62.6626L11.5161 61.5713L10.5339 61.7587ZM11.1582 65.0324L11.5745 67.2149L12.5568 67.0276L12.1405 64.8451L11.1582 65.0324ZM11.9907 69.3974L12.1989 70.4887L13.1811 70.3013L12.973 69.2101L11.9907 69.3974ZM12.69 70.895H12.7238V69.895H12.69V70.895ZM12.7913 70.895H12.825V69.895H12.7913V70.895ZM13.3126 70.5056L13.5601 69.4143L12.5849 69.1932L12.3374 70.2844L13.3126 70.5056ZM14.0551 67.2318L14.5501 65.0493L13.5749 64.8282L13.0799 67.0107L14.0551 67.2318ZM15.0451 62.8668L15.2926 61.7756L14.3174 61.5544L14.0699 62.6457L15.0451 62.8668ZM15.2923 61.777L15.5089 60.8348L14.5343 60.6108L14.3177 61.553L15.2923 61.777ZM15.942 58.9504L16.3751 57.0661L15.4005 56.8421L14.9674 58.7264L15.942 58.9504ZM16.8082 55.1817L17.2414 53.2973L16.2668 53.0733L15.8336 54.9577L16.8082 55.1817ZM17.6745 51.4129L18.1076 49.5286L17.133 49.3046L16.6999 51.1889L17.6745 51.4129ZM18.5407 47.6442L18.7573 46.702L17.7827 46.478L17.5661 47.4202L18.5407 47.6442ZM18.27 47.09H19.2038V46.09H18.27V47.09ZM21.0713 47.09H22.9388V46.09H21.0713V47.09ZM24.8063 47.09H25.74V46.09H24.8063V47.09ZM25.253 46.7034L25.4724 47.6456L26.4464 47.4188L26.227 46.4766L25.253 46.7034ZM25.9112 49.5299L26.3499 51.4143L27.3239 51.1876L26.8851 49.3032L25.9112 49.5299ZM26.7887 53.2987L27.2274 55.1831L28.2014 54.9563L27.7626 53.0719L26.7887 53.2987ZM27.6662 57.0674L28.1049 58.9518L29.0789 58.7251L28.6401 56.8407L27.6662 57.0674ZM28.5437 60.8362L28.763 61.7784L29.737 61.5516L29.5176 60.6094L28.5437 60.8362ZM28.7618 61.7732L29.0037 62.8644L29.98 62.6481L29.7382 61.5568L28.7618 61.7732ZM29.4875 65.0469L29.9712 67.2294L30.9475 67.0131L30.4638 64.8306L29.4875 65.0469ZM30.455 69.4119L30.6968 70.5032L31.6732 70.2868L31.4313 69.1956L30.455 69.4119ZM31.185 70.895H31.2188V69.895H31.185V70.895ZM31.2863 70.895H31.32V69.895H31.2863V70.895ZM31.8111 70.4887L32.0193 69.3974L31.037 69.2101L30.8289 70.3013L31.8111 70.4887ZM32.4355 67.2149L32.8518 65.0324L31.8695 64.8451L31.4532 67.0276L32.4355 67.2149ZM33.268 62.8499L33.4761 61.7587L32.4939 61.5713L32.2857 62.6626L33.268 62.8499ZM33.4753 61.7631L33.6637 60.8209L32.6831 60.6248L32.4947 61.5669L33.4753 61.7631ZM34.0406 58.9365L34.4175 57.0521L33.4369 56.856L33.06 58.7404L34.0406 58.9365ZM34.7944 55.1677L35.1712 53.2834L34.1906 53.0873L33.8138 54.9716L34.7944 55.1677ZM35.5481 51.399L35.925 49.5146L34.9444 49.3185L34.5675 51.2029L35.5481 51.399ZM36.3019 47.6302L36.4903 46.6881L35.5097 46.4919L35.3213 47.4341L36.3019 47.6302ZM36 47.09H36.81V46.09H36V47.09ZM38.43 47.09H40.05V46.09H38.43V47.09ZM41.67 47.09H42.48V46.09H41.67V47.09ZM41.9929 46.477L41.7651 47.4585L42.7392 47.6846L42.9671 46.703L41.9929 46.477ZM41.3095 49.4216L40.8539 51.3848L41.828 51.6109L42.2836 49.6477L41.3095 49.4216ZM40.3983 53.3479L39.9426 55.311L40.9167 55.5371L41.3724 53.574L40.3983 53.3479ZM39.487 57.2741L39.0314 59.2373L40.0055 59.4634L40.4611 57.5002L39.487 57.2741ZM38.5758 61.2004L38.1201 63.1635L39.0942 63.3896L39.5499 61.4265L38.5758 61.2004ZM37.6645 65.1266L37.2089 67.0898L38.183 67.3158L38.6386 65.3527L37.6645 65.1266ZM36.7533 69.0529L36.2976 71.016L37.2717 71.2421L37.7274 69.279L36.7533 69.0529ZM35.842 72.9791L35.3864 74.9423L36.3605 75.1683L36.8161 73.2052L35.842 72.9791ZM34.9308 76.9054L34.7029 77.887L35.6771 78.113L35.9049 77.1315L34.9308 76.9054ZM35.19 77.5H34.2169V78.5H35.19V77.5ZM32.2706 77.5H30.3244V78.5H32.2706V77.5ZM28.3781 77.5H27.405V78.5H28.3781V77.5ZM27.892 77.8866L27.6445 76.8235L26.6705 77.0502L26.918 78.1134L27.892 77.8866ZM27.1495 74.6973L26.6545 72.571L25.6805 72.7977L26.1755 74.924L27.1495 74.6973ZM26.1595 70.4448L25.6645 68.3185L24.6905 68.5452L25.1855 70.6715L26.1595 70.4448ZM25.1695 66.1923L24.6745 64.066L23.7005 64.2927L24.1955 66.419L25.1695 66.1923ZM24.1795 61.9398L23.932 60.8766L22.958 61.1034L23.2055 62.1665L24.1795 61.9398ZM23.9331 60.8815L23.7418 60.0209L22.7657 60.2378L22.9569 61.0985L23.9331 60.8815ZM23.3593 58.2997L22.9768 56.5784L22.0007 56.7953L22.3832 58.5166L23.3593 58.2997ZM22.5943 54.8572L22.4031 53.9965L21.4269 54.2135L21.6182 55.0741L22.5943 54.8572ZM21.915 53.605H21.8813V54.605H21.915V53.605ZM21.8138 53.605H21.78V54.605H21.8138V53.605ZM21.2926 53.9935L21.0957 54.8541L22.0705 55.0771L22.2674 54.2165L21.2926 53.9935ZM20.702 56.5754L20.3082 58.2966L21.283 58.5196L21.6768 56.7984L20.702 56.5754ZM19.9145 60.0179L19.7176 60.8785L20.6924 61.1015L20.8893 60.2409L19.9145 60.0179ZM19.718 60.8766L19.4705 61.9398L20.4445 62.1665L20.692 61.1034L19.718 60.8766ZM18.9755 64.066L18.4805 66.1923L19.4545 66.419L19.9495 64.2927L18.9755 64.066ZM17.9855 68.3185L17.4905 70.4448L18.4645 70.6715L18.9595 68.5452L17.9855 68.3185ZM16.9955 72.571L16.5005 74.6973L17.4745 74.924L17.9695 72.7977L16.9955 72.571ZM16.0055 76.8235L15.758 77.8866L16.732 78.1134L16.9795 77.0502L16.0055 76.8235ZM16.245 77.5H15.2663V78.5H16.245V77.5ZM13.3088 77.5H11.3513V78.5H13.3088V77.5ZM9.39375 77.5H8.415V78.5H9.39375V77.5ZM8.415 78L7.43968 78.2208L7.61606 79H8.415V78ZM1.305 46.59V45.59H0.0533394L0.329675 46.8108L1.305 46.59ZM8.055 46.59L9.03614 46.3967L8.87721 45.59H8.055V46.59ZM11.025 61.665L12.0073 61.4777L12.0061 61.4717L11.025 61.665ZM12.69 70.395L11.7077 70.5823L11.8627 71.395H12.69V70.395ZM12.825 70.395V71.395H13.6236L13.8002 70.6162L12.825 70.395ZM14.805 61.665L13.8304 61.441L13.8298 61.4438L14.805 61.665ZM18.27 46.59V45.59H17.4738L17.2954 46.366L18.27 46.59ZM25.74 46.59L26.7139 46.3632L26.5339 45.59H25.74V46.59ZM29.25 61.665L30.2264 61.4486L30.2239 61.4382L29.25 61.665ZM31.185 70.395L30.2087 70.6114L30.3824 71.395H31.185V70.395ZM31.32 70.395V71.395H32.1473L32.3023 70.5823L31.32 70.395ZM32.985 61.665L32.0044 61.4689L32.0027 61.4777L32.985 61.665ZM36 46.59V45.59H35.1802L35.0194 46.3939L36 46.59ZM42.48 46.59L43.4541 46.8161L43.7387 45.59H42.48V46.59ZM35.19 78V79H35.9845L36.1641 78.2261L35.19 78ZM27.405 78L26.431 78.2267L26.6111 79H27.405V78ZM23.445 60.99L22.4688 61.2069L22.471 61.2167L23.445 60.99ZM21.915 54.105L22.8912 53.8881L22.7172 53.105H21.915V54.105ZM21.78 54.105V53.105H20.9829L20.8052 53.882L21.78 54.105ZM20.205 60.99L21.179 61.2167L21.1798 61.213L20.205 60.99ZM16.245 78V79H17.0389L17.219 78.2267L16.245 78ZM9.39032 77.7792L9.16814 76.7977L7.21749 77.2392L7.43968 78.2208L9.39032 77.7792ZM8.72376 74.8345L8.27939 72.8714L6.32874 73.313L6.77311 75.2761L8.72376 74.8345ZM7.83501 70.9083L7.39064 68.9452L5.43999 69.3867L5.88436 71.3498L7.83501 70.9083ZM6.94626 66.982L6.50189 65.0189L4.55124 65.4605L4.99561 67.4236L6.94626 66.982ZM6.05751 63.0558L5.61314 61.0927L3.66249 61.5342L4.10686 63.4973L6.05751 63.0558ZM5.16876 59.1295L4.72439 57.1664L2.77374 57.608L3.21811 59.5711L5.16876 59.1295ZM4.28001 55.2033L3.83564 53.2402L1.88499 53.6817L2.32936 55.6448L4.28001 55.2033ZM3.39126 51.277L2.94689 49.3139L0.996238 49.7555L1.44061 51.7186L3.39126 51.277ZM2.50251 47.3508L2.28032 46.3692L0.329675 46.8108L0.551864 47.7923L2.50251 47.3508ZM1.305 47.59H2.14875V45.59H1.305V47.59ZM3.83625 47.59H5.52375V45.59H3.83625V47.59ZM7.21125 47.59H8.055V45.59H7.21125V47.59ZM7.07386 46.7833L7.25949 47.7255L9.22177 47.3389L9.03614 46.3967L7.07386 46.7833ZM7.63074 49.6099L8.00199 51.4942L9.96427 51.1076L9.59302 49.2233L7.63074 49.6099ZM8.37324 53.3786L8.74449 55.263L10.7068 54.8764L10.3355 52.992L8.37324 53.3786ZM9.11574 57.1474L9.48699 59.0317L11.4493 58.6451L11.078 56.7608L9.11574 57.1474ZM9.85824 60.9161L10.0439 61.8583L12.0061 61.4717L11.8205 60.5295L9.85824 60.9161ZM10.0427 61.8523L10.2508 62.9436L12.2154 62.5689L12.0073 61.4777L10.0427 61.8523ZM10.6671 65.1261L11.0833 67.3086L13.0479 66.9339L12.6317 64.7514L10.6671 65.1261ZM11.4996 69.4911L11.7077 70.5823L13.6723 70.2077L13.4642 69.1164L11.4996 69.4911ZM12.69 71.395H12.7238V69.395H12.69V71.395ZM12.7913 71.395H12.825V69.395H12.7913V71.395ZM13.8002 70.6162L14.0477 69.5249L12.0973 69.0826L11.8498 70.1738L13.8002 70.6162ZM14.5427 67.3424L15.0377 65.1599L13.0873 64.7176L12.5923 66.9001L14.5427 67.3424ZM15.5327 62.9774L15.7802 61.8862L13.8298 61.4438L13.5823 62.5351L15.5327 62.9774ZM15.7796 61.889L15.9962 60.9468L14.047 60.4988L13.8304 61.441L15.7796 61.889ZM16.4293 59.0624L16.8624 57.1781L14.9132 56.7301L14.4801 58.6144L16.4293 59.0624ZM17.2955 55.2937L17.7287 53.4093L15.7795 52.9613L15.3464 54.8457L17.2955 55.2937ZM18.1618 51.5249L18.5949 49.6406L16.6457 49.1926L16.2126 51.0769L18.1618 51.5249ZM19.028 47.7562L19.2446 46.814L17.2954 46.366L17.0789 47.3082L19.028 47.7562ZM18.27 47.59H19.2038V45.59H18.27V47.59ZM21.0713 47.59H22.9388V45.59H21.0713V47.59ZM24.8063 47.59H25.74V45.59H24.8063V47.59ZM24.7661 46.8168L24.9854 47.759L26.9333 47.3054L26.7139 46.3632L24.7661 46.8168ZM25.4242 49.6433L25.8629 51.5277L27.8108 51.0742L27.3721 49.1898L25.4242 49.6433ZM26.3017 53.4121L26.7404 55.2965L28.6883 54.8429L28.2496 52.9585L26.3017 53.4121ZM27.1792 57.1808L27.6179 59.0652L29.5658 58.6117L29.1271 56.7273L27.1792 57.1808ZM28.0567 60.9496L28.2761 61.8918L30.2239 61.4382L30.0046 60.496L28.0567 60.9496ZM28.2737 61.8814L28.5156 62.9726L30.4682 62.5399L30.2263 61.4486L28.2737 61.8814ZM28.9993 65.1551L29.4831 67.3376L31.4357 66.9049L30.9519 64.7224L28.9993 65.1551ZM29.9668 69.5201L30.2087 70.6114L32.1613 70.1786L31.9194 69.0874L29.9668 69.5201ZM31.185 71.395H31.2188V69.395H31.185V71.395ZM31.2863 71.395H31.32V69.395H31.2863V71.395ZM32.3023 70.5823L32.5104 69.4911L30.5458 69.1164L30.3377 70.2077L32.3023 70.5823ZM32.9267 67.3086L33.3429 65.1261L31.3783 64.7514L30.9621 66.9339L32.9267 67.3086ZM33.7592 62.9436L33.9673 61.8523L32.0027 61.4777L31.7946 62.5689L33.7592 62.9436ZM33.9656 61.8611L34.154 60.9189L32.1929 60.5267L32.0044 61.4689L33.9656 61.8611ZM34.5309 59.0346L34.9078 57.1502L32.9466 56.7579L32.5697 58.6423L34.5309 59.0346ZM35.2846 55.2658L35.6615 53.3814L33.7004 52.9892L33.3235 54.8736L35.2846 55.2658ZM36.0384 51.4971L36.4153 49.6127L34.4541 49.2204L34.0772 51.1048L36.0384 51.4971ZM36.7921 47.7283L36.9806 46.7861L35.0194 46.3939L34.831 47.3361L36.7921 47.7283ZM36 47.59H36.81V45.59H36V47.59ZM38.43 47.59H40.05V45.59H38.43V47.59ZM41.67 47.59H42.48V45.59H41.67V47.59ZM41.5059 46.3639L41.2781 47.3455L43.2263 47.7976L43.4541 46.8161L41.5059 46.3639ZM40.8225 49.3086L40.3668 51.2717L42.315 51.7239L42.7707 49.7608L40.8225 49.3086ZM39.9112 53.2349L39.4556 55.198L41.4038 55.6501L41.8594 53.687L39.9112 53.2349ZM39 57.1611L38.5443 59.1242L40.4925 59.5764L40.9482 57.6133L39 57.1611ZM38.0887 61.0874L37.6331 63.0505L39.5813 63.5026L40.0369 61.5395L38.0887 61.0874ZM37.1775 65.0136L36.7218 66.9767L38.67 67.4289L39.1257 65.4658L37.1775 65.0136ZM36.2662 68.9399L35.8106 70.903L37.7588 71.3551L38.2144 69.392L36.2662 68.9399ZM35.355 72.8661L34.8993 74.8292L36.8475 75.2814L37.3032 73.3183L35.355 72.8661ZM34.4437 76.7923L34.2159 77.7739L36.1641 78.2261L36.3919 77.2445L34.4437 76.7923ZM35.19 77H34.2169V79H35.19V77ZM32.2706 77H30.3244V79H32.2706V77ZM28.3781 77H27.405V79H28.3781V77ZM28.379 77.7733L28.1315 76.7101L26.1835 77.1636L26.431 78.2267L28.379 77.7733ZM27.6365 74.5839L27.1415 72.4576L25.1935 72.9111L25.6885 75.0374L27.6365 74.5839ZM26.6465 70.3314L26.1515 68.2051L24.2035 68.6586L24.6985 70.7849L26.6465 70.3314ZM25.6565 66.0789L25.1615 63.9526L23.2135 64.4061L23.7085 66.5324L25.6565 66.0789ZM24.6665 61.8264L24.419 60.7633L22.471 61.2167L22.7185 62.2799L24.6665 61.8264ZM24.4212 60.7731L24.2299 59.9124L22.2776 60.3463L22.4688 61.2069L24.4212 60.7731ZM23.8474 58.1912L23.4649 56.4699L21.5126 56.9038L21.8951 58.6251L23.8474 58.1912ZM23.0824 54.7487L22.8912 53.8881L20.9388 54.3219L21.1301 55.1826L23.0824 54.7487ZM21.915 53.105H21.8813V55.105H21.915V53.105ZM21.8138 53.105H21.78V55.105H21.8138V53.105ZM20.8052 53.882L20.6083 54.7426L22.5579 55.1886L22.7548 54.328L20.8052 53.882ZM20.2146 56.4639L19.8208 58.1851L21.7704 58.6311L22.1642 56.9099L20.2146 56.4639ZM19.4271 59.9064L19.2302 60.767L21.1798 61.213L21.3767 60.3524L19.4271 59.9064ZM19.231 60.7633L18.9835 61.8264L20.9315 62.2799L21.179 61.2167L19.231 60.7633ZM18.4885 63.9526L17.9935 66.0789L19.9415 66.5324L20.4365 64.4061L18.4885 63.9526ZM17.4985 68.2051L17.0035 70.3314L18.9515 70.7849L19.4465 68.6586L17.4985 68.2051ZM16.5085 72.4576L16.0135 74.5839L17.9615 75.0374L18.4565 72.9111L16.5085 72.4576ZM15.5185 76.7101L15.271 77.7733L17.219 78.2267L17.4665 77.1636L15.5185 76.7101ZM16.245 77H15.2663V79H16.245V77ZM13.3088 77H11.3513V79H13.3088V77ZM9.39375 77H8.415V79H9.39375V77ZM47.2345 78H46.7345V78.5H47.2345V78ZM47.2345 46.59V46.09H46.7345V46.59H47.2345ZM68.6095 46.59H69.1095V46.09H68.6095V46.59ZM68.6095 52.665V53.165H69.1095V52.665H68.6095ZM54.0745 52.665V52.165H53.5745V52.665H54.0745ZM54.0745 59.1H53.5745V59.6H54.0745V59.1ZM66.5395 59.1H67.0395V58.6H66.5395V59.1ZM66.5395 65.13V65.63H67.0395V65.13H66.5395ZM54.0745 65.13V64.63H53.5745V65.13H54.0745ZM54.0745 71.925H53.5745V72.425H54.0745V71.925ZM68.6095 71.925H69.1095V71.425H68.6095V71.925ZM68.6095 78V78.5H69.1095V78H68.6095ZM47.7345 78V77.0184H46.7345V78H47.7345ZM47.7345 75.0553V73.0922H46.7345V75.0553H47.7345ZM47.7345 71.1291V69.1659H46.7345V71.1291H47.7345ZM47.7345 67.2028V65.2397H46.7345V67.2028H47.7345ZM47.7345 63.2766V61.3134H46.7345V63.2766H47.7345ZM47.7345 59.3503V57.3872H46.7345V59.3503H47.7345ZM47.7345 55.4241V53.4609H46.7345V55.4241H47.7345ZM47.7345 51.4978V49.5347H46.7345V51.4978H47.7345ZM47.7345 47.5716V46.59H46.7345V47.5716H47.7345ZM47.2345 47.09H48.3033V46.09H47.2345V47.09ZM50.4408 47.09H52.5783V46.09H50.4408V47.09ZM54.7158 47.09H56.8533V46.09H54.7158V47.09ZM58.9908 47.09H61.1283V46.09H58.9908V47.09ZM63.2658 47.09H65.4033V46.09H63.2658V47.09ZM67.5408 47.09H68.6095V46.09H67.5408V47.09ZM68.1095 46.59V47.3494H69.1095V46.59H68.1095ZM68.1095 48.8681V50.3869H69.1095V48.8681H68.1095ZM68.1095 51.9056V52.665H69.1095V51.9056H68.1095ZM68.6095 52.165H67.7011V53.165H68.6095V52.165ZM65.8842 52.165H64.0673V53.165H65.8842V52.165ZM62.2505 52.165H60.4336V53.165H62.2505V52.165ZM58.6167 52.165H56.7998V53.165H58.6167V52.165ZM54.983 52.165H54.0745V53.165H54.983V52.165ZM53.5745 52.665V53.4694H54.5745V52.665H53.5745ZM53.5745 55.0781V56.6869H54.5745V55.0781H53.5745ZM53.5745 58.2956V59.1H54.5745V58.2956H53.5745ZM54.0745 59.6H55.1133V58.6H54.0745V59.6ZM57.1908 59.6H59.2683V58.6H57.1908V59.6ZM61.3458 59.6H63.4233V58.6H61.3458V59.6ZM65.5008 59.6H66.5395V58.6H65.5008V59.6ZM66.0395 59.1V59.8537H67.0395V59.1H66.0395ZM66.0395 61.3612V62.8687H67.0395V61.3612H66.0395ZM66.0395 64.3762V65.13H67.0395V64.3762H66.0395ZM66.5395 64.63H65.5008V65.63H66.5395V64.63ZM63.4233 64.63H61.3458V65.63H63.4233V64.63ZM59.2683 64.63H57.1908V65.63H59.2683V64.63ZM55.1133 64.63H54.0745V65.63H55.1133V64.63ZM53.5745 65.13V65.9794H54.5745V65.13H53.5745ZM53.5745 67.6781V69.3769H54.5745V67.6781H53.5745ZM53.5745 71.0756V71.925H54.5745V71.0756H53.5745ZM54.0745 72.425H54.983V71.425H54.0745V72.425ZM56.7998 72.425H58.6167V71.425H56.7998V72.425ZM60.4336 72.425H62.2505V71.425H60.4336V72.425ZM64.0673 72.425H65.8842V71.425H64.0673V72.425ZM67.7011 72.425H68.6095V71.425H67.7011V72.425ZM68.1095 71.925V72.6844H69.1095V71.925H68.1095ZM68.1095 74.2031V75.7219H69.1095V74.2031H68.1095ZM68.1095 77.2406V78H69.1095V77.2406H68.1095ZM68.6095 77.5H67.5408V78.5H68.6095V77.5ZM65.4033 77.5H63.2658V78.5H65.4033V77.5ZM61.1283 77.5H58.9908V78.5H61.1283V77.5ZM56.8533 77.5H54.7158V78.5H56.8533V77.5ZM52.5783 77.5H50.4408V78.5H52.5783V77.5ZM48.3033 77.5H47.2345V78.5H48.3033V77.5ZM47.2345 78H46.2345V79H47.2345V78ZM47.2345 46.59V45.59H46.2345V46.59H47.2345ZM68.6095 46.59H69.6095V45.59H68.6095V46.59ZM68.6095 52.665V53.665H69.6095V52.665H68.6095ZM54.0745 52.665V51.665H53.0745V52.665H54.0745ZM54.0745 59.1H53.0745V60.1H54.0745V59.1ZM66.5395 59.1H67.5395V58.1H66.5395V59.1ZM66.5395 65.13V66.13H67.5395V65.13H66.5395ZM54.0745 65.13V64.13H53.0745V65.13H54.0745ZM54.0745 71.925H53.0745V72.925H54.0745V71.925ZM68.6095 71.925H69.6095V70.925H68.6095V71.925ZM68.6095 78V79H69.6095V78H68.6095ZM48.2345 78V77.0184H46.2345V78H48.2345ZM48.2345 75.0553V73.0922H46.2345V75.0553H48.2345ZM48.2345 71.1291V69.1659H46.2345V71.1291H48.2345ZM48.2345 67.2028V65.2397H46.2345V67.2028H48.2345ZM48.2345 63.2766V61.3134H46.2345V63.2766H48.2345ZM48.2345 59.3503V57.3872H46.2345V59.3503H48.2345ZM48.2345 55.4241V53.4609H46.2345V55.4241H48.2345ZM48.2345 51.4978V49.5347H46.2345V51.4978H48.2345ZM48.2345 47.5716V46.59H46.2345V47.5716H48.2345ZM47.2345 47.59H48.3033V45.59H47.2345V47.59ZM50.4408 47.59H52.5783V45.59H50.4408V47.59ZM54.7158 47.59H56.8533V45.59H54.7158V47.59ZM58.9908 47.59H61.1283V45.59H58.9908V47.59ZM63.2658 47.59H65.4033V45.59H63.2658V47.59ZM67.5408 47.59H68.6095V45.59H67.5408V47.59ZM67.6095 46.59V47.3494H69.6095V46.59H67.6095ZM67.6095 48.8681V50.3869H69.6095V48.8681H67.6095ZM67.6095 51.9056V52.665H69.6095V51.9056H67.6095ZM68.6095 51.665H67.7011V53.665H68.6095V51.665ZM65.8842 51.665H64.0673V53.665H65.8842V51.665ZM62.2505 51.665H60.4336V53.665H62.2505V51.665ZM58.6167 51.665H56.7998V53.665H58.6167V51.665ZM54.983 51.665H54.0745V53.665H54.983V51.665ZM53.0745 52.665V53.4694H55.0745V52.665H53.0745ZM53.0745 55.0781V56.6869H55.0745V55.0781H53.0745ZM53.0745 58.2956V59.1H55.0745V58.2956H53.0745ZM54.0745 60.1H55.1133V58.1H54.0745V60.1ZM57.1908 60.1H59.2683V58.1H57.1908V60.1ZM61.3458 60.1H63.4233V58.1H61.3458V60.1ZM65.5008 60.1H66.5395V58.1H65.5008V60.1ZM65.5395 59.1V59.8537H67.5395V59.1H65.5395ZM65.5395 61.3612V62.8687H67.5395V61.3612H65.5395ZM65.5395 64.3762V65.13H67.5395V64.3762H65.5395ZM66.5395 64.13H65.5008V66.13H66.5395V64.13ZM63.4233 64.13H61.3458V66.13H63.4233V64.13ZM59.2683 64.13H57.1908V66.13H59.2683V64.13ZM55.1133 64.13H54.0745V66.13H55.1133V64.13ZM53.0745 65.13V65.9794H55.0745V65.13H53.0745ZM53.0745 67.6781V69.3769H55.0745V67.6781H53.0745ZM53.0745 71.0756V71.925H55.0745V71.0756H53.0745ZM54.0745 72.925H54.983V70.925H54.0745V72.925ZM56.7998 72.925H58.6167V70.925H56.7998V72.925ZM60.4336 72.925H62.2505V70.925H60.4336V72.925ZM64.0673 72.925H65.8842V70.925H64.0673V72.925ZM67.7011 72.925H68.6095V70.925H67.7011V72.925ZM67.6095 71.925V72.6844H69.6095V71.925H67.6095ZM67.6095 74.2031V75.7219H69.6095V74.2031H67.6095ZM67.6095 77.2406V78H69.6095V77.2406H67.6095ZM68.6095 77H67.5408V79H68.6095V77ZM65.4033 77H63.2658V79H65.4033V77ZM61.1283 77H58.9908V79H61.1283V77ZM56.8533 77H54.7158V79H56.8533V77ZM52.5783 77H50.4408V79H52.5783V77ZM48.3033 77H47.2345V79H48.3033V77ZM94.5035 73.005H95.0035V72.505H94.5035V73.005ZM94.2785 73.005V72.505H93.8483L93.7841 72.9304L94.2785 73.005ZM91.8485 76.965L91.5458 76.5671L91.8485 76.965ZM81.1835 77.505L80.9813 77.9623L80.9813 77.9623L81.1835 77.505ZM77.0885 74.445L76.7107 74.7725L76.7107 74.7725L77.0885 74.445ZM74.3435 69.405L74.8186 69.249L74.8186 69.249L74.3435 69.405ZM74.3885 55.41L74.8622 55.5702L74.8622 55.5702L74.3885 55.41ZM77.2685 50.28L76.8992 49.9428L76.8953 49.9473L77.2685 50.28ZM81.7685 47.13L81.9597 47.592L81.9597 47.592L81.7685 47.13ZM94.8635 47.895L94.6053 48.3232L94.61 48.326L94.8635 47.895ZM99.6785 53.34L99.927 53.7739L100.331 53.5426L100.129 53.1231L99.6785 53.34ZM94.0985 56.535L93.6327 56.7168L93.8436 57.2571L94.347 56.9689L94.0985 56.535ZM91.8485 53.43L91.524 53.8105L91.5307 53.816L91.8485 53.43ZM82.4885 53.97L82.8378 54.3278L82.8378 54.3278L82.4885 53.97ZM82.4885 70.62L82.1349 70.9736L82.1392 70.9778L82.4885 70.62ZM89.9585 72.195L90.0752 72.6812L90.0843 72.679L90.0933 72.6765L89.9585 72.195ZM91.9385 71.295L92.2209 71.7077L92.2281 71.7027L92.2351 71.6975L91.9385 71.295ZM93.2435 69.81L92.8108 69.5595L92.8058 69.5682L92.8011 69.5771L93.2435 69.81ZM93.7385 66.21H94.2385V65.71H93.7385V66.21ZM87.8885 66.21H87.3885V66.71H87.8885V66.21ZM87.8885 60.495V59.995H87.3885V60.495H87.8885ZM100.264 60.495H100.764V59.995H100.264V60.495ZM100.264 78V78.5H100.764V78H100.264ZM94.5035 78H94.0035V78.5H94.5035V78ZM94.5035 72.505H94.4473V73.505H94.5035V72.505ZM94.3348 72.505H94.2785V73.505H94.3348V72.505ZM93.7841 72.9304C93.7282 73.3009 93.639 73.6534 93.5172 73.9886L94.457 74.3302C94.6024 73.9303 94.7075 73.5132 94.7729 73.0796L93.7841 72.9304ZM92.372 75.8277C92.1285 76.0864 91.8534 76.333 91.5458 76.5671L92.1513 77.3629C92.4997 77.0978 92.8164 76.8146 93.1002 76.513L92.372 75.8277ZM91.5458 76.5671C91.1905 76.8374 90.7976 77.0714 90.3659 77.2684L90.781 78.1781C91.2769 77.9519 91.7341 77.6804 92.1513 77.3629L91.5458 76.5671ZM87.6544 77.9675C87.2026 78.0157 86.7258 78.04 86.2235 78.04V79.04C86.7579 79.04 87.2703 79.0141 87.7605 78.9618L87.6544 77.9675ZM86.2235 78.04C85.8007 78.04 85.3854 78.0203 84.9777 77.9809L84.8816 78.9763C85.3222 79.0188 85.7695 79.04 86.2235 79.04V78.04ZM82.5461 77.4872C82.1519 77.362 81.7652 77.2156 81.3858 77.0477L80.9813 77.9623C81.3938 78.1447 81.8145 78.3041 82.2433 78.4403L82.5461 77.4872ZM81.3858 77.0477C81.0084 76.8808 80.6432 76.6938 80.2901 76.4867L79.7842 77.3494C80.1704 77.5758 80.5694 77.7801 80.9813 77.9623L81.3858 77.0477ZM78.3225 75.0102C78.0265 74.732 77.7411 74.4345 77.4664 74.1175L76.7107 74.7725C77.0071 75.1145 77.3161 75.4367 77.6377 75.7389L78.3225 75.0102ZM77.4664 74.1175C77.1689 73.7743 76.8881 73.4082 76.6241 73.0189L75.7965 73.5803C76.082 74.0011 76.3867 74.3986 76.7107 74.7725L77.4664 74.1175ZM75.3083 70.5648C75.1319 70.1446 74.9686 69.706 74.8186 69.249L73.8685 69.561C74.0265 70.0421 74.199 70.5058 74.3862 70.9518L75.3083 70.5648ZM74.8186 69.249C74.7306 68.9811 74.6486 68.7072 74.5725 68.4271L73.6075 68.6891C73.688 68.9855 73.7749 69.2762 73.8685 69.561L74.8186 69.249ZM74.2007 66.7458C74.1045 66.1948 74.0282 65.6235 73.9719 65.0319L72.9764 65.1266C73.035 65.7426 73.1147 66.3397 73.2156 66.9178L74.2007 66.7458ZM73.866 63.2998C73.8577 63.0141 73.8535 62.7241 73.8535 62.43H72.8535C72.8535 62.7335 72.8578 63.0332 72.8664 63.3289L73.866 63.2998ZM73.8535 62.43C73.8535 62.1341 73.8579 61.8422 73.8667 61.5543L72.8672 61.5237C72.8581 61.8221 72.8535 62.1241 72.8535 62.43H73.8535ZM73.9785 59.8109C74.0378 59.2167 74.118 58.6419 74.219 58.0865L73.2351 57.9076C73.129 58.4908 73.0452 59.0922 72.9835 59.7117L73.9785 59.8109ZM74.6069 56.3962C74.6859 56.1152 74.771 55.8398 74.8622 55.5702L73.9149 55.2498C73.818 55.5363 73.7277 55.8283 73.6442 56.1258L74.6069 56.3962ZM74.8622 55.5702C75.0199 55.1037 75.1919 54.6559 75.3779 54.2266L74.4603 53.829C74.2628 54.2848 74.0811 54.7584 73.9149 55.2498L74.8622 55.5702ZM76.7609 51.728C77.0369 51.3335 77.3306 50.9618 77.6418 50.6127L76.8953 49.9473C76.5573 50.3264 76.2395 50.7289 75.9416 51.1547L76.7609 51.728ZM77.6378 50.6171C77.9398 50.2864 78.2558 49.9757 78.5858 49.6849L77.9247 48.9346C77.5671 49.2497 77.2253 49.5858 76.8993 49.9429L77.6378 50.6171ZM80.7588 48.1649C81.1445 47.9547 81.5447 47.7637 81.9597 47.592L81.5773 46.668C81.1302 46.853 80.6978 47.0593 80.2802 47.2868L80.7588 48.1649ZM81.9597 47.592C82.3963 47.4114 82.846 47.2541 83.3091 47.1203L83.0315 46.1596C82.5335 46.3035 82.0487 46.4729 81.5773 46.668L81.9597 47.592ZM86.1311 46.6091C86.6004 46.5698 87.0812 46.55 87.5735 46.55V45.55C87.0544 45.55 86.5457 45.5708 86.0475 45.6126L86.1311 46.6091ZM87.5735 46.55C87.8875 46.55 88.1962 46.5578 88.4995 46.5734L88.5509 45.5748C88.2299 45.5582 87.9041 45.55 87.5735 45.55V46.55ZM90.3323 46.7732C90.9519 46.879 91.5458 47.0223 92.1145 47.2026L92.4168 46.2494C91.8022 46.0545 91.1634 45.9006 90.5007 45.7874L90.3323 46.7732ZM93.8067 47.8848C94.0796 48.0206 94.3458 48.1667 94.6053 48.3232L95.1217 47.4668C94.8389 47.2963 94.549 47.1372 94.2521 46.9895L93.8067 47.8848ZM94.61 48.326C94.8637 48.4752 95.1103 48.6344 95.3499 48.8035L95.9266 47.9865C95.6644 47.8014 95.3945 47.6273 95.117 47.464L94.61 48.326ZM96.6992 49.9341C97.1106 50.3403 97.4965 50.7852 97.8564 51.269L98.6587 50.6721C98.2696 50.1491 97.8507 49.6657 97.4017 49.2225L96.6992 49.9341ZM98.8176 52.7636C98.9598 53.0197 99.0967 53.2841 99.228 53.5569L100.129 53.1231C99.9895 52.8333 99.8437 52.5516 99.6918 52.278L98.8176 52.7636ZM99.4301 52.9061L98.7326 53.3055L99.2295 54.1733L99.927 53.7739L99.4301 52.9061ZM97.3376 54.1042L95.9426 54.903L96.4395 55.7708L97.8345 54.972L97.3376 54.1042ZM94.5476 55.7017L93.8501 56.1011L94.347 56.9689L95.0445 56.5695L94.5476 55.7017ZM94.5643 56.3532C94.4379 56.0293 94.2936 55.7174 94.1312 55.4177L93.2519 55.894C93.3941 56.1564 93.521 56.4306 93.6327 56.7168L94.5643 56.3532ZM92.9204 53.7469C92.6862 53.4993 92.4348 53.2651 92.1664 53.044L91.5307 53.816C91.7679 54.0113 91.9889 54.2174 92.194 54.4341L92.9204 53.7469ZM92.173 53.0496C91.8562 52.7794 91.5058 52.5483 91.1231 52.3558L90.6738 53.2492C90.9878 53.4071 91.2707 53.5943 91.524 53.8104L92.173 53.0496ZM88.7695 51.6903C88.3884 51.6466 87.9896 51.625 87.5735 51.625V52.625C87.9553 52.625 88.3158 52.6448 88.6556 52.6838L88.7695 51.6903ZM87.5735 51.625C87.0679 51.625 86.5826 51.6582 86.1179 51.7253L86.261 52.715C86.6742 52.6553 87.1115 52.625 87.5735 52.625V51.625ZM83.3239 52.6934C82.8955 52.9531 82.5005 53.2596 82.1392 53.6122L82.8378 54.3278C83.145 54.0278 83.4797 53.7683 83.8423 53.5485L83.3239 52.6934ZM82.1392 53.6122C81.9348 53.8118 81.7459 54.0277 81.5725 54.2598L82.3734 54.8585C82.5164 54.6672 82.6712 54.4904 82.8378 54.3278L82.1392 53.6122ZM80.755 55.745C80.5612 56.2363 80.4117 56.7696 80.3046 57.3433L81.2877 57.5267C81.3845 57.0079 81.5176 56.5369 81.6852 56.1121L80.755 55.745ZM80.1187 58.9656C80.1052 59.2285 80.0985 59.4984 80.0985 59.775H81.0985C81.0985 59.5145 81.1048 59.2618 81.1174 59.0169L80.1187 58.9656ZM80.0985 59.775V61.035H81.0985V59.775H80.0985ZM80.0985 63.555V64.815H81.0985V63.555H80.0985ZM80.0985 64.815C80.0985 65.0915 80.1054 65.3613 80.1192 65.6244L81.1178 65.5721C81.105 65.3273 81.0985 65.075 81.0985 64.815H80.0985ZM80.3082 67.246C80.4164 67.8175 80.5673 68.3499 80.7625 68.8418L81.692 68.473C81.5228 68.0468 81.3885 67.5763 81.2908 67.06L80.3082 67.246ZM81.5762 70.324C81.7475 70.5557 81.9337 70.7723 82.135 70.9736L82.8421 70.2664C82.6765 70.1009 82.5226 69.922 82.3804 69.7296L81.5762 70.324ZM82.1392 70.9778C82.5005 71.3304 82.8955 71.6369 83.3239 71.8966L83.8423 71.0415C83.4797 70.8217 83.145 70.5622 82.8378 70.2622L82.1392 70.9778ZM86.1179 72.8647C86.5826 72.9318 87.0679 72.965 87.5735 72.965V71.965C87.1115 71.965 86.6742 71.9347 86.261 71.875L86.1179 72.8647ZM87.5735 72.965C87.7852 72.965 87.9944 72.9595 88.2013 72.9485L88.1482 71.9499C87.9595 71.96 87.7679 71.965 87.5735 71.965V72.965ZM89.4547 72.809C89.6644 72.7727 89.8712 72.7301 90.0752 72.6812L89.8418 71.7088C89.6591 71.7527 89.4733 71.7909 89.2844 71.8236L89.4547 72.809ZM90.0933 72.6765C90.2828 72.6234 90.4675 72.5648 90.6473 72.5005L90.3106 71.5589C90.1537 71.615 89.9914 71.6666 89.8237 71.7135L90.0933 72.6765ZM91.717 72.0189C91.8911 71.922 92.0591 71.8183 92.2209 71.7077L91.6562 70.8823C91.5205 70.9752 91.3788 71.0627 91.231 71.1449L91.717 72.0189ZM92.2351 71.6975C92.3844 71.5875 92.5261 71.4722 92.6598 71.3515L91.99 70.609C91.8816 70.7068 91.7657 70.8013 91.6419 70.8925L92.2351 71.6975ZM93.3952 70.5212C93.5021 70.3675 93.5991 70.208 93.686 70.0429L92.8011 69.5771C92.7334 69.7057 92.6578 69.8301 92.5742 69.9502L93.3952 70.5212ZM93.6762 70.0605C93.7768 69.8868 93.8638 69.705 93.9372 69.5157L93.0048 69.1542C92.9497 69.2963 92.885 69.4313 92.8108 69.5595L93.6762 70.0605ZM94.2091 68.3636C94.2288 68.1754 94.2385 67.9825 94.2385 67.785H93.2385C93.2385 67.9498 93.2304 68.1078 93.2145 68.2593L94.2091 68.3636ZM94.2385 67.785V67.3912H93.2385V67.785H94.2385ZM94.2385 66.6037V66.21H93.2385V66.6037H94.2385ZM93.7385 65.71H92.276V66.71H93.7385V65.71ZM89.351 65.71H87.8885V66.71H89.351V65.71ZM88.3885 66.21V64.7812H87.3885V66.21H88.3885ZM88.3885 61.9237V60.495H87.3885V61.9237H88.3885ZM87.8885 60.995H88.9198V59.995H87.8885V60.995ZM90.9823 60.995H93.0448V59.995H90.9823V60.995ZM95.1073 60.995H97.1698V59.995H95.1073V60.995ZM99.2323 60.995H100.264V59.995H99.2323V60.995ZM99.7635 60.495V61.5891H100.764V60.495H99.7635ZM99.7635 63.7772V65.9653H100.764V63.7772H99.7635ZM99.7635 68.1534V70.3416H100.764V68.1534H99.7635ZM99.7635 72.5297V74.7178H100.764V72.5297H99.7635ZM99.7635 76.9059V78H100.764V76.9059H99.7635ZM100.264 77.5H98.8235V78.5H100.264V77.5ZM95.9435 77.5H94.5035V78.5H95.9435V77.5ZM95.0035 78V76.7512H94.0035V78H95.0035ZM95.0035 74.2537V73.005H94.0035V74.2537H95.0035ZM94.5035 73.005H95.5035V72.005H94.5035V73.005ZM94.2785 73.005V72.005H93.4181L93.2897 72.8557L94.2785 73.005ZM91.8485 76.965L91.243 76.1692L91.8485 76.965ZM81.1835 77.505L80.779 78.4195L80.779 78.4195L81.1835 77.505ZM77.0885 74.445L76.3328 75.0999L76.3328 75.0999L77.0885 74.445ZM74.3435 69.405L75.2936 69.093L75.2936 69.093L74.3435 69.405ZM74.3885 55.41L75.3358 55.7304L75.3358 55.7304L74.3885 55.41ZM77.2685 50.28L76.53 49.6057L76.522 49.6146L77.2685 50.28ZM81.7685 47.13L82.1509 48.054L82.1509 48.054L81.7685 47.13ZM94.8635 47.895L94.3471 48.7514L94.3565 48.7569L94.8635 47.895ZM99.6785 53.34L100.175 54.2078L100.983 53.7451L100.58 52.9062L99.6785 53.34ZM94.0985 56.535L93.1669 56.8985L93.5887 57.9792L94.5954 57.4028L94.0985 56.535ZM91.8485 53.43L91.1996 54.1908L91.2061 54.1964L91.2128 54.2019L91.8485 53.43ZM82.4885 53.97L83.1871 54.6856L83.1871 54.6856L82.4885 53.97ZM82.4885 70.62L81.7814 71.3272L81.79 71.3356L82.4885 70.62ZM89.9585 72.195L90.1919 73.1674L90.2101 73.163L90.2281 73.158L89.9585 72.195ZM91.9385 71.295L92.5032 72.1203L92.5176 72.1104L92.5317 72.1001L91.9385 71.295ZM93.2435 69.81L92.3781 69.309L92.368 69.3264L92.3586 69.3443L93.2435 69.81ZM93.7385 66.21H94.7385V65.21H93.7385V66.21ZM87.8885 66.21H86.8885V67.21H87.8885V66.21ZM87.8885 60.495V59.495H86.8885V60.495H87.8885ZM100.264 60.495H101.264V59.495H100.264V60.495ZM100.264 78V79H101.264V78H100.264ZM94.5035 78H93.5035V79H94.5035V78ZM94.5035 72.005H94.4473V74.005H94.5035V72.005ZM94.3348 72.005H94.2785V74.005H94.3348V72.005ZM93.2897 72.8557C93.2385 73.1948 93.1573 73.515 93.0473 73.8178L94.927 74.501C95.0841 74.0687 95.1971 73.6193 95.2673 73.1543L93.2897 72.8557ZM92.0079 75.485C91.7846 75.7223 91.5303 75.9506 91.243 76.1692L92.454 77.7608C92.8229 77.4802 93.1603 77.1787 93.4643 76.8557L92.0079 75.485ZM91.243 76.1692C90.9187 76.4159 90.558 76.6311 90.1583 76.8135L90.9886 78.633C91.5165 78.3921 92.0059 78.1018 92.454 77.7608L91.243 76.1692ZM87.6014 77.4703C87.1688 77.5164 86.7097 77.54 86.2235 77.54V79.54C86.774 79.54 87.3042 79.5133 87.8135 79.459L87.6014 77.4703ZM86.2235 77.54C85.8163 77.54 85.417 77.521 85.0257 77.4832L84.8336 79.474C85.2906 79.5181 85.754 79.54 86.2235 79.54V77.54ZM82.6974 77.0107C82.3207 76.891 81.9509 76.751 81.588 76.5905L80.779 78.4195C81.2081 78.6093 81.6458 78.7751 82.092 78.9168L82.6974 77.0107ZM81.588 76.5905C81.2279 76.4312 80.8797 76.2528 80.543 76.0554L79.5313 77.7807C79.9339 78.0168 80.3499 78.2297 80.779 78.4195L81.588 76.5905ZM78.6649 74.6458C78.3817 74.3797 78.1081 74.0945 77.8442 73.7901L76.3328 75.0999C76.6401 75.4545 76.9609 75.7891 77.2953 76.1033L78.6649 74.6458ZM77.8442 73.7901C77.5601 73.4622 77.2912 73.1118 77.0379 72.7383L75.3827 73.8609C75.6789 74.2976 75.9955 74.7107 76.3328 75.0999L77.8442 73.7901ZM75.7693 70.3713C75.5984 69.964 75.4397 69.538 75.2936 69.093L73.3934 69.717C73.5554 70.2102 73.7325 70.6864 73.9252 71.1453L75.7693 70.3713ZM75.2936 69.093C75.2084 68.8336 75.1289 68.568 75.0551 68.2961L73.1249 68.8201C73.2076 69.1247 73.2971 69.4237 73.3934 69.717L75.2936 69.093ZM74.6933 66.6598C74.5994 66.1223 74.5248 65.5639 74.4696 64.9845L72.4786 65.174C72.5384 65.8022 72.6198 66.4122 72.7231 67.0038L74.6933 66.6598ZM74.3658 63.2853C74.3576 63.0045 74.3535 62.7194 74.3535 62.43H72.3535C72.3535 62.7383 72.3579 63.0427 72.3666 63.3434L74.3658 63.2853ZM74.3535 62.43C74.3535 62.139 74.3578 61.8522 74.3665 61.5696L72.3674 61.5085C72.3581 61.812 72.3535 62.1192 72.3535 62.43H74.3535ZM74.4761 59.8605C74.534 59.2789 74.6124 58.7175 74.7109 58.1759L72.7432 57.8181C72.6346 58.4153 72.5489 59.03 72.4859 59.6621L74.4761 59.8605ZM75.0883 56.5314C75.1649 56.2586 75.2475 55.9916 75.3358 55.7304L73.4412 55.0896C73.3415 55.3846 73.2487 55.6849 73.1628 55.9906L75.0883 56.5314ZM75.3358 55.7304C75.4894 55.2764 75.6564 54.8414 75.8367 54.4254L74.0015 53.6302C73.7983 54.0993 73.6116 54.5858 73.4412 55.0896L75.3358 55.7304ZM77.1706 52.0146C77.4357 51.6358 77.7172 51.2795 78.015 50.9454L76.522 49.6146C76.1707 50.0087 75.8407 50.4267 75.5319 50.868L77.1706 52.0146ZM78.007 50.9543C78.297 50.6367 78.6001 50.3387 78.9163 50.0601L77.5942 48.5594C77.2228 48.8867 76.868 49.2355 76.53 49.6057L78.007 50.9543ZM80.9981 48.6039C81.3678 48.4024 81.752 48.2191 82.1509 48.054L81.3862 46.206C80.9229 46.3977 80.4744 46.6116 80.041 46.8478L80.9981 48.6039ZM82.1509 48.054C82.57 47.8806 83.0023 47.7294 83.4478 47.6007L82.8927 45.6793C82.3772 45.8282 81.875 46.0037 81.3862 46.206L82.1509 48.054ZM86.1729 47.1074C86.6277 47.0692 87.0945 47.05 87.5735 47.05V45.05C87.041 45.05 86.5184 45.0714 86.0057 45.1144L86.1729 47.1074ZM87.5735 47.05C87.8792 47.05 88.1793 47.0576 88.4738 47.0728L88.5766 45.0754C88.2468 45.0584 87.9124 45.05 87.5735 45.05V47.05ZM90.2481 47.266C90.8461 47.3682 91.4176 47.5061 91.9634 47.6792L92.5679 45.7728C91.9304 45.5706 91.2692 45.4115 90.5848 45.2946L90.2481 47.266ZM93.5839 48.3324C93.8449 48.4622 94.0992 48.6019 94.3472 48.7514L95.3799 47.0386C95.0855 46.8611 94.7838 46.6955 94.4748 46.5418L93.5839 48.3324ZM94.3565 48.7569C94.5983 48.8992 94.8333 49.0509 95.0615 49.2119L96.2149 47.578C95.9414 47.3849 95.6599 47.2033 95.3705 47.0331L94.3565 48.7569ZM96.3479 50.2899C96.7406 50.6777 97.1099 51.1032 97.4553 51.5675L99.0599 50.3736C98.6562 49.831 98.2207 49.3284 97.753 48.8667L96.3479 50.2899ZM98.3805 53.0064C98.5179 53.2537 98.6502 53.5095 98.7775 53.7738L100.58 52.9062C100.436 52.6079 100.286 52.3175 100.129 52.0352L98.3805 53.0064ZM99.1816 52.4722L98.4841 52.8716L99.4779 54.6072L100.175 54.2078L99.1816 52.4722ZM97.0891 53.6703L95.6941 54.4691L96.6879 56.2047L98.0829 55.4059L97.0891 53.6703ZM94.2991 55.2678L93.6016 55.6672L94.5954 57.4028L95.2929 57.0034L94.2991 55.2678ZM95.0301 56.1715C94.8963 55.8287 94.7433 55.4979 94.5709 55.1795L92.8123 56.1322C92.9443 56.3759 93.0626 56.6312 93.1669 56.8985L95.0301 56.1715ZM93.2836 53.4033C93.0348 53.1403 92.7682 52.8919 92.4842 52.6581L91.2128 54.2019C91.4344 54.3845 91.6403 54.5764 91.8308 54.7778L93.2836 53.4033ZM92.4975 52.6692C92.149 52.3719 91.7648 52.1189 91.3478 51.9091L90.4491 53.6959C90.7288 53.8365 90.9779 54.0018 91.1996 54.1908L92.4975 52.6692ZM88.8265 51.1935C88.4247 51.1474 88.0068 51.125 87.5735 51.125V53.125C87.9381 53.125 88.2795 53.1439 88.5986 53.1805L88.8265 51.1935ZM87.5735 51.125C87.0461 51.125 86.5367 51.1596 86.0464 51.2305L86.3326 53.2099C86.72 53.1539 87.1333 53.125 87.5735 53.125V51.125ZM83.0647 52.2658C82.6034 52.5455 82.1782 52.8754 81.79 53.2544L83.1871 54.6856C83.4673 54.412 83.7718 54.1759 84.1015 53.9761L83.0647 52.2658ZM81.79 53.2544C81.5666 53.4725 81.3606 53.708 81.172 53.9604L82.7739 55.1578C82.9017 54.9869 83.0394 54.8297 83.1871 54.6856L81.79 53.2544ZM80.2899 55.5615C80.083 56.086 79.9253 56.6505 79.8131 57.2516L81.7792 57.6184C81.8709 57.1271 81.9958 56.6872 82.1503 56.2956L80.2899 55.5615ZM79.6194 58.9399C79.6054 59.2119 79.5985 59.4903 79.5985 59.775H81.5985C81.5985 59.5226 81.6046 59.2785 81.6168 59.0425L79.6194 58.9399ZM79.5985 59.775V61.035H81.5985V59.775H79.5985ZM79.5985 63.555V64.815H81.5985V63.555H79.5985ZM79.5985 64.815C79.5985 65.0997 79.6056 65.3783 79.6198 65.6506L81.6171 65.5459C81.6048 65.3103 81.5985 65.0667 81.5985 64.815H79.5985ZM79.817 67.3391C79.9304 67.938 80.0895 68.5015 80.2977 69.0262L82.1567 68.2885C82.0006 67.8952 81.8746 67.4557 81.782 66.967L79.817 67.3391ZM81.1741 70.6212C81.3599 70.8725 81.5623 71.108 81.7814 71.3271L83.1956 69.9129C83.0479 69.7652 82.9102 69.6052 82.7825 69.4324L81.1741 70.6212ZM81.79 71.3356C82.1782 71.7146 82.6034 72.0445 83.0647 72.3242L84.1015 70.6139C83.7718 70.4141 83.4673 70.178 83.1871 69.9044L81.79 71.3356ZM86.0464 73.3595C86.5367 73.4304 87.0461 73.465 87.5735 73.465V71.465C87.1333 71.465 86.72 71.4361 86.3326 71.3801L86.0464 73.3595ZM87.5735 73.465C87.7938 73.465 88.0119 73.4593 88.2278 73.4478L88.1216 71.4506C87.942 71.4602 87.7593 71.465 87.5735 71.465V73.465ZM89.5398 73.3017C89.7599 73.2636 89.9773 73.2189 90.1919 73.1674L89.7251 71.2226C89.5531 71.2639 89.3778 71.3 89.1993 71.3309L89.5398 73.3017ZM90.2281 73.158C90.4285 73.1019 90.6244 73.0397 90.8157 72.9713L90.1423 71.0881C89.9968 71.1401 89.8457 71.1881 89.6889 71.232L90.2281 73.158ZM91.9599 72.4559C92.1473 72.3517 92.3285 72.2399 92.5032 72.1203L91.3738 70.4697C91.2512 70.5536 91.1226 70.6331 90.9881 70.7079L91.9599 72.4559ZM92.5317 72.1001C92.6938 71.9806 92.8483 71.8549 92.9948 71.7227L91.655 70.2378C91.5594 70.324 91.4563 70.4081 91.3453 70.4899L92.5317 72.1001ZM93.8057 70.8067C93.9242 70.6362 94.0319 70.4592 94.1284 70.2757L92.3586 69.3443C92.3005 69.4546 92.2356 69.5614 92.1638 69.6647L93.8057 70.8067ZM94.1089 70.311C94.2227 70.1145 94.3208 69.9094 94.4034 69.6965L92.5387 68.9734C92.4927 69.0919 92.4391 69.2035 92.3781 69.309L94.1089 70.311ZM94.7064 68.4157C94.728 68.2092 94.7385 67.9989 94.7385 67.785H92.7385C92.7385 67.9334 92.7312 68.074 92.7173 68.2072L94.7064 68.4157ZM94.7385 67.785V67.3912H92.7385V67.785H94.7385ZM94.7385 66.6037V66.21H92.7385V66.6037H94.7385ZM93.7385 65.21H92.276V67.21H93.7385V65.21ZM89.351 65.21H87.8885V67.21H89.351V65.21ZM88.8885 66.21V64.7812H86.8885V66.21H88.8885ZM88.8885 61.9237V60.495H86.8885V61.9237H88.8885ZM87.8885 61.495H88.9198V59.495H87.8885V61.495ZM90.9823 61.495H93.0448V59.495H90.9823V61.495ZM95.1073 61.495H97.1698V59.495H95.1073V61.495ZM99.2323 61.495H100.264V59.495H99.2323V61.495ZM99.2635 60.495V61.5891H101.264V60.495H99.2635ZM99.2635 63.7772V65.9653H101.264V63.7772H99.2635ZM99.2635 68.1534V70.3416H101.264V68.1534H99.2635ZM99.2635 72.5297V74.7178H101.264V72.5297H99.2635ZM99.2635 76.9059V78H101.264V76.9059H99.2635ZM100.264 77H98.8235V79H100.264V77ZM95.9435 77H94.5035V79H95.9435V77ZM95.5035 78V76.7512H93.5035V78H95.5035ZM95.5035 74.2537V73.005H93.5035V74.2537H95.5035ZM106.912 78H106.412V78.5H106.912V78ZM106.912 46.59V46.09H106.412V46.59H106.912ZM128.287 46.59H128.787V46.09H128.287V46.59ZM128.287 52.665V53.165H128.787V52.665H128.287ZM113.752 52.665V52.165H113.252V52.665H113.752ZM113.752 59.1H113.252V59.6H113.752V59.1ZM126.217 59.1H126.717V58.6H126.217V59.1ZM126.217 65.13V65.63H126.717V65.13H126.217ZM113.752 65.13V64.63H113.252V65.13H113.752ZM113.752 71.925H113.252V72.425H113.752V71.925ZM128.287 71.925H128.787V71.425H128.287V71.925ZM128.287 78V78.5H128.787V78H128.287ZM107.412 78V77.0184H106.412V78H107.412ZM107.412 75.0553V73.0922H106.412V75.0553H107.412ZM107.412 71.1291V69.1659H106.412V71.1291H107.412ZM107.412 67.2028V65.2397H106.412V67.2028H107.412ZM107.412 63.2766V61.3134H106.412V63.2766H107.412ZM107.412 59.3503V57.3872H106.412V59.3503H107.412ZM107.412 55.4241V53.4609H106.412V55.4241H107.412ZM107.412 51.4978V49.5347H106.412V51.4978H107.412ZM107.412 47.5716V46.59H106.412V47.5716H107.412ZM106.912 47.09H107.981V46.09H106.912V47.09ZM110.119 47.09H112.256V46.09H110.119V47.09ZM114.394 47.09H116.531V46.09H114.394V47.09ZM118.669 47.09H120.806V46.09H118.669V47.09ZM122.944 47.09H125.081V46.09H122.944V47.09ZM127.219 47.09H128.287V46.09H127.219V47.09ZM127.787 46.59V47.3494H128.787V46.59H127.787ZM127.787 48.8681V50.3869H128.787V48.8681H127.787ZM127.787 51.9056V52.665H128.787V51.9056H127.787ZM128.287 52.165H127.379V53.165H128.287V52.165ZM125.562 52.165H123.745V53.165H125.562V52.165ZM121.928 52.165H120.111V53.165H121.928V52.165ZM118.294 52.165H116.478V53.165H118.294V52.165ZM114.661 52.165H113.752V53.165H114.661V52.165ZM113.252 52.665V53.4694H114.252V52.665H113.252ZM113.252 55.0781V56.6869H114.252V55.0781H113.252ZM113.252 58.2956V59.1H114.252V58.2956H113.252ZM113.752 59.6H114.791V58.6H113.752V59.6ZM116.869 59.6H118.946V58.6H116.869V59.6ZM121.024 59.6H123.101V58.6H121.024V59.6ZM125.179 59.6H126.217V58.6H125.179V59.6ZM125.717 59.1V59.8537H126.717V59.1H125.717ZM125.717 61.3612V62.8687H126.717V61.3612H125.717ZM125.717 64.3762V65.13H126.717V64.3762H125.717ZM126.217 64.63H125.179V65.63H126.217V64.63ZM123.101 64.63H121.024V65.63H123.101V64.63ZM118.946 64.63H116.869V65.63H118.946V64.63ZM114.791 64.63H113.752V65.63H114.791V64.63ZM113.252 65.13V65.9794H114.252V65.13H113.252ZM113.252 67.6781V69.3769H114.252V67.6781H113.252ZM113.252 71.0756V71.925H114.252V71.0756H113.252ZM113.752 72.425H114.661V71.425H113.752V72.425ZM116.478 72.425H118.294V71.425H116.478V72.425ZM120.111 72.425H121.928V71.425H120.111V72.425ZM123.745 72.425H125.562V71.425H123.745V72.425ZM127.379 72.425H128.287V71.425H127.379V72.425ZM127.787 71.925V72.6844H128.787V71.925H127.787ZM127.787 74.2031V75.7219H128.787V74.2031H127.787ZM127.787 77.2406V78H128.787V77.2406H127.787ZM128.287 77.5H127.219V78.5H128.287V77.5ZM125.081 77.5H122.944V78.5H125.081V77.5ZM120.806 77.5H118.669V78.5H120.806V77.5ZM116.531 77.5H114.394V78.5H116.531V77.5ZM112.256 77.5H110.119V78.5H112.256V77.5ZM107.981 77.5H106.912V78.5H107.981V77.5ZM106.912 78H105.912V79H106.912V78ZM106.912 46.59V45.59H105.912V46.59H106.912ZM128.287 46.59H129.287V45.59H128.287V46.59ZM128.287 52.665V53.665H129.287V52.665H128.287ZM113.752 52.665V51.665H112.752V52.665H113.752ZM113.752 59.1H112.752V60.1H113.752V59.1ZM126.217 59.1H127.217V58.1H126.217V59.1ZM126.217 65.13V66.13H127.217V65.13H126.217ZM113.752 65.13V64.13H112.752V65.13H113.752ZM113.752 71.925H112.752V72.925H113.752V71.925ZM128.287 71.925H129.287V70.925H128.287V71.925ZM128.287 78V79H129.287V78H128.287ZM107.912 78V77.0184H105.912V78H107.912ZM107.912 75.0553V73.0922H105.912V75.0553H107.912ZM107.912 71.1291V69.1659H105.912V71.1291H107.912ZM107.912 67.2028V65.2397H105.912V67.2028H107.912ZM107.912 63.2766V61.3134H105.912V63.2766H107.912ZM107.912 59.3503V57.3872H105.912V59.3503H107.912ZM107.912 55.4241V53.4609H105.912V55.4241H107.912ZM107.912 51.4978V49.5347H105.912V51.4978H107.912ZM107.912 47.5716V46.59H105.912V47.5716H107.912ZM106.912 47.59H107.981V45.59H106.912V47.59ZM110.119 47.59H112.256V45.59H110.119V47.59ZM114.394 47.59H116.531V45.59H114.394V47.59ZM118.669 47.59H120.806V45.59H118.669V47.59ZM122.944 47.59H125.081V45.59H122.944V47.59ZM127.219 47.59H128.287V45.59H127.219V47.59ZM127.287 46.59V47.3494H129.287V46.59H127.287ZM127.287 48.8681V50.3869H129.287V48.8681H127.287ZM127.287 51.9056V52.665H129.287V51.9056H127.287ZM128.287 51.665H127.379V53.665H128.287V51.665ZM125.562 51.665H123.745V53.665H125.562V51.665ZM121.928 51.665H120.111V53.665H121.928V51.665ZM118.294 51.665H116.478V53.665H118.294V51.665ZM114.661 51.665H113.752V53.665H114.661V51.665ZM112.752 52.665V53.4694H114.752V52.665H112.752ZM112.752 55.0781V56.6869H114.752V55.0781H112.752ZM112.752 58.2956V59.1H114.752V58.2956H112.752ZM113.752 60.1H114.791V58.1H113.752V60.1ZM116.869 60.1H118.946V58.1H116.869V60.1ZM121.024 60.1H123.101V58.1H121.024V60.1ZM125.179 60.1H126.217V58.1H125.179V60.1ZM125.217 59.1V59.8537H127.217V59.1H125.217ZM125.217 61.3612V62.8687H127.217V61.3612H125.217ZM125.217 64.3762V65.13H127.217V64.3762H125.217ZM126.217 64.13H125.179V66.13H126.217V64.13ZM123.101 64.13H121.024V66.13H123.101V64.13ZM118.946 64.13H116.869V66.13H118.946V64.13ZM114.791 64.13H113.752V66.13H114.791V64.13ZM112.752 65.13V65.9794H114.752V65.13H112.752ZM112.752 67.6781V69.3769H114.752V67.6781H112.752ZM112.752 71.0756V71.925H114.752V71.0756H112.752ZM113.752 72.925H114.661V70.925H113.752V72.925ZM116.478 72.925H118.294V70.925H116.478V72.925ZM120.111 72.925H121.928V70.925H120.111V72.925ZM123.745 72.925H125.562V70.925H123.745V72.925ZM127.379 72.925H128.287V70.925H127.379V72.925ZM127.287 71.925V72.6844H129.287V71.925H127.287ZM127.287 74.2031V75.7219H129.287V74.2031H127.287ZM127.287 77.2406V78H129.287V77.2406H127.287ZM128.287 77H127.219V79H128.287V77ZM125.081 77H122.944V79H125.081V77ZM120.806 77H118.669V79H120.806V77ZM116.531 77H114.394V79H116.531V77ZM112.256 77H110.119V79H112.256V77ZM107.981 77H106.912V79H107.981V77ZM143.831 63.15L143.38 63.3658L143.389 63.3835L143.399 63.4005L143.831 63.15ZM140.816 56.85L141.267 56.6342L141.131 56.35H140.816V56.85ZM140.681 56.85V56.35H140.181V56.85H140.681ZM140.681 78V78.5H141.181V78H140.681ZM134.246 78H133.746V78.5H134.246V78ZM134.246 46.59V46.09H133.746V46.59H134.246ZM141.716 46.59L142.149 46.3395L142.005 46.09H141.716V46.59ZM150.311 61.44L150.762 61.2242L150.754 61.2065L150.744 61.1895L150.311 61.44ZM153.326 67.74L152.875 67.9558L153.011 68.24H153.326V67.74ZM153.461 67.74V68.24H153.961V67.74H153.461ZM153.461 46.59V46.09H152.961V46.59H153.461ZM159.896 46.59H160.396V46.09H159.896V46.59ZM159.896 78V78.5H160.396V78H159.896ZM152.426 78L151.994 78.2505L152.138 78.5H152.426V78ZM144.282 62.9342L143.905 62.1467L143.003 62.5783L143.38 63.3658L144.282 62.9342ZM143.152 60.5717L142.398 58.9967L141.496 59.4283L142.25 61.0033L143.152 60.5717ZM141.644 57.4217L141.267 56.6342L140.365 57.0658L140.742 57.8533L141.644 57.4217ZM140.816 56.35H140.783V57.35H140.816V56.35ZM140.715 56.35H140.681V57.35H140.715V56.35ZM140.181 56.85V57.9075H141.181V56.85H140.181ZM140.181 60.0225V62.1375H141.181V60.0225H140.181ZM140.181 64.2525V66.3675H141.181V64.2525H140.181ZM140.181 68.4825V70.5975H141.181V68.4825H140.181ZM140.181 72.7125V74.8275H141.181V72.7125H140.181ZM140.181 76.9425V78H141.181V76.9425H140.181ZM140.681 77.5H139.877V78.5H140.681V77.5ZM138.268 77.5H136.659V78.5H138.268V77.5ZM135.051 77.5H134.246V78.5H135.051V77.5ZM134.746 78V77.0184H133.746V78H134.746ZM134.746 75.0553V73.0922H133.746V75.0553H134.746ZM134.746 71.1291V69.1659H133.746V71.1291H134.746ZM134.746 67.2028V65.2397H133.746V67.2028H134.746ZM134.746 63.2766V61.3134H133.746V63.2766H134.746ZM134.746 59.3503V57.3872H133.746V59.3503H134.746ZM134.746 55.4241V53.4609H133.746V55.4241H134.746ZM134.746 51.4978V49.5347H133.746V51.4978H134.746ZM134.746 47.5716V46.59H133.746V47.5716H134.746ZM134.246 47.09H135.18V46.09H134.246V47.09ZM137.048 47.09H138.915V46.09H137.048V47.09ZM140.783 47.09H141.716V46.09H140.783V47.09ZM141.284 46.8405L141.821 47.7686L142.686 47.2677L142.149 46.3395L141.284 46.8405ZM142.895 49.6248L143.969 51.4811L144.835 50.9802L143.761 49.1239L142.895 49.6248ZM145.044 53.3373L146.118 55.1936L146.984 54.6927L145.909 52.8364L145.044 53.3373ZM147.193 57.0498L148.267 58.9061L149.132 58.4052L148.058 56.5489L147.193 57.0498ZM149.341 60.7623L149.879 61.6905L150.744 61.1895L150.207 60.2614L149.341 60.7623ZM149.86 61.6558L150.237 62.4433L151.139 62.0117L150.762 61.2242L149.86 61.6558ZM150.991 64.0183L151.745 65.5933L152.647 65.1617L151.893 63.5867L150.991 64.0183ZM152.498 67.1683L152.875 67.9558L153.777 67.5242L153.4 66.7367L152.498 67.1683ZM153.326 68.24H153.36V67.24H153.326V68.24ZM153.428 68.24H153.461V67.24H153.428V68.24ZM153.961 67.74V66.6825H152.961V67.74H153.961ZM153.961 64.5675V62.4525H152.961V64.5675H153.961ZM153.961 60.3375V58.2225H152.961V60.3375H153.961ZM153.961 56.1075V53.9925H152.961V56.1075H153.961ZM153.961 51.8775V49.7625H152.961V51.8775H153.961ZM153.961 47.6475V46.59H152.961V47.6475H153.961ZM153.461 47.09H154.266V46.09H153.461V47.09ZM155.874 47.09H157.483V46.09H155.874V47.09ZM159.092 47.09H159.896V46.09H159.092V47.09ZM159.396 46.59V47.5716H160.396V46.59H159.396ZM159.396 49.5347V51.4978H160.396V49.5347H159.396ZM159.396 53.4609V55.4241H160.396V53.4609H159.396ZM159.396 57.3872V59.3503H160.396V57.3872H159.396ZM159.396 61.3134V63.2766H160.396V61.3134H159.396ZM159.396 65.2397V67.2028H160.396V65.2397H159.396ZM159.396 69.1659V71.1291H160.396V69.1659H159.396ZM159.396 73.0922V75.0553H160.396V73.0922H159.396ZM159.396 77.0184V78H160.396V77.0184H159.396ZM159.896 77.5H158.963V78.5H159.896V77.5ZM157.095 77.5H155.228V78.5H157.095V77.5ZM153.36 77.5H152.426V78.5H153.36V77.5ZM152.859 77.7495L152.322 76.8214L151.456 77.3223L151.994 78.2505L152.859 77.7495ZM151.247 74.9652L150.173 73.1089L149.308 73.6098L150.382 75.4661L151.247 74.9652ZM149.099 71.2527L148.024 69.3964L147.159 69.8973L148.233 71.7536L149.099 71.2527ZM146.95 67.5402L145.876 65.6839L145.01 66.1848L146.084 68.0411L146.95 67.5402ZM144.801 63.8277L144.264 62.8995L143.399 63.4005L143.936 64.3286L144.801 63.8277ZM143.831 63.15L142.929 63.5817L142.946 63.617L142.966 63.6509L143.831 63.15ZM140.816 56.85L141.718 56.4183L141.446 55.85H140.816V56.85ZM140.681 56.85V55.85H139.681V56.85H140.681ZM140.681 78V79H141.681V78H140.681ZM134.246 78H133.246V79H134.246V78ZM134.246 46.59V45.59H133.246V46.59H134.246ZM141.716 46.59L142.582 46.0891L142.293 45.59H141.716V46.59ZM150.311 61.44L151.213 61.0083L151.196 60.973L151.177 60.9391L150.311 61.44ZM153.326 67.74L152.424 68.1717L152.696 68.74H153.326V67.74ZM153.461 67.74V68.74H154.461V67.74H153.461ZM153.461 46.59V45.59H152.461V46.59H153.461ZM159.896 46.59H160.896V45.59H159.896V46.59ZM159.896 78V79H160.896V78H159.896ZM152.426 78L151.561 78.5009L151.85 79H152.426V78ZM144.733 62.7183L144.356 61.9308L142.552 62.7942L142.929 63.5817L144.733 62.7183ZM143.603 60.3558L142.849 58.7808L141.045 59.6442L141.799 61.2192L143.603 60.3558ZM142.095 57.2058L141.718 56.4183L139.914 57.2817L140.291 58.0692L142.095 57.2058ZM140.816 55.85H140.783V57.85H140.816V55.85ZM140.715 55.85H140.681V57.85H140.715V55.85ZM139.681 56.85V57.9075H141.681V56.85H139.681ZM139.681 60.0225V62.1375H141.681V60.0225H139.681ZM139.681 64.2525V66.3675H141.681V64.2525H139.681ZM139.681 68.4825V70.5975H141.681V68.4825H139.681ZM139.681 72.7125V74.8275H141.681V72.7125H139.681ZM139.681 76.9425V78H141.681V76.9425H139.681ZM140.681 77H139.877V79H140.681V77ZM138.268 77H136.659V79H138.268V77ZM135.051 77H134.246V79H135.051V77ZM135.246 78V77.0184H133.246V78H135.246ZM135.246 75.0553V73.0922H133.246V75.0553H135.246ZM135.246 71.1291V69.1659H133.246V71.1291H135.246ZM135.246 67.2028V65.2397H133.246V67.2028H135.246ZM135.246 63.2766V61.3134H133.246V63.2766H135.246ZM135.246 59.3503V57.3872H133.246V59.3503H135.246ZM135.246 55.4241V53.4609H133.246V55.4241H135.246ZM135.246 51.4978V49.5347H133.246V51.4978H135.246ZM135.246 47.5716V46.59H133.246V47.5716H135.246ZM134.246 47.59H135.18V45.59H134.246V47.59ZM137.048 47.59H138.915V45.59H137.048V47.59ZM140.783 47.59H141.716V45.59H140.783V47.59ZM140.851 47.0909L141.388 48.0191L143.119 47.0172L142.582 46.0891L140.851 47.0909ZM142.462 49.8753L143.537 51.7316L145.268 50.7297L144.193 48.8734L142.462 49.8753ZM144.611 53.5878L145.685 55.4441L147.416 54.4422L146.342 52.5859L144.611 53.5878ZM146.76 57.3003L147.834 59.1566L149.565 58.1547L148.491 56.2984L146.76 57.3003ZM148.909 61.0128L149.446 61.9409L151.177 60.9391L150.64 60.0109L148.909 61.0128ZM149.409 61.8717L149.786 62.6592L151.59 61.7958L151.213 61.0083L149.409 61.8717ZM150.54 64.2342L151.294 65.8092L153.098 64.9458L152.344 63.3708L150.54 64.2342ZM152.047 67.3842L152.424 68.1717L154.228 67.3083L153.851 66.5208L152.047 67.3842ZM153.326 68.74H153.36V66.74H153.326V68.74ZM153.428 68.74H153.461V66.74H153.428V68.74ZM154.461 67.74V66.6825H152.461V67.74H154.461ZM154.461 64.5675V62.4525H152.461V64.5675H154.461ZM154.461 60.3375V58.2225H152.461V60.3375H154.461ZM154.461 56.1075V53.9925H152.461V56.1075H154.461ZM154.461 51.8775V49.7625H152.461V51.8775H154.461ZM154.461 47.6475V46.59H152.461V47.6475H154.461ZM153.461 47.59H154.266V45.59H153.461V47.59ZM155.874 47.59H157.483V45.59H155.874V47.59ZM159.092 47.59H159.896V45.59H159.092V47.59ZM158.896 46.59V47.5716H160.896V46.59H158.896ZM158.896 49.5347V51.4978H160.896V49.5347H158.896ZM158.896 53.4609V55.4241H160.896V53.4609H158.896ZM158.896 57.3872V59.3503H160.896V57.3872H158.896ZM158.896 61.3134V63.2766H160.896V61.3134H158.896ZM158.896 65.2397V67.2028H160.896V65.2397H158.896ZM158.896 69.1659V71.1291H160.896V69.1659H158.896ZM158.896 73.0922V75.0553H160.896V73.0922H158.896ZM158.896 77.0184V78H160.896V77.0184H158.896ZM159.896 77H158.963V79H159.896V77ZM157.095 77H155.228V79H157.095V77ZM153.36 77H152.426V79H153.36V77ZM153.292 77.4991L152.755 76.5709L151.024 77.5728L151.561 78.5009L153.292 77.4991ZM151.68 74.7147L150.606 72.8584L148.875 73.8603L149.949 75.7166L151.68 74.7147ZM149.531 71.0022L148.457 69.1459L146.726 70.1478L147.8 72.0041L149.531 71.0022ZM147.383 67.2897L146.308 65.4334L144.577 66.4353L145.652 68.2916L147.383 67.2897ZM145.234 63.5772L144.697 62.6491L142.966 63.6509L143.503 64.5791L145.234 63.5772Z" fill="#DADADA"></path> </svg> 