<?xml version="1.0" encoding="UTF-8"?> <svg xmlns="http://www.w3.org/2000/svg" width="277" height="35" viewBox="0 0 277 35" fill="none"> <path d="M9.395 32.505L9.2079 32.9687L9.2079 32.9687L9.395 32.505ZM5.03 29.445L4.65267 29.7731L4.6563 29.7772L5.03 29.445ZM2.24 24.36L1.76427 24.5139L1.76495 24.516L2.24 24.36ZM2.24 10.275L2.71505 10.431L2.71572 10.4289L2.24 10.275ZM5.03 5.19L5.40373 5.5222L5.4073 5.51809L5.03 5.19ZM9.395 2.085L9.2079 1.62132L9.2079 1.62132L9.395 2.085ZM20.735 2.085L20.5479 2.54867L20.5479 2.54867L20.735 2.085ZM25.1 5.19L24.7227 5.51811L24.7263 5.52218L25.1 5.19ZM27.89 10.275L27.4143 10.4289L27.415 10.431L27.89 10.275ZM27.89 24.36L28.3651 24.516L28.3657 24.5139L27.89 24.36ZM25.1 29.445L25.4737 29.7772L25.4773 29.7731L25.1 29.445ZM20.735 32.505L20.5479 32.0413L20.5479 32.0413L20.735 32.505ZM19.88 25.44L19.5021 25.1125L19.498 25.1174L19.88 25.44ZM19.88 9.15L19.498 9.47262L19.5022 9.47746L19.88 9.15ZM10.205 9.15L9.82712 8.82251L9.82299 8.82741L10.205 9.15ZM10.205 25.44L9.82295 25.7626L9.82716 25.7675L10.205 25.44ZM15.065 33.04C14.5852 33.04 14.1162 33.021 13.6579 32.983L13.5754 33.9796C14.0622 34.0199 14.5588 34.04 15.065 34.04V33.04ZM10.9025 32.4924C10.4502 32.3644 10.0101 32.214 9.5821 32.0413L9.2079 32.9687C9.66975 33.155 10.1439 33.317 10.6301 33.4546L10.9025 32.4924ZM9.5821 32.0413C9.17747 31.8781 8.78836 31.6958 8.41464 31.4947L7.94077 32.3753C8.34763 32.5942 8.77006 32.792 9.2079 32.9687L9.5821 32.0413ZM6.31196 30.0237C5.99422 29.7401 5.69147 29.4366 5.4037 29.1128L4.6563 29.7772C4.96927 30.1293 5.29922 30.4602 5.64613 30.7698L6.31196 30.0237ZM5.4073 29.1169C5.10445 28.7686 4.81911 28.399 4.55134 28.0077L3.72609 28.5725C4.01511 28.9948 4.32396 29.395 4.6527 29.7731L5.4073 29.1169ZM3.21151 25.5324C3.03183 25.1074 2.86631 24.6647 2.71505 24.204L1.76495 24.516C1.92442 25.0016 2.09955 25.4703 2.29044 25.9218L3.21151 25.5324ZM2.71572 24.2061C2.62776 23.9342 2.54574 23.6562 2.46968 23.3722L1.5037 23.6308C1.58406 23.9309 1.67091 24.2253 1.76428 24.5139L2.71572 24.2061ZM2.09769 21.6675C2.00139 21.1088 1.92497 20.5299 1.86859 19.9307L0.872985 20.0244C0.931633 20.6477 1.01133 21.252 1.11223 21.8374L2.09769 21.6675ZM1.7625 18.1761C1.75417 17.8866 1.75 17.5929 1.75 17.295H0.75C0.75 17.6022 0.754302 17.9055 0.762917 18.2048L1.7625 18.1761ZM1.75 17.295C1.75 16.9988 1.75413 16.7069 1.76236 16.4193L0.762774 16.3907C0.754254 16.6881 0.75 16.9895 0.75 17.295H1.75ZM1.86755 14.6758C1.92365 14.0794 1.99974 13.5043 2.09566 12.9503L1.11033 12.7797C1.00972 13.3607 0.930319 13.9615 0.871946 14.5821L1.86755 14.6758ZM2.46788 11.258C2.54425 10.9758 2.62665 10.7002 2.71505 10.431L1.76495 10.119C1.6709 10.4054 1.58347 10.698 1.50262 10.9967L2.46788 11.258ZM2.71572 10.4289C2.86548 9.96602 3.02918 9.52241 3.20669 9.09793L2.28411 8.71213C2.09536 9.16349 1.92213 9.63319 1.76428 10.1211L2.71572 10.4289ZM4.54226 6.62304C4.81171 6.23197 5.09889 5.8651 5.4037 5.52218L4.6563 4.85782C4.32333 5.2324 4.01086 5.63177 3.7188 6.05566L4.54226 6.62304ZM5.4073 5.51809C5.69363 5.18881 5.99472 4.88048 6.31055 4.59293L5.63733 3.85349C5.29224 4.16768 4.96403 4.50387 4.6527 4.86191L5.4073 5.51809ZM8.41124 3.09988C8.78601 2.8962 9.17624 2.71244 9.5821 2.54867L9.2079 1.62132C8.76752 1.79902 8.34275 1.99896 7.93374 2.22124L8.41124 3.09988ZM9.5821 2.54867C10.0101 2.37598 10.4502 2.22559 10.9025 2.09758L10.6301 1.13538C10.1439 1.27301 9.66974 1.43497 9.2079 1.62132L9.5821 2.54867ZM13.6579 1.607C14.1162 1.56904 14.5852 1.55 15.065 1.55V0.549998C14.5588 0.549998 14.0622 0.570093 13.5754 0.610413L13.6579 1.607ZM15.065 1.55C15.5448 1.55 16.0138 1.56904 16.4721 1.607L16.5547 0.610413C16.0678 0.570093 15.5712 0.549998 15.065 0.549998V1.55ZM19.2275 2.09758C19.6798 2.22559 20.1199 2.37598 20.5479 2.54867L20.9221 1.62132C20.4603 1.43497 19.9861 1.27301 19.4999 1.13538L19.2275 2.09758ZM20.5479 2.54867C20.9538 2.71244 21.344 2.8962 21.7188 3.09988L22.1963 2.22124C21.7873 1.99896 21.3625 1.79902 20.9221 1.62132L20.5479 2.54867ZM23.8195 4.59293C24.1353 4.88048 24.4364 5.18881 24.7227 5.51809L25.4773 4.86191C25.166 4.50387 24.8378 4.16768 24.4927 3.85349L23.8195 4.59293ZM24.7263 5.52218C25.0311 5.8651 25.3183 6.23197 25.5877 6.62304L26.4112 6.05566C26.1191 5.63177 25.8067 5.2324 25.4737 4.85782L24.7263 5.52218ZM26.9233 9.09793C27.1008 9.52241 27.2645 9.96602 27.4143 10.4289L28.3657 10.1211C28.2079 9.63319 28.0346 9.16349 27.8459 8.71213L26.9233 9.09793ZM27.415 10.431C27.5033 10.7002 27.5857 10.9758 27.6621 11.258L28.6274 10.9967C28.5465 10.698 28.4591 10.4054 28.365 10.119L27.415 10.431ZM28.0343 12.9503C28.1303 13.5043 28.2064 14.0794 28.2624 14.6758L29.2581 14.5821C29.1997 13.9615 29.1203 13.3607 29.0197 12.7797L28.0343 12.9503ZM28.3676 16.4193C28.3759 16.7069 28.38 16.9988 28.38 17.295H29.38C29.38 16.9895 29.3757 16.6881 29.3672 16.3907L28.3676 16.4193ZM28.38 17.295C28.38 17.5929 28.3758 17.8866 28.3675 18.1761L29.3671 18.2048C29.3757 17.9055 29.38 17.6022 29.38 17.295H28.38ZM28.2614 19.9307C28.205 20.5299 28.1286 21.1088 28.0323 21.6675L29.0178 21.8374C29.1187 21.252 29.1984 20.6477 29.257 20.0244L28.2614 19.9307ZM27.6603 23.3722C27.5843 23.6562 27.5022 23.9342 27.4143 24.2061L28.3657 24.5139C28.4591 24.2253 28.5459 23.9309 28.6263 23.6308L27.6603 23.3722ZM27.415 24.204C27.2637 24.6647 27.0982 25.1074 26.9185 25.5324L27.8396 25.9218C28.0305 25.4703 28.2056 25.0016 28.365 24.516L27.415 24.204ZM25.5787 28.0077C25.3109 28.399 25.0255 28.7686 24.7227 29.1169L25.4773 29.7731C25.806 29.395 26.1149 28.9948 26.4039 28.5725L25.5787 28.0077ZM24.7263 29.1128C24.4385 29.4366 24.1358 29.7401 23.818 30.0237L24.4839 30.7698C24.8308 30.4602 25.1607 30.1293 25.4737 29.7772L24.7263 29.1128ZM21.7154 31.4947C21.3416 31.6958 20.9525 31.8781 20.5479 32.0413L20.9221 32.9687C21.3599 32.792 21.7824 32.5942 22.1892 32.3753L21.7154 31.4947ZM20.5479 32.0413C20.1199 32.214 19.6798 32.3644 19.2275 32.4924L19.4999 33.4546C19.9861 33.317 20.4603 33.155 20.9221 32.9687L20.5479 32.0413ZM16.4721 32.983C16.0138 33.021 15.5448 33.04 15.065 33.04V34.04C15.5712 34.04 16.0678 34.0199 16.5547 33.9796L16.4721 32.983ZM15.065 26.965C14.6146 26.965 14.1906 26.9313 13.7923 26.865L13.6282 27.8515C14.0856 27.9275 14.5648 27.965 15.065 27.965V26.965ZM11.4973 25.9477C11.1664 25.712 10.8616 25.4341 10.5828 25.1125L9.82716 25.7675C10.156 26.1468 10.5193 26.4789 10.9172 26.7622L11.4973 25.9477ZM10.587 25.1174C10.4368 24.9396 10.2971 24.7501 10.1678 24.5488L9.32639 25.0892C9.47865 25.3263 9.64416 25.5508 9.82299 25.7626L10.587 25.1174ZM9.54231 23.2646C9.38713 22.8332 9.26398 22.3636 9.1741 21.8545L8.18933 22.0284C8.28807 22.5876 8.42499 23.1129 8.60134 23.6031L9.54231 23.2646ZM9.01313 20.3824C9.00106 20.1401 8.995 19.891 8.995 19.635H7.995C7.995 19.9067 8.00143 20.1724 8.01436 20.4321L9.01313 20.3824ZM8.995 19.635V18.465H7.995V19.635H8.995ZM8.995 16.125V14.955H7.995V16.125H8.995ZM8.995 14.955C8.995 14.699 9.00106 14.4499 9.01313 14.2076L8.01436 14.1579C8.00143 14.4176 7.995 14.6833 7.995 14.955H8.995ZM9.1741 12.7355C9.26398 12.2264 9.38713 11.7568 9.54231 11.3254L8.60134 10.9869C8.42499 11.4771 8.28807 12.0024 8.18933 12.5616L9.1741 12.7355ZM10.1678 10.0412C10.2971 9.83989 10.4368 9.65044 10.587 9.47259L9.82299 8.82741C9.64416 9.03918 9.47865 9.26371 9.32639 9.50077L10.1678 10.0412ZM10.5828 9.47746C10.8616 9.15588 11.1664 8.87796 11.4973 8.64233L10.9172 7.82775C10.5193 8.1111 10.156 8.44316 9.82716 8.82253L10.5828 9.47746ZM13.7923 7.72498C14.1906 7.65872 14.6146 7.625 15.065 7.625V6.625C14.5648 6.625 14.0856 6.66245 13.6282 6.73854L13.7923 7.72498ZM15.065 7.625C15.513 7.625 15.9339 7.65836 16.3286 7.72387L16.4924 6.73736C16.0385 6.66204 15.5625 6.625 15.065 6.625V7.625ZM18.601 8.63721C18.9271 8.87269 19.2261 9.15066 19.498 9.47259L20.262 8.82741C19.9395 8.44547 19.5809 8.11132 19.1863 7.82643L18.601 8.63721ZM19.5022 9.47746C19.6554 9.65432 19.7981 9.84256 19.93 10.0424L20.7645 9.49137C20.609 9.25588 20.4401 9.03287 20.2578 8.82253L19.5022 9.47746ZM20.5713 11.3221C20.731 11.7532 20.8577 12.2227 20.9503 12.7317L21.9342 12.5528C21.8322 11.9923 21.6909 11.4659 21.509 10.9747L20.5713 11.3221ZM21.1163 14.206C21.1287 14.4488 21.135 14.6985 21.135 14.955H22.135C22.135 14.6822 22.1284 14.4155 22.115 14.1548L21.1163 14.206ZM21.135 14.955V16.125H22.135V14.955H21.135ZM21.135 18.465V19.635H22.135V18.465H21.135ZM21.135 19.635C21.135 19.8915 21.1287 20.1412 21.1163 20.384L22.115 20.4352C22.1284 20.1745 22.135 19.9078 22.135 19.635H21.135ZM20.9503 21.8583C20.8577 22.3673 20.731 22.8368 20.5713 23.2679L21.509 23.6153C21.6909 23.1241 21.8322 22.5977 21.9342 22.0372L20.9503 21.8583ZM19.93 24.5476C19.7981 24.7474 19.6554 24.9357 19.5022 25.1125L20.2578 25.7675C20.4401 25.5571 20.609 25.3341 20.7645 25.0986L19.93 24.5476ZM19.498 25.1174C19.2261 25.4393 18.9271 25.7173 18.601 25.9528L19.1863 26.7636C19.5809 26.4787 19.9395 26.1445 20.262 25.7626L19.498 25.1174ZM16.3286 26.8661C15.9339 26.9316 15.513 26.965 15.065 26.965V27.965C15.5625 27.965 16.0385 27.928 16.4923 27.8526L16.3286 26.8661ZM9.395 32.505L9.02081 33.4324L9.02081 33.4324L9.395 32.505ZM5.03 29.445L4.27535 30.1012L4.28259 30.1094L5.03 29.445ZM2.24 24.36L1.28855 24.6678L1.28991 24.672L2.24 24.36ZM2.24 10.275L3.1901 10.587L3.19144 10.5828L2.24 10.275ZM5.03 5.19L5.77745 5.8544L5.78461 5.84618L5.03 5.19ZM9.395 2.085L9.02081 1.15765L9.02081 1.15765L9.395 2.085ZM20.735 2.085L20.3608 3.01235L20.3608 3.01235L20.735 2.085ZM25.1 5.19L24.3454 5.84622L24.3526 5.85436L25.1 5.19ZM27.89 10.275L26.9385 10.5828L26.9399 10.587L27.89 10.275ZM27.89 24.36L28.8401 24.672L28.8414 24.6678L27.89 24.36ZM25.1 29.445L25.8475 30.1094L25.8546 30.1012L25.1 29.445ZM20.735 32.505L20.3608 31.5776L20.3608 31.5776L20.735 32.505ZM19.88 25.44L19.1242 24.785L19.116 24.7948L19.88 25.44ZM19.88 9.15L19.1159 9.79523L19.1243 9.80493L19.88 9.15ZM10.205 9.15L9.44925 8.49501L9.44097 8.50482L10.205 9.15ZM10.205 25.44L9.44091 26.0852L9.44931 26.0949L10.205 25.44ZM15.065 32.54C14.5985 32.54 14.1432 32.5215 13.6992 32.4847L13.5341 34.4779C14.0352 34.5194 14.5455 34.54 15.065 34.54V32.54ZM11.0386 32.0113C10.6033 31.8881 10.1803 31.7435 9.76919 31.5776L9.02081 33.4324C9.49957 33.6255 9.99071 33.7933 10.494 33.9357L11.0386 32.0113ZM9.76919 31.5776C9.38117 31.4211 9.00873 31.2466 8.65157 31.0544L7.70384 32.8156C8.12726 33.0435 8.56635 33.249 9.02081 33.4324L9.76919 31.5776ZM6.64487 29.6506C6.34172 29.3801 6.05257 29.0902 5.77741 28.7806L4.28259 30.1094C4.60817 30.4756 4.95172 30.8202 5.31322 31.1428L6.64487 29.6506ZM5.78461 28.7888C5.4947 28.4554 5.22112 28.101 4.96396 27.7253L3.31347 28.8548C3.6131 29.2927 3.93371 29.7082 4.27539 30.1012L5.78461 28.7888ZM3.67204 25.3377C3.49798 24.926 3.33725 24.4962 3.19009 24.048L1.28991 24.672C1.45348 25.1701 1.6334 25.6517 1.82991 26.1165L3.67204 25.3377ZM3.19144 24.0522C3.10618 23.7886 3.02657 23.5189 2.95267 23.2428L1.02071 23.7601C1.10323 24.0683 1.19249 24.3709 1.28856 24.6678L3.19144 24.0522ZM2.59043 21.5826C2.49642 21.0372 2.42164 20.471 2.36639 19.8839L0.375184 20.0712C0.434964 20.7065 0.516298 21.3236 0.619491 21.9223L2.59043 21.5826ZM2.2623 18.1617C2.25411 17.8771 2.25 17.5882 2.25 17.295H0.25C0.25 17.6069 0.254367 17.9149 0.263124 18.2192L2.2623 18.1617ZM2.25 17.295C2.25 17.0034 2.25406 16.7163 2.26216 16.4337L0.26298 16.3764C0.254319 16.6787 0.25 16.9849 0.25 17.295H2.25ZM2.36536 14.7226C2.42031 14.1383 2.49474 13.5761 2.58833 13.0356L0.617659 12.6944C0.514717 13.2889 0.433655 13.9026 0.374144 14.5353L2.36536 14.7226ZM2.95051 11.3886C3.02465 11.1148 3.10453 10.8476 3.19009 10.587L1.28991 9.96303C1.19303 10.2581 1.10307 10.5591 1.01998 10.8661L2.95051 11.3886ZM3.19144 10.5828C3.33716 10.1324 3.49609 9.70187 3.66798 9.29083L1.82282 8.51922C1.62845 8.98403 1.45045 9.46678 1.28856 9.96718L3.19144 10.5828ZM4.95399 6.90672C5.21213 6.53206 5.48667 6.18145 5.77741 5.85436L4.28259 4.52563C3.93555 4.91606 3.61044 5.33168 3.30706 5.77198L4.95399 6.90672ZM5.78461 5.84618C6.05844 5.53127 6.34596 5.23688 6.64716 4.96265L5.30072 3.48377C4.94099 3.81128 4.59923 4.16141 4.27539 4.53382L5.78461 5.84618ZM8.64999 3.53919C9.00764 3.34482 9.3806 3.16915 9.76919 3.01235L9.02081 1.15765C8.56316 1.34231 8.12112 1.55034 7.69499 1.78193L8.64999 3.53919ZM9.76919 3.01235C10.1803 2.84648 10.6033 2.70189 11.0386 2.57869L10.494 0.654276C9.99071 0.796712 9.49957 0.964461 9.02081 1.15765L9.76919 3.01235ZM13.6992 2.10529C14.1432 2.06852 14.5985 2.05 15.065 2.05V0.0499983C14.5455 0.0499983 14.0352 0.0706184 13.5341 0.112119L13.6992 2.10529ZM15.065 2.05C15.5315 2.05 15.9868 2.06852 16.4308 2.10529L16.5959 0.112119C16.0948 0.0706184 15.5845 0.0499983 15.065 0.0499983V2.05ZM19.0914 2.57869C19.5267 2.70189 19.9497 2.84648 20.3608 3.01235L21.1092 1.15765C20.6304 0.964461 20.1393 0.796712 19.636 0.654276L19.0914 2.57869ZM20.3608 3.01235C20.7494 3.16915 21.1224 3.34482 21.48 3.53919L22.435 1.78193C22.0089 1.55034 21.5668 1.34231 21.1092 1.15765L20.3608 3.01235ZM23.4828 4.96265C23.784 5.23688 24.0716 5.53127 24.3454 5.84618L25.8546 4.53382C25.5308 4.16141 25.189 3.81128 24.8293 3.48377L23.4828 4.96265ZM24.3526 5.85436C24.6433 6.18145 24.9179 6.53206 25.176 6.90672L26.8229 5.77198C26.5196 5.33168 26.1945 4.91606 25.8474 4.52564L24.3526 5.85436ZM26.462 9.29083C26.6339 9.70187 26.7928 10.1324 26.9386 10.5828L28.8414 9.96718C28.6795 9.46678 28.5016 8.98403 28.3072 8.51922L26.462 9.29083ZM26.9399 10.587C27.0255 10.8476 27.1054 11.1148 27.1795 11.3886L29.11 10.8661C29.0269 10.5591 28.937 10.2581 28.8401 9.96303L26.9399 10.587ZM27.5417 13.0356C27.6353 13.5761 27.7097 14.1383 27.7646 14.7226L29.7559 14.5353C29.6963 13.9026 29.6153 13.2889 29.5123 12.6944L27.5417 13.0356ZM27.8678 16.4337C27.8759 16.7163 27.88 17.0034 27.88 17.295H29.88C29.88 16.9849 29.8757 16.6787 29.867 16.3764L27.8678 16.4337ZM27.88 17.295C27.88 17.5882 27.8759 17.8771 27.8677 18.1617L29.8669 18.2192C29.8756 17.9149 29.88 17.6069 29.88 17.295H27.88ZM27.7636 19.8839C27.7084 20.471 27.6336 21.0372 27.5396 21.5826L29.5105 21.9223C29.6137 21.3236 29.695 20.7065 29.7548 20.0712L27.7636 19.8839ZM27.1773 23.2428C27.1034 23.5189 27.0238 23.7886 26.9386 24.0522L28.8414 24.6678C28.9375 24.3709 29.0268 24.0683 29.1093 23.7601L27.1773 23.2428ZM26.9399 24.048C26.7928 24.4962 26.632 24.926 26.458 25.3377L28.3001 26.1165C28.4966 25.6517 28.6765 25.1701 28.8401 24.672L26.9399 24.048ZM25.166 27.7253C24.9089 28.101 24.6353 28.4554 24.3454 28.7888L25.8546 30.1012C26.1963 29.7082 26.5169 29.2927 26.8165 28.8548L25.166 27.7253ZM24.3526 28.7806C24.0774 29.0902 23.7883 29.3801 23.4851 29.6506L24.8168 31.1428C25.1783 30.8202 25.5218 30.4756 25.8474 30.1094L24.3526 28.7806ZM21.4784 31.0544C21.1213 31.2466 20.7488 31.4211 20.3608 31.5776L21.1092 33.4324C21.5636 33.249 22.0027 33.0435 22.4262 32.8156L21.4784 31.0544ZM20.3608 31.5776C19.9497 31.7435 19.5267 31.8881 19.0914 32.0113L19.636 33.9357C20.1393 33.7933 20.6304 33.6255 21.1092 33.4324L20.3608 31.5776ZM16.4308 32.4847C15.9868 32.5215 15.5315 32.54 15.065 32.54V34.54C15.5845 34.54 16.0948 34.5194 16.5959 34.4779L16.4308 32.4847ZM15.065 26.465C14.6395 26.465 14.2431 26.4331 13.8744 26.3718L13.5462 28.3447C14.0331 28.4257 14.5399 28.465 15.065 28.465V26.465ZM11.7873 25.5404C11.4899 25.3286 11.2144 25.0778 10.9607 24.7851L9.44931 26.0949C9.80315 26.5032 10.1958 26.8623 10.6272 27.1695L11.7873 25.5404ZM10.969 24.7948C10.8332 24.6339 10.7063 24.462 10.5885 24.2786L8.90568 25.3594C9.06943 25.6144 9.24782 25.8565 9.44097 26.0852L10.969 24.7948ZM10.0128 23.0953C9.86821 22.6934 9.75194 22.2516 9.66648 21.7676L7.69695 22.1154C7.80011 22.6996 7.94392 23.2527 8.13086 23.7723L10.0128 23.0953ZM9.51251 20.3575C9.50088 20.1239 9.495 19.8831 9.495 19.635H7.495C7.495 19.9146 7.50162 20.1886 7.51498 20.457L9.51251 20.3575ZM9.495 19.635V18.465H7.495V19.635H9.495ZM9.495 16.125V14.955H7.495V16.125H9.495ZM9.495 14.955C9.495 14.7069 9.50088 14.4661 9.51251 14.2324L7.51498 14.133C7.50162 14.4014 7.495 14.6754 7.495 14.955H9.495ZM9.66648 12.8224C9.75194 12.3384 9.86821 11.8966 10.0128 11.4947L8.13086 10.8177C7.94392 11.3373 7.80011 11.8904 7.69695 12.4746L9.66648 12.8224ZM10.5885 10.3114C10.7063 10.128 10.8332 9.95607 10.969 9.79518L9.44097 8.50482C9.24782 8.73354 9.06943 8.97562 8.90568 9.23057L10.5885 10.3114ZM10.9607 9.80493C11.2144 9.51224 11.4899 9.26139 11.7873 9.04962L10.6272 7.42046C10.1958 7.72767 9.80315 8.08679 9.44931 8.49507L10.9607 9.80493ZM13.8744 8.21821C14.2431 8.15686 14.6395 8.125 15.065 8.125V6.125C14.5399 6.125 14.0331 6.16431 13.5462 6.24532L13.8744 8.21821ZM15.065 8.125C15.4882 8.125 15.8816 8.15652 16.2468 8.21712L16.5742 6.24411C16.0908 6.16388 15.5873 6.125 15.065 6.125V8.125ZM18.3083 9.0426C18.6002 9.25337 18.8695 9.50326 19.116 9.79518L20.644 8.50482C20.2962 8.09287 19.9078 7.73064 19.479 7.42104L18.3083 9.0426ZM19.1243 9.80493C19.2631 9.96505 19.3926 10.1359 19.5128 10.3179L21.1817 9.21585C21.0145 8.96254 20.8325 8.72214 20.6357 8.49507L19.1243 9.80493ZM20.1024 11.4958C20.251 11.8969 20.3705 12.3379 20.4584 12.8212L22.4261 12.4633C22.3195 11.8771 22.1709 11.3223 21.9779 10.8011L20.1024 11.4958ZM20.617 14.2316C20.6289 14.4655 20.635 14.7066 20.635 14.955H22.635C22.635 14.6741 22.6282 14.3988 22.6143 14.1292L20.617 14.2316ZM20.635 14.955V16.125H22.635V14.955H20.635ZM20.635 18.465V19.635H22.635V18.465H20.635ZM20.635 19.635C20.635 19.8834 20.6289 20.1245 20.617 20.3584L22.6143 20.4608C22.6282 20.1911 22.635 19.9159 22.635 19.635H20.635ZM20.4584 21.7688C20.3705 22.2521 20.251 22.6931 20.1024 23.0942L21.9779 23.7889C22.1709 23.2677 22.3195 22.7129 22.4261 22.1267L20.4584 21.7688ZM19.5128 24.2721C19.3926 24.4541 19.2631 24.6249 19.1243 24.7851L20.6357 26.0949C20.8325 25.8679 21.0145 25.6275 21.1817 25.3741L19.5128 24.2721ZM19.116 24.7948C18.8695 25.0867 18.6002 25.3366 18.3083 25.5474L19.479 27.169C19.9078 26.8594 20.2962 26.4971 20.644 26.0852L19.116 24.7948ZM16.2467 26.3729C15.8816 26.4335 15.4882 26.465 15.065 26.465V28.465C15.5873 28.465 16.0908 28.4261 16.5742 28.3459L16.2467 26.3729ZM40.4728 33L39.9969 33.1534L40.1086 33.5H40.4728V33ZM30.3478 1.59V1.09H29.6613L29.8719 1.7434L30.3478 1.59ZM37.2778 1.59L37.7553 1.44175L37.6461 1.09H37.2778V1.59ZM41.9578 16.665L42.4427 16.5432L42.4394 16.5299L42.4353 16.5168L41.9578 16.665ZM44.4328 26.52L43.9478 26.6418L44.0428 27.02H44.4328V26.52ZM44.5678 26.52V27.02H44.9612L45.0537 26.6376L44.5678 26.52ZM46.9528 16.665L46.4753 16.5168L46.4705 16.5319L46.4668 16.5474L46.9528 16.665ZM51.6328 1.59V1.09H51.2645L51.1553 1.44175L51.6328 1.59ZM58.3378 1.59L58.8133 1.74463L59.0262 1.09H58.3378V1.59ZM48.1228 33V33.5H48.4859L48.5983 33.1546L48.1228 33ZM40.9487 32.8466L40.6323 31.865L39.6805 32.1718L39.9969 33.1534L40.9487 32.8466ZM39.9994 29.9019L39.3666 27.9388L38.4149 28.2456L39.0477 30.2087L39.9994 29.9019ZM38.7338 25.9757L38.101 24.0125L37.1492 24.3193L37.782 26.2825L38.7338 25.9757ZM37.4682 22.0494L36.8354 20.0863L35.8836 20.3931L36.5164 22.3562L37.4682 22.0494ZM36.2026 18.1232L35.5698 16.16L34.618 16.4668L35.2508 18.43L36.2026 18.1232ZM34.9369 14.1969L34.3041 12.2338L33.3524 12.5406L33.9852 14.5037L34.9369 14.1969ZM33.6713 10.2707L33.0385 8.30753L32.0867 8.61434L32.7195 10.5775L33.6713 10.2707ZM32.4057 6.3444L31.7729 4.38128L30.8211 4.68808L31.4539 6.65121L32.4057 6.3444ZM31.1401 2.41815L30.8237 1.4366L29.8719 1.7434L30.1883 2.72496L31.1401 2.41815ZM30.3478 2.09H31.214V1.09H30.3478V2.09ZM32.9465 2.09H34.679V1.09H32.9465V2.09ZM36.4115 2.09H37.2778V1.09H36.4115V2.09ZM36.8003 1.73824L37.0928 2.68043L38.0478 2.38394L37.7553 1.44175L36.8003 1.73824ZM37.6778 4.56481L38.2628 6.44918L39.2178 6.15269L38.6328 4.26832L37.6778 4.56481ZM38.8478 8.33356L39.4328 10.2179L40.3878 9.92144L39.8028 8.03707L38.8478 8.33356ZM40.0178 12.1023L40.6028 13.9867L41.5578 13.6902L40.9728 11.8058L40.0178 12.1023ZM41.1878 15.8711L41.4803 16.8132L42.4353 16.5168L42.1428 15.5746L41.1878 15.8711ZM41.4728 16.7868L41.6791 17.608L42.649 17.3645L42.4427 16.5432L41.4728 16.7868ZM42.0916 19.2505L42.5041 20.893L43.474 20.6495L43.0615 19.007L42.0916 19.2505ZM42.9166 22.5355L43.3291 24.178L44.299 23.9345L43.8865 22.292L42.9166 22.5355ZM43.7416 25.8205L43.9478 26.6418L44.9177 26.3982L44.7115 25.577L43.7416 25.8205ZM44.4328 27.02H44.4665V26.02H44.4328V27.02ZM44.534 27.02H44.5678V26.02H44.534V27.02ZM45.0537 26.6376L45.2525 25.8164L44.2806 25.5811L44.0818 26.4024L45.0537 26.6376ZM45.65 24.1739L46.0475 22.5314L45.0756 22.2961L44.6781 23.9386L45.65 24.1739ZM46.445 20.8889L46.8425 19.2464L45.8706 19.0111L45.4731 20.6536L46.445 20.8889ZM47.24 17.6039L47.4387 16.7826L46.4668 16.5474L46.2681 17.3686L47.24 17.6039ZM47.4303 16.8132L47.7228 15.8711L46.7678 15.5746L46.4753 16.5168L47.4303 16.8132ZM48.3078 13.9867L48.8928 12.1023L47.9378 11.8058L47.3528 13.6902L48.3078 13.9867ZM49.4778 10.2179L50.0628 8.33356L49.1078 8.03707L48.5228 9.92144L49.4778 10.2179ZM50.6478 6.44918L51.2328 4.56481L50.2778 4.26832L49.6928 6.15269L50.6478 6.44918ZM51.8178 2.68043L52.1103 1.73824L51.1553 1.44175L50.8628 2.38394L51.8178 2.68043ZM51.6328 2.09H52.4709V1.09H51.6328V2.09ZM54.1471 2.09H55.8234V1.09H54.1471V2.09ZM57.4997 2.09H58.3378V1.09H57.4997V2.09ZM57.8623 1.43536L57.5431 2.41693L58.494 2.7262L58.8133 1.74463L57.8623 1.43536ZM56.9046 4.38005L56.2662 6.34318L57.2172 6.65245L57.8556 4.68932L56.9046 4.38005ZM55.6278 8.3063L54.9893 10.2694L55.9403 10.5787L56.5787 8.61557L55.6278 8.3063ZM54.3509 12.2326L53.7124 14.1957L54.6634 14.5049L55.3019 12.5418L54.3509 12.2326ZM53.074 16.1588L52.4356 18.1219L53.3865 18.4312L54.025 16.4681L53.074 16.1588ZM51.7971 20.0851L51.1587 22.0482L52.1097 22.3574L52.7481 20.3943L51.7971 20.0851ZM50.5203 24.0113L49.8818 25.9744L50.8328 26.2837L51.4712 24.3206L50.5203 24.0113ZM49.2434 27.9376L48.6049 29.9007L49.5559 30.2099L50.1944 28.2468L49.2434 27.9376ZM47.9665 31.8638L47.6473 32.8454L48.5983 33.1546L48.9175 32.1731L47.9665 31.8638ZM48.1228 32.5H47.1665V33.5H48.1228V32.5ZM45.254 32.5H43.3415V33.5H45.254V32.5ZM41.429 32.5H40.4728V33.5H41.429V32.5ZM40.4728 33L39.521 33.3068L39.7445 34H40.4728V33ZM30.3478 1.59V0.589999H28.9748L29.396 1.8968L30.3478 1.59ZM37.2778 1.59L38.2328 1.29351L38.0144 0.589999H37.2778V1.59ZM41.9578 16.665L42.9277 16.4214L42.921 16.3948L42.9128 16.3685L41.9578 16.665ZM44.4328 26.52L43.4629 26.7636L43.6529 27.52H44.4328V26.52ZM44.5678 26.52V27.52H45.3546L45.5397 26.7552L44.5678 26.52ZM46.9528 16.665L45.9977 16.3685L45.9883 16.3989L45.9808 16.4298L46.9528 16.665ZM51.6328 1.59V0.589999H50.8961L50.6777 1.29351L51.6328 1.59ZM58.3378 1.59L59.2887 1.89927L59.7145 0.589999H58.3378V1.59ZM48.1228 33V34H48.8491L49.0737 33.3093L48.1228 33ZM41.4245 32.6932L41.1081 31.7116L39.2046 32.3252L39.521 33.3068L41.4245 32.6932ZM40.4753 29.7485L39.8425 27.7854L37.939 28.399L38.5718 30.3621L40.4753 29.7485ZM39.2097 25.8223L38.5769 23.8591L36.6733 24.4727L37.3062 26.4359L39.2097 25.8223ZM37.9441 21.896L37.3113 19.9329L35.4077 20.5465L36.0405 22.5096L37.9441 21.896ZM36.6785 17.9698L36.0456 16.0066L34.1421 16.6202L34.7749 18.5834L36.6785 17.9698ZM35.4128 14.0435L34.78 12.0804L32.8765 12.694L33.5093 14.6571L35.4128 14.0435ZM34.1472 10.1173L33.5144 8.15413L31.6108 8.76774L32.2437 10.7309L34.1472 10.1173ZM32.8816 6.191L32.2488 4.22788L30.3452 4.84148L30.978 6.80461L32.8816 6.191ZM31.616 2.26475L31.2995 1.2832L29.396 1.8968L29.7124 2.87836L31.616 2.26475ZM30.3478 2.59H31.214V0.589999H30.3478V2.59ZM32.9465 2.59H34.679V0.589999H32.9465V2.59ZM36.4115 2.59H37.2778V0.589999H36.4115V2.59ZM36.3227 1.88649L36.6152 2.82868L38.5253 2.2357L38.2328 1.29351L36.3227 1.88649ZM37.2002 4.71305L37.7852 6.59743L39.6953 6.00445L39.1103 4.12007L37.2002 4.71305ZM38.3702 8.4818L38.9552 10.3662L40.8653 9.7732L40.2803 7.88882L38.3702 8.4818ZM39.5402 12.2506L40.1252 14.1349L42.0353 13.5419L41.4503 11.6576L39.5402 12.2506ZM40.7102 16.0193L41.0027 16.9615L42.9128 16.3685L42.6203 15.4263L40.7102 16.0193ZM40.9879 16.9086L41.1941 17.7298L43.1339 17.2427L42.9277 16.4214L40.9879 16.9086ZM41.6066 19.3723L42.0191 21.0148L43.9589 20.5277L43.5464 18.8852L41.6066 19.3723ZM42.4316 22.6573L42.8441 24.2998L44.7839 23.8127L44.3714 22.1702L42.4316 22.6573ZM43.2566 25.9423L43.4629 26.7636L45.4027 26.2764L45.1964 25.4552L43.2566 25.9423ZM44.4328 27.52H44.4665V25.52H44.4328V27.52ZM44.534 27.52H44.5678V25.52H44.534V27.52ZM45.5397 26.7552L45.7385 25.934L43.7946 25.4635L43.5958 26.2848L45.5397 26.7552ZM46.136 24.2915L46.5335 22.649L44.5896 22.1785L44.1921 23.821L46.136 24.2915ZM46.931 21.0065L47.3285 19.364L45.3846 18.8935L44.9871 20.536L46.931 21.0065ZM47.726 17.7215L47.9247 16.9002L45.9808 16.4298L45.7821 17.251L47.726 17.7215ZM47.9078 16.9615L48.2003 16.0193L46.2902 15.4263L45.9977 16.3685L47.9078 16.9615ZM48.7853 14.1349L49.3703 12.2506L47.4602 11.6576L46.8752 13.5419L48.7853 14.1349ZM49.9553 10.3662L50.5403 8.4818L48.6302 7.88882L48.0452 9.7732L49.9553 10.3662ZM51.1253 6.59743L51.7103 4.71305L49.8002 4.12007L49.2152 6.00445L51.1253 6.59743ZM52.2953 2.82867L52.5878 1.88649L50.6777 1.29351L50.3852 2.2357L52.2953 2.82867ZM51.6328 2.59H52.4709V0.589999H51.6328V2.59ZM54.1471 2.59H55.8234V0.589999H54.1471V2.59ZM57.4997 2.59H58.3378V0.589999H57.4997V2.59ZM57.3868 1.28073L57.0676 2.26229L58.9695 2.88083L59.2887 1.89927L57.3868 1.28073ZM56.4291 4.22542L55.7907 6.18854L57.6927 6.80708L58.3311 4.84396L56.4291 4.22542ZM55.1523 8.15167L54.5138 10.1148L56.4158 10.7333L57.0542 8.77021L55.1523 8.15167ZM53.8754 12.0779L53.237 14.041L55.1389 14.6596L55.7773 12.6965L53.8754 12.0779ZM52.5985 16.0042L51.9601 17.9673L53.862 18.5858L54.5005 16.6227L52.5985 16.0042ZM51.3216 19.9304L50.6832 21.8935L52.5852 22.5121L53.2236 20.549L51.3216 19.9304ZM50.0448 23.8567L49.4063 25.8198L51.3083 26.4383L51.9467 24.4752L50.0448 23.8567ZM48.7679 27.7829L48.1295 29.746L50.0314 30.3646L50.6698 28.4015L48.7679 27.7829ZM47.491 31.7092L47.1718 32.6907L49.0737 33.3093L49.393 32.3277L47.491 31.7092ZM48.1228 32H47.1665V34H48.1228V32ZM45.254 32H43.3415V34H45.254V32ZM41.429 32H40.4728V34H41.429V32ZM62.4504 33H61.9504V33.5H62.4504V33ZM62.4504 1.59V1.09H61.9504V1.59H62.4504ZM83.8254 1.59H84.3254V1.09H83.8254V1.59ZM83.8254 7.665V8.165H84.3254V7.665H83.8254ZM69.2904 7.665V7.165H68.7904V7.665H69.2904ZM69.2904 14.1H68.7904V14.6H69.2904V14.1ZM81.7554 14.1H82.2554V13.6H81.7554V14.1ZM81.7554 20.13V20.63H82.2554V20.13H81.7554ZM69.2904 20.13V19.63H68.7904V20.13H69.2904ZM69.2904 26.925H68.7904V27.425H69.2904V26.925ZM83.8254 26.925H84.3254V26.425H83.8254V26.925ZM83.8254 33V33.5H84.3254V33H83.8254ZM62.9504 33V32.0184H61.9504V33H62.9504ZM62.9504 30.0553V28.0922H61.9504V30.0553H62.9504ZM62.9504 26.1291V24.1659H61.9504V26.1291H62.9504ZM62.9504 22.2028V20.2397H61.9504V22.2028H62.9504ZM62.9504 18.2766V16.3134H61.9504V18.2766H62.9504ZM62.9504 14.3503V12.3872H61.9504V14.3503H62.9504ZM62.9504 10.4241V8.46094H61.9504V10.4241H62.9504ZM62.9504 6.49781V4.53469H61.9504V6.49781H62.9504ZM62.9504 2.57156V1.59H61.9504V2.57156H62.9504ZM62.4504 2.09H63.5191V1.09H62.4504V2.09ZM65.6566 2.09H67.7941V1.09H65.6566V2.09ZM69.9316 2.09H72.0691V1.09H69.9316V2.09ZM74.2066 2.09H76.3441V1.09H74.2066V2.09ZM78.4816 2.09H80.6191V1.09H78.4816V2.09ZM82.7566 2.09H83.8254V1.09H82.7566V2.09ZM83.3254 1.59V2.34937H84.3254V1.59H83.3254ZM83.3254 3.86812V5.38687H84.3254V3.86812H83.3254ZM83.3254 6.90562V7.665H84.3254V6.90562H83.3254ZM83.8254 7.165H82.9169V8.165H83.8254V7.165ZM81.1 7.165H79.2832V8.165H81.1V7.165ZM77.4663 7.165H75.6494V8.165H77.4663V7.165ZM73.8325 7.165H72.0157V8.165H73.8325V7.165ZM70.1988 7.165H69.2904V8.165H70.1988V7.165ZM68.7904 7.665V8.46937H69.7904V7.665H68.7904ZM68.7904 10.0781V11.6869H69.7904V10.0781H68.7904ZM68.7904 13.2956V14.1H69.7904V13.2956H68.7904ZM69.2904 14.6H70.3291V13.6H69.2904V14.6ZM72.4066 14.6H74.4841V13.6H72.4066V14.6ZM76.5616 14.6H78.6391V13.6H76.5616V14.6ZM80.7166 14.6H81.7554V13.6H80.7166V14.6ZM81.2554 14.1V14.8537H82.2554V14.1H81.2554ZM81.2554 16.3612V17.8687H82.2554V16.3612H81.2554ZM81.2554 19.3762V20.13H82.2554V19.3762H81.2554ZM81.7554 19.63H80.7166V20.63H81.7554V19.63ZM78.6391 19.63H76.5616V20.63H78.6391V19.63ZM74.4841 19.63H72.4066V20.63H74.4841V19.63ZM70.3291 19.63H69.2904V20.63H70.3291V19.63ZM68.7904 20.13V20.9794H69.7904V20.13H68.7904ZM68.7904 22.6781V24.3769H69.7904V22.6781H68.7904ZM68.7904 26.0756V26.925H69.7904V26.0756H68.7904ZM69.2904 27.425H70.1988V26.425H69.2904V27.425ZM72.0157 27.425H73.8325V26.425H72.0157V27.425ZM75.6494 27.425H77.4663V26.425H75.6494V27.425ZM79.2832 27.425H81.1V26.425H79.2832V27.425ZM82.9169 27.425H83.8254V26.425H82.9169V27.425ZM83.3254 26.925V27.6844H84.3254V26.925H83.3254ZM83.3254 29.2031V30.7219H84.3254V29.2031H83.3254ZM83.3254 32.2406V33H84.3254V32.2406H83.3254ZM83.8254 32.5H82.7566V33.5H83.8254V32.5ZM80.6191 32.5H78.4816V33.5H80.6191V32.5ZM76.3441 32.5H74.2066V33.5H76.3441V32.5ZM72.0691 32.5H69.9316V33.5H72.0691V32.5ZM67.7941 32.5H65.6566V33.5H67.7941V32.5ZM63.5191 32.5H62.4504V33.5H63.5191V32.5ZM62.4504 33H61.4504V34H62.4504V33ZM62.4504 1.59V0.589999H61.4504V1.59H62.4504ZM83.8254 1.59H84.8254V0.589999H83.8254V1.59ZM83.8254 7.665V8.665H84.8254V7.665H83.8254ZM69.2904 7.665V6.665H68.2904V7.665H69.2904ZM69.2904 14.1H68.2904V15.1H69.2904V14.1ZM81.7554 14.1H82.7554V13.1H81.7554V14.1ZM81.7554 20.13V21.13H82.7554V20.13H81.7554ZM69.2904 20.13V19.13H68.2904V20.13H69.2904ZM69.2904 26.925H68.2904V27.925H69.2904V26.925ZM83.8254 26.925H84.8254V25.925H83.8254V26.925ZM83.8254 33V34H84.8254V33H83.8254ZM63.4504 33V32.0184H61.4504V33H63.4504ZM63.4504 30.0553V28.0922H61.4504V30.0553H63.4504ZM63.4504 26.1291V24.1659H61.4504V26.1291H63.4504ZM63.4504 22.2028V20.2397H61.4504V22.2028H63.4504ZM63.4504 18.2766V16.3134H61.4504V18.2766H63.4504ZM63.4504 14.3503V12.3872H61.4504V14.3503H63.4504ZM63.4504 10.4241V8.46094H61.4504V10.4241H63.4504ZM63.4504 6.49781V4.53469H61.4504V6.49781H63.4504ZM63.4504 2.57156V1.59H61.4504V2.57156H63.4504ZM62.4504 2.59H63.5191V0.589999H62.4504V2.59ZM65.6566 2.59H67.7941V0.589999H65.6566V2.59ZM69.9316 2.59H72.0691V0.589999H69.9316V2.59ZM74.2066 2.59H76.3441V0.589999H74.2066V2.59ZM78.4816 2.59H80.6191V0.589999H78.4816V2.59ZM82.7566 2.59H83.8254V0.589999H82.7566V2.59ZM82.8254 1.59V2.34937H84.8254V1.59H82.8254ZM82.8254 3.86812V5.38687H84.8254V3.86812H82.8254ZM82.8254 6.90562V7.665H84.8254V6.90562H82.8254ZM83.8254 6.665H82.9169V8.665H83.8254V6.665ZM81.1 6.665H79.2832V8.665H81.1V6.665ZM77.4663 6.665H75.6494V8.665H77.4663V6.665ZM73.8325 6.665H72.0157V8.665H73.8325V6.665ZM70.1988 6.665H69.2904V8.665H70.1988V6.665ZM68.2904 7.665V8.46937H70.2904V7.665H68.2904ZM68.2904 10.0781V11.6869H70.2904V10.0781H68.2904ZM68.2904 13.2956V14.1H70.2904V13.2956H68.2904ZM69.2904 15.1H70.3291V13.1H69.2904V15.1ZM72.4066 15.1H74.4841V13.1H72.4066V15.1ZM76.5616 15.1H78.6391V13.1H76.5616V15.1ZM80.7166 15.1H81.7554V13.1H80.7166V15.1ZM80.7554 14.1V14.8537H82.7554V14.1H80.7554ZM80.7554 16.3612V17.8687H82.7554V16.3612H80.7554ZM80.7554 19.3762V20.13H82.7554V19.3762H80.7554ZM81.7554 19.13H80.7166V21.13H81.7554V19.13ZM78.6391 19.13H76.5616V21.13H78.6391V19.13ZM74.4841 19.13H72.4066V21.13H74.4841V19.13ZM70.3291 19.13H69.2904V21.13H70.3291V19.13ZM68.2904 20.13V20.9794H70.2904V20.13H68.2904ZM68.2904 22.6781V24.3769H70.2904V22.6781H68.2904ZM68.2904 26.0756V26.925H70.2904V26.0756H68.2904ZM69.2904 27.925H70.1988V25.925H69.2904V27.925ZM72.0157 27.925H73.8325V25.925H72.0157V27.925ZM75.6494 27.925H77.4663V25.925H75.6494V27.925ZM79.2832 27.925H81.1V25.925H79.2832V27.925ZM82.9169 27.925H83.8254V25.925H82.9169V27.925ZM82.8254 26.925V27.6844H84.8254V26.925H82.8254ZM82.8254 29.2031V30.7219H84.8254V29.2031H82.8254ZM82.8254 32.2406V33H84.8254V32.2406H82.8254ZM83.8254 32H82.7566V34H83.8254V32ZM80.6191 32H78.4816V34H80.6191V32ZM76.3441 32H74.2066V34H76.3441V32ZM72.0691 32H69.9316V34H72.0691V32ZM67.7941 32H65.6566V34H67.7941V32ZM63.5191 32H62.4504V34H63.5191V32ZM96.6243 33V33.5H97.1243V33H96.6243ZM89.7843 33H89.2843V33.5H89.7843V33ZM89.7843 1.59V1.09H89.2843V1.59H89.7843ZM108.594 2.31L108.784 1.84741L108.784 1.84741L108.594 2.31ZM111.564 4.38L111.193 4.71448L111.199 4.72099L111.205 4.7273L111.564 4.38ZM112.734 17.205L112.306 16.9465L112.303 16.9526L112.734 17.205ZM108.459 20.67L108.284 20.2018L107.764 20.3968L108.012 20.8936L108.459 20.67ZM114.624 33V33.5H115.433L115.072 32.7764L114.624 33ZM107.019 33L106.568 33.2151L106.704 33.5H107.019V33ZM101.529 21.48L101.981 21.2649L101.845 20.98H101.529V21.48ZM96.6243 21.48V20.98H96.1243V21.48H96.6243ZM106.209 14.955L106.543 15.3276L106.544 15.3266L106.209 14.955ZM106.209 8.34L105.865 8.70297L105.875 8.71224L105.886 8.72097L106.209 8.34ZM96.6243 7.53V7.03H96.1243V7.53H96.6243ZM96.6243 15.72H96.1243V16.22H96.6243V15.72ZM96.6243 32.5H95.7693V33.5H96.6243V32.5ZM94.0593 32.5H92.3493V33.5H94.0593V32.5ZM90.6393 32.5H89.7843V33.5H90.6393V32.5ZM90.2843 33V32.0184H89.2843V33H90.2843ZM90.2843 30.0553V28.0922H89.2843V30.0553H90.2843ZM90.2843 26.1291V24.1659H89.2843V26.1291H90.2843ZM90.2843 22.2028V20.2397H89.2843V22.2028H90.2843ZM90.2843 18.2766V16.3134H89.2843V18.2766H90.2843ZM90.2843 14.3503V12.3872H89.2843V14.3503H90.2843ZM90.2843 10.4241V8.46094H89.2843V10.4241H90.2843ZM90.2843 6.49781V4.53469H89.2843V6.49781H90.2843ZM90.2843 2.57156V1.59H89.2843V2.57156H90.2843ZM89.7843 2.09H90.7153V1.09H89.7843V2.09ZM92.5771 2.09H94.439V1.09H92.5771V2.09ZM96.3009 2.09H98.1628V1.09H96.3009V2.09ZM100.025 2.09H101.887V1.09H100.025V2.09ZM103.748 2.09H104.679V1.09H103.748V2.09ZM104.679 2.09C105.007 2.09 105.327 2.10294 105.639 2.1287L105.721 1.13209C105.381 1.10398 105.034 1.09 104.679 1.09V2.09ZM107.511 2.46334C107.818 2.55107 108.116 2.65418 108.405 2.77258L108.784 1.84741C108.461 1.71468 108.128 1.59951 107.786 1.50181L107.511 2.46334ZM108.405 2.77258C108.675 2.88341 108.934 3.00578 109.183 3.1396L109.657 2.25911C109.376 2.10829 109.086 1.9711 108.784 1.84741L108.405 2.77258ZM110.585 4.11326C110.798 4.30096 111.001 4.50133 111.193 4.71448L111.936 4.04552C111.719 3.80394 111.489 3.5764 111.247 3.36299L110.585 4.11326ZM111.205 4.7273C111.407 4.93685 111.597 5.15756 111.776 5.38952L112.568 4.77993C112.367 4.5184 112.152 4.2693 111.924 4.0327L111.205 4.7273ZM112.688 6.88637C112.813 7.14753 112.926 7.41929 113.03 7.70179L113.969 7.35821C113.855 7.04745 113.729 6.74688 113.591 6.45665L112.688 6.88637ZM113.03 7.70179C113.142 8.00831 113.24 8.32421 113.323 8.64961L114.292 8.40236C114.2 8.04518 114.093 7.69709 113.969 7.35821L113.03 7.70179ZM113.638 10.6199C113.662 10.9469 113.674 11.2819 113.674 11.625H114.674C114.674 11.2582 114.661 10.8985 114.635 10.5459L113.638 10.6199ZM113.674 11.625C113.674 12.1077 113.649 12.5744 113.598 13.0253L114.592 13.1371C114.647 12.647 114.674 12.1429 114.674 11.625H113.674ZM112.926 15.7132C112.75 16.1421 112.544 16.5531 112.306 16.9466L113.162 17.4634C113.427 17.0256 113.656 16.5684 113.851 16.0922L112.926 15.7132ZM112.303 16.9526C112.079 17.3353 111.825 17.6902 111.541 18.0178L112.296 18.6729C112.622 18.2978 112.911 17.8925 113.166 17.4574L112.303 16.9526ZM109.495 19.6493C109.12 19.8555 108.716 20.0398 108.284 20.2018L108.635 21.1382C109.109 20.9604 109.556 20.7566 109.976 20.526L109.495 19.6493ZM108.012 20.8936L108.526 21.9211L109.42 21.4739L108.907 20.4464L108.012 20.8936ZM109.553 23.9761L110.581 26.0311L111.475 25.5839L110.448 23.5289L109.553 23.9761ZM111.608 28.0861L112.636 30.1411L113.53 29.6939L112.503 27.6389L111.608 28.0861ZM113.663 32.1961L114.177 33.2236L115.072 32.7764L114.558 31.7489L113.663 32.1961ZM114.624 32.5H113.674V33.5H114.624V32.5ZM111.772 32.5H109.871V33.5H111.772V32.5ZM107.97 32.5H107.019V33.5H107.97V32.5ZM107.471 32.7849L107.013 31.8249L106.11 32.2551L106.568 33.2151L107.471 32.7849ZM106.098 29.9049L105.183 27.9849L104.28 28.4151L105.195 30.3351L106.098 29.9049ZM104.268 26.0649L103.353 24.1449L102.45 24.5751L103.365 26.4951L104.268 26.0649ZM102.438 22.2249L101.981 21.2649L101.078 21.6951L101.535 22.6551L102.438 22.2249ZM101.529 20.98H100.303V21.98H101.529V20.98ZM97.8506 20.98H96.6243V21.98H97.8506V20.98ZM96.1243 21.48V22.44H97.1243V21.48H96.1243ZM96.1243 24.36V26.28H97.1243V24.36H96.1243ZM96.1243 28.2V30.12H97.1243V28.2H96.1243ZM96.1243 32.04V33H97.1243V32.04H96.1243ZM103.824 15.22H102.924V16.22H103.824V15.22ZM101.124 15.22H99.3243V16.22H101.124V15.22ZM97.5243 15.22H96.6243V16.22H97.5243V15.22ZM97.1243 15.72V14.6962H96.1243V15.72H97.1243ZM97.1243 12.6487V10.6012H96.1243V12.6487H97.1243ZM97.1243 8.55375V7.53H96.1243V8.55375H97.1243ZM96.6243 8.03H97.5243V7.03H96.6243V8.03ZM99.3243 8.03H101.124V7.03H99.3243V8.03ZM102.924 8.03H103.824V7.03H102.924V8.03ZM103.824 8.03C104.031 8.03 104.224 8.04208 104.404 8.06548L104.533 7.0738C104.306 7.04435 104.069 7.03 103.824 7.03V8.03ZM105.445 8.39269C105.6 8.48027 105.739 8.58363 105.865 8.70297L106.553 7.97702C106.367 7.80104 106.162 7.64945 105.938 7.52246L105.445 8.39269ZM105.886 8.72097C106.014 8.83041 106.125 8.95397 106.218 9.09243L107.048 8.53413C106.903 8.31926 106.731 8.1273 106.533 7.95903L105.886 8.72097ZM106.571 10.0718C106.596 10.2449 106.609 10.4324 106.609 10.635H107.609C107.609 10.3896 107.593 10.1538 107.561 9.9282L106.571 10.0718ZM106.609 10.635V11.13H107.609V10.635H106.609ZM106.609 12.12V12.615H107.609V12.12H106.609ZM106.609 12.615C106.609 12.82 106.596 13.0105 106.57 13.1872L107.56 13.3317C107.593 13.1024 107.609 12.8634 107.609 12.615H106.609ZM106.211 14.192C106.117 14.3361 106.005 14.4663 105.875 14.5834L106.544 15.3266C106.737 15.1525 106.906 14.9566 107.048 14.7397L106.211 14.192ZM105.876 14.5824C105.749 14.6958 105.608 14.7945 105.45 14.8782L105.919 15.7613C106.146 15.6409 106.354 15.4963 106.543 15.3276L105.876 14.5824ZM104.403 15.1868C104.223 15.2087 104.03 15.22 103.824 15.22V16.22C104.066 16.22 104.3 16.2067 104.524 16.1795L104.403 15.1868ZM96.6243 33V34H97.6243V33H96.6243ZM89.7843 33H88.7843V34H89.7843V33ZM89.7843 1.59V0.589999H88.7843V1.59H89.7843ZM108.594 2.31L108.974 1.38483L108.974 1.38483L108.594 2.31ZM111.564 4.38L110.821 5.04896L110.833 5.06199L110.845 5.07459L111.564 4.38ZM112.734 17.205L111.878 16.6881L111.871 16.7001L112.734 17.205ZM108.459 20.67L108.108 19.7337L107.068 20.1237L107.565 21.1172L108.459 20.67ZM114.624 33V34H116.242L115.519 32.5528L114.624 33ZM107.019 33L106.117 33.4302L106.388 34H107.019V33ZM101.529 21.48L102.432 21.0498L102.161 20.48H101.529V21.48ZM96.6243 21.48V20.48H95.6243V21.48H96.6243ZM106.209 14.955L106.876 15.7002L106.878 15.6983L106.209 14.955ZM106.209 8.34L105.522 9.06595L105.541 9.08448L105.562 9.10194L106.209 8.34ZM96.6243 7.53V6.53H95.6243V7.53H96.6243ZM96.6243 15.72H95.6243V16.72H96.6243V15.72ZM96.6243 32H95.7693V34H96.6243V32ZM94.0593 32H92.3493V34H94.0593V32ZM90.6393 32H89.7843V34H90.6393V32ZM90.7843 33V32.0184H88.7843V33H90.7843ZM90.7843 30.0553V28.0922H88.7843V30.0553H90.7843ZM90.7843 26.1291V24.1659H88.7843V26.1291H90.7843ZM90.7843 22.2028V20.2397H88.7843V22.2028H90.7843ZM90.7843 18.2766V16.3134H88.7843V18.2766H90.7843ZM90.7843 14.3503V12.3872H88.7843V14.3503H90.7843ZM90.7843 10.4241V8.46094H88.7843V10.4241H90.7843ZM90.7843 6.49781V4.53469H88.7843V6.49781H90.7843ZM90.7843 2.57156V1.59H88.7843V2.57156H90.7843ZM89.7843 2.59H90.7153V0.589999H89.7843V2.59ZM92.5771 2.59H94.439V0.589999H92.5771V2.59ZM96.3009 2.59H98.1628V0.589999H96.3009V2.59ZM100.025 2.59H101.887V0.589999H100.025V2.59ZM103.748 2.59H104.679V0.589999H103.748V2.59ZM104.679 2.59C104.994 2.59 105.3 2.60243 105.598 2.627L105.762 0.633789C105.408 0.604503 105.047 0.589999 104.679 0.589999V2.59ZM107.374 2.9441C107.663 3.02686 107.944 3.12394 108.215 3.23517L108.974 1.38483C108.633 1.24493 108.283 1.12373 107.923 1.02104L107.374 2.9441ZM108.215 3.23517C108.469 3.33957 108.713 3.45453 108.945 3.57984L109.894 1.81887C109.598 1.65955 109.291 1.51494 108.974 1.38483L108.215 3.23517ZM110.255 4.4884C110.453 4.66325 110.642 4.85003 110.821 5.04896L112.308 3.71103C112.077 3.45525 111.834 3.21411 111.577 2.98785L110.255 4.4884ZM110.845 5.07459C111.034 5.27063 111.212 5.47714 111.379 5.69431L112.965 4.47514C112.752 4.19882 112.525 3.93552 112.284 3.6854L110.845 5.07459ZM112.237 7.10124C112.354 7.34785 112.462 7.60521 112.56 7.87358L114.438 7.18642C114.32 6.86152 114.188 6.54656 114.043 6.24178L112.237 7.10124ZM112.56 7.87358C112.666 8.16392 112.759 8.46372 112.838 8.77323L114.776 8.27873C114.681 7.90567 114.568 7.54149 114.438 7.18642L112.56 7.87358ZM113.139 10.6568C113.163 10.9711 113.174 11.2937 113.174 11.625H115.174C115.174 11.2464 115.161 10.8744 115.134 10.509L113.139 10.6568ZM113.174 11.625C113.174 12.09 113.15 12.538 113.101 12.9693L115.089 13.1931C115.146 12.6834 115.174 12.1606 115.174 11.625H113.174ZM112.463 15.5237C112.297 15.9289 112.102 16.3169 111.878 16.6881L113.59 17.7219C113.868 17.2618 114.109 16.7816 114.314 16.2817L112.463 15.5237ZM111.871 16.7001C111.663 17.0567 111.427 17.3864 111.163 17.6902L112.674 19.0004C113.02 18.6016 113.328 18.171 113.598 17.7099L111.871 16.7001ZM109.255 19.211C108.901 19.4049 108.519 19.5794 108.108 19.7337L108.81 21.6063C109.305 21.4208 109.774 21.2071 110.217 20.9644L109.255 19.211ZM107.565 21.1172L108.079 22.1447L109.868 21.2503L109.354 20.2228L107.565 21.1172ZM109.106 24.1997L110.134 26.2547L111.923 25.3603L110.895 23.3053L109.106 24.1997ZM111.161 28.3097L112.189 30.3647L113.978 29.4703L112.95 27.4153L111.161 28.3097ZM113.216 32.4197L113.73 33.4472L115.519 32.5528L115.005 31.5253L113.216 32.4197ZM114.624 32H113.674V34H114.624V32ZM111.772 32H109.871V34H111.772V32ZM107.97 32H107.019V34H107.97V32ZM107.922 32.5698L107.465 31.6098L105.659 32.4702L106.117 33.4302L107.922 32.5698ZM106.55 29.6898L105.635 27.7698L103.829 28.6302L104.744 30.5502L106.55 29.6898ZM104.72 25.8498L103.805 23.9298L101.999 24.7902L102.914 26.7102L104.72 25.8498ZM102.89 22.0098L102.432 21.0498L100.627 21.9102L101.084 22.8702L102.89 22.0098ZM101.529 20.48H100.303V22.48H101.529V20.48ZM97.8506 20.48H96.6243V22.48H97.8506V20.48ZM95.6243 21.48V22.44H97.6243V21.48H95.6243ZM95.6243 24.36V26.28H97.6243V24.36H95.6243ZM95.6243 28.2V30.12H97.6243V28.2H95.6243ZM95.6243 32.04V33H97.6243V32.04H95.6243ZM103.824 14.72H102.924V16.72H103.824V14.72ZM101.124 14.72H99.3243V16.72H101.124V14.72ZM97.5243 14.72H96.6243V16.72H97.5243V14.72ZM97.6243 15.72V14.6962H95.6243V15.72H97.6243ZM97.6243 12.6487V10.6012H95.6243V12.6487H97.6243ZM97.6243 8.55375V7.53H95.6243V8.55375H97.6243ZM96.6243 8.53H97.5243V6.53H96.6243V8.53ZM99.3243 8.53H101.124V6.53H99.3243V8.53ZM102.924 8.53H103.824V6.53H102.924V8.53ZM103.824 8.53C104.011 8.53 104.183 8.54095 104.34 8.56132L104.597 6.57796C104.347 6.54548 104.089 6.53 103.824 6.53V8.53ZM105.199 8.82781C105.319 8.89568 105.426 8.97492 105.522 9.06595L106.897 7.61405C106.681 7.40975 106.443 7.23405 106.184 7.08734L105.199 8.82781ZM105.562 9.10194C105.656 9.18197 105.736 9.27132 105.803 9.37158L107.462 8.25499C107.292 8.00191 107.09 7.77574 106.857 7.57806L105.562 9.10194ZM106.076 10.1436C106.098 10.2905 106.109 10.4538 106.109 10.635H108.109C108.109 10.3682 108.092 10.1082 108.056 9.8564L106.076 10.1436ZM106.109 10.635V11.13H108.109V10.635H106.109ZM106.109 12.12V12.615H108.109V12.12H106.109ZM106.109 12.615C106.109 12.7983 106.097 12.9645 106.075 13.115L108.054 13.4039C108.092 13.1484 108.109 12.885 108.109 12.615H106.109ZM105.793 13.9181C105.722 14.0258 105.639 14.1233 105.54 14.2117L106.878 15.6983C107.104 15.4955 107.3 15.2669 107.466 15.0136L105.793 13.9181ZM105.543 14.2098C105.447 14.2956 105.338 14.3713 105.215 14.4366L106.154 16.2029C106.415 16.064 106.657 15.8966 106.876 15.7002L105.543 14.2098ZM104.343 14.6904C104.184 14.7097 104.012 14.72 103.824 14.72V16.72C104.085 16.72 104.338 16.7057 104.584 16.6758L104.343 14.6904ZM124.441 33L123.954 33.1104L124.042 33.5H124.441V33ZM117.331 1.59V1.09H116.706L116.844 1.70039L117.331 1.59ZM124.081 1.59L124.572 1.49335L124.492 1.09H124.081V1.59ZM127.051 16.665L127.543 16.5713L127.542 16.5684L127.051 16.665ZM128.716 25.395L128.225 25.4887L128.303 25.895H128.716V25.395ZM128.851 25.395V25.895H129.251L129.339 25.5056L128.851 25.395ZM130.831 16.665L130.344 16.553L130.344 16.5544L130.831 16.665ZM134.296 1.59V1.09H133.898L133.809 1.47799L134.296 1.59ZM141.766 1.59L142.253 1.47661L142.163 1.09H141.766V1.59ZM145.276 16.665L145.765 16.5568L145.763 16.5516L145.276 16.665ZM147.211 25.395L146.723 25.5032L146.81 25.895H147.211V25.395ZM147.346 25.395V25.895H147.76L147.838 25.4887L147.346 25.395ZM149.011 16.665L148.521 16.5669L148.52 16.5713L149.011 16.665ZM152.026 1.59V1.09H151.616L151.536 1.49194L152.026 1.59ZM158.506 1.59L158.993 1.70304L159.136 1.09H158.506V1.59ZM151.216 33V33.5H151.614L151.703 33.113L151.216 33ZM143.431 33L142.944 33.1134L143.034 33.5H143.431V33ZM139.471 15.99L138.983 16.0985L138.984 16.1034L139.471 15.99ZM137.941 9.105L138.429 8.99653L138.342 8.605H137.941V9.105ZM137.806 9.105V8.605H137.408L137.319 8.9935L137.806 9.105ZM136.231 15.99L136.718 16.1034L136.719 16.1015L136.231 15.99ZM132.271 33V33.5H132.668L132.758 33.1134L132.271 33ZM124.929 32.8896L124.707 31.908L123.732 32.1288L123.954 33.1104L124.929 32.8896ZM124.262 29.9449L123.818 27.9818L122.843 28.2026L123.287 30.1657L124.262 29.9449ZM123.374 26.0187L122.929 24.0555L121.954 24.2763L122.398 26.2394L123.374 26.0187ZM122.485 22.0924L122.041 20.1293L121.065 20.3501L121.51 22.3132L122.485 22.0924ZM121.596 18.1662L121.152 16.203L120.177 16.4238L120.621 18.3869L121.596 18.1662ZM120.707 14.2399L120.263 12.2768L119.288 12.4976L119.732 14.4607L120.707 14.2399ZM119.819 10.3137L119.374 8.35055L118.399 8.57133L118.843 10.5344L119.819 10.3137ZM118.93 6.38743L118.486 4.4243L117.51 4.64508L117.955 6.6082L118.93 6.38743ZM118.041 2.46118L117.819 1.47961L116.844 1.70039L117.066 2.68195L118.041 2.46118ZM117.331 2.09H118.175V1.09H117.331V2.09ZM119.863 2.09H121.55V1.09H119.863V2.09ZM123.238 2.09H124.081V1.09H123.238V2.09ZM123.591 1.68665L123.776 2.62884L124.758 2.43554L124.572 1.49335L123.591 1.68665ZM124.148 4.51321L124.519 6.39759L125.5 6.20429L125.129 4.31991L124.148 4.51321ZM124.89 8.28196L125.261 10.1663L126.243 9.97304L125.871 8.08866L124.89 8.28196ZM125.633 12.0507L126.004 13.9351L126.985 13.7418L126.614 11.8574L125.633 12.0507ZM126.375 15.8195L126.561 16.7616L127.542 16.5684L127.356 15.6262L126.375 15.8195ZM126.56 16.7587L126.768 17.8499L127.751 17.6626L127.543 16.5713L126.56 16.7587ZM127.185 20.0324L127.601 22.2149L128.583 22.0276L128.167 19.8451L127.185 20.0324ZM128.017 24.3974L128.225 25.4887L129.208 25.3013L128.999 24.2101L128.017 24.3974ZM128.716 25.895H128.75V24.895H128.716V25.895ZM128.818 25.895H128.851V24.895H128.818V25.895ZM129.339 25.5056L129.586 24.4143L128.611 24.1932L128.364 25.2844L129.339 25.5056ZM130.081 22.2318L130.576 20.0493L129.601 19.8282L129.106 22.0107L130.081 22.2318ZM131.071 17.8668L131.319 16.7756L130.344 16.5544L130.096 17.6457L131.071 17.8668ZM131.319 16.777L131.535 15.8348L130.561 15.6108L130.344 16.553L131.319 16.777ZM131.968 13.9504L132.401 12.0661L131.427 11.8421L130.994 13.7264L131.968 13.9504ZM132.835 10.1817L133.268 8.29732L132.293 8.07331L131.86 9.95768L132.835 10.1817ZM133.701 6.41294L134.134 4.52857L133.159 4.30456L132.726 6.18893L133.701 6.41294ZM134.567 2.64419L134.784 1.702L133.809 1.47799L133.593 2.42018L134.567 2.64419ZM134.296 2.09H135.23V1.09H134.296V2.09ZM137.098 2.09H138.965V1.09H137.098V2.09ZM140.833 2.09H141.766V1.09H140.833V2.09ZM141.279 1.70338L141.499 2.64557L142.473 2.4188L142.253 1.47661L141.279 1.70338ZM141.938 4.52995L142.376 6.41432L143.35 6.18755L142.911 4.30318L141.938 4.52995ZM142.815 8.2987L143.254 10.1831L144.228 9.9563L143.789 8.07193L142.815 8.2987ZM143.693 12.0674L144.131 13.9518L145.105 13.7251L144.666 11.8407L143.693 12.0674ZM144.57 15.8362L144.789 16.7784L145.763 16.5516L145.544 15.6094L144.57 15.8362ZM144.788 16.7732L145.03 17.8644L146.006 17.6481L145.765 16.5568L144.788 16.7732ZM145.514 20.0469L145.998 22.2294L146.974 22.0131L146.49 19.8306L145.514 20.0469ZM146.481 24.4119L146.723 25.5032L147.7 25.2868L147.458 24.1956L146.481 24.4119ZM147.211 25.895H147.245V24.895H147.211V25.895ZM147.313 25.895H147.346V24.895H147.313V25.895ZM147.838 25.4887L148.046 24.3974L147.063 24.2101L146.855 25.3013L147.838 25.4887ZM148.462 22.2149L148.878 20.0324L147.896 19.8451L147.48 22.0276L148.462 22.2149ZM149.294 17.8499L149.503 16.7587L148.52 16.5713L148.312 17.6626L149.294 17.8499ZM149.502 16.7631L149.69 15.8209L148.71 15.6248L148.521 16.5669L149.502 16.7631ZM150.067 13.9365L150.444 12.0521L149.463 11.856L149.086 13.7404L150.067 13.9365ZM150.821 10.1677L151.198 8.28337L150.217 8.08725L149.84 9.97163L150.821 10.1677ZM151.574 6.399L151.951 4.51462L150.971 4.3185L150.594 6.20288L151.574 6.399ZM152.328 2.63024L152.517 1.68806L151.536 1.49194L151.348 2.43413L152.328 2.63024ZM152.026 2.09H152.836V1.09H152.026V2.09ZM154.456 2.09H156.076V1.09H154.456V2.09ZM157.696 2.09H158.506V1.09H157.696V2.09ZM158.019 1.47696L157.792 2.45852L158.766 2.6846L158.993 1.70304L158.019 1.47696ZM157.336 4.42165L156.88 6.38477L157.854 6.61085L158.31 4.64773L157.336 4.42165ZM156.425 8.3479L155.969 10.311L156.943 10.5371L157.399 8.57398L156.425 8.3479ZM155.513 12.2741L155.058 14.2373L156.032 14.4634L156.487 12.5002L155.513 12.2741ZM154.602 16.2004L154.147 18.1635L155.121 18.3896L155.576 16.4265L154.602 16.2004ZM153.691 20.1266L153.235 22.0898L154.209 22.3158L154.665 20.3527L153.691 20.1266ZM152.78 24.0529L152.324 26.016L153.298 26.2421L153.754 24.279L152.78 24.0529ZM151.868 27.9791L151.413 29.9423L152.387 30.1683L152.842 28.2052L151.868 27.9791ZM150.957 31.9054L150.729 32.887L151.703 33.113L151.931 32.1315L150.957 31.9054ZM151.216 32.5H150.243V33.5H151.216V32.5ZM148.297 32.5H146.351V33.5H148.297V32.5ZM144.404 32.5H143.431V33.5H144.404V32.5ZM143.918 32.8866L143.671 31.8235L142.697 32.0502L142.944 33.1134L143.918 32.8866ZM143.176 29.6973L142.681 27.571L141.707 27.7977L142.202 29.924L143.176 29.6973ZM142.186 25.4448L141.691 23.3185L140.717 23.5452L141.212 25.6715L142.186 25.4448ZM141.196 21.1923L140.701 19.066L139.727 19.2927L140.222 21.419L141.196 21.1923ZM140.206 16.9398L139.958 15.8766L138.984 16.1034L139.232 17.1665L140.206 16.9398ZM139.959 15.8815L139.768 15.0209L138.792 15.2378L138.983 16.0985L139.959 15.8815ZM139.386 13.2997L139.003 11.5784L138.027 11.7953L138.41 13.5166L139.386 13.2997ZM138.621 9.85716L138.429 8.99653L137.453 9.21346L137.645 10.0741L138.621 9.85716ZM137.941 8.605H137.908V9.605H137.941V8.605ZM137.84 8.605H137.806V9.605H137.84V8.605ZM137.319 8.9935L137.122 9.85413L138.097 10.0771L138.294 9.2165L137.319 8.9935ZM136.728 11.5754L136.335 13.2966L137.309 13.5196L137.703 11.7984L136.728 11.5754ZM135.941 15.0179L135.744 15.8785L136.719 16.1015L136.916 15.2409L135.941 15.0179ZM135.744 15.8766L135.497 16.9398L136.471 17.1665L136.718 16.1034L135.744 15.8766ZM135.002 19.066L134.507 21.1923L135.481 21.419L135.976 19.2927L135.002 19.066ZM134.012 23.3185L133.517 25.4448L134.491 25.6715L134.986 23.5452L134.012 23.3185ZM133.022 27.571L132.527 29.6973L133.501 29.924L133.996 27.7977L133.022 27.571ZM132.032 31.8235L131.784 32.8866L132.758 33.1134L133.006 32.0502L132.032 31.8235ZM132.271 32.5H131.293V33.5H132.271V32.5ZM129.335 32.5H127.378V33.5H129.335V32.5ZM125.42 32.5H124.441V33.5H125.42V32.5ZM124.441 33L123.466 33.2208L123.642 34H124.441V33ZM117.331 1.59V0.589999H116.08L116.356 1.81077L117.331 1.59ZM124.081 1.59L125.063 1.3967L124.904 0.589999H124.081V1.59ZM127.051 16.665L128.034 16.4777L128.033 16.4717L127.051 16.665ZM128.716 25.395L127.734 25.5823L127.889 26.395H128.716V25.395ZM128.851 25.395V26.395H129.65L129.827 25.6162L128.851 25.395ZM130.831 16.665L129.857 16.441L129.856 16.4438L130.831 16.665ZM134.296 1.59V0.589999H133.5L133.322 1.36599L134.296 1.59ZM141.766 1.59L142.74 1.36323L142.56 0.589999H141.766V1.59ZM145.276 16.665L146.253 16.4486L146.25 16.4382L145.276 16.665ZM147.211 25.395L146.235 25.6114L146.409 26.395H147.211V25.395ZM147.346 25.395V26.395H148.174L148.329 25.5823L147.346 25.395ZM149.011 16.665L148.031 16.4689L148.029 16.4777L149.011 16.665ZM152.026 1.59V0.589999H151.207L151.046 1.39388L152.026 1.59ZM158.506 1.59L159.48 1.81608L159.765 0.589999H158.506V1.59ZM151.216 33V34H152.011L152.19 33.2261L151.216 33ZM143.431 33L142.457 33.2267L142.637 34H143.431V33ZM139.471 15.99L138.495 16.2069L138.497 16.2167L139.471 15.99ZM137.941 9.105L138.918 8.88807L138.744 8.105H137.941V9.105ZM137.806 9.105V8.105H137.009L136.832 8.882L137.806 9.105ZM136.231 15.99L137.205 16.2167L137.206 16.213L136.231 15.99ZM132.271 33V34H133.065L133.245 33.2267L132.271 33ZM125.417 32.7792L125.195 31.7977L123.244 32.2392L123.466 33.2208L125.417 32.7792ZM124.75 29.8345L124.306 27.8714L122.355 28.313L122.799 30.2761L124.75 29.8345ZM123.861 25.9083L123.417 23.9452L121.466 24.3867L121.911 26.3498L123.861 25.9083ZM122.973 21.982L122.528 20.0189L120.578 20.4605L121.022 22.4236L122.973 21.982ZM122.084 18.0558L121.64 16.0927L119.689 16.5342L120.133 18.4973L122.084 18.0558ZM121.195 14.1295L120.751 12.1664L118.8 12.608L119.244 14.5711L121.195 14.1295ZM120.306 10.2033L119.862 8.24016L117.911 8.68171L118.356 10.6448L120.306 10.2033ZM119.418 6.27704L118.973 4.31391L117.023 4.75546L117.467 6.71859L119.418 6.27704ZM118.529 2.35079L118.307 1.36922L116.356 1.81077L116.578 2.79234L118.529 2.35079ZM117.331 2.59H118.175V0.589999H117.331V2.59ZM119.863 2.59H121.55V0.589999H119.863V2.59ZM123.238 2.59H124.081V0.589999H123.238V2.59ZM123.1 1.7833L123.286 2.72549L125.248 2.33889L125.063 1.3967L123.1 1.7833ZM123.657 4.60986L124.028 6.49424L125.991 6.10764L125.619 4.22326L123.657 4.60986ZM124.4 8.37861L124.771 10.263L126.733 9.87639L126.362 7.99201L124.4 8.37861ZM125.142 12.1474L125.513 14.0317L127.476 13.6451L127.104 11.7608L125.142 12.1474ZM125.885 15.9161L126.07 16.8583L128.033 16.4717L127.847 15.5295L125.885 15.9161ZM126.069 16.8523L126.277 17.9436L128.242 17.5689L128.034 16.4777L126.069 16.8523ZM126.693 20.1261L127.11 22.3086L129.074 21.9339L128.658 19.7514L126.693 20.1261ZM127.526 24.4911L127.734 25.5823L129.699 25.2077L129.491 24.1164L127.526 24.4911ZM128.716 26.395H128.75V24.395H128.716V26.395ZM128.818 26.395H128.851V24.395H128.818V26.395ZM129.827 25.6162L130.074 24.5249L128.124 24.0826L127.876 25.1738L129.827 25.6162ZM130.569 22.3424L131.064 20.1599L129.114 19.7176L128.619 21.9001L130.569 22.3424ZM131.559 17.9774L131.807 16.8862L129.856 16.4438L129.609 17.5351L131.559 17.9774ZM131.806 16.889L132.023 15.9468L130.073 15.4988L129.857 16.441L131.806 16.889ZM132.456 14.0624L132.889 12.1781L130.94 11.7301L130.506 13.6144L132.456 14.0624ZM133.322 10.2937L133.755 8.40932L131.806 7.9613L131.373 9.84568L133.322 10.2937ZM134.188 6.52495L134.621 4.64057L132.672 4.19255L132.239 6.07693L134.188 6.52495ZM135.054 2.7562L135.271 1.81401L133.322 1.36599L133.105 2.30818L135.054 2.7562ZM134.296 2.59H135.23V0.589999H134.296V2.59ZM137.098 2.59H138.965V0.589999H137.098V2.59ZM140.833 2.59H141.766V0.589999H140.833V2.59ZM140.792 1.81677L141.012 2.75896L142.96 2.30542L142.74 1.36323L140.792 1.81677ZM141.451 4.64333L141.889 6.52771L143.837 6.07417L143.398 4.18979L141.451 4.64333ZM142.328 8.41208L142.767 10.2965L144.715 9.84292L144.276 7.95854L142.328 8.41208ZM143.206 12.1808L143.644 14.0652L145.592 13.6117L145.153 11.7273L143.206 12.1808ZM144.083 15.9496L144.302 16.8918L146.25 16.4382L146.031 15.496L144.083 15.9496ZM144.3 16.8814L144.542 17.9726L146.495 17.5399L146.253 16.4486L144.3 16.8814ZM145.026 20.1551L145.509 22.3376L147.462 21.9049L146.978 19.7224L145.026 20.1551ZM145.993 24.5201L146.235 25.6114L148.188 25.1786L147.946 24.0874L145.993 24.5201ZM147.211 26.395H147.245V24.395H147.211V26.395ZM147.313 26.395H147.346V24.395H147.313V26.395ZM148.329 25.5823L148.537 24.4911L146.572 24.1164L146.364 25.2077L148.329 25.5823ZM148.953 22.3086L149.369 20.1261L147.405 19.7514L146.988 21.9339L148.953 22.3086ZM149.786 17.9436L149.994 16.8523L148.029 16.4777L147.821 17.5689L149.786 17.9436ZM149.992 16.8611L150.18 15.9189L148.219 15.5267L148.031 16.4689L149.992 16.8611ZM150.557 14.0346L150.934 12.1502L148.973 11.7579L148.596 13.6423L150.557 14.0346ZM151.311 10.2658L151.688 8.38143L149.727 7.9892L149.35 9.87357L151.311 10.2658ZM152.065 6.49705L152.442 4.61268L150.48 4.22045L150.104 6.10482L152.065 6.49705ZM152.819 2.7283L153.007 1.78612L151.046 1.39388L150.857 2.33607L152.819 2.7283ZM152.026 2.59H152.836V0.589999H152.026V2.59ZM154.456 2.59H156.076V0.589999H154.456V2.59ZM157.696 2.59H158.506V0.589999H157.696V2.59ZM157.532 1.36392L157.304 2.34548L159.253 2.79764L159.48 1.81608L157.532 1.36392ZM156.849 4.3086L156.393 6.27173L158.341 6.72389L158.797 4.76077L156.849 4.3086ZM155.938 8.23485L155.482 10.198L157.43 10.6501L157.886 8.68702L155.938 8.23485ZM155.026 12.1611L154.571 14.1242L156.519 14.5764L156.975 12.6133L155.026 12.1611ZM154.115 16.0874L153.659 18.0505L155.608 18.5026L156.063 16.5395L154.115 16.0874ZM153.204 20.0136L152.748 21.9767L154.696 22.4289L155.152 20.4658L153.204 20.0136ZM152.293 23.9399L151.837 25.903L153.785 26.3551L154.241 24.392L152.293 23.9399ZM151.381 27.8661L150.926 29.8292L152.874 30.2814L153.33 28.3183L151.381 27.8661ZM150.47 31.7923L150.242 32.7739L152.19 33.2261L152.418 32.2445L150.47 31.7923ZM151.216 32H150.243V34H151.216V32ZM148.297 32H146.351V34H148.297V32ZM144.404 32H143.431V34H144.404V32ZM144.405 32.7733L144.158 31.7101L142.21 32.1636L142.457 33.2267L144.405 32.7733ZM143.663 29.5839L143.168 27.4576L141.22 27.9111L141.715 30.0374L143.663 29.5839ZM142.673 25.3314L142.178 23.2051L140.23 23.6586L140.725 25.7849L142.673 25.3314ZM141.683 21.0789L141.188 18.9526L139.24 19.4061L139.735 21.5324L141.683 21.0789ZM140.693 16.8264L140.445 15.7633L138.497 16.2167L138.745 17.2799L140.693 16.8264ZM140.448 15.7731L140.256 14.9124L138.304 15.3463L138.495 16.2069L140.448 15.7731ZM139.874 13.1912L139.491 11.4699L137.539 11.9038L137.921 13.6251L139.874 13.1912ZM139.109 9.74869L138.918 8.88807L136.965 9.32193L137.156 10.1826L139.109 9.74869ZM137.941 8.105H137.908V10.105H137.941V8.105ZM137.84 8.105H137.806V10.105H137.84V8.105ZM136.832 8.882L136.635 9.74263L138.584 10.1886L138.781 9.328L136.832 8.882ZM136.241 11.4639L135.847 13.1851L137.797 13.6311L138.191 11.9099L136.241 11.4639ZM135.453 14.9064L135.257 15.767L137.206 16.213L137.403 15.3524L135.453 14.9064ZM135.257 15.7633L135.01 16.8264L136.958 17.2799L137.205 16.2167L135.257 15.7633ZM134.515 18.9526L134.02 21.0789L135.968 21.5324L136.463 19.4061L134.515 18.9526ZM133.525 23.2051L133.03 25.3314L134.978 25.7849L135.473 23.6586L133.525 23.2051ZM132.535 27.4576L132.04 29.5839L133.988 30.0374L134.483 27.9111L132.535 27.4576ZM131.545 31.7101L131.297 32.7733L133.245 33.2267L133.493 32.1636L131.545 31.7101ZM132.271 32H131.293V34H132.271V32ZM129.335 32H127.378V34H129.335V32ZM125.42 32H124.441V34H125.42V32ZM163.261 33H162.761V33.5H163.261V33ZM163.261 1.59V1.09H162.761V1.59H163.261ZM184.636 1.59H185.136V1.09H184.636V1.59ZM184.636 7.665V8.165H185.136V7.665H184.636ZM170.101 7.665V7.165H169.601V7.665H170.101ZM170.101 14.1H169.601V14.6H170.101V14.1ZM182.566 14.1H183.066V13.6H182.566V14.1ZM182.566 20.13V20.63H183.066V20.13H182.566ZM170.101 20.13V19.63H169.601V20.13H170.101ZM170.101 26.925H169.601V27.425H170.101V26.925ZM184.636 26.925H185.136V26.425H184.636V26.925ZM184.636 33V33.5H185.136V33H184.636ZM163.761 33V32.0184H162.761V33H163.761ZM163.761 30.0553V28.0922H162.761V30.0553H163.761ZM163.761 26.1291V24.1659H162.761V26.1291H163.761ZM163.761 22.2028V20.2397H162.761V22.2028H163.761ZM163.761 18.2766V16.3134H162.761V18.2766H163.761ZM163.761 14.3503V12.3872H162.761V14.3503H163.761ZM163.761 10.4241V8.46094H162.761V10.4241H163.761ZM163.761 6.49781V4.53469H162.761V6.49781H163.761ZM163.761 2.57156V1.59H162.761V2.57156H163.761ZM163.261 2.09H164.33V1.09H163.261V2.09ZM166.467 2.09H168.605V1.09H166.467V2.09ZM170.742 2.09H172.88V1.09H170.742V2.09ZM175.017 2.09H177.155V1.09H175.017V2.09ZM179.292 2.09H181.43V1.09H179.292V2.09ZM183.567 2.09H184.636V1.09H183.567V2.09ZM184.136 1.59V2.34937H185.136V1.59H184.136ZM184.136 3.86812V5.38687H185.136V3.86812H184.136ZM184.136 6.90562V7.665H185.136V6.90562H184.136ZM184.636 7.165H183.727V8.165H184.636V7.165ZM181.911 7.165H180.094V8.165H181.911V7.165ZM178.277 7.165H176.46V8.165H178.277V7.165ZM174.643 7.165H172.826V8.165H174.643V7.165ZM171.009 7.165H170.101V8.165H171.009V7.165ZM169.601 7.665V8.46937H170.601V7.665H169.601ZM169.601 10.0781V11.6869H170.601V10.0781H169.601ZM169.601 13.2956V14.1H170.601V13.2956H169.601ZM170.101 14.6H171.14V13.6H170.101V14.6ZM173.217 14.6H175.295V13.6H173.217V14.6ZM177.372 14.6H179.45V13.6H177.372V14.6ZM181.527 14.6H182.566V13.6H181.527V14.6ZM182.066 14.1V14.8537H183.066V14.1H182.066ZM182.066 16.3612V17.8687H183.066V16.3612H182.066ZM182.066 19.3762V20.13H183.066V19.3762H182.066ZM182.566 19.63H181.527V20.63H182.566V19.63ZM179.45 19.63H177.372V20.63H179.45V19.63ZM175.295 19.63H173.217V20.63H175.295V19.63ZM171.14 19.63H170.101V20.63H171.14V19.63ZM169.601 20.13V20.9794H170.601V20.13H169.601ZM169.601 22.6781V24.3769H170.601V22.6781H169.601ZM169.601 26.0756V26.925H170.601V26.0756H169.601ZM170.101 27.425H171.009V26.425H170.101V27.425ZM172.826 27.425H174.643V26.425H172.826V27.425ZM176.46 27.425H178.277V26.425H176.46V27.425ZM180.094 27.425H181.911V26.425H180.094V27.425ZM183.727 27.425H184.636V26.425H183.727V27.425ZM184.136 26.925V27.6844H185.136V26.925H184.136ZM184.136 29.2031V30.7219H185.136V29.2031H184.136ZM184.136 32.2406V33H185.136V32.2406H184.136ZM184.636 32.5H183.567V33.5H184.636V32.5ZM181.43 32.5H179.292V33.5H181.43V32.5ZM177.155 32.5H175.017V33.5H177.155V32.5ZM172.88 32.5H170.742V33.5H172.88V32.5ZM168.605 32.5H166.467V33.5H168.605V32.5ZM164.33 32.5H163.261V33.5H164.33V32.5ZM163.261 33H162.261V34H163.261V33ZM163.261 1.59V0.589999H162.261V1.59H163.261ZM184.636 1.59H185.636V0.589999H184.636V1.59ZM184.636 7.665V8.665H185.636V7.665H184.636ZM170.101 7.665V6.665H169.101V7.665H170.101ZM170.101 14.1H169.101V15.1H170.101V14.1ZM182.566 14.1H183.566V13.1H182.566V14.1ZM182.566 20.13V21.13H183.566V20.13H182.566ZM170.101 20.13V19.13H169.101V20.13H170.101ZM170.101 26.925H169.101V27.925H170.101V26.925ZM184.636 26.925H185.636V25.925H184.636V26.925ZM184.636 33V34H185.636V33H184.636ZM164.261 33V32.0184H162.261V33H164.261ZM164.261 30.0553V28.0922H162.261V30.0553H164.261ZM164.261 26.1291V24.1659H162.261V26.1291H164.261ZM164.261 22.2028V20.2397H162.261V22.2028H164.261ZM164.261 18.2766V16.3134H162.261V18.2766H164.261ZM164.261 14.3503V12.3872H162.261V14.3503H164.261ZM164.261 10.4241V8.46094H162.261V10.4241H164.261ZM164.261 6.49781V4.53469H162.261V6.49781H164.261ZM164.261 2.57156V1.59H162.261V2.57156H164.261ZM163.261 2.59H164.33V0.589999H163.261V2.59ZM166.467 2.59H168.605V0.589999H166.467V2.59ZM170.742 2.59H172.88V0.589999H170.742V2.59ZM175.017 2.59H177.155V0.589999H175.017V2.59ZM179.292 2.59H181.43V0.589999H179.292V2.59ZM183.567 2.59H184.636V0.589999H183.567V2.59ZM183.636 1.59V2.34937H185.636V1.59H183.636ZM183.636 3.86812V5.38687H185.636V3.86812H183.636ZM183.636 6.90562V7.665H185.636V6.90562H183.636ZM184.636 6.665H183.727V8.665H184.636V6.665ZM181.911 6.665H180.094V8.665H181.911V6.665ZM178.277 6.665H176.46V8.665H178.277V6.665ZM174.643 6.665H172.826V8.665H174.643V6.665ZM171.009 6.665H170.101V8.665H171.009V6.665ZM169.101 7.665V8.46937H171.101V7.665H169.101ZM169.101 10.0781V11.6869H171.101V10.0781H169.101ZM169.101 13.2956V14.1H171.101V13.2956H169.101ZM170.101 15.1H171.14V13.1H170.101V15.1ZM173.217 15.1H175.295V13.1H173.217V15.1ZM177.372 15.1H179.45V13.1H177.372V15.1ZM181.527 15.1H182.566V13.1H181.527V15.1ZM181.566 14.1V14.8537H183.566V14.1H181.566ZM181.566 16.3612V17.8687H183.566V16.3612H181.566ZM181.566 19.3762V20.13H183.566V19.3762H181.566ZM182.566 19.13H181.527V21.13H182.566V19.13ZM179.45 19.13H177.372V21.13H179.45V19.13ZM175.295 19.13H173.217V21.13H175.295V19.13ZM171.14 19.13H170.101V21.13H171.14V19.13ZM169.101 20.13V20.9794H171.101V20.13H169.101ZM169.101 22.6781V24.3769H171.101V22.6781H169.101ZM169.101 26.0756V26.925H171.101V26.0756H169.101ZM170.101 27.925H171.009V25.925H170.101V27.925ZM172.826 27.925H174.643V25.925H172.826V27.925ZM176.46 27.925H178.277V25.925H176.46V27.925ZM180.094 27.925H181.911V25.925H180.094V27.925ZM183.727 27.925H184.636V25.925H183.727V27.925ZM183.636 26.925V27.6844H185.636V26.925H183.636ZM183.636 29.2031V30.7219H185.636V29.2031H183.636ZM183.636 32.2406V33H185.636V32.2406H183.636ZM184.636 32H183.567V34H184.636V32ZM181.43 32H179.292V34H181.43V32ZM177.155 32H175.017V34H177.155V32ZM172.88 32H170.742V34H172.88V32ZM168.605 32H166.467V34H168.605V32ZM164.33 32H163.261V34H164.33V32ZM210.53 28.005H211.03V27.505H210.53V28.005ZM210.305 28.005V27.505H209.875L209.81 27.9304L210.305 28.005ZM207.875 31.965L207.572 31.5671L207.875 31.965ZM197.21 32.505L197.008 32.9623L197.008 32.9623L197.21 32.505ZM193.115 29.445L192.737 29.7725L192.737 29.7725L193.115 29.445ZM190.37 24.405L190.845 24.249L190.845 24.249L190.37 24.405ZM190.415 10.41L190.889 10.5702L190.889 10.5702L190.415 10.41ZM193.295 5.28L192.926 4.94284L192.922 4.94731L193.295 5.28ZM197.795 2.13L197.986 2.59201L197.986 2.59201L197.795 2.13ZM210.89 2.895L210.632 3.32321L210.636 3.32597L210.89 2.895ZM215.705 8.34L215.953 8.7739L216.357 8.54257L216.155 8.12309L215.705 8.34ZM210.125 11.535L209.659 11.7168L209.87 12.2571L210.373 11.9689L210.125 11.535ZM207.875 8.43L207.55 8.81047L207.557 8.81597L207.875 8.43ZM198.515 8.97L198.864 9.32779L198.864 9.32779L198.515 8.97ZM198.515 25.62L198.161 25.9736L198.166 25.9778L198.515 25.62ZM205.985 27.195L206.102 27.6812L206.111 27.679L206.12 27.6765L205.985 27.195ZM207.965 26.295L208.247 26.7077L208.254 26.7027L208.261 26.6975L207.965 26.295ZM209.27 24.81L208.837 24.5595L208.832 24.5682L208.827 24.5771L209.27 24.81ZM209.765 21.21H210.265V20.71H209.765V21.21ZM203.915 21.21H203.415V21.71H203.915V21.21ZM203.915 15.495V14.995H203.415V15.495H203.915ZM216.29 15.495H216.79V14.995H216.29V15.495ZM216.29 33V33.5H216.79V33H216.29ZM210.53 33H210.03V33.5H210.53V33ZM210.53 27.505H210.474V28.505H210.53V27.505ZM210.361 27.505H210.305V28.505H210.361V27.505ZM209.81 27.9304C209.755 28.3009 209.665 28.6534 209.544 28.9886L210.483 29.3302C210.629 28.9303 210.734 28.5132 210.799 28.0796L209.81 27.9304ZM208.398 30.8277C208.155 31.0864 207.88 31.333 207.572 31.5671L208.178 32.3629C208.526 32.0978 208.843 31.8146 209.127 31.513L208.398 30.8277ZM207.572 31.5671C207.217 31.8374 206.824 32.0714 206.392 32.2684L206.807 33.1781C207.303 32.9519 207.76 32.6804 208.178 32.3629L207.572 31.5671ZM203.681 32.9675C203.229 33.0157 202.752 33.04 202.25 33.04V34.04C202.784 34.04 203.297 34.0141 203.787 33.9618L203.681 32.9675ZM202.25 33.04C201.827 33.04 201.412 33.0203 201.004 32.9809L200.908 33.9763C201.349 34.0188 201.796 34.04 202.25 34.04V33.04ZM198.572 32.4872C198.178 32.362 197.792 32.2156 197.412 32.0477L197.008 32.9623C197.42 33.1447 197.841 33.3041 198.27 33.4403L198.572 32.4872ZM197.412 32.0477C197.035 31.8808 196.67 31.6938 196.316 31.4867L195.811 32.3494C196.197 32.5758 196.596 32.7801 197.008 32.9623L197.412 32.0477ZM194.349 30.0102C194.053 29.732 193.767 29.4345 193.493 29.1175L192.737 29.7725C193.033 30.1145 193.342 30.4367 193.664 30.7389L194.349 30.0102ZM193.493 29.1175C193.195 28.7743 192.915 28.4082 192.65 28.0189L191.823 28.5803C192.108 29.0011 192.413 29.3986 192.737 29.7725L193.493 29.1175ZM191.335 25.5648C191.158 25.1446 190.995 24.706 190.845 24.249L189.895 24.561C190.053 25.0421 190.225 25.5058 190.413 25.9518L191.335 25.5648ZM190.845 24.249C190.757 23.9811 190.675 23.7072 190.599 23.4271L189.634 23.6891C189.714 23.9855 189.801 24.2762 189.895 24.561L190.845 24.249ZM190.227 21.7458C190.131 21.1948 190.055 20.6235 189.998 20.0319L189.003 20.1266C189.061 20.7426 189.141 21.3397 189.242 21.9178L190.227 21.7458ZM189.892 18.2998C189.884 18.0141 189.88 17.7241 189.88 17.43H188.88C188.88 17.7335 188.884 18.0332 188.893 18.3289L189.892 18.2998ZM189.88 17.43C189.88 17.1341 189.884 16.8422 189.893 16.5543L188.894 16.5237C188.884 16.8221 188.88 17.1241 188.88 17.43H189.88ZM190.005 14.8109C190.064 14.2167 190.144 13.6419 190.245 13.0865L189.261 12.9076C189.155 13.4908 189.072 14.0922 189.01 14.7117L190.005 14.8109ZM190.633 11.3962C190.712 11.1152 190.797 10.8398 190.889 10.5702L189.941 10.2498C189.844 10.5363 189.754 10.8283 189.671 11.1258L190.633 11.3962ZM190.889 10.5702C191.046 10.1037 191.218 9.6559 191.404 9.22661L190.487 8.82903C190.289 9.28481 190.107 9.75845 189.941 10.2498L190.889 10.5702ZM192.787 6.72798C193.063 6.33352 193.357 5.96182 193.668 5.61268L192.922 4.94731C192.584 5.32643 192.266 5.72895 191.968 6.15465L192.787 6.72798ZM193.664 5.61713C193.966 5.28637 194.282 4.97567 194.612 4.68491L193.951 3.93459C193.593 4.24967 193.252 4.5858 192.926 4.94286L193.664 5.61713ZM196.785 3.16491C197.171 2.9547 197.571 2.76372 197.986 2.59201L197.604 1.66799C197.157 1.85303 196.724 2.05929 196.307 2.28685L196.785 3.16491ZM197.986 2.59201C198.423 2.41136 198.872 2.2541 199.335 2.12031L199.058 1.15961C198.56 1.3035 198.075 1.47293 197.604 1.66799L197.986 2.59201ZM202.157 1.60913C202.627 1.56976 203.108 1.55 203.6 1.55V0.549998C203.081 0.549998 202.572 0.570829 202.074 0.612631L202.157 1.60913ZM203.6 1.55C203.914 1.55 204.223 1.55783 204.526 1.57344L204.577 0.574762C204.256 0.558239 203.931 0.549998 203.6 0.549998V1.55ZM206.359 1.77317C206.978 1.87899 207.572 2.02225 208.141 2.20259L208.443 1.24937C207.829 1.05449 207.19 0.900638 206.527 0.787445L206.359 1.77317ZM209.833 2.88478C210.106 3.02056 210.372 3.1667 210.632 3.32319L211.148 2.46681C210.865 2.29632 210.575 2.1372 210.278 1.98947L209.833 2.88478ZM210.636 3.32597C210.89 3.47522 211.137 3.63438 211.376 3.80346L211.953 2.98652C211.691 2.80142 211.421 2.62726 211.143 2.46403L210.636 3.32597ZM212.726 4.93406C213.137 5.34034 213.523 5.78515 213.883 6.26901L214.685 5.6721C214.296 5.14907 213.877 4.6657 213.428 4.22246L212.726 4.93406ZM214.844 7.76358C214.986 8.01966 215.123 8.28408 215.254 8.55691L216.155 8.12309C216.016 7.83328 215.87 7.55157 215.718 7.27798L214.844 7.76358ZM215.456 7.90609L214.759 8.30547L215.256 9.17328L215.953 8.7739L215.456 7.90609ZM213.364 9.10422L211.969 9.90297L212.466 10.7708L213.861 9.97203L213.364 9.10422ZM210.574 10.7017L209.876 11.1011L210.373 11.9689L211.071 11.5695L210.574 10.7017ZM210.591 11.3532C210.464 11.0293 210.32 10.7174 210.158 10.4177L209.278 10.894C209.42 11.1564 209.547 11.4306 209.659 11.7168L210.591 11.3532ZM208.947 8.74689C208.713 8.49933 208.461 8.26506 208.193 8.04403L207.557 8.81597C207.794 9.01132 208.015 9.2174 208.22 9.43414L208.947 8.74689ZM208.199 8.04958C207.883 7.7794 207.532 7.5483 207.149 7.35583L206.7 8.2492C207.014 8.40711 207.297 8.59433 207.55 8.81042L208.199 8.04958ZM204.796 6.69027C204.415 6.64656 204.016 6.625 203.6 6.625V7.625C203.982 7.625 204.342 7.64478 204.682 7.68376L204.796 6.69027ZM203.6 6.625C203.094 6.625 202.609 6.65815 202.144 6.72532L202.287 7.71503C202.701 7.6553 203.138 7.625 203.6 7.625V6.625ZM199.35 7.6934C198.922 7.95308 198.527 8.25957 198.166 8.61221L198.864 9.32779C199.171 9.02785 199.506 8.76832 199.869 8.54854L199.35 7.6934ZM198.166 8.61221C197.961 8.81177 197.772 9.02775 197.599 9.25979L198.4 9.85846C198.543 9.66719 198.698 9.49041 198.864 9.32779L198.166 8.61221ZM196.781 10.745C196.588 11.2363 196.438 11.7696 196.331 12.3433L197.314 12.5267C197.411 12.0079 197.544 11.5369 197.712 11.1121L196.781 10.745ZM196.145 13.9656C196.132 14.2285 196.125 14.4984 196.125 14.775H197.125C197.125 14.5145 197.131 14.2618 197.144 14.0169L196.145 13.9656ZM196.125 14.775V16.035H197.125V14.775H196.125ZM196.125 18.555V19.815H197.125V18.555H196.125ZM196.125 19.815C196.125 20.0915 196.132 20.3613 196.146 20.6244L197.144 20.5721C197.131 20.3273 197.125 20.075 197.125 19.815H196.125ZM196.335 22.246C196.443 22.8175 196.594 23.3499 196.789 23.8418L197.718 23.473C197.549 23.0468 197.415 22.5763 197.317 22.06L196.335 22.246ZM197.603 25.324C197.774 25.5557 197.96 25.7723 198.161 25.9736L198.868 25.2664C198.703 25.1009 198.549 24.922 198.407 24.7296L197.603 25.324ZM198.166 25.9778C198.527 26.3304 198.922 26.6369 199.35 26.8966L199.869 26.0415C199.506 25.8217 199.171 25.5622 198.864 25.2622L198.166 25.9778ZM202.144 27.8647C202.609 27.9318 203.094 27.965 203.6 27.965V26.965C203.138 26.965 202.701 26.9347 202.287 26.875L202.144 27.8647ZM203.6 27.965C203.812 27.965 204.021 27.9595 204.228 27.9485L204.175 26.9499C203.986 26.96 203.794 26.965 203.6 26.965V27.965ZM205.481 27.809C205.691 27.7727 205.898 27.7301 206.102 27.6812L205.868 26.7088C205.685 26.7527 205.5 26.7909 205.311 26.8236L205.481 27.809ZM206.12 27.6765C206.309 27.6234 206.494 27.5648 206.674 27.5005L206.337 26.5589C206.18 26.615 206.018 26.6666 205.85 26.7135L206.12 27.6765ZM207.743 27.0189C207.917 26.922 208.085 26.8183 208.247 26.7077L207.683 25.8823C207.547 25.9752 207.405 26.0627 207.257 26.1449L207.743 27.0189ZM208.261 26.6975C208.411 26.5875 208.552 26.4722 208.686 26.3515L208.016 25.609C207.908 25.7068 207.792 25.8013 207.668 25.8925L208.261 26.6975ZM209.422 25.5212C209.528 25.3675 209.625 25.208 209.712 25.0429L208.827 24.5771C208.76 24.7057 208.684 24.8301 208.601 24.9502L209.422 25.5212ZM209.703 25.0605C209.803 24.8868 209.89 24.705 209.964 24.5157L209.031 24.1542C208.976 24.2963 208.911 24.4313 208.837 24.5595L209.703 25.0605ZM210.235 23.3636C210.255 23.1754 210.265 22.9825 210.265 22.785H209.265C209.265 22.9498 209.257 23.1078 209.241 23.2593L210.235 23.3636ZM210.265 22.785V22.3912H209.265V22.785H210.265ZM210.265 21.6037V21.21H209.265V21.6037H210.265ZM209.765 20.71H208.302V21.71H209.765V20.71ZM205.377 20.71H203.915V21.71H205.377V20.71ZM204.415 21.21V19.7812H203.415V21.21H204.415ZM204.415 16.9237V15.495H203.415V16.9237H204.415ZM203.915 15.995H204.946V14.995H203.915V15.995ZM207.009 15.995H209.071V14.995H207.009V15.995ZM211.134 15.995H213.196V14.995H211.134V15.995ZM215.259 15.995H216.29V14.995H215.259V15.995ZM215.79 15.495V16.5891H216.79V15.495H215.79ZM215.79 18.7772V20.9653H216.79V18.7772H215.79ZM215.79 23.1534V25.3416H216.79V23.1534H215.79ZM215.79 27.5297V29.7178H216.79V27.5297H215.79ZM215.79 31.9059V33H216.79V31.9059H215.79ZM216.29 32.5H214.85V33.5H216.29V32.5ZM211.97 32.5H210.53V33.5H211.97V32.5ZM211.03 33V31.7512H210.03V33H211.03ZM211.03 29.2537V28.005H210.03V29.2537H211.03ZM210.53 28.005H211.53V27.005H210.53V28.005ZM210.305 28.005V27.005H209.445L209.316 27.8557L210.305 28.005ZM207.875 31.965L207.269 31.1692L207.875 31.965ZM197.21 32.505L196.805 33.4195L196.805 33.4195L197.21 32.505ZM193.115 29.445L192.359 30.0999L192.359 30.0999L193.115 29.445ZM190.37 24.405L191.32 24.093L191.32 24.093L190.37 24.405ZM190.415 10.41L191.362 10.7304L191.362 10.7304L190.415 10.41ZM193.295 5.28L192.556 4.60568L192.548 4.61463L193.295 5.28ZM197.795 2.13L198.177 3.05401L198.177 3.05401L197.795 2.13ZM210.89 2.895L210.374 3.75143L210.383 3.75693L210.89 2.895ZM215.705 8.34L216.202 9.20781L217.01 8.74514L216.606 7.90618L215.705 8.34ZM210.125 11.535L209.193 11.8985L209.615 12.9792L210.622 12.4028L210.125 11.535ZM207.875 8.43L207.226 9.19083L207.233 9.19644L207.239 9.20193L207.875 8.43ZM198.515 8.97L199.213 9.68557L199.213 9.68557L198.515 8.97ZM198.515 25.62L197.808 26.3272L197.816 26.3356L198.515 25.62ZM205.985 27.195L206.218 28.1674L206.236 28.163L206.255 28.158L205.985 27.195ZM207.965 26.295L208.53 27.1203L208.544 27.1104L208.558 27.1001L207.965 26.295ZM209.27 24.81L208.404 24.309L208.394 24.3264L208.385 24.3443L209.27 24.81ZM209.765 21.21H210.765V20.21H209.765V21.21ZM203.915 21.21H202.915V22.21H203.915V21.21ZM203.915 15.495V14.495H202.915V15.495H203.915ZM216.29 15.495H217.29V14.495H216.29V15.495ZM216.29 33V34H217.29V33H216.29ZM210.53 33H209.53V34H210.53V33ZM210.53 27.005H210.474V29.005H210.53V27.005ZM210.361 27.005H210.305V29.005H210.361V27.005ZM209.316 27.8557C209.265 28.1948 209.184 28.515 209.074 28.8178L210.953 29.501C211.11 29.0687 211.223 28.6193 211.294 28.1543L209.316 27.8557ZM208.034 30.485C207.811 30.7223 207.557 30.9506 207.269 31.1692L208.48 32.7608C208.849 32.4802 209.187 32.1787 209.491 31.8557L208.034 30.485ZM207.269 31.1692C206.945 31.4159 206.584 31.6311 206.185 31.8135L207.015 33.633C207.543 33.3921 208.032 33.1018 208.48 32.7608L207.269 31.1692ZM203.628 32.4703C203.195 32.5164 202.736 32.54 202.25 32.54V34.54C202.8 34.54 203.331 34.5133 203.84 34.459L203.628 32.4703ZM202.25 32.54C201.843 32.54 201.443 32.521 201.052 32.4832L200.86 34.474C201.317 34.5181 201.78 34.54 202.25 34.54V32.54ZM198.724 32.0107C198.347 31.891 197.977 31.751 197.614 31.5905L196.805 33.4195C197.234 33.6093 197.672 33.7751 198.118 33.9168L198.724 32.0107ZM197.614 31.5905C197.254 31.4312 196.906 31.2528 196.569 31.0554L195.558 32.7807C195.96 33.0168 196.376 33.2297 196.805 33.4195L197.614 31.5905ZM194.691 29.6458C194.408 29.3797 194.134 29.0945 193.871 28.7901L192.359 30.0999C192.666 30.4545 192.987 30.7891 193.322 31.1033L194.691 29.6458ZM193.871 28.7901C193.586 28.4622 193.318 28.1118 193.064 27.7383L191.409 28.8609C191.705 29.2976 192.022 29.7107 192.359 30.0999L193.871 28.7901ZM191.796 25.3713C191.625 24.964 191.466 24.538 191.32 24.093L189.42 24.717C189.582 25.2102 189.759 25.6864 189.952 26.1453L191.796 25.3713ZM191.32 24.093C191.235 23.8336 191.155 23.568 191.081 23.2961L189.151 23.8201C189.234 24.1247 189.323 24.4237 189.42 24.717L191.32 24.093ZM190.72 21.6598C190.626 21.1223 190.551 20.5639 190.496 19.9845L188.505 20.174C188.565 20.8022 188.646 21.4122 188.749 22.0038L190.72 21.6598ZM190.392 18.2853C190.384 18.0045 190.38 17.7194 190.38 17.43H188.38C188.38 17.7383 188.384 18.0427 188.393 18.3434L190.392 18.2853ZM190.38 17.43C190.38 17.139 190.384 16.8522 190.393 16.5696L188.394 16.5085C188.385 16.812 188.38 17.1192 188.38 17.43H190.38ZM190.502 14.8605C190.56 14.2789 190.639 13.7175 190.737 13.1759L188.77 12.8181C188.661 13.4153 188.575 14.03 188.512 14.6621L190.502 14.8605ZM191.115 11.5314C191.191 11.2586 191.274 10.9916 191.362 10.7304L189.468 10.0896C189.368 10.3846 189.275 10.6849 189.189 10.9906L191.115 11.5314ZM191.362 10.7304C191.516 10.2764 191.683 9.84145 191.863 9.42539L190.028 8.63025C189.825 9.09927 189.638 9.58581 189.468 10.0896L191.362 10.7304ZM193.197 7.01464C193.462 6.63581 193.744 6.27952 194.041 5.94537L192.548 4.61463C192.197 5.00874 191.867 5.42666 191.558 5.86799L193.197 7.01464ZM194.033 5.95427C194.323 5.63665 194.626 5.33868 194.943 5.06007L193.621 3.55943C193.249 3.88667 192.894 4.23552 192.556 4.60573L194.033 5.95427ZM197.024 3.60394C197.394 3.40241 197.778 3.21906 198.177 3.05401L197.413 1.20598C196.949 1.39768 196.501 1.61158 196.067 1.84782L197.024 3.60394ZM198.177 3.05401C198.596 2.88057 199.029 2.72941 199.474 2.60066L198.919 0.679257C198.404 0.828191 197.901 1.00372 197.413 1.20598L198.177 3.05401ZM202.199 2.10738C202.654 2.06922 203.121 2.05 203.6 2.05V0.0499983C203.067 0.0499983 202.545 0.0713659 202.032 0.114382L202.199 2.10738ZM203.6 2.05C203.906 2.05 204.206 2.05762 204.5 2.07278L204.603 0.0754232C204.273 0.0584464 203.939 0.0499983 203.6 0.0499983V2.05ZM206.274 2.26603C206.872 2.36817 207.444 2.50614 207.99 2.6792L208.594 0.772754C207.957 0.570601 207.296 0.411462 206.611 0.294582L206.274 2.26603ZM209.61 3.33244C209.871 3.46224 210.126 3.60189 210.374 3.75138L211.406 2.03862C211.112 1.86113 210.81 1.69552 210.501 1.54181L209.61 3.33244ZM210.383 3.75693C210.625 3.8992 210.86 4.05086 211.088 4.21194L212.241 2.57804C211.968 2.38494 211.686 2.20328 211.397 2.03306L210.383 3.75693ZM212.374 5.28987C212.767 5.67765 213.136 6.10319 213.482 6.56746L215.086 5.37364C214.683 4.83103 214.247 4.32838 213.779 3.86666L212.374 5.28987ZM214.407 8.00637C214.544 8.2537 214.677 8.50948 214.804 8.77381L216.606 7.90618C216.462 7.60788 216.312 7.31752 216.155 7.03519L214.407 8.00637ZM215.208 7.47219L214.51 7.87156L215.504 9.60719L216.202 9.20781L215.208 7.47219ZM213.115 8.67031L211.72 9.46906L212.714 11.2047L214.109 10.4059L213.115 8.67031ZM210.325 10.2678L209.628 10.6672L210.622 12.4028L211.319 12.0034L210.325 10.2678ZM211.056 11.1715C210.923 10.8287 210.77 10.4979 210.597 10.1795L208.839 11.1322C208.971 11.3759 209.089 11.6312 209.193 11.8985L211.056 11.1715ZM209.31 8.40326C209.061 8.1403 208.795 7.89193 208.511 7.65807L207.239 9.20193C207.461 9.38445 207.667 9.57643 207.857 9.77777L209.31 8.40326ZM208.524 7.66917C208.175 7.37194 207.791 7.11889 207.374 6.90915L206.476 8.69589C206.755 8.83652 207.004 9.00179 207.226 9.19083L208.524 7.66917ZM204.853 6.19353C204.451 6.14744 204.033 6.125 203.6 6.125V8.125C203.964 8.125 204.306 8.1439 204.625 8.1805L204.853 6.19353ZM203.6 6.125C203.072 6.125 202.563 6.15958 202.073 6.23047L202.359 8.20989C202.746 8.15387 203.16 8.125 203.6 8.125V6.125ZM199.091 7.26582C198.63 7.54546 198.205 7.87544 197.816 8.25442L199.213 9.68557C199.494 9.41198 199.798 9.17594 200.128 8.97612L199.091 7.26582ZM197.816 8.25442C197.593 8.47246 197.387 8.70803 197.198 8.96045L198.8 10.1578C198.928 9.98691 199.066 9.82973 199.213 9.68557L197.816 8.25442ZM196.316 10.5615C196.109 11.086 195.952 11.6505 195.839 12.2516L197.806 12.6184C197.897 12.1271 198.022 11.6872 198.177 11.2956L196.316 10.5615ZM195.646 13.9399C195.632 14.2119 195.625 14.4903 195.625 14.775H197.625C197.625 14.5226 197.631 14.2785 197.643 14.0425L195.646 13.9399ZM195.625 14.775V16.035H197.625V14.775H195.625ZM195.625 18.555V19.815H197.625V18.555H195.625ZM195.625 19.815C195.625 20.0997 195.632 20.3783 195.646 20.6506L197.643 20.5459C197.631 20.3103 197.625 20.0667 197.625 19.815H195.625ZM195.843 22.3391C195.957 22.938 196.116 23.5015 196.324 24.0262L198.183 23.2885C198.027 22.8952 197.901 22.4557 197.808 21.967L195.843 22.3391ZM197.201 25.6212C197.386 25.8725 197.589 26.108 197.808 26.3271L199.222 24.9129C199.074 24.7652 198.937 24.6052 198.809 24.4324L197.201 25.6212ZM197.816 26.3356C198.205 26.7146 198.63 27.0445 199.091 27.3242L200.128 25.6139C199.798 25.4141 199.494 25.178 199.213 24.9044L197.816 26.3356ZM202.073 28.3595C202.563 28.4304 203.072 28.465 203.6 28.465V26.465C203.16 26.465 202.746 26.4361 202.359 26.3801L202.073 28.3595ZM203.6 28.465C203.82 28.465 204.038 28.4593 204.254 28.4478L204.148 26.4506C203.968 26.4602 203.786 26.465 203.6 26.465V28.465ZM205.566 28.3017C205.786 28.2636 206.004 28.2189 206.218 28.1674L205.752 26.2226C205.579 26.2639 205.404 26.3 205.226 26.3309L205.566 28.3017ZM206.255 28.158C206.455 28.1019 206.651 28.0397 206.842 27.9713L206.169 26.0881C206.023 26.1401 205.872 26.1881 205.715 26.232L206.255 28.158ZM207.986 27.4559C208.174 27.3517 208.355 27.2399 208.53 27.1203L207.4 25.4697C207.278 25.5536 207.149 25.6331 207.014 25.7079L207.986 27.4559ZM208.558 27.1001C208.72 26.9806 208.875 26.8549 209.021 26.7227L207.681 25.2378C207.586 25.324 207.483 25.4081 207.372 25.4899L208.558 27.1001ZM209.832 25.8067C209.951 25.6362 210.058 25.4592 210.155 25.2757L208.385 24.3443C208.327 24.4546 208.262 24.5614 208.19 24.6647L209.832 25.8067ZM210.135 25.311C210.249 25.1145 210.347 24.9094 210.43 24.6965L208.565 23.9734C208.519 24.0919 208.466 24.2035 208.404 24.309L210.135 25.311ZM210.733 23.4157C210.754 23.2092 210.765 22.9989 210.765 22.785H208.765C208.765 22.9334 208.758 23.074 208.744 23.2072L210.733 23.4157ZM210.765 22.785V22.3912H208.765V22.785H210.765ZM210.765 21.6037V21.21H208.765V21.6037H210.765ZM209.765 20.21H208.302V22.21H209.765V20.21ZM205.377 20.21H203.915V22.21H205.377V20.21ZM204.915 21.21V19.7812H202.915V21.21H204.915ZM204.915 16.9237V15.495H202.915V16.9237H204.915ZM203.915 16.495H204.946V14.495H203.915V16.495ZM207.009 16.495H209.071V14.495H207.009V16.495ZM211.134 16.495H213.196V14.495H211.134V16.495ZM215.259 16.495H216.29V14.495H215.259V16.495ZM215.29 15.495V16.5891H217.29V15.495H215.29ZM215.29 18.7772V20.9653H217.29V18.7772H215.29ZM215.29 23.1534V25.3416H217.29V23.1534H215.29ZM215.29 27.5297V29.7178H217.29V27.5297H215.29ZM215.29 31.9059V33H217.29V31.9059H215.29ZM216.29 32H214.85V34H216.29V32ZM211.97 32H210.53V34H211.97V32ZM211.53 33V31.7512H209.53V33H211.53ZM211.53 29.2537V28.005H209.53V29.2537H211.53ZM222.939 33H222.439V33.5H222.939V33ZM222.939 1.59V1.09H222.439V1.59H222.939ZM244.314 1.59H244.814V1.09H244.314V1.59ZM244.314 7.665V8.165H244.814V7.665H244.314ZM229.779 7.665V7.165H229.279V7.665H229.779ZM229.779 14.1H229.279V14.6H229.779V14.1ZM242.244 14.1H242.744V13.6H242.244V14.1ZM242.244 20.13V20.63H242.744V20.13H242.244ZM229.779 20.13V19.63H229.279V20.13H229.779ZM229.779 26.925H229.279V27.425H229.779V26.925ZM244.314 26.925H244.814V26.425H244.314V26.925ZM244.314 33V33.5H244.814V33H244.314ZM223.439 33V32.0184H222.439V33H223.439ZM223.439 30.0553V28.0922H222.439V30.0553H223.439ZM223.439 26.1291V24.1659H222.439V26.1291H223.439ZM223.439 22.2028V20.2397H222.439V22.2028H223.439ZM223.439 18.2766V16.3134H222.439V18.2766H223.439ZM223.439 14.3503V12.3872H222.439V14.3503H223.439ZM223.439 10.4241V8.46094H222.439V10.4241H223.439ZM223.439 6.49781V4.53469H222.439V6.49781H223.439ZM223.439 2.57156V1.59H222.439V2.57156H223.439ZM222.939 2.09H224.007V1.09H222.939V2.09ZM226.145 2.09H228.282V1.09H226.145V2.09ZM230.42 2.09H232.557V1.09H230.42V2.09ZM234.695 2.09H236.832V1.09H234.695V2.09ZM238.97 2.09H241.107V1.09H238.97V2.09ZM243.245 2.09H244.314V1.09H243.245V2.09ZM243.814 1.59V2.34937H244.814V1.59H243.814ZM243.814 3.86812V5.38687H244.814V3.86812H243.814ZM243.814 6.90562V7.665H244.814V6.90562H243.814ZM244.314 7.165H243.405V8.165H244.314V7.165ZM241.588 7.165H239.771V8.165H241.588V7.165ZM237.955 7.165H236.138V8.165H237.955V7.165ZM234.321 7.165H232.504V8.165H234.321V7.165ZM230.687 7.165H229.779V8.165H230.687V7.165ZM229.279 7.665V8.46937H230.279V7.665H229.279ZM229.279 10.0781V11.6869H230.279V10.0781H229.279ZM229.279 13.2956V14.1H230.279V13.2956H229.279ZM229.779 14.6H230.817V13.6H229.779V14.6ZM232.895 14.6H234.972V13.6H232.895V14.6ZM237.05 14.6H239.127V13.6H237.05V14.6ZM241.205 14.6H242.244V13.6H241.205V14.6ZM241.744 14.1V14.8537H242.744V14.1H241.744ZM241.744 16.3612V17.8687H242.744V16.3612H241.744ZM241.744 19.3762V20.13H242.744V19.3762H241.744ZM242.244 19.63H241.205V20.63H242.244V19.63ZM239.127 19.63H237.05V20.63H239.127V19.63ZM234.972 19.63H232.895V20.63H234.972V19.63ZM230.817 19.63H229.779V20.63H230.817V19.63ZM229.279 20.13V20.9794H230.279V20.13H229.279ZM229.279 22.6781V24.3769H230.279V22.6781H229.279ZM229.279 26.0756V26.925H230.279V26.0756H229.279ZM229.779 27.425H230.687V26.425H229.779V27.425ZM232.504 27.425H234.321V26.425H232.504V27.425ZM236.138 27.425H237.955V26.425H236.138V27.425ZM239.771 27.425H241.588V26.425H239.771V27.425ZM243.405 27.425H244.314V26.425H243.405V27.425ZM243.814 26.925V27.6844H244.814V26.925H243.814ZM243.814 29.2031V30.7219H244.814V29.2031H243.814ZM243.814 32.2406V33H244.814V32.2406H243.814ZM244.314 32.5H243.245V33.5H244.314V32.5ZM241.107 32.5H238.97V33.5H241.107V32.5ZM236.832 32.5H234.695V33.5H236.832V32.5ZM232.557 32.5H230.42V33.5H232.557V32.5ZM228.282 32.5H226.145V33.5H228.282V32.5ZM224.007 32.5H222.939V33.5H224.007V32.5ZM222.939 33H221.939V34H222.939V33ZM222.939 1.59V0.589999H221.939V1.59H222.939ZM244.314 1.59H245.314V0.589999H244.314V1.59ZM244.314 7.665V8.665H245.314V7.665H244.314ZM229.779 7.665V6.665H228.779V7.665H229.779ZM229.779 14.1H228.779V15.1H229.779V14.1ZM242.244 14.1H243.244V13.1H242.244V14.1ZM242.244 20.13V21.13H243.244V20.13H242.244ZM229.779 20.13V19.13H228.779V20.13H229.779ZM229.779 26.925H228.779V27.925H229.779V26.925ZM244.314 26.925H245.314V25.925H244.314V26.925ZM244.314 33V34H245.314V33H244.314ZM223.939 33V32.0184H221.939V33H223.939ZM223.939 30.0553V28.0922H221.939V30.0553H223.939ZM223.939 26.1291V24.1659H221.939V26.1291H223.939ZM223.939 22.2028V20.2397H221.939V22.2028H223.939ZM223.939 18.2766V16.3134H221.939V18.2766H223.939ZM223.939 14.3503V12.3872H221.939V14.3503H223.939ZM223.939 10.4241V8.46094H221.939V10.4241H223.939ZM223.939 6.49781V4.53469H221.939V6.49781H223.939ZM223.939 2.57156V1.59H221.939V2.57156H223.939ZM222.939 2.59H224.007V0.589999H222.939V2.59ZM226.145 2.59H228.282V0.589999H226.145V2.59ZM230.42 2.59H232.557V0.589999H230.42V2.59ZM234.695 2.59H236.832V0.589999H234.695V2.59ZM238.97 2.59H241.107V0.589999H238.97V2.59ZM243.245 2.59H244.314V0.589999H243.245V2.59ZM243.314 1.59V2.34937H245.314V1.59H243.314ZM243.314 3.86812V5.38687H245.314V3.86812H243.314ZM243.314 6.90562V7.665H245.314V6.90562H243.314ZM244.314 6.665H243.405V8.665H244.314V6.665ZM241.588 6.665H239.771V8.665H241.588V6.665ZM237.955 6.665H236.138V8.665H237.955V6.665ZM234.321 6.665H232.504V8.665H234.321V6.665ZM230.687 6.665H229.779V8.665H230.687V6.665ZM228.779 7.665V8.46937H230.779V7.665H228.779ZM228.779 10.0781V11.6869H230.779V10.0781H228.779ZM228.779 13.2956V14.1H230.779V13.2956H228.779ZM229.779 15.1H230.817V13.1H229.779V15.1ZM232.895 15.1H234.972V13.1H232.895V15.1ZM237.05 15.1H239.127V13.1H237.05V15.1ZM241.205 15.1H242.244V13.1H241.205V15.1ZM241.244 14.1V14.8537H243.244V14.1H241.244ZM241.244 16.3612V17.8687H243.244V16.3612H241.244ZM241.244 19.3762V20.13H243.244V19.3762H241.244ZM242.244 19.13H241.205V21.13H242.244V19.13ZM239.127 19.13H237.05V21.13H239.127V19.13ZM234.972 19.13H232.895V21.13H234.972V19.13ZM230.817 19.13H229.779V21.13H230.817V19.13ZM228.779 20.13V20.9794H230.779V20.13H228.779ZM228.779 22.6781V24.3769H230.779V22.6781H228.779ZM228.779 26.0756V26.925H230.779V26.0756H228.779ZM229.779 27.925H230.687V25.925H229.779V27.925ZM232.504 27.925H234.321V25.925H232.504V27.925ZM236.138 27.925H237.955V25.925H236.138V27.925ZM239.771 27.925H241.588V25.925H239.771V27.925ZM243.405 27.925H244.314V25.925H243.405V27.925ZM243.314 26.925V27.6844H245.314V26.925H243.314ZM243.314 29.2031V30.7219H245.314V29.2031H243.314ZM243.314 32.2406V33H245.314V32.2406H243.314ZM244.314 32H243.245V34H244.314V32ZM241.107 32H238.97V34H241.107V32ZM236.832 32H234.695V34H236.832V32ZM232.557 32H230.42V34H232.557V32ZM228.282 32H226.145V34H228.282V32ZM224.007 32H222.939V34H224.007V32ZM259.858 18.15L259.407 18.3658L259.415 18.3835L259.425 18.4005L259.858 18.15ZM256.843 11.85L257.294 11.6342L257.158 11.35H256.843V11.85ZM256.708 11.85V11.35H256.208V11.85H256.708ZM256.708 33V33.5H257.208V33H256.708ZM250.273 33H249.773V33.5H250.273V33ZM250.273 1.59V1.09H249.773V1.59H250.273ZM257.743 1.59L258.175 1.33953L258.031 1.09H257.743V1.59ZM266.338 16.44L266.789 16.2242L266.78 16.2065L266.77 16.1895L266.338 16.44ZM269.353 22.74L268.902 22.9558L269.038 23.24H269.353V22.74ZM269.488 22.74V23.24H269.988V22.74H269.488ZM269.488 1.59V1.09H268.988V1.59H269.488ZM275.923 1.59H276.423V1.09H275.923V1.59ZM275.923 33V33.5H276.423V33H275.923ZM268.453 33L268.02 33.2505L268.164 33.5H268.453V33ZM260.309 17.9342L259.932 17.1467L259.03 17.5783L259.407 18.3658L260.309 17.9342ZM259.178 15.5717L258.424 13.9967L257.522 14.4283L258.276 16.0033L259.178 15.5717ZM257.671 12.4217L257.294 11.6342L256.392 12.0658L256.768 12.8533L257.671 12.4217ZM256.843 11.35H256.809V12.35H256.843V11.35ZM256.741 11.35H256.708V12.35H256.741V11.35ZM256.208 11.85V12.9075H257.208V11.85H256.208ZM256.208 15.0225V17.1375H257.208V15.0225H256.208ZM256.208 19.2525V21.3675H257.208V19.2525H256.208ZM256.208 23.4825V25.5975H257.208V23.4825H256.208ZM256.208 27.7125V29.8275H257.208V27.7125H256.208ZM256.208 31.9425V33H257.208V31.9425H256.208ZM256.708 32.5H255.903V33.5H256.708V32.5ZM254.294 32.5H252.686V33.5H254.294V32.5ZM251.077 32.5H250.273V33.5H251.077V32.5ZM250.773 33V32.0184H249.773V33H250.773ZM250.773 30.0553V28.0922H249.773V30.0553H250.773ZM250.773 26.1291V24.1659H249.773V26.1291H250.773ZM250.773 22.2028V20.2397H249.773V22.2028H250.773ZM250.773 18.2766V16.3134H249.773V18.2766H250.773ZM250.773 14.3503V12.3872H249.773V14.3503H250.773ZM250.773 10.4241V8.46094H249.773V10.4241H250.773ZM250.773 6.49781V4.53469H249.773V6.49781H250.773ZM250.773 2.57156V1.59H249.773V2.57156H250.773ZM250.273 2.09H251.206V1.09H250.273V2.09ZM253.074 2.09H254.941V1.09H253.074V2.09ZM256.809 2.09H257.743V1.09H256.809V2.09ZM257.31 1.84047L257.847 2.76859L258.713 2.26766L258.175 1.33953L257.31 1.84047ZM258.921 4.62484L259.996 6.48109L260.861 5.98016L259.787 4.12391L258.921 4.62484ZM261.07 8.33734L262.145 10.1936L263.01 9.69266L261.936 7.83641L261.07 8.33734ZM263.219 12.0498L264.293 13.9061L265.159 13.4052L264.084 11.5489L263.219 12.0498ZM265.368 15.7623L265.905 16.6905L266.77 16.1895L266.233 15.2614L265.368 15.7623ZM265.887 16.6558L266.263 17.4433L267.166 17.0117L266.789 16.2242L265.887 16.6558ZM267.017 19.0183L267.771 20.5933L268.673 20.1617L267.919 18.5867L267.017 19.0183ZM268.525 22.1683L268.902 22.9558L269.804 22.5242L269.427 21.7367L268.525 22.1683ZM269.353 23.24H269.386V22.24H269.353V23.24ZM269.454 23.24H269.488V22.24H269.454V23.24ZM269.988 22.74V21.6825H268.988V22.74H269.988ZM269.988 19.5675V17.4525H268.988V19.5675H269.988ZM269.988 15.3375V13.2225H268.988V15.3375H269.988ZM269.988 11.1075V8.9925H268.988V11.1075H269.988ZM269.988 6.8775V4.7625H268.988V6.8775H269.988ZM269.988 2.6475V1.59H268.988V2.6475H269.988ZM269.488 2.09H270.292V1.09H269.488V2.09ZM271.901 2.09H273.509V1.09H271.901V2.09ZM275.118 2.09H275.923V1.09H275.118V2.09ZM275.423 1.59V2.57156H276.423V1.59H275.423ZM275.423 4.53469V6.49781H276.423V4.53469H275.423ZM275.423 8.46094V10.4241H276.423V8.46094H275.423ZM275.423 12.3872V14.3503H276.423V12.3872H275.423ZM275.423 16.3134V18.2766H276.423V16.3134H275.423ZM275.423 20.2397V22.2028H276.423V20.2397H275.423ZM275.423 24.1659V26.1291H276.423V24.1659H275.423ZM275.423 28.0922V30.0553H276.423V28.0922H275.423ZM275.423 32.0184V33H276.423V32.0184H275.423ZM275.923 32.5H274.989V33.5H275.923V32.5ZM273.121 32.5H271.254V33.5H273.121V32.5ZM269.386 32.5H268.453V33.5H269.386V32.5ZM268.885 32.7495L268.348 31.8214L267.483 32.3223L268.02 33.2505L268.885 32.7495ZM267.274 29.9652L266.199 28.1089L265.334 28.6098L266.408 30.4661L267.274 29.9652ZM265.125 26.2527L264.051 24.3964L263.185 24.8973L264.26 26.7536L265.125 26.2527ZM262.976 22.5402L261.902 20.6839L261.036 21.1848L262.111 23.0411L262.976 22.5402ZM260.828 18.8277L260.29 17.8995L259.425 18.4005L259.962 19.3286L260.828 18.8277ZM259.858 18.15L258.956 18.5817L258.973 18.617L258.992 18.6509L259.858 18.15ZM256.843 11.85L257.745 11.4183L257.473 10.85H256.843V11.85ZM256.708 11.85V10.85H255.708V11.85H256.708ZM256.708 33V34H257.708V33H256.708ZM250.273 33H249.273V34H250.273V33ZM250.273 1.59V0.589999H249.273V1.59H250.273ZM257.743 1.59L258.608 1.08907L258.319 0.589999H257.743V1.59ZM266.338 16.44L267.24 16.0083L267.223 15.973L267.203 15.9391L266.338 16.44ZM269.353 22.74L268.451 23.1717L268.723 23.74H269.353V22.74ZM269.488 22.74V23.74H270.488V22.74H269.488ZM269.488 1.59V0.589999H268.488V1.59H269.488ZM275.923 1.59H276.923V0.589999H275.923V1.59ZM275.923 33V34H276.923V33H275.923ZM268.453 33L267.587 33.5009L267.876 34H268.453V33ZM260.76 17.7183L260.383 16.9308L258.579 17.7942L258.956 18.5817L260.76 17.7183ZM259.629 15.3558L258.875 13.7808L257.071 14.6442L257.825 16.2192L259.629 15.3558ZM258.122 12.2058L257.745 11.4183L255.941 12.2817L256.317 13.0692L258.122 12.2058ZM256.843 10.85H256.809V12.85H256.843V10.85ZM256.741 10.85H256.708V12.85H256.741V10.85ZM255.708 11.85V12.9075H257.708V11.85H255.708ZM255.708 15.0225V17.1375H257.708V15.0225H255.708ZM255.708 19.2525V21.3675H257.708V19.2525H255.708ZM255.708 23.4825V25.5975H257.708V23.4825H255.708ZM255.708 27.7125V29.8275H257.708V27.7125H255.708ZM255.708 31.9425V33H257.708V31.9425H255.708ZM256.708 32H255.903V34H256.708V32ZM254.294 32H252.686V34H254.294V32ZM251.077 32H250.273V34H251.077V32ZM251.273 33V32.0184H249.273V33H251.273ZM251.273 30.0553V28.0922H249.273V30.0553H251.273ZM251.273 26.1291V24.1659H249.273V26.1291H251.273ZM251.273 22.2028V20.2397H249.273V22.2028H251.273ZM251.273 18.2766V16.3134H249.273V18.2766H251.273ZM251.273 14.3503V12.3872H249.273V14.3503H251.273ZM251.273 10.4241V8.46094H249.273V10.4241H251.273ZM251.273 6.49781V4.53469H249.273V6.49781H251.273ZM251.273 2.57156V1.59H249.273V2.57156H251.273ZM250.273 2.59H251.206V0.589999H250.273V2.59ZM253.074 2.59H254.941V0.589999H253.074V2.59ZM256.809 2.59H257.743V0.589999H256.809V2.59ZM256.877 2.09093L257.414 3.01906L259.145 2.01719L258.608 1.08907L256.877 2.09093ZM258.489 4.87531L259.563 6.73156L261.294 5.72969L260.22 3.87344L258.489 4.87531ZM260.637 8.58781L261.712 10.4441L263.443 9.44219L262.368 7.58594L260.637 8.58781ZM262.786 12.3003L263.861 14.1566L265.592 13.1547L264.517 11.2984L262.786 12.3003ZM264.935 16.0128L265.472 16.9409L267.203 15.9391L266.666 15.0109L264.935 16.0128ZM265.436 16.8717L265.812 17.6592L267.617 16.7958L267.24 16.0083L265.436 16.8717ZM266.566 19.2342L267.32 20.8092L269.124 19.9458L268.37 18.3708L266.566 19.2342ZM268.074 22.3842L268.451 23.1717L270.255 22.3083L269.878 21.5208L268.074 22.3842ZM269.353 23.74H269.386V21.74H269.353V23.74ZM269.454 23.74H269.488V21.74H269.454V23.74ZM270.488 22.74V21.6825H268.488V22.74H270.488ZM270.488 19.5675V17.4525H268.488V19.5675H270.488ZM270.488 15.3375V13.2225H268.488V15.3375H270.488ZM270.488 11.1075V8.9925H268.488V11.1075H270.488ZM270.488 6.8775V4.7625H268.488V6.8775H270.488ZM270.488 2.6475V1.59H268.488V2.6475H270.488ZM269.488 2.59H270.292V0.589999H269.488V2.59ZM271.901 2.59H273.509V0.589999H271.901V2.59ZM275.118 2.59H275.923V0.589999H275.118V2.59ZM274.923 1.59V2.57156H276.923V1.59H274.923ZM274.923 4.53469V6.49781H276.923V4.53469H274.923ZM274.923 8.46094V10.4241H276.923V8.46094H274.923ZM274.923 12.3872V14.3503H276.923V12.3872H274.923ZM274.923 16.3134V18.2766H276.923V16.3134H274.923ZM274.923 20.2397V22.2028H276.923V20.2397H274.923ZM274.923 24.1659V26.1291H276.923V24.1659H274.923ZM274.923 28.0922V30.0553H276.923V28.0922H274.923ZM274.923 32.0184V33H276.923V32.0184H274.923ZM275.923 32H274.989V34H275.923V32ZM273.121 32H271.254V34H273.121V32ZM269.386 32H268.453V34H269.386V32ZM269.318 32.4991L268.781 31.5709L267.05 32.5728L267.587 33.5009L269.318 32.4991ZM267.707 29.7147L266.632 27.8584L264.901 28.8603L265.976 30.7166L267.707 29.7147ZM265.558 26.0022L264.483 24.1459L262.752 25.1478L263.827 27.0041L265.558 26.0022ZM263.409 22.2897L262.335 20.4334L260.604 21.4353L261.678 23.2916L263.409 22.2897ZM261.26 18.5772L260.723 17.6491L258.992 18.6509L259.529 19.5791L261.26 18.5772Z" fill="#DADADA"></path> </svg> 