<?xml version="1.0" encoding="UTF-8"?> <svg xmlns="http://www.w3.org/2000/svg" width="137" height="80" viewBox="0 0 137 80" fill="none"> <path d="M10.395 32.55L10.2079 33.0137L10.215 33.0165L10.395 32.55ZM6.03 29.535L5.65627 29.8672L5.66003 29.8713L6.03 29.535ZM3.24 24.54L2.76495 24.696L2.76566 24.6981L3.24 24.54ZM3.24 10.5L3.71573 10.6539L3.71637 10.6519L3.24 10.5ZM6.03 5.325L6.40732 5.65311L6.41077 5.64906L6.03 5.325ZM10.395 2.13L10.201 1.66918L10.201 1.66918L10.395 2.13ZM23.355 2.85L23.087 3.27213L23.0918 3.27513L23.355 2.85ZM27.9 8.43L28.1304 8.87377L28.5489 8.65649L28.3565 8.22593L27.9 8.43ZM22.005 11.49L21.5285 11.6416L21.7085 12.2072L22.2354 11.9338L22.005 11.49ZM20.025 8.34L19.6843 8.70595L19.6908 8.71201L19.6975 8.71784L20.025 8.34ZM11.295 9.105L10.9292 8.76414L10.9289 8.76445L11.295 9.105ZM11.295 25.53L10.9249 25.8664L10.9331 25.875L11.295 25.53ZM20.16 26.115L20.4963 26.485L20.4969 26.4845L20.16 26.115ZM22.41 22.785L22.6611 22.3526L22.1482 22.0548L21.9414 22.6106L22.41 22.785ZM27.99 26.025L28.4394 26.2441L28.6432 25.8261L28.2411 25.5926L27.99 26.025ZM23.355 31.605L23.6369 32.018L23.6383 32.017L23.355 31.605ZM16.155 33.04C15.6661 33.04 15.1894 33.0222 14.7249 32.9867L14.6487 33.9838C15.1397 34.0213 15.6418 34.04 16.155 34.04V33.04ZM11.9209 32.5203C11.4574 32.3966 11.0089 32.251 10.575 32.0835L10.215 33.0165C10.6832 33.1972 11.1659 33.3538 11.663 33.4865L11.9209 32.5203ZM10.5821 32.0863C10.1787 31.9235 9.7907 31.7428 9.41801 31.5442L8.94776 32.4268C9.35247 32.6424 9.77257 32.838 10.2079 33.0137L10.5821 32.0863ZM7.31331 30.0951C6.99363 29.8156 6.68919 29.5168 6.39997 29.1987L5.66003 29.8713C5.97465 30.2174 6.30633 30.543 6.65506 30.8479L7.31331 30.0951ZM6.4037 29.2028C6.10138 28.8627 5.81652 28.5012 5.54919 28.1182L4.72919 28.6906C5.01838 29.1049 5.3274 29.4972 5.6563 29.8672L6.4037 29.2028ZM4.21048 25.6888C4.03093 25.271 3.86551 24.8354 3.71434 24.3819L2.76566 24.6981C2.92529 25.177 3.1006 25.6389 3.29172 26.0836L4.21048 25.6888ZM3.71505 24.384C3.62665 24.1148 3.54425 23.8392 3.46788 23.557L2.50262 23.8183C2.58347 24.117 2.6709 24.4096 2.76495 24.696L3.71505 24.384ZM3.09566 21.8647C2.99974 21.3107 2.92365 20.7356 2.86755 20.1392L1.87195 20.2329C1.93032 20.8535 2.00972 21.4543 2.11033 22.0353L3.09566 21.8647ZM2.76236 18.3957C2.75413 18.1081 2.75 17.8162 2.75 17.52H1.75C1.75 17.8255 1.75425 18.1269 1.76277 18.4243L2.76236 18.3957ZM2.75 17.52C2.75 17.2242 2.75421 16.9325 2.76261 16.6447L1.76304 16.6155C1.75434 16.9133 1.75 17.2148 1.75 17.52H2.75ZM2.8694 14.9017C2.92601 14.3072 3.00267 13.7322 3.09924 13.1763L2.114 13.0052C2.0128 13.5876 1.93281 14.1882 1.8739 14.8069L2.8694 14.9017ZM3.47082 11.4828C3.54655 11.2007 3.62819 10.9245 3.71572 10.6539L2.76428 10.3461C2.67143 10.6331 2.58503 10.9255 2.50503 11.2234L3.47082 11.4828ZM3.71637 10.6519C3.86623 10.1819 4.03006 9.73111 4.20772 9.29948L3.28299 8.91886C3.09442 9.37698 2.92135 9.85345 2.76363 10.3481L3.71637 10.6519ZM5.54444 6.77876C5.81432 6.37935 6.10198 6.00421 6.4073 5.65309L5.6527 4.99691C5.31996 5.37956 5.00771 5.78697 4.71587 6.21888L5.54444 6.77876ZM6.41077 5.64906C6.69679 5.31299 6.99751 4.99781 7.3129 4.70338L6.6305 3.9724C6.28661 4.29344 5.95953 4.63634 5.64923 5.00094L6.41077 5.64906ZM9.41474 3.16523C9.79063 2.95369 10.182 2.76219 10.589 2.59082L10.201 1.66918C9.75963 1.85501 9.33402 2.06318 8.92429 2.29376L9.41474 3.16523ZM10.589 2.59082C11.0197 2.40948 11.4648 2.25171 11.9244 2.1176L11.6443 1.15762C11.1488 1.3022 10.6676 1.47269 10.201 1.66918L10.589 2.59082ZM14.7233 1.60844C15.1883 1.56953 15.6655 1.55 16.155 1.55V0.549998C15.6389 0.549998 15.1338 0.570592 14.6399 0.611929L14.7233 1.60844ZM16.155 1.55C16.467 1.55 16.7726 1.55706 17.0718 1.57115L17.1188 0.572261C16.8034 0.557405 16.4821 0.549998 16.155 0.549998V1.55ZM18.8858 1.75474C19.5067 1.85439 20.094 1.99011 20.6483 2.1613L20.9434 1.20584C20.3412 1.01984 19.708 0.87389 19.0442 0.767374L18.8858 1.75474ZM22.3117 2.83057C22.5798 2.96697 22.8382 3.11417 23.087 3.27211L23.623 2.42789C23.347 2.25265 23.061 2.08978 22.7651 1.93925L22.3117 2.83057ZM23.0918 3.27513C23.3359 3.42622 23.5735 3.58958 23.8048 3.76526L24.4097 2.96899C24.1534 2.77426 23.8896 2.59286 23.6182 2.42487L23.0918 3.27513ZM25.0863 4.93598C25.4681 5.35073 25.8288 5.80895 26.1681 6.31138L26.9969 5.75181C26.6314 5.21059 26.2399 4.71264 25.822 4.25869L25.0863 4.93598ZM27.0609 7.83305C27.1927 8.09135 27.3203 8.35834 27.4435 8.63406L28.3565 8.22593C28.2265 7.93512 28.0915 7.6526 27.9515 7.37843L27.0609 7.83305ZM27.6696 7.98623L26.9328 8.36873L27.3935 9.25627L28.1304 8.87377L27.6696 7.98623ZM25.459 9.13372L23.9853 9.89872L24.446 10.7863L25.9197 10.0213L25.459 9.13372ZM22.5115 10.6637L21.7746 11.0462L22.2354 11.9338L22.9722 11.5513L22.5115 10.6637ZM22.4815 11.3384C22.3781 11.0135 22.2604 10.7025 22.1281 10.4057L21.2147 10.8128C21.331 11.0737 21.4357 11.3499 21.5285 11.6416L22.4815 11.3384ZM21.0679 8.68957C20.8477 8.42722 20.6092 8.18466 20.3525 7.96215L19.6975 8.71784C19.9139 8.90538 20.1154 9.11016 20.302 9.33247L21.0679 8.68957ZM20.3657 7.97405C20.0829 7.71074 19.7632 7.48702 19.4088 7.30217L18.9463 8.1888C19.2253 8.33433 19.4706 8.50696 19.6843 8.70595L20.3657 7.97405ZM17.2476 6.68338C16.9006 6.64425 16.5363 6.625 16.155 6.625V7.625C16.5029 7.625 16.8295 7.64257 17.1355 7.67708L17.2476 6.68338ZM16.155 6.625C15.6593 6.625 15.1825 6.66307 14.7254 6.74029L14.892 7.72632C15.2897 7.65914 15.7105 7.625 16.155 7.625V6.625ZM12.032 7.80972C11.6352 8.08242 11.2676 8.40096 10.9292 8.76414L11.6608 9.44586C11.9515 9.1339 12.264 8.86363 12.5984 8.63385L12.032 7.80972ZM10.9289 8.76445C10.7413 8.96612 10.5674 9.18093 10.4073 9.40867L11.2252 9.98393C11.3596 9.79284 11.5049 9.61346 11.6611 9.44555L10.9289 8.76445ZM9.63838 10.8568C9.45075 11.3383 9.30527 11.8561 9.20051 12.4089L10.183 12.5951C10.2775 12.0964 10.4071 11.6384 10.5702 11.2198L9.63838 10.8568ZM9.01539 13.987C9.00177 14.2435 8.995 14.5062 8.995 14.775H9.995C9.995 14.523 10.0014 14.278 10.014 14.04L9.01539 13.987ZM8.995 14.775V16.035H9.995V14.775H8.995ZM8.995 18.555V19.815H9.995V18.555H8.995ZM8.995 19.815C8.995 20.0854 9.00186 20.3498 9.01563 20.6081L10.0142 20.5548C10.0014 20.3151 9.995 20.0685 9.995 19.815H8.995ZM9.20238 22.1959C9.30765 22.7509 9.45363 23.2716 9.64165 23.7569L10.5741 23.3957C10.4102 22.9725 10.28 22.5109 10.1849 22.0095L9.20238 22.1959ZM10.4076 25.2149C10.5666 25.4445 10.7391 25.6618 10.925 25.8663L11.665 25.1937C11.5091 25.0222 11.364 24.8396 11.2298 24.6457L10.4076 25.2149ZM10.9331 25.875C11.2738 26.2323 11.6438 26.5453 12.0432 26.8127L12.5997 25.9819C12.2631 25.7565 11.9489 25.4912 11.6569 25.185L10.9331 25.875ZM14.7328 27.8534C15.1877 27.9281 15.6619 27.965 16.155 27.965V26.965C15.7117 26.965 15.2919 26.9319 14.895 26.8666L14.7328 27.8534ZM16.155 27.965C16.552 27.965 16.9337 27.9411 17.2997 27.8927L17.1684 26.9013C16.8497 26.9435 16.5121 26.965 16.155 26.965V27.965ZM19.5274 27.1816C19.8777 26.9858 20.2009 26.7535 20.4963 26.485L19.8237 25.745C19.585 25.962 19.3239 26.1498 19.0396 26.3086L19.5274 27.1816ZM20.4969 26.4845C20.7637 26.2412 21.0136 25.9857 21.2462 25.7181L20.4915 25.062C20.2848 25.2998 20.062 25.5277 19.8231 25.7455L20.4969 26.4845ZM22.4473 23.941C22.609 23.625 22.7527 23.2977 22.8786 22.9594L21.9414 22.6106C21.8288 22.9133 21.7006 23.2049 21.5571 23.4855L22.4473 23.941ZM22.1589 23.2174L22.8564 23.6224L23.3586 22.7576L22.6611 22.3526L22.1589 23.2174ZM24.2514 24.4324L25.6464 25.2424L26.1486 24.3776L24.7536 23.5676L24.2514 24.4324ZM27.0414 26.0524L27.7389 26.4574L28.2411 25.5926L27.5436 25.1876L27.0414 26.0524ZM27.5406 25.8059C27.4084 26.077 27.2715 26.3407 27.1298 26.5971L28.005 27.0808C28.1552 26.8091 28.3 26.5302 28.4394 26.2441L27.5406 25.8059ZM26.1852 28.1005C25.835 28.5909 25.4625 29.0472 25.068 29.4696L25.7988 30.1522C26.2243 29.6966 26.6244 29.2063 26.999 28.6815L26.1852 28.1005ZM23.7779 30.668C23.5486 30.852 23.3133 31.0269 23.0717 31.193L23.6383 32.017C23.9001 31.837 24.1553 31.6473 24.4037 31.448L23.7779 30.668ZM23.0731 31.192C22.8275 31.3597 22.5726 31.516 22.3083 31.6609L22.7891 32.5377C23.0815 32.3774 23.3641 32.2041 23.6369 32.018L23.0731 31.192ZM20.6569 32.3782C20.1031 32.5632 19.5161 32.7099 18.8953 32.8177L19.0664 33.803C19.7332 33.6872 20.3691 33.5286 20.9737 33.3267L20.6569 32.3782ZM17.0757 33.017C16.7754 33.0323 16.4685 33.04 16.155 33.04V34.04C16.4848 34.04 16.8087 34.0319 17.1266 34.0157L17.0757 33.017ZM10.395 32.55L10.0208 33.4774L10.0278 33.4802L10.0349 33.4829L10.395 32.55ZM6.03 29.535L5.28254 30.1994L5.29006 30.2077L6.03 29.535ZM3.24 24.54L2.2899 24.852L2.29132 24.8562L3.24 24.54ZM3.24 10.5L4.19145 10.8078L4.19274 10.8038L3.24 10.5ZM6.03 5.325L6.78465 5.98122L6.79154 5.97312L6.03 5.325ZM10.395 2.13L10.0069 1.20836L10.0069 1.20836L10.395 2.13ZM23.355 2.85L22.819 3.69427L22.8286 3.70026L23.355 2.85ZM27.9 8.43L28.3607 9.31755L29.1979 8.88298L28.8129 8.02187L27.9 8.43ZM22.005 11.49L21.0521 11.7932L21.412 12.9245L22.4657 12.3775L22.005 11.49ZM20.025 8.34L19.3436 9.07189L19.3566 9.08403L19.3701 9.09569L20.025 8.34ZM11.295 9.105L10.5634 8.42327L10.5628 8.4239L11.295 9.105ZM11.295 25.53L10.5551 26.2027L10.5631 26.2115L10.5713 26.2201L11.295 25.53ZM20.16 26.115L20.8327 26.8549L20.8338 26.854L20.16 26.115ZM22.41 22.785L22.9121 21.9202L21.8864 21.3246L21.4728 22.4363L22.41 22.785ZM27.99 26.025L28.8889 26.4632L29.2964 25.6272L28.4921 25.1602L27.99 26.025ZM23.355 31.605L23.9187 32.431L23.9215 32.429L23.355 31.605ZM16.155 32.54C15.6783 32.54 15.2143 32.5226 14.763 32.4881L14.6106 34.4823C15.1148 34.5209 15.6297 34.54 16.155 34.54V32.54ZM12.0498 32.0372C11.6032 31.918 11.1717 31.7779 10.7551 31.6171L10.0349 33.4829C10.5203 33.6703 11.0202 33.8324 11.5341 33.9696L12.0498 32.0372ZM10.7692 31.6226C10.3817 31.4663 10.0098 31.293 9.65313 31.103L8.71264 32.868C9.13336 33.0922 9.56952 33.2953 10.0208 33.4774L10.7692 31.6226ZM7.64244 29.7187C7.33729 29.4519 7.04647 29.1665 6.76994 28.8623L5.29006 30.2077C5.61738 30.5677 5.96268 30.9067 6.32593 31.2243L7.64244 29.7187ZM6.77741 28.8706C6.48837 28.5455 6.21559 28.1994 5.95919 27.8321L4.31919 28.9768C4.61931 29.4068 4.94041 29.8144 5.28259 30.1994L6.77741 28.8706ZM4.66986 25.4914C4.4961 25.087 4.33562 24.6646 4.18868 24.2238L2.29132 24.8562C2.45517 25.3478 2.63543 25.8228 2.83235 26.281L4.66986 25.4914ZM4.19009 24.228C4.10453 23.9674 4.02465 23.7002 3.95051 23.4264L2.01998 23.9489C2.10307 24.2559 2.19303 24.5569 2.28991 24.852L4.19009 24.228ZM3.58833 21.7794C3.49474 21.2389 3.42031 20.6767 3.36536 20.0924L1.37414 20.2797C1.43366 20.9124 1.51472 21.5261 1.61766 22.1206L3.58833 21.7794ZM3.26216 18.3813C3.25406 18.0987 3.25 17.8116 3.25 17.52H1.25C1.25 17.8301 1.25432 18.1363 1.26298 18.4386L3.26216 18.3813ZM3.25 17.52C3.25 17.229 3.25414 16.9421 3.2624 16.6593L1.26325 16.6009C1.25441 16.9037 1.25 17.21 1.25 17.52H3.25ZM3.36715 14.9491C3.4226 14.3667 3.4976 13.8044 3.59186 13.2619L1.62138 12.9196C1.51786 13.5154 1.43622 14.1287 1.37616 14.7595L3.36715 14.9491ZM3.95371 11.6124C4.02731 11.3383 4.10657 11.0702 4.19144 10.8078L2.28856 10.1922C2.19305 10.4874 2.10426 10.7879 2.02214 11.0938L3.95371 11.6124ZM4.19274 10.8038C4.33868 10.3461 4.49788 9.90817 4.67008 9.48978L2.82062 8.72855C2.6266 9.19992 2.4489 9.68924 2.28726 10.1962L4.19274 10.8038ZM5.95873 7.0587C6.21763 6.67555 6.49298 6.31654 6.78461 5.98118L5.27539 4.66882C4.92895 5.06723 4.60441 5.49078 4.30158 5.93894L5.95873 7.0587ZM6.79154 5.97312C7.06542 5.65131 7.35296 5.35 7.6541 5.06886L6.2893 3.60691C5.93116 3.94125 5.59089 4.29802 5.26846 4.67688L6.79154 5.97312ZM9.65997 3.60097C10.0189 3.39895 10.3932 3.21579 10.7831 3.05163L10.0069 1.20836C9.54844 1.40142 9.10571 1.61792 8.67907 1.85803L9.65997 3.60097ZM10.7831 3.05163C11.1957 2.87787 11.6228 2.72646 12.0645 2.59758L11.5043 0.677637C10.9908 0.827454 10.4916 1.0043 10.0069 1.20836L10.7831 3.05163ZM14.765 2.1067C15.2155 2.069 15.6788 2.05 16.155 2.05V0.0499983C15.6256 0.0499983 15.1066 0.071122 14.5982 0.113671L14.765 2.1067ZM16.155 2.05C16.4595 2.05 16.7572 2.05689 17.0482 2.0706L17.1423 0.0728148C16.8188 0.057576 16.4897 0.0499983 16.155 0.0499983V2.05ZM18.8065 2.24843C19.4061 2.34463 19.9705 2.47524 20.5007 2.63903L21.091 0.728113C20.4648 0.534706 19.8086 0.383643 19.1234 0.273689L18.8065 2.24843ZM22.085 3.27623C22.3393 3.40557 22.5839 3.54493 22.819 3.69421L23.891 2.00579C23.6014 1.82189 23.3015 1.65118 22.9917 1.49359L22.085 3.27623ZM22.8286 3.70026C23.0591 3.8429 23.2836 3.99723 23.5023 4.16339L24.7122 2.57086C24.4434 2.36661 24.1664 2.17618 23.8814 1.99973L22.8286 3.70026ZM24.7185 5.27463C25.0823 5.66978 25.4275 6.10813 25.7537 6.59117L27.4112 5.47202C27.0327 4.91141 26.6258 4.39359 26.1899 3.92004L24.7185 5.27463ZM26.6155 8.06036C26.7433 8.31073 26.8672 8.56996 26.9871 8.83813L28.8129 8.02187C28.6795 7.72351 28.5409 7.43323 28.3969 7.15112L26.6155 8.06036ZM27.4393 7.54245L26.7024 7.92495L27.6238 9.70005L28.3607 9.31755L27.4393 7.54245ZM25.2287 8.68995L23.7549 9.45495L24.6763 11.23L26.1501 10.465L25.2287 8.68995ZM22.2812 10.22L21.5443 10.6024L22.4657 12.3775L23.2026 11.995L22.2812 10.22ZM22.9579 11.1868C22.8492 10.8452 22.7251 10.5168 22.5848 10.2021L20.758 11.0163C20.8664 11.2594 20.9646 11.5181 21.0521 11.7932L22.9579 11.1868ZM21.4509 8.36811C21.2139 8.08575 20.9568 7.8243 20.6799 7.58431L19.3701 9.09569C19.5663 9.26574 19.7492 9.45163 19.919 9.65392L21.4509 8.36811ZM20.7064 7.6081C20.3891 7.31262 20.0321 7.06337 19.64 6.85886L18.7151 8.63212C18.9564 8.75799 19.1644 8.90507 19.3436 9.07189L20.7064 7.6081ZM17.3036 6.18653C16.9362 6.14509 16.553 6.125 16.155 6.125V8.125C16.4862 8.125 16.794 8.14173 17.0794 8.17393L17.3036 6.18653ZM16.155 6.125C15.6337 6.125 15.129 6.16503 14.6421 6.24728L14.9752 8.21934C15.3433 8.15717 15.7361 8.125 16.155 8.125V6.125ZM11.7488 7.39765C11.3208 7.69182 10.9257 8.0345 10.5634 8.42327L12.0266 9.78672C12.2934 9.50036 12.5785 9.25423 12.8816 9.04591L11.7488 7.39765ZM10.5628 8.4239C10.3595 8.64245 10.1713 8.87497 9.99827 9.12104L11.6342 10.2716C11.7557 10.0988 11.8867 9.93712 12.0272 9.7861L10.5628 8.4239ZM9.17249 10.6752C8.97259 11.1883 8.81914 11.736 8.70925 12.3158L10.6743 12.6882C10.7637 12.2165 10.8852 11.7884 11.036 11.4013L9.17249 10.6752ZM8.51609 13.9605C8.50198 14.2263 8.495 14.4978 8.495 14.775H10.495C10.495 14.5314 10.5011 14.2952 10.5133 14.0665L8.51609 13.9605ZM8.495 14.775V16.035H10.495V14.775H8.495ZM8.495 18.555V19.815H10.495V18.555H8.495ZM8.495 19.815C8.495 20.0938 8.50207 20.3671 8.51634 20.6347L10.5135 20.5282C10.5012 20.2978 10.495 20.0601 10.495 19.815H8.495ZM8.71114 22.2891C8.8215 22.8709 8.97536 23.4212 9.17542 23.9376L11.0403 23.215C10.8884 22.8229 10.7661 22.3909 10.6761 21.9164L8.71114 22.2891ZM9.99649 25.4995C10.1679 25.747 10.354 25.9816 10.5551 26.2027L12.0349 24.8573C11.8941 24.7024 11.7628 24.5371 11.641 24.3612L9.99649 25.4995ZM10.5713 26.2201C10.9363 26.6029 11.3342 26.9396 11.7649 27.2282L12.8779 25.5665C12.5728 25.3621 12.2864 25.1207 12.0187 24.8399L10.5713 26.2201ZM14.6518 28.3468C15.1355 28.4263 15.637 28.465 16.155 28.465V26.465C15.7366 26.465 15.3441 26.4337 14.9761 26.3733L14.6518 28.3468ZM16.155 28.465C16.572 28.465 16.9758 28.4399 17.3653 28.3883L17.1027 26.4057C16.8077 26.4447 16.4921 26.465 16.155 26.465V28.465ZM19.7713 27.618C20.1546 27.4039 20.5089 27.1493 20.8327 26.8549L19.4873 25.3751C19.277 25.5662 19.047 25.7317 18.7957 25.8721L19.7713 27.618ZM20.8338 26.854C21.1146 26.5979 21.378 26.3287 21.6235 26.0462L20.1142 24.734C19.9204 24.9569 19.7112 25.1709 19.4862 25.376L20.8338 26.854ZM22.8925 24.1687C23.0631 23.8351 23.2147 23.49 23.3472 23.1337L21.4728 22.4363C21.3668 22.7211 21.2465 22.9948 21.1119 23.2578L22.8925 24.1687ZM21.9079 23.6498L22.6054 24.0548L23.6096 22.3252L22.9121 21.9202L21.9079 23.6498ZM24.0004 24.8648L25.3954 25.6748L26.3996 23.9452L25.0046 23.1352L24.0004 24.8648ZM26.7904 26.4848L27.4879 26.8898L28.4921 25.1602L27.7946 24.7552L26.7904 26.4848ZM27.0911 25.5868C26.9626 25.8504 26.8296 26.1066 26.6922 26.3553L28.4426 27.3226C28.597 27.0432 28.7458 26.7567 28.8889 26.4632L27.0911 25.5868ZM25.7782 27.8099C25.4403 28.2833 25.0816 28.7225 24.7026 29.1283L26.1641 30.4935C26.6052 30.0213 27.019 29.5139 27.4059 28.9721L25.7782 27.8099ZM23.465 30.278C23.2453 30.4543 23.0198 30.6219 22.7885 30.781L23.9215 32.429C24.1936 32.242 24.4586 32.045 24.7166 31.838L23.465 30.278ZM22.7913 30.779C22.5592 30.9374 22.3181 31.0853 22.0679 31.2225L23.0295 32.9761C23.336 32.8081 23.6325 32.6264 23.9187 32.4309L22.7913 30.779ZM20.4984 31.9039C19.97 32.0805 19.4075 32.2213 18.8098 32.3251L19.152 34.2956C19.8418 34.1758 20.5022 34.0113 21.1321 33.8009L20.4984 31.9039ZM17.0503 32.5177C16.7587 32.5325 16.4603 32.54 16.155 32.54V34.54C16.4929 34.54 16.8253 34.5317 17.1521 34.5151L17.0503 32.5177ZM39.1352 32.505L38.9481 32.9687L38.9481 32.9687L39.1352 32.505ZM34.7702 29.445L34.3929 29.7731L34.3965 29.7772L34.7702 29.445ZM31.9802 24.36L31.5045 24.5139L31.5052 24.516L31.9802 24.36ZM31.9802 10.275L32.4553 10.431L32.456 10.4289L31.9802 10.275ZM34.7702 5.19L35.144 5.5222L35.1475 5.51809L34.7702 5.19ZM39.1352 2.085L38.9481 1.62132L38.9481 1.62132L39.1352 2.085ZM50.4752 2.085L50.2881 2.54867L50.2881 2.54867L50.4752 2.085ZM54.8402 5.19L54.4629 5.51811L54.4665 5.52218L54.8402 5.19ZM57.6302 10.275L57.1545 10.4289L57.1552 10.431L57.6302 10.275ZM57.6302 24.36L58.1053 24.516L58.106 24.5139L57.6302 24.36ZM54.8402 29.445L55.214 29.7772L55.2175 29.7731L54.8402 29.445ZM50.4752 32.505L50.2881 32.0413L50.2881 32.0413L50.4752 32.505ZM49.6202 25.44L49.2424 25.1125L49.2382 25.1174L49.6202 25.44ZM49.6202 9.15L49.2382 9.47262L49.2424 9.47746L49.6202 9.15ZM39.9452 9.15L39.5674 8.82251L39.5632 8.82741L39.9452 9.15ZM39.9452 25.44L39.5632 25.7626L39.5674 25.7675L39.9452 25.44ZM44.8052 33.04C44.3255 33.04 43.8564 33.021 43.3981 32.983L43.3156 33.9796C43.8024 34.0199 44.299 34.04 44.8052 34.04V33.04ZM40.6427 32.4924C40.1904 32.3644 39.7503 32.214 39.3223 32.0413L38.9481 32.9687C39.41 33.155 39.8841 33.317 40.3704 33.4546L40.6427 32.4924ZM39.3223 32.0413C38.9177 31.8781 38.5286 31.6958 38.1549 31.4947L37.681 32.3753C38.0879 32.5942 38.5103 32.792 38.9481 32.9687L39.3223 32.0413ZM36.0522 30.0237C35.7345 29.7401 35.4317 29.4366 35.1439 29.1128L34.3965 29.7772C34.7095 30.1293 35.0395 30.4602 35.3864 30.7698L36.0522 30.0237ZM35.1475 29.1169C34.8447 28.7686 34.5593 28.399 34.2916 28.0077L33.4663 28.5725C33.7553 28.9948 34.0642 29.395 34.3929 29.7731L35.1475 29.1169ZM32.9517 25.5324C32.7721 25.1074 32.6065 24.6647 32.4553 24.204L31.5052 24.516C31.6647 25.0016 31.8398 25.4703 32.0307 25.9218L32.9517 25.5324ZM32.456 24.2061C32.368 23.9342 32.286 23.6562 32.2099 23.3722L31.2439 23.6308C31.3243 23.9309 31.4111 24.2253 31.5045 24.5139L32.456 24.2061ZM31.8379 21.6675C31.7416 21.1088 31.6652 20.5299 31.6088 19.9307L30.6132 20.0244C30.6719 20.6477 30.7516 21.252 30.8525 21.8374L31.8379 21.6675ZM31.5027 18.1761C31.4944 17.8866 31.4902 17.5929 31.4902 17.295H30.4902C30.4902 17.6022 30.4945 17.9055 30.5032 18.2048L31.5027 18.1761ZM31.4902 17.295C31.4902 16.9988 31.4944 16.7069 31.5026 16.4193L30.503 16.3907C30.4945 16.6881 30.4902 16.9895 30.4902 17.295H31.4902ZM31.6078 14.6758C31.6639 14.0794 31.74 13.5043 31.8359 12.9503L30.8506 12.7797C30.75 13.3607 30.6706 13.9615 30.6122 14.5821L31.6078 14.6758ZM32.2081 11.258C32.2845 10.9758 32.3669 10.7002 32.4553 10.431L31.5052 10.119C31.4111 10.4054 31.3237 10.698 31.2428 10.9967L32.2081 11.258ZM32.456 10.4289C32.6057 9.96602 32.7694 9.52241 32.9469 9.09793L32.0243 8.71213C31.8356 9.16349 31.6624 9.63319 31.5045 10.1211L32.456 10.4289ZM34.2825 6.62304C34.5519 6.23197 34.8391 5.8651 35.1439 5.52218L34.3965 4.85782C34.0636 5.2324 33.7511 5.63177 33.459 6.05566L34.2825 6.62304ZM35.1475 5.51809C35.4339 5.18881 35.735 4.88048 36.0508 4.59293L35.3776 3.85349C35.0325 4.16768 34.7043 4.50387 34.3929 4.86191L35.1475 5.51809ZM38.1515 3.09988C38.5262 2.8962 38.9165 2.71244 39.3223 2.54867L38.9481 1.62132C38.5078 1.79902 38.083 1.99896 37.674 2.22124L38.1515 3.09988ZM39.3223 2.54867C39.7503 2.37598 40.1904 2.22559 40.6427 2.09758L40.3704 1.13538C39.8841 1.27301 39.41 1.43497 38.9481 1.62132L39.3223 2.54867ZM43.3981 1.607C43.8564 1.56904 44.3255 1.55 44.8052 1.55V0.549998C44.299 0.549998 43.8024 0.570093 43.3156 0.610413L43.3981 1.607ZM44.8052 1.55C45.285 1.55 45.754 1.56904 46.2123 1.607L46.2949 0.610413C45.808 0.570093 45.3115 0.549998 44.8052 0.549998V1.55ZM48.9678 2.09758C49.4201 2.22559 49.8601 2.37598 50.2881 2.54867L50.6623 1.62132C50.2005 1.43497 49.7264 1.27301 49.2401 1.13538L48.9678 2.09758ZM50.2881 2.54867C50.694 2.71244 51.0842 2.8962 51.459 3.09988L51.9365 2.22124C51.5275 1.99896 51.1027 1.79902 50.6623 1.62132L50.2881 2.54867ZM53.5597 4.59293C53.8755 4.88048 54.1766 5.18881 54.4629 5.51809L55.2175 4.86191C54.9062 4.50387 54.578 4.16768 54.2329 3.85349L53.5597 4.59293ZM54.4665 5.52218C54.7713 5.8651 55.0585 6.23197 55.328 6.62304L56.1514 6.05566C55.8594 5.63177 55.5469 5.2324 55.2139 4.85782L54.4665 5.52218ZM56.6635 9.09793C56.8411 9.52241 57.0048 9.96602 57.1545 10.4289L58.106 10.1211C57.9481 9.63319 57.7749 9.16349 57.5861 8.71213L56.6635 9.09793ZM57.1552 10.431C57.2436 10.7002 57.326 10.9758 57.4024 11.258L58.3676 10.9967C58.2868 10.698 58.1993 10.4054 58.1053 10.119L57.1552 10.431ZM57.7746 12.9503C57.8705 13.5043 57.9466 14.0794 58.0027 14.6758L58.9983 14.5821C58.9399 13.9615 58.8605 13.3607 58.7599 12.7797L57.7746 12.9503ZM58.1079 16.4193C58.1161 16.7069 58.1202 16.9988 58.1202 17.295H59.1202C59.1202 16.9895 59.116 16.6881 59.1075 16.3907L58.1079 16.4193ZM58.1202 17.295C58.1202 17.5929 58.1161 17.8866 58.1077 18.1761L59.1073 18.2048C59.1159 17.9055 59.1202 17.6022 59.1202 17.295H58.1202ZM58.0016 19.9307C57.9453 20.5299 57.8688 21.1088 57.7725 21.6675L58.758 21.8374C58.8589 21.252 58.9386 20.6477 58.9973 20.0244L58.0016 19.9307ZM57.4006 23.3722C57.3245 23.6562 57.2425 23.9342 57.1545 24.2061L58.106 24.5139C58.1993 24.2253 58.2862 23.9309 58.3665 23.6308L57.4006 23.3722ZM57.1552 24.204C57.0039 24.6647 56.8384 25.1074 56.6587 25.5324L57.5798 25.9218C57.7707 25.4703 57.9458 25.0016 58.1053 24.516L57.1552 24.204ZM55.3189 28.0077C55.0511 28.399 54.7658 28.7686 54.4629 29.1169L55.2175 29.7731C55.5463 29.395 55.8551 28.9948 56.1441 28.5725L55.3189 28.0077ZM54.4665 29.1128C54.1788 29.4366 53.876 29.7401 53.5583 30.0237L54.2241 30.7698C54.571 30.4602 54.901 30.1293 55.2139 29.7772L54.4665 29.1128ZM51.4556 31.4947C51.0819 31.6958 50.6928 31.8781 50.2881 32.0413L50.6623 32.9687C51.1002 32.792 51.5226 32.5942 51.9295 32.3753L51.4556 31.4947ZM50.2881 32.0413C49.8601 32.214 49.4201 32.3644 48.9678 32.4924L49.2401 33.4546C49.7264 33.317 50.2005 33.155 50.6623 32.9687L50.2881 32.0413ZM46.2123 32.983C45.754 33.021 45.285 33.04 44.8052 33.04V34.04C45.3115 34.04 45.808 34.0199 46.2949 33.9796L46.2123 32.983ZM44.8052 26.965C44.3548 26.965 43.9308 26.9313 43.5325 26.865L43.3684 27.8515C43.8259 27.9275 44.305 27.965 44.8052 27.965V26.965ZM41.2375 25.9477C40.9066 25.712 40.6018 25.4341 40.3231 25.1125L39.5674 25.7675C39.8962 26.1468 40.2595 26.4789 40.6575 26.7622L41.2375 25.9477ZM40.3272 25.1174C40.1771 24.9396 40.0373 24.7501 39.908 24.5488L39.0666 25.0892C39.2189 25.3263 39.3844 25.5508 39.5632 25.7626L40.3272 25.1174ZM39.2825 23.2646C39.1274 22.8332 39.0042 22.3636 38.9143 21.8545L37.9296 22.0284C38.0283 22.5876 38.1652 23.1129 38.3416 23.6031L39.2825 23.2646ZM38.7534 20.3824C38.7413 20.1401 38.7352 19.891 38.7352 19.635H37.7352C37.7352 19.9067 37.7417 20.1724 37.7546 20.4321L38.7534 20.3824ZM38.7352 19.635V18.465H37.7352V19.635H38.7352ZM38.7352 16.125V14.955H37.7352V16.125H38.7352ZM38.7352 14.955C38.7352 14.699 38.7413 14.4499 38.7534 14.2076L37.7546 14.1579C37.7417 14.4176 37.7352 14.6833 37.7352 14.955H38.7352ZM38.9143 12.7355C39.0042 12.2264 39.1274 11.7568 39.2825 11.3254L38.3416 10.9869C38.1652 11.4771 38.0283 12.0024 37.9296 12.5616L38.9143 12.7355ZM39.908 10.0412C40.0373 9.83989 40.1771 9.65044 40.3272 9.47259L39.5632 8.82741C39.3844 9.03918 39.2189 9.26371 39.0666 9.50077L39.908 10.0412ZM40.3231 9.47746C40.6018 9.15588 40.9066 8.87796 41.2375 8.64233L40.6575 7.82775C40.2595 8.1111 39.8962 8.44316 39.5674 8.82253L40.3231 9.47746ZM43.5325 7.72498C43.9308 7.65872 44.3548 7.625 44.8052 7.625V6.625C44.305 6.625 43.8259 6.66245 43.3684 6.73854L43.5325 7.72498ZM44.8052 7.625C45.2532 7.625 45.6742 7.65836 46.0689 7.72387L46.2326 6.73736C45.7788 6.66204 45.3027 6.625 44.8052 6.625V7.625ZM48.3412 8.63721C48.6674 8.87269 48.9664 9.15066 49.2382 9.47259L50.0023 8.82741C49.6797 8.44547 49.3212 8.11132 48.9265 7.82643L48.3412 8.63721ZM49.2424 9.47746C49.3957 9.65432 49.5383 9.84256 49.6703 10.0424L50.5047 9.49137C50.3492 9.25588 50.1804 9.03287 49.9981 8.82253L49.2424 9.47746ZM50.3115 11.3221C50.4712 11.7532 50.598 12.2227 50.6905 12.7317L51.6744 12.5528C51.5725 11.9923 51.4312 11.4659 51.2492 10.9747L50.3115 11.3221ZM50.8565 14.206C50.869 14.4488 50.8752 14.6985 50.8752 14.955H51.8752C51.8752 14.6822 51.8686 14.4155 51.8552 14.1548L50.8565 14.206ZM50.8752 14.955V16.125H51.8752V14.955H50.8752ZM50.8752 18.465V19.635H51.8752V18.465H50.8752ZM50.8752 19.635C50.8752 19.8915 50.869 20.1412 50.8565 20.384L51.8552 20.4352C51.8686 20.1745 51.8752 19.9078 51.8752 19.635H50.8752ZM50.6905 21.8583C50.598 22.3673 50.4712 22.8368 50.3115 23.2679L51.2492 23.6153C51.4312 23.1241 51.5725 22.5977 51.6744 22.0372L50.6905 21.8583ZM49.6703 24.5476C49.5383 24.7474 49.3957 24.9357 49.2424 25.1125L49.9981 25.7675C50.1804 25.5571 50.3492 25.3341 50.5047 25.0986L49.6703 24.5476ZM49.2382 25.1174C48.9664 25.4393 48.6674 25.7173 48.3412 25.9528L48.9265 26.7636C49.3212 26.4787 49.6797 26.1445 50.0023 25.7626L49.2382 25.1174ZM46.0689 26.8661C45.6742 26.9316 45.2532 26.965 44.8052 26.965V27.965C45.3027 27.965 45.7788 27.928 46.2326 27.8526L46.0689 26.8661ZM39.1352 32.505L38.761 33.4324L38.761 33.4324L39.1352 32.505ZM34.7702 29.445L34.0156 30.1012L34.0228 30.1094L34.7702 29.445ZM31.9802 24.36L31.0288 24.6678L31.0301 24.672L31.9802 24.36ZM31.9802 10.275L32.9303 10.587L32.9317 10.5828L31.9802 10.275ZM34.7702 5.19L35.5177 5.8544L35.5248 5.84618L34.7702 5.19ZM39.1352 2.085L38.761 1.15765L38.761 1.15765L39.1352 2.085ZM50.4752 2.085L50.101 3.01235L50.101 3.01235L50.4752 2.085ZM54.8402 5.19L54.0856 5.84622L54.0928 5.85436L54.8402 5.19ZM57.6302 10.275L56.6788 10.5828L56.6801 10.587L57.6302 10.275ZM57.6302 24.36L58.5803 24.672L58.5817 24.6678L57.6302 24.36ZM54.8402 29.445L55.5877 30.1094L55.5948 30.1012L54.8402 29.445ZM50.4752 32.505L50.101 31.5776L50.101 31.5776L50.4752 32.505ZM49.6202 25.44L48.8645 24.785L48.8562 24.7948L49.6202 25.44ZM49.6202 9.15L48.8561 9.79523L48.8645 9.80493L49.6202 9.15ZM39.9452 9.15L39.1895 8.49501L39.1812 8.50482L39.9452 9.15ZM39.9452 25.44L39.1811 26.0852L39.1895 26.0949L39.9452 25.44ZM44.8052 32.54C44.3387 32.54 43.8835 32.5215 43.4394 32.4847L43.2743 34.4779C43.7754 34.5194 44.2858 34.54 44.8052 34.54V32.54ZM40.7789 32.0113C40.3436 31.8881 39.9205 31.7435 39.5094 31.5776L38.761 33.4324C39.2398 33.6255 39.7309 33.7933 40.2342 33.9357L40.7789 32.0113ZM39.5094 31.5776C39.1214 31.4211 38.749 31.2466 38.3918 31.0544L37.4441 32.8156C37.8675 33.0435 38.3066 33.249 38.761 33.4324L39.5094 31.5776ZM36.3851 29.6506C36.082 29.3801 35.7928 29.0902 35.5176 28.7806L34.0228 30.1094C34.3484 30.4756 34.692 30.8202 35.0535 31.1428L36.3851 29.6506ZM35.5248 28.7888C35.2349 28.4554 34.9614 28.101 34.7042 27.7253L33.0537 28.8548C33.3533 29.2927 33.6739 29.7082 34.0156 30.1012L35.5248 28.7888ZM33.4123 25.3377C33.2382 24.926 33.0775 24.4962 32.9303 24.048L31.0301 24.672C31.1937 25.1701 31.3736 25.6517 31.5701 26.1165L33.4123 25.3377ZM32.9317 24.0522C32.8464 23.7886 32.7668 23.5189 32.6929 23.2428L30.7609 23.7601C30.8435 24.0683 30.9327 24.3709 31.0288 24.6678L32.9317 24.0522ZM32.3307 21.5826C32.2367 21.0372 32.1619 20.471 32.1066 19.8839L30.1154 20.0712C30.1752 20.7065 30.2565 21.3236 30.3597 21.9223L32.3307 21.5826ZM32.0025 18.1617C31.9943 17.8771 31.9902 17.5882 31.9902 17.295H29.9902C29.9902 17.6069 29.9946 17.9149 30.0034 18.2192L32.0025 18.1617ZM31.9902 17.295C31.9902 17.0034 31.9943 16.7163 32.0024 16.4337L30.0032 16.3764C29.9946 16.6787 29.9902 16.9849 29.9902 17.295H31.9902ZM32.1056 14.7226C32.1605 14.1383 32.235 13.5761 32.3286 13.0356L30.3579 12.6944C30.255 13.2889 30.1739 13.9026 30.1144 14.5353L32.1056 14.7226ZM32.6907 11.3886C32.7649 11.1148 32.8448 10.8476 32.9303 10.587L31.0301 9.96303C30.9333 10.2581 30.8433 10.5591 30.7602 10.8661L32.6907 11.3886ZM32.9317 10.5828C33.0774 10.1324 33.2363 9.70187 33.4082 9.29083L31.5631 8.51922C31.3687 8.98403 31.1907 9.46678 31.0288 9.96718L32.9317 10.5828ZM34.6942 6.90672C34.9524 6.53206 35.2269 6.18145 35.5176 5.85436L34.0228 4.52563C33.6758 4.91606 33.3507 5.33168 33.0473 5.77198L34.6942 6.90672ZM35.5248 5.84618C35.7987 5.53127 36.0862 5.23688 36.3874 4.96265L35.041 3.48377C34.6812 3.81128 34.3395 4.16141 34.0156 4.53382L35.5248 5.84618ZM38.3902 3.53919C38.7479 3.34482 39.1208 3.16915 39.5094 3.01235L38.761 1.15765C38.3034 1.34231 37.8614 1.55034 37.4352 1.78193L38.3902 3.53919ZM39.5094 3.01235C39.9205 2.84648 40.3436 2.70189 40.7789 2.57869L40.2342 0.654276C39.7309 0.796712 39.2398 0.964461 38.761 1.15765L39.5094 3.01235ZM43.4394 2.10529C43.8835 2.06852 44.3387 2.05 44.8052 2.05V0.0499983C44.2858 0.0499983 43.7754 0.0706184 43.2743 0.112119L43.4394 2.10529ZM44.8052 2.05C45.2718 2.05 45.727 2.06852 46.1711 2.10529L46.3362 0.112119C45.8351 0.0706184 45.3247 0.0499983 44.8052 0.0499983V2.05ZM48.8316 2.57869C49.2669 2.70189 49.69 2.84648 50.101 3.01235L50.8494 1.15765C50.3707 0.964461 49.8795 0.796712 49.3763 0.654276L48.8316 2.57869ZM50.101 3.01235C50.4896 3.16915 50.8626 3.34482 51.2202 3.53919L52.1752 1.78193C51.7491 1.55034 51.3071 1.34231 50.8494 1.15765L50.101 3.01235ZM53.2231 4.96265C53.5243 5.23688 53.8118 5.53127 54.0856 5.84618L55.5948 4.53382C55.271 4.16141 54.9292 3.81128 54.5695 3.48377L53.2231 4.96265ZM54.0928 5.85436C54.3836 6.18145 54.6581 6.53206 54.9162 6.90672L56.5632 5.77198C56.2598 5.33168 55.9347 4.91606 55.5876 4.52564L54.0928 5.85436ZM56.2023 9.29083C56.3741 9.70187 56.5331 10.1324 56.6788 10.5828L58.5817 9.96718C58.4198 9.46678 58.2418 8.98403 58.0474 8.51922L56.2023 9.29083ZM56.6801 10.587C56.7657 10.8476 56.8456 11.1148 56.9197 11.3886L58.8503 10.8661C58.7672 10.5591 58.6772 10.2581 58.5803 9.96303L56.6801 10.587ZM57.2819 13.0356C57.3755 13.5761 57.4499 14.1383 57.5049 14.7226L59.4961 14.5353C59.4366 13.9026 59.3555 13.2889 59.2526 12.6944L57.2819 13.0356ZM57.6081 16.4337C57.6162 16.7163 57.6202 17.0034 57.6202 17.295H59.6202C59.6202 16.9849 59.6159 16.6787 59.6073 16.3764L57.6081 16.4337ZM57.6202 17.295C57.6202 17.5882 57.6161 17.8771 57.6079 18.1617L59.6071 18.2192C59.6159 17.9149 59.6202 17.6069 59.6202 17.295H57.6202ZM57.5038 19.8839C57.4486 20.471 57.3738 21.0372 57.2798 21.5826L59.2507 21.9223C59.3539 21.3236 59.4353 20.7065 59.4951 20.0712L57.5038 19.8839ZM56.9176 23.2428C56.8437 23.5189 56.7641 23.7886 56.6788 24.0522L58.5817 24.6678C58.6777 24.3709 58.767 24.0683 58.8495 23.7601L56.9176 23.2428ZM56.6801 24.048C56.533 24.4962 56.3723 24.926 56.1982 25.3377L58.0403 26.1165C58.2368 25.6517 58.4168 25.1701 58.5803 24.672L56.6801 24.048ZM54.9063 27.7253C54.6491 28.101 54.3755 28.4554 54.0856 28.7888L55.5948 30.1012C55.9365 29.7082 56.2571 29.2927 56.5568 28.8548L54.9063 27.7253ZM54.0928 28.7806C53.8177 29.0902 53.5285 29.3801 53.2254 29.6506L54.557 31.1428C54.9185 30.8202 55.2621 30.4756 55.5876 30.1094L54.0928 28.7806ZM51.2187 31.0544C50.8615 31.2466 50.4891 31.4211 50.101 31.5776L50.8494 33.4324C51.3039 33.249 51.743 33.0435 52.1664 32.8156L51.2187 31.0544ZM50.101 31.5776C49.69 31.7435 49.2669 31.8881 48.8316 32.0113L49.3763 33.9357C49.8795 33.7933 50.3707 33.6255 50.8494 33.4324L50.101 31.5776ZM46.1711 32.4847C45.727 32.5215 45.2718 32.54 44.8052 32.54V34.54C45.3247 34.54 45.8351 34.5194 46.3362 34.4779L46.1711 32.4847ZM44.8052 26.465C44.3797 26.465 43.9833 26.4331 43.6146 26.3718L43.2864 28.3447C43.7734 28.4257 44.2801 28.465 44.8052 28.465V26.465ZM41.5275 25.5404C41.2301 25.3286 40.9546 25.0778 40.7009 24.7851L39.1895 26.0949C39.5434 26.5032 39.936 26.8623 40.3674 27.1695L41.5275 25.5404ZM40.7093 24.7948C40.5734 24.6339 40.4465 24.462 40.3287 24.2786L38.6459 25.3594C38.8097 25.6144 38.9881 25.8565 39.1812 26.0852L40.7093 24.7948ZM39.753 23.0953C39.6084 22.6934 39.4922 22.2516 39.4067 21.7676L37.4372 22.1154C37.5403 22.6996 37.6842 23.2527 37.8711 23.7723L39.753 23.0953ZM39.2527 20.3575C39.2411 20.1239 39.2352 19.8831 39.2352 19.635H37.2352C37.2352 19.9146 37.2419 20.1886 37.2552 20.457L39.2527 20.3575ZM39.2352 19.635V18.465H37.2352V19.635H39.2352ZM39.2352 16.125V14.955H37.2352V16.125H39.2352ZM39.2352 14.955C39.2352 14.7069 39.2411 14.4661 39.2527 14.2324L37.2552 14.133C37.2419 14.4014 37.2352 14.6754 37.2352 14.955H39.2352ZM39.4067 12.8224C39.4922 12.3384 39.6084 11.8966 39.753 11.4947L37.8711 10.8177C37.6841 11.3373 37.5403 11.8904 37.4372 12.4746L39.4067 12.8224ZM40.3287 10.3114C40.4465 10.128 40.5734 9.95607 40.7093 9.79518L39.1812 8.50482C38.9881 8.73354 38.8097 8.97562 38.6459 9.23057L40.3287 10.3114ZM40.7009 9.80493C40.9546 9.51224 41.2301 9.26139 41.5275 9.04962L40.3674 7.42046C39.936 7.72767 39.5434 8.08679 39.1895 8.49507L40.7009 9.80493ZM43.6146 8.21821C43.9833 8.15686 44.3797 8.125 44.8052 8.125V6.125C44.2801 6.125 43.7734 6.16431 43.2864 6.24532L43.6146 8.21821ZM44.8052 8.125C45.2285 8.125 45.6219 8.15652 45.987 8.21712L46.3145 6.24411C45.8311 6.16388 45.3275 6.125 44.8052 6.125V8.125ZM48.0485 9.0426C48.3405 9.25337 48.6097 9.50326 48.8562 9.79518L50.3843 8.50482C50.0364 8.09287 49.6481 7.73064 49.2192 7.42104L48.0485 9.0426ZM48.8645 9.80493C49.0033 9.96505 49.1328 10.1359 49.253 10.3179L50.922 9.21585C50.7547 8.96254 50.5727 8.72214 50.3759 8.49507L48.8645 9.80493ZM49.8426 11.4958C49.9912 11.8969 50.1107 12.3379 50.1986 12.8212L52.1663 12.4633C52.0597 11.8771 51.9112 11.3223 51.7181 10.8011L49.8426 11.4958ZM50.3572 14.2316C50.3692 14.4655 50.3752 14.7066 50.3752 14.955H52.3752C52.3752 14.6741 52.3684 14.3988 52.3546 14.1292L50.3572 14.2316ZM50.3752 14.955V16.125H52.3752V14.955H50.3752ZM50.3752 18.465V19.635H52.3752V18.465H50.3752ZM50.3752 19.635C50.3752 19.8834 50.3692 20.1245 50.3572 20.3584L52.3546 20.4608C52.3684 20.1911 52.3752 19.9159 52.3752 19.635H50.3752ZM50.1986 21.7688C50.1107 22.2521 49.9912 22.6931 49.8426 23.0942L51.7181 23.7889C51.9112 23.2677 52.0597 22.7129 52.1663 22.1267L50.1986 21.7688ZM49.253 24.2721C49.1328 24.4541 49.0033 24.6249 48.8645 24.7851L50.3759 26.0949C50.5727 25.8679 50.7547 25.6275 50.922 25.3741L49.253 24.2721ZM48.8562 24.7948C48.6097 25.0867 48.3405 25.3366 48.0485 25.5474L49.2192 27.169C49.6481 26.8594 50.0364 26.4971 50.3843 26.0852L48.8562 24.7948ZM45.987 26.3729C45.6219 26.4335 45.2285 26.465 44.8052 26.465V28.465C45.3275 28.465 45.8311 28.4261 46.3145 28.3459L45.987 26.3729ZM73.9143 18.15L73.4632 18.3658L73.4717 18.3835L73.4815 18.4005L73.9143 18.15ZM70.8993 11.85L71.3503 11.6342L71.2143 11.35H70.8993V11.85ZM70.7643 11.85V11.35H70.2643V11.85H70.7643ZM70.7643 33V33.5H71.2643V33H70.7643ZM64.3293 33H63.8293V33.5H64.3293V33ZM64.3293 1.59V1.09H63.8293V1.59H64.3293ZM71.7993 1.59L72.232 1.33953L72.0876 1.09H71.7993V1.59ZM80.3943 16.44L80.8453 16.2242L80.8368 16.2065L80.827 16.1895L80.3943 16.44ZM83.4093 22.74L82.9582 22.9558L83.0942 23.24H83.4093V22.74ZM83.5443 22.74V23.24H84.0443V22.74H83.5443ZM83.5443 1.59V1.09H83.0443V1.59H83.5443ZM89.9793 1.59H90.4793V1.09H89.9793V1.59ZM89.9793 33V33.5H90.4793V33H89.9793ZM82.5093 33L82.0765 33.2505L82.2209 33.5H82.5093V33ZM74.3653 17.9342L73.9884 17.1467L73.0864 17.5783L73.4632 18.3658L74.3653 17.9342ZM73.2346 15.5717L72.4809 13.9967L71.5789 14.4283L72.3326 16.0033L73.2346 15.5717ZM71.7271 12.4217L71.3503 11.6342L70.4482 12.0658L70.8251 12.8533L71.7271 12.4217ZM70.8993 11.35H70.8655V12.35H70.8993V11.35ZM70.798 11.35H70.7643V12.35H70.798V11.35ZM70.2643 11.85V12.9075H71.2643V11.85H70.2643ZM70.2643 15.0225V17.1375H71.2643V15.0225H70.2643ZM70.2643 19.2525V21.3675H71.2643V19.2525H70.2643ZM70.2643 23.4825V25.5975H71.2643V23.4825H70.2643ZM70.2643 27.7125V29.8275H71.2643V27.7125H70.2643ZM70.2643 31.9425V33H71.2643V31.9425H70.2643ZM70.7643 32.5H69.9599V33.5H70.7643V32.5ZM68.3511 32.5H66.7424V33.5H68.3511V32.5ZM65.1336 32.5H64.3293V33.5H65.1336V32.5ZM64.8293 33V32.0184H63.8293V33H64.8293ZM64.8293 30.0553V28.0922H63.8293V30.0553H64.8293ZM64.8293 26.1291V24.1659H63.8293V26.1291H64.8293ZM64.8293 22.2028V20.2397H63.8293V22.2028H64.8293ZM64.8293 18.2766V16.3134H63.8293V18.2766H64.8293ZM64.8293 14.3503V12.3872H63.8293V14.3503H64.8293ZM64.8293 10.4241V8.46094H63.8293V10.4241H64.8293ZM64.8293 6.49781V4.53469H63.8293V6.49781H64.8293ZM64.8293 2.57156V1.59H63.8293V2.57156H64.8293ZM64.3293 2.09H65.263V1.09H64.3293V2.09ZM67.1305 2.09H68.998V1.09H67.1305V2.09ZM70.8655 2.09H71.7993V1.09H70.8655V2.09ZM71.3665 1.84047L71.9037 2.76859L72.7692 2.26766L72.232 1.33953L71.3665 1.84047ZM72.9781 4.62484L74.0525 6.48109L74.9179 5.98016L73.8436 4.12391L72.9781 4.62484ZM75.1268 8.33734L76.2012 10.1936L77.0667 9.69266L75.9923 7.83641L75.1268 8.33734ZM77.2756 12.0498L78.35 13.9061L79.2154 13.4052L78.1411 11.5489L77.2756 12.0498ZM79.4243 15.7623L79.9615 16.6905L80.827 16.1895L80.2898 15.2614L79.4243 15.7623ZM79.9432 16.6558L80.3201 17.4433L81.2221 17.0117L80.8453 16.2242L79.9432 16.6558ZM81.0739 19.0183L81.8276 20.5933L82.7296 20.1617L81.9759 18.5867L81.0739 19.0183ZM82.5814 22.1683L82.9582 22.9558L83.8603 22.5242L83.4834 21.7367L82.5814 22.1683ZM83.4093 23.24H83.443V22.24H83.4093V23.24ZM83.5105 23.24H83.5443V22.24H83.5105V23.24ZM84.0443 22.74V21.6825H83.0443V22.74H84.0443ZM84.0443 19.5675V17.4525H83.0443V19.5675H84.0443ZM84.0443 15.3375V13.2225H83.0443V15.3375H84.0443ZM84.0443 11.1075V8.9925H83.0443V11.1075H84.0443ZM84.0443 6.8775V4.7625H83.0443V6.8775H84.0443ZM84.0443 2.6475V1.59H83.0443V2.6475H84.0443ZM83.5443 2.09H84.3486V1.09H83.5443V2.09ZM85.9574 2.09H87.5661V1.09H85.9574V2.09ZM89.1749 2.09H89.9793V1.09H89.1749V2.09ZM89.4793 1.59V2.57156H90.4793V1.59H89.4793ZM89.4793 4.53469V6.49781H90.4793V4.53469H89.4793ZM89.4793 8.46094V10.4241H90.4793V8.46094H89.4793ZM89.4793 12.3872V14.3503H90.4793V12.3872H89.4793ZM89.4793 16.3134V18.2766H90.4793V16.3134H89.4793ZM89.4793 20.2397V22.2028H90.4793V20.2397H89.4793ZM89.4793 24.1659V26.1291H90.4793V24.1659H89.4793ZM89.4793 28.0922V30.0553H90.4793V28.0922H89.4793ZM89.4793 32.0184V33H90.4793V32.0184H89.4793ZM89.9793 32.5H89.0455V33.5H89.9793V32.5ZM87.178 32.5H85.3105V33.5H87.178V32.5ZM83.443 32.5H82.5093V33.5H83.443V32.5ZM82.942 32.7495L82.4048 31.8214L81.5393 32.3223L82.0765 33.2505L82.942 32.7495ZM81.3304 29.9652L80.2561 28.1089L79.3906 28.6098L80.465 30.4661L81.3304 29.9652ZM79.1817 26.2527L78.1073 24.3964L77.2418 24.8973L78.3162 26.7536L79.1817 26.2527ZM77.0329 22.5402L75.9586 20.6839L75.0931 21.1848L76.1675 23.0411L77.0329 22.5402ZM74.8842 18.8277L74.347 17.8995L73.4815 18.4005L74.0187 19.3286L74.8842 18.8277ZM73.9143 18.15L73.0122 18.5817L73.0291 18.617L73.0488 18.6509L73.9143 18.15ZM70.8993 11.85L71.8013 11.4183L71.5293 10.85H70.8993V11.85ZM70.7643 11.85V10.85H69.7643V11.85H70.7643ZM70.7643 33V34H71.7643V33H70.7643ZM64.3293 33H63.3293V34H64.3293V33ZM64.3293 1.59V0.589999H63.3293V1.59H64.3293ZM71.7993 1.59L72.6647 1.08907L72.3759 0.589999H71.7993V1.59ZM80.3943 16.44L81.2963 16.0083L81.2794 15.973L81.2597 15.9391L80.3943 16.44ZM83.4093 22.74L82.5072 23.1717L82.7792 23.74H83.4093V22.74ZM83.5443 22.74V23.74H84.5443V22.74H83.5443ZM83.5443 1.59V0.589999H82.5443V1.59H83.5443ZM89.9793 1.59H90.9793V0.589999H89.9793V1.59ZM89.9793 33V34H90.9793V33H89.9793ZM82.5093 33L81.6438 33.5009L81.9326 34H82.5093V33ZM74.8163 17.7183L74.4394 16.9308L72.6354 17.7942L73.0122 18.5817L74.8163 17.7183ZM73.6857 15.3558L72.9319 13.7808L71.1279 14.6442L71.8816 16.2192L73.6857 15.3558ZM72.1782 12.2058L71.8013 11.4183L69.9972 12.2817L70.3741 13.0692L72.1782 12.2058ZM70.8993 10.85H70.8655V12.85H70.8993V10.85ZM70.798 10.85H70.7643V12.85H70.798V10.85ZM69.7643 11.85V12.9075H71.7643V11.85H69.7643ZM69.7643 15.0225V17.1375H71.7643V15.0225H69.7643ZM69.7643 19.2525V21.3675H71.7643V19.2525H69.7643ZM69.7643 23.4825V25.5975H71.7643V23.4825H69.7643ZM69.7643 27.7125V29.8275H71.7643V27.7125H69.7643ZM69.7643 31.9425V33H71.7643V31.9425H69.7643ZM70.7643 32H69.9599V34H70.7643V32ZM68.3511 32H66.7424V34H68.3511V32ZM65.1336 32H64.3293V34H65.1336V32ZM65.3293 33V32.0184H63.3293V33H65.3293ZM65.3293 30.0553V28.0922H63.3293V30.0553H65.3293ZM65.3293 26.1291V24.1659H63.3293V26.1291H65.3293ZM65.3293 22.2028V20.2397H63.3293V22.2028H65.3293ZM65.3293 18.2766V16.3134H63.3293V18.2766H65.3293ZM65.3293 14.3503V12.3872H63.3293V14.3503H65.3293ZM65.3293 10.4241V8.46094H63.3293V10.4241H65.3293ZM65.3293 6.49781V4.53469H63.3293V6.49781H65.3293ZM65.3293 2.57156V1.59H63.3293V2.57156H65.3293ZM64.3293 2.59H65.263V0.589999H64.3293V2.59ZM67.1305 2.59H68.998V0.589999H67.1305V2.59ZM70.8655 2.59H71.7993V0.589999H70.8655V2.59ZM70.9338 2.09093L71.471 3.01906L73.2019 2.01719L72.6647 1.08907L70.9338 2.09093ZM72.5453 4.87531L73.6197 6.73156L75.3507 5.72969L74.2763 3.87344L72.5453 4.87531ZM74.6941 8.58781L75.7685 10.4441L77.4994 9.44219L76.4251 7.58594L74.6941 8.58781ZM76.8428 12.3003L77.9172 14.1566L79.6482 13.1547L78.5738 11.2984L76.8428 12.3003ZM78.9916 16.0128L79.5288 16.9409L81.2597 15.9391L80.7226 15.0109L78.9916 16.0128ZM79.4922 16.8717L79.8691 17.6592L81.6732 16.7958L81.2963 16.0083L79.4922 16.8717ZM80.6229 19.2342L81.3766 20.8092L83.1807 19.9458L82.4269 18.3708L80.6229 19.2342ZM82.1304 22.3842L82.5072 23.1717L84.3113 22.3083L83.9344 21.5208L82.1304 22.3842ZM83.4093 23.74H83.443V21.74H83.4093V23.74ZM83.5105 23.74H83.5443V21.74H83.5105V23.74ZM84.5443 22.74V21.6825H82.5443V22.74H84.5443ZM84.5443 19.5675V17.4525H82.5443V19.5675H84.5443ZM84.5443 15.3375V13.2225H82.5443V15.3375H84.5443ZM84.5443 11.1075V8.9925H82.5443V11.1075H84.5443ZM84.5443 6.8775V4.7625H82.5443V6.8775H84.5443ZM84.5443 2.6475V1.59H82.5443V2.6475H84.5443ZM83.5443 2.59H84.3486V0.589999H83.5443V2.59ZM85.9574 2.59H87.5661V0.589999H85.9574V2.59ZM89.1749 2.59H89.9793V0.589999H89.1749V2.59ZM88.9793 1.59V2.57156H90.9793V1.59H88.9793ZM88.9793 4.53469V6.49781H90.9793V4.53469H88.9793ZM88.9793 8.46094V10.4241H90.9793V8.46094H88.9793ZM88.9793 12.3872V14.3503H90.9793V12.3872H88.9793ZM88.9793 16.3134V18.2766H90.9793V16.3134H88.9793ZM88.9793 20.2397V22.2028H90.9793V20.2397H88.9793ZM88.9793 24.1659V26.1291H90.9793V24.1659H88.9793ZM88.9793 28.0922V30.0553H90.9793V28.0922H88.9793ZM88.9793 32.0184V33H90.9793V32.0184H88.9793ZM89.9793 32H89.0455V34H89.9793V32ZM87.178 32H85.3105V34H87.178V32ZM83.443 32H82.5093V34H83.443V32ZM83.3747 32.4991L82.8376 31.5709L81.1066 32.5728L81.6438 33.5009L83.3747 32.4991ZM81.7632 29.7147L80.6888 27.8584L78.9578 28.8603L80.0322 30.7166L81.7632 29.7147ZM79.6144 26.0022L78.5401 24.1459L76.8091 25.1478L77.8835 27.0041L79.6144 26.0022ZM77.4657 22.2897L76.3913 20.4334L74.6603 21.4353L75.7347 23.2916L77.4657 22.2897ZM75.3169 18.5772L74.7797 17.6491L73.0488 18.6509L73.586 19.5791L75.3169 18.5772ZM6.615 77.145L6.39138 77.5922L6.39704 77.595L6.615 77.145ZM1.71 73.455L1.35469 73.1032L1.02259 73.4386L1.33835 73.7895L1.71 73.455ZM6.21 68.91L6.58396 68.5781L6.22994 68.1792L5.85469 68.5582L6.21 68.91ZM17.82 71.475L18.1442 71.8556L18.1442 71.8556L17.82 71.475ZM18.315 66.57L17.9244 66.8824L17.9325 66.8921L18.315 66.57ZM15.39 65.355L15.4607 64.86L15.4547 64.8592L15.39 65.355ZM12.285 64.95L12.3497 64.4542L12.3476 64.4539L12.285 64.95ZM4.95 61.935L4.5897 62.2817L4.5931 62.2852L4.95 61.935ZM3.465 51.72L3.01102 51.5105L3.01102 51.5105L3.465 51.72ZM5.76 48.705L5.44211 48.319L5.43651 48.3237L5.76 48.705ZM9.45 46.77L9.59915 47.2473L9.6052 47.2453L9.45 46.77ZM20.7 47.175L20.8923 46.7135L20.8923 46.7135L20.7 47.175ZM25.335 50.46L25.6903 50.8118L26.0217 50.4772L25.7074 50.1264L25.335 50.46ZM20.79 55.05L20.4113 55.3765L20.7646 55.7863L21.1453 55.4018L20.79 55.05ZM18.045 52.935L17.8065 53.3744L17.8139 53.3784L17.8214 53.3822L18.045 52.935ZM10.62 52.89L10.9122 53.2958L10.9122 53.2958L10.62 52.89ZM10.35 57.48L10.0278 57.8626L10.0377 57.8704L10.35 57.48ZM13.23 58.515L13.3087 58.0212L13.3086 58.0212L13.23 58.515ZM16.335 59.01L16.2563 59.5038L16.2573 59.5039L16.335 59.01ZM23.535 62.025L23.1884 62.3854L23.1921 62.3889L23.535 62.025ZM25.065 72.465L24.6054 72.268L25.065 72.465ZM22.68 75.705L22.3546 75.3253L22.3492 75.3301L22.68 75.705ZM18.855 77.82L19.0047 78.2971L19.0131 78.2943L18.855 77.82ZM13.635 78.04C13.3353 78.04 13.0409 78.0344 12.752 78.0232L12.7134 79.0225C13.0156 79.0342 13.3228 79.04 13.635 79.04V78.04ZM10.9993 77.879C10.3989 77.8012 9.82594 77.6955 9.28009 77.5621L9.04276 78.5335C9.62692 78.6763 10.2364 78.7885 10.8709 78.8707L10.9993 77.879ZM7.6242 77.041C7.3522 76.9341 7.08848 76.8188 6.83296 76.695L6.39704 77.595C6.67612 77.7302 6.96327 77.8557 7.25843 77.9717L7.6242 77.041ZM6.83861 76.6978C6.61299 76.585 6.39156 76.4684 6.17429 76.3481L5.68982 77.2229C5.91954 77.3501 6.1534 77.4732 6.39139 77.5922L6.83861 76.6978ZM4.89672 75.565C4.47974 75.2827 4.08055 74.9842 3.69906 74.6693L3.06252 75.4405C3.46881 75.7759 3.89338 76.0934 4.33614 76.3931L4.89672 75.565ZM2.59493 73.6631C2.41935 73.4865 2.24826 73.3056 2.08165 73.1205L1.33835 73.7895C1.51603 73.9869 1.69849 74.1798 1.88573 74.3681L2.59493 73.6631ZM2.06531 73.8068L2.62781 73.2387L1.91719 72.5351L1.35469 73.1032L2.06531 73.8068ZM3.75281 72.1024L4.87781 70.9662L4.16719 70.2626L3.04219 71.3988L3.75281 72.1024ZM6.00281 69.8299L6.56531 69.2618L5.85469 68.5582L5.29219 69.1263L6.00281 69.8299ZM5.83604 69.2419C6.09792 69.537 6.3676 69.8152 6.64515 70.0765L7.33061 69.3484C7.07568 69.1084 6.82677 68.8517 6.58396 68.5781L5.83604 69.2419ZM8.49894 71.4969C9.17378 71.9077 9.88393 72.2353 10.6288 72.4791L10.9399 71.5287C10.2688 71.309 9.62867 71.0139 9.01889 70.6427L8.49894 71.4969ZM12.9204 72.9544C13.3018 72.9915 13.69 73.01 14.085 73.01V72.01C13.7212 72.01 13.3653 71.993 13.0173 71.9591L12.9204 72.9544ZM14.085 73.01C14.4469 73.01 14.7921 72.9946 15.1201 72.9634L15.0252 71.9679C14.7321 71.9958 14.4188 72.01 14.085 72.01V73.01ZM17.1916 72.453C17.5464 72.2917 17.8652 72.0933 18.1442 71.8556L17.4958 71.0944C17.2945 71.2659 17.0564 71.416 16.7778 71.5426L17.1916 72.453ZM18.1442 71.8556C18.3736 71.6602 18.5768 71.4466 18.7522 71.2144L17.9544 70.6116C17.8253 70.7824 17.6729 70.9435 17.4958 71.0944L18.1442 71.8556ZM19.4584 69.5936C19.5099 69.3163 19.535 69.0281 19.535 68.73H18.535C18.535 68.972 18.5146 69.1987 18.4752 69.411L19.4584 69.5936ZM19.535 68.73C19.535 68.5074 19.5208 68.2911 19.4917 68.0815L18.5012 68.2189C18.5235 68.3797 18.535 68.5499 18.535 68.73H19.535ZM19.0817 66.8094C18.9728 66.6099 18.8446 66.4226 18.6975 66.2479L17.9325 66.8921C18.037 67.0161 18.1274 67.1482 18.2041 67.2887L19.0817 66.8094ZM18.7054 66.2577C18.5068 66.0094 18.2524 65.7995 17.955 65.6225L17.4437 66.4819C17.6588 66.6099 17.8148 66.7452 17.9246 66.8823L18.7054 66.2577ZM16.295 65.0104C16.0339 64.9522 15.7557 64.9022 15.4607 64.86L15.3193 65.85C15.592 65.8889 15.8445 65.9345 16.0772 65.9865L16.295 65.0104ZM15.4547 64.8592L14.6784 64.7579L14.5491 65.7495L15.3253 65.8508L15.4547 64.8592ZM13.1259 64.5554L12.3497 64.4542L12.2203 65.4458L12.9966 65.547L13.1259 64.5554ZM12.3476 64.4539C12.0121 64.4116 11.6864 64.3633 11.3704 64.3091L11.2012 65.2947C11.5326 65.3515 11.873 65.402 12.2224 65.4461L12.3476 64.4539ZM9.45706 63.8747C8.79468 63.6822 8.18966 63.456 7.6408 63.1973L7.21435 64.1018C7.81611 64.3855 8.47107 64.6295 9.17802 64.8349L9.45706 63.8747ZM6.01084 62.2102C5.75699 62.013 5.52247 61.8045 5.3069 61.5848L4.5931 62.2852C4.84118 62.538 5.1094 62.7762 5.39738 63L6.01084 62.2102ZM5.31029 61.5883C5.12148 61.3921 4.94537 61.1876 4.78183 60.9749L3.98901 61.5844C4.17534 61.8267 4.37561 62.0592 4.58971 62.2817L5.31029 61.5883ZM3.94714 59.5915C3.72635 59.1126 3.55102 58.5994 3.42201 58.051L2.44857 58.2799C2.59206 58.8899 2.78859 59.467 3.039 60.0102L3.94714 59.5915ZM3.1825 56.4213C3.1642 56.1512 3.155 55.8741 3.155 55.59H2.155C2.155 55.8957 2.1649 56.1954 2.18479 56.4889L3.1825 56.4213ZM3.155 55.59C3.155 55.2668 3.16986 54.9511 3.19942 54.6428L2.20398 54.5474C2.17127 54.8885 2.155 55.2361 2.155 55.59H3.155ZM3.57718 52.8019C3.67435 52.5035 3.78828 52.2127 3.91898 51.9295L3.01102 51.5105C2.86379 51.8295 2.73555 52.1568 2.62631 52.4923L3.57718 52.8019ZM3.91898 51.9295C4.04616 51.654 4.18635 51.3885 4.3395 51.1331L3.48183 50.6189C3.30993 50.9056 3.153 51.2028 3.01102 51.5105L3.91898 51.9295ZM5.42748 49.7047C5.63275 49.4894 5.85137 49.2832 6.08349 49.0863L5.43651 48.3237C5.17802 48.5431 4.93367 48.7734 4.70359 49.0148L5.42748 49.7047ZM6.07785 49.091C6.33046 48.8829 6.59711 48.6872 6.87795 48.5038L6.33121 47.6665C6.02019 47.8696 5.72378 48.0871 5.44215 48.319L6.07785 49.091ZM8.65047 47.5857C8.9546 47.4627 9.27078 47.3499 9.59914 47.2472L9.30086 46.2928C8.94768 46.4031 8.60585 46.5251 8.27548 46.6587L8.65047 47.5857ZM9.6052 47.2453C9.9826 47.1221 10.3743 47.015 10.7805 46.9243L10.5626 45.9483C10.1265 46.0457 9.70386 46.1611 9.2948 46.2947L9.6052 47.2453ZM13.2103 46.588C13.6108 46.5627 14.0224 46.55 14.445 46.55V45.55C14.0024 45.55 13.5698 45.5633 13.1473 45.5899L13.2103 46.588ZM14.445 46.55C14.7092 46.55 14.9696 46.5548 15.2261 46.5643L15.2632 45.565C14.994 45.555 14.7213 45.55 14.445 45.55V46.55ZM16.7782 46.6853C17.3059 46.7495 17.815 46.8363 18.3057 46.9455L18.523 45.9694C17.9988 45.8527 17.4573 45.7605 16.8988 45.6926L16.7782 46.6853ZM19.7896 47.3635C20.0342 47.448 20.2736 47.539 20.5077 47.6365L20.8923 46.7135C20.6387 46.6078 20.38 46.5094 20.1161 46.4182L19.7896 47.3635ZM20.5077 47.6365C20.9371 47.8154 21.3508 48.0145 21.7491 48.2336L22.2312 47.3575C21.8006 47.1206 21.3543 46.906 20.8923 46.7135L20.5077 47.6365ZM23.9895 49.8202C24.3288 50.1237 24.6531 50.4482 24.9626 50.7936L25.7074 50.1264C25.3738 49.754 25.0234 49.4035 24.6563 49.0749L23.9895 49.8202ZM24.9797 50.1082L24.4116 50.6819L25.1222 51.3856L25.6903 50.8118L24.9797 50.1082ZM23.2753 51.8294L22.1391 52.9769L22.8497 53.6806L23.9859 52.5331L23.2753 51.8294ZM21.0028 54.1244L20.4347 54.6982L21.1453 55.4018L21.7134 54.8281L21.0028 54.1244ZM21.1687 54.7235C20.9673 54.4899 20.7546 54.2675 20.5307 54.0562L19.8445 54.7837C20.0434 54.9713 20.2323 55.1688 20.4113 55.3765L21.1687 54.7235ZM19.07 52.9351C18.8127 52.7753 18.5455 52.6263 18.2686 52.4878L17.8214 53.3822C18.0716 53.5073 18.312 53.6415 18.5425 53.7846L19.07 52.9351ZM18.2835 52.4956C17.9634 52.3218 17.6213 52.1735 17.2581 52.0502L16.9366 52.9971C17.2497 53.1035 17.5394 53.2295 17.8065 53.3744L18.2835 52.4956ZM15.1153 51.6236C14.7698 51.5944 14.4113 51.58 14.04 51.58V52.58C14.3854 52.58 14.7158 52.5934 15.0312 52.6201L15.1153 51.6236ZM14.04 51.58C13.7144 51.58 13.4037 51.5918 13.1081 51.6157L13.1886 52.6124C13.4546 52.5909 13.7384 52.58 14.04 52.58V51.58ZM11.2281 52.0074C10.8955 52.1346 10.5941 52.2926 10.3278 52.4842L10.9122 53.2958C11.0992 53.1611 11.3221 53.0421 11.5852 52.9415L11.2281 52.0074ZM10.3278 52.4842C10.1148 52.6376 9.92422 52.8085 9.75817 52.9975L10.5095 53.6574C10.622 53.5293 10.7555 53.4085 10.9122 53.2958L10.3278 52.4842ZM9.06951 54.387C9.01924 54.6285 8.995 54.8799 8.995 55.14H9.995C9.995 54.9421 10.0134 54.7593 10.0485 54.5907L9.06951 54.387ZM8.995 55.14C8.995 55.3857 9.00864 55.6207 9.03678 55.8444L10.029 55.7196C10.0066 55.542 9.995 55.3489 9.995 55.14H8.995ZM9.50718 57.26C9.65029 57.489 9.82393 57.6907 10.0279 57.8625L10.6721 57.0975C10.5503 56.995 10.4447 56.8733 10.3552 56.7301L9.50718 57.26ZM10.0377 57.8704C10.2565 58.0455 10.5084 58.1996 10.789 58.3351L11.2239 57.4347C10.9987 57.3259 10.8129 57.21 10.6623 57.0896L10.0377 57.8704ZM12.3605 58.8581C12.6103 58.9145 12.874 58.9647 13.1514 59.0088L13.3086 58.0212C13.05 57.9801 12.8074 57.9338 12.5806 57.8827L12.3605 58.8581ZM13.1513 59.0088L13.9275 59.1325L14.085 58.145L13.3087 58.0212L13.1513 59.0088ZM15.48 59.38L16.2563 59.5038L16.4137 58.5162L15.6375 58.3925L15.48 59.38ZM16.2573 59.5039C16.585 59.5555 16.9035 59.6122 17.2128 59.6739L17.4085 58.6933C17.0852 58.6287 16.7533 58.5697 16.4127 58.5161L16.2573 59.5039ZM19.0839 60.143C19.7314 60.343 20.3248 60.5714 20.8653 60.8272L21.2931 59.9233C20.705 59.645 20.0667 59.4 19.3791 59.1875L19.0839 60.143ZM22.4803 61.7864C22.735 61.9765 22.9709 62.1763 23.1884 62.3854L23.8816 61.6646C23.6328 61.4254 23.365 61.199 23.0785 60.985L22.4803 61.7864ZM23.1921 62.3889C23.3879 62.5734 23.5702 62.7684 23.7392 62.9738L24.5116 62.3387C24.3155 62.1003 24.1042 61.8744 23.8779 61.6611L23.1921 62.3889ZM24.5918 64.3289C24.8122 64.7983 24.9872 65.3092 25.1154 65.863L26.0896 65.6375C25.9468 65.0204 25.7497 64.442 25.497 63.9039L24.5918 64.3289ZM25.3486 67.4928C25.3662 67.7623 25.375 68.0397 25.375 68.325H26.375C26.375 68.0191 26.3655 67.72 26.3465 67.4278L25.3486 67.4928ZM25.375 68.325C25.375 68.671 25.36 69.0096 25.3302 69.3408L26.3262 69.4304C26.3588 69.0684 26.375 68.6999 26.375 68.325H25.375ZM24.95 71.3226C24.852 71.6455 24.7372 71.9606 24.6054 72.268L25.5246 72.662C25.6709 72.3205 25.7984 71.9707 25.9069 71.6129L24.95 71.3226ZM24.6054 72.268C24.4782 72.565 24.3362 72.8508 24.1794 73.1258L25.0482 73.621C25.2239 73.3127 25.3827 72.993 25.5246 72.662L24.6054 72.268ZM23.0473 74.6624C22.8316 74.8934 22.6007 75.1144 22.3546 75.3254L23.0054 76.0846C23.279 75.8501 23.5366 75.6036 23.7782 75.345L23.0473 74.6624ZM22.3492 75.3301C22.0936 75.5556 21.8204 75.7687 21.5293 75.9693L22.0968 76.7927C22.4197 76.5702 22.7244 76.3326 23.0108 76.0799L22.3492 75.3301ZM19.688 76.9713C19.3719 77.1059 19.0416 77.2308 18.6969 77.3457L19.0131 78.2943C19.3821 78.1713 19.7377 78.037 20.0799 77.8913L19.688 76.9713ZM18.7053 77.3429C18.3098 77.467 17.8987 77.5747 17.4718 77.666L17.6808 78.6439C18.1367 78.5465 18.578 78.4309 19.0047 78.2971L18.7053 77.3429ZM14.9268 78.0022C14.508 78.0274 14.0774 78.04 13.635 78.04V79.04C14.0964 79.04 14.547 79.0268 14.9868 79.0004L14.9268 78.0022ZM6.615 77.145L6.16775 78.0395L6.17907 78.045L6.615 77.145ZM1.71 73.455L0.999384 72.7514L0.335179 73.4223L0.966706 74.124L1.71 73.455ZM6.21 68.91L6.95793 68.2462L6.24988 67.4484L5.49938 68.2064L6.21 68.91ZM17.82 71.475L18.4685 72.2362L18.4685 72.2362L17.82 71.475ZM18.315 66.57L17.5341 67.1947L17.542 67.2045L17.5501 67.2141L18.315 66.57ZM15.39 65.355L15.5314 64.365L15.5193 64.3634L15.39 65.355ZM12.285 64.95L12.4143 63.9584L12.4101 63.9579L12.285 64.95ZM4.95 61.935L4.22939 62.6284L4.23619 62.6353L4.95 61.935ZM3.465 51.72L2.55704 51.3009L2.55704 51.3009L3.465 51.72ZM5.76 48.705L5.12429 47.9331L5.11862 47.9377L5.11302 47.9425L5.76 48.705ZM9.45 46.77L9.7483 47.7246L9.7604 47.7206L9.45 46.77ZM20.7 47.175L21.0846 46.2519L21.0846 46.2519L20.7 47.175ZM25.335 50.46L26.0456 51.1636L26.7083 50.4943L26.0798 49.7927L25.335 50.46ZM20.79 55.05L20.0326 55.7029L20.7392 56.5226L21.5006 55.7536L20.79 55.05ZM18.045 52.935L17.5679 53.8139L17.5827 53.8219L17.5978 53.8294L18.045 52.935ZM10.62 52.89L11.2043 53.7015L11.2043 53.7015L10.62 52.89ZM10.35 57.48L9.70586 58.2449L9.71548 58.253L9.7253 58.2609L10.35 57.48ZM13.23 58.515L13.3874 57.5275L13.3871 57.5274L13.23 58.515ZM16.335 59.01L16.1776 59.9975L16.1795 59.9978L16.335 59.01ZM23.535 62.025L22.8419 62.7459L22.8492 62.7528L23.535 62.025ZM25.065 72.465L24.1459 72.0711L25.065 72.465ZM22.68 75.705L22.0292 74.9457L22.0238 74.9504L22.0184 74.9552L22.68 75.705ZM18.855 77.82L19.1543 78.7741L19.1628 78.7715L19.1712 78.7687L18.855 77.82ZM13.635 77.54C13.3415 77.54 13.0536 77.5345 12.7713 77.5236L12.694 79.5221C13.003 79.5341 13.3166 79.54 13.635 79.54V77.54ZM11.0636 77.3831C10.4802 77.3076 9.92546 77.2051 9.39875 77.0764L8.92409 79.0193C9.52741 79.1667 10.1551 79.2822 10.8067 79.3666L11.0636 77.3831ZM7.80709 76.5757C7.54667 76.4733 7.29466 76.3631 7.05093 76.245L6.17907 78.045C6.46994 78.1859 6.76881 78.3165 7.07555 78.4371L7.80709 76.5757ZM7.06221 76.2506C6.84279 76.1409 6.62757 76.0276 6.41653 75.9107L5.44758 77.6603C5.68353 77.791 5.92361 77.9173 6.16779 78.0394L7.06221 76.2506ZM5.17702 75.151C4.77292 74.8774 4.38642 74.5883 4.01734 74.2837L2.74424 75.8262C3.16293 76.1717 3.6002 76.4987 4.05585 76.8072L5.17702 75.151ZM2.94953 73.3106C2.77978 73.1399 2.61437 72.965 2.45329 72.786L0.966706 74.124C1.14991 74.3275 1.33806 74.5264 1.53113 74.7206L2.94953 73.3106ZM2.42062 74.1586L2.98312 73.5905L1.56188 72.1833L0.999384 72.7514L2.42062 74.1586ZM4.10812 72.4542L5.23312 71.318L3.81188 69.9108L2.68688 71.047L4.10812 72.4542ZM6.35812 70.1817L6.92062 69.6136L5.49938 68.2064L4.93688 68.7745L6.35812 70.1817ZM5.46208 69.5738C5.73349 69.8796 6.01356 70.1686 6.30242 70.4406L7.67334 68.9844C7.42971 68.755 7.1912 68.5091 6.95793 68.2462L5.46208 69.5738ZM8.23897 71.924C8.94634 72.3546 9.69149 72.6984 10.4732 72.9543L11.0955 71.0535C10.4612 70.8459 9.85611 70.567 9.27886 70.2156L8.23897 71.924ZM12.872 73.4521C13.27 73.4908 13.6744 73.51 14.085 73.51V71.51C13.7368 71.51 13.3971 71.4937 13.0657 71.4615L12.872 73.4521ZM14.085 73.51C14.461 73.51 14.8221 73.494 15.1675 73.4611L14.9778 71.4701C14.7021 71.4964 14.4048 71.51 14.085 71.51V73.51ZM17.3985 72.9082C17.7914 72.7296 18.1505 72.5071 18.4685 72.2362L17.1715 70.7138C17.0091 70.8521 16.8114 70.9781 16.571 71.0874L17.3985 72.9082ZM18.4685 72.2362C18.724 72.0186 18.9526 71.7787 19.1511 71.5159L17.5555 70.3101C17.4495 70.4503 17.3226 70.5851 17.1715 70.7138L18.4685 72.2362ZM19.95 69.6849C20.0075 69.375 20.035 69.0562 20.035 68.73H18.035C18.035 68.9439 18.017 69.14 17.9836 69.3197L19.95 69.6849ZM20.035 68.73C20.035 68.4862 20.0194 68.2468 19.987 68.0128L18.0059 68.2876C18.0249 68.424 18.035 68.5712 18.035 68.73H20.035ZM19.5206 66.5697C19.3955 66.3407 19.2483 66.1259 19.0799 65.9259L17.5501 67.2141C17.6332 67.3129 17.7047 67.4174 17.7653 67.5283L19.5206 66.5697ZM19.0959 65.9453C18.8528 65.6415 18.5492 65.3943 18.2106 65.1928L17.188 66.9116C17.362 67.0151 17.4688 67.1131 17.5341 67.1947L19.0959 65.9453ZM16.4039 64.5224C16.1286 64.461 15.8376 64.4088 15.5314 64.365L15.2486 66.3449C15.5101 66.3823 15.7498 66.4257 15.9684 66.4745L16.4039 64.5224ZM15.5193 64.3634L14.7431 64.2621L14.4844 66.2453L15.2607 66.3466L15.5193 64.3634ZM13.1906 64.0596L12.4143 63.9584L12.1557 65.9416L12.9319 66.0428L13.1906 64.0596ZM12.4101 63.9579C12.0817 63.9164 11.7633 63.8692 11.455 63.8163L11.1166 65.7875C11.4557 65.8457 11.8035 65.8972 12.1599 65.9421L12.4101 63.9579ZM9.59658 63.3945C8.95648 63.2085 8.37644 62.9913 7.85402 62.745L7.00113 64.554C7.62933 64.8502 8.30926 65.1032 9.0385 65.3151L9.59658 63.3945ZM6.31757 61.8154C6.08079 61.6314 5.86311 61.4378 5.66381 61.2347L4.23619 62.6353C4.50054 62.9048 4.7856 63.1579 5.09065 63.3948L6.31757 61.8154ZM5.67057 61.2416C5.49442 61.0586 5.33038 60.8681 5.17824 60.6702L3.5926 61.8891C3.79032 62.1463 4.00267 62.3927 4.22943 62.6284L5.67057 61.2416ZM4.40121 59.3822C4.19523 58.9354 4.0305 58.4542 3.90872 57.9365L1.96186 58.3944C2.11259 59.0352 2.31971 59.6442 2.58493 60.2195L4.40121 59.3822ZM3.68135 56.3875C3.66385 56.1292 3.655 55.8634 3.655 55.59H1.655C1.655 55.9065 1.66525 56.2174 1.68593 56.5227L3.68135 56.3875ZM3.655 55.59C3.655 55.2821 3.66916 54.9823 3.69713 54.6905L1.70626 54.4996C1.67198 54.8573 1.655 55.2208 1.655 55.59H3.655ZM4.05262 52.9567C4.14374 52.6768 4.25052 52.4043 4.37296 52.1391L2.55704 51.3009C2.40155 51.6378 2.26616 51.9834 2.15087 52.3375L4.05262 52.9567ZM4.37296 52.1391C4.49274 51.8795 4.62456 51.63 4.76833 51.3902L3.053 50.3618C2.87172 50.6641 2.70642 50.9773 2.55704 51.3009L4.37296 52.1391ZM5.78943 50.0497C5.98229 49.8473 6.18805 49.6533 6.40698 49.4675L5.11302 47.9425C4.84135 48.173 4.58413 48.4155 4.34164 48.6699L5.78943 50.0497ZM6.39571 49.4769C6.6338 49.2809 6.88557 49.096 7.15132 48.9225L6.05783 47.2479C5.73173 47.4608 5.42044 47.6892 5.12429 47.9331L6.39571 49.4769ZM8.83797 48.0493C9.12897 47.9315 9.43233 47.8232 9.74828 47.7245L9.15173 45.8155C8.78613 45.9298 8.43147 46.0563 8.08798 46.1952L8.83797 48.0493ZM9.7604 47.7206C10.122 47.6025 10.4982 47.4997 10.8895 47.4123L10.4536 45.4604C10.0026 45.5611 9.56449 45.6807 9.1396 45.8194L9.7604 47.7206ZM13.2418 47.087C13.6313 47.0624 14.0324 47.05 14.445 47.05V45.05C13.9924 45.05 13.5493 45.0636 13.1158 45.0909L13.2418 47.087ZM14.445 47.05C14.7032 47.05 14.9574 47.0547 15.2075 47.0639L15.2817 45.0653C15.0062 45.0551 14.7273 45.05 14.445 45.05V47.05ZM16.7179 47.1817C17.2302 47.2439 17.7231 47.328 18.197 47.4336L18.6317 45.4814C18.0907 45.3609 17.5331 45.266 16.9591 45.1963L16.7179 47.1817ZM19.6263 47.8361C19.8614 47.9172 20.091 48.0046 20.3154 48.0981L21.0846 46.2519C20.8213 46.1422 20.5528 46.0401 20.2793 45.9456L19.6263 47.8361ZM20.3154 48.0981C20.7285 48.2702 21.1259 48.4614 21.5081 48.6717L22.4722 46.9194C22.0255 46.6737 21.5629 46.4512 21.0846 46.2519L20.3154 48.0981ZM23.6561 50.1928C23.9814 50.4839 24.2928 50.7953 24.5902 51.1272L26.0798 49.7927C25.7342 49.4069 25.3708 49.0433 24.9897 48.7023L23.6561 50.1928ZM24.6244 49.7564L24.0563 50.3301L25.4775 51.7374L26.0456 51.1636L24.6244 49.7564ZM22.92 51.4776L21.7838 52.6251L23.205 54.0324L24.3412 52.8849L22.92 51.4776ZM20.6475 53.7726L20.0794 54.3464L21.5006 55.7536L22.0687 55.1799L20.6475 53.7726ZM21.5474 54.3971C21.3348 54.1504 21.1102 53.9155 20.8737 53.6925L19.5014 55.1474C19.6878 55.3232 19.8648 55.5083 20.0326 55.7029L21.5474 54.3971ZM19.3337 52.5103C19.0631 52.3422 18.7825 52.1857 18.4922 52.0406L17.5978 53.8294C17.8347 53.9479 18.0616 54.0746 18.2788 54.2094L19.3337 52.5103ZM18.5221 52.0561C18.1754 51.8679 17.807 51.7086 17.4188 51.5768L16.7758 53.4706C17.064 53.5684 17.3274 53.6833 17.5679 53.8139L18.5221 52.0561ZM15.1573 51.1254C14.7968 51.0949 14.4242 51.08 14.04 51.08V53.08C14.3725 53.08 14.6888 53.0929 14.9891 53.1183L15.1573 51.1254ZM14.04 51.08C13.7025 51.08 13.3782 51.0922 13.0678 51.1173L13.2289 53.1108C13.4801 53.0905 13.7503 53.08 14.04 53.08V51.08ZM11.0495 51.5404C10.6822 51.6808 10.3415 51.8583 10.0357 52.0785L11.2043 53.7015C11.3517 53.5954 11.5355 53.4958 11.7638 53.4085L11.0495 51.5404ZM10.0357 52.0785C9.79444 52.2522 9.57531 52.448 9.38249 52.6676L10.8852 53.9874C10.9709 53.8898 11.0759 53.794 11.2043 53.7015L10.0357 52.0785ZM8.57999 54.2851C8.52215 54.5631 8.495 54.8488 8.495 55.14H10.495C10.495 54.9732 10.5105 54.8248 10.5381 54.6925L8.57999 54.2851ZM8.495 55.14C8.495 55.404 8.50965 55.66 8.54069 55.9069L10.5251 55.6572C10.5056 55.5026 10.495 55.3306 10.495 55.14H8.495ZM9.08317 57.525C9.25307 57.7969 9.46074 58.0385 9.70586 58.2449L10.9941 56.7151C10.9135 56.6472 10.842 56.5655 10.7792 56.4651L9.08317 57.525ZM9.7253 58.2609C9.97827 58.4632 10.2632 58.6364 10.5715 58.7853L11.4414 56.9844C11.2438 56.889 11.0911 56.7923 10.9747 56.6991L9.7253 58.2609ZM12.2505 59.3459C12.5118 59.4048 12.7861 59.4569 13.0729 59.5026L13.3871 57.5274C13.138 57.4878 12.906 57.4435 12.6906 57.3949L12.2505 59.3459ZM13.0726 59.5025L13.8488 59.6263L14.1637 57.6512L13.3874 57.5275L13.0726 59.5025ZM15.4013 59.8738L16.1776 59.9975L16.4924 58.0225L15.7162 57.8987L15.4013 59.8738ZM16.1795 59.9978C16.5008 60.0484 16.8126 60.1039 17.1149 60.1642L17.5064 58.2029C17.1761 58.137 16.8375 58.0768 16.4905 58.0222L16.1795 59.9978ZM18.9363 60.6207C19.5637 60.8145 20.1348 61.0346 20.6514 61.2791L21.507 59.4713C20.8951 59.1817 20.2343 58.9285 19.5267 58.7098L18.9363 60.6207ZM22.1811 62.187C22.42 62.3653 22.64 62.5517 22.8419 62.7458L24.2281 61.3042C23.9638 61.05 23.68 60.8102 23.3776 60.5844L22.1811 62.187ZM22.8492 62.7528C23.0298 62.9229 23.1976 63.1024 23.353 63.2914L24.8978 62.0211C24.6881 61.7662 24.4624 61.5249 24.2208 61.2972L22.8492 62.7528ZM24.1392 64.5414C24.3435 64.9765 24.5074 65.4536 24.6282 65.9757L26.5767 65.5247C26.4266 64.8759 26.2184 64.2639 25.9496 63.6913L24.1392 64.5414ZM24.8497 67.5253C24.8665 67.7834 24.875 68.05 24.875 68.325H26.875C26.875 68.0088 26.8652 67.6988 26.8454 67.3953L24.8497 67.5253ZM24.875 68.325C24.875 68.6566 24.8607 68.9802 24.8322 69.296L26.8242 69.4752C26.8582 69.0978 26.875 68.7143 26.875 68.325H24.875ZM24.4715 71.1775C24.3789 71.4829 24.2703 71.7807 24.1459 72.0711L25.9841 72.8589C26.1378 72.5004 26.2715 72.1334 26.3854 71.758L24.4715 71.1775ZM24.1459 72.0711C24.0259 72.351 23.8923 72.6199 23.7451 72.8782L25.4826 73.8686C25.6678 73.5436 25.835 73.207 25.9841 72.8589L24.1459 72.0711ZM22.6819 74.3211C22.4791 74.5383 22.2616 74.7465 22.0292 74.9457L23.3308 76.4643C23.6181 76.218 23.8892 75.9587 24.1436 75.6862L22.6819 74.3211ZM22.0184 74.9552C21.7782 75.1671 21.5208 75.368 21.2456 75.5576L22.3805 77.2044C22.7193 76.9709 23.0398 76.7211 23.3416 76.4548L22.0184 74.9552ZM19.4921 76.5113C19.189 76.6404 18.8714 76.7605 18.5388 76.8713L19.1712 78.7687C19.5524 78.6416 19.9206 78.5026 20.2758 78.3514L19.4921 76.5113ZM18.5557 76.8659C18.1757 76.9851 17.7797 77.0889 17.3673 77.177L17.7853 79.1328C18.2557 79.0323 18.7122 78.9129 19.1543 78.7741L18.5557 76.8659ZM14.8969 77.5031C14.4885 77.5277 14.0679 77.54 13.635 77.54V79.54C14.1059 79.54 14.5665 79.5266 15.0167 79.4995L14.8969 77.5031ZM30.3311 78H29.8311V78.5H30.3311V78ZM30.3311 72.555V72.055H29.8311V72.555H30.3311ZM34.3811 72.555V73.055H34.8811V72.555H34.3811ZM34.3811 52.035H34.8811V51.535H34.3811V52.035ZM30.3311 52.035H29.8311V52.535H30.3311V52.035ZM30.3311 46.59V46.09H29.8311V46.59H30.3311ZM45.2711 46.59H45.7711V46.09H45.2711V46.59ZM45.2711 52.035V52.535H45.7711V52.035H45.2711ZM41.2211 52.035V51.535H40.7211V52.035H41.2211ZM41.2211 72.555H40.7211V73.055H41.2211V72.555ZM45.2711 72.555H45.7711V72.055H45.2711V72.555ZM45.2711 78V78.5H45.7711V78H45.2711ZM30.8311 78V76.6387H29.8311V78H30.8311ZM30.8311 73.9162V72.555H29.8311V73.9162H30.8311ZM30.3311 73.055H31.3436V72.055H30.3311V73.055ZM33.3686 73.055H34.3811V72.055H33.3686V73.055ZM34.8811 72.555V71.529H33.8811V72.555H34.8811ZM34.8811 69.477V67.425H33.8811V69.477H34.8811ZM34.8811 65.373V63.321H33.8811V65.373H34.8811ZM34.8811 61.269V59.217H33.8811V61.269H34.8811ZM34.8811 57.165V55.113H33.8811V57.165H34.8811ZM34.8811 53.061V52.035H33.8811V53.061H34.8811ZM34.3811 51.535H33.3686V52.535H34.3811V51.535ZM31.3436 51.535H30.3311V52.535H31.3436V51.535ZM30.8311 52.035V50.6737H29.8311V52.035H30.8311ZM30.8311 47.9512V46.59H29.8311V47.9512H30.8311ZM30.3311 47.09H31.2648V46.09H30.3311V47.09ZM33.1323 47.09H34.9998V46.09H33.1323V47.09ZM36.8673 47.09H38.7348V46.09H36.8673V47.09ZM40.6023 47.09H42.4698V46.09H40.6023V47.09ZM44.3373 47.09H45.2711V46.09H44.3373V47.09ZM44.7711 46.59V47.9512H45.7711V46.59H44.7711ZM44.7711 50.6737V52.035H45.7711V50.6737H44.7711ZM45.2711 51.535H44.2586V52.535H45.2711V51.535ZM42.2336 51.535H41.2211V52.535H42.2336V51.535ZM40.7211 52.035V53.061H41.7211V52.035H40.7211ZM40.7211 55.113V57.165H41.7211V55.113H40.7211ZM40.7211 59.217V61.269H41.7211V59.217H40.7211ZM40.7211 63.321V65.373H41.7211V63.321H40.7211ZM40.7211 67.425V69.477H41.7211V67.425H40.7211ZM40.7211 71.529V72.555H41.7211V71.529H40.7211ZM41.2211 73.055H42.2336V72.055H41.2211V73.055ZM44.2586 73.055H45.2711V72.055H44.2586V73.055ZM44.7711 72.555V73.9162H45.7711V72.555H44.7711ZM44.7711 76.6387V78H45.7711V76.6387H44.7711ZM45.2711 77.5H44.3373V78.5H45.2711V77.5ZM42.4698 77.5H40.6023V78.5H42.4698V77.5ZM38.7348 77.5H36.8673V78.5H38.7348V77.5ZM34.9998 77.5H33.1323V78.5H34.9998V77.5ZM31.2648 77.5H30.3311V78.5H31.2648V77.5ZM30.3311 78H29.3311V79H30.3311V78ZM30.3311 72.555V71.555H29.3311V72.555H30.3311ZM34.3811 72.555V73.555H35.3811V72.555H34.3811ZM34.3811 52.035H35.3811V51.035H34.3811V52.035ZM30.3311 52.035H29.3311V53.035H30.3311V52.035ZM30.3311 46.59V45.59H29.3311V46.59H30.3311ZM45.2711 46.59H46.2711V45.59H45.2711V46.59ZM45.2711 52.035V53.035H46.2711V52.035H45.2711ZM41.2211 52.035V51.035H40.2211V52.035H41.2211ZM41.2211 72.555H40.2211V73.555H41.2211V72.555ZM45.2711 72.555H46.2711V71.555H45.2711V72.555ZM45.2711 78V79H46.2711V78H45.2711ZM31.3311 78V76.6387H29.3311V78H31.3311ZM31.3311 73.9162V72.555H29.3311V73.9162H31.3311ZM30.3311 73.555H31.3436V71.555H30.3311V73.555ZM33.3686 73.555H34.3811V71.555H33.3686V73.555ZM35.3811 72.555V71.529H33.3811V72.555H35.3811ZM35.3811 69.477V67.425H33.3811V69.477H35.3811ZM35.3811 65.373V63.321H33.3811V65.373H35.3811ZM35.3811 61.269V59.217H33.3811V61.269H35.3811ZM35.3811 57.165V55.113H33.3811V57.165H35.3811ZM35.3811 53.061V52.035H33.3811V53.061H35.3811ZM34.3811 51.035H33.3686V53.035H34.3811V51.035ZM31.3436 51.035H30.3311V53.035H31.3436V51.035ZM31.3311 52.035V50.6737H29.3311V52.035H31.3311ZM31.3311 47.9512V46.59H29.3311V47.9512H31.3311ZM30.3311 47.59H31.2648V45.59H30.3311V47.59ZM33.1323 47.59H34.9998V45.59H33.1323V47.59ZM36.8673 47.59H38.7348V45.59H36.8673V47.59ZM40.6023 47.59H42.4698V45.59H40.6023V47.59ZM44.3373 47.59H45.2711V45.59H44.3373V47.59ZM44.2711 46.59V47.9512H46.2711V46.59H44.2711ZM44.2711 50.6737V52.035H46.2711V50.6737H44.2711ZM45.2711 51.035H44.2586V53.035H45.2711V51.035ZM42.2336 51.035H41.2211V53.035H42.2336V51.035ZM40.2211 52.035V53.061H42.2211V52.035H40.2211ZM40.2211 55.113V57.165H42.2211V55.113H40.2211ZM40.2211 59.217V61.269H42.2211V59.217H40.2211ZM40.2211 63.321V65.373H42.2211V63.321H40.2211ZM40.2211 67.425V69.477H42.2211V67.425H40.2211ZM40.2211 71.529V72.555H42.2211V71.529H40.2211ZM41.2211 73.555H42.2336V71.555H41.2211V73.555ZM44.2586 73.555H45.2711V71.555H44.2586V73.555ZM44.2711 72.555V73.9162H46.2711V72.555H44.2711ZM44.2711 76.6387V78H46.2711V76.6387H44.2711ZM45.2711 77H44.3373V79H45.2711V77ZM42.4698 77H40.6023V79H42.4698V77ZM38.7348 77H36.8673V79H38.7348V77ZM34.9998 77H33.1323V79H34.9998V77ZM31.2648 77H30.3311V79H31.2648V77ZM50.9699 46.59V46.09H50.4699V46.59H50.9699ZM68.4749 47.58L68.6549 47.1135L68.6549 47.1135L68.4749 47.58ZM72.8399 50.55L72.4699 50.8864L72.4738 50.8906L72.8399 50.55ZM75.6299 55.455L75.1555 55.6131L75.1563 55.6153L75.6299 55.455ZM75.6299 69.18L76.1035 69.3403L76.1042 69.3381L75.6299 69.18ZM72.8399 74.085L73.206 74.4256L73.2099 74.4213L72.8399 74.085ZM68.4749 77.01L68.6549 77.4765L68.6549 77.4765L68.4749 77.01ZM50.9699 78H50.4699V78.5H50.9699V78ZM67.6199 70.215L67.9688 70.5731L67.6199 70.215ZM67.6199 54.375L67.9688 54.0169L67.9688 54.0169L67.6199 54.375ZM57.8099 52.665V52.165H57.3099V52.665H57.8099ZM57.8099 71.925H57.3099V72.425H57.8099V71.925ZM50.4699 46.59V47.5716H51.4699V46.59H50.4699ZM50.4699 49.5347V51.4978H51.4699V49.5347H50.4699ZM50.4699 53.4609V55.4241H51.4699V53.4609H50.4699ZM50.4699 57.3872V59.3503H51.4699V57.3872H50.4699ZM50.4699 61.3134V63.2766H51.4699V61.3134H50.4699ZM50.4699 65.2397V67.2028H51.4699V65.2397H50.4699ZM50.4699 69.1659V71.1291H51.4699V69.1659H50.4699ZM50.4699 73.0922V75.0553H51.4699V73.0922H50.4699ZM50.4699 77.0184V78H51.4699V77.0184H50.4699ZM50.9699 78.5H51.9561V77.5H50.9699V78.5ZM53.9286 78.5H55.9011V77.5H53.9286V78.5ZM57.8736 78.5H59.8461V77.5H57.8736V78.5ZM61.8186 78.5H62.8049V77.5H61.8186V78.5ZM62.8049 78.5C63.3096 78.5 63.8047 78.4809 64.2901 78.4425L64.2113 77.4456C63.7532 77.4818 63.2844 77.5 62.8049 77.5V78.5ZM67.2304 77.9418C67.7175 77.8101 68.1923 77.655 68.6549 77.4765L68.2948 76.5435C67.8653 76.7093 67.4235 76.8537 66.9694 76.9765L67.2304 77.9418ZM68.6549 77.4765C69.0892 77.3088 69.5084 77.1213 69.9124 76.9139L69.4556 76.0243C69.084 76.2152 68.6971 76.3883 68.2948 76.5435L68.6549 77.4765ZM72.2074 75.3816C72.5574 75.0837 72.8903 74.765 73.206 74.4256L72.4738 73.7444C72.1842 74.0557 71.8793 74.3476 71.5592 74.6202L72.2074 75.3816ZM73.2099 74.4213C73.5389 74.0594 73.8481 73.6752 74.1374 73.2689L73.3229 72.6888C73.056 73.0635 72.7717 73.4167 72.4699 73.7487L73.2099 74.4213ZM75.5768 70.7055C75.7682 70.2676 75.9437 69.8124 76.1035 69.3403L75.1563 69.0197C75.0052 69.4661 74.8399 69.8945 74.6605 70.3052L75.5768 70.7055ZM76.1042 69.3381C76.1979 69.057 76.285 68.7702 76.3656 68.4775L75.4015 68.212C75.3255 68.4881 75.2435 68.758 75.1555 69.0219L76.1042 69.3381ZM76.7579 66.7282C76.8588 66.1574 76.9385 65.5676 76.9972 64.9589L76.0018 64.863C75.9455 65.447 75.8693 66.0107 75.7732 66.5541L76.7579 66.7282ZM77.107 63.183C77.1156 62.8909 77.1199 62.5949 77.1199 62.295H76.1199C76.1199 62.5854 76.1157 62.8716 76.1074 63.1536L77.107 63.183ZM77.1199 62.295C77.1199 61.9968 77.1156 61.7027 77.1072 61.4126L76.1076 61.4418C76.1158 61.7219 76.1199 62.0063 76.1199 62.295H77.1199ZM76.9982 59.6476C76.9399 59.0416 76.8605 58.4553 76.7598 57.8888L75.7753 58.0637C75.871 58.6024 75.9469 59.1622 76.0028 59.7434L76.9982 59.6476ZM76.3667 56.1499C76.2856 55.8587 76.1979 55.5736 76.1035 55.2947L75.1563 55.6153C75.2447 55.8764 75.3271 56.1441 75.4034 56.4182L76.3667 56.1499ZM76.1042 55.2969C75.9461 54.8225 75.7725 54.3662 75.5833 53.9283L74.6653 54.3249C74.8425 54.7351 75.006 55.1645 75.1555 55.6131L76.1042 55.2969ZM74.1448 51.3589C73.8523 50.9511 73.5394 50.5678 73.206 50.2094L72.4738 50.8906C72.7775 51.217 73.0637 51.5673 73.3322 51.9417L74.1448 51.3589ZM73.2099 50.2137C72.8958 49.8682 72.5647 49.544 72.2165 49.2414L71.5604 49.9961C71.8786 50.2727 72.1818 50.5694 72.4699 50.8863L73.2099 50.2137ZM69.9194 47.6824C69.5133 47.4717 69.0918 47.2821 68.6549 47.1135L68.2948 48.0465C68.6983 48.2022 69.0863 48.3767 69.4589 48.5701L69.9194 47.6824ZM68.6549 47.1135C68.1923 46.935 67.7175 46.7799 67.2304 46.6482L66.9694 47.6135C67.4235 47.7363 67.8653 47.8807 68.2948 48.0465L68.6549 47.1135ZM64.2901 46.1475C63.8047 46.1091 63.3096 46.09 62.8049 46.09V47.09C63.2844 47.09 63.7532 47.1082 64.2113 47.1444L64.2901 46.1475ZM62.8049 46.09H61.8186V47.09H62.8049V46.09ZM59.8461 46.09H57.8736V47.09H59.8461V46.09ZM55.9011 46.09H53.9286V47.09H55.9011V46.09ZM51.9561 46.09H50.9699V47.09H51.9561V46.09ZM62.8049 71.425H61.5561V72.425H62.8049V71.425ZM59.0586 71.425H57.8099V72.425H59.0586V71.425ZM58.3099 71.925V70.962H57.3099V71.925H58.3099ZM58.3099 69.036V67.11H57.3099V69.036H58.3099ZM58.3099 65.184V63.258H57.3099V65.184H58.3099ZM58.3099 61.332V59.406H57.3099V61.332H58.3099ZM58.3099 57.48V55.554H57.3099V57.48H58.3099ZM58.3099 53.628V52.665H57.3099V53.628H58.3099ZM57.8099 53.165H59.0586V52.165H57.8099V53.165ZM61.5561 53.165H62.8049V52.165H61.5561V53.165ZM62.8049 53.165C63.2418 53.165 63.6545 53.1924 64.0436 53.2463L64.1809 52.2558C63.7423 52.195 63.2834 52.165 62.8049 52.165V53.165ZM66.3266 54.0091C66.6701 54.213 66.9847 54.4542 67.271 54.7331L67.9688 54.0169C67.626 53.6828 67.2485 53.3934 66.8371 53.1492L66.3266 54.0091ZM67.271 54.7331C67.5751 55.0295 67.838 55.3816 68.0582 55.7933L68.94 55.3217C68.6749 54.8261 68.3516 54.3899 67.9688 54.0169L67.271 54.7331ZM68.8025 58.4415C68.8505 58.8845 68.8749 59.3588 68.8749 59.865H69.8749C69.8749 59.327 69.849 58.8164 69.7966 58.3337L68.8025 58.4415ZM68.8749 59.865V61.08H69.8749V59.865H68.8749ZM68.8749 63.51V64.725H69.8749V63.51H68.8749ZM68.8749 64.725C68.8749 65.2312 68.8505 65.7055 68.8025 66.1485L69.7966 66.2563C69.849 65.7736 69.8749 65.263 69.8749 64.725H68.8749ZM68.0582 68.7967C67.838 69.2084 67.5751 69.5605 67.271 69.8569L67.9688 70.5731C68.3516 70.2001 68.6749 69.7639 68.94 69.2683L68.0582 68.7967ZM67.271 69.8569C66.9847 70.1358 66.6701 70.377 66.3266 70.5809L66.8371 71.4408C67.2485 71.1966 67.626 70.9071 67.9688 70.5731L67.271 69.8569ZM64.0436 71.3437C63.6545 71.3976 63.2418 71.425 62.8049 71.425V72.425C63.2834 72.425 63.7423 72.395 64.1809 72.3342L64.0436 71.3437ZM50.9699 46.59V45.59H49.9699V46.59H50.9699ZM68.4749 47.58L68.835 46.6471L68.835 46.6471L68.4749 47.58ZM72.8399 50.55L72.0999 51.2227L72.1077 51.2311L72.8399 50.55ZM75.6299 55.455L74.6812 55.7712L74.6827 55.7756L75.6299 55.455ZM75.6299 69.18L76.5771 69.5006L76.5786 69.4962L75.6299 69.18ZM72.8399 74.085L73.5721 74.7661L73.5798 74.7577L72.8399 74.085ZM68.4749 77.01L68.835 77.9429L68.835 77.9429L68.4749 77.01ZM50.9699 78H49.9699V79H50.9699V78ZM67.6199 70.215L68.3177 70.9312L67.6199 70.215ZM67.6199 54.375L68.3177 53.6588L68.3177 53.6588L67.6199 54.375ZM57.8099 52.665V51.665H56.8099V52.665H57.8099ZM57.8099 71.925H56.8099V72.925H57.8099V71.925ZM49.9699 46.59V47.5716H51.9699V46.59H49.9699ZM49.9699 49.5347V51.4978H51.9699V49.5347H49.9699ZM49.9699 53.4609V55.4241H51.9699V53.4609H49.9699ZM49.9699 57.3872V59.3503H51.9699V57.3872H49.9699ZM49.9699 61.3134V63.2766H51.9699V61.3134H49.9699ZM49.9699 65.2397V67.2028H51.9699V65.2397H49.9699ZM49.9699 69.1659V71.1291H51.9699V69.1659H49.9699ZM49.9699 73.0922V75.0553H51.9699V73.0922H49.9699ZM49.9699 77.0184V78H51.9699V77.0184H49.9699ZM50.9699 79H51.9561V77H50.9699V79ZM53.9286 79H55.9011V77H53.9286V79ZM57.8736 79H59.8461V77H57.8736V79ZM61.8186 79H62.8049V77H61.8186V79ZM62.8049 79C63.3223 79 63.8305 78.9804 64.3295 78.9409L64.1719 76.9472C63.7274 76.9823 63.2717 77 62.8049 77V79ZM67.361 78.4245C67.8644 78.2883 68.3558 78.1278 68.835 77.9429L68.1148 76.0771C67.7018 76.2365 67.2765 76.3755 66.8389 76.4938L67.361 78.4245ZM68.835 77.9429C69.2853 77.7691 69.7207 77.5744 70.1408 77.3587L69.2271 75.5796C68.8717 75.7621 68.501 75.928 68.1148 76.0771L68.835 77.9429ZM72.5315 75.7624C72.8964 75.4517 73.2433 75.1196 73.5721 74.7661L72.1077 73.4039C71.8312 73.7011 71.5403 73.9796 71.235 74.2395L72.5315 75.7624ZM73.5798 74.7577C73.9225 74.3807 74.2441 73.981 74.5447 73.559L72.9156 72.3987C72.66 72.7576 72.3881 73.0954 72.0999 73.4123L73.5798 74.7577ZM76.035 70.9057C76.2323 70.4541 76.4129 69.9856 76.5771 69.5006L74.6827 68.8594C74.5359 69.2929 74.3757 69.708 74.2023 70.105L76.035 70.9057ZM76.5786 69.4962C76.6751 69.2066 76.7648 68.9112 76.8477 68.6102L74.9195 68.0792C74.8457 68.347 74.7663 68.6085 74.6812 68.8638L76.5786 69.4962ZM77.2503 66.8153C77.3536 66.2308 77.435 65.6279 77.4948 65.0068L75.5041 64.8151C75.449 65.3868 75.3745 65.9373 75.2808 66.4671L77.2503 66.8153ZM77.6068 63.1977C77.6155 62.9006 77.6199 62.5997 77.6199 62.295H75.6199C75.6199 62.5806 75.6158 62.8619 75.6077 63.1389L77.6068 63.1977ZM77.6199 62.295C77.6199 61.9921 77.6156 61.6931 77.6069 61.3979L75.6078 61.4564C75.6158 61.7315 75.6199 62.011 75.6199 62.295H77.6199ZM77.4959 59.5997C77.4364 58.9812 77.3552 58.3817 77.2521 57.8013L75.283 58.1512C75.3762 58.676 75.4504 59.2226 75.5051 59.7913L77.4959 59.5997ZM76.8484 56.0157C76.7649 55.716 76.6745 55.4222 76.5771 55.1344L74.6827 55.7756C74.768 56.0278 74.8478 56.2868 74.9218 56.5524L76.8484 56.0157ZM76.5786 55.1388C76.4161 54.6514 76.2375 54.1818 76.0423 53.73L74.2063 54.5232C74.3776 54.9196 74.5359 55.3355 74.6812 55.7712L76.5786 55.1388ZM74.5511 51.0674C74.2466 50.6429 73.9203 50.2432 73.5721 49.8689L72.1077 51.2311C72.3966 51.5416 72.6694 51.8755 72.9259 52.2331L74.5511 51.0674ZM73.5798 49.8773C73.2528 49.5176 72.9077 49.1797 72.5445 48.864L71.2324 50.3734C71.5356 50.6371 71.8248 50.92 72.0999 51.2227L73.5798 49.8773ZM70.1497 47.2386C69.7268 47.0192 69.2885 46.8221 68.835 46.6471L68.1148 48.5129C68.5016 48.6622 68.8727 48.8293 69.2286 49.0139L70.1497 47.2386ZM68.835 46.6471C68.3558 46.4622 67.8644 46.3017 67.361 46.1655L66.8389 48.0962C67.2765 48.2145 67.7018 48.3535 68.1148 48.5129L68.835 46.6471ZM64.3295 45.6491C63.8305 45.6096 63.3223 45.59 62.8049 45.59V47.59C63.2717 47.59 63.7274 47.6077 64.1719 47.6428L64.3295 45.6491ZM62.8049 45.59H61.8186V47.59H62.8049V45.59ZM59.8461 45.59H57.8736V47.59H59.8461V45.59ZM55.9011 45.59H53.9286V47.59H55.9011V45.59ZM51.9561 45.59H50.9699V47.59H51.9561V45.59ZM62.8049 70.925H61.5561V72.925H62.8049V70.925ZM59.0586 70.925H57.8099V72.925H59.0586V70.925ZM58.8099 71.925V70.962H56.8099V71.925H58.8099ZM58.8099 69.036V67.11H56.8099V69.036H58.8099ZM58.8099 65.184V63.258H56.8099V65.184H58.8099ZM58.8099 61.332V59.406H56.8099V61.332H58.8099ZM58.8099 57.48V55.554H56.8099V57.48H58.8099ZM58.8099 53.628V52.665H56.8099V53.628H58.8099ZM57.8099 53.665H59.0586V51.665H57.8099V53.665ZM61.5561 53.665H62.8049V51.665H61.5561V53.665ZM62.8049 53.665C63.2209 53.665 63.6106 53.6911 63.975 53.7416L64.2496 51.7606C63.7861 51.6963 63.3042 51.665 62.8049 51.665V53.665ZM66.0714 54.439C66.3809 54.6227 66.664 54.8398 66.922 55.0912L68.3177 53.6588C67.9467 53.2972 67.5378 52.9837 67.0924 52.7193L66.0714 54.439ZM66.922 55.0912C67.1869 55.3493 67.4196 55.6594 67.6173 56.0292L69.3809 55.0858C69.0934 54.5483 68.7399 54.0701 68.3177 53.6588L66.922 55.0912ZM68.3054 58.4955C68.3513 58.9185 68.3749 59.3747 68.3749 59.865H70.3749C70.3749 59.3111 70.3483 58.7824 70.2937 58.2797L68.3054 58.4955ZM68.3749 59.865V61.08H70.3749V59.865H68.3749ZM68.3749 63.51V64.725H70.3749V63.51H68.3749ZM68.3749 64.725C68.3749 65.2153 68.3513 65.6715 68.3054 66.0945L70.2937 66.3103C70.3483 65.8076 70.3749 65.2789 70.3749 64.725H68.3749ZM67.6173 68.5608C67.4196 68.9306 67.1869 69.2407 66.922 69.4988L68.3177 70.9312C68.7399 70.5199 69.0934 70.0417 69.3809 69.5042L67.6173 68.5608ZM66.922 69.4988C66.664 69.7502 66.3809 69.9673 66.0714 70.151L67.0924 71.8707C67.5378 71.6063 67.9467 71.2928 68.3177 70.9312L66.922 69.4988ZM63.975 70.8484C63.6106 70.8989 63.2209 70.925 62.8049 70.925V72.925C63.3042 72.925 63.7861 72.8937 64.2496 72.8294L63.975 70.8484ZM82.3468 78H81.8468V78.5H82.3468V78ZM82.3468 46.59V46.09H81.8468V46.59H82.3468ZM103.722 46.59H104.222V46.09H103.722V46.59ZM103.722 52.665V53.165H104.222V52.665H103.722ZM89.1868 52.665V52.165H88.6868V52.665H89.1868ZM89.1868 59.1H88.6868V59.6H89.1868V59.1ZM101.652 59.1H102.152V58.6H101.652V59.1ZM101.652 65.13V65.63H102.152V65.13H101.652ZM89.1868 65.13V64.63H88.6868V65.13H89.1868ZM89.1868 71.925H88.6868V72.425H89.1868V71.925ZM103.722 71.925H104.222V71.425H103.722V71.925ZM103.722 78V78.5H104.222V78H103.722ZM82.8468 78V77.0184H81.8468V78H82.8468ZM82.8468 75.0553V73.0922H81.8468V75.0553H82.8468ZM82.8468 71.1291V69.1659H81.8468V71.1291H82.8468ZM82.8468 67.2028V65.2397H81.8468V67.2028H82.8468ZM82.8468 63.2766V61.3134H81.8468V63.2766H82.8468ZM82.8468 59.3503V57.3872H81.8468V59.3503H82.8468ZM82.8468 55.4241V53.4609H81.8468V55.4241H82.8468ZM82.8468 51.4978V49.5347H81.8468V51.4978H82.8468ZM82.8468 47.5716V46.59H81.8468V47.5716H82.8468ZM82.3468 47.09H83.4156V46.09H82.3468V47.09ZM85.5531 47.09H87.6906V46.09H85.5531V47.09ZM89.8281 47.09H91.9656V46.09H89.8281V47.09ZM94.1031 47.09H96.2406V46.09H94.1031V47.09ZM98.3781 47.09H100.516V46.09H98.3781V47.09ZM102.653 47.09H103.722V46.09H102.653V47.09ZM103.222 46.59V47.3494H104.222V46.59H103.222ZM103.222 48.8681V50.3869H104.222V48.8681H103.222ZM103.222 51.9056V52.665H104.222V51.9056H103.222ZM103.722 52.165H102.813V53.165H103.722V52.165ZM100.997 52.165H99.1797V53.165H100.997V52.165ZM97.3628 52.165H95.5459V53.165H97.3628V52.165ZM93.729 52.165H91.9121V53.165H93.729V52.165ZM90.0953 52.165H89.1868V53.165H90.0953V52.165ZM88.6868 52.665V53.4694H89.6868V52.665H88.6868ZM88.6868 55.0781V56.6869H89.6868V55.0781H88.6868ZM88.6868 58.2956V59.1H89.6868V58.2956H88.6868ZM89.1868 59.6H90.2256V58.6H89.1868V59.6ZM92.3031 59.6H94.3806V58.6H92.3031V59.6ZM96.4581 59.6H98.5356V58.6H96.4581V59.6ZM100.613 59.6H101.652V58.6H100.613V59.6ZM101.152 59.1V59.8537H102.152V59.1H101.152ZM101.152 61.3612V62.8687H102.152V61.3612H101.152ZM101.152 64.3762V65.13H102.152V64.3762H101.152ZM101.652 64.63H100.613V65.63H101.652V64.63ZM98.5356 64.63H96.4581V65.63H98.5356V64.63ZM94.3806 64.63H92.3031V65.63H94.3806V64.63ZM90.2256 64.63H89.1868V65.63H90.2256V64.63ZM88.6868 65.13V65.9794H89.6868V65.13H88.6868ZM88.6868 67.6781V69.3769H89.6868V67.6781H88.6868ZM88.6868 71.0756V71.925H89.6868V71.0756H88.6868ZM89.1868 72.425H90.0953V71.425H89.1868V72.425ZM91.9121 72.425H93.729V71.425H91.9121V72.425ZM95.5459 72.425H97.3628V71.425H95.5459V72.425ZM99.1797 72.425H100.997V71.425H99.1797V72.425ZM102.813 72.425H103.722V71.425H102.813V72.425ZM103.222 71.925V72.6844H104.222V71.925H103.222ZM103.222 74.2031V75.7219H104.222V74.2031H103.222ZM103.222 77.2406V78H104.222V77.2406H103.222ZM103.722 77.5H102.653V78.5H103.722V77.5ZM100.516 77.5H98.3781V78.5H100.516V77.5ZM96.2406 77.5H94.1031V78.5H96.2406V77.5ZM91.9656 77.5H89.8281V78.5H91.9656V77.5ZM87.6906 77.5H85.5531V78.5H87.6906V77.5ZM83.4156 77.5H82.3468V78.5H83.4156V77.5ZM82.3468 78H81.3468V79H82.3468V78ZM82.3468 46.59V45.59H81.3468V46.59H82.3468ZM103.722 46.59H104.722V45.59H103.722V46.59ZM103.722 52.665V53.665H104.722V52.665H103.722ZM89.1868 52.665V51.665H88.1868V52.665H89.1868ZM89.1868 59.1H88.1868V60.1H89.1868V59.1ZM101.652 59.1H102.652V58.1H101.652V59.1ZM101.652 65.13V66.13H102.652V65.13H101.652ZM89.1868 65.13V64.13H88.1868V65.13H89.1868ZM89.1868 71.925H88.1868V72.925H89.1868V71.925ZM103.722 71.925H104.722V70.925H103.722V71.925ZM103.722 78V79H104.722V78H103.722ZM83.3468 78V77.0184H81.3468V78H83.3468ZM83.3468 75.0553V73.0922H81.3468V75.0553H83.3468ZM83.3468 71.1291V69.1659H81.3468V71.1291H83.3468ZM83.3468 67.2028V65.2397H81.3468V67.2028H83.3468ZM83.3468 63.2766V61.3134H81.3468V63.2766H83.3468ZM83.3468 59.3503V57.3872H81.3468V59.3503H83.3468ZM83.3468 55.4241V53.4609H81.3468V55.4241H83.3468ZM83.3468 51.4978V49.5347H81.3468V51.4978H83.3468ZM83.3468 47.5716V46.59H81.3468V47.5716H83.3468ZM82.3468 47.59H83.4156V45.59H82.3468V47.59ZM85.5531 47.59H87.6906V45.59H85.5531V47.59ZM89.8281 47.59H91.9656V45.59H89.8281V47.59ZM94.1031 47.59H96.2406V45.59H94.1031V47.59ZM98.3781 47.59H100.516V45.59H98.3781V47.59ZM102.653 47.59H103.722V45.59H102.653V47.59ZM102.722 46.59V47.3494H104.722V46.59H102.722ZM102.722 48.8681V50.3869H104.722V48.8681H102.722ZM102.722 51.9056V52.665H104.722V51.9056H102.722ZM103.722 51.665H102.813V53.665H103.722V51.665ZM100.997 51.665H99.1797V53.665H100.997V51.665ZM97.3628 51.665H95.5459V53.665H97.3628V51.665ZM93.729 51.665H91.9121V53.665H93.729V51.665ZM90.0953 51.665H89.1868V53.665H90.0953V51.665ZM88.1868 52.665V53.4694H90.1868V52.665H88.1868ZM88.1868 55.0781V56.6869H90.1868V55.0781H88.1868ZM88.1868 58.2956V59.1H90.1868V58.2956H88.1868ZM89.1868 60.1H90.2256V58.1H89.1868V60.1ZM92.3031 60.1H94.3806V58.1H92.3031V60.1ZM96.4581 60.1H98.5356V58.1H96.4581V60.1ZM100.613 60.1H101.652V58.1H100.613V60.1ZM100.652 59.1V59.8537H102.652V59.1H100.652ZM100.652 61.3612V62.8687H102.652V61.3612H100.652ZM100.652 64.3762V65.13H102.652V64.3762H100.652ZM101.652 64.13H100.613V66.13H101.652V64.13ZM98.5356 64.13H96.4581V66.13H98.5356V64.13ZM94.3806 64.13H92.3031V66.13H94.3806V64.13ZM90.2256 64.13H89.1868V66.13H90.2256V64.13ZM88.1868 65.13V65.9794H90.1868V65.13H88.1868ZM88.1868 67.6781V69.3769H90.1868V67.6781H88.1868ZM88.1868 71.0756V71.925H90.1868V71.0756H88.1868ZM89.1868 72.925H90.0953V70.925H89.1868V72.925ZM91.9121 72.925H93.729V70.925H91.9121V72.925ZM95.5459 72.925H97.3628V70.925H95.5459V72.925ZM99.1797 72.925H100.997V70.925H99.1797V72.925ZM102.813 72.925H103.722V70.925H102.813V72.925ZM102.722 71.925V72.6844H104.722V71.925H102.722ZM102.722 74.2031V75.7219H104.722V74.2031H102.722ZM102.722 77.2406V78H104.722V77.2406H102.722ZM103.722 77H102.653V79H103.722V77ZM100.516 77H98.3781V79H100.516V77ZM96.2406 77H94.1031V79H96.2406V77ZM91.9656 77H89.8281V79H91.9656V77ZM87.6906 77H85.5531V79H87.6906V77ZM83.4156 77H82.3468V79H83.4156V77ZM116.521 78V78.5H117.021V78H116.521ZM109.681 78H109.181V78.5H109.681V78ZM109.681 46.59V46.09H109.181V46.59H109.681ZM128.491 47.31L128.681 46.8474L128.681 46.8474L128.491 47.31ZM131.461 49.38L131.089 49.7145L131.095 49.721L131.101 49.7273L131.461 49.38ZM132.631 62.205L132.203 61.9465L132.199 61.9526L132.631 62.205ZM128.356 65.67L128.18 65.2018L127.66 65.3968L127.909 65.8936L128.356 65.67ZM134.521 78V78.5H135.33L134.968 77.7764L134.521 78ZM126.916 78L126.464 78.2151L126.6 78.5H126.916V78ZM121.426 66.48L121.877 66.2649L121.741 65.98H121.426V66.48ZM116.521 66.48V65.98H116.021V66.48H116.521ZM126.106 59.955L126.439 60.3276L126.44 60.3266L126.106 59.955ZM126.106 53.34L125.762 53.703L125.772 53.7122L125.782 53.721L126.106 53.34ZM116.521 52.53V52.03H116.021V52.53H116.521ZM116.521 60.72H116.021V61.22H116.521V60.72ZM116.521 77.5H115.666V78.5H116.521V77.5ZM113.956 77.5H112.246V78.5H113.956V77.5ZM110.536 77.5H109.681V78.5H110.536V77.5ZM110.181 78V77.0184H109.181V78H110.181ZM110.181 75.0553V73.0922H109.181V75.0553H110.181ZM110.181 71.1291V69.1659H109.181V71.1291H110.181ZM110.181 67.2028V65.2397H109.181V67.2028H110.181ZM110.181 63.2766V61.3134H109.181V63.2766H110.181ZM110.181 59.3503V57.3872H109.181V59.3503H110.181ZM110.181 55.4241V53.4609H109.181V55.4241H110.181ZM110.181 51.4978V49.5347H109.181V51.4978H110.181ZM110.181 47.5716V46.59H109.181V47.5716H110.181ZM109.681 47.09H110.612V46.09H109.681V47.09ZM112.474 47.09H114.336V46.09H112.474V47.09ZM116.197 47.09H118.059V46.09H116.197V47.09ZM119.921 47.09H121.783V46.09H119.921V47.09ZM123.645 47.09H124.576V46.09H123.645V47.09ZM124.576 47.09C124.904 47.09 125.224 47.1029 125.535 47.1287L125.618 46.1321C125.277 46.104 124.93 46.09 124.576 46.09V47.09ZM127.408 47.4633C127.715 47.5511 128.012 47.6542 128.301 47.7726L128.681 46.8474C128.357 46.7147 128.024 46.5995 127.682 46.5018L127.408 47.4633ZM128.301 47.7726C128.571 47.8834 128.83 48.0058 129.079 48.1396L129.553 47.2591C129.273 47.1083 128.982 46.9711 128.681 46.8474L128.301 47.7726ZM130.482 49.1133C130.695 49.301 130.897 49.5013 131.089 49.7145L131.832 49.0455C131.615 48.8039 131.385 48.5764 131.143 48.363L130.482 49.1133ZM131.101 49.7273C131.303 49.9368 131.494 50.1576 131.672 50.3895L132.465 49.7799C132.264 49.5184 132.049 49.2693 131.821 49.0327L131.101 49.7273ZM132.585 51.8864C132.709 52.1475 132.823 52.4193 132.926 52.7018L133.865 52.3582C133.752 52.0474 133.626 51.7469 133.488 51.4566L132.585 51.8864ZM132.926 52.7018C133.038 53.0083 133.136 53.3242 133.219 53.6496L134.188 53.4024C134.097 53.0452 133.989 52.6971 133.865 52.3582L132.926 52.7018ZM133.534 55.6199C133.559 55.9469 133.571 56.2819 133.571 56.625H134.571C134.571 56.2582 134.558 55.8985 134.532 55.5459L133.534 55.6199ZM133.571 56.625C133.571 57.1077 133.545 57.5744 133.495 58.0253L134.488 58.1371C134.543 57.647 134.571 57.1429 134.571 56.625H133.571ZM132.823 60.7132C132.647 61.1421 132.44 61.5531 132.203 61.9466L133.059 62.4634C133.323 62.0256 133.553 61.5684 133.748 61.0922L132.823 60.7132ZM132.199 61.9526C131.975 62.3353 131.721 62.6902 131.437 63.0178L132.193 63.6729C132.518 63.2978 132.808 62.8925 133.062 62.4574L132.199 61.9526ZM129.392 64.6493C129.016 64.8555 128.612 65.0398 128.18 65.2018L128.531 66.1382C129.005 65.9604 129.453 65.7566 129.873 65.526L129.392 64.6493ZM127.909 65.8936L128.422 66.9211L129.317 66.4739L128.803 65.4464L127.909 65.8936ZM129.45 68.9761L130.477 71.0311L131.372 70.5839L130.344 68.5289L129.45 68.9761ZM131.505 73.0861L132.532 75.1411L133.427 74.6939L132.399 72.6389L131.505 73.0861ZM133.56 77.1961L134.074 78.2236L134.968 77.7764L134.454 76.7489L133.56 77.1961ZM134.521 77.5H133.57V78.5H134.521V77.5ZM131.669 77.5H129.768V78.5H131.669V77.5ZM127.866 77.5H126.916V78.5H127.866V77.5ZM127.367 77.7849L126.91 76.8249L126.007 77.2551L126.464 78.2151L127.367 77.7849ZM125.995 74.9049L125.08 72.9849L124.177 73.4151L125.092 75.3351L125.995 74.9049ZM124.165 71.0649L123.25 69.1449L122.347 69.5751L123.262 71.4951L124.165 71.0649ZM122.335 67.2249L121.877 66.2649L120.974 66.6951L121.432 67.6551L122.335 67.2249ZM121.426 65.98H120.2V66.98H121.426V65.98ZM117.747 65.98H116.521V66.98H117.747V65.98ZM116.021 66.48V67.44H117.021V66.48H116.021ZM116.021 69.36V71.28H117.021V69.36H116.021ZM116.021 73.2V75.12H117.021V73.2H116.021ZM116.021 77.04V78H117.021V77.04H116.021ZM123.721 60.22H122.821V61.22H123.721V60.22ZM121.021 60.22H119.221V61.22H121.021V60.22ZM117.421 60.22H116.521V61.22H117.421V60.22ZM117.021 60.72V59.6962H116.021V60.72H117.021ZM117.021 57.6487V55.6012H116.021V57.6487H117.021ZM117.021 53.5537V52.53H116.021V53.5537H117.021ZM116.521 53.03H117.421V52.03H116.521V53.03ZM119.221 53.03H121.021V52.03H119.221V53.03ZM122.821 53.03H123.721V52.03H122.821V53.03ZM123.721 53.03C123.927 53.03 124.12 53.0421 124.3 53.0655L124.429 52.0738C124.202 52.0443 123.966 52.03 123.721 52.03V53.03ZM125.341 53.3927C125.496 53.4803 125.636 53.5836 125.762 53.703L126.45 52.977C126.264 52.801 126.058 52.6495 125.834 52.5225L125.341 53.3927ZM125.782 53.721C125.911 53.8304 126.021 53.954 126.114 54.0924L126.944 53.5341C126.799 53.3193 126.628 53.1273 126.43 52.959L125.782 53.721ZM126.468 55.0718C126.493 55.2449 126.506 55.4324 126.506 55.635H127.506C127.506 55.3896 127.49 55.1538 127.457 54.9282L126.468 55.0718ZM126.506 55.635V56.13H127.506V55.635H126.506ZM126.506 57.12V57.615H127.506V57.12H126.506ZM126.506 57.615C126.506 57.82 126.492 58.0105 126.467 58.1872L127.456 58.3317C127.49 58.1024 127.506 57.8634 127.506 57.615H126.506ZM126.107 59.192C126.013 59.3361 125.901 59.4663 125.771 59.5834L126.44 60.3266C126.634 60.1525 126.802 59.9566 126.944 59.7397L126.107 59.192ZM125.772 59.5824C125.646 59.6958 125.504 59.7945 125.347 59.8782L125.816 60.7613C126.042 60.6409 126.251 60.4963 126.439 60.3276L125.772 59.5824ZM124.3 60.1868C124.119 60.2087 123.927 60.22 123.721 60.22V61.22C123.963 61.22 124.196 61.2067 124.42 61.1795L124.3 60.1868ZM116.521 78V79H117.521V78H116.521ZM109.681 78H108.681V79H109.681V78ZM109.681 46.59V45.59H108.681V46.59H109.681ZM128.491 47.31L128.87 46.3848L128.87 46.3848L128.491 47.31ZM131.461 49.38L130.718 50.049L130.729 50.062L130.741 50.0746L131.461 49.38ZM132.631 62.205L131.775 61.6881L131.768 61.7001L132.631 62.205ZM128.356 65.67L128.005 64.7337L126.965 65.1237L127.461 66.1172L128.356 65.67ZM134.521 78V79H136.139L135.415 77.5528L134.521 78ZM126.916 78L126.013 78.4302L126.285 79H126.916V78ZM121.426 66.48L122.329 66.0498L122.057 65.48H121.426V66.48ZM116.521 66.48V65.48H115.521V66.48H116.521ZM126.106 59.955L126.773 60.7002L126.775 60.6983L126.106 59.955ZM126.106 53.34L125.418 54.066L125.438 54.0845L125.458 54.1019L126.106 53.34ZM116.521 52.53V51.53H115.521V52.53H116.521ZM116.521 60.72H115.521V61.72H116.521V60.72ZM116.521 77H115.666V79H116.521V77ZM113.956 77H112.246V79H113.956V77ZM110.536 77H109.681V79H110.536V77ZM110.681 78V77.0184H108.681V78H110.681ZM110.681 75.0553V73.0922H108.681V75.0553H110.681ZM110.681 71.1291V69.1659H108.681V71.1291H110.681ZM110.681 67.2028V65.2397H108.681V67.2028H110.681ZM110.681 63.2766V61.3134H108.681V63.2766H110.681ZM110.681 59.3503V57.3872H108.681V59.3503H110.681ZM110.681 55.4241V53.4609H108.681V55.4241H110.681ZM110.681 51.4978V49.5347H108.681V51.4978H110.681ZM110.681 47.5716V46.59H108.681V47.5716H110.681ZM109.681 47.59H110.612V45.59H109.681V47.59ZM112.474 47.59H114.336V45.59H112.474V47.59ZM116.197 47.59H118.059V45.59H116.197V47.59ZM119.921 47.59H121.783V45.59H119.921V47.59ZM123.645 47.59H124.576V45.59H123.645V47.59ZM124.576 47.59C124.891 47.59 125.197 47.6024 125.494 47.627L125.659 45.6338C125.304 45.6045 124.943 45.59 124.576 45.59V47.59ZM127.27 47.9441C127.56 48.0269 127.84 48.1239 128.111 48.2352L128.87 46.3848C128.529 46.2449 128.179 46.1237 127.82 46.021L127.27 47.9441ZM128.111 48.2352C128.366 48.3396 128.609 48.4545 128.842 48.5798L129.79 46.8189C129.494 46.6595 129.188 46.5149 128.87 46.3848L128.111 48.2352ZM130.151 49.4884C130.35 49.6632 130.538 49.85 130.718 50.049L132.204 48.711C131.974 48.4552 131.73 48.2141 131.474 47.9879L130.151 49.4884ZM130.741 50.0746C130.931 50.2706 131.109 50.4771 131.276 50.6943L132.861 49.4751C132.649 49.1988 132.422 48.9355 132.18 48.6854L130.741 50.0746ZM132.133 52.1012C132.251 52.3478 132.359 52.6052 132.457 52.8736L134.335 52.1864C134.216 51.8615 134.084 51.5466 133.939 51.2418L132.133 52.1012ZM132.457 52.8736C132.563 53.1639 132.656 53.4637 132.735 53.7732L134.672 53.2787C134.577 52.9057 134.465 52.5415 134.335 52.1864L132.457 52.8736ZM133.036 55.6568C133.059 55.9711 133.071 56.2937 133.071 56.625H135.071C135.071 56.2464 135.057 55.8744 135.03 55.509L133.036 55.6568ZM133.071 56.625C133.071 57.09 133.046 57.538 132.998 57.9693L134.985 58.1931C135.042 57.6834 135.071 57.1606 135.071 56.625H133.071ZM132.36 60.5237C132.194 60.9289 131.999 61.3169 131.775 61.6881L133.487 62.7219C133.765 62.2618 134.006 61.7816 134.211 61.2817L132.36 60.5237ZM131.768 61.7001C131.559 62.0567 131.323 62.3864 131.06 62.6902L132.571 64.0004C132.917 63.6016 133.224 63.171 133.494 62.7099L131.768 61.7001ZM129.151 64.211C128.798 64.4049 128.416 64.5794 128.005 64.7337L128.707 66.6063C129.202 66.4208 129.671 66.2071 130.113 65.9644L129.151 64.211ZM127.461 66.1172L127.975 67.1447L129.764 66.2503L129.25 65.2228L127.461 66.1172ZM129.003 69.1997L130.03 71.2547L131.819 70.3603L130.791 68.3053L129.003 69.1997ZM131.058 73.3097L132.085 75.3647L133.874 74.4703L132.846 72.4153L131.058 73.3097ZM133.113 77.4197L133.626 78.4472L135.415 77.5528L134.901 76.5253L133.113 77.4197ZM134.521 77H133.57V79H134.521V77ZM131.669 77H129.768V79H131.669V77ZM127.866 77H126.916V79H127.866V77ZM127.819 77.5698L127.361 76.6098L125.556 77.4702L126.013 78.4302L127.819 77.5698ZM126.446 74.6898L125.531 72.7698L123.726 73.6302L124.641 75.5502L126.446 74.6898ZM124.616 70.8498L123.701 68.9298L121.896 69.7902L122.811 71.7102L124.616 70.8498ZM122.786 67.0098L122.329 66.0498L120.523 66.9102L120.981 67.8702L122.786 67.0098ZM121.426 65.48H120.2V67.48H121.426V65.48ZM117.747 65.48H116.521V67.48H117.747V65.48ZM115.521 66.48V67.44H117.521V66.48H115.521ZM115.521 69.36V71.28H117.521V69.36H115.521ZM115.521 73.2V75.12H117.521V73.2H115.521ZM115.521 77.04V78H117.521V77.04H115.521ZM123.721 59.72H122.821V61.72H123.721V59.72ZM121.021 59.72H119.221V61.72H121.021V59.72ZM117.421 59.72H116.521V61.72H117.421V59.72ZM117.521 60.72V59.6962H115.521V60.72H117.521ZM117.521 57.6487V55.6012H115.521V57.6487H117.521ZM117.521 53.5537V52.53H115.521V53.5537H117.521ZM116.521 53.53H117.421V51.53H116.521V53.53ZM119.221 53.53H121.021V51.53H119.221V53.53ZM122.821 53.53H123.721V51.53H122.821V53.53ZM123.721 53.53C123.908 53.53 124.079 53.5409 124.236 53.5613L124.493 51.578C124.243 51.5455 123.985 51.53 123.721 51.53V53.53ZM125.095 53.8278C125.215 53.8957 125.322 53.9749 125.418 54.066L126.794 52.614C126.578 52.4097 126.34 52.234 126.08 52.0873L125.095 53.8278ZM125.458 54.1019C125.552 54.182 125.632 54.2713 125.7 54.3716L127.359 53.255C127.189 53.0019 126.986 52.7757 126.753 52.5781L125.458 54.1019ZM125.973 55.1436C125.994 55.2905 126.006 55.4538 126.006 55.635H128.006C128.006 55.3682 127.989 55.1082 127.952 54.8564L125.973 55.1436ZM126.006 55.635V56.13H128.006V55.635H126.006ZM126.006 57.12V57.615H128.006V57.12H126.006ZM126.006 57.615C126.006 57.7983 125.994 57.9645 125.972 58.115L127.951 58.4039C127.988 58.1484 128.006 57.885 128.006 57.615H126.006ZM125.689 58.9181C125.619 59.0258 125.535 59.1233 125.437 59.2117L126.775 60.6983C127 60.4955 127.197 60.2669 127.362 60.0136L125.689 58.9181ZM125.439 59.2098C125.343 59.2956 125.235 59.3713 125.112 59.4366L126.05 61.2029C126.312 61.064 126.553 60.8966 126.773 60.7002L125.439 59.2098ZM124.239 59.6904C124.081 59.7097 123.908 59.72 123.721 59.72V61.72C123.981 61.72 124.235 61.7057 124.481 61.6758L124.239 59.6904Z" fill="#DADADA"></path> </svg> 