<?xml version="1.0" encoding="UTF-8"?> <svg xmlns="http://www.w3.org/2000/svg" width="79" height="89" viewBox="0 0 79 89" fill="none"> <path d="M1.465 43H0.965V43.5H1.465V43ZM1.465 11.59V11.09H0.965V11.59H1.465ZM8.305 11.59H8.805V11.09H8.305V11.59ZM8.305 36.925H7.805V37.425H8.305V36.925ZM20.275 36.925H20.775V36.425H20.275V36.925ZM20.275 43V43.5H20.775V43H20.275ZM1.965 43V42.0184H0.965V43H1.965ZM1.965 40.0553V38.0922H0.965V40.0553H1.965ZM1.965 36.1291V34.1659H0.965V36.1291H1.965ZM1.965 32.2028V30.2397H0.965V32.2028H1.965ZM1.965 28.2766V26.3134H0.965V28.2766H1.965ZM1.965 24.3503V22.3872H0.965V24.3503H1.965ZM1.965 20.4241V18.4609H0.965V20.4241H1.965ZM1.965 16.4978V14.5347H0.965V16.4978H1.965ZM1.965 12.5716V11.59H0.965V12.5716H1.965ZM1.465 12.09H2.32V11.09H1.465V12.09ZM4.03 12.09H5.74V11.09H4.03V12.09ZM7.45 12.09H8.305V11.09H7.45V12.09ZM7.805 11.59V12.6456H8.805V11.59H7.805ZM7.805 14.7569V16.8681H8.805V14.7569H7.805ZM7.805 18.9794V21.0906H8.805V18.9794H7.805ZM7.805 23.2019V25.3131H8.805V23.2019H7.805ZM7.805 27.4244V29.5356H8.805V27.4244H7.805ZM7.805 31.6469V33.7581H8.805V31.6469H7.805ZM7.805 35.8694V36.925H8.805V35.8694H7.805ZM8.305 37.425H9.3025V36.425H8.305V37.425ZM11.2975 37.425H13.2925V36.425H11.2975V37.425ZM15.2875 37.425H17.2825V36.425H15.2875V37.425ZM19.2775 37.425H20.275V36.425H19.2775V37.425ZM19.775 36.925V37.6844H20.775V36.925H19.775ZM19.775 39.2031V40.7219H20.775V39.2031H19.775ZM19.775 42.2406V43H20.775V42.2406H19.775ZM20.275 42.5H19.3345V43.5H20.275V42.5ZM17.4535 42.5H15.5725V43.5H17.4535V42.5ZM13.6915 42.5H11.8105V43.5H13.6915V42.5ZM9.9295 42.5H8.0485V43.5H9.9295V42.5ZM6.1675 42.5H4.2865V43.5H6.1675V42.5ZM2.4055 42.5H1.465V43.5H2.4055V42.5ZM1.465 43H0.465V44H1.465V43ZM1.465 11.59V10.59H0.465V11.59H1.465ZM8.305 11.59H9.305V10.59H8.305V11.59ZM8.305 36.925H7.305V37.925H8.305V36.925ZM20.275 36.925H21.275V35.925H20.275V36.925ZM20.275 43V44H21.275V43H20.275ZM2.465 43V42.0184H0.465V43H2.465ZM2.465 40.0553V38.0922H0.465V40.0553H2.465ZM2.465 36.1291V34.1659H0.465V36.1291H2.465ZM2.465 32.2028V30.2397H0.465V32.2028H2.465ZM2.465 28.2766V26.3134H0.465V28.2766H2.465ZM2.465 24.3503V22.3872H0.465V24.3503H2.465ZM2.465 20.4241V18.4609H0.465V20.4241H2.465ZM2.465 16.4978V14.5347H0.465V16.4978H2.465ZM2.465 12.5716V11.59H0.465V12.5716H2.465ZM1.465 12.59H2.32V10.59H1.465V12.59ZM4.03 12.59H5.74V10.59H4.03V12.59ZM7.45 12.59H8.305V10.59H7.45V12.59ZM7.305 11.59V12.6456H9.305V11.59H7.305ZM7.305 14.7569V16.8681H9.305V14.7569H7.305ZM7.305 18.9794V21.0906H9.305V18.9794H7.305ZM7.305 23.2019V25.3131H9.305V23.2019H7.305ZM7.305 27.4244V29.5356H9.305V27.4244H7.305ZM7.305 31.6469V33.7581H9.305V31.6469H7.305ZM7.305 35.8694V36.925H9.305V35.8694H7.305ZM8.305 37.925H9.3025V35.925H8.305V37.925ZM11.2975 37.925H13.2925V35.925H11.2975V37.925ZM15.2875 37.925H17.2825V35.925H15.2875V37.925ZM19.2775 37.925H20.275V35.925H19.2775V37.925ZM19.275 36.925V37.6844H21.275V36.925H19.275ZM19.275 39.2031V40.7219H21.275V39.2031H19.275ZM19.275 42.2406V43H21.275V42.2406H19.275ZM20.275 42H19.3345V44H20.275V42ZM17.4535 42H15.5725V44H17.4535V42ZM13.6915 42H11.8105V44H13.6915V42ZM9.9295 42H8.0485V44H9.9295V42ZM6.1675 42H4.2865V44H6.1675V42ZM2.4055 42H1.465V44H2.4055V42ZM30.4555 42.505L30.2685 42.9687L30.2685 42.9687L30.4555 42.505ZM26.0905 39.445L25.7132 39.7731L25.7168 39.7772L26.0905 39.445ZM23.3005 34.36L22.8248 34.5139L22.8255 34.516L23.3005 34.36ZM23.3005 20.275L23.7756 20.431L23.7763 20.4289L23.3005 20.275ZM26.0905 15.19L26.4643 15.5222L26.4678 15.5181L26.0905 15.19ZM30.4555 12.085L30.2685 11.6213L30.2685 11.6213L30.4555 12.085ZM41.7955 12.085L41.6085 12.5487L41.6085 12.5487L41.7955 12.085ZM46.1605 15.19L45.7832 15.5181L45.7868 15.5222L46.1605 15.19ZM48.9505 20.275L48.4748 20.4289L48.4755 20.431L48.9505 20.275ZM48.9505 34.36L49.4256 34.516L49.4263 34.5139L48.9505 34.36ZM46.1605 39.445L46.5343 39.7772L46.5379 39.7731L46.1605 39.445ZM41.7955 42.505L41.6085 42.0413L41.6085 42.0413L41.7955 42.505ZM40.9405 35.44L40.5627 35.1125L40.5585 35.1174L40.9405 35.44ZM40.9405 19.15L40.5585 19.4726L40.5627 19.4775L40.9405 19.15ZM31.2655 19.15L30.8877 18.8225L30.8835 18.8274L31.2655 19.15ZM31.2655 35.44L30.8835 35.7626L30.8877 35.7675L31.2655 35.44ZM28.3405 7.945L27.9679 8.2784L27.9772 8.28874L27.987 8.29855L28.3405 7.945ZM28.3405 2.815L27.9776 2.47112L27.977 2.47169L28.3405 2.815ZM33.9655 2.815L33.5929 3.14839L33.6022 3.15874L33.612 3.16855L33.9655 2.815ZM33.9655 7.945L33.6026 7.60113L33.602 7.60169L33.9655 7.945ZM38.2405 7.945L37.8679 8.2784L37.8772 8.28874L37.887 8.29855L38.2405 7.945ZM38.2405 2.815L37.8776 2.47112L37.877 2.47169L38.2405 2.815ZM43.8655 2.815L43.4929 3.14839L43.5022 3.15874L43.512 3.16855L43.8655 2.815ZM43.8655 7.945L43.5026 7.60113L43.502 7.60169L43.8655 7.945ZM36.1255 43.04C35.6458 43.04 35.1768 43.021 34.7184 42.983L34.6359 43.9796C35.1227 44.0199 35.6193 44.04 36.1255 44.04V43.04ZM31.963 42.4924C31.5107 42.3644 31.0706 42.214 30.6426 42.0413L30.2685 42.9687C30.7303 43.155 31.2044 43.317 31.6907 43.4546L31.963 42.4924ZM30.6426 42.0413C30.238 41.8781 29.8489 41.6958 29.4752 41.4947L29.0013 42.3753C29.4082 42.5942 29.8306 42.792 30.2685 42.9687L30.6426 42.0413ZM27.3725 40.0237C27.0548 39.7401 26.752 39.4366 26.4643 39.1128L25.7168 39.7772C26.0298 40.1293 26.3598 40.4602 26.7067 40.7698L27.3725 40.0237ZM26.4678 39.1169C26.165 38.7686 25.8797 38.399 25.6119 38.0077L24.7866 38.5725C25.0757 38.9948 25.3845 39.395 25.7132 39.7731L26.4678 39.1169ZM24.2721 35.5324C24.0924 35.1074 23.9269 34.6647 23.7756 34.204L22.8255 34.516C22.985 35.0016 23.1601 35.4703 23.351 35.9218L24.2721 35.5324ZM23.7763 34.2061C23.6883 33.9342 23.6063 33.6562 23.5302 33.3722L22.5642 33.6308C22.6446 33.9309 22.7315 34.2253 22.8248 34.5139L23.7763 34.2061ZM23.1582 31.6675C23.0619 31.1088 22.9855 30.5299 22.9291 29.9307L21.9335 30.0244C21.9922 30.6477 22.0719 31.252 22.1728 31.8374L23.1582 31.6675ZM22.8231 28.1761C22.8147 27.8866 22.8105 27.5929 22.8105 27.295H21.8105C21.8105 27.6022 21.8148 27.9055 21.8235 28.2048L22.8231 28.1761ZM22.8105 27.295C22.8105 26.9988 22.8147 26.7069 22.8229 26.4193L21.8233 26.3907C21.8148 26.6881 21.8105 26.9895 21.8105 27.295H22.8105ZM22.9281 24.6758C22.9842 24.0794 23.0603 23.5043 23.1562 22.9503L22.1709 22.7797C22.0703 23.3607 21.9909 23.9615 21.9325 24.5821L22.9281 24.6758ZM23.5284 21.258C23.6048 20.9758 23.6872 20.7002 23.7756 20.431L22.8255 20.119C22.7314 20.4054 22.644 20.698 22.5632 20.9967L23.5284 21.258ZM23.7763 20.4289C23.926 19.966 24.0897 19.5224 24.2672 19.0979L23.3447 18.7121C23.1559 19.1635 22.9827 19.6332 22.8248 20.1211L23.7763 20.4289ZM25.6028 16.623C25.8723 16.232 26.1594 15.8651 26.4643 15.5222L25.7168 14.8578C25.3839 15.2324 25.0714 15.6318 24.7793 16.0557L25.6028 16.623ZM26.4678 15.5181C26.7542 15.1888 27.0553 14.8805 27.3711 14.5929L26.6979 13.8535C26.3528 14.1677 26.0246 14.5039 25.7132 14.8619L26.4678 15.5181ZM29.4718 13.0999C29.8466 12.8962 30.2368 12.7124 30.6426 12.5487L30.2685 11.6213C29.8281 11.799 29.4033 11.999 28.9943 12.2212L29.4718 13.0999ZM30.6426 12.5487C31.0706 12.376 31.5107 12.2256 31.963 12.0976L31.6907 11.1354C31.2044 11.273 30.7303 11.435 30.2685 11.6213L30.6426 12.5487ZM34.7184 11.607C35.1768 11.569 35.6458 11.55 36.1255 11.55V10.55C35.6193 10.55 35.1227 10.5701 34.6359 10.6104L34.7184 11.607ZM36.1255 11.55C36.6053 11.55 37.0743 11.569 37.5327 11.607L37.6152 10.6104C37.1284 10.5701 36.6318 10.55 36.1255 10.55V11.55ZM40.2881 12.0976C40.7404 12.2256 41.1805 12.376 41.6085 12.5487L41.9826 11.6213C41.5208 11.435 41.0467 11.273 40.5604 11.1354L40.2881 12.0976ZM41.6085 12.5487C42.0143 12.7124 42.4045 12.8962 42.7793 13.0999L43.2568 12.2212C42.8478 11.999 42.423 11.799 41.9826 11.6213L41.6085 12.5487ZM44.88 14.5929C45.1958 14.8805 45.4969 15.1888 45.7832 15.5181L46.5379 14.8619C46.2265 14.5039 45.8983 14.1677 45.5532 13.8535L44.88 14.5929ZM45.7868 15.5222C46.0917 15.8651 46.3788 16.232 46.6483 16.623L47.4718 16.0557C47.1797 15.6318 46.8672 15.2324 46.5343 14.8578L45.7868 15.5222ZM47.9839 19.0979C48.1614 19.5224 48.3251 19.966 48.4748 20.4289L49.4263 20.1211C49.2684 19.6332 49.0952 19.1635 48.9064 18.7121L47.9839 19.0979ZM48.4755 20.431C48.5639 20.7002 48.6463 20.9758 48.7227 21.258L49.6879 20.9967C49.6071 20.698 49.5196 20.4054 49.4256 20.119L48.4755 20.431ZM49.0949 22.9503C49.1908 23.5043 49.2669 24.0794 49.323 24.6758L50.3186 24.5821C50.2602 23.9615 50.1808 23.3607 50.0802 22.7797L49.0949 22.9503ZM49.4282 26.4193C49.4364 26.7069 49.4405 26.9988 49.4405 27.295H50.4405C50.4405 26.9895 50.4363 26.6881 50.4278 26.3907L49.4282 26.4193ZM49.4405 27.295C49.4405 27.5929 49.4364 27.8866 49.428 28.1761L50.4276 28.2048C50.4362 27.9055 50.4405 27.6022 50.4405 27.295H49.4405ZM49.322 29.9307C49.2656 30.5299 49.1892 31.1088 49.0929 31.6675L50.0783 31.8374C50.1792 31.252 50.2589 30.6477 50.3176 30.0244L49.322 29.9307ZM48.7209 33.3722C48.6448 33.6562 48.5628 33.9342 48.4748 34.2061L49.4263 34.5139C49.5196 34.2253 49.6065 33.9309 49.6868 33.6308L48.7209 33.3722ZM48.4755 34.204C48.3242 34.6647 48.1587 35.1074 47.979 35.5324L48.9001 35.9218C49.091 35.4703 49.2661 35.0016 49.4256 34.516L48.4755 34.204ZM46.6392 38.0077C46.3714 38.399 46.0861 38.7686 45.7832 39.1169L46.5379 39.7731C46.8666 39.395 47.1754 38.9948 47.4645 38.5725L46.6392 38.0077ZM45.7868 39.1128C45.4991 39.4366 45.1963 39.7401 44.8786 40.0237L45.5444 40.7698C45.8913 40.4602 46.2213 40.1293 46.5343 39.7772L45.7868 39.1128ZM42.7759 41.4947C42.4022 41.6958 42.0131 41.8781 41.6085 42.0413L41.9826 42.9687C42.4205 42.792 42.8429 42.5942 43.2498 42.3753L42.7759 41.4947ZM41.6085 42.0413C41.1805 42.214 40.7404 42.3644 40.2881 42.4924L40.5604 43.4546C41.0467 43.317 41.5208 43.155 41.9826 42.9687L41.6085 42.0413ZM37.5327 42.983C37.0743 43.021 36.6053 43.04 36.1255 43.04V44.04C36.6318 44.04 37.1284 44.0199 37.6152 43.9796L37.5327 42.983ZM36.1255 36.965C35.6751 36.965 35.2512 36.9313 34.8529 36.865L34.6888 37.8515C35.1462 37.9275 35.6253 37.965 36.1255 37.965V36.965ZM32.5578 35.9477C32.2269 35.712 31.9221 35.4341 31.6434 35.1125L30.8877 35.7675C31.2165 36.1468 31.5798 36.4789 31.9778 36.7622L32.5578 35.9477ZM31.6476 35.1174C31.4974 34.9396 31.3576 34.7501 31.2283 34.5488L30.3869 35.0892C30.5392 35.3263 30.7047 35.5508 30.8835 35.7626L31.6476 35.1174ZM30.6029 33.2646C30.4477 32.8332 30.3245 32.3636 30.2346 31.8545L29.2499 32.0284C29.3486 32.5876 29.4855 33.1129 29.6619 33.6031L30.6029 33.2646ZM30.0737 30.3824C30.0616 30.1401 30.0555 29.891 30.0555 29.635H29.0555C29.0555 29.9067 29.062 30.1724 29.0749 30.4321L30.0737 30.3824ZM30.0555 29.635V28.465H29.0555V29.635H30.0555ZM30.0555 26.125V24.955H29.0555V26.125H30.0555ZM30.0555 24.955C30.0555 24.699 30.0616 24.4499 30.0737 24.2076L29.0749 24.1579C29.062 24.4176 29.0555 24.6833 29.0555 24.955H30.0555ZM30.2346 22.7355C30.3245 22.2264 30.4477 21.7568 30.6029 21.3254L29.6619 20.9869C29.4855 21.4771 29.3486 22.0024 29.2499 22.5616L30.2346 22.7355ZM31.2283 20.0412C31.3576 19.8399 31.4974 19.6504 31.6476 19.4726L30.8835 18.8274C30.7047 19.0392 30.5392 19.2637 30.3869 19.5008L31.2283 20.0412ZM31.6434 19.4775C31.9221 19.1559 32.2269 18.878 32.5578 18.6423L31.9778 17.8278C31.5798 18.1111 31.2165 18.4432 30.8877 18.8225L31.6434 19.4775ZM34.8529 17.725C35.2512 17.6587 35.6751 17.625 36.1255 17.625V16.625C35.6253 16.625 35.1462 16.6624 34.6888 16.7385L34.8529 17.725ZM36.1255 17.625C36.5735 17.625 36.9945 17.6584 37.3892 17.7239L37.5529 16.7374C37.0991 16.662 36.6231 16.625 36.1255 16.625V17.625ZM39.6615 18.6372C39.9877 18.8727 40.2867 19.1507 40.5585 19.4726L41.3226 18.8274C41 18.4455 40.6415 18.1113 40.2469 17.8264L39.6615 18.6372ZM40.5627 19.4775C40.716 19.6543 40.8586 19.8426 40.9906 20.0424L41.8251 19.4914C41.6696 19.2559 41.5007 19.0329 41.3184 18.8225L40.5627 19.4775ZM41.6318 21.3221C41.7915 21.7532 41.9183 22.2227 42.0109 22.7317L42.9947 22.5528C42.8928 21.9923 42.7515 21.4659 42.5695 20.9747L41.6318 21.3221ZM42.1768 24.206C42.1893 24.4488 42.1955 24.6985 42.1955 24.955H43.1955C43.1955 24.6822 43.1889 24.4155 43.1755 24.1548L42.1768 24.206ZM42.1955 24.955V26.125H43.1955V24.955H42.1955ZM42.1955 28.465V29.635H43.1955V28.465H42.1955ZM42.1955 29.635C42.1955 29.8915 42.1893 30.1412 42.1768 30.384L43.1755 30.4352C43.1889 30.1745 43.1955 29.9078 43.1955 29.635H42.1955ZM42.0109 31.8583C41.9183 32.3673 41.7915 32.8368 41.6318 33.2679L42.5695 33.6153C42.7515 33.1241 42.8928 32.5977 42.9947 32.0372L42.0109 31.8583ZM40.9906 34.5476C40.8586 34.7474 40.716 34.9357 40.5627 35.1125L41.3184 35.7675C41.5007 35.5571 41.6696 35.3341 41.8251 35.0986L40.9906 34.5476ZM40.5585 35.1174C40.2867 35.4393 39.9877 35.7173 39.6615 35.9528L40.2469 36.7636C40.6415 36.4787 41 36.1445 41.3226 35.7626L40.5585 35.1174ZM37.3892 36.8661C36.9945 36.9316 36.5735 36.965 36.1255 36.965V37.965C36.6231 37.965 37.0991 37.928 37.5529 37.8526L37.3892 36.8661ZM31.1755 8.255C30.9212 8.255 30.6847 8.24492 30.4658 8.22523L30.3762 9.22121C30.6285 9.24389 30.8951 9.255 31.1755 9.255V8.255ZM29.1733 7.91736C28.9724 7.82284 28.8154 7.71275 28.6941 7.59144L27.987 8.29855C28.2009 8.51245 28.4571 8.68555 28.7475 8.8222L29.1733 7.91736ZM28.7132 7.6116C28.6057 7.49146 28.5129 7.36749 28.4341 7.23975L27.5831 7.76479C27.6943 7.94509 27.8229 8.11626 27.9679 8.2784L28.7132 7.6116ZM28.1139 6.3875C28.0886 6.23913 28.0755 6.08345 28.0755 5.92H27.0755C27.0755 6.13672 27.0928 6.34875 27.1281 6.55561L28.1139 6.3875ZM28.0755 5.92V5.63875H27.0755V5.92H28.0755ZM28.0755 5.07625V4.795H27.0755V5.07625H28.0755ZM28.0755 4.795C28.0755 4.63368 28.0882 4.48112 28.1127 4.33679L27.1268 4.16938C27.0924 4.37245 27.0755 4.58116 27.0755 4.795H28.0755ZM28.4272 3.51167C28.5052 3.38929 28.5972 3.27148 28.7041 3.15831L27.977 2.47169C27.8286 2.62881 27.6973 2.79632 27.5839 2.97429L28.4272 3.51167ZM28.7035 3.15887C28.8247 3.03098 28.9798 2.91609 29.1763 2.81769L28.7284 1.92358C28.4407 2.0677 28.188 2.24905 27.9776 2.47112L28.7035 3.15887ZM30.4639 2.49172C30.6831 2.47075 30.9202 2.46 31.1755 2.46V1.46C30.8925 1.46 30.6234 1.47191 30.3687 1.49627L30.4639 2.49172ZM31.1755 2.46C31.428 2.46 31.6619 2.47051 31.8778 2.491L31.9723 1.49547C31.7212 1.47164 31.4554 1.46 31.1755 1.46V2.46ZM33.1421 2.81204C33.3335 2.90965 33.4808 3.02311 33.5929 3.14839L34.3382 2.4816C34.1337 2.25307 33.8835 2.06762 33.5965 1.92122L33.1421 2.81204ZM33.612 3.16855C33.7243 3.28085 33.8208 3.39737 33.9026 3.51792L34.7301 2.9565C34.611 2.78093 34.4736 2.61597 34.3191 2.46144L33.612 3.16855ZM34.2358 4.33742C34.262 4.48138 34.2755 4.6337 34.2755 4.795H35.2755C35.2755 4.57751 35.2573 4.3652 35.2197 4.15867L34.2358 4.33742ZM34.2755 4.795V5.07625H35.2755V4.795H34.2755ZM34.2755 5.63875V5.92H35.2755V5.63875H34.2755ZM34.2755 5.92C34.2755 6.08335 34.2617 6.23875 34.2347 6.38676L35.2184 6.56615C35.2568 6.35589 35.2755 6.14032 35.2755 5.92H34.2755ZM33.8954 7.23346C33.8127 7.35937 33.7154 7.48198 33.6026 7.60113L34.3285 8.28887C34.4798 8.12915 34.6144 7.96032 34.7313 7.78223L33.8954 7.23346ZM33.602 7.60169C33.4901 7.72022 33.3411 7.82894 33.1451 7.92278L33.577 8.82472C33.8668 8.68594 34.1208 8.50883 34.3291 8.28831L33.602 7.60169ZM31.8758 8.22592C31.6602 8.24515 31.427 8.255 31.1755 8.255V9.255C31.4528 9.255 31.7159 9.24415 31.9646 9.22197L31.8758 8.22592ZM41.0755 8.255C40.8212 8.255 40.5847 8.24492 40.3658 8.22523L40.2762 9.22121C40.5285 9.24389 40.7951 9.255 41.0755 9.255V8.255ZM39.0733 7.91736C38.8724 7.82284 38.7154 7.71275 38.5941 7.59144L37.887 8.29855C38.1009 8.51245 38.3571 8.68555 38.6475 8.8222L39.0733 7.91736ZM38.6132 7.6116C38.5057 7.49146 38.4129 7.36749 38.3341 7.23975L37.4831 7.76479C37.5943 7.94509 37.7229 8.11626 37.8679 8.2784L38.6132 7.6116ZM38.0139 6.3875C37.9886 6.23913 37.9755 6.08345 37.9755 5.92H36.9755C36.9755 6.13672 36.9928 6.34875 37.0281 6.55561L38.0139 6.3875ZM37.9755 5.92V5.63875H36.9755V5.92H37.9755ZM37.9755 5.07625V4.795H36.9755V5.07625H37.9755ZM37.9755 4.795C37.9755 4.63368 37.9882 4.48112 38.0127 4.33679L37.0268 4.16938C36.9924 4.37245 36.9755 4.58116 36.9755 4.795H37.9755ZM38.3272 3.51167C38.4052 3.38929 38.4972 3.27148 38.6041 3.15831L37.877 2.47169C37.7286 2.62881 37.5973 2.79632 37.4839 2.97429L38.3272 3.51167ZM38.6035 3.15887C38.7247 3.03098 38.8798 2.91609 39.0763 2.81769L38.6284 1.92358C38.3407 2.0677 38.088 2.24905 37.8776 2.47112L38.6035 3.15887ZM40.3639 2.49172C40.5831 2.47075 40.8202 2.46 41.0755 2.46V1.46C40.7925 1.46 40.5234 1.47191 40.2687 1.49627L40.3639 2.49172ZM41.0755 2.46C41.328 2.46 41.5619 2.47051 41.7778 2.491L41.8723 1.49547C41.6212 1.47164 41.3554 1.46 41.0755 1.46V2.46ZM43.0421 2.81204C43.2335 2.90965 43.3808 3.02311 43.4929 3.14839L44.2382 2.4816C44.0337 2.25307 43.7835 2.06762 43.4965 1.92122L43.0421 2.81204ZM43.512 3.16855C43.6243 3.28085 43.7208 3.39737 43.8026 3.51792L44.6301 2.9565C44.511 2.78093 44.3736 2.61597 44.2191 2.46144L43.512 3.16855ZM44.1358 4.33742C44.162 4.48138 44.1755 4.6337 44.1755 4.795H45.1755C45.1755 4.57751 45.1573 4.3652 45.1197 4.15867L44.1358 4.33742ZM44.1755 4.795V5.07625H45.1755V4.795H44.1755ZM44.1755 5.63875V5.92H45.1755V5.63875H44.1755ZM44.1755 5.92C44.1755 6.08335 44.1617 6.23875 44.1347 6.38676L45.1184 6.56615C45.1568 6.35589 45.1755 6.14032 45.1755 5.92H44.1755ZM43.7954 7.23346C43.7127 7.35937 43.6154 7.48198 43.5026 7.60113L44.2285 8.28887C44.3798 8.12915 44.5144 7.96032 44.6314 7.78223L43.7954 7.23346ZM43.502 7.60169C43.3901 7.72022 43.2411 7.82894 43.0451 7.92278L43.477 8.82472C43.7668 8.68594 44.0208 8.50883 44.2291 8.28831L43.502 7.60169ZM41.7758 8.22592C41.5602 8.24515 41.327 8.255 41.0755 8.255V9.255C41.3528 9.255 41.6159 9.24415 41.8646 9.22197L41.7758 8.22592ZM30.4555 42.505L30.0814 43.4324L30.0814 43.4324L30.4555 42.505ZM26.0905 39.445L25.3359 40.1012L25.3431 40.1094L26.0905 39.445ZM23.3005 34.36L22.3491 34.6678L22.3505 34.672L23.3005 34.36ZM23.3005 20.275L24.2506 20.587L24.252 20.5828L23.3005 20.275ZM26.0905 15.19L26.838 15.8544L26.8452 15.8462L26.0905 15.19ZM30.4555 12.085L30.0814 11.1576L30.0814 11.1576L30.4555 12.085ZM41.7955 12.085L41.4214 13.0123L41.4214 13.0123L41.7955 12.085ZM46.1605 15.19L45.4059 15.8462L45.4131 15.8544L46.1605 15.19ZM48.9505 20.275L47.9991 20.5828L48.0005 20.587L48.9505 20.275ZM48.9505 34.36L49.9006 34.672L49.902 34.6678L48.9505 34.36ZM46.1605 39.445L46.908 40.1094L46.9152 40.1012L46.1605 39.445ZM41.7955 42.505L41.4214 41.5776L41.4214 41.5776L41.7955 42.505ZM40.9405 35.44L40.1848 34.785L40.1765 34.7948L40.9405 35.44ZM40.9405 19.15L40.1765 19.7952L40.1849 19.8049L40.9405 19.15ZM31.2655 19.15L30.5098 18.495L30.5015 18.5048L31.2655 19.15ZM31.2655 35.44L30.5015 36.0852L30.5099 36.0949L31.2655 35.44ZM28.3405 7.945L27.5953 8.61179L27.6138 8.63248L27.6334 8.6521L28.3405 7.945ZM28.3405 2.815L27.6146 2.12725L27.6135 2.12837L28.3405 2.815ZM33.9655 2.815L33.2203 3.48179L33.2388 3.50248L33.2584 3.5221L33.9655 2.815ZM33.9655 7.945L33.2396 7.25725L33.2385 7.25837L33.9655 7.945ZM38.2405 7.945L37.4953 8.61179L37.5138 8.63248L37.5334 8.6521L38.2405 7.945ZM38.2405 2.815L37.5146 2.12725L37.5135 2.12837L38.2405 2.815ZM43.8655 2.815L43.1203 3.48179L43.1388 3.50248L43.1584 3.5221L43.8655 2.815ZM43.8655 7.945L43.1396 7.25725L43.1385 7.25837L43.8655 7.945ZM36.1255 42.54C35.659 42.54 35.2038 42.5215 34.7597 42.4847L34.5946 44.4779C35.0957 44.5194 35.6061 44.54 36.1255 44.54V42.54ZM32.0992 42.0113C31.6639 41.8881 31.2408 41.7435 30.8297 41.5776L30.0814 43.4324C30.5601 43.6255 31.0513 43.7933 31.5545 43.9357L32.0992 42.0113ZM30.8297 41.5776C30.4417 41.4211 30.0693 41.2466 29.7121 41.0544L28.7644 42.8156C29.1878 43.0435 29.6269 43.249 30.0814 43.4324L30.8297 41.5776ZM27.7054 39.6506C27.4023 39.3801 27.1131 39.0902 26.838 38.7806L25.3431 40.1094C25.6687 40.4756 26.0123 40.8202 26.3738 41.1428L27.7054 39.6506ZM26.8452 38.7888C26.5553 38.4554 26.2817 38.101 26.0245 37.7253L24.374 38.8548C24.6737 39.2927 24.9943 39.7082 25.3359 40.1012L26.8452 38.7888ZM24.7326 35.3377C24.5585 34.926 24.3978 34.4962 24.2506 34.048L22.3505 34.672C22.514 35.1701 22.6939 35.6517 22.8905 36.1165L24.7326 35.3377ZM24.252 34.0522C24.1667 33.7886 24.0871 33.5189 24.0132 33.2428L22.0813 33.7601C22.1638 34.0683 22.253 34.3709 22.3491 34.6678L24.252 34.0522ZM23.651 31.5826C23.557 31.0372 23.4822 30.471 23.4269 29.8839L21.4357 30.0712C21.4955 30.7065 21.5768 31.3236 21.68 31.9223L23.651 31.5826ZM23.3228 28.1617C23.3147 27.8771 23.3105 27.5882 23.3105 27.295H21.3105C21.3105 27.6069 21.3149 27.9149 21.3237 28.2192L23.3228 28.1617ZM23.3105 27.295C23.3105 27.0034 23.3146 26.7163 23.3227 26.4337L21.3235 26.3764C21.3149 26.6787 21.3105 26.9849 21.3105 27.295H23.3105ZM23.4259 24.7226C23.4809 24.1383 23.5553 23.5761 23.6489 23.0356L21.6782 22.6944C21.5753 23.2889 21.4942 23.9026 21.4347 24.5353L23.4259 24.7226ZM24.0111 21.3886C24.0852 21.1148 24.1651 20.8476 24.2506 20.587L22.3505 19.963C22.2536 20.2581 22.1636 20.5591 22.0805 20.8661L24.0111 21.3886ZM24.252 20.5828C24.3977 20.1324 24.5566 19.7019 24.7285 19.2908L22.8834 18.5192C22.689 18.984 22.511 19.4668 22.3491 19.9672L24.252 20.5828ZM26.0145 16.9067C26.2727 16.5321 26.5472 16.1814 26.838 15.8544L25.3431 14.5256C24.9961 14.9161 24.671 15.3317 24.3676 15.772L26.0145 16.9067ZM26.8452 15.8462C27.119 15.5313 27.4065 15.2369 27.7077 14.9627L26.3613 13.4838C26.0015 13.8113 25.6598 14.1614 25.3359 14.5338L26.8452 15.8462ZM29.7105 13.5392C30.0682 13.3448 30.4412 13.1691 30.8297 13.0123L30.0814 11.1576C29.6237 11.3423 29.1817 11.5503 28.7555 11.7819L29.7105 13.5392ZM30.8297 13.0123C31.2408 12.8465 31.6639 12.7019 32.0992 12.5787L31.5545 10.6543C31.0513 10.7967 30.5601 10.9645 30.0814 11.1576L30.8297 13.0123ZM34.7597 12.1053C35.2038 12.0685 35.659 12.05 36.1255 12.05V10.05C35.6061 10.05 35.0957 10.0706 34.5946 10.1121L34.7597 12.1053ZM36.1255 12.05C36.5921 12.05 37.0473 12.0685 37.4914 12.1053L37.6565 10.1121C37.1554 10.0706 36.645 10.05 36.1255 10.05V12.05ZM40.1519 12.5787C40.5872 12.7019 41.0103 12.8465 41.4214 13.0123L42.1697 11.1576C41.691 10.9645 41.1998 10.7967 40.6966 10.6543L40.1519 12.5787ZM41.4214 13.0123C41.8099 13.1691 42.1829 13.3448 42.5406 13.5392L43.4956 11.7819C43.0694 11.5503 42.6274 11.3423 42.1697 11.1576L41.4214 13.0123ZM44.5434 14.9627C44.8446 15.2369 45.1321 15.5313 45.4059 15.8462L46.9152 14.5338C46.5913 14.1614 46.2496 13.8113 45.8898 13.4838L44.5434 14.9627ZM45.4131 15.8544C45.7039 16.1814 45.9784 16.5321 46.2366 16.9067L47.8835 15.772C47.5801 15.3317 47.255 14.9161 46.908 14.5256L45.4131 15.8544ZM47.5226 19.2908C47.6945 19.7019 47.8534 20.1324 47.9991 20.5828L49.902 19.9672C49.7401 19.4668 49.5621 18.984 49.3677 18.5192L47.5226 19.2908ZM48.0005 20.587C48.086 20.8476 48.1659 21.1148 48.24 21.3886L50.1706 20.8661C50.0875 20.5591 49.9975 20.2581 49.9006 19.963L48.0005 20.587ZM48.6022 23.0356C48.6958 23.5761 48.7702 24.1383 48.8252 24.7226L50.8164 24.5353C50.7569 23.9026 50.6758 23.2889 50.5729 22.6944L48.6022 23.0356ZM48.9284 26.4337C48.9365 26.7163 48.9405 27.0034 48.9405 27.295H50.9405C50.9405 26.9849 50.9362 26.6787 50.9276 26.3764L48.9284 26.4337ZM48.9405 27.295C48.9405 27.5882 48.9364 27.8771 48.9283 28.1617L50.9274 28.2192C50.9362 27.9149 50.9405 27.6069 50.9405 27.295H48.9405ZM48.8242 29.8839C48.7689 30.471 48.6941 31.0372 48.6001 31.5826L50.5711 31.9223C50.6742 31.3236 50.7556 30.7065 50.8154 30.0712L48.8242 29.8839ZM48.2379 33.2428C48.164 33.5189 48.0844 33.7886 47.9991 34.0522L49.902 34.6678C49.9981 34.3709 50.0873 34.0683 50.1698 33.7601L48.2379 33.2428ZM48.0005 34.048C47.8533 34.4962 47.6926 34.926 47.5185 35.3377L49.3606 36.1165C49.5571 35.6517 49.7371 35.1701 49.9006 34.672L48.0005 34.048ZM46.2266 37.7253C45.9694 38.101 45.6958 38.4554 45.4059 38.7888L46.9152 40.1012C47.2568 39.7082 47.5774 39.2927 47.8771 38.8548L46.2266 37.7253ZM45.4131 38.7806C45.138 39.0902 44.8488 39.3801 44.5457 39.6506L45.8773 41.1428C46.2388 40.8202 46.5824 40.4756 46.908 40.1094L45.4131 38.7806ZM42.539 41.0544C42.1818 41.2466 41.8094 41.4211 41.4214 41.5776L42.1697 43.4324C42.6242 43.249 43.0633 43.0435 43.4867 42.8156L42.539 41.0544ZM41.4214 41.5776C41.0103 41.7435 40.5872 41.8881 40.1519 42.0113L40.6966 43.9357C41.1998 43.7933 41.691 43.6255 42.1697 43.4324L41.4214 41.5776ZM37.4914 42.4847C37.0473 42.5215 36.5921 42.54 36.1255 42.54V44.54C36.645 44.54 37.1554 44.5194 37.6565 44.4779L37.4914 42.4847ZM36.1255 36.465C35.7001 36.465 35.3037 36.4331 34.9349 36.3718L34.6067 38.3447C35.0937 38.4257 35.6004 38.465 36.1255 38.465V36.465ZM32.8478 35.5404C32.5504 35.3286 32.2749 35.0778 32.0212 34.7851L30.5099 36.0949C30.8637 36.5032 31.2563 36.8623 31.6877 37.1695L32.8478 35.5404ZM32.0296 34.7948C31.8937 34.6339 31.7668 34.462 31.649 34.2786L29.9662 35.3594C30.13 35.6144 30.3084 35.8565 30.5015 36.0852L32.0296 34.7948ZM31.0733 33.0953C30.9288 32.6934 30.8125 32.2516 30.727 31.7676L28.7575 32.1154C28.8607 32.6996 29.0045 33.2527 29.1914 33.7723L31.0733 33.0953ZM30.5731 30.3575C30.5614 30.1239 30.5555 29.8831 30.5555 29.635H28.5555C28.5555 29.9146 28.5622 30.1886 28.5755 30.457L30.5731 30.3575ZM30.5555 29.635V28.465H28.5555V29.635H30.5555ZM30.5555 26.125V24.955H28.5555V26.125H30.5555ZM30.5555 24.955C30.5555 24.7069 30.5614 24.4661 30.5731 24.2324L28.5755 24.133C28.5622 24.4014 28.5555 24.6754 28.5555 24.955H30.5555ZM30.727 22.8224C30.8125 22.3384 30.9288 21.8966 31.0733 21.4947L29.1914 20.8177C29.0045 21.3373 28.8607 21.8904 28.7575 22.4746L30.727 22.8224ZM31.649 20.3114C31.7668 20.128 31.8937 19.9561 32.0296 19.7952L30.5015 18.5048C30.3084 18.7335 30.13 18.9756 29.9662 19.2306L31.649 20.3114ZM32.0212 19.8049C32.2749 19.5122 32.5504 19.2614 32.8478 19.0496L31.6877 17.4205C31.2563 17.7277 30.8637 18.0868 30.5099 18.4951L32.0212 19.8049ZM34.9349 18.2182C35.3037 18.1569 35.7001 18.125 36.1255 18.125V16.125C35.6004 16.125 35.0937 16.1643 34.6067 16.2453L34.9349 18.2182ZM36.1255 18.125C36.5488 18.125 36.9422 18.1565 37.3073 18.2171L37.6348 16.2441C37.1514 16.1639 36.6478 16.125 36.1255 16.125V18.125ZM39.3688 19.0426C39.6608 19.2534 39.93 19.5033 40.1765 19.7952L41.7046 18.5048C41.3567 18.0929 40.9684 17.7306 40.5395 17.421L39.3688 19.0426ZM40.1849 19.8049C40.3236 19.9651 40.4531 20.1359 40.5733 20.3179L42.2423 19.2159C42.075 18.9625 41.893 18.7221 41.6962 18.4951L40.1849 19.8049ZM41.1629 21.4958C41.3115 21.8969 41.431 22.3379 41.5189 22.8212L43.4866 22.4633C43.38 21.8771 43.2315 21.3223 43.0384 20.8011L41.1629 21.4958ZM41.6775 24.2316C41.6895 24.4655 41.6955 24.7066 41.6955 24.955H43.6955C43.6955 24.6741 43.6887 24.3988 43.6749 24.1292L41.6775 24.2316ZM41.6955 24.955V26.125H43.6955V24.955H41.6955ZM41.6955 28.465V29.635H43.6955V28.465H41.6955ZM41.6955 29.635C41.6955 29.8834 41.6895 30.1245 41.6775 30.3584L43.6749 30.4608C43.6887 30.1911 43.6955 29.9159 43.6955 29.635H41.6955ZM41.5189 31.7688C41.431 32.2521 41.3115 32.6931 41.1629 33.0942L43.0384 33.7889C43.2315 33.2677 43.38 32.7129 43.4866 32.1267L41.5189 31.7688ZM40.5733 34.2721C40.4531 34.4541 40.3236 34.6249 40.1849 34.7851L41.6962 36.0949C41.893 35.8679 42.075 35.6275 42.2423 35.3741L40.5733 34.2721ZM40.1765 34.7948C39.93 35.0867 39.6608 35.3366 39.3688 35.5474L40.5395 37.169C40.9684 36.8594 41.3567 36.4971 41.7046 36.0852L40.1765 34.7948ZM37.3073 36.3729C36.9422 36.4335 36.5488 36.465 36.1255 36.465V38.465C36.6478 38.465 37.1514 38.4261 37.6348 38.3459L37.3073 36.3729ZM31.1755 7.755C30.9343 7.755 30.7129 7.74543 30.5105 7.72724L30.3314 9.7192C30.6004 9.74338 30.882 9.755 31.1755 9.755V7.755ZM29.3862 7.46495C29.2301 7.39149 29.1227 7.31291 29.0477 7.23789L27.6334 8.6521C27.8936 8.9123 28.1995 9.1169 28.5346 9.27461L29.3862 7.46495ZM29.0858 7.2782C28.9971 7.17906 28.9223 7.07868 28.8597 6.97723L27.1575 8.02731C27.285 8.23389 27.4315 8.42866 27.5953 8.61179L29.0858 7.2782ZM28.6068 6.30345C28.5864 6.18432 28.5755 6.05682 28.5755 5.92H26.5755C26.5755 6.16335 26.595 6.40357 26.6352 6.63967L28.6068 6.30345ZM28.5755 5.92V5.63875H26.5755V5.92H28.5755ZM28.5755 5.07625V4.795H26.5755V5.07625H28.5755ZM28.5755 4.795C28.5755 4.65993 28.5862 4.53545 28.6057 4.42049L26.6339 4.08567C26.5944 4.31811 26.5755 4.55491 26.5755 4.795H28.5755ZM28.8489 3.78036C28.9092 3.68578 28.9814 3.59281 29.0676 3.50162L27.6135 2.12837C27.4444 2.30747 27.2933 2.49983 27.1622 2.7056L28.8489 3.78036ZM29.0665 3.50274C29.143 3.42195 29.2494 3.34029 29.4002 3.26474L28.5045 1.47652C28.1711 1.6435 27.8696 1.85808 27.6146 2.12725L29.0665 3.50274ZM30.5115 2.98945C30.713 2.97017 30.9341 2.96 31.1755 2.96V0.959997C30.8786 0.959997 30.5935 0.972485 30.3211 0.998537L30.5115 2.98945ZM31.1755 2.96C31.4143 2.96 31.6323 2.96995 31.8306 2.98876L32.0195 0.997705C31.7508 0.972203 31.4691 0.959997 31.1755 0.959997V2.96ZM32.915 3.25745C33.0585 3.33067 33.1544 3.40813 33.2203 3.48179L34.7108 2.1482C34.4601 1.86805 34.1585 1.6466 33.8237 1.47581L32.915 3.25745ZM33.2584 3.5221C33.3496 3.61328 33.4257 3.70558 33.4888 3.79864L35.1439 2.67578C35.0061 2.47271 34.8483 2.28354 34.6727 2.10789L33.2584 3.5221ZM33.7439 4.42679C33.7644 4.53947 33.7755 4.66179 33.7755 4.795H35.7755C35.7755 4.54942 35.7549 4.30711 35.7117 4.0693L33.7439 4.42679ZM33.7755 4.795V5.07625H35.7755V4.795H33.7755ZM33.7755 5.63875V5.92H35.7755V5.63875H33.7755ZM33.7755 5.92C33.7755 6.05487 33.7641 6.18018 33.7428 6.29707L35.7103 6.65584C35.7543 6.41446 35.7755 6.1688 35.7755 5.92H33.7755ZM33.4774 6.95907C33.4119 7.05889 33.3333 7.15839 33.2396 7.25725L34.6915 8.63274C34.862 8.45274 35.0153 8.2608 35.1493 8.05662L33.4774 6.95907ZM33.2385 7.25837C33.1747 7.32592 33.0782 7.40044 32.9292 7.47181L33.7929 9.27569C34.1296 9.11444 34.4361 8.90313 34.6926 8.63162L33.2385 7.25837ZM31.8314 7.7279C31.6324 7.74565 31.4141 7.755 31.1755 7.755V9.755C31.4657 9.755 31.7438 9.74365 32.009 9.71999L31.8314 7.7279ZM41.0755 7.755C40.8343 7.755 40.6129 7.74543 40.4105 7.72724L40.2314 9.7192C40.5004 9.74338 40.782 9.755 41.0755 9.755V7.755ZM39.2862 7.46495C39.1301 7.39149 39.0227 7.31291 38.9477 7.23789L37.5334 8.6521C37.7936 8.9123 38.0995 9.1169 38.4346 9.27461L39.2862 7.46495ZM38.9858 7.2782C38.8971 7.17906 38.8223 7.07869 38.7597 6.97723L37.0575 8.02731C37.185 8.23389 37.3315 8.42866 37.4953 8.61179L38.9858 7.2782ZM38.5068 6.30345C38.4864 6.18432 38.4755 6.05682 38.4755 5.92H36.4755C36.4755 6.16335 36.495 6.40357 36.5352 6.63967L38.5068 6.30345ZM38.4755 5.92V5.63875H36.4755V5.92H38.4755ZM38.4755 5.07625V4.795H36.4755V5.07625H38.4755ZM38.4755 4.795C38.4755 4.65993 38.4862 4.53545 38.5057 4.42049L36.5339 4.08567C36.4944 4.31811 36.4755 4.55491 36.4755 4.795H38.4755ZM38.7489 3.78036C38.8092 3.68578 38.8814 3.59281 38.9676 3.50162L37.5135 2.12837C37.3444 2.30747 37.1933 2.49983 37.0622 2.7056L38.7489 3.78036ZM38.9665 3.50274C39.043 3.42195 39.1494 3.34029 39.3002 3.26474L38.4045 1.47652C38.0711 1.6435 37.7696 1.85808 37.5146 2.12725L38.9665 3.50274ZM40.4115 2.98945C40.613 2.97017 40.8341 2.96 41.0755 2.96V0.959997C40.7786 0.959997 40.4935 0.972485 40.2211 0.998538L40.4115 2.98945ZM41.0755 2.96C41.3143 2.96 41.5323 2.96995 41.7306 2.98876L41.9195 0.997705C41.6508 0.972203 41.3691 0.959997 41.0755 0.959997V2.96ZM42.815 3.25745C42.9585 3.33067 43.0544 3.40813 43.1203 3.48179L44.6108 2.1482C44.3601 1.86805 44.0585 1.6466 43.7237 1.47581L42.815 3.25745ZM43.1584 3.5221C43.2496 3.61328 43.3257 3.70558 43.3888 3.79864L45.0439 2.67578C44.9061 2.47271 44.7483 2.28354 44.5727 2.10789L43.1584 3.5221ZM43.6439 4.42679C43.6644 4.53947 43.6755 4.66179 43.6755 4.795H45.6755C45.6755 4.54942 45.6549 4.30711 45.6117 4.0693L43.6439 4.42679ZM43.6755 4.795V5.07625H45.6755V4.795H43.6755ZM43.6755 5.63875V5.92H45.6755V5.63875H43.6755ZM43.6755 5.92C43.6755 6.05487 43.6641 6.18018 43.6428 6.29707L45.6103 6.65584C45.6543 6.41446 45.6755 6.1688 45.6755 5.92H43.6755ZM43.3774 6.95907C43.3119 7.05889 43.2333 7.15839 43.1396 7.25725L44.5915 8.63274C44.762 8.45274 44.9153 8.2608 45.0493 8.05662L43.3774 6.95907ZM43.1385 7.25837C43.0747 7.32592 42.9782 7.40044 42.8292 7.47181L43.6929 9.27569C44.0296 9.11444 44.3361 8.90313 44.5926 8.63162L43.1385 7.25837ZM41.7314 7.7279C41.5324 7.74565 41.3141 7.755 41.0755 7.755V9.755C41.3657 9.755 41.6438 9.74365 41.909 9.71999L41.7314 7.7279ZM58.6238 42.145L58.4002 42.5922L58.4058 42.595L58.6238 42.145ZM53.7188 38.455L53.3635 38.1032L53.0314 38.4386L53.3471 38.7895L53.7188 38.455ZM58.2188 33.91L58.5928 33.5781L58.2387 33.1792L57.8635 33.5582L58.2188 33.91ZM69.8288 36.475L70.153 36.8556L70.153 36.8556L69.8288 36.475ZM70.3238 31.57L69.9332 31.8824L69.9413 31.8921L70.3238 31.57ZM67.3988 30.355L67.4695 29.86L67.4635 29.8592L67.3988 30.355ZM64.2938 29.95L64.3585 29.4542L64.3564 29.4539L64.2938 29.95ZM56.9588 26.935L56.5985 27.2817L56.6019 27.2852L56.9588 26.935ZM55.4738 16.72L55.0198 16.5105L55.0198 16.5105L55.4738 16.72ZM57.7688 13.705L57.4509 13.319L57.4453 13.3237L57.7688 13.705ZM61.4588 11.77L61.6079 12.2473L61.614 12.2453L61.4588 11.77ZM72.7088 12.175L72.9011 11.7135L72.9011 11.7135L72.7088 12.175ZM77.3438 15.46L77.6991 15.8118L78.0304 15.4772L77.7162 15.1264L77.3438 15.46ZM72.7988 20.05L72.4201 20.3765L72.7734 20.7863L73.1541 20.4018L72.7988 20.05ZM70.0538 17.935L69.8152 18.3744L69.8226 18.3784L69.8302 18.3822L70.0538 17.935ZM62.6288 17.89L62.9209 18.2958L62.9209 18.2958L62.6288 17.89ZM62.3588 22.48L62.0366 22.8626L62.0464 22.8704L62.3588 22.48ZM65.2388 23.515L65.3175 23.0212L65.3173 23.0212L65.2388 23.515ZM68.3438 24.01L68.2651 24.5038L68.266 24.5039L68.3438 24.01ZM75.5438 27.025L75.1972 27.3854L75.2009 27.3889L75.5438 27.025ZM77.0738 37.465L76.6142 37.268L77.0738 37.465ZM74.6888 40.705L74.3634 40.3253L74.358 40.3301L74.6888 40.705ZM70.8638 42.82L71.0135 43.2971L71.0219 43.2943L70.8638 42.82ZM65.6438 43.04C65.3441 43.04 65.0497 43.0344 64.7608 43.0232L64.7221 44.0225C65.0244 44.0342 65.3316 44.04 65.6438 44.04V43.04ZM63.0081 42.879C62.4077 42.8012 61.8347 42.6955 61.2889 42.5621L61.0515 43.5335C61.6357 43.6763 62.2452 43.7885 62.8797 43.8707L63.0081 42.879ZM59.633 42.041C59.361 41.9341 59.0973 41.8188 58.8418 41.695L58.4058 42.595C58.6849 42.7302 58.9721 42.8557 59.2672 42.9717L59.633 42.041ZM58.8474 41.6978C58.6218 41.585 58.4003 41.4684 58.1831 41.3481L57.6986 42.2229C57.9283 42.3501 58.1622 42.4732 58.4002 42.5922L58.8474 41.6978ZM56.9055 40.565C56.4885 40.2827 56.0893 39.9842 55.7079 39.6693L55.0713 40.4405C55.4776 40.7759 55.9022 41.0934 56.3449 41.3931L56.9055 40.565ZM54.6037 38.6631C54.4281 38.4865 54.257 38.3056 54.0904 38.1205L53.3471 38.7895C53.5248 38.9869 53.7073 39.1798 53.8945 39.3681L54.6037 38.6631ZM54.0741 38.8068L54.6366 38.2387L53.926 37.5351L53.3635 38.1032L54.0741 38.8068ZM55.7616 37.1024L56.8866 35.9662L56.176 35.2626L55.051 36.3988L55.7616 37.1024ZM58.0116 34.8299L58.5741 34.2618L57.8635 33.5582L57.301 34.1263L58.0116 34.8299ZM57.8448 34.2419C58.1067 34.537 58.3764 34.8152 58.6539 35.0765L59.3394 34.3484C59.0845 34.1084 58.8356 33.8517 58.5928 33.5781L57.8448 34.2419ZM60.5077 36.4969C61.1826 36.9077 61.8927 37.2353 62.6376 37.4791L62.9487 36.5287C62.2776 36.309 61.6375 36.0139 61.0277 35.6427L60.5077 36.4969ZM64.9292 37.9544C65.3106 37.9915 65.6988 38.01 66.0938 38.01V37.01C65.73 37.01 65.3741 36.993 65.026 36.9591L64.9292 37.9544ZM66.0938 38.01C66.4557 38.01 66.8009 37.9946 67.1289 37.9634L67.034 36.9679C66.7409 36.9958 66.4276 37.01 66.0938 37.01V38.01ZM69.2004 37.453C69.5552 37.2917 69.874 37.0933 70.153 36.8556L69.5046 36.0944C69.3033 36.2659 69.0652 36.416 68.7866 36.5426L69.2004 37.453ZM70.153 36.8556C70.3824 36.6602 70.5856 36.4466 70.761 36.2144L69.9632 35.6116C69.8341 35.7824 69.6817 35.9435 69.5046 36.0944L70.153 36.8556ZM71.4672 34.5936C71.5187 34.3163 71.5438 34.0281 71.5438 33.73H70.5438C70.5438 33.972 70.5234 34.1987 70.484 34.411L71.4672 34.5936ZM71.5438 33.73C71.5438 33.5074 71.5296 33.2911 71.5005 33.0815L70.51 33.2189C70.5323 33.3797 70.5438 33.5499 70.5438 33.73H71.5438ZM71.0905 31.8094C70.9816 31.6099 70.8533 31.4226 70.7062 31.2479L69.9413 31.8921C70.0458 32.0161 70.1362 32.1482 70.2129 32.2887L71.0905 31.8094ZM70.7142 31.2577C70.5156 31.0094 70.2612 30.7995 69.9638 30.6225L69.4525 31.4819C69.6676 31.6099 69.8236 31.7452 69.9334 31.8823L70.7142 31.2577ZM68.3038 30.0104C68.0427 29.9522 67.7645 29.9022 67.4695 29.86L67.3281 30.85C67.6008 30.8889 67.8533 30.9345 68.086 30.9865L68.3038 30.0104ZM67.4635 29.8592L66.6872 29.7579L66.5579 30.7495L67.3341 30.8508L67.4635 29.8592ZM65.1347 29.5554L64.3585 29.4542L64.2291 30.4458L65.0054 30.547L65.1347 29.5554ZM64.3564 29.4539C64.0209 29.4116 63.6952 29.3633 63.3792 29.3091L63.21 30.2947C63.5414 30.3515 63.8818 30.402 64.2312 30.4461L64.3564 29.4539ZM61.4658 28.8747C60.8035 28.6822 60.1985 28.456 59.6496 28.1973L59.2231 29.1018C59.8249 29.3855 60.4799 29.6295 61.1868 29.8349L61.4658 28.8747ZM58.0196 27.2102C57.7658 27.013 57.5313 26.8045 57.3157 26.5848L56.6019 27.2852C56.85 27.538 57.1182 27.7762 57.4062 28L58.0196 27.2102ZM57.3191 26.5883C57.1303 26.3921 56.9542 26.1876 56.7906 25.9749L55.9978 26.5844C56.1841 26.8267 56.3844 27.0592 56.5985 27.2817L57.3191 26.5883ZM55.9559 24.5915C55.7351 24.1126 55.5598 23.5994 55.4308 23.051L54.4574 23.2799C54.6009 23.8899 54.7974 24.467 55.0478 25.0102L55.9559 24.5915ZM55.1913 21.4213C55.173 21.1512 55.1638 20.8741 55.1638 20.59H54.1638C54.1638 20.8957 54.1737 21.1954 54.1936 21.4889L55.1913 21.4213ZM55.1638 20.59C55.1638 20.2668 55.1787 19.9511 55.2082 19.6428L54.2128 19.5474C54.1801 19.8885 54.1638 20.2361 54.1638 20.59H55.1638ZM55.586 17.8019C55.6831 17.5035 55.7971 17.2127 55.9278 16.9295L55.0198 16.5105C54.8726 16.8295 54.7443 17.1568 54.6351 17.4923L55.586 17.8019ZM55.9278 16.9295C56.0549 16.654 56.1951 16.3885 56.3483 16.1331L55.4906 15.6189C55.3187 15.9056 55.1618 16.2028 55.0198 16.5105L55.9278 16.9295ZM57.4363 14.7047C57.6415 14.4894 57.8602 14.2832 58.0923 14.0863L57.4453 13.3237C57.1868 13.5431 56.9425 13.7734 56.7124 14.0148L57.4363 14.7047ZM58.0866 14.091C58.3393 13.8829 58.6059 13.6872 58.8867 13.5038L58.34 12.6665C58.029 12.8696 57.7326 13.0871 57.4509 13.319L58.0866 14.091ZM60.6593 12.5857C60.9634 12.4627 61.2796 12.3499 61.6079 12.2472L61.3097 11.2928C60.9565 11.4031 60.6146 11.5251 60.2843 11.6587L60.6593 12.5857ZM61.614 12.2453C61.9914 12.1221 62.3831 12.015 62.7893 11.9243L62.5714 10.9483C62.1353 11.0457 61.7127 11.1611 61.3036 11.2947L61.614 12.2453ZM65.2191 11.588C65.6196 11.5627 66.0312 11.55 66.4538 11.55V10.55C66.0112 10.55 65.5786 10.5633 65.1561 10.5899L65.2191 11.588ZM66.4538 11.55C66.718 11.55 66.9784 11.5548 67.2349 11.5643L67.2719 10.565C67.0028 10.555 66.73 10.55 66.4538 10.55V11.55ZM68.787 11.6853C69.3147 11.7495 69.8238 11.8363 70.3144 11.9455L70.5318 10.9694C70.0076 10.8527 69.4661 10.7605 68.9076 10.6926L68.787 11.6853ZM71.7984 12.3635C72.043 12.448 72.2824 12.539 72.5165 12.6365L72.9011 11.7135C72.6475 11.6078 72.3888 11.5094 72.1248 11.4182L71.7984 12.3635ZM72.5165 12.6365C72.9459 12.8154 73.3596 13.0145 73.7579 13.2336L74.24 12.3575C73.8094 12.1206 73.3631 11.906 72.9011 11.7135L72.5165 12.6365ZM75.9983 14.8202C76.3375 15.1237 76.6619 15.4482 76.9714 15.7936L77.7162 15.1264C77.3826 14.754 77.0322 14.4035 76.6651 14.0749L75.9983 14.8202ZM76.9885 15.1082L76.4204 15.6819L77.131 16.3856L77.6991 15.8118L76.9885 15.1082ZM75.2841 16.8294L74.1479 17.9769L74.8585 18.6806L75.9947 17.5331L75.2841 16.8294ZM73.0116 19.1244L72.4435 19.6982L73.1541 20.4018L73.7222 19.8281L73.0116 19.1244ZM73.1775 19.7235C72.9761 19.4899 72.7634 19.2675 72.5394 19.0562L71.8533 19.7837C72.0522 19.9713 72.2411 20.1688 72.4201 20.3765L73.1775 19.7235ZM71.0788 17.9351C70.8215 17.7753 70.5543 17.6263 70.2774 17.4878L69.8302 18.3822C70.0804 18.5073 70.3208 18.6415 70.5513 18.7846L71.0788 17.9351ZM70.2923 17.4956C69.9722 17.3218 69.6301 17.1735 69.2669 17.0502L68.9454 17.9971C69.2585 18.1035 69.5482 18.2295 69.8152 18.3744L70.2923 17.4956ZM67.1241 16.6236C66.7786 16.5944 66.4201 16.58 66.0488 16.58V17.58C66.3942 17.58 66.7246 17.5934 67.04 17.6201L67.1241 16.6236ZM66.0488 16.58C65.7232 16.58 65.4125 16.5918 65.1169 16.6157L65.1974 17.6124C65.4634 17.5909 65.7471 17.58 66.0488 17.58V16.58ZM63.2369 17.0074C62.9043 17.1346 62.6029 17.2926 62.3366 17.4842L62.9209 18.2958C63.1079 18.1611 63.3309 18.0421 63.594 17.9415L63.2369 17.0074ZM62.3366 17.4842C62.1236 17.6376 61.933 17.8085 61.767 17.9975L62.5183 18.6574C62.6308 18.5293 62.7643 18.4085 62.9209 18.2958L62.3366 17.4842ZM61.0783 19.387C61.028 19.6285 61.0038 19.8799 61.0038 20.14H62.0038C62.0038 19.9421 62.0222 19.7593 62.0573 19.5907L61.0783 19.387ZM61.0038 20.14C61.0038 20.3857 61.0174 20.6207 61.0456 20.8444L62.0378 20.7196C62.0154 20.542 62.0038 20.3489 62.0038 20.14H61.0038ZM61.516 22.26C61.6591 22.489 61.8327 22.6907 62.0367 22.8625L62.6809 22.0975C62.5591 21.995 62.4535 21.8733 62.364 21.7301L61.516 22.26ZM62.0464 22.8704C62.2653 23.0455 62.5172 23.1996 62.7977 23.3351L63.2327 22.4347C63.0074 22.3259 62.8217 22.21 62.6711 22.0896L62.0464 22.8704ZM64.3693 23.8581C64.6191 23.9145 64.8828 23.9647 65.1602 24.0088L65.3173 23.0212C65.0588 22.9801 64.8162 22.9338 64.5894 22.8827L64.3693 23.8581ZM65.1601 24.0088L65.9363 24.1325L66.0938 23.145L65.3175 23.0212L65.1601 24.0088ZM67.4888 24.38L68.2651 24.5038L68.4225 23.5162L67.6463 23.3925L67.4888 24.38ZM68.266 24.5039C68.5938 24.5555 68.9123 24.6122 69.2216 24.6739L69.4173 23.6933C69.094 23.6287 68.7621 23.5697 68.4215 23.5161L68.266 24.5039ZM71.0927 25.143C71.7402 25.343 72.3336 25.5714 72.8741 25.8272L73.3019 24.9233C72.7138 24.645 72.0755 24.4 71.3879 24.1875L71.0927 25.143ZM74.489 26.7864C74.7438 26.9765 74.9797 27.1763 75.1972 27.3854L75.8903 26.6646C75.6416 26.4254 75.3738 26.199 75.0873 25.985L74.489 26.7864ZM75.2009 27.3889C75.3967 27.5734 75.579 27.7684 75.748 27.9738L76.5204 27.3387C76.3243 27.1003 76.113 26.8744 75.8867 26.6611L75.2009 27.3889ZM76.6006 29.3289C76.821 29.7983 76.996 30.3092 77.1242 30.863L78.0984 30.6375C77.9556 30.0204 77.7585 29.442 77.5058 28.9039L76.6006 29.3289ZM77.3574 32.4928C77.375 32.7623 77.3838 33.0397 77.3838 33.325H78.3838C78.3838 33.0191 78.3743 32.72 78.3553 32.4278L77.3574 32.4928ZM77.3838 33.325C77.3838 33.671 77.3688 34.0096 77.339 34.3408L78.335 34.4304C78.3676 34.0684 78.3838 33.6999 78.3838 33.325H77.3838ZM76.9588 36.3226C76.8608 36.6455 76.746 36.9606 76.6142 37.268L77.5334 37.662C77.6797 37.3205 77.8072 36.9707 77.9157 36.6129L76.9588 36.3226ZM76.6142 37.268C76.487 37.565 76.3449 37.8508 76.1882 38.1258L77.057 38.621C77.2327 38.3127 77.3915 37.993 77.5334 37.662L76.6142 37.268ZM75.0561 39.6624C74.8404 39.8934 74.6095 40.1144 74.3634 40.3254L75.0142 41.0846C75.2878 40.8501 75.5454 40.6036 75.787 40.345L75.0561 39.6624ZM74.358 40.3301C74.1024 40.5556 73.8292 40.7687 73.5381 40.9693L74.1056 41.7927C74.4285 41.5702 74.7332 41.3326 75.0196 41.0799L74.358 40.3301ZM71.6968 41.9713C71.3807 42.1059 71.0504 42.2308 70.7057 42.3457L71.0219 43.2943C71.3909 43.1713 71.7465 43.037 72.0887 42.8913L71.6968 41.9713ZM70.7141 42.3429C70.3186 42.467 69.9075 42.5747 69.4806 42.666L69.6896 43.6439C70.1455 43.5465 70.5868 43.4309 71.0135 43.2971L70.7141 42.3429ZM66.9356 43.0022C66.5168 43.0274 66.0862 43.04 65.6438 43.04V44.04C66.1052 44.04 66.5558 44.0268 66.9955 44.0004L66.9356 43.0022ZM58.6238 42.145L58.1765 43.0395L58.1879 43.045L58.6238 42.145ZM53.7188 38.455L53.0082 37.7514L52.344 38.4223L52.9755 39.124L53.7188 38.455ZM58.2188 33.91L58.9667 33.2462L58.2587 32.4484L57.5082 33.2064L58.2188 33.91ZM69.8288 36.475L70.4773 37.2362L70.4773 37.2362L69.8288 36.475ZM70.3238 31.57L69.5429 32.1947L69.5508 32.2045L69.5589 32.2141L70.3238 31.57ZM67.3988 30.355L67.5402 29.365L67.5281 29.3634L67.3988 30.355ZM64.2938 29.95L64.4231 28.9584L64.4189 28.9579L64.2938 29.95ZM56.9588 26.935L56.2382 27.6284L56.245 27.6353L56.9588 26.935ZM55.4738 16.72L54.5658 16.3009L54.5658 16.3009L55.4738 16.72ZM57.7688 13.705L57.1331 12.9331L57.1274 12.9377L57.1218 12.9425L57.7688 13.705ZM61.4588 11.77L61.7571 12.7246L61.7692 12.7206L61.4588 11.77ZM72.7088 12.175L73.0934 11.2519L73.0934 11.2519L72.7088 12.175ZM77.3438 15.46L78.0544 16.1636L78.7171 15.4943L78.0886 14.7927L77.3438 15.46ZM72.7988 20.05L72.0414 20.7029L72.748 21.5226L73.5094 20.7536L72.7988 20.05ZM70.0538 17.935L69.5767 18.8139L69.5915 18.8219L69.6066 18.8294L70.0538 17.935ZM62.6288 17.89L63.2131 18.7015L63.2131 18.7015L62.6288 17.89ZM62.3588 22.48L61.7147 23.2449L61.7243 23.253L61.7341 23.2609L62.3588 22.48ZM65.2388 23.515L65.3962 22.5275L65.3959 22.5274L65.2388 23.515ZM68.3438 24.01L68.1864 24.9975L68.1883 24.9978L68.3438 24.01ZM75.5438 27.025L74.8506 27.7459L74.858 27.7528L75.5438 27.025ZM77.0738 37.465L76.1546 37.0711L77.0738 37.465ZM74.6888 40.705L74.038 39.9457L74.0325 39.9504L74.0272 39.9552L74.6888 40.705ZM70.8638 42.82L71.1631 43.7741L71.1716 43.7715L71.18 43.7687L70.8638 42.82ZM65.6438 42.54C65.3503 42.54 65.0624 42.5345 64.7801 42.5236L64.7028 44.5221C65.0117 44.5341 65.3254 44.54 65.6438 44.54V42.54ZM63.0723 42.3831C62.489 42.3076 61.9342 42.2051 61.4075 42.0764L60.9329 44.0193C61.5362 44.1667 62.1639 44.2822 62.8155 44.3666L63.0723 42.3831ZM59.8159 41.5757C59.5555 41.4733 59.3034 41.3631 59.0597 41.245L58.1879 43.045C58.4787 43.1859 58.7776 43.3165 59.0843 43.4371L59.8159 41.5757ZM59.071 41.2506C58.8516 41.1409 58.6364 41.0276 58.4253 40.9107L57.4564 42.6603C57.6923 42.791 57.9324 42.9173 58.1766 43.0394L59.071 41.2506ZM57.1858 40.151C56.7817 39.8774 56.3952 39.5883 56.0261 39.2837L54.753 40.8262C55.1717 41.1717 55.609 41.4987 56.0646 41.8072L57.1858 40.151ZM54.9583 38.3106C54.7886 38.1399 54.6232 37.965 54.4621 37.786L52.9755 39.124C53.1587 39.3275 53.3468 39.5264 53.5399 39.7206L54.9583 38.3106ZM54.4294 39.1586L54.9919 38.5905L53.5707 37.1833L53.0082 37.7514L54.4294 39.1586ZM56.1169 37.4542L57.2419 36.318L55.8207 34.9108L54.6957 36.047L56.1169 37.4542ZM58.3669 35.1817L58.9294 34.6136L57.5082 33.2064L56.9457 33.7745L58.3669 35.1817ZM57.4709 34.5738C57.7423 34.8796 58.0224 35.1686 58.3112 35.4406L59.6821 33.9844C59.4385 33.755 59.2 33.5091 58.9667 33.2462L57.4709 34.5738ZM60.2478 36.924C60.9551 37.3546 61.7003 37.6984 62.482 37.9543L63.1043 36.0535C62.47 35.8459 61.8649 35.567 61.2877 35.2156L60.2478 36.924ZM64.8808 38.4521C65.2788 38.4908 65.6832 38.51 66.0938 38.51V36.51C65.7456 36.51 65.4059 36.4937 65.0745 36.4615L64.8808 38.4521ZM66.0938 38.51C66.4698 38.51 66.8308 38.494 67.1763 38.4611L66.9866 36.4701C66.7109 36.4964 66.4135 36.51 66.0938 36.51V38.51ZM69.4073 37.9082C69.8002 37.7296 70.1593 37.5071 70.4773 37.2362L69.1803 35.7138C69.0179 35.8521 68.8202 35.9781 68.5797 36.0874L69.4073 37.9082ZM70.4773 37.2362C70.7328 37.0186 70.9614 36.7787 71.1599 36.5159L69.5643 35.3101C69.4583 35.4503 69.3314 35.5851 69.1803 35.7138L70.4773 37.2362ZM71.9588 34.6849C72.0163 34.375 72.0438 34.0562 72.0438 33.73H70.0438C70.0438 33.9439 70.0258 34.14 69.9924 34.3197L71.9588 34.6849ZM72.0438 33.73C72.0438 33.4862 72.0282 33.2468 71.9958 33.0128L70.0147 33.2876C70.0337 33.424 70.0438 33.5712 70.0438 33.73H72.0438ZM71.5294 31.5697C71.4043 31.3407 71.2571 31.1259 71.0887 30.9259L69.5589 32.2141C69.642 32.3129 69.7135 32.4174 69.7741 32.5283L71.5294 31.5697ZM71.1047 30.9453C70.8616 30.6415 70.558 30.3943 70.2194 30.1928L69.1968 31.9116C69.3708 32.0151 69.4776 32.1131 69.5429 32.1947L71.1047 30.9453ZM68.4126 29.5224C68.1374 29.461 67.8463 29.4088 67.5402 29.365L67.2574 31.3449C67.5189 31.3823 67.7586 31.4257 67.9772 31.4745L68.4126 29.5224ZM67.5281 29.3634L66.7519 29.2621L66.4932 31.2453L67.2695 31.3466L67.5281 29.3634ZM65.1994 29.0596L64.4231 28.9584L64.1644 30.9416L64.9407 31.0428L65.1994 29.0596ZM64.4189 28.9579C64.0905 28.9164 63.7721 28.8692 63.4638 28.8163L63.1254 30.7875C63.4645 30.8457 63.8122 30.8972 64.1687 30.9421L64.4189 28.9579ZM61.6054 28.3945C60.9653 28.2085 60.3852 27.9913 59.8628 27.745L59.0099 29.554C59.6381 29.8502 60.3181 30.1032 61.0473 30.3151L61.6054 28.3945ZM58.3264 26.8154C58.0896 26.6314 57.8719 26.4378 57.6726 26.2347L56.245 27.6353C56.5093 27.9048 56.7944 28.1579 57.0994 28.3948L58.3264 26.8154ZM57.6794 26.2416C57.5032 26.0586 57.3392 25.8681 57.187 25.6702L55.6014 26.8891C55.7991 27.1463 56.0115 27.3927 56.2382 27.6284L57.6794 26.2416ZM56.41 24.3822C56.204 23.9354 56.0393 23.4542 55.9175 22.9365L53.9706 23.3944C54.1214 24.0352 54.3285 24.6442 54.5937 25.2195L56.41 24.3822ZM55.6901 21.3875C55.6726 21.1292 55.6638 20.8634 55.6638 20.59H53.6638C53.6638 20.9065 53.674 21.2174 53.6947 21.5227L55.6901 21.3875ZM55.6638 20.59C55.6638 20.2821 55.6779 19.9823 55.7059 19.6905L53.7151 19.4996C53.6808 19.8573 53.6638 20.2208 53.6638 20.59H55.6638ZM56.0614 17.9567C56.1525 17.6768 56.2593 17.4043 56.3817 17.1391L54.5658 16.3009C54.4103 16.6378 54.2749 16.9834 54.1597 17.3375L56.0614 17.9567ZM56.3817 17.1391C56.5015 16.8795 56.6333 16.63 56.7771 16.3902L55.0618 15.3618C54.8805 15.6641 54.7152 15.9773 54.5658 16.3009L56.3817 17.1391ZM57.7982 15.0497C57.9911 14.8473 58.1968 14.6533 58.4158 14.4675L57.1218 12.9425C56.8501 13.173 56.5929 13.4155 56.3504 13.6699L57.7982 15.0497ZM58.4045 14.4769C58.6426 14.2809 58.8944 14.096 59.1601 13.9225L58.0666 12.2479C57.7405 12.4608 57.4292 12.6892 57.1331 12.9331L58.4045 14.4769ZM60.8468 13.0493C61.1378 12.9315 61.4411 12.8232 61.7571 12.7245L61.1605 10.8155C60.7949 10.9298 60.4403 11.0563 60.0968 11.1952L60.8468 13.0493ZM61.7692 12.7206C62.1308 12.6025 62.507 12.4997 62.8983 12.4123L62.4624 10.4604C62.0114 10.5611 61.5733 10.6807 61.1484 10.8194L61.7692 12.7206ZM65.2505 12.087C65.6401 12.0624 66.0412 12.05 66.4538 12.05V10.05C66.0012 10.05 65.5581 10.0636 65.1246 10.0909L65.2505 12.087ZM66.4538 12.05C66.712 12.05 66.9662 12.0547 67.2163 12.0639L67.2905 10.0653C67.015 10.0551 66.7361 10.05 66.4538 10.05V12.05ZM68.7266 12.1817C69.239 12.2439 69.7319 12.328 70.2058 12.4336L70.6405 10.4814C70.0995 10.3609 69.5418 10.266 68.9679 10.1963L68.7266 12.1817ZM71.6351 12.8361C71.8702 12.9172 72.0998 13.0046 72.3242 13.0981L73.0934 11.2519C72.8301 11.1422 72.5616 11.0401 72.2881 10.9456L71.6351 12.8361ZM72.3242 13.0981C72.7372 13.2702 73.1347 13.4614 73.5169 13.6717L74.481 11.9194C74.0343 11.6737 73.5717 11.4512 73.0934 11.2519L72.3242 13.0981ZM75.6649 15.1928C75.9902 15.4839 76.3016 15.7953 76.599 16.1272L78.0886 14.7927C77.743 14.4069 77.3796 14.0433 76.9985 13.7023L75.6649 15.1928ZM76.6332 14.7564L76.0651 15.3301L77.4862 16.7374L78.0544 16.1636L76.6332 14.7564ZM74.9288 16.4776L73.7926 17.6251L75.2137 19.0324L76.35 17.8849L74.9288 16.4776ZM72.6563 18.7726L72.0882 19.3464L73.5094 20.7536L74.0775 20.1799L72.6563 18.7726ZM73.5562 19.3971C73.3436 19.1504 73.119 18.9155 72.8825 18.6925L71.5102 20.1474C71.6966 20.3232 71.8736 20.5083 72.0414 20.7029L73.5562 19.3971ZM71.3425 17.5103C71.0719 17.3422 70.7913 17.1857 70.501 17.0406L69.6066 18.8294C69.8435 18.9479 70.0704 19.0746 70.2876 19.2094L71.3425 17.5103ZM70.5309 17.0561C70.1841 16.8679 69.8158 16.7086 69.4276 16.5768L68.7846 18.4706C69.0728 18.5684 69.3362 18.6833 69.5767 18.8139L70.5309 17.0561ZM67.1661 16.1254C66.8056 16.0949 66.433 16.08 66.0488 16.08V18.08C66.3813 18.08 66.6976 18.0929 66.9979 18.1183L67.1661 16.1254ZM66.0488 16.08C65.7113 16.08 65.387 16.0922 65.0766 16.1173L65.2376 18.1108C65.4889 18.0905 65.7591 18.08 66.0488 18.08V16.08ZM63.0583 16.5404C62.691 16.6808 62.3503 16.8583 62.0445 17.0785L63.2131 18.7015C63.3605 18.5954 63.5442 18.4958 63.7725 18.4085L63.0583 16.5404ZM62.0445 17.0785C61.8032 17.2522 61.5841 17.448 61.3913 17.6676L62.894 18.9874C62.9797 18.8898 63.0847 18.794 63.2131 18.7015L62.0445 17.0785ZM60.5888 19.2851C60.5309 19.5631 60.5038 19.8488 60.5038 20.14H62.5038C62.5038 19.9732 62.5193 19.8248 62.5468 19.6925L60.5888 19.2851ZM60.5038 20.14C60.5038 20.404 60.5184 20.66 60.5495 20.9069L62.5338 20.6572C62.5144 20.5026 62.5038 20.3306 62.5038 20.14H60.5038ZM61.092 22.525C61.2619 22.7969 61.4695 23.0385 61.7147 23.2449L63.0029 21.7151C62.9223 21.6472 62.8508 21.5655 62.788 21.4651L61.092 22.525ZM61.7341 23.2609C61.9871 23.4632 62.272 23.6364 62.5803 23.7853L63.4502 21.9844C63.2526 21.889 63.0999 21.7923 62.9835 21.6991L61.7341 23.2609ZM64.2593 24.3459C64.5206 24.4048 64.7949 24.4569 65.0817 24.5026L65.3959 22.5274C65.1468 22.4878 64.9148 22.4435 64.6994 22.3949L64.2593 24.3459ZM65.0814 24.5025L65.8576 24.6263L66.1725 22.6512L65.3962 22.5275L65.0814 24.5025ZM67.4101 24.8738L68.1864 24.9975L68.5012 23.0225L67.725 22.8987L67.4101 24.8738ZM68.1883 24.9978C68.5096 25.0484 68.8214 25.1039 69.1237 25.1642L69.5152 23.2029C69.1849 23.137 68.8462 23.0768 68.4993 23.0222L68.1883 24.9978ZM70.9451 25.6207C71.5725 25.8145 72.1435 26.0346 72.6602 26.2791L73.5158 24.4713C72.9039 24.1817 72.2431 23.9285 71.5355 23.7098L70.9451 25.6207ZM74.1899 27.187C74.4288 27.3653 74.6488 27.5517 74.8507 27.7458L76.2369 26.3042C75.9726 26.05 75.6888 25.8102 75.3864 25.5844L74.1899 27.187ZM74.858 27.7528C75.0385 27.9229 75.2064 28.1024 75.3618 28.2914L76.9066 27.0211C76.6969 26.7662 76.4712 26.5249 76.2296 26.2972L74.858 27.7528ZM76.148 29.5414C76.3523 29.9765 76.5162 30.4536 76.637 30.9757L78.5855 30.5247C78.4354 29.8759 78.2272 29.2639 77.9584 28.6913L76.148 29.5414ZM76.8585 32.5253C76.8753 32.7834 76.8838 33.05 76.8838 33.325H78.8838C78.8838 33.0088 78.874 32.6988 78.8542 32.3953L76.8585 32.5253ZM76.8838 33.325C76.8838 33.6566 76.8694 33.9802 76.841 34.296L78.833 34.4752C78.8669 34.0978 78.8838 33.7143 78.8838 33.325H76.8838ZM76.4803 36.1775C76.3877 36.4829 76.2791 36.7807 76.1546 37.0711L77.9929 37.8589C78.1466 37.5004 78.2803 37.1334 78.3942 36.758L76.4803 36.1775ZM76.1546 37.0711C76.0347 37.351 75.9011 37.6199 75.7538 37.8782L77.4914 38.8686C77.6766 38.5436 77.8438 38.207 77.9929 37.8589L76.1546 37.0711ZM74.6907 39.3211C74.4879 39.5383 74.2704 39.7465 74.038 39.9457L75.3396 41.4643C75.6269 41.218 75.898 40.9587 76.1524 40.6862L74.6907 39.3211ZM74.0272 39.9552C73.787 40.1671 73.5295 40.368 73.2543 40.5576L74.3893 42.2044C74.7281 41.9709 75.0486 41.7211 75.3504 41.4548L74.0272 39.9552ZM71.5009 41.5113C71.1978 41.6404 70.8801 41.7605 70.5476 41.8713L71.18 43.7687C71.5612 43.6416 71.9294 43.5026 72.2846 43.3514L71.5009 41.5113ZM70.5645 41.8659C70.1845 41.9851 69.7885 42.0889 69.3761 42.177L69.7941 44.1328C70.2645 44.0323 70.7209 43.9129 71.1631 43.7741L70.5645 41.8659ZM66.9057 42.5031C66.4973 42.5277 66.0767 42.54 65.6438 42.54V44.54C66.1147 44.54 66.5753 44.5266 67.0255 44.4995L66.9057 42.5031ZM1.465 88H0.965V88.5H1.465V88ZM1.465 56.59V56.09H0.965V56.59H1.465ZM22.84 56.59H23.34V56.09H22.84V56.59ZM22.84 62.665V63.165H23.34V62.665H22.84ZM8.305 62.665V62.165H7.805V62.665H8.305ZM8.305 69.1H7.805V69.6H8.305V69.1ZM20.77 69.1H21.27V68.6H20.77V69.1ZM20.77 75.13V75.63H21.27V75.13H20.77ZM8.305 75.13V74.63H7.805V75.13H8.305ZM8.305 81.925H7.805V82.425H8.305V81.925ZM22.84 81.925H23.34V81.425H22.84V81.925ZM22.84 88V88.5H23.34V88H22.84ZM1.965 88V87.0184H0.965V88H1.965ZM1.965 85.0553V83.0922H0.965V85.0553H1.965ZM1.965 81.1291V79.1659H0.965V81.1291H1.965ZM1.965 77.2028V75.2397H0.965V77.2028H1.965ZM1.965 73.2766V71.3134H0.965V73.2766H1.965ZM1.965 69.3503V67.3872H0.965V69.3503H1.965ZM1.965 65.4241V63.4609H0.965V65.4241H1.965ZM1.965 61.4978V59.5347H0.965V61.4978H1.965ZM1.965 57.5716V56.59H0.965V57.5716H1.965ZM1.465 57.09H2.53375V56.09H1.465V57.09ZM4.67125 57.09H6.80875V56.09H4.67125V57.09ZM8.94625 57.09H11.0838V56.09H8.94625V57.09ZM13.2213 57.09H15.3588V56.09H13.2213V57.09ZM17.4963 57.09H19.6338V56.09H17.4963V57.09ZM21.7713 57.09H22.84V56.09H21.7713V57.09ZM22.34 56.59V57.3494H23.34V56.59H22.34ZM22.34 58.8681V60.3869H23.34V58.8681H22.34ZM22.34 61.9056V62.665H23.34V61.9056H22.34ZM22.84 62.165H21.9316V63.165H22.84V62.165ZM20.1147 62.165H18.2978V63.165H20.1147V62.165ZM16.4809 62.165H14.6641V63.165H16.4809V62.165ZM12.8472 62.165H11.0303V63.165H12.8472V62.165ZM9.21344 62.165H8.305V63.165H9.21344V62.165ZM7.805 62.665V63.4694H8.805V62.665H7.805ZM7.805 65.0781V66.6869H8.805V65.0781H7.805ZM7.805 68.2956V69.1H8.805V68.2956H7.805ZM8.305 69.6H9.34375V68.6H8.305V69.6ZM11.4213 69.6H13.4988V68.6H11.4213V69.6ZM15.5763 69.6H17.6538V68.6H15.5763V69.6ZM19.7313 69.6H20.77V68.6H19.7313V69.6ZM20.27 69.1V69.8537H21.27V69.1H20.27ZM20.27 71.3612V72.8687H21.27V71.3612H20.27ZM20.27 74.3762V75.13H21.27V74.3762H20.27ZM20.77 74.63H19.7313V75.63H20.77V74.63ZM17.6538 74.63H15.5763V75.63H17.6538V74.63ZM13.4988 74.63H11.4213V75.63H13.4988V74.63ZM9.34375 74.63H8.305V75.63H9.34375V74.63ZM7.805 75.13V75.9794H8.805V75.13H7.805ZM7.805 77.6781V79.3769H8.805V77.6781H7.805ZM7.805 81.0756V81.925H8.805V81.0756H7.805ZM8.305 82.425H9.21344V81.425H8.305V82.425ZM11.0303 82.425H12.8472V81.425H11.0303V82.425ZM14.6641 82.425H16.4809V81.425H14.6641V82.425ZM18.2978 82.425H20.1147V81.425H18.2978V82.425ZM21.9316 82.425H22.84V81.425H21.9316V82.425ZM22.34 81.925V82.6844H23.34V81.925H22.34ZM22.34 84.2031V85.7219H23.34V84.2031H22.34ZM22.34 87.2406V88H23.34V87.2406H22.34ZM22.84 87.5H21.7713V88.5H22.84V87.5ZM19.6338 87.5H17.4963V88.5H19.6338V87.5ZM15.3588 87.5H13.2213V88.5H15.3588V87.5ZM11.0837 87.5H8.94625V88.5H11.0837V87.5ZM6.80875 87.5H4.67125V88.5H6.80875V87.5ZM2.53375 87.5H1.465V88.5H2.53375V87.5ZM1.465 88H0.465V89H1.465V88ZM1.465 56.59V55.59H0.465V56.59H1.465ZM22.84 56.59H23.84V55.59H22.84V56.59ZM22.84 62.665V63.665H23.84V62.665H22.84ZM8.305 62.665V61.665H7.305V62.665H8.305ZM8.305 69.1H7.305V70.1H8.305V69.1ZM20.77 69.1H21.77V68.1H20.77V69.1ZM20.77 75.13V76.13H21.77V75.13H20.77ZM8.305 75.13V74.13H7.305V75.13H8.305ZM8.305 81.925H7.305V82.925H8.305V81.925ZM22.84 81.925H23.84V80.925H22.84V81.925ZM22.84 88V89H23.84V88H22.84ZM2.465 88V87.0184H0.465V88H2.465ZM2.465 85.0553V83.0922H0.465V85.0553H2.465ZM2.465 81.1291V79.1659H0.465V81.1291H2.465ZM2.465 77.2028V75.2397H0.465V77.2028H2.465ZM2.465 73.2766V71.3134H0.465V73.2766H2.465ZM2.465 69.3503V67.3872H0.465V69.3503H2.465ZM2.465 65.4241V63.4609H0.465V65.4241H2.465ZM2.465 61.4978V59.5347H0.465V61.4978H2.465ZM2.465 57.5716V56.59H0.465V57.5716H2.465ZM1.465 57.59H2.53375V55.59H1.465V57.59ZM4.67125 57.59H6.80875V55.59H4.67125V57.59ZM8.94625 57.59H11.0838V55.59H8.94625V57.59ZM13.2213 57.59H15.3588V55.59H13.2213V57.59ZM17.4963 57.59H19.6338V55.59H17.4963V57.59ZM21.7713 57.59H22.84V55.59H21.7713V57.59ZM21.84 56.59V57.3494H23.84V56.59H21.84ZM21.84 58.8681V60.3869H23.84V58.8681H21.84ZM21.84 61.9056V62.665H23.84V61.9056H21.84ZM22.84 61.665H21.9316V63.665H22.84V61.665ZM20.1147 61.665H18.2978V63.665H20.1147V61.665ZM16.4809 61.665H14.6641V63.665H16.4809V61.665ZM12.8472 61.665H11.0303V63.665H12.8472V61.665ZM9.21344 61.665H8.305V63.665H9.21344V61.665ZM7.305 62.665V63.4694H9.305V62.665H7.305ZM7.305 65.0781V66.6869H9.305V65.0781H7.305ZM7.305 68.2956V69.1H9.305V68.2956H7.305ZM8.305 70.1H9.34375V68.1H8.305V70.1ZM11.4213 70.1H13.4988V68.1H11.4213V70.1ZM15.5763 70.1H17.6538V68.1H15.5763V70.1ZM19.7313 70.1H20.77V68.1H19.7313V70.1ZM19.77 69.1V69.8537H21.77V69.1H19.77ZM19.77 71.3612V72.8687H21.77V71.3612H19.77ZM19.77 74.3762V75.13H21.77V74.3762H19.77ZM20.77 74.13H19.7313V76.13H20.77V74.13ZM17.6538 74.13H15.5763V76.13H17.6538V74.13ZM13.4988 74.13H11.4213V76.13H13.4988V74.13ZM9.34375 74.13H8.305V76.13H9.34375V74.13ZM7.305 75.13V75.9794H9.305V75.13H7.305ZM7.305 77.6781V79.3769H9.305V77.6781H7.305ZM7.305 81.0756V81.925H9.305V81.0756H7.305ZM8.305 82.925H9.21344V80.925H8.305V82.925ZM11.0303 82.925H12.8472V80.925H11.0303V82.925ZM14.6641 82.925H16.4809V80.925H14.6641V82.925ZM18.2978 82.925H20.1147V80.925H18.2978V82.925ZM21.9316 82.925H22.84V80.925H21.9316V82.925ZM21.84 81.925V82.6844H23.84V81.925H21.84ZM21.84 84.2031V85.7219H23.84V84.2031H21.84ZM21.84 87.2406V88H23.84V87.2406H21.84ZM22.84 87H21.7713V89H22.84V87ZM19.6338 87H17.4963V89H19.6338V87ZM15.3588 87H13.2213V89H15.3588V87ZM11.0837 87H8.94625V89H11.0837V87ZM6.80875 87H4.67125V89H6.80875V87ZM2.53375 87H1.465V89H2.53375V87ZM38.384 73.15L37.933 73.3658L37.9414 73.3835L37.9512 73.4005L38.384 73.15ZM35.369 66.85L35.82 66.6342L35.684 66.35H35.369V66.85ZM35.234 66.85V66.35H34.734V66.85H35.234ZM35.234 88V88.5H35.734V88H35.234ZM28.799 88H28.299V88.5H28.799V88ZM28.799 56.59V56.09H28.299V56.59H28.799ZM36.269 56.59L36.7017 56.3395L36.5573 56.09H36.269V56.59ZM44.864 71.44L45.315 71.2242L45.3065 71.2065L45.2967 71.1895L44.864 71.44ZM47.879 77.74L47.428 77.9558L47.564 78.24H47.879V77.74ZM48.014 77.74V78.24H48.514V77.74H48.014ZM48.014 56.59V56.09H47.514V56.59H48.014ZM54.449 56.59H54.949V56.09H54.449V56.59ZM54.449 88V88.5H54.949V88H54.449ZM46.979 88L46.5462 88.2505L46.6907 88.5H46.979V88ZM38.835 72.9342L38.4581 72.1467L37.5561 72.5783L37.933 73.3658L38.835 72.9342ZM37.7044 70.5717L36.9506 68.9967L36.0486 69.4283L36.8023 71.0033L37.7044 70.5717ZM36.1969 67.4217L35.82 66.6342L34.918 67.0658L35.2948 67.8533L36.1969 67.4217ZM35.369 66.35H35.3352V67.35H35.369V66.35ZM35.2677 66.35H35.234V67.35H35.2677V66.35ZM34.734 66.85V67.9075H35.734V66.85H34.734ZM34.734 70.0225V72.1375H35.734V70.0225H34.734ZM34.734 74.2525V76.3675H35.734V74.2525H34.734ZM34.734 78.4825V80.5975H35.734V78.4825H34.734ZM34.734 82.7125V84.8275H35.734V82.7125H34.734ZM34.734 86.9425V88H35.734V86.9425H34.734ZM35.234 87.5H34.4296V88.5H35.234V87.5ZM32.8209 87.5H31.2121V88.5H32.8209V87.5ZM29.6034 87.5H28.799V88.5H29.6034V87.5ZM29.299 88V87.0184H28.299V88H29.299ZM29.299 85.0553V83.0922H28.299V85.0553H29.299ZM29.299 81.1291V79.1659H28.299V81.1291H29.299ZM29.299 77.2028V75.2397H28.299V77.2028H29.299ZM29.299 73.2766V71.3134H28.299V73.2766H29.299ZM29.299 69.3503V67.3872H28.299V69.3503H29.299ZM29.299 65.4241V63.4609H28.299V65.4241H29.299ZM29.299 61.4978V59.5347H28.299V61.4978H29.299ZM29.299 57.5716V56.59H28.299V57.5716H29.299ZM28.799 57.09H29.7327V56.09H28.799V57.09ZM31.6002 57.09H33.4677V56.09H31.6002V57.09ZM35.3352 57.09H36.269V56.09H35.3352V57.09ZM35.8362 56.8405L36.3734 57.7686L37.2389 57.2677L36.7017 56.3395L35.8362 56.8405ZM37.4478 59.6248L38.5222 61.4811L39.3877 60.9802L38.3133 59.1239L37.4478 59.6248ZM39.5966 63.3373L40.6709 65.1936L41.5364 64.6927L40.462 62.8364L39.5966 63.3373ZM41.7453 67.0498L42.8197 68.9061L43.6852 68.4052L42.6108 66.5489L41.7453 67.0498ZM43.8941 70.7623L44.4312 71.6905L45.2967 71.1895L44.7595 70.2614L43.8941 70.7623ZM44.413 71.6558L44.7898 72.4433L45.6919 72.0117L45.315 71.2242L44.413 71.6558ZM45.5436 74.0183L46.2973 75.5933L47.1994 75.1617L46.4456 73.5867L45.5436 74.0183ZM47.0511 77.1683L47.428 77.9558L48.33 77.5242L47.9531 76.7367L47.0511 77.1683ZM47.879 78.24H47.9127V77.24H47.879V78.24ZM47.9802 78.24H48.014V77.24H47.9802V78.24ZM48.514 77.74V76.6825H47.514V77.74H48.514ZM48.514 74.5675V72.4525H47.514V74.5675H48.514ZM48.514 70.3375V68.2225H47.514V70.3375H48.514ZM48.514 66.1075V63.9925H47.514V66.1075H48.514ZM48.514 61.8775V59.7625H47.514V61.8775H48.514ZM48.514 57.6475V56.59H47.514V57.6475H48.514ZM48.014 57.09H48.8184V56.09H48.014V57.09ZM50.4271 57.09H52.0359V56.09H50.4271V57.09ZM53.6446 57.09H54.449V56.09H53.6446V57.09ZM53.949 56.59V57.5716H54.949V56.59H53.949ZM53.949 59.5347V61.4978H54.949V59.5347H53.949ZM53.949 63.4609V65.4241H54.949V63.4609H53.949ZM53.949 67.3872V69.3503H54.949V67.3872H53.949ZM53.949 71.3134V73.2766H54.949V71.3134H53.949ZM53.949 75.2397V77.2028H54.949V75.2397H53.949ZM53.949 79.1659V81.1291H54.949V79.1659H53.949ZM53.949 83.0922V85.0553H54.949V83.0922H53.949ZM53.949 87.0184V88H54.949V87.0184H53.949ZM54.449 87.5H53.5152V88.5H54.449V87.5ZM51.6477 87.5H49.7802V88.5H51.6477V87.5ZM47.9127 87.5H46.979V88.5H47.9127V87.5ZM47.4117 87.7495L46.8745 86.8214L46.0091 87.3223L46.5462 88.2505L47.4117 87.7495ZM45.8002 84.9652L44.7258 83.1089L43.8603 83.6098L44.9347 85.4661L45.8002 84.9652ZM43.6514 81.2527L42.577 79.3964L41.7116 79.8973L42.7859 81.7536L43.6514 81.2527ZM41.5027 77.5402L40.4283 75.6839L39.5628 76.1848L40.6372 78.0411L41.5027 77.5402ZM39.3539 73.8277L38.8167 72.8995L37.9512 73.4005L38.4884 74.3286L39.3539 73.8277ZM38.384 73.15L37.482 73.5817L37.4989 73.617L37.5185 73.6509L38.384 73.15ZM35.369 66.85L36.271 66.4183L35.999 65.85H35.369V66.85ZM35.234 66.85V65.85H34.234V66.85H35.234ZM35.234 88V89H36.234V88H35.234ZM28.799 88H27.799V89H28.799V88ZM28.799 56.59V55.59H27.799V56.59H28.799ZM36.269 56.59L37.1345 56.0891L36.8456 55.59H36.269V56.59ZM44.864 71.44L45.766 71.0083L45.7491 70.973L45.7295 70.9391L44.864 71.44ZM47.879 77.74L46.977 78.1717L47.2489 78.74H47.879V77.74ZM48.014 77.74V78.74H49.014V77.74H48.014ZM48.014 56.59V55.59H47.014V56.59H48.014ZM54.449 56.59H55.449V55.59H54.449V56.59ZM54.449 88V89H55.449V88H54.449ZM46.979 88L46.1135 88.5009L46.4024 89H46.979V88ZM39.286 72.7183L38.9091 71.9308L37.1051 72.7942L37.482 73.5817L39.286 72.7183ZM38.1554 70.3558L37.4016 68.7808L35.5976 69.6442L36.3513 71.2192L38.1554 70.3558ZM36.6479 67.2058L36.271 66.4183L34.467 67.2817L34.8438 68.0692L36.6479 67.2058ZM35.369 65.85H35.3352V67.85H35.369V65.85ZM35.2677 65.85H35.234V67.85H35.2677V65.85ZM34.234 66.85V67.9075H36.234V66.85H34.234ZM34.234 70.0225V72.1375H36.234V70.0225H34.234ZM34.234 74.2525V76.3675H36.234V74.2525H34.234ZM34.234 78.4825V80.5975H36.234V78.4825H34.234ZM34.234 82.7125V84.8275H36.234V82.7125H34.234ZM34.234 86.9425V88H36.234V86.9425H34.234ZM35.234 87H34.4296V89H35.234V87ZM32.8209 87H31.2121V89H32.8209V87ZM29.6034 87H28.799V89H29.6034V87ZM29.799 88V87.0184H27.799V88H29.799ZM29.799 85.0553V83.0922H27.799V85.0553H29.799ZM29.799 81.1291V79.1659H27.799V81.1291H29.799ZM29.799 77.2028V75.2397H27.799V77.2028H29.799ZM29.799 73.2766V71.3134H27.799V73.2766H29.799ZM29.799 69.3503V67.3872H27.799V69.3503H29.799ZM29.799 65.4241V63.4609H27.799V65.4241H29.799ZM29.799 61.4978V59.5347H27.799V61.4978H29.799ZM29.799 57.5716V56.59H27.799V57.5716H29.799ZM28.799 57.59H29.7327V55.59H28.799V57.59ZM31.6002 57.59H33.4677V55.59H31.6002V57.59ZM35.3352 57.59H36.269V55.59H35.3352V57.59ZM35.4035 57.0909L35.9407 58.0191L37.6717 57.0172L37.1345 56.0891L35.4035 57.0909ZM37.0151 59.8753L38.0894 61.7316L39.8204 60.7297L38.746 58.8734L37.0151 59.8753ZM39.1638 63.5878L40.2382 65.4441L41.9692 64.4422L40.8948 62.5859L39.1638 63.5878ZM41.3126 67.3003L42.3869 69.1566L44.1179 68.1547L43.0435 66.2984L41.3126 67.3003ZM43.4613 71.0128L43.9985 71.9409L45.7295 70.9391L45.1923 70.0109L43.4613 71.0128ZM43.962 71.8717L44.3388 72.6592L46.1429 71.7958L45.766 71.0083L43.962 71.8717ZM45.0926 74.2342L45.8463 75.8092L47.6504 74.9458L46.8966 73.3708L45.0926 74.2342ZM46.6001 77.3842L46.977 78.1717L48.781 77.3083L48.4041 76.5208L46.6001 77.3842ZM47.879 78.74H47.9127V76.74H47.879V78.74ZM47.9802 78.74H48.014V76.74H47.9802V78.74ZM49.014 77.74V76.6825H47.014V77.74H49.014ZM49.014 74.5675V72.4525H47.014V74.5675H49.014ZM49.014 70.3375V68.2225H47.014V70.3375H49.014ZM49.014 66.1075V63.9925H47.014V66.1075H49.014ZM49.014 61.8775V59.7625H47.014V61.8775H49.014ZM49.014 57.6475V56.59H47.014V57.6475H49.014ZM48.014 57.59H48.8184V55.59H48.014V57.59ZM50.4271 57.59H52.0359V55.59H50.4271V57.59ZM53.6446 57.59H54.449V55.59H53.6446V57.59ZM53.449 56.59V57.5716H55.449V56.59H53.449ZM53.449 59.5347V61.4978H55.449V59.5347H53.449ZM53.449 63.4609V65.4241H55.449V63.4609H53.449ZM53.449 67.3872V69.3503H55.449V67.3872H53.449ZM53.449 71.3134V73.2766H55.449V71.3134H53.449ZM53.449 75.2397V77.2028H55.449V75.2397H53.449ZM53.449 79.1659V81.1291H55.449V79.1659H53.449ZM53.449 83.0922V85.0553H55.449V83.0922H53.449ZM53.449 87.0184V88H55.449V87.0184H53.449ZM54.449 87H53.5152V89H54.449V87ZM51.6477 87H49.7802V89H51.6477V87ZM47.9127 87H46.979V89H47.9127V87ZM47.8445 87.4991L47.3073 86.5709L45.5763 87.5728L46.1135 88.5009L47.8445 87.4991ZM46.2329 84.7147L45.1585 82.8584L43.4276 83.8603L44.5019 85.7166L46.2329 84.7147ZM44.0842 81.0022L43.0098 79.1459L41.2788 80.1478L42.3532 82.0041L44.0842 81.0022ZM41.9354 77.2897L40.861 75.4334L39.1301 76.4353L40.2044 78.2916L41.9354 77.2897ZM39.7867 73.5772L39.2495 72.6491L37.5185 73.6509L38.0557 74.5791L39.7867 73.5772Z" fill="#DADADA"></path> </svg> 