<?xml version="1.0" encoding="UTF-8"?> <svg xmlns="http://www.w3.org/2000/svg" width="107" height="79" viewBox="0 0 107 79" fill="none"> <path d="M11.755 33L11.2791 33.1534L11.3908 33.5H11.755V33ZM1.63 1.59V1.09H0.94349L1.15411 1.7434L1.63 1.59ZM8.56 1.59L9.03752 1.44175L8.92832 1.09H8.56V1.59ZM13.24 16.665L13.7249 16.5432L13.7216 16.5299L13.7175 16.5168L13.24 16.665ZM15.715 26.52L15.2301 26.6418L15.325 27.02H15.715V26.52ZM15.85 26.52V27.02H16.2434L16.336 26.6376L15.85 26.52ZM18.235 16.665L17.7575 16.5168L17.7528 16.5319L17.749 16.5474L18.235 16.665ZM22.915 1.59V1.09H22.5467L22.4375 1.44175L22.915 1.59ZM29.62 1.59L30.0955 1.74463L30.3084 1.09H29.62V1.59ZM19.405 33V33.5H19.7682L19.8805 33.1546L19.405 33ZM12.2309 32.8466L11.9145 31.865L10.9627 32.1718L11.2791 33.1534L12.2309 32.8466ZM11.2817 29.9019L10.6489 27.9388L9.69708 28.2456L10.3299 30.2087L11.2817 29.9019ZM10.016 25.9757L9.38323 24.0125L8.43146 24.3193L9.06427 26.2825L10.016 25.9757ZM8.75042 22.0494L8.11761 20.0863L7.16583 20.3931L7.79865 22.3562L8.75042 22.0494ZM7.48479 18.1232L6.85198 16.16L5.90021 16.4668L6.53302 18.43L7.48479 18.1232ZM6.21917 14.1969L5.58635 12.2338L4.63458 12.5406L5.26739 14.5037L6.21917 14.1969ZM4.95354 10.2707L4.32073 8.30753L3.36896 8.61434L4.00177 10.5775L4.95354 10.2707ZM3.68792 6.3444L3.0551 4.38128L2.10333 4.68808L2.73614 6.65121L3.68792 6.3444ZM2.42229 2.41815L2.10589 1.4366L1.15411 1.7434L1.47052 2.72496L2.42229 2.41815ZM1.63 2.09H2.49625V1.09H1.63V2.09ZM4.22875 2.09H5.96125V1.09H4.22875V2.09ZM7.69375 2.09H8.56V1.09H7.69375V2.09ZM8.08248 1.73824L8.37498 2.68043L9.33002 2.38394L9.03752 1.44175L8.08248 1.73824ZM8.95998 4.56481L9.54498 6.44918L10.5 6.15269L9.91502 4.26832L8.95998 4.56481ZM10.13 8.33356L10.715 10.2179L11.67 9.92144L11.085 8.03707L10.13 8.33356ZM11.3 12.1023L11.885 13.9867L12.84 13.6902L12.255 11.8058L11.3 12.1023ZM12.47 15.8711L12.7625 16.8132L13.7175 16.5168L13.425 15.5746L12.47 15.8711ZM12.7551 16.7868L12.9613 17.608L13.9312 17.3645L13.7249 16.5432L12.7551 16.7868ZM13.3738 19.2505L13.7863 20.893L14.7562 20.6495L14.3437 19.007L13.3738 19.2505ZM14.1988 22.5355L14.6113 24.178L15.5812 23.9345L15.1687 22.292L14.1988 22.5355ZM15.0238 25.8205L15.2301 26.6418L16.1999 26.3982L15.9937 25.577L15.0238 25.8205ZM15.715 27.02H15.7488V26.02H15.715V27.02ZM15.8163 27.02H15.85V26.02H15.8163V27.02ZM16.336 26.6376L16.5347 25.8164L15.5628 25.5811L15.364 26.4024L16.336 26.6376ZM16.9322 24.1739L17.3297 22.5314L16.3578 22.2961L15.9603 23.9386L16.9322 24.1739ZM17.7272 20.8889L18.1247 19.2464L17.1528 19.0111L16.7553 20.6536L17.7272 20.8889ZM18.5222 17.6039L18.721 16.7826L17.749 16.5474L17.5503 17.3686L18.5222 17.6039ZM18.7125 16.8132L19.005 15.8711L18.05 15.5746L17.7575 16.5168L18.7125 16.8132ZM19.59 13.9867L20.175 12.1023L19.22 11.8058L18.635 13.6902L19.59 13.9867ZM20.76 10.2179L21.345 8.33356L20.39 8.03707L19.805 9.92144L20.76 10.2179ZM21.93 6.44918L22.515 4.56481L21.56 4.26832L20.975 6.15269L21.93 6.44918ZM23.1 2.68043L23.3925 1.73824L22.4375 1.44175L22.145 2.38394L23.1 2.68043ZM22.915 2.09H23.7531V1.09H22.915V2.09ZM25.4294 2.09H27.1056V1.09H25.4294V2.09ZM28.7819 2.09H29.62V1.09H28.7819V2.09ZM29.1445 1.43536L28.8253 2.41693L29.7763 2.7262L30.0955 1.74463L29.1445 1.43536ZM28.1869 4.38005L27.5484 6.34318L28.4994 6.65245L29.1378 4.68932L28.1869 4.38005ZM26.91 8.3063L26.2715 10.2694L27.2225 10.5787L27.861 8.61557L26.91 8.3063ZM25.6331 12.2326L24.9947 14.1957L25.9456 14.5049L26.5841 12.5418L25.6331 12.2326ZM24.3562 16.1588L23.7178 18.1219L24.6688 18.4312L25.3072 16.4681L24.3562 16.1588ZM23.0794 20.0851L22.4409 22.0482L23.3919 22.3574L24.0303 20.3943L23.0794 20.0851ZM21.8025 24.0113L21.164 25.9744L22.115 26.2837L22.7535 24.3206L21.8025 24.0113ZM20.5256 27.9376L19.8872 29.9007L20.8381 30.2099L21.4766 28.2468L20.5256 27.9376ZM19.2487 31.8638L18.9295 32.8454L19.8805 33.1546L20.1997 32.1731L19.2487 31.8638ZM19.405 32.5H18.4488V33.5H19.405V32.5ZM16.5363 32.5H14.6238V33.5H16.5363V32.5ZM12.7113 32.5H11.755V33.5H12.7113V32.5ZM11.755 33L10.8032 33.3068L11.0267 34H11.755V33ZM1.63 1.59V0.589999H0.25698L0.678227 1.8968L1.63 1.59ZM8.56 1.59L9.51504 1.29351L9.29663 0.589999H8.56V1.59ZM13.24 16.665L14.2099 16.4214L14.2032 16.3948L14.195 16.3685L13.24 16.665ZM15.715 26.52L14.7451 26.7636L14.9351 27.52H15.715V26.52ZM15.85 26.52V27.52H16.6369L16.8219 26.7552L15.85 26.52ZM18.235 16.665L17.28 16.3685L17.2705 16.3989L17.2631 16.4298L18.235 16.665ZM22.915 1.59V0.589999H22.1784L21.96 1.29351L22.915 1.59ZM29.62 1.59L30.571 1.89927L30.9968 0.589999H29.62V1.59ZM19.405 33V34H20.1313L20.356 33.3093L19.405 33ZM12.7068 32.6932L12.3904 31.7116L10.4868 32.3252L10.8032 33.3068L12.7068 32.6932ZM11.7576 29.7485L11.1247 27.7854L9.2212 28.399L9.85401 30.3621L11.7576 29.7485ZM10.4919 25.8223L9.85912 23.8591L7.95557 24.4727L8.58838 26.4359L10.4919 25.8223ZM9.2263 21.896L8.59349 19.9329L6.68995 20.5465L7.32276 22.5096L9.2263 21.896ZM7.96068 17.9698L7.32787 16.0066L5.42432 16.6202L6.05713 18.5834L7.96068 17.9698ZM6.69505 14.0435L6.06224 12.0804L4.1587 12.694L4.79151 14.6571L6.69505 14.0435ZM5.42943 10.1173L4.79662 8.15413L2.89307 8.76774L3.52588 10.7309L5.42943 10.1173ZM4.1638 6.191L3.53099 4.22788L1.62744 4.84148L2.26026 6.80461L4.1638 6.191ZM2.89818 2.26475L2.58177 1.2832L0.678227 1.8968L0.994631 2.87836L2.89818 2.26475ZM1.63 2.59H2.49625V0.589999H1.63V2.59ZM4.22875 2.59H5.96125V0.589999H4.22875V2.59ZM7.69375 2.59H8.56V0.589999H7.69375V2.59ZM7.60496 1.88649L7.89746 2.82868L9.80754 2.2357L9.51504 1.29351L7.60496 1.88649ZM8.48246 4.71305L9.06746 6.59743L10.9775 6.00445L10.3925 4.12007L8.48246 4.71305ZM9.65246 8.4818L10.2375 10.3662L12.1475 9.7732L11.5625 7.88882L9.65246 8.4818ZM10.8225 12.2506L11.4075 14.1349L13.3175 13.5419L12.7325 11.6576L10.8225 12.2506ZM11.9925 16.0193L12.285 16.9615L14.195 16.3685L13.9025 15.4263L11.9925 16.0193ZM12.2701 16.9086L12.4764 17.7298L14.4161 17.2427L14.2099 16.4214L12.2701 16.9086ZM12.8889 19.3723L13.3014 21.0148L15.2411 20.5277L14.8286 18.8852L12.8889 19.3723ZM13.7139 22.6573L14.1264 24.2998L16.0661 23.8127L15.6536 22.1702L13.7139 22.6573ZM14.5389 25.9423L14.7451 26.7636L16.6849 26.2764L16.4786 25.4552L14.5389 25.9423ZM15.715 27.52H15.7488V25.52H15.715V27.52ZM15.8163 27.52H15.85V25.52H15.8163V27.52ZM16.8219 26.7552L17.0207 25.934L15.0768 25.4635L14.8781 26.2848L16.8219 26.7552ZM17.4182 24.2915L17.8157 22.649L15.8718 22.1785L15.4743 23.821L17.4182 24.2915ZM18.2132 21.0065L18.6107 19.364L16.6668 18.8935L16.2693 20.536L18.2132 21.0065ZM19.0082 17.7215L19.2069 16.9002L17.2631 16.4298L17.0643 17.251L19.0082 17.7215ZM19.19 16.9615L19.4825 16.0193L17.5725 15.4263L17.28 16.3685L19.19 16.9615ZM20.0675 14.1349L20.6525 12.2506L18.7425 11.6576L18.1575 13.5419L20.0675 14.1349ZM21.2375 10.3662L21.8225 8.4818L19.9125 7.88882L19.3275 9.7732L21.2375 10.3662ZM22.4075 6.59743L22.9925 4.71305L21.0825 4.12007L20.4975 6.00445L22.4075 6.59743ZM23.5775 2.82867L23.87 1.88649L21.96 1.29351L21.6675 2.2357L23.5775 2.82867ZM22.915 2.59H23.7531V0.589999H22.915V2.59ZM25.4294 2.59H27.1056V0.589999H25.4294V2.59ZM28.7819 2.59H29.62V0.589999H28.7819V2.59ZM28.669 1.28073L28.3498 2.26229L30.2518 2.88083L30.571 1.89927L28.669 1.28073ZM27.7114 4.22542L27.0729 6.18854L28.9749 6.80708L29.6133 4.84396L27.7114 4.22542ZM26.4345 8.15167L25.7961 10.1148L27.698 10.7333L28.3364 8.77021L26.4345 8.15167ZM25.1576 12.0779L24.5192 14.041L26.4211 14.6596L27.0596 12.6965L25.1576 12.0779ZM23.8807 16.0042L23.2423 17.9673L25.1443 18.5858L25.7827 16.6227L23.8807 16.0042ZM22.6039 19.9304L21.9654 21.8935L23.8674 22.5121L24.5058 20.549L22.6039 19.9304ZM21.327 23.8567L20.6886 25.8198L22.5905 26.4383L23.2289 24.4752L21.327 23.8567ZM20.0501 27.7829L19.4117 29.746L21.3136 30.3646L21.9521 28.4015L20.0501 27.7829ZM18.7732 31.7092L18.454 32.6907L20.356 33.3093L20.6752 32.3277L18.7732 31.7092ZM19.405 32H18.4488V34H19.405V32ZM16.5363 32H14.6238V34H16.5363V32ZM12.7113 32H11.755V34H12.7113V32ZM33.7326 33H33.2326V33.5H33.7326V33ZM33.7326 1.59V1.09H33.2326V1.59H33.7326ZM55.1076 1.59H55.6076V1.09H55.1076V1.59ZM55.1076 7.665V8.165H55.6076V7.665H55.1076ZM40.5726 7.665V7.165H40.0726V7.665H40.5726ZM40.5726 14.1H40.0726V14.6H40.5726V14.1ZM53.0376 14.1H53.5376V13.6H53.0376V14.1ZM53.0376 20.13V20.63H53.5376V20.13H53.0376ZM40.5726 20.13V19.63H40.0726V20.13H40.5726ZM40.5726 26.925H40.0726V27.425H40.5726V26.925ZM55.1076 26.925H55.6076V26.425H55.1076V26.925ZM55.1076 33V33.5H55.6076V33H55.1076ZM34.2326 33V32.0184H33.2326V33H34.2326ZM34.2326 30.0553V28.0922H33.2326V30.0553H34.2326ZM34.2326 26.1291V24.1659H33.2326V26.1291H34.2326ZM34.2326 22.2028V20.2397H33.2326V22.2028H34.2326ZM34.2326 18.2766V16.3134H33.2326V18.2766H34.2326ZM34.2326 14.3503V12.3872H33.2326V14.3503H34.2326ZM34.2326 10.4241V8.46094H33.2326V10.4241H34.2326ZM34.2326 6.49781V4.53469H33.2326V6.49781H34.2326ZM34.2326 2.57156V1.59H33.2326V2.57156H34.2326ZM33.7326 2.09H34.8013V1.09H33.7326V2.09ZM36.9388 2.09H39.0763V1.09H36.9388V2.09ZM41.2138 2.09H43.3513V1.09H41.2138V2.09ZM45.4888 2.09H47.6263V1.09H45.4888V2.09ZM49.7638 2.09H51.9013V1.09H49.7638V2.09ZM54.0388 2.09H55.1076V1.09H54.0388V2.09ZM54.6076 1.59V2.34937H55.6076V1.59H54.6076ZM54.6076 3.86812V5.38687H55.6076V3.86812H54.6076ZM54.6076 6.90562V7.665H55.6076V6.90562H54.6076ZM55.1076 7.165H54.1991V8.165H55.1076V7.165ZM52.3823 7.165H50.5654V8.165H52.3823V7.165ZM48.7485 7.165H46.9316V8.165H48.7485V7.165ZM45.1148 7.165H43.2979V8.165H45.1148V7.165ZM41.481 7.165H40.5726V8.165H41.481V7.165ZM40.0726 7.665V8.46937H41.0726V7.665H40.0726ZM40.0726 10.0781V11.6869H41.0726V10.0781H40.0726ZM40.0726 13.2956V14.1H41.0726V13.2956H40.0726ZM40.5726 14.6H41.6113V13.6H40.5726V14.6ZM43.6888 14.6H45.7663V13.6H43.6888V14.6ZM47.8438 14.6H49.9213V13.6H47.8438V14.6ZM51.9988 14.6H53.0376V13.6H51.9988V14.6ZM52.5376 14.1V14.8537H53.5376V14.1H52.5376ZM52.5376 16.3612V17.8687H53.5376V16.3612H52.5376ZM52.5376 19.3762V20.13H53.5376V19.3762H52.5376ZM53.0376 19.63H51.9988V20.63H53.0376V19.63ZM49.9213 19.63H47.8438V20.63H49.9213V19.63ZM45.7663 19.63H43.6888V20.63H45.7663V19.63ZM41.6113 19.63H40.5726V20.63H41.6113V19.63ZM40.0726 20.13V20.9794H41.0726V20.13H40.0726ZM40.0726 22.6781V24.3769H41.0726V22.6781H40.0726ZM40.0726 26.0756V26.925H41.0726V26.0756H40.0726ZM40.5726 27.425H41.481V26.425H40.5726V27.425ZM43.2979 27.425H45.1148V26.425H43.2979V27.425ZM46.9316 27.425H48.7485V26.425H46.9316V27.425ZM50.5654 27.425H52.3823V26.425H50.5654V27.425ZM54.1991 27.425H55.1076V26.425H54.1991V27.425ZM54.6076 26.925V27.6844H55.6076V26.925H54.6076ZM54.6076 29.2031V30.7219H55.6076V29.2031H54.6076ZM54.6076 32.2406V33H55.6076V32.2406H54.6076ZM55.1076 32.5H54.0388V33.5H55.1076V32.5ZM51.9013 32.5H49.7638V33.5H51.9013V32.5ZM47.6263 32.5H45.4888V33.5H47.6263V32.5ZM43.3513 32.5H41.2138V33.5H43.3513V32.5ZM39.0763 32.5H36.9388V33.5H39.0763V32.5ZM34.8013 32.5H33.7326V33.5H34.8013V32.5ZM33.7326 33H32.7326V34H33.7326V33ZM33.7326 1.59V0.589999H32.7326V1.59H33.7326ZM55.1076 1.59H56.1076V0.589999H55.1076V1.59ZM55.1076 7.665V8.665H56.1076V7.665H55.1076ZM40.5726 7.665V6.665H39.5726V7.665H40.5726ZM40.5726 14.1H39.5726V15.1H40.5726V14.1ZM53.0376 14.1H54.0376V13.1H53.0376V14.1ZM53.0376 20.13V21.13H54.0376V20.13H53.0376ZM40.5726 20.13V19.13H39.5726V20.13H40.5726ZM40.5726 26.925H39.5726V27.925H40.5726V26.925ZM55.1076 26.925H56.1076V25.925H55.1076V26.925ZM55.1076 33V34H56.1076V33H55.1076ZM34.7326 33V32.0184H32.7326V33H34.7326ZM34.7326 30.0553V28.0922H32.7326V30.0553H34.7326ZM34.7326 26.1291V24.1659H32.7326V26.1291H34.7326ZM34.7326 22.2028V20.2397H32.7326V22.2028H34.7326ZM34.7326 18.2766V16.3134H32.7326V18.2766H34.7326ZM34.7326 14.3503V12.3872H32.7326V14.3503H34.7326ZM34.7326 10.4241V8.46094H32.7326V10.4241H34.7326ZM34.7326 6.49781V4.53469H32.7326V6.49781H34.7326ZM34.7326 2.57156V1.59H32.7326V2.57156H34.7326ZM33.7326 2.59H34.8013V0.589999H33.7326V2.59ZM36.9388 2.59H39.0763V0.589999H36.9388V2.59ZM41.2138 2.59H43.3513V0.589999H41.2138V2.59ZM45.4888 2.59H47.6263V0.589999H45.4888V2.59ZM49.7638 2.59H51.9013V0.589999H49.7638V2.59ZM54.0388 2.59H55.1076V0.589999H54.0388V2.59ZM54.1076 1.59V2.34937H56.1076V1.59H54.1076ZM54.1076 3.86812V5.38687H56.1076V3.86812H54.1076ZM54.1076 6.90562V7.665H56.1076V6.90562H54.1076ZM55.1076 6.665H54.1991V8.665H55.1076V6.665ZM52.3823 6.665H50.5654V8.665H52.3823V6.665ZM48.7485 6.665H46.9316V8.665H48.7485V6.665ZM45.1148 6.665H43.2979V8.665H45.1148V6.665ZM41.481 6.665H40.5726V8.665H41.481V6.665ZM39.5726 7.665V8.46937H41.5726V7.665H39.5726ZM39.5726 10.0781V11.6869H41.5726V10.0781H39.5726ZM39.5726 13.2956V14.1H41.5726V13.2956H39.5726ZM40.5726 15.1H41.6113V13.1H40.5726V15.1ZM43.6888 15.1H45.7663V13.1H43.6888V15.1ZM47.8438 15.1H49.9213V13.1H47.8438V15.1ZM51.9988 15.1H53.0376V13.1H51.9988V15.1ZM52.0376 14.1V14.8537H54.0376V14.1H52.0376ZM52.0376 16.3612V17.8687H54.0376V16.3612H52.0376ZM52.0376 19.3762V20.13H54.0376V19.3762H52.0376ZM53.0376 19.13H51.9988V21.13H53.0376V19.13ZM49.9213 19.13H47.8438V21.13H49.9213V19.13ZM45.7663 19.13H43.6888V21.13H45.7663V19.13ZM41.6113 19.13H40.5726V21.13H41.6113V19.13ZM39.5726 20.13V20.9794H41.5726V20.13H39.5726ZM39.5726 22.6781V24.3769H41.5726V22.6781H39.5726ZM39.5726 26.0756V26.925H41.5726V26.0756H39.5726ZM40.5726 27.925H41.481V25.925H40.5726V27.925ZM43.2979 27.925H45.1148V25.925H43.2979V27.925ZM46.9316 27.925H48.7485V25.925H46.9316V27.925ZM50.5654 27.925H52.3823V25.925H50.5654V27.925ZM54.1991 27.925H55.1076V25.925H54.1991V27.925ZM54.1076 26.925V27.6844H56.1076V26.925H54.1076ZM54.1076 29.2031V30.7219H56.1076V29.2031H54.1076ZM54.1076 32.2406V33H56.1076V32.2406H54.1076ZM55.1076 32H54.0388V34H55.1076V32ZM51.9013 32H49.7638V34H51.9013V32ZM47.6263 32H45.4888V34H47.6263V32ZM43.3513 32H41.2138V34H43.3513V32ZM39.0763 32H36.9388V34H39.0763V32ZM34.8013 32H33.7326V34H34.8013V32ZM67.9066 33V33.5H68.4066V33H67.9066ZM61.0666 33H60.5666V33.5H61.0666V33ZM61.0666 1.59V1.09H60.5666V1.59H61.0666ZM79.8766 2.31L80.0663 1.84741L80.0663 1.84741L79.8766 2.31ZM82.8466 4.38L82.4749 4.71448L82.4808 4.72099L82.4869 4.7273L82.8466 4.38ZM84.0166 17.205L83.5885 16.9465L83.585 16.9526L84.0166 17.205ZM79.7416 20.67L79.566 20.2018L79.046 20.3968L79.2943 20.8936L79.7416 20.67ZM85.9066 33V33.5H86.7156L86.3538 32.7764L85.9066 33ZM78.3016 33L77.8502 33.2151L77.986 33.5H78.3016V33ZM72.8116 21.48L73.2629 21.2649L73.1272 20.98H72.8116V21.48ZM67.9066 21.48V20.98H67.4066V21.48H67.9066ZM77.4916 14.955L77.825 15.3276L77.826 15.3266L77.4916 14.955ZM77.4916 8.34L77.1477 8.70297L77.1575 8.71224L77.1677 8.72097L77.4916 8.34ZM67.9066 7.53V7.03H67.4066V7.53H67.9066ZM67.9066 15.72H67.4066V16.22H67.9066V15.72ZM67.9066 32.5H67.0516V33.5H67.9066V32.5ZM65.3416 32.5H63.6316V33.5H65.3416V32.5ZM61.9216 32.5H61.0666V33.5H61.9216V32.5ZM61.5666 33V32.0184H60.5666V33H61.5666ZM61.5666 30.0553V28.0922H60.5666V30.0553H61.5666ZM61.5666 26.1291V24.1659H60.5666V26.1291H61.5666ZM61.5666 22.2028V20.2397H60.5666V22.2028H61.5666ZM61.5666 18.2766V16.3134H60.5666V18.2766H61.5666ZM61.5666 14.3503V12.3872H60.5666V14.3503H61.5666ZM61.5666 10.4241V8.46094H60.5666V10.4241H61.5666ZM61.5666 6.49781V4.53469H60.5666V6.49781H61.5666ZM61.5666 2.57156V1.59H60.5666V2.57156H61.5666ZM61.0666 2.09H61.9975V1.09H61.0666V2.09ZM63.8594 2.09H65.7213V1.09H63.8594V2.09ZM67.5831 2.09H69.445V1.09H67.5831V2.09ZM71.3069 2.09H73.1688V1.09H71.3069V2.09ZM75.0306 2.09H75.9616V1.09H75.0306V2.09ZM75.9616 2.09C76.2895 2.09 76.6092 2.10294 76.9209 2.1287L77.0033 1.13209C76.6631 1.10398 76.3158 1.09 75.9616 1.09V2.09ZM78.7933 2.46334C79.1004 2.55107 79.3982 2.65418 79.6868 2.77258L80.0663 1.84741C79.7428 1.71468 79.41 1.59951 79.068 1.50181L78.7933 2.46334ZM79.6868 2.77258C79.9569 2.88341 80.2162 3.00578 80.4647 3.1396L80.9388 2.25911C80.6587 2.10829 80.3678 1.9711 80.0663 1.84741L79.6868 2.77258ZM81.8677 4.11326C82.0807 4.30096 82.2831 4.50133 82.4749 4.71448L83.2182 4.04552C83.0008 3.80394 82.771 3.5764 82.5288 3.36299L81.8677 4.11326ZM82.4869 4.7273C82.6892 4.93685 82.8795 5.15756 83.0579 5.38952L83.8506 4.77993C83.6495 4.5184 83.4347 4.2693 83.2063 4.0327L82.4869 4.7273ZM83.9705 6.88637C84.0948 7.14753 84.2086 7.41929 84.312 7.70179L85.2511 7.35821C85.1374 7.04745 85.0116 6.74688 84.8734 6.45665L83.9705 6.88637ZM84.312 7.70179C84.4241 8.00831 84.5218 8.32421 84.6048 8.64961L85.5738 8.40236C85.4826 8.04518 85.3751 7.69709 85.2511 7.35821L84.312 7.70179ZM84.9201 10.6199C84.9444 10.9469 84.9566 11.2819 84.9566 11.625H85.9566C85.9566 11.2582 85.9435 10.8985 85.9174 10.5459L84.9201 10.6199ZM84.9566 11.625C84.9566 12.1077 84.931 12.5744 84.8803 13.0253L85.874 13.1371C85.9291 12.647 85.9566 12.1429 85.9566 11.625H84.9566ZM84.2083 15.7132C84.0327 16.1421 83.8261 16.5531 83.5885 16.9466L84.4446 17.4634C84.709 17.0256 84.9387 16.5684 85.1337 16.0922L84.2083 15.7132ZM83.585 16.9526C83.3611 17.3353 83.1072 17.6902 82.8231 18.0178L83.5787 18.6729C83.9039 18.2978 84.1937 17.8925 84.4482 17.4574L83.585 16.9526ZM80.7775 19.6493C80.4018 19.8555 79.9982 20.0398 79.566 20.2018L79.9171 21.1382C80.391 20.9604 80.8384 20.7566 81.2585 20.526L80.7775 19.6493ZM79.2943 20.8936L79.8081 21.9211L80.7025 21.4739L80.1888 20.4464L79.2943 20.8936ZM80.8356 23.9761L81.8631 26.0311L82.7575 25.5839L81.73 23.5289L80.8356 23.9761ZM82.8906 28.0861L83.9181 30.1411L84.8125 29.6939L83.785 27.6389L82.8906 28.0861ZM84.9456 32.1961L85.4593 33.2236L86.3538 32.7764L85.84 31.7489L84.9456 32.1961ZM85.9066 32.5H84.9559V33.5H85.9066V32.5ZM83.0547 32.5H81.1534V33.5H83.0547V32.5ZM79.2522 32.5H78.3016V33.5H79.2522V32.5ZM78.7529 32.7849L78.2954 31.8249L77.3927 32.2551L77.8502 33.2151L78.7529 32.7849ZM77.3804 29.9049L76.4654 27.9849L75.5627 28.4151L76.4777 30.3351L77.3804 29.9049ZM75.5504 26.0649L74.6354 24.1449L73.7327 24.5751L74.6477 26.4951L75.5504 26.0649ZM73.7204 22.2249L73.2629 21.2649L72.3602 21.6951L72.8177 22.6551L73.7204 22.2249ZM72.8116 20.98H71.5853V21.98H72.8116V20.98ZM69.1328 20.98H67.9066V21.98H69.1328V20.98ZM67.4066 21.48V22.44H68.4066V21.48H67.4066ZM67.4066 24.36V26.28H68.4066V24.36H67.4066ZM67.4066 28.2V30.12H68.4066V28.2H67.4066ZM67.4066 32.04V33H68.4066V32.04H67.4066ZM75.1066 15.22H74.2066V16.22H75.1066V15.22ZM72.4066 15.22H70.6066V16.22H72.4066V15.22ZM68.8066 15.22H67.9066V16.22H68.8066V15.22ZM68.4066 15.72V14.6962H67.4066V15.72H68.4066ZM68.4066 12.6487V10.6012H67.4066V12.6487H68.4066ZM68.4066 8.55375V7.53H67.4066V8.55375H68.4066ZM67.9066 8.03H68.8066V7.03H67.9066V8.03ZM70.6066 8.03H72.4066V7.03H70.6066V8.03ZM74.2066 8.03H75.1066V7.03H74.2066V8.03ZM75.1066 8.03C75.3128 8.03 75.5058 8.04208 75.6861 8.06548L75.8148 7.0738C75.5879 7.04435 75.3517 7.03 75.1066 7.03V8.03ZM76.7272 8.39269C76.8819 8.48027 77.0217 8.58363 77.1477 8.70297L77.8354 7.97702C77.6497 7.80104 77.4441 7.64945 77.2198 7.52246L76.7272 8.39269ZM77.1677 8.72097C77.2965 8.83041 77.4069 8.95397 77.5001 9.09243L78.3298 8.53413C78.1852 8.31926 78.0134 8.1273 77.8154 7.95903L77.1677 8.72097ZM77.8534 10.0718C77.8785 10.2449 77.8916 10.4324 77.8916 10.635H78.8916C78.8916 10.3896 78.8757 10.1538 78.843 9.9282L77.8534 10.0718ZM77.8916 10.635V11.13H78.8916V10.635H77.8916ZM77.8916 12.12V12.615H78.8916V12.12H77.8916ZM77.8916 12.615C77.8916 12.82 77.8782 13.0105 77.8524 13.1872L78.8419 13.3317C78.8753 13.1024 78.8916 12.8634 78.8916 12.615H77.8916ZM77.4931 14.192C77.3988 14.3361 77.2871 14.4663 77.1571 14.5834L77.826 15.3266C78.0196 15.1525 78.1878 14.9566 78.3298 14.7397L77.4931 14.192ZM77.1582 14.5824C77.0314 14.6958 76.8898 14.7945 76.7323 14.8782L77.2014 15.7613C77.4281 15.6409 77.6364 15.4963 77.825 15.3276L77.1582 14.5824ZM75.6854 15.1868C75.5051 15.2087 75.3123 15.22 75.1066 15.22V16.22C75.3487 16.22 75.582 16.2067 75.8061 16.1795L75.6854 15.1868ZM67.9066 33V34H68.9066V33H67.9066ZM61.0666 33H60.0666V34H61.0666V33ZM61.0666 1.59V0.589999H60.0666V1.59H61.0666ZM79.8766 2.31L80.2561 1.38483L80.2561 1.38483L79.8766 2.31ZM82.8466 4.38L82.1033 5.04896L82.115 5.06199L82.1272 5.07459L82.8466 4.38ZM84.0166 17.205L83.1604 16.6881L83.1534 16.7001L84.0166 17.205ZM79.7416 20.67L79.3904 19.7337L78.3504 20.1237L78.8471 21.1172L79.7416 20.67ZM85.9066 33V34H87.5246L86.801 32.5528L85.9066 33ZM78.3016 33L77.3988 33.4302L77.6704 34H78.3016V33ZM72.8116 21.48L73.7143 21.0498L73.4428 20.48H72.8116V21.48ZM67.9066 21.48V20.48H66.9066V21.48H67.9066ZM77.4916 14.955L78.1584 15.7002L78.1605 15.6983L77.4916 14.955ZM77.4916 8.34L76.8038 9.06595L76.8234 9.08448L76.8439 9.10194L77.4916 8.34ZM67.9066 7.53V6.53H66.9066V7.53H67.9066ZM67.9066 15.72H66.9066V16.72H67.9066V15.72ZM67.9066 32H67.0516V34H67.9066V32ZM65.3416 32H63.6316V34H65.3416V32ZM61.9216 32H61.0666V34H61.9216V32ZM62.0666 33V32.0184H60.0666V33H62.0666ZM62.0666 30.0553V28.0922H60.0666V30.0553H62.0666ZM62.0666 26.1291V24.1659H60.0666V26.1291H62.0666ZM62.0666 22.2028V20.2397H60.0666V22.2028H62.0666ZM62.0666 18.2766V16.3134H60.0666V18.2766H62.0666ZM62.0666 14.3503V12.3872H60.0666V14.3503H62.0666ZM62.0666 10.4241V8.46094H60.0666V10.4241H62.0666ZM62.0666 6.49781V4.53469H60.0666V6.49781H62.0666ZM62.0666 2.57156V1.59H60.0666V2.57156H62.0666ZM61.0666 2.59H61.9975V0.589999H61.0666V2.59ZM63.8594 2.59H65.7213V0.589999H63.8594V2.59ZM67.5831 2.59H69.445V0.589999H67.5831V2.59ZM71.3069 2.59H73.1688V0.589999H71.3069V2.59ZM75.0306 2.59H75.9616V0.589999H75.0306V2.59ZM75.9616 2.59C76.2763 2.59 76.5823 2.60243 76.8797 2.627L77.0444 0.633789C76.69 0.604503 76.329 0.589999 75.9616 0.589999V2.59ZM78.656 2.9441C78.9456 3.02686 79.2259 3.12394 79.497 3.23517L80.2561 1.38483C79.9151 1.24493 79.5648 1.12373 79.2054 1.02104L78.656 2.9441ZM79.497 3.23517C79.7515 3.33957 79.9949 3.45453 80.2277 3.57984L81.1758 1.81887C80.8799 1.65955 80.5733 1.51494 80.2561 1.38483L79.497 3.23517ZM81.5371 4.4884C81.7355 4.66325 81.9242 4.85003 82.1033 5.04896L83.5899 3.71103C83.3597 3.45525 83.1161 3.21411 82.8594 2.98785L81.5371 4.4884ZM82.1272 5.07459C82.3164 5.27063 82.4945 5.47714 82.6615 5.69431L84.247 4.47514C84.0345 4.19882 83.8075 3.93552 83.566 3.6854L82.1272 5.07459ZM83.519 7.10124C83.6364 7.34785 83.7443 7.60521 83.8424 7.87358L85.7207 7.18642C85.6018 6.86152 85.47 6.54656 85.3249 6.24178L83.519 7.10124ZM83.8424 7.87358C83.9487 8.16392 84.0414 8.46372 84.1203 8.77323L86.0582 8.27873C85.963 7.90567 85.8506 7.54149 85.7207 7.18642L83.8424 7.87358ZM84.4215 10.6568C84.4448 10.9711 84.4566 11.2937 84.4566 11.625H86.4566C86.4566 11.2464 86.4431 10.8744 86.416 10.509L84.4215 10.6568ZM84.4566 11.625C84.4566 12.09 84.4319 12.538 84.3834 12.9693L86.3708 13.1931C86.4282 12.6834 86.4566 12.1606 86.4566 11.625H84.4566ZM83.7456 15.5237C83.5797 15.9289 83.3846 16.3169 83.1605 16.6881L84.8726 17.7219C85.1504 17.2618 85.3917 16.7816 85.5964 16.2817L83.7456 15.5237ZM83.1534 16.7001C82.9448 17.0567 82.7088 17.3864 82.4453 17.6902L83.9565 19.0004C84.3023 18.6016 84.61 18.171 84.8798 17.7099L83.1534 16.7001ZM80.537 19.211C80.1835 19.4049 79.8017 19.5794 79.3904 19.7337L80.0927 21.6063C80.5875 21.4208 81.0566 21.2071 81.499 20.9644L80.537 19.211ZM78.8471 21.1172L79.3609 22.1447L81.1497 21.2503L80.636 20.2228L78.8471 21.1172ZM80.3884 24.1997L81.4159 26.2547L83.2047 25.3603L82.1772 23.3053L80.3884 24.1997ZM82.4434 28.3097L83.4709 30.3647L85.2597 29.4703L84.2322 27.4153L82.4434 28.3097ZM84.4984 32.4197L85.0121 33.4472L86.801 32.5528L86.2872 31.5253L84.4984 32.4197ZM85.9066 32H84.9559V34H85.9066V32ZM83.0547 32H81.1534V34H83.0547V32ZM79.2522 32H78.3016V34H79.2522V32ZM79.2043 32.5698L78.7468 31.6098L76.9413 32.4702L77.3988 33.4302L79.2043 32.5698ZM77.8318 29.6898L76.9168 27.7698L75.1113 28.6302L76.0263 30.5502L77.8318 29.6898ZM76.0018 25.8498L75.0868 23.9298L73.2813 24.7902L74.1963 26.7102L76.0018 25.8498ZM74.1718 22.0098L73.7143 21.0498L71.9088 21.9102L72.3663 22.8702L74.1718 22.0098ZM72.8116 20.48H71.5853V22.48H72.8116V20.48ZM69.1328 20.48H67.9066V22.48H69.1328V20.48ZM66.9066 21.48V22.44H68.9066V21.48H66.9066ZM66.9066 24.36V26.28H68.9066V24.36H66.9066ZM66.9066 28.2V30.12H68.9066V28.2H66.9066ZM66.9066 32.04V33H68.9066V32.04H66.9066ZM75.1066 14.72H74.2066V16.72H75.1066V14.72ZM72.4066 14.72H70.6066V16.72H72.4066V14.72ZM68.8066 14.72H67.9066V16.72H68.8066V14.72ZM68.9066 15.72V14.6962H66.9066V15.72H68.9066ZM68.9066 12.6487V10.6012H66.9066V12.6487H68.9066ZM68.9066 8.55375V7.53H66.9066V8.55375H68.9066ZM67.9066 8.53H68.8066V6.53H67.9066V8.53ZM70.6066 8.53H72.4066V6.53H70.6066V8.53ZM74.2066 8.53H75.1066V6.53H74.2066V8.53ZM75.1066 8.53C75.2933 8.53 75.4648 8.54095 75.6218 8.56132L75.8792 6.57796C75.6289 6.54548 75.3711 6.53 75.1066 6.53V8.53ZM76.4809 8.82781C76.6007 8.89568 76.7077 8.97492 76.8038 9.06595L78.1793 7.61405C77.9637 7.40975 77.7253 7.23405 77.4661 7.08734L76.4809 8.82781ZM76.8439 9.10194C76.9381 9.18197 77.0178 9.27132 77.0853 9.37158L78.7446 8.25499C78.5743 8.00191 78.3718 7.77574 78.1392 7.57806L76.8439 9.10194ZM77.3585 10.1436C77.3798 10.2905 77.3916 10.4538 77.3916 10.635H79.3916C79.3916 10.3682 79.3743 10.1082 79.3378 9.8564L77.3585 10.1436ZM77.3916 10.635V11.13H79.3916V10.635H77.3916ZM77.3916 12.12V12.615H79.3916V12.12H77.3916ZM77.3916 12.615C77.3916 12.7983 77.3796 12.9645 77.3576 13.115L79.3366 13.4039C79.3739 13.1484 79.3916 12.885 79.3916 12.615H77.3916ZM77.0748 13.9181C77.0043 14.0258 76.9209 14.1233 76.8226 14.2117L78.1605 15.6983C78.3858 15.4955 78.5823 15.2669 78.7481 15.0136L77.0748 13.9181ZM76.8248 14.2098C76.7288 14.2956 76.6207 14.3713 76.4977 14.4366L77.436 16.2029C77.6973 16.064 77.9389 15.8966 78.1584 15.7002L76.8248 14.2098ZM75.6251 14.6904C75.4666 14.7097 75.2941 14.72 75.1066 14.72V16.72C75.3669 16.72 75.6204 16.7057 75.8664 16.6758L75.6251 14.6904ZM90.1738 33H89.6738V33.5H90.1738V33ZM90.1738 27.555V27.055H89.6738V27.555H90.1738ZM94.2238 27.555V28.055H94.7238V27.555H94.2238ZM94.2238 7.035H94.7238V6.535H94.2238V7.035ZM90.1738 7.035H89.6738V7.535H90.1738V7.035ZM90.1738 1.59V1.09H89.6738V1.59H90.1738ZM105.114 1.59H105.614V1.09H105.114V1.59ZM105.114 7.035V7.535H105.614V7.035H105.114ZM101.064 7.035V6.535H100.564V7.035H101.064ZM101.064 27.555H100.564V28.055H101.064V27.555ZM105.114 27.555H105.614V27.055H105.114V27.555ZM105.114 33V33.5H105.614V33H105.114ZM90.6738 33V31.6387H89.6738V33H90.6738ZM90.6738 28.9162V27.555H89.6738V28.9162H90.6738ZM90.1738 28.055H91.1863V27.055H90.1738V28.055ZM93.2113 28.055H94.2238V27.055H93.2113V28.055ZM94.7238 27.555V26.529H93.7238V27.555H94.7238ZM94.7238 24.477V22.425H93.7238V24.477H94.7238ZM94.7238 20.373V18.321H93.7238V20.373H94.7238ZM94.7238 16.269V14.217H93.7238V16.269H94.7238ZM94.7238 12.165V10.113H93.7238V12.165H94.7238ZM94.7238 8.061V7.035H93.7238V8.061H94.7238ZM94.2238 6.535H93.2113V7.535H94.2238V6.535ZM91.1863 6.535H90.1738V7.535H91.1863V6.535ZM90.6738 7.035V5.67375H89.6738V7.035H90.6738ZM90.6738 2.95125V1.59H89.6738V2.95125H90.6738ZM90.1738 2.09H91.1076V1.09H90.1738V2.09ZM92.9751 2.09H94.8426V1.09H92.9751V2.09ZM96.7101 2.09H98.5776V1.09H96.7101V2.09ZM100.445 2.09H102.313V1.09H100.445V2.09ZM104.18 2.09H105.114V1.09H104.18V2.09ZM104.614 1.59V2.95125H105.614V1.59H104.614ZM104.614 5.67375V7.035H105.614V5.67375H104.614ZM105.114 6.535H104.101V7.535H105.114V6.535ZM102.076 6.535H101.064V7.535H102.076V6.535ZM100.564 7.035V8.061H101.564V7.035H100.564ZM100.564 10.113V12.165H101.564V10.113H100.564ZM100.564 14.217V16.269H101.564V14.217H100.564ZM100.564 18.321V20.373H101.564V18.321H100.564ZM100.564 22.425V24.477H101.564V22.425H100.564ZM100.564 26.529V27.555H101.564V26.529H100.564ZM101.064 28.055H102.076V27.055H101.064V28.055ZM104.101 28.055H105.114V27.055H104.101V28.055ZM104.614 27.555V28.9162H105.614V27.555H104.614ZM104.614 31.6387V33H105.614V31.6387H104.614ZM105.114 32.5H104.18V33.5H105.114V32.5ZM102.313 32.5H100.445V33.5H102.313V32.5ZM98.5776 32.5H96.7101V33.5H98.5776V32.5ZM94.8426 32.5H92.9751V33.5H94.8426V32.5ZM91.1076 32.5H90.1738V33.5H91.1076V32.5ZM90.1738 33H89.1738V34H90.1738V33ZM90.1738 27.555V26.555H89.1738V27.555H90.1738ZM94.2238 27.555V28.555H95.2238V27.555H94.2238ZM94.2238 7.035H95.2238V6.035H94.2238V7.035ZM90.1738 7.035H89.1738V8.035H90.1738V7.035ZM90.1738 1.59V0.589999H89.1738V1.59H90.1738ZM105.114 1.59H106.114V0.589999H105.114V1.59ZM105.114 7.035V8.035H106.114V7.035H105.114ZM101.064 7.035V6.035H100.064V7.035H101.064ZM101.064 27.555H100.064V28.555H101.064V27.555ZM105.114 27.555H106.114V26.555H105.114V27.555ZM105.114 33V34H106.114V33H105.114ZM91.1738 33V31.6387H89.1738V33H91.1738ZM91.1738 28.9162V27.555H89.1738V28.9162H91.1738ZM90.1738 28.555H91.1863V26.555H90.1738V28.555ZM93.2113 28.555H94.2238V26.555H93.2113V28.555ZM95.2238 27.555V26.529H93.2238V27.555H95.2238ZM95.2238 24.477V22.425H93.2238V24.477H95.2238ZM95.2238 20.373V18.321H93.2238V20.373H95.2238ZM95.2238 16.269V14.217H93.2238V16.269H95.2238ZM95.2238 12.165V10.113H93.2238V12.165H95.2238ZM95.2238 8.061V7.035H93.2238V8.061H95.2238ZM94.2238 6.035H93.2113V8.035H94.2238V6.035ZM91.1863 6.035H90.1738V8.035H91.1863V6.035ZM91.1738 7.035V5.67375H89.1738V7.035H91.1738ZM91.1738 2.95125V1.59H89.1738V2.95125H91.1738ZM90.1738 2.59H91.1076V0.589999H90.1738V2.59ZM92.9751 2.59H94.8426V0.589999H92.9751V2.59ZM96.7101 2.59H98.5776V0.589999H96.7101V2.59ZM100.445 2.59H102.313V0.589999H100.445V2.59ZM104.18 2.59H105.114V0.589999H104.18V2.59ZM104.114 1.59V2.95125H106.114V1.59H104.114ZM104.114 5.67375V7.035H106.114V5.67375H104.114ZM105.114 6.035H104.101V8.035H105.114V6.035ZM102.076 6.035H101.064V8.035H102.076V6.035ZM100.064 7.035V8.061H102.064V7.035H100.064ZM100.064 10.113V12.165H102.064V10.113H100.064ZM100.064 14.217V16.269H102.064V14.217H100.064ZM100.064 18.321V20.373H102.064V18.321H100.064ZM100.064 22.425V24.477H102.064V22.425H100.064ZM100.064 26.529V27.555H102.064V26.529H100.064ZM101.064 28.555H102.076V26.555H101.064V28.555ZM104.101 28.555H105.114V26.555H104.101V28.555ZM104.114 27.555V28.9162H106.114V27.555H104.114ZM104.114 31.6387V33H106.114V31.6387H104.114ZM105.114 32H104.18V34H105.114V32ZM102.313 32H100.445V34H102.313V32ZM98.5776 32H96.7101V34H98.5776V32ZM94.8426 32H92.9751V34H94.8426V32ZM91.1076 32H90.1738V34H91.1076V32ZM4.465 78H3.965V78.5H4.465V78ZM4.465 46.59V46.09H3.965V46.59H4.465ZM25.3 46.59H25.8V46.09H25.3V46.59ZM25.3 52.665V53.165H25.8V52.665H25.3ZM11.305 52.665V52.165H10.805V52.665H11.305ZM11.305 59.1H10.805V59.6H11.305V59.1ZM23.23 59.1H23.73V58.6H23.23V59.1ZM23.23 65.13V65.63H23.73V65.13H23.23ZM11.305 65.13V64.63H10.805V65.13H11.305ZM11.305 78V78.5H11.805V78H11.305ZM4.965 78V77.0184H3.965V78H4.965ZM4.965 75.0553V73.0922H3.965V75.0553H4.965ZM4.965 71.1291V69.1659H3.965V71.1291H4.965ZM4.965 67.2028V65.2397H3.965V67.2028H4.965ZM4.965 63.2766V61.3134H3.965V63.2766H4.965ZM4.965 59.3503V57.3872H3.965V59.3503H4.965ZM4.965 55.4241V53.4609H3.965V55.4241H4.965ZM4.965 51.4978V49.5347H3.965V51.4978H4.965ZM4.965 47.5716V46.59H3.965V47.5716H4.965ZM4.465 47.09H5.50675V46.09H4.465V47.09ZM7.59025 47.09H9.67375V46.09H7.59025V47.09ZM11.7573 47.09H13.8408V46.09H11.7573V47.09ZM15.9243 47.09H18.0078V46.09H15.9243V47.09ZM20.0913 47.09H22.1748V46.09H20.0913V47.09ZM24.2583 47.09H25.3V46.09H24.2583V47.09ZM24.8 46.59V47.3494H25.8V46.59H24.8ZM24.8 48.8681V50.3869H25.8V48.8681H24.8ZM24.8 51.9056V52.665H25.8V51.9056H24.8ZM25.3 52.165H24.1338V53.165H25.3V52.165ZM21.8013 52.165H19.4688V53.165H21.8013V52.165ZM17.1363 52.165H14.8038V53.165H17.1363V52.165ZM12.4712 52.165H11.305V53.165H12.4712V52.165ZM10.805 52.665V53.4694H11.805V52.665H10.805ZM10.805 55.0781V56.6869H11.805V55.0781H10.805ZM10.805 58.2956V59.1H11.805V58.2956H10.805ZM11.305 59.6H12.2988V58.6H11.305V59.6ZM14.2863 59.6H16.2738V58.6H14.2863V59.6ZM18.2613 59.6H20.2488V58.6H18.2613V59.6ZM22.2363 59.6H23.23V58.6H22.2363V59.6ZM22.73 59.1V59.8537H23.73V59.1H22.73ZM22.73 61.3612V62.8687H23.73V61.3612H22.73ZM22.73 64.3762V65.13H23.73V64.3762H22.73ZM23.23 64.63H22.2363V65.63H23.23V64.63ZM20.2488 64.63H18.2613V65.63H20.2488V64.63ZM16.2738 64.63H14.2863V65.63H16.2738V64.63ZM12.2988 64.63H11.305V65.63H12.2988V64.63ZM10.805 65.13V66.2025H11.805V65.13H10.805ZM10.805 68.3475V70.4925H11.805V68.3475H10.805ZM10.805 72.6375V74.7825H11.805V72.6375H10.805ZM10.805 76.9275V78H11.805V76.9275H10.805ZM11.305 77.5H10.45V78.5H11.305V77.5ZM8.74 77.5H7.03V78.5H8.74V77.5ZM5.32 77.5H4.465V78.5H5.32V77.5ZM4.465 78H3.465V79H4.465V78ZM4.465 46.59V45.59H3.465V46.59H4.465ZM25.3 46.59H26.3V45.59H25.3V46.59ZM25.3 52.665V53.665H26.3V52.665H25.3ZM11.305 52.665V51.665H10.305V52.665H11.305ZM11.305 59.1H10.305V60.1H11.305V59.1ZM23.23 59.1H24.23V58.1H23.23V59.1ZM23.23 65.13V66.13H24.23V65.13H23.23ZM11.305 65.13V64.13H10.305V65.13H11.305ZM11.305 78V79H12.305V78H11.305ZM5.465 78V77.0184H3.465V78H5.465ZM5.465 75.0553V73.0922H3.465V75.0553H5.465ZM5.465 71.1291V69.1659H3.465V71.1291H5.465ZM5.465 67.2028V65.2397H3.465V67.2028H5.465ZM5.465 63.2766V61.3134H3.465V63.2766H5.465ZM5.465 59.3503V57.3872H3.465V59.3503H5.465ZM5.465 55.4241V53.4609H3.465V55.4241H5.465ZM5.465 51.4978V49.5347H3.465V51.4978H5.465ZM5.465 47.5716V46.59H3.465V47.5716H5.465ZM4.465 47.59H5.50675V45.59H4.465V47.59ZM7.59025 47.59H9.67375V45.59H7.59025V47.59ZM11.7573 47.59H13.8408V45.59H11.7573V47.59ZM15.9243 47.59H18.0078V45.59H15.9243V47.59ZM20.0913 47.59H22.1748V45.59H20.0913V47.59ZM24.2583 47.59H25.3V45.59H24.2583V47.59ZM24.3 46.59V47.3494H26.3V46.59H24.3ZM24.3 48.8681V50.3869H26.3V48.8681H24.3ZM24.3 51.9056V52.665H26.3V51.9056H24.3ZM25.3 51.665H24.1338V53.665H25.3V51.665ZM21.8013 51.665H19.4688V53.665H21.8013V51.665ZM17.1363 51.665H14.8038V53.665H17.1363V51.665ZM12.4712 51.665H11.305V53.665H12.4712V51.665ZM10.305 52.665V53.4694H12.305V52.665H10.305ZM10.305 55.0781V56.6869H12.305V55.0781H10.305ZM10.305 58.2956V59.1H12.305V58.2956H10.305ZM11.305 60.1H12.2988V58.1H11.305V60.1ZM14.2863 60.1H16.2738V58.1H14.2863V60.1ZM18.2613 60.1H20.2488V58.1H18.2613V60.1ZM22.2363 60.1H23.23V58.1H22.2363V60.1ZM22.23 59.1V59.8537H24.23V59.1H22.23ZM22.23 61.3612V62.8687H24.23V61.3612H22.23ZM22.23 64.3762V65.13H24.23V64.3762H22.23ZM23.23 64.13H22.2363V66.13H23.23V64.13ZM20.2488 64.13H18.2613V66.13H20.2488V64.13ZM16.2738 64.13H14.2863V66.13H16.2738V64.13ZM12.2988 64.13H11.305V66.13H12.2988V64.13ZM10.305 65.13V66.2025H12.305V65.13H10.305ZM10.305 68.3475V70.4925H12.305V68.3475H10.305ZM10.305 72.6375V74.7825H12.305V72.6375H10.305ZM10.305 76.9275V78H12.305V76.9275H10.305ZM11.305 77H10.45V79H11.305V77ZM8.74 77H7.03V79H8.74V77ZM5.32 77H4.465V79H5.32V77ZM38.4832 78H37.9832V78.5H38.4832V78ZM38.4832 65.715H38.9832V65.5841L38.9191 65.4699L38.4832 65.715ZM27.7282 46.59V46.09H26.8734L27.2924 46.8351L27.7282 46.59ZM35.3782 46.59L35.8183 46.3526L35.6766 46.09H35.3782V46.59ZM42.1282 59.1L41.6882 59.3374L41.8299 59.6H42.1282V59.1ZM42.2182 59.1V59.6H42.5223L42.6622 59.33L42.2182 59.1ZM48.6982 46.59V46.09H48.3941L48.2543 46.36L48.6982 46.59ZM56.1232 46.59L56.5588 46.8355L56.979 46.09H56.1232V46.59ZM45.3682 65.67L44.9327 65.4245L44.8682 65.5388V65.67H45.3682ZM45.3682 78V78.5H45.8682V78H45.3682ZM38.9832 78V76.9763H37.9832V78H38.9832ZM38.9832 74.9287V72.8813H37.9832V74.9287H38.9832ZM38.9832 70.8338V68.7863H37.9832V70.8338H38.9832ZM38.9832 66.7388V65.715H37.9832V66.7388H38.9832ZM38.9191 65.4699L38.3813 64.5137L37.5097 65.0038L38.0474 65.9601L38.9191 65.4699ZM37.3058 62.6012L36.2303 60.6887L35.3587 61.1788L36.4342 63.0913L37.3058 62.6012ZM35.1548 58.7762L34.0793 56.8637L33.2077 57.3538L34.2832 59.2663L35.1548 58.7762ZM33.0038 54.9512L31.9283 53.0387L31.0567 53.5288L32.1322 55.4413L33.0038 54.9512ZM30.8528 51.1262L29.7773 49.2137L28.9057 49.7038L29.9812 51.6163L30.8528 51.1262ZM28.7018 47.3012L28.1641 46.3449L27.2924 46.8351L27.8302 47.7913L28.7018 47.3012ZM27.7282 47.09H28.6845V46.09H27.7282V47.09ZM30.597 47.09H32.5095V46.09H30.597V47.09ZM34.422 47.09H35.3782V46.09H34.422V47.09ZM34.9382 46.8274L35.3601 47.6093L36.2401 47.1344L35.8183 46.3526L34.9382 46.8274ZM36.2038 49.1731L37.0476 50.7368L37.9276 50.2619L37.0839 48.6982L36.2038 49.1731ZM37.8913 52.3006L38.7351 53.8643L39.6152 53.3894L38.7714 51.8257L37.8913 52.3006ZM39.5788 55.4281L40.4226 56.9918L41.3027 56.5169L40.4589 54.9532L39.5788 55.4281ZM41.2663 58.5556L41.6882 59.3374L42.5683 58.8626L42.1464 58.0807L41.2663 58.5556ZM42.1282 59.6H42.1507V58.6H42.1282V59.6ZM42.1957 59.6H42.2182V58.6H42.1957V59.6ZM42.6622 59.33L43.0672 58.5481L42.1793 58.0882L41.7743 58.87L42.6622 59.33ZM43.8772 56.9843L44.6872 55.4206L43.7993 54.9607L42.9893 56.5244L43.8772 56.9843ZM45.4972 53.8568L46.3072 52.2931L45.4193 51.8332L44.6093 53.3969L45.4972 53.8568ZM47.1172 50.7293L47.9272 49.1656L47.0393 48.7057L46.2293 50.2694L47.1172 50.7293ZM48.7372 47.6018L49.1422 46.82L48.2543 46.36L47.8493 47.1419L48.7372 47.6018ZM48.6982 47.09H49.6264V46.09H48.6982V47.09ZM51.4826 47.09H53.3389V46.09H51.4826V47.09ZM55.1951 47.09H56.1232V46.09H55.1951V47.09ZM55.6877 46.3445L55.1499 47.2985L56.0211 47.7895L56.5588 46.8355L55.6877 46.3445ZM54.0744 49.2065L52.9989 51.1145L53.8701 51.6055L54.9456 49.6975L54.0744 49.2065ZM51.9234 53.0225L50.8479 54.9305L51.7191 55.4215L52.7946 53.5135L51.9234 53.0225ZM49.7724 56.8385L48.6969 58.7465L49.5681 59.2375L50.6436 57.3295L49.7724 56.8385ZM47.6214 60.6545L46.5459 62.5625L47.4171 63.0535L48.4926 61.1455L47.6214 60.6545ZM45.4704 64.4705L44.9327 65.4245L45.8038 65.9155L46.3416 64.9615L45.4704 64.4705ZM44.8682 65.67V66.6975H45.8682V65.67H44.8682ZM44.8682 68.7525V70.8075H45.8682V68.7525H44.8682ZM44.8682 72.8625V74.9175H45.8682V72.8625H44.8682ZM44.8682 76.9725V78H45.8682V76.9725H44.8682ZM45.3682 77.5H44.5076V78.5H45.3682V77.5ZM42.7864 77.5H41.0651V78.5H42.7864V77.5ZM39.3439 77.5H38.4832V78.5H39.3439V77.5ZM38.4832 78H37.4832V79H38.4832V78ZM38.4832 65.715H39.4832V65.4531L39.3549 65.2248L38.4832 65.715ZM27.7282 46.59V45.59H26.0186L26.8566 47.0802L27.7282 46.59ZM35.3782 46.59L36.2583 46.1151L35.975 45.59H35.3782V46.59ZM42.1282 59.1L41.2482 59.5749L41.5315 60.1H42.1282V59.1ZM42.2182 59.1V60.1H42.8265L43.1062 59.5599L42.2182 59.1ZM48.6982 46.59V45.59H48.09L47.8103 46.1301L48.6982 46.59ZM56.1232 46.59L56.9944 47.081L57.8348 45.59H56.1232V46.59ZM45.3682 65.67L44.4971 65.179L44.3682 65.4076V65.67H45.3682ZM45.3682 78V79H46.3682V78H45.3682ZM39.4832 78V76.9763H37.4832V78H39.4832ZM39.4832 74.9287V72.8813H37.4832V74.9287H39.4832ZM39.4832 70.8338V68.7863H37.4832V70.8338H39.4832ZM39.4832 66.7388V65.715H37.4832V66.7388H39.4832ZM39.3549 65.2248L38.8171 64.2686L37.0739 65.2489L37.6116 66.2052L39.3549 65.2248ZM37.7416 62.3561L36.6661 60.4436L34.9229 61.4239L35.9984 63.3364L37.7416 62.3561ZM35.5906 58.5311L34.5151 56.6186L32.7719 57.5989L33.8474 59.5114L35.5906 58.5311ZM33.4396 54.7061L32.3641 52.7936L30.6209 53.7739L31.6964 55.6864L33.4396 54.7061ZM31.2886 50.8811L30.2131 48.9686L28.4699 49.9489L29.5454 51.8614L31.2886 50.8811ZM29.1376 47.0561L28.5999 46.0998L26.8566 47.0802L27.3944 48.0364L29.1376 47.0561ZM27.7282 47.59H28.6845V45.59H27.7282V47.59ZM30.597 47.59H32.5095V45.59H30.597V47.59ZM34.422 47.59H35.3782V45.59H34.422V47.59ZM34.4982 47.0649L34.9201 47.8467L36.6802 46.897L36.2583 46.1151L34.4982 47.0649ZM35.7638 49.4105L36.6076 50.9742L38.3677 50.0245L37.5239 48.4608L35.7638 49.4105ZM37.4513 52.538L38.2951 54.1017L40.0552 53.152L39.2114 51.5883L37.4513 52.538ZM39.1388 55.6655L39.9826 57.2292L41.7427 56.2795L40.8989 54.7158L39.1388 55.6655ZM40.8263 58.793L41.2482 59.5749L43.0083 58.6251L42.5864 57.8433L40.8263 58.793ZM42.1282 60.1H42.1507V58.1H42.1282V60.1ZM42.1957 60.1H42.2182V58.1H42.1957V60.1ZM43.1062 59.5599L43.5112 58.7781L41.7353 57.8582L41.3303 58.6401L43.1062 59.5599ZM44.3212 57.2143L45.1312 55.6506L43.3553 54.7307L42.5453 56.2944L44.3212 57.2143ZM45.9412 54.0868L46.7512 52.5231L44.9753 51.6032L44.1653 53.1669L45.9412 54.0868ZM47.5612 50.9593L48.3712 49.3956L46.5953 48.4757L45.7853 50.0394L47.5612 50.9593ZM49.1812 47.8318L49.5862 47.0499L47.8103 46.1301L47.4053 46.9119L49.1812 47.8318ZM48.6982 47.59H49.6264V45.59H48.6982V47.59ZM51.4826 47.59H53.3389V45.59H51.4826V47.59ZM55.1951 47.59H56.1232V45.59H55.1951V47.59ZM55.2521 46.099L54.7144 47.053L56.4566 48.035L56.9944 47.081L55.2521 46.099ZM53.6389 48.961L52.5634 50.869L54.3056 51.851L55.3811 49.943L53.6389 48.961ZM51.4879 52.777L50.4124 54.685L52.1546 55.667L53.2301 53.759L51.4879 52.777ZM49.3369 56.593L48.2614 58.501L50.0036 59.483L51.0791 57.575L49.3369 56.593ZM47.1859 60.409L46.1104 62.317L47.8526 63.299L48.9281 61.391L47.1859 60.409ZM45.0349 64.225L44.4971 65.179L46.2394 66.161L46.7771 65.207L45.0349 64.225ZM44.3682 65.67V66.6975H46.3682V65.67H44.3682ZM44.3682 68.7525V70.8075H46.3682V68.7525H44.3682ZM44.3682 72.8625V74.9175H46.3682V72.8625H44.3682ZM44.3682 76.9725V78H46.3682V76.9725H44.3682ZM45.3682 77H44.5076V79H45.3682V77ZM42.7864 77H41.0651V79H42.7864V77ZM39.3439 77H38.4832V79H39.3439V77Z" fill="#DADADA"></path> </svg> 