<?xml version="1.0" encoding="UTF-8"?> <svg xmlns="http://www.w3.org/2000/svg" width="116" height="80" viewBox="0 0 116 80" fill="none"> <path d="M16.56 7.665V7.165H16.06V7.665H16.56ZM16.56 33V33.5H17.06V33H16.56ZM9.72 33H9.22V33.5H9.72V33ZM9.72 7.665H10.22V7.165H9.72V7.665ZM1.215 7.665H0.715V8.165H1.215V7.665ZM1.215 1.59V1.09H0.715V1.59H1.215ZM25.065 1.59H25.565V1.09H25.065V1.59ZM25.065 7.665V8.165H25.565V7.665H25.065ZM16.06 7.665V8.72062H17.06V7.665H16.06ZM16.06 10.8319V12.9431H17.06V10.8319H16.06ZM16.06 15.0544V17.1656H17.06V15.0544H16.06ZM16.06 19.2769V21.3881H17.06V19.2769H16.06ZM16.06 23.4994V25.6106H17.06V23.4994H16.06ZM16.06 27.7219V29.8331H17.06V27.7219H16.06ZM16.06 31.9444V33H17.06V31.9444H16.06ZM16.56 32.5H15.705V33.5H16.56V32.5ZM13.995 32.5H12.285V33.5H13.995V32.5ZM10.575 32.5H9.72V33.5H10.575V32.5ZM10.22 33V31.9444H9.22V33H10.22ZM10.22 29.8331V27.7219H9.22V29.8331H10.22ZM10.22 25.6106V23.4994H9.22V25.6106H10.22ZM10.22 21.3881V19.2769H9.22V21.3881H10.22ZM10.22 17.1656V15.0544H9.22V17.1656H10.22ZM10.22 12.9431V10.8319H9.22V12.9431H10.22ZM10.22 8.72062V7.665H9.22V8.72062H10.22ZM9.72 7.165H8.65688V8.165H9.72V7.165ZM6.53063 7.165H4.40438V8.165H6.53063V7.165ZM2.27812 7.165H1.215V8.165H2.27812V7.165ZM1.715 7.665V6.90562H0.715V7.665H1.715ZM1.715 5.38687V3.86812H0.715V5.38687H1.715ZM1.715 2.34937V1.59H0.715V2.34937H1.715ZM1.215 2.09H2.20875V1.09H1.215V2.09ZM4.19625 2.09H6.18375V1.09H4.19625V2.09ZM8.17125 2.09H10.1588V1.09H8.17125V2.09ZM12.1463 2.09H14.1338V1.09H12.1463V2.09ZM16.1213 2.09H18.1088V1.09H16.1213V2.09ZM20.0963 2.09H22.0838V1.09H20.0963V2.09ZM24.0712 2.09H25.065V1.09H24.0712V2.09ZM24.565 1.59V2.34937H25.565V1.59H24.565ZM24.565 3.86812V5.38687H25.565V3.86812H24.565ZM24.565 6.90562V7.665H25.565V6.90562H24.565ZM25.065 7.165H24.0019V8.165H25.065V7.165ZM21.8756 7.165H19.7494V8.165H21.8756V7.165ZM17.6231 7.165H16.56V8.165H17.6231V7.165ZM16.56 7.665V6.665H15.56V7.665H16.56ZM16.56 33V34H17.56V33H16.56ZM9.72 33H8.72V34H9.72V33ZM9.72 7.665H10.72V6.665H9.72V7.665ZM1.215 7.665H0.215V8.665H1.215V7.665ZM1.215 1.59V0.589999H0.215V1.59H1.215ZM25.065 1.59H26.065V0.589999H25.065V1.59ZM25.065 7.665V8.665H26.065V7.665H25.065ZM15.56 7.665V8.72062H17.56V7.665H15.56ZM15.56 10.8319V12.9431H17.56V10.8319H15.56ZM15.56 15.0544V17.1656H17.56V15.0544H15.56ZM15.56 19.2769V21.3881H17.56V19.2769H15.56ZM15.56 23.4994V25.6106H17.56V23.4994H15.56ZM15.56 27.7219V29.8331H17.56V27.7219H15.56ZM15.56 31.9444V33H17.56V31.9444H15.56ZM16.56 32H15.705V34H16.56V32ZM13.995 32H12.285V34H13.995V32ZM10.575 32H9.72V34H10.575V32ZM10.72 33V31.9444H8.72V33H10.72ZM10.72 29.8331V27.7219H8.72V29.8331H10.72ZM10.72 25.6106V23.4994H8.72V25.6106H10.72ZM10.72 21.3881V19.2769H8.72V21.3881H10.72ZM10.72 17.1656V15.0544H8.72V17.1656H10.72ZM10.72 12.9431V10.8319H8.72V12.9431H10.72ZM10.72 8.72062V7.665H8.72V8.72062H10.72ZM9.72 6.665H8.65688V8.665H9.72V6.665ZM6.53063 6.665H4.40438V8.665H6.53063V6.665ZM2.27812 6.665H1.215V8.665H2.27812V6.665ZM2.215 7.665V6.90562H0.215V7.665H2.215ZM2.215 5.38687V3.86812H0.215V5.38687H2.215ZM2.215 2.34937V1.59H0.215V2.34937H2.215ZM1.215 2.59H2.20875V0.589999H1.215V2.59ZM4.19625 2.59H6.18375V0.589999H4.19625V2.59ZM8.17125 2.59H10.1588V0.589999H8.17125V2.59ZM12.1463 2.59H14.1338V0.589999H12.1463V2.59ZM16.1213 2.59H18.1088V0.589999H16.1213V2.59ZM20.0963 2.59H22.0838V0.589999H20.0963V2.59ZM24.0712 2.59H25.065V0.589999H24.0712V2.59ZM24.065 1.59V2.34937H26.065V1.59H24.065ZM24.065 3.86812V5.38687H26.065V3.86812H24.065ZM24.065 6.90562V7.665H26.065V6.90562H24.065ZM25.065 6.665H24.0019V8.665H25.065V6.665ZM21.8756 6.665H19.7494V8.665H21.8756V6.665ZM17.6231 6.665H16.56V8.665H17.6231V6.665ZM36.5843 33V33.5H37.0843V33H36.5843ZM29.7443 33H29.2443V33.5H29.7443V33ZM29.7443 1.59V1.09H29.2443V1.59H29.7443ZM48.5543 2.31L48.7441 1.84741L48.7441 1.84741L48.5543 2.31ZM51.5243 4.38L51.1527 4.71448L51.1585 4.72099L51.1646 4.7273L51.5243 4.38ZM52.6943 17.205L52.2662 16.9465L52.2627 16.9526L52.6943 17.205ZM48.4193 20.67L48.2437 20.2018L47.7237 20.3968L47.9721 20.8936L48.4193 20.67ZM54.5843 33V33.5H55.3933L55.0315 32.7764L54.5843 33ZM46.9793 33L46.5279 33.2151L46.6637 33.5H46.9793V33ZM41.4893 21.48L41.9407 21.2649L41.8049 20.98H41.4893V21.48ZM36.5843 21.48V20.98H36.0843V21.48H36.5843ZM46.1693 14.955L46.5027 15.3276L46.5038 15.3266L46.1693 14.955ZM46.1693 8.34L45.8254 8.70297L45.8352 8.71224L45.8455 8.72097L46.1693 8.34ZM36.5843 7.53V7.03H36.0843V7.53H36.5843ZM36.5843 15.72H36.0843V16.22H36.5843V15.72ZM36.5843 32.5H35.7293V33.5H36.5843V32.5ZM34.0193 32.5H32.3093V33.5H34.0193V32.5ZM30.5993 32.5H29.7443V33.5H30.5993V32.5ZM30.2443 33V32.0184H29.2443V33H30.2443ZM30.2443 30.0553V28.0922H29.2443V30.0553H30.2443ZM30.2443 26.1291V24.1659H29.2443V26.1291H30.2443ZM30.2443 22.2028V20.2397H29.2443V22.2028H30.2443ZM30.2443 18.2766V16.3134H29.2443V18.2766H30.2443ZM30.2443 14.3503V12.3872H29.2443V14.3503H30.2443ZM30.2443 10.4241V8.46094H29.2443V10.4241H30.2443ZM30.2443 6.49781V4.53469H29.2443V6.49781H30.2443ZM30.2443 2.57156V1.59H29.2443V2.57156H30.2443ZM29.7443 2.09H30.6752V1.09H29.7443V2.09ZM32.5371 2.09H34.399V1.09H32.5371V2.09ZM36.2609 2.09H38.1227V1.09H36.2609V2.09ZM39.9846 2.09H41.8465V1.09H39.9846V2.09ZM43.7084 2.09H44.6393V1.09H43.7084V2.09ZM44.6393 2.09C44.9672 2.09 45.287 2.10294 45.5986 2.1287L45.681 1.13209C45.3408 1.10398 44.9935 1.09 44.6393 1.09V2.09ZM47.471 2.46334C47.7781 2.55107 48.0759 2.65418 48.3645 2.77258L48.7441 1.84741C48.4205 1.71468 48.0877 1.59951 47.7457 1.50181L47.471 2.46334ZM48.3645 2.77258C48.6347 2.88341 48.8939 3.00578 49.1425 3.1396L49.6165 2.25911C49.3364 2.10829 49.0455 1.9711 48.7441 1.84741L48.3645 2.77258ZM50.5454 4.11326C50.7584 4.30096 50.9608 4.50133 51.1527 4.71448L51.8959 4.04552C51.6785 3.80394 51.4487 3.5764 51.2065 3.36299L50.5454 4.11326ZM51.1646 4.7273C51.3669 4.93685 51.5573 5.15756 51.7356 5.38952L52.5283 4.77993C52.3272 4.5184 52.1124 4.2693 51.884 4.0327L51.1646 4.7273ZM52.6482 6.88637C52.7725 7.14753 52.8864 7.41929 52.9897 7.70179L53.9289 7.35821C53.8152 7.04745 53.6893 6.74688 53.5512 6.45665L52.6482 6.88637ZM52.9897 7.70179C53.1019 8.00831 53.1995 8.32421 53.2825 8.64961L54.2515 8.40236C54.1604 8.04518 54.0528 7.69709 53.9289 7.35821L52.9897 7.70179ZM53.5979 10.6199C53.6221 10.9469 53.6343 11.2819 53.6343 11.625H54.6343C54.6343 11.2582 54.6213 10.8985 54.5951 10.5459L53.5979 10.6199ZM53.6343 11.625C53.6343 12.1077 53.6088 12.5744 53.558 13.0253L54.5517 13.1371C54.6069 12.647 54.6343 12.1429 54.6343 11.625H53.6343ZM52.8861 15.7132C52.7104 16.1421 52.5038 16.5531 52.2663 16.9466L53.1223 17.4634C53.3867 17.0256 53.6164 16.5684 53.8115 16.0922L52.8861 15.7132ZM52.2627 16.9526C52.0388 17.3353 51.7849 17.6902 51.5009 18.0178L52.2564 18.6729C52.5816 18.2978 52.8714 17.8925 53.1259 17.4574L52.2627 16.9526ZM49.4552 19.6493C49.0795 19.8555 48.6759 20.0398 48.2437 20.2018L48.5949 21.1382C49.0688 20.9604 49.5161 20.7566 49.9362 20.526L49.4552 19.6493ZM47.9721 20.8936L48.4858 21.9211L49.3803 21.4739L48.8665 20.4464L47.9721 20.8936ZM49.5133 23.9761L50.5408 26.0311L51.4353 25.5839L50.4078 23.5289L49.5133 23.9761ZM51.5683 28.0861L52.5958 30.1411L53.4903 29.6939L52.4628 27.6389L51.5683 28.0861ZM53.6233 32.1961L54.1371 33.2236L55.0315 32.7764L54.5178 31.7489L53.6233 32.1961ZM54.5843 32.5H53.6337V33.5H54.5843V32.5ZM51.7324 32.5H49.8312V33.5H51.7324V32.5ZM47.9299 32.5H46.9793V33.5H47.9299V32.5ZM47.4307 32.7849L46.9732 31.8249L46.0704 32.2551L46.5279 33.2151L47.4307 32.7849ZM46.0582 29.9049L45.1432 27.9849L44.2404 28.4151L45.1554 30.3351L46.0582 29.9049ZM44.2282 26.0649L43.3132 24.1449L42.4104 24.5751L43.3254 26.4951L44.2282 26.0649ZM42.3982 22.2249L41.9407 21.2649L41.0379 21.6951L41.4954 22.6551L42.3982 22.2249ZM41.4893 20.98H40.263V21.98H41.4893V20.98ZM37.8105 20.98H36.5843V21.98H37.8105V20.98ZM36.0843 21.48V22.44H37.0843V21.48H36.0843ZM36.0843 24.36V26.28H37.0843V24.36H36.0843ZM36.0843 28.2V30.12H37.0843V28.2H36.0843ZM36.0843 32.04V33H37.0843V32.04H36.0843ZM43.7843 15.22H42.8843V16.22H43.7843V15.22ZM41.0843 15.22H39.2843V16.22H41.0843V15.22ZM37.4843 15.22H36.5843V16.22H37.4843V15.22ZM37.0843 15.72V14.6962H36.0843V15.72H37.0843ZM37.0843 12.6487V10.6012H36.0843V12.6487H37.0843ZM37.0843 8.55375V7.53H36.0843V8.55375H37.0843ZM36.5843 8.03H37.4843V7.03H36.5843V8.03ZM39.2843 8.03H41.0843V7.03H39.2843V8.03ZM42.8843 8.03H43.7843V7.03H42.8843V8.03ZM43.7843 8.03C43.9905 8.03 44.1835 8.04208 44.3639 8.06548L44.4926 7.0738C44.2656 7.04435 44.0294 7.03 43.7843 7.03V8.03ZM45.4049 8.39269C45.5596 8.48027 45.6994 8.58363 45.8254 8.70297L46.5132 7.97702C46.3274 7.80104 46.1219 7.64945 45.8975 7.52246L45.4049 8.39269ZM45.8455 8.72097C45.9742 8.83041 46.0847 8.95397 46.1778 9.09243L47.0075 8.53413C46.8629 8.31926 46.6911 8.1273 46.4931 7.95903L45.8455 8.72097ZM46.5311 10.0718C46.5562 10.2449 46.5693 10.4324 46.5693 10.635H47.5693C47.5693 10.3896 47.5535 10.1538 47.5207 9.9282L46.5311 10.0718ZM46.5693 10.635V11.13H47.5693V10.635H46.5693ZM46.5693 12.12V12.615H47.5693V12.12H46.5693ZM46.5693 12.615C46.5693 12.82 46.5559 13.0105 46.5301 13.1872L47.5196 13.3317C47.5531 13.1024 47.5693 12.8634 47.5693 12.615H46.5693ZM46.1709 14.192C46.0765 14.3361 45.9648 14.4663 45.8348 14.5834L46.5038 15.3266C46.6973 15.1525 46.8656 14.9566 47.0075 14.7397L46.1709 14.192ZM45.8359 14.5824C45.7091 14.6958 45.5675 14.7945 45.41 14.8782L45.8791 15.7613C46.1059 15.6409 46.3141 15.4963 46.5027 15.3276L45.8359 14.5824ZM44.3632 15.1868C44.1828 15.2087 43.99 15.22 43.7843 15.22V16.22C44.0264 16.22 44.2597 16.2067 44.4838 16.1795L44.3632 15.1868ZM36.5843 33V34H37.5843V33H36.5843ZM29.7443 33H28.7443V34H29.7443V33ZM29.7443 1.59V0.589999H28.7443V1.59H29.7443ZM48.5543 2.31L48.9339 1.38483L48.9339 1.38483L48.5543 2.31ZM51.5243 4.38L50.781 5.04896L50.7927 5.06199L50.8049 5.07459L51.5243 4.38ZM52.6943 17.205L51.8381 16.6881L51.8311 16.7001L52.6943 17.205ZM48.4193 20.67L48.0682 19.7337L47.0281 20.1237L47.5249 21.1172L48.4193 20.67ZM54.5843 33V34H56.2023L55.4787 32.5528L54.5843 33ZM46.9793 33L46.0766 33.4302L46.3481 34H46.9793V33ZM41.4893 21.48L42.392 21.0498L42.1205 20.48H41.4893V21.48ZM36.5843 21.48V20.48H35.5843V21.48H36.5843ZM46.1693 14.955L46.8361 15.7002L46.8383 15.6983L46.1693 14.955ZM46.1693 8.34L45.4816 9.06595L45.5011 9.08448L45.5216 9.10194L46.1693 8.34ZM36.5843 7.53V6.53H35.5843V7.53H36.5843ZM36.5843 15.72H35.5843V16.72H36.5843V15.72ZM36.5843 32H35.7293V34H36.5843V32ZM34.0193 32H32.3093V34H34.0193V32ZM30.5993 32H29.7443V34H30.5993V32ZM30.7443 33V32.0184H28.7443V33H30.7443ZM30.7443 30.0553V28.0922H28.7443V30.0553H30.7443ZM30.7443 26.1291V24.1659H28.7443V26.1291H30.7443ZM30.7443 22.2028V20.2397H28.7443V22.2028H30.7443ZM30.7443 18.2766V16.3134H28.7443V18.2766H30.7443ZM30.7443 14.3503V12.3872H28.7443V14.3503H30.7443ZM30.7443 10.4241V8.46094H28.7443V10.4241H30.7443ZM30.7443 6.49781V4.53469H28.7443V6.49781H30.7443ZM30.7443 2.57156V1.59H28.7443V2.57156H30.7443ZM29.7443 2.59H30.6752V0.589999H29.7443V2.59ZM32.5371 2.59H34.399V0.589999H32.5371V2.59ZM36.2609 2.59H38.1227V0.589999H36.2609V2.59ZM39.9846 2.59H41.8465V0.589999H39.9846V2.59ZM43.7084 2.59H44.6393V0.589999H43.7084V2.59ZM44.6393 2.59C44.9541 2.59 45.2601 2.60243 45.5575 2.627L45.7222 0.633789C45.3677 0.604503 45.0067 0.589999 44.6393 0.589999V2.59ZM47.3337 2.9441C47.6234 3.02686 47.9036 3.12394 48.1747 3.23517L48.9339 1.38483C48.5929 1.24493 48.2425 1.12373 47.8831 1.02104L47.3337 2.9441ZM48.1747 3.23517C48.4292 3.33957 48.6727 3.45453 48.9054 3.57984L49.8536 1.81887C49.5577 1.65955 49.251 1.51494 48.9339 1.38483L48.1747 3.23517ZM50.2148 4.4884C50.4133 4.66325 50.602 4.85003 50.781 5.04896L52.2676 3.71103C52.0374 3.45525 51.7939 3.21411 51.5371 2.98785L50.2148 4.4884ZM50.8049 5.07459C50.9942 5.27063 51.1723 5.47714 51.3393 5.69431L52.9247 4.47514C52.7122 4.19882 52.4852 3.93552 52.2437 3.6854L50.8049 5.07459ZM52.1967 7.10124C52.3141 7.34785 52.422 7.60521 52.5202 7.87358L54.3984 7.18642C54.2796 6.86152 54.1477 6.54656 54.0027 6.24178L52.1967 7.10124ZM52.5202 7.87358C52.6264 8.16392 52.7191 8.46372 52.7981 8.77323L54.736 8.27873C54.6408 7.90567 54.5283 7.54149 54.3984 7.18642L52.5202 7.87358ZM53.0992 10.6568C53.1225 10.9711 53.1343 11.2937 53.1343 11.625H55.1343C55.1343 11.2464 55.1209 10.8744 55.0938 10.509L53.0992 10.6568ZM53.1343 11.625C53.1343 12.09 53.1097 12.538 53.0611 12.9693L55.0486 13.1931C55.1059 12.6834 55.1343 12.1606 55.1343 11.625H53.1343ZM52.4234 15.5237C52.2574 15.9289 52.0624 16.3169 51.8382 16.6881L53.5504 17.7219C53.8281 17.2618 54.0694 16.7816 54.2741 16.2817L52.4234 15.5237ZM51.8311 16.7001C51.6225 17.0567 51.3865 17.3864 51.1231 17.6902L52.6342 19.0004C52.98 18.6016 53.2878 18.171 53.5575 17.7099L51.8311 16.7001ZM49.2147 19.211C48.8612 19.4049 48.4795 19.5794 48.0682 19.7337L48.7704 21.6063C49.2652 21.4208 49.7344 21.2071 50.1767 20.9644L49.2147 19.211ZM47.5249 21.1172L48.0386 22.1447L49.8275 21.2503L49.3137 20.2228L47.5249 21.1172ZM49.0661 24.1997L50.0936 26.2547L51.8825 25.3603L50.855 23.3053L49.0661 24.1997ZM51.1211 28.3097L52.1486 30.3647L53.9375 29.4703L52.91 27.4153L51.1211 28.3097ZM53.1761 32.4197L53.6899 33.4472L55.4787 32.5528L54.965 31.5253L53.1761 32.4197ZM54.5843 32H53.6337V34H54.5843V32ZM51.7324 32H49.8312V34H51.7324V32ZM47.9299 32H46.9793V34H47.9299V32ZM47.882 32.5698L47.4245 31.6098L45.6191 32.4702L46.0766 33.4302L47.882 32.5698ZM46.5095 29.6898L45.5945 27.7698L43.7891 28.6302L44.7041 30.5502L46.5095 29.6898ZM44.6795 25.8498L43.7645 23.9298L41.9591 24.7902L42.8741 26.7102L44.6795 25.8498ZM42.8495 22.0098L42.392 21.0498L40.5866 21.9102L41.0441 22.8702L42.8495 22.0098ZM41.4893 20.48H40.263V22.48H41.4893V20.48ZM37.8105 20.48H36.5843V22.48H37.8105V20.48ZM35.5843 21.48V22.44H37.5843V21.48H35.5843ZM35.5843 24.36V26.28H37.5843V24.36H35.5843ZM35.5843 28.2V30.12H37.5843V28.2H35.5843ZM35.5843 32.04V33H37.5843V32.04H35.5843ZM43.7843 14.72H42.8843V16.72H43.7843V14.72ZM41.0843 14.72H39.2843V16.72H41.0843V14.72ZM37.4843 14.72H36.5843V16.72H37.4843V14.72ZM37.5843 15.72V14.6962H35.5843V15.72H37.5843ZM37.5843 12.6487V10.6012H35.5843V12.6487H37.5843ZM37.5843 8.55375V7.53H35.5843V8.55375H37.5843ZM36.5843 8.53H37.4843V6.53H36.5843V8.53ZM39.2843 8.53H41.0843V6.53H39.2843V8.53ZM42.8843 8.53H43.7843V6.53H42.8843V8.53ZM43.7843 8.53C43.9711 8.53 44.1425 8.54095 44.2995 8.56132L44.5569 6.57796C44.3067 6.54548 44.0488 6.53 43.7843 6.53V8.53ZM45.1586 8.82781C45.2785 8.89568 45.3855 8.97492 45.4816 9.06595L46.857 7.61405C46.6414 7.40975 46.403 7.23405 46.1439 7.08734L45.1586 8.82781ZM45.5216 9.10194C45.6158 9.18197 45.6956 9.27132 45.763 9.37158L47.4223 8.25499C47.252 8.00191 47.0495 7.77574 46.8169 7.57806L45.5216 9.10194ZM46.0363 10.1436C46.0576 10.2905 46.0693 10.4538 46.0693 10.635H48.0693C48.0693 10.3682 48.0521 10.1082 48.0155 9.8564L46.0363 10.1436ZM46.0693 10.635V11.13H48.0693V10.635H46.0693ZM46.0693 12.12V12.615H48.0693V12.12H46.0693ZM46.0693 12.615C46.0693 12.7983 46.0573 12.9645 46.0353 13.115L48.0144 13.4039C48.0517 13.1484 48.0693 12.885 48.0693 12.615H46.0693ZM45.7525 13.9181C45.682 14.0258 45.5986 14.1233 45.5003 14.2117L46.8383 15.6983C47.0636 15.4955 47.2601 15.2669 47.4259 15.0136L45.7525 13.9181ZM45.5025 14.2098C45.4066 14.2956 45.2984 14.3713 45.1755 14.4366L46.1137 16.2029C46.375 16.064 46.6166 15.8966 46.8361 15.7002L45.5025 14.2098ZM44.3028 14.6904C44.1443 14.7097 43.9718 14.72 43.7843 14.72V16.72C44.0446 16.72 44.2982 16.7057 44.5441 16.6758L44.3028 14.6904ZM79.4166 33L78.9378 33.1442L79.045 33.5H79.4166V33ZM77.1666 25.53L77.6453 25.3858L77.5381 25.03H77.1666V25.53ZM66.6816 25.53V25.03H66.31L66.2028 25.3858L66.6816 25.53ZM64.4316 33V33.5H64.8031L64.9103 33.1442L64.4316 33ZM57.5016 33L57.0267 32.8435L56.8104 33.5H57.5016V33ZM67.8516 1.59V1.09H67.4899L67.3767 1.43352L67.8516 1.59ZM76.3116 1.59L76.7871 1.43536L76.6747 1.09H76.3116V1.59ZM86.5266 33V33.5H87.2149L87.0021 32.8454L86.5266 33ZM71.9916 7.8L72.4712 7.65882L72.3656 7.3H71.9916V7.8ZM71.7666 7.8V7.3H71.3912L71.2864 7.66049L71.7666 7.8ZM68.3016 19.725L67.8214 19.5855L67.6356 20.225H68.3016V19.725ZM75.5016 19.725V20.225H76.1699L75.9812 19.5838L75.5016 19.725ZM79.8953 32.8558L79.6141 31.922L78.6566 32.2105L78.9378 33.1442L79.8953 32.8558ZM79.0516 30.0545L78.4891 28.187L77.5316 28.4755L78.0941 30.343L79.0516 30.0545ZM77.9266 26.3195L77.6453 25.3858L76.6878 25.6742L76.9691 26.608L77.9266 26.3195ZM77.1666 25.03H76.2928V26.03H77.1666V25.03ZM74.5453 25.03H72.7978V26.03H74.5453V25.03ZM71.0503 25.03H69.3028V26.03H71.0503V25.03ZM67.5553 25.03H66.6816V26.03H67.5553V25.03ZM66.2028 25.3858L65.9216 26.3195L66.8791 26.608L67.1603 25.6742L66.2028 25.3858ZM65.3591 28.187L64.7966 30.0545L65.7541 30.343L66.3166 28.4755L65.3591 28.187ZM64.2341 31.922L63.9528 32.8558L64.9103 33.1442L65.1916 32.2105L64.2341 31.922ZM64.4316 32.5H63.5653V33.5H64.4316V32.5ZM61.8328 32.5H60.1003V33.5H61.8328V32.5ZM58.3678 32.5H57.5016V33.5H58.3678V32.5ZM57.9764 33.1565L58.2999 32.1749L57.3501 31.862L57.0267 32.8435L57.9764 33.1565ZM58.9468 30.2118L59.5936 28.2487L58.6439 27.9357L57.997 29.8988L58.9468 30.2118ZM60.2405 26.2855L60.8874 24.3224L59.9376 24.0095L59.2907 25.9726L60.2405 26.2855ZM61.5343 22.3593L62.1811 20.3962L61.2314 20.0832L60.5845 22.0463L61.5343 22.3593ZM62.828 18.433L63.4749 16.4699L62.5251 16.157L61.8782 18.1201L62.828 18.433ZM64.1218 14.5068L64.7686 12.5437L63.8189 12.2307L63.172 14.1938L64.1218 14.5068ZM65.4155 10.5805L66.0624 8.61742L65.1126 8.30446L64.4657 10.2676L65.4155 10.5805ZM66.7093 6.6543L67.3561 4.69117L66.4064 4.37821L65.7595 6.34134L66.7093 6.6543ZM68.003 2.72805L68.3264 1.74648L67.3767 1.43352L67.0532 2.41509L68.003 2.72805ZM67.8516 2.09H68.9091V1.09H67.8516V2.09ZM71.0241 2.09H73.1391V1.09H71.0241V2.09ZM75.2541 2.09H76.3116V1.09H75.2541V2.09ZM75.8361 1.74463L76.1553 2.7262L77.1063 2.41693L76.7871 1.43536L75.8361 1.74463ZM76.7937 4.68932L77.4322 6.65245L78.3831 6.34318L77.7447 4.38005L76.7937 4.68932ZM78.0706 8.61557L78.709 10.5787L79.66 10.2694L79.0216 8.3063L78.0706 8.61557ZM79.3475 12.5418L79.9859 14.5049L80.9369 14.1957L80.2985 12.2326L79.3475 12.5418ZM80.6244 16.4681L81.2628 18.4312L82.2138 18.1219L81.5753 16.1588L80.6244 16.4681ZM81.9012 20.3943L82.5397 22.3574L83.4906 22.0482L82.8522 20.0851L81.9012 20.3943ZM83.1781 24.3206L83.8165 26.2837L84.7675 25.9744L84.1291 24.0113L83.1781 24.3206ZM84.455 28.2468L85.0934 30.2099L86.0444 29.9007L85.406 27.9376L84.455 28.2468ZM85.7319 32.1731L86.0511 33.1546L87.0021 32.8454L86.6828 31.8638L85.7319 32.1731ZM86.5266 32.5H85.6378V33.5H86.5266V32.5ZM83.8603 32.5H82.0828V33.5H83.8603V32.5ZM80.3053 32.5H79.4166V33.5H80.3053V32.5ZM71.9916 7.3H71.9353V8.3H71.9916V7.3ZM71.8228 7.3H71.7666V8.3H71.8228V7.3ZM71.2864 7.66049L70.9977 8.65424L71.958 8.93326L72.2467 7.93951L71.2864 7.66049ZM70.4202 10.6417L69.8427 12.6292L70.803 12.9083L71.3805 10.9208L70.4202 10.6417ZM69.2652 14.6167L68.6877 16.6042L69.648 16.8833L70.2255 14.8958L69.2652 14.6167ZM68.1102 18.5917L67.8214 19.5855L68.7817 19.8645L69.0705 18.8708L68.1102 18.5917ZM68.3016 20.225H69.2016V19.225H68.3016V20.225ZM71.0016 20.225H72.8016V19.225H71.0016V20.225ZM74.6016 20.225H75.5016V19.225H74.6016V20.225ZM75.9812 19.5838L75.6887 18.5901L74.7294 18.8724L75.0219 19.8662L75.9812 19.5838ZM75.1037 16.6026L74.5187 14.6151L73.5594 14.8974L74.1444 16.8849L75.1037 16.6026ZM73.9337 12.6276L73.3487 10.6401L72.3894 10.9224L72.9744 12.9099L73.9337 12.6276ZM72.7637 8.65257L72.4712 7.65882L71.5119 7.94118L71.8044 8.93493L72.7637 8.65257ZM79.4166 33L78.4591 33.2884L78.6734 34H79.4166V33ZM77.1666 25.53L78.1241 25.2416L77.9097 24.53H77.1666V25.53ZM66.6816 25.53V24.53H65.9384L65.7241 25.2416L66.6816 25.53ZM64.4316 33V34H65.1747L65.3891 33.2884L64.4316 33ZM57.5016 33L56.5518 32.687L56.1192 34H57.5016V33ZM67.8516 1.59V0.589999H67.1282L66.9018 1.27704L67.8516 1.59ZM76.3116 1.59L77.2625 1.28073L77.0379 0.589999H76.3116V1.59ZM86.5266 33V34H87.9033L87.4775 32.6907L86.5266 33ZM71.9916 7.8L72.9509 7.51764L72.7396 6.8H71.9916V7.8ZM71.7666 7.8V6.8H71.0158L70.8063 7.52097L71.7666 7.8ZM68.3016 19.725L67.3413 19.446L66.9696 20.725H68.3016V19.725ZM75.5016 19.725V20.725H76.8383L76.4609 19.4426L75.5016 19.725ZM80.3741 32.7116L80.0928 31.7778L78.1778 32.3547L78.4591 33.2884L80.3741 32.7116ZM79.5303 29.9103L78.9678 28.0428L77.0528 28.6197L77.6153 30.4872L79.5303 29.9103ZM78.4053 26.1753L78.1241 25.2416L76.2091 25.8184L76.4903 26.7522L78.4053 26.1753ZM77.1666 24.53H76.2928V26.53H77.1666V24.53ZM74.5453 24.53H72.7978V26.53H74.5453V24.53ZM71.0503 24.53H69.3028V26.53H71.0503V24.53ZM67.5553 24.53H66.6816V26.53H67.5553V24.53ZM65.7241 25.2416L65.4428 26.1753L67.3578 26.7522L67.6391 25.8184L65.7241 25.2416ZM64.8803 28.0428L64.3178 29.9103L66.2328 30.4872L66.7953 28.6197L64.8803 28.0428ZM63.7553 31.7778L63.4741 32.7116L65.3891 33.2884L65.6703 32.3547L63.7553 31.7778ZM64.4316 32H63.5653V34H64.4316V32ZM61.8328 32H60.1003V34H61.8328V32ZM58.3678 32H57.5016V34H58.3678V32ZM58.4513 33.313L58.7748 32.3314L56.8752 31.7055L56.5518 32.687L58.4513 33.313ZM59.4216 30.3683L60.0685 28.4051L58.169 27.7792L57.5221 29.7424L59.4216 30.3683ZM60.7154 26.442L61.3623 24.4789L59.4627 23.853L58.8159 25.8161L60.7154 26.442ZM62.0091 22.5158L62.656 20.5526L60.7565 19.9267L60.1096 21.8899L62.0091 22.5158ZM63.3029 18.5895L63.9498 16.6264L62.0502 16.0005L61.4034 17.9636L63.3029 18.5895ZM64.5966 14.6633L65.2435 12.7002L63.344 12.0742L62.6971 14.0374L64.5966 14.6633ZM65.8904 10.737L66.5373 8.7739L64.6377 8.14798L63.9909 10.1111L65.8904 10.737ZM67.1841 6.81078L67.831 4.84765L65.9315 4.22173L65.2846 6.18486L67.1841 6.81078ZM68.4779 2.88453L68.8013 1.90296L66.9018 1.27704L66.5784 2.25861L68.4779 2.88453ZM67.8516 2.59H68.9091V0.589999H67.8516V2.59ZM71.0241 2.59H73.1391V0.589999H71.0241V2.59ZM75.2541 2.59H76.3116V0.589999H75.2541V2.59ZM75.3606 1.89927L75.6798 2.88083L77.5818 2.26229L77.2625 1.28073L75.3606 1.89927ZM76.3182 4.84396L76.9567 6.80708L78.8586 6.18854L78.2202 4.22542L76.3182 4.84396ZM77.5951 8.77021L78.2336 10.7333L80.1355 10.1148L79.4971 8.15167L77.5951 8.77021ZM78.872 12.6965L79.5104 14.6596L81.4124 14.041L80.7739 12.0779L78.872 12.6965ZM80.1489 16.6227L80.7873 18.5858L82.6893 17.9673L82.0508 16.0042L80.1489 16.6227ZM81.4257 20.549L82.0642 22.5121L83.9661 21.8935L83.3277 19.9304L81.4257 20.549ZM82.7026 24.4752L83.3411 26.4383L85.243 25.8198L84.6046 23.8567L82.7026 24.4752ZM83.9795 28.4015L84.6179 30.3646L86.5199 29.746L85.8814 27.7829L83.9795 28.4015ZM85.2564 32.3277L85.5756 33.3093L87.4775 32.6907L87.1583 31.7092L85.2564 32.3277ZM86.5266 32H85.6378V34H86.5266V32ZM83.8603 32H82.0828V34H83.8603V32ZM80.3053 32H79.4166V34H80.3053V32ZM71.9916 6.8H71.9353V8.8H71.9916V6.8ZM71.8228 6.8H71.7666V8.8H71.8228V6.8ZM70.8063 7.52097L70.5175 8.51472L72.4381 9.07278L72.7268 8.07903L70.8063 7.52097ZM69.94 10.5022L69.3625 12.4897L71.2831 13.0478L71.8606 11.0603L69.94 10.5022ZM68.785 14.4772L68.2075 16.4647L70.1281 17.0228L70.7056 15.0353L68.785 14.4772ZM67.63 18.4522L67.3413 19.446L69.2618 20.004L69.5506 19.0103L67.63 18.4522ZM68.3016 20.725H69.2016V18.725H68.3016V20.725ZM71.0016 20.725H72.8016V18.725H71.0016V20.725ZM74.6016 20.725H75.5016V18.725H74.6016V20.725ZM76.4609 19.4426L76.1684 18.4489L74.2498 19.0136L74.5423 20.0074L76.4609 19.4426ZM75.5834 16.4614L74.9984 14.4739L73.0798 15.0386L73.6648 17.0261L75.5834 16.4614ZM74.4134 12.4864L73.8284 10.4989L71.9098 11.0636L72.4948 13.0511L74.4134 12.4864ZM73.2434 8.51139L72.9509 7.51764L71.0323 8.08236L71.3248 9.07611L73.2434 8.51139ZM96.4399 32.55L96.2528 33.0137L96.2599 33.0165L96.4399 32.55ZM92.0749 29.535L91.7012 29.8672L91.705 29.8713L92.0749 29.535ZM89.2849 24.54L88.8099 24.696L88.8106 24.6981L89.2849 24.54ZM89.2849 10.5L89.7606 10.6539L89.7613 10.6519L89.2849 10.5ZM92.0749 5.325L92.4522 5.65311L92.4557 5.64906L92.0749 5.325ZM96.4399 2.13L96.2459 1.66918L96.2459 1.66918L96.4399 2.13ZM109.4 2.85L109.132 3.27213L109.137 3.27513L109.4 2.85ZM113.945 8.43L114.175 8.87377L114.594 8.65649L114.401 8.22593L113.945 8.43ZM108.05 11.49L107.573 11.6416L107.753 12.2072L108.28 11.9338L108.05 11.49ZM106.07 8.34L105.729 8.70595L105.736 8.71201L105.742 8.71784L106.07 8.34ZM97.3399 9.105L96.9741 8.76414L96.9738 8.76445L97.3399 9.105ZM97.3399 25.53L96.9698 25.8664L96.9781 25.875L97.3399 25.53ZM106.205 26.115L106.541 26.485L106.542 26.4845L106.205 26.115ZM108.455 22.785L108.706 22.3526L108.193 22.0548L107.986 22.6106L108.455 22.785ZM114.035 26.025L114.484 26.2441L114.688 25.8261L114.286 25.5926L114.035 26.025ZM109.4 31.605L109.682 32.018L109.683 32.017L109.4 31.605ZM102.2 33.04C101.711 33.04 101.234 33.0222 100.77 32.9867L100.694 33.9838C101.185 34.0213 101.687 34.04 102.2 34.04V33.04ZM97.9658 32.5203C97.5024 32.3966 97.0538 32.251 96.62 32.0835L96.2599 33.0165C96.7281 33.1972 97.2108 33.3538 97.7079 33.4865L97.9658 32.5203ZM96.627 32.0863C96.2236 31.9235 95.8356 31.7428 95.4629 31.5442L94.9927 32.4268C95.3974 32.6424 95.8175 32.838 96.2528 33.0137L96.627 32.0863ZM93.3582 30.0951C93.0386 29.8156 92.7341 29.5168 92.4449 29.1987L91.705 29.8713C92.0196 30.2174 92.3513 30.543 92.7 30.8479L93.3582 30.0951ZM92.4486 29.2028C92.1463 28.8627 91.8614 28.5012 91.5941 28.1182L90.7741 28.6906C91.0633 29.1049 91.3723 29.4972 91.7012 29.8672L92.4486 29.2028ZM90.2554 25.6888C90.0759 25.271 89.9104 24.8354 89.7593 24.3819L88.8106 24.6981C88.9702 25.177 89.1455 25.6389 89.3366 26.0836L90.2554 25.6888ZM89.76 24.384C89.6716 24.1148 89.5892 23.8392 89.5128 23.557L88.5475 23.8183C88.6284 24.117 88.7158 24.4096 88.8099 24.696L89.76 24.384ZM89.1406 21.8647C89.0447 21.3107 88.9686 20.7356 88.9125 20.1392L87.9169 20.2329C87.9752 20.8535 88.0546 21.4543 88.1552 22.0353L89.1406 21.8647ZM88.8073 18.3957C88.799 18.1081 88.7949 17.8162 88.7949 17.52H87.7949C87.7949 17.8255 87.7992 18.1269 87.8077 18.4243L88.8073 18.3957ZM88.7949 17.52C88.7949 17.2242 88.7991 16.9325 88.8075 16.6447L87.808 16.6155C87.7993 16.9133 87.7949 17.2148 87.7949 17.52H88.7949ZM88.9143 14.9017C88.9709 14.3072 89.0476 13.7322 89.1442 13.1763L88.1589 13.0052C88.0577 13.5876 87.9777 14.1882 87.9188 14.8069L88.9143 14.9017ZM89.5157 11.4828C89.5915 11.2007 89.6731 10.9245 89.7606 10.6539L88.8092 10.3461C88.7164 10.6331 88.6299 10.9255 88.55 11.2234L89.5157 11.4828ZM89.7613 10.6519C89.9112 10.1819 90.075 9.73111 90.2526 9.29948L89.3279 8.91886C89.1393 9.37698 88.9663 9.85345 88.8085 10.3481L89.7613 10.6519ZM91.5894 6.77876C91.8592 6.37935 92.1469 6.00421 92.4522 5.65309L91.6976 4.99691C91.3649 5.37956 91.0526 5.78697 90.7608 6.21888L91.5894 6.77876ZM92.4557 5.64906C92.7417 5.31299 93.0424 4.99781 93.3578 4.70338L92.6754 3.9724C92.3315 4.29344 92.0044 4.63634 91.6942 5.00094L92.4557 5.64906ZM95.4597 3.16523C95.8355 2.95369 96.2269 2.76219 96.634 2.59082L96.2459 1.66918C95.8045 1.85501 95.3789 2.06318 94.9692 2.29376L95.4597 3.16523ZM96.634 2.59082C97.0646 2.40948 97.5097 2.25171 97.9693 2.1176L97.6893 1.15762C97.1937 1.3022 96.7126 1.47269 96.2459 1.66918L96.634 2.59082ZM100.768 1.60844C101.233 1.56953 101.71 1.55 102.2 1.55V0.549998C101.684 0.549998 101.179 0.570592 100.685 0.611929L100.768 1.60844ZM102.2 1.55C102.512 1.55 102.818 1.55706 103.117 1.57115L103.164 0.572261C102.848 0.557405 102.527 0.549998 102.2 0.549998V1.55ZM104.931 1.75474C105.552 1.85439 106.139 1.99011 106.693 2.1613L106.988 1.20584C106.386 1.01984 105.753 0.87389 105.089 0.767374L104.931 1.75474ZM108.357 2.83057C108.625 2.96697 108.883 3.11417 109.132 3.27211L109.668 2.42789C109.392 2.25265 109.106 2.08978 108.81 1.93925L108.357 2.83057ZM109.137 3.27513C109.381 3.42622 109.618 3.58958 109.85 3.76526L110.455 2.96899C110.198 2.77426 109.934 2.59286 109.663 2.42487L109.137 3.27513ZM111.131 4.93598C111.513 5.35073 111.874 5.80895 112.213 6.31138L113.042 5.75181C112.676 5.21059 112.285 4.71264 111.867 4.25869L111.131 4.93598ZM113.106 7.83305C113.238 8.09135 113.365 8.35834 113.488 8.63406L114.401 8.22593C114.271 7.93512 114.136 7.6526 113.996 7.37843L113.106 7.83305ZM113.715 7.98623L112.978 8.36873L113.438 9.25627L114.175 8.87377L113.715 7.98623ZM111.504 9.13372L110.03 9.89872L110.491 10.7863L111.965 10.0213L111.504 9.13372ZM108.556 10.6637L107.82 11.0462L108.28 11.9338L109.017 11.5513L108.556 10.6637ZM108.526 11.3384C108.423 11.0135 108.305 10.7025 108.173 10.4057L107.26 10.8128C107.376 11.0737 107.481 11.3499 107.573 11.6416L108.526 11.3384ZM107.113 8.68957C106.893 8.42722 106.654 8.18466 106.397 7.96215L105.742 8.71784C105.959 8.90538 106.16 9.11016 106.347 9.33247L107.113 8.68957ZM106.411 7.97405C106.128 7.71074 105.808 7.48702 105.454 7.30217L104.991 8.1888C105.27 8.33433 105.515 8.50696 105.729 8.70595L106.411 7.97405ZM103.292 6.68338C102.946 6.64425 102.581 6.625 102.2 6.625V7.625C102.548 7.625 102.874 7.64257 103.18 7.67708L103.292 6.68338ZM102.2 6.625C101.704 6.625 101.227 6.66307 100.77 6.74029L100.937 7.72632C101.335 7.65914 101.755 7.625 102.2 7.625V6.625ZM98.0769 7.80972C97.6801 8.08242 97.3125 8.40096 96.9741 8.76414L97.7057 9.44586C97.9964 9.1339 98.309 8.86363 98.6433 8.63385L98.0769 7.80972ZM96.9738 8.76445C96.7862 8.96612 96.6123 9.18093 96.4522 9.40867L97.2702 9.98393C97.4045 9.79284 97.5498 9.61346 97.706 9.44555L96.9738 8.76445ZM95.6833 10.8568C95.4957 11.3383 95.3502 11.8561 95.2454 12.4089L96.2279 12.5951C96.3225 12.0964 96.452 11.6384 96.6151 11.2198L95.6833 10.8568ZM95.0603 13.987C95.0467 14.2435 95.0399 14.5062 95.0399 14.775H96.0399C96.0399 14.523 96.0463 14.278 96.0589 14.04L95.0603 13.987ZM95.0399 14.775V16.035H96.0399V14.775H95.0399ZM95.0399 18.555V19.815H96.0399V18.555H95.0399ZM95.0399 19.815C95.0399 20.0854 95.0468 20.3498 95.0606 20.6081L96.0591 20.5548C96.0463 20.3151 96.0399 20.0685 96.0399 19.815H95.0399ZM95.2473 22.1959C95.3526 22.7509 95.4985 23.2716 95.6866 23.7569L96.619 23.3957C96.4551 22.9725 96.3249 22.5109 96.2298 22.0095L95.2473 22.1959ZM96.4525 25.2149C96.6115 25.4445 96.784 25.6618 96.97 25.8663L97.7099 25.1937C97.554 25.0222 97.409 24.8396 97.2748 24.6457L96.4525 25.2149ZM96.9781 25.875C97.3187 26.2323 97.6887 26.5453 98.0881 26.8127L98.6446 25.9819C98.3081 25.7565 97.9938 25.4912 97.7018 25.185L96.9781 25.875ZM100.778 27.8534C101.233 27.9281 101.707 27.965 102.2 27.965V26.965C101.757 26.965 101.337 26.9319 100.94 26.8666L100.778 27.8534ZM102.2 27.965C102.597 27.965 102.979 27.9411 103.345 27.8927L103.213 26.9013C102.895 26.9435 102.557 26.965 102.2 26.965V27.965ZM105.572 27.1816C105.923 26.9858 106.246 26.7535 106.541 26.485L105.869 25.745C105.63 25.962 105.369 26.1498 105.085 26.3086L105.572 27.1816ZM106.542 26.4845C106.809 26.2412 107.058 25.9857 107.291 25.7181L106.536 25.062C106.33 25.2998 106.107 25.5277 105.868 25.7455L106.542 26.4845ZM108.492 23.941C108.654 23.625 108.798 23.2977 108.924 22.9594L107.986 22.6106C107.874 22.9133 107.746 23.2049 107.602 23.4855L108.492 23.941ZM108.204 23.2174L108.901 23.6224L109.403 22.7576L108.706 22.3526L108.204 23.2174ZM110.296 24.4324L111.691 25.2424L112.193 24.3776L110.798 23.5676L110.296 24.4324ZM113.086 26.0524L113.784 26.4574L114.286 25.5926L113.588 25.1876L113.086 26.0524ZM113.585 25.8059C113.453 26.077 113.316 26.3407 113.175 26.5971L114.05 27.0808C114.2 26.8091 114.345 26.5302 114.484 26.2441L113.585 25.8059ZM112.23 28.1005C111.88 28.5909 111.507 29.0472 111.113 29.4696L111.844 30.1522C112.269 29.6966 112.669 29.2063 113.044 28.6815L112.23 28.1005ZM109.823 30.668C109.594 30.852 109.358 31.0269 109.117 31.193L109.683 32.017C109.945 31.837 110.2 31.6473 110.449 31.448L109.823 30.668ZM109.118 31.192C108.872 31.3597 108.618 31.516 108.353 31.6609L108.834 32.5377C109.126 32.3774 109.409 32.2041 109.682 32.018L109.118 31.192ZM106.702 32.3782C106.148 32.5632 105.561 32.7099 104.94 32.8177L105.111 33.803C105.778 33.6872 106.414 33.5286 107.019 33.3267L106.702 32.3782ZM103.121 33.017C102.82 33.0323 102.513 33.04 102.2 33.04V34.04C102.53 34.04 102.854 34.0319 103.172 34.0157L103.121 33.017ZM96.4399 32.55L96.0657 33.4774L96.0728 33.4802L96.0798 33.4829L96.4399 32.55ZM92.0749 29.535L91.3275 30.1994L91.335 30.2077L92.0749 29.535ZM89.2849 24.54L88.3348 24.852L88.3362 24.8562L89.2849 24.54ZM89.2849 10.5L90.2364 10.8078L90.2377 10.8038L89.2849 10.5ZM92.0749 5.325L92.8296 5.98122L92.8365 5.97312L92.0749 5.325ZM96.4399 2.13L96.0519 1.20836L96.0519 1.20836L96.4399 2.13ZM109.4 2.85L108.864 3.69427L108.874 3.70026L109.4 2.85ZM113.945 8.43L114.406 9.31755L115.243 8.88298L114.858 8.02187L113.945 8.43ZM108.05 11.49L107.097 11.7932L107.457 12.9245L108.511 12.3775L108.05 11.49ZM106.07 8.34L105.389 9.07189L105.402 9.08403L105.415 9.09569L106.07 8.34ZM97.3399 9.105L96.6083 8.42327L96.6077 8.4239L97.3399 9.105ZM97.3399 25.53L96.6 26.2027L96.608 26.2115L96.6162 26.2201L97.3399 25.53ZM106.205 26.115L106.878 26.8549L106.879 26.854L106.205 26.115ZM108.455 22.785L108.957 21.9202L107.931 21.3246L107.518 22.4363L108.455 22.785ZM114.035 26.025L114.934 26.4632L115.341 25.6272L114.537 25.1602L114.035 26.025ZM109.4 31.605L109.964 32.431L109.966 32.429L109.4 31.605ZM102.2 32.54C101.723 32.54 101.259 32.5226 100.808 32.4881L100.656 34.4823C101.16 34.5209 101.675 34.54 102.2 34.54V32.54ZM98.0947 32.0372C97.6481 31.918 97.2167 31.7779 96.8 31.6171L96.0798 33.4829C96.5653 33.6703 97.0651 33.8324 97.579 33.9696L98.0947 32.0372ZM96.8141 31.6226C96.4267 31.4663 96.0547 31.293 95.6981 31.103L94.7576 32.868C95.1783 33.0922 95.6144 33.2953 96.0657 33.4774L96.8141 31.6226ZM93.6874 29.7187C93.3822 29.4519 93.0914 29.1665 92.8149 28.8623L91.335 30.2077C91.6623 30.5677 92.0076 30.9067 92.3709 31.2243L93.6874 29.7187ZM92.8223 28.8706C92.5333 28.5455 92.2605 28.1994 92.0041 27.8321L90.3641 28.9768C90.6642 29.4068 90.9853 29.8144 91.3275 30.1994L92.8223 28.8706ZM90.7148 25.4914C90.541 25.087 90.3805 24.6646 90.2336 24.2238L88.3362 24.8562C88.5001 25.3478 88.6804 25.8228 88.8773 26.281L90.7148 25.4914ZM90.235 24.228C90.1495 23.9674 90.0696 23.7002 89.9954 23.4264L88.0649 23.9489C88.148 24.2559 88.2379 24.5569 88.3348 24.852L90.235 24.228ZM89.6333 21.7794C89.5397 21.2389 89.4652 20.6767 89.4103 20.0924L87.4191 20.2797C87.4786 20.9124 87.5596 21.5261 87.6626 22.1206L89.6333 21.7794ZM89.3071 18.3813C89.299 18.0987 89.2949 17.8116 89.2949 17.52H87.2949C87.2949 17.8301 87.2992 18.1363 87.3079 18.4386L89.3071 18.3813ZM89.2949 17.52C89.2949 17.229 89.2991 16.9421 89.3073 16.6593L87.3082 16.6009C87.2993 16.9037 87.2949 17.21 87.2949 17.52H89.2949ZM89.4121 14.9491C89.4675 14.3667 89.5425 13.8044 89.6368 13.2619L87.6663 12.9196C87.5628 13.5154 87.4811 14.1287 87.4211 14.7595L89.4121 14.9491ZM89.9986 11.6124C90.0722 11.3383 90.1515 11.0702 90.2364 10.8078L88.3335 10.1922C88.238 10.4874 88.1492 10.7879 88.0671 11.0938L89.9986 11.6124ZM90.2377 10.8038C90.3836 10.3461 90.5428 9.90817 90.715 9.48978L88.8655 8.72855C88.6715 9.19992 88.4938 9.68924 88.3322 10.1962L90.2377 10.8038ZM92.0037 7.0587C92.2625 6.67555 92.5379 6.31654 92.8295 5.98118L91.3203 4.66882C90.9739 5.06723 90.6493 5.49078 90.3465 5.93894L92.0037 7.0587ZM92.8365 5.97312C93.1103 5.65131 93.3979 5.35 93.699 5.06886L92.3342 3.60691C91.9761 3.94125 91.6358 4.29802 91.3134 4.67688L92.8365 5.97312ZM95.7049 3.60097C96.0639 3.39895 96.4381 3.21579 96.828 3.05163L96.0519 1.20836C95.5934 1.40142 95.1506 1.61792 94.724 1.85803L95.7049 3.60097ZM96.828 3.05163C97.2407 2.87787 97.6677 2.72646 98.1094 2.59758L97.5492 0.677637C97.0357 0.827454 96.5365 1.0043 96.0519 1.20836L96.828 3.05163ZM100.81 2.1067C101.26 2.069 101.724 2.05 102.2 2.05V0.0499983C101.67 0.0499983 101.152 0.071122 100.643 0.113671L100.81 2.1067ZM102.2 2.05C102.504 2.05 102.802 2.05689 103.093 2.0706L103.187 0.0728148C102.864 0.057576 102.535 0.0499983 102.2 0.0499983V2.05ZM104.851 2.24843C105.451 2.34463 106.015 2.47524 106.546 2.63903L107.136 0.728113C106.51 0.534706 105.854 0.383643 105.168 0.273689L104.851 2.24843ZM108.13 3.27623C108.384 3.40557 108.629 3.54493 108.864 3.69421L109.936 2.00579C109.646 1.82189 109.346 1.65118 109.037 1.49359L108.13 3.27623ZM108.874 3.70026C109.104 3.8429 109.329 3.99723 109.547 4.16339L110.757 2.57086C110.488 2.36661 110.211 2.17618 109.926 1.99973L108.874 3.70026ZM110.763 5.27463C111.127 5.66978 111.472 6.10813 111.799 6.59117L113.456 5.47202C113.078 4.91141 112.671 4.39359 112.235 3.92004L110.763 5.27463ZM112.66 8.06036C112.788 8.31073 112.912 8.56996 113.032 8.83813L114.858 8.02187C114.724 7.72351 114.586 7.43323 114.442 7.15112L112.66 8.06036ZM113.484 7.54245L112.747 7.92495L113.669 9.70005L114.406 9.31755L113.484 7.54245ZM111.274 8.68995L109.8 9.45495L110.721 11.23L112.195 10.465L111.274 8.68995ZM108.326 10.22L107.589 10.6024L108.511 12.3775L109.248 11.995L108.326 10.22ZM109.003 11.1868C108.894 10.8452 108.77 10.5168 108.63 10.2021L106.803 11.0163C106.911 11.2594 107.009 11.5181 107.097 11.7932L109.003 11.1868ZM107.496 8.36811C107.259 8.08575 107.002 7.8243 106.725 7.58431L105.415 9.09569C105.611 9.26574 105.794 9.45163 105.964 9.65392L107.496 8.36811ZM106.751 7.6081C106.434 7.31262 106.077 7.06337 105.685 6.85886L104.76 8.63212C105.001 8.75799 105.209 8.90507 105.389 9.07189L106.751 7.6081ZM103.349 6.18653C102.981 6.14509 102.598 6.125 102.2 6.125V8.125C102.531 8.125 102.839 8.14173 103.124 8.17393L103.349 6.18653ZM102.2 6.125C101.679 6.125 101.174 6.16503 100.687 6.24728L101.02 8.21934C101.388 8.15717 101.781 8.125 102.2 8.125V6.125ZM97.7937 7.39765C97.3657 7.69182 96.9706 8.0345 96.6083 8.42327L98.0715 9.78672C98.3384 9.50036 98.6234 9.25423 98.9265 9.04591L97.7937 7.39765ZM96.6077 8.4239C96.4044 8.64245 96.2162 8.87497 96.0432 9.12104L97.6791 10.2716C97.8006 10.0988 97.9316 9.93712 98.0721 9.7861L96.6077 8.4239ZM95.2174 10.6752C95.0175 11.1883 94.8641 11.736 94.7542 12.3158L96.7192 12.6882C96.8086 12.2165 96.9302 11.7884 97.081 11.4013L95.2174 10.6752ZM94.561 13.9605C94.5469 14.2263 94.5399 14.4978 94.5399 14.775H96.5399C96.5399 14.5314 96.5461 14.2952 96.5582 14.0665L94.561 13.9605ZM94.5399 14.775V16.035H96.5399V14.775H94.5399ZM94.5399 18.555V19.815H96.5399V18.555H94.5399ZM94.5399 19.815C94.5399 20.0938 94.547 20.3671 94.5613 20.6347L96.5584 20.5282C96.5461 20.2978 96.5399 20.0601 96.5399 19.815H94.5399ZM94.7561 22.2891C94.8664 22.8709 95.0203 23.4212 95.2203 23.9376L97.0853 23.215C96.9333 22.8229 96.811 22.3909 96.721 21.9164L94.7561 22.2891ZM96.0414 25.4995C96.2128 25.747 96.399 25.9816 96.6 26.2027L98.0799 24.8573C97.939 24.7024 97.8077 24.5371 97.6859 24.3612L96.0414 25.4995ZM96.6162 26.2201C96.9812 26.6029 97.3791 26.9396 97.8098 27.2282L98.9228 25.5665C98.6177 25.3621 98.3313 25.1207 98.0637 24.8399L96.6162 26.2201ZM100.697 28.3468C101.18 28.4263 101.682 28.465 102.2 28.465V26.465C101.782 26.465 101.389 26.4337 101.021 26.3733L100.697 28.3468ZM102.2 28.465C102.617 28.465 103.021 28.4399 103.41 28.3883L103.148 26.4057C102.853 26.4447 102.537 26.465 102.2 26.465V28.465ZM105.816 27.618C106.2 27.4039 106.554 27.1493 106.878 26.8549L105.532 25.3751C105.322 25.5662 105.092 25.7317 104.841 25.8721L105.816 27.618ZM106.879 26.854C107.159 26.5979 107.423 26.3287 107.668 26.0462L106.159 24.734C105.965 24.9569 105.756 25.1709 105.531 25.376L106.879 26.854ZM108.937 24.1687C109.108 23.8351 109.26 23.49 109.392 23.1337L107.518 22.4363C107.412 22.7211 107.291 22.9948 107.157 23.2578L108.937 24.1687ZM107.953 23.6498L108.65 24.0548L109.655 22.3252L108.957 21.9202L107.953 23.6498ZM110.045 24.8648L111.44 25.6748L112.445 23.9452L111.05 23.1352L110.045 24.8648ZM112.835 26.4848L113.533 26.8898L114.537 25.1602L113.84 24.7552L112.835 26.4848ZM113.136 25.5868C113.008 25.8504 112.875 26.1066 112.737 26.3553L114.488 27.3226C114.642 27.0432 114.791 26.7567 114.934 26.4632L113.136 25.5868ZM111.823 27.8099C111.485 28.2833 111.127 28.7225 110.747 29.1283L112.209 30.4935C112.65 30.0213 113.064 29.5139 113.451 28.9721L111.823 27.8099ZM109.51 30.278C109.29 30.4543 109.065 30.6219 108.833 30.781L109.966 32.429C110.238 32.242 110.504 32.045 110.761 31.838L109.51 30.278ZM108.836 30.779C108.604 30.9374 108.363 31.0853 108.113 31.2225L109.074 32.9761C109.381 32.8081 109.677 32.6264 109.964 32.4309L108.836 30.779ZM106.543 31.9039C106.015 32.0805 105.452 32.2213 104.855 32.3251L105.197 34.2956C105.887 34.1758 106.547 34.0113 107.177 33.8009L106.543 31.9039ZM103.095 32.5177C102.804 32.5325 102.505 32.54 102.2 32.54V34.54C102.538 34.54 102.87 34.5317 103.197 34.5151L103.095 32.5177ZM2.25 78H1.75V78.5H2.25V78ZM2.25 72.555V72.055H1.75V72.555H2.25ZM6.3 72.555V73.055H6.8V72.555H6.3ZM6.3 52.035H6.8V51.535H6.3V52.035ZM2.25 52.035H1.75V52.535H2.25V52.035ZM2.25 46.59V46.09H1.75V46.59H2.25ZM17.19 46.59H17.69V46.09H17.19V46.59ZM17.19 52.035V52.535H17.69V52.035H17.19ZM13.14 52.035V51.535H12.64V52.035H13.14ZM13.14 72.555H12.64V73.055H13.14V72.555ZM17.19 72.555H17.69V72.055H17.19V72.555ZM17.19 78V78.5H17.69V78H17.19ZM2.75 78V76.6387H1.75V78H2.75ZM2.75 73.9162V72.555H1.75V73.9162H2.75ZM2.25 73.055H3.2625V72.055H2.25V73.055ZM5.2875 73.055H6.3V72.055H5.2875V73.055ZM6.8 72.555V71.529H5.8V72.555H6.8ZM6.8 69.477V67.425H5.8V69.477H6.8ZM6.8 65.373V63.321H5.8V65.373H6.8ZM6.8 61.269V59.217H5.8V61.269H6.8ZM6.8 57.165V55.113H5.8V57.165H6.8ZM6.8 53.061V52.035H5.8V53.061H6.8ZM6.3 51.535H5.2875V52.535H6.3V51.535ZM3.2625 51.535H2.25V52.535H3.2625V51.535ZM2.75 52.035V50.6737H1.75V52.035H2.75ZM2.75 47.9512V46.59H1.75V47.9512H2.75ZM2.25 47.09H3.18375V46.09H2.25V47.09ZM5.05125 47.09H6.91875V46.09H5.05125V47.09ZM8.78625 47.09H10.6538V46.09H8.78625V47.09ZM12.5213 47.09H14.3888V46.09H12.5213V47.09ZM16.2563 47.09H17.19V46.09H16.2563V47.09ZM16.69 46.59V47.9512H17.69V46.59H16.69ZM16.69 50.6737V52.035H17.69V50.6737H16.69ZM17.19 51.535H16.1775V52.535H17.19V51.535ZM14.1525 51.535H13.14V52.535H14.1525V51.535ZM12.64 52.035V53.061H13.64V52.035H12.64ZM12.64 55.113V57.165H13.64V55.113H12.64ZM12.64 59.217V61.269H13.64V59.217H12.64ZM12.64 63.321V65.373H13.64V63.321H12.64ZM12.64 67.425V69.477H13.64V67.425H12.64ZM12.64 71.529V72.555H13.64V71.529H12.64ZM13.14 73.055H14.1525V72.055H13.14V73.055ZM16.1775 73.055H17.19V72.055H16.1775V73.055ZM16.69 72.555V73.9162H17.69V72.555H16.69ZM16.69 76.6387V78H17.69V76.6387H16.69ZM17.19 77.5H16.2563V78.5H17.19V77.5ZM14.3888 77.5H12.5213V78.5H14.3888V77.5ZM10.6538 77.5H8.78625V78.5H10.6538V77.5ZM6.91875 77.5H5.05125V78.5H6.91875V77.5ZM3.18375 77.5H2.25V78.5H3.18375V77.5ZM2.25 78H1.25V79H2.25V78ZM2.25 72.555V71.555H1.25V72.555H2.25ZM6.3 72.555V73.555H7.3V72.555H6.3ZM6.3 52.035H7.3V51.035H6.3V52.035ZM2.25 52.035H1.25V53.035H2.25V52.035ZM2.25 46.59V45.59H1.25V46.59H2.25ZM17.19 46.59H18.19V45.59H17.19V46.59ZM17.19 52.035V53.035H18.19V52.035H17.19ZM13.14 52.035V51.035H12.14V52.035H13.14ZM13.14 72.555H12.14V73.555H13.14V72.555ZM17.19 72.555H18.19V71.555H17.19V72.555ZM17.19 78V79H18.19V78H17.19ZM3.25 78V76.6387H1.25V78H3.25ZM3.25 73.9162V72.555H1.25V73.9162H3.25ZM2.25 73.555H3.2625V71.555H2.25V73.555ZM5.2875 73.555H6.3V71.555H5.2875V73.555ZM7.3 72.555V71.529H5.3V72.555H7.3ZM7.3 69.477V67.425H5.3V69.477H7.3ZM7.3 65.373V63.321H5.3V65.373H7.3ZM7.3 61.269V59.217H5.3V61.269H7.3ZM7.3 57.165V55.113H5.3V57.165H7.3ZM7.3 53.061V52.035H5.3V53.061H7.3ZM6.3 51.035H5.2875V53.035H6.3V51.035ZM3.2625 51.035H2.25V53.035H3.2625V51.035ZM3.25 52.035V50.6737H1.25V52.035H3.25ZM3.25 47.9512V46.59H1.25V47.9512H3.25ZM2.25 47.59H3.18375V45.59H2.25V47.59ZM5.05125 47.59H6.91875V45.59H5.05125V47.59ZM8.78625 47.59H10.6538V45.59H8.78625V47.59ZM12.5213 47.59H14.3888V45.59H12.5213V47.59ZM16.2563 47.59H17.19V45.59H16.2563V47.59ZM16.19 46.59V47.9512H18.19V46.59H16.19ZM16.19 50.6737V52.035H18.19V50.6737H16.19ZM17.19 51.035H16.1775V53.035H17.19V51.035ZM14.1525 51.035H13.14V53.035H14.1525V51.035ZM12.14 52.035V53.061H14.14V52.035H12.14ZM12.14 55.113V57.165H14.14V55.113H12.14ZM12.14 59.217V61.269H14.14V59.217H12.14ZM12.14 63.321V65.373H14.14V63.321H12.14ZM12.14 67.425V69.477H14.14V67.425H12.14ZM12.14 71.529V72.555H14.14V71.529H12.14ZM13.14 73.555H14.1525V71.555H13.14V73.555ZM16.1775 73.555H17.19V71.555H16.1775V73.555ZM16.19 72.555V73.9162H18.19V72.555H16.19ZM16.19 76.6387V78H18.19V76.6387H16.19ZM17.19 77H16.2563V79H17.19V77ZM14.3888 77H12.5213V79H14.3888V77ZM10.6538 77H8.78625V79H10.6538V77ZM6.91875 77H5.05125V79H6.91875V77ZM3.18375 77H2.25V79H3.18375V77ZM32.4738 63.15L32.0228 63.3658L32.0313 63.3835L32.0411 63.4005L32.4738 63.15ZM29.4588 56.85L29.9098 56.6342L29.7739 56.35H29.4588V56.85ZM29.3238 56.85V56.35H28.8238V56.85H29.3238ZM29.3238 78V78.5H29.8238V78H29.3238ZM22.8888 78H22.3888V78.5H22.8888V78ZM22.8888 46.59V46.09H22.3888V46.59H22.8888ZM30.3588 46.59L30.7916 46.3395L30.6471 46.09H30.3588V46.59ZM38.9538 61.44L39.4048 61.2242L39.3964 61.2065L39.3866 61.1895L38.9538 61.44ZM41.9688 67.74L41.5178 67.9558L41.6538 68.24H41.9688V67.74ZM42.1038 67.74V68.24H42.6038V67.74H42.1038ZM42.1038 46.59V46.09H41.6038V46.59H42.1038ZM48.5388 46.59H49.0388V46.09H48.5388V46.59ZM48.5388 78V78.5H49.0388V78H48.5388ZM41.0688 78L40.6361 78.2505L40.7805 78.5H41.0688V78ZM32.9248 62.9342L32.548 62.1467L31.6459 62.5783L32.0228 63.3658L32.9248 62.9342ZM31.7942 60.5717L31.0405 58.9967L30.1384 59.4283L30.8922 61.0033L31.7942 60.5717ZM30.2867 57.4217L29.9098 56.6342L29.0078 57.0658L29.3847 57.8533L30.2867 57.4217ZM29.4588 56.35H29.4251V57.35H29.4588V56.35ZM29.3576 56.35H29.3238V57.35H29.3576V56.35ZM28.8238 56.85V57.9075H29.8238V56.85H28.8238ZM28.8238 60.0225V62.1375H29.8238V60.0225H28.8238ZM28.8238 64.2525V66.3675H29.8238V64.2525H28.8238ZM28.8238 68.4825V70.5975H29.8238V68.4825H28.8238ZM28.8238 72.7125V74.8275H29.8238V72.7125H28.8238ZM28.8238 76.9425V78H29.8238V76.9425H28.8238ZM29.3238 77.5H28.5195V78.5H29.3238V77.5ZM26.9107 77.5H25.302V78.5H26.9107V77.5ZM23.6932 77.5H22.8888V78.5H23.6932V77.5ZM23.3888 78V77.0184H22.3888V78H23.3888ZM23.3888 75.0553V73.0922H22.3888V75.0553H23.3888ZM23.3888 71.1291V69.1659H22.3888V71.1291H23.3888ZM23.3888 67.2028V65.2397H22.3888V67.2028H23.3888ZM23.3888 63.2766V61.3134H22.3888V63.2766H23.3888ZM23.3888 59.3503V57.3872H22.3888V59.3503H23.3888ZM23.3888 55.4241V53.4609H22.3888V55.4241H23.3888ZM23.3888 51.4978V49.5347H22.3888V51.4978H23.3888ZM23.3888 47.5716V46.59H22.3888V47.5716H23.3888ZM22.8888 47.09H23.8226V46.09H22.8888V47.09ZM25.6901 47.09H27.5576V46.09H25.6901V47.09ZM29.4251 47.09H30.3588V46.09H29.4251V47.09ZM29.9261 46.8405L30.4633 47.7686L31.3288 47.2677L30.7916 46.3395L29.9261 46.8405ZM31.5376 49.6248L32.612 51.4811L33.4775 50.9802L32.4031 49.1239L31.5376 49.6248ZM33.6864 53.3373L34.7608 55.1936L35.6263 54.6927L34.5519 52.8364L33.6864 53.3373ZM35.8351 57.0498L36.9095 58.9061L37.775 58.4052L36.7006 56.5489L35.8351 57.0498ZM37.9839 60.7623L38.5211 61.6905L39.3866 61.1895L38.8494 60.2614L37.9839 60.7623ZM38.5028 61.6558L38.8797 62.4433L39.7817 62.0117L39.4048 61.2242L38.5028 61.6558ZM39.6334 64.0183L40.3872 65.5933L41.2892 65.1617L40.5355 63.5867L39.6334 64.0183ZM41.1409 67.1683L41.5178 67.9558L42.4198 67.5242L42.043 66.7367L41.1409 67.1683ZM41.9688 68.24H42.0026V67.24H41.9688V68.24ZM42.0701 68.24H42.1038V67.24H42.0701V68.24ZM42.6038 67.74V66.6825H41.6038V67.74H42.6038ZM42.6038 64.5675V62.4525H41.6038V64.5675H42.6038ZM42.6038 60.3375V58.2225H41.6038V60.3375H42.6038ZM42.6038 56.1075V53.9925H41.6038V56.1075H42.6038ZM42.6038 51.8775V49.7625H41.6038V51.8775H42.6038ZM42.6038 47.6475V46.59H41.6038V47.6475H42.6038ZM42.1038 47.09H42.9082V46.09H42.1038V47.09ZM44.517 47.09H46.1257V46.09H44.517V47.09ZM47.7345 47.09H48.5388V46.09H47.7345V47.09ZM48.0388 46.59V47.5716H49.0388V46.59H48.0388ZM48.0388 49.5347V51.4978H49.0388V49.5347H48.0388ZM48.0388 53.4609V55.4241H49.0388V53.4609H48.0388ZM48.0388 57.3872V59.3503H49.0388V57.3872H48.0388ZM48.0388 61.3134V63.2766H49.0388V61.3134H48.0388ZM48.0388 65.2397V67.2028H49.0388V65.2397H48.0388ZM48.0388 69.1659V71.1291H49.0388V69.1659H48.0388ZM48.0388 73.0922V75.0553H49.0388V73.0922H48.0388ZM48.0388 77.0184V78H49.0388V77.0184H48.0388ZM48.5388 77.5H47.6051V78.5H48.5388V77.5ZM45.7376 77.5H43.8701V78.5H45.7376V77.5ZM42.0026 77.5H41.0688V78.5H42.0026V77.5ZM41.5016 77.7495L40.9644 76.8214L40.0989 77.3223L40.6361 78.2505L41.5016 77.7495ZM39.89 74.9652L38.8156 73.1089L37.9501 73.6098L39.0245 75.4661L39.89 74.9652ZM37.7413 71.2527L36.6669 69.3964L35.8014 69.8973L36.8758 71.7536L37.7413 71.2527ZM35.5925 67.5402L34.5181 65.6839L33.6526 66.1848L34.727 68.0411L35.5925 67.5402ZM33.4438 63.8277L32.9066 62.8995L32.0411 63.4005L32.5783 64.3286L33.4438 63.8277ZM32.4738 63.15L31.5718 63.5817L31.5887 63.617L31.6083 63.6509L32.4738 63.15ZM29.4588 56.85L30.3609 56.4183L30.0889 55.85H29.4588V56.85ZM29.3238 56.85V55.85H28.3238V56.85H29.3238ZM29.3238 78V79H30.3238V78H29.3238ZM22.8888 78H21.8888V79H22.8888V78ZM22.8888 46.59V45.59H21.8888V46.59H22.8888ZM30.3588 46.59L31.2243 46.0891L30.9355 45.59H30.3588V46.59ZM38.9538 61.44L39.8559 61.0083L39.8389 60.973L39.8193 60.9391L38.9538 61.44ZM41.9688 67.74L41.0668 68.1717L41.3388 68.74H41.9688V67.74ZM42.1038 67.74V68.74H43.1038V67.74H42.1038ZM42.1038 46.59V45.59H41.1038V46.59H42.1038ZM48.5388 46.59H49.5388V45.59H48.5388V46.59ZM48.5388 78V79H49.5388V78H48.5388ZM41.0688 78L40.2033 78.5009L40.4922 79H41.0688V78ZM33.3759 62.7183L32.999 61.9308L31.1949 62.7942L31.5718 63.5817L33.3759 62.7183ZM32.2452 60.3558L31.4915 58.7808L29.6874 59.6442L30.4412 61.2192L32.2452 60.3558ZM30.7377 57.2058L30.3609 56.4183L28.5568 57.2817L28.9337 58.0692L30.7377 57.2058ZM29.4588 55.85H29.4251V57.85H29.4588V55.85ZM29.3576 55.85H29.3238V57.85H29.3576V55.85ZM28.3238 56.85V57.9075H30.3238V56.85H28.3238ZM28.3238 60.0225V62.1375H30.3238V60.0225H28.3238ZM28.3238 64.2525V66.3675H30.3238V64.2525H28.3238ZM28.3238 68.4825V70.5975H30.3238V68.4825H28.3238ZM28.3238 72.7125V74.8275H30.3238V72.7125H28.3238ZM28.3238 76.9425V78H30.3238V76.9425H28.3238ZM29.3238 77H28.5195V79H29.3238V77ZM26.9107 77H25.302V79H26.9107V77ZM23.6932 77H22.8888V79H23.6932V77ZM23.8888 78V77.0184H21.8888V78H23.8888ZM23.8888 75.0553V73.0922H21.8888V75.0553H23.8888ZM23.8888 71.1291V69.1659H21.8888V71.1291H23.8888ZM23.8888 67.2028V65.2397H21.8888V67.2028H23.8888ZM23.8888 63.2766V61.3134H21.8888V63.2766H23.8888ZM23.8888 59.3503V57.3872H21.8888V59.3503H23.8888ZM23.8888 55.4241V53.4609H21.8888V55.4241H23.8888ZM23.8888 51.4978V49.5347H21.8888V51.4978H23.8888ZM23.8888 47.5716V46.59H21.8888V47.5716H23.8888ZM22.8888 47.59H23.8226V45.59H22.8888V47.59ZM25.6901 47.59H27.5576V45.59H25.6901V47.59ZM29.4251 47.59H30.3588V45.59H29.4251V47.59ZM29.4933 47.0909L30.0305 48.0191L31.7615 47.0172L31.2243 46.0891L29.4933 47.0909ZM31.1049 49.8753L32.1793 51.7316L33.9103 50.7297L32.8359 48.8734L31.1049 49.8753ZM33.2537 53.5878L34.328 55.4441L36.059 54.4422L34.9846 52.5859L33.2537 53.5878ZM35.4024 57.3003L36.4768 59.1566L38.2078 58.1547L37.1334 56.2984L35.4024 57.3003ZM37.5512 61.0128L38.0883 61.9409L39.8193 60.9391L39.2821 60.0109L37.5512 61.0128ZM38.0518 61.8717L38.4287 62.6592L40.2327 61.7958L39.8559 61.0083L38.0518 61.8717ZM39.1824 64.2342L39.9362 65.8092L41.7402 64.9458L40.9865 63.3708L39.1824 64.2342ZM40.6899 67.3842L41.0668 68.1717L42.8709 67.3083L42.494 66.5208L40.6899 67.3842ZM41.9688 68.74H42.0026V66.74H41.9688V68.74ZM42.0701 68.74H42.1038V66.74H42.0701V68.74ZM43.1038 67.74V66.6825H41.1038V67.74H43.1038ZM43.1038 64.5675V62.4525H41.1038V64.5675H43.1038ZM43.1038 60.3375V58.2225H41.1038V60.3375H43.1038ZM43.1038 56.1075V53.9925H41.1038V56.1075H43.1038ZM43.1038 51.8775V49.7625H41.1038V51.8775H43.1038ZM43.1038 47.6475V46.59H41.1038V47.6475H43.1038ZM42.1038 47.59H42.9082V45.59H42.1038V47.59ZM44.517 47.59H46.1257V45.59H44.517V47.59ZM47.7345 47.59H48.5388V45.59H47.7345V47.59ZM47.5388 46.59V47.5716H49.5388V46.59H47.5388ZM47.5388 49.5347V51.4978H49.5388V49.5347H47.5388ZM47.5388 53.4609V55.4241H49.5388V53.4609H47.5388ZM47.5388 57.3872V59.3503H49.5388V57.3872H47.5388ZM47.5388 61.3134V63.2766H49.5388V61.3134H47.5388ZM47.5388 65.2397V67.2028H49.5388V65.2397H47.5388ZM47.5388 69.1659V71.1291H49.5388V69.1659H47.5388ZM47.5388 73.0922V75.0553H49.5388V73.0922H47.5388ZM47.5388 77.0184V78H49.5388V77.0184H47.5388ZM48.5388 77H47.6051V79H48.5388V77ZM45.7376 77H43.8701V79H45.7376V77ZM42.0026 77H41.0688V79H42.0026V77ZM41.9343 77.4991L41.3971 76.5709L39.6662 77.5728L40.2033 78.5009L41.9343 77.4991ZM40.3228 74.7147L39.2484 72.8584L37.5174 73.8603L38.5918 75.7166L40.3228 74.7147ZM38.174 71.0022L37.0996 69.1459L35.3687 70.1478L36.443 72.0041L38.174 71.0022ZM36.0253 67.2897L34.9509 65.4334L33.2199 66.4353L34.2943 68.2916L36.0253 67.2897ZM33.8765 63.5772L33.3393 62.6491L31.6083 63.6509L32.1455 64.5791L33.8765 63.5772ZM75.3873 73.005H75.8873V72.505H75.3873V73.005ZM75.1623 73.005V72.505H74.7321L74.6679 72.9304L75.1623 73.005ZM72.7323 76.965L72.4295 76.5671L72.7323 76.965ZM62.0673 77.505L61.8651 77.9623L61.8651 77.9623L62.0673 77.505ZM57.9723 74.445L57.5945 74.7725L57.5945 74.7725L57.9723 74.445ZM55.2273 69.405L55.7024 69.249L55.7024 69.249L55.2273 69.405ZM55.2723 55.41L55.7459 55.5702L55.7459 55.5702L55.2723 55.41ZM58.1523 50.28L57.783 49.9428L57.779 49.9473L58.1523 50.28ZM62.6523 47.13L62.8435 47.592L62.8435 47.592L62.6523 47.13ZM75.7473 47.895L75.4891 48.3232L75.4938 48.326L75.7473 47.895ZM80.5623 53.34L80.8108 53.7739L81.2148 53.5426L81.0128 53.1231L80.5623 53.34ZM74.9823 56.535L74.5165 56.7168L74.7274 57.2571L75.2308 56.9689L74.9823 56.535ZM72.7323 53.43L72.4078 53.8105L72.4145 53.816L72.7323 53.43ZM63.3723 53.97L63.7216 54.3278L63.7216 54.3278L63.3723 53.97ZM63.3723 70.62L63.0187 70.9736L63.023 70.9778L63.3723 70.62ZM70.8423 72.195L70.959 72.6812L70.9681 72.679L70.9771 72.6765L70.8423 72.195ZM72.8223 71.295L73.1046 71.7077L73.1119 71.7027L73.1189 71.6975L72.8223 71.295ZM74.1273 69.81L73.6946 69.5595L73.6895 69.5682L73.6848 69.5771L74.1273 69.81ZM74.6223 66.21H75.1223V65.71H74.6223V66.21ZM68.7723 66.21H68.2723V66.71H68.7723V66.21ZM68.7723 60.495V59.995H68.2723V60.495H68.7723ZM81.1473 60.495H81.6473V59.995H81.1473V60.495ZM81.1473 78V78.5H81.6473V78H81.1473ZM75.3873 78H74.8873V78.5H75.3873V78ZM75.3873 72.505H75.3311V73.505H75.3873V72.505ZM75.2186 72.505H75.1623V73.505H75.2186V72.505ZM74.6679 72.9304C74.612 73.3009 74.5228 73.6534 74.401 73.9886L75.3408 74.3302C75.4862 73.9303 75.5913 73.5132 75.6567 73.0796L74.6679 72.9304ZM73.2558 75.8277C73.0123 76.0864 72.7372 76.333 72.4295 76.5671L73.0351 77.3629C73.3835 77.0978 73.7002 76.8146 73.984 76.513L73.2558 75.8277ZM72.4295 76.5671C72.0743 76.8374 71.6814 77.0714 71.2497 77.2684L71.6648 78.1781C72.1607 77.9519 72.6179 77.6804 73.0351 77.3629L72.4295 76.5671ZM68.5382 77.9675C68.0864 78.0157 67.6096 78.04 67.1073 78.04V79.04C67.6417 79.04 68.1541 79.0141 68.6443 78.9618L68.5382 77.9675ZM67.1073 78.04C66.6845 78.04 66.2692 78.0203 65.8615 77.9809L65.7654 78.9763C66.206 79.0188 66.6533 79.04 67.1073 79.04V78.04ZM63.4298 77.4872C63.0357 77.362 62.649 77.2156 62.2696 77.0477L61.8651 77.9623C62.2776 78.1447 62.6983 78.3041 63.1271 78.4403L63.4298 77.4872ZM62.2696 77.0477C61.8922 76.8808 61.527 76.6938 61.1739 76.4867L60.668 77.3494C61.0542 77.5758 61.4532 77.7801 61.8651 77.9623L62.2696 77.0477ZM59.2063 75.0102C58.9103 74.732 58.6249 74.4345 58.3501 74.1175L57.5945 74.7725C57.8909 75.1145 58.1999 75.4367 58.5215 75.7389L59.2063 75.0102ZM58.3501 74.1175C58.0527 73.7743 57.7719 73.4082 57.5079 73.0189L56.6803 73.5803C56.9657 74.0011 57.2704 74.3986 57.5945 74.7725L58.3501 74.1175ZM56.1921 70.5648C56.0157 70.1446 55.8524 69.706 55.7024 69.249L54.7523 69.561C54.9102 70.0421 55.0828 70.5058 55.27 70.9518L56.1921 70.5648ZM55.7024 69.249C55.6144 68.9811 55.5324 68.7072 55.4563 68.4271L54.4913 68.6891C54.5717 68.9855 54.6587 69.2762 54.7523 69.561L55.7024 69.249ZM55.0845 66.7458C54.9883 66.1948 54.912 65.6235 54.8557 65.0319L53.8602 65.1266C53.9188 65.7426 53.9985 66.3397 54.0994 66.9178L55.0845 66.7458ZM54.7498 63.2998C54.7415 63.0141 54.7373 62.7241 54.7373 62.43H53.7373C53.7373 62.7335 53.7416 63.0332 53.7502 63.3289L54.7498 63.2998ZM54.7373 62.43C54.7373 62.1341 54.7417 61.8422 54.7505 61.5543L53.751 61.5237C53.7419 61.8221 53.7373 62.1241 53.7373 62.43H54.7373ZM54.8623 59.8109C54.9215 59.2167 55.0017 58.6419 55.1027 58.0865L54.1189 57.9076C54.0128 58.4908 53.929 59.0922 53.8673 59.7117L54.8623 59.8109ZM55.4907 56.3962C55.5697 56.1152 55.6547 55.8398 55.7459 55.5702L54.7987 55.2498C54.7017 55.5363 54.6115 55.8283 54.528 56.1258L55.4907 56.3962ZM55.7459 55.5702C55.9037 55.1037 56.0757 54.6559 56.2617 54.2266L55.3441 53.829C55.1466 54.2848 54.9649 54.7584 54.7987 55.2498L55.7459 55.5702ZM57.6447 51.728C57.9207 51.3335 58.2144 50.9618 58.5256 50.6127L57.779 49.9473C57.4411 50.3264 57.1233 50.7289 56.8254 51.1547L57.6447 51.728ZM58.5215 50.6171C58.8235 50.2864 59.1396 49.9757 59.4696 49.6849L58.8085 48.9346C58.4509 49.2497 58.1091 49.5858 57.7831 49.9429L58.5215 50.6171ZM61.6426 48.1649C62.0283 47.9547 62.4285 47.7637 62.8435 47.592L62.4611 46.668C62.014 46.853 61.5815 47.0593 61.164 47.2868L61.6426 48.1649ZM62.8435 47.592C63.28 47.4114 63.7298 47.2541 64.1928 47.1203L63.9153 46.1596C63.4173 46.3035 62.9325 46.4729 62.4611 46.668L62.8435 47.592ZM67.0149 46.6091C67.4842 46.5698 67.965 46.55 68.4573 46.55V45.55C67.9382 45.55 67.4295 45.5708 66.9313 45.6126L67.0149 46.6091ZM68.4573 46.55C68.7713 46.55 69.08 46.5578 69.3833 46.5734L69.4347 45.5748C69.1137 45.5582 68.7879 45.55 68.4573 45.55V46.55ZM71.2161 46.7732C71.8357 46.879 72.4296 47.0223 72.9983 47.2026L73.3006 46.2494C72.686 46.0545 72.0472 45.9006 71.3845 45.7874L71.2161 46.7732ZM74.6905 47.8848C74.9634 48.0206 75.2296 48.1667 75.4891 48.3232L76.0055 47.4668C75.7227 47.2963 75.4328 47.1372 75.1359 46.9895L74.6905 47.8848ZM75.4938 48.326C75.7475 48.4752 75.9941 48.6344 76.2336 48.8035L76.8104 47.9865C76.5482 47.8014 76.2783 47.6273 76.0008 47.464L75.4938 48.326ZM77.5829 49.9341C77.9944 50.3403 78.3802 50.7852 78.7402 51.269L79.5425 50.6721C79.1534 50.1491 78.7345 49.6657 78.2855 49.2225L77.5829 49.9341ZM79.7014 52.7636C79.8436 53.0197 79.9804 53.2841 80.1118 53.5569L81.0128 53.1231C80.8733 52.8333 80.7275 52.5516 80.5756 52.278L79.7014 52.7636ZM80.3139 52.9061L79.6164 53.3055L80.1133 54.1733L80.8108 53.7739L80.3139 52.9061ZM78.2214 54.1042L76.8264 54.903L77.3233 55.7708L78.7183 54.972L78.2214 54.1042ZM75.4314 55.7017L74.7339 56.1011L75.2308 56.9689L75.9283 56.5695L75.4314 55.7017ZM75.4481 56.3532C75.3217 56.0293 75.1774 55.7174 75.015 55.4177L74.1357 55.894C74.2779 56.1564 74.4048 56.4306 74.5165 56.7168L75.4481 56.3532ZM73.8042 53.7469C73.57 53.4993 73.3186 53.2651 73.0502 53.044L72.4145 53.816C72.6517 54.0113 72.8727 54.2174 73.0778 54.4341L73.8042 53.7469ZM73.0568 53.0496C72.74 52.7794 72.3896 52.5483 72.0069 52.3558L71.5576 53.2492C71.8716 53.4071 72.1545 53.5943 72.4078 53.8104L73.0568 53.0496ZM69.6533 51.6903C69.2722 51.6466 68.8734 51.625 68.4573 51.625V52.625C68.839 52.625 69.1996 52.6448 69.5394 52.6838L69.6533 51.6903ZM68.4573 51.625C67.9517 51.625 67.4663 51.6582 67.0017 51.7253L67.1448 52.715C67.558 52.6553 67.9953 52.625 68.4573 52.625V51.625ZM64.2077 52.6934C63.7793 52.9531 63.3843 53.2596 63.023 53.6122L63.7216 54.3278C64.0288 54.0278 64.3635 53.7683 64.7261 53.5485L64.2077 52.6934ZM63.023 53.6122C62.8186 53.8118 62.6297 54.0277 62.4562 54.2598L63.2572 54.8585C63.4002 54.6672 63.555 54.4904 63.7216 54.3278L63.023 53.6122ZM61.6388 55.745C61.445 56.2363 61.2955 56.7696 61.1884 57.3433L62.1715 57.5267C62.2683 57.0079 62.4014 56.5369 62.569 56.1121L61.6388 55.745ZM61.0025 58.9656C60.989 59.2285 60.9823 59.4984 60.9823 59.775H61.9823C61.9823 59.5145 61.9886 59.2618 62.0012 59.0169L61.0025 58.9656ZM60.9823 59.775V61.035H61.9823V59.775H60.9823ZM60.9823 63.555V64.815H61.9823V63.555H60.9823ZM60.9823 64.815C60.9823 65.0915 60.9892 65.3613 61.0029 65.6244L62.0016 65.5721C61.9888 65.3273 61.9823 65.075 61.9823 64.815H60.9823ZM61.192 67.246C61.3002 67.8175 61.4511 68.3499 61.6463 68.8418L62.5758 68.473C62.4066 68.0468 62.2723 67.5763 62.1746 67.06L61.192 67.246ZM62.46 70.324C62.6312 70.5557 62.8175 70.7723 63.0188 70.9736L63.7259 70.2664C63.5603 70.1009 63.4064 69.922 63.2642 69.7296L62.46 70.324ZM63.023 70.9778C63.3843 71.3304 63.7793 71.6369 64.2077 71.8966L64.7261 71.0415C64.3635 70.8217 64.0288 70.5622 63.7216 70.2622L63.023 70.9778ZM67.0017 72.8647C67.4663 72.9318 67.9517 72.965 68.4573 72.965V71.965C67.9953 71.965 67.558 71.9347 67.1448 71.875L67.0017 72.8647ZM68.4573 72.965C68.669 72.965 68.8782 72.9595 69.0851 72.9485L69.032 71.9499C68.8432 71.96 68.6517 71.965 68.4573 71.965V72.965ZM70.3385 72.809C70.5482 72.7727 70.755 72.7301 70.959 72.6812L70.7256 71.7088C70.5429 71.7527 70.3571 71.7909 70.1682 71.8236L70.3385 72.809ZM70.9771 72.6765C71.1666 72.6234 71.3513 72.5648 71.5311 72.5005L71.1944 71.5589C71.0375 71.615 70.8752 71.6666 70.7075 71.7135L70.9771 72.6765ZM72.6008 72.0189C72.7749 71.922 72.9429 71.8183 73.1046 71.7077L72.54 70.8823C72.4043 70.9752 72.2626 71.0627 72.1148 71.1449L72.6008 72.0189ZM73.1189 71.6975C73.2682 71.5875 73.4099 71.4722 73.5436 71.3515L72.8737 70.609C72.7654 70.7068 72.6495 70.8013 72.5257 70.8925L73.1189 71.6975ZM74.279 70.5212C74.3859 70.3675 74.4828 70.208 74.5698 70.0429L73.6848 69.5771C73.6172 69.7057 73.5416 69.8301 73.458 69.9502L74.279 70.5212ZM74.56 70.0605C74.6606 69.8868 74.7476 69.705 74.821 69.5157L73.8886 69.1542C73.8335 69.2963 73.7688 69.4313 73.6946 69.5595L74.56 70.0605ZM75.0929 68.3636C75.1126 68.1754 75.1223 67.9825 75.1223 67.785H74.1223C74.1223 67.9498 74.1142 68.1078 74.0983 68.2593L75.0929 68.3636ZM75.1223 67.785V67.3912H74.1223V67.785H75.1223ZM75.1223 66.6037V66.21H74.1223V66.6037H75.1223ZM74.6223 65.71H73.1598V66.71H74.6223V65.71ZM70.2348 65.71H68.7723V66.71H70.2348V65.71ZM69.2723 66.21V64.7812H68.2723V66.21H69.2723ZM69.2723 61.9237V60.495H68.2723V61.9237H69.2723ZM68.7723 60.995H69.8036V59.995H68.7723V60.995ZM71.8661 60.995H73.9286V59.995H71.8661V60.995ZM75.9911 60.995H78.0536V59.995H75.9911V60.995ZM80.1161 60.995H81.1473V59.995H80.1161V60.995ZM80.6473 60.495V61.5891H81.6473V60.495H80.6473ZM80.6473 63.7772V65.9653H81.6473V63.7772H80.6473ZM80.6473 68.1534V70.3416H81.6473V68.1534H80.6473ZM80.6473 72.5297V74.7178H81.6473V72.5297H80.6473ZM80.6473 76.9059V78H81.6473V76.9059H80.6473ZM81.1473 77.5H79.7073V78.5H81.1473V77.5ZM76.8273 77.5H75.3873V78.5H76.8273V77.5ZM75.8873 78V76.7512H74.8873V78H75.8873ZM75.8873 74.2537V73.005H74.8873V74.2537H75.8873ZM75.3873 73.005H76.3873V72.005H75.3873V73.005ZM75.1623 73.005V72.005H74.3019L74.1735 72.8557L75.1623 73.005ZM72.7323 76.965L72.1268 76.1692L72.7323 76.965ZM62.0673 77.505L61.6628 78.4195L61.6628 78.4195L62.0673 77.505ZM57.9723 74.445L57.2166 75.0999L57.2166 75.0999L57.9723 74.445ZM55.2273 69.405L56.1774 69.093L56.1774 69.093L55.2273 69.405ZM55.2723 55.41L56.2196 55.7304L56.2196 55.7304L55.2723 55.41ZM58.1523 50.28L57.4138 49.6057L57.4058 49.6146L58.1523 50.28ZM62.6523 47.13L63.0347 48.054L63.0347 48.054L62.6523 47.13ZM75.7473 47.895L75.2309 48.7514L75.2403 48.7569L75.7473 47.895ZM80.5623 53.34L81.0592 54.2078L81.8672 53.7451L81.4633 52.9062L80.5623 53.34ZM74.9823 56.535L74.0507 56.8985L74.4725 57.9792L75.4792 57.4028L74.9823 56.535ZM72.7323 53.43L72.0834 54.1908L72.0899 54.1964L72.0966 54.2019L72.7323 53.43ZM63.3723 53.97L64.0708 54.6856L64.0708 54.6856L63.3723 53.97ZM63.3723 70.62L62.6651 71.3272L62.6738 71.3356L63.3723 70.62ZM70.8423 72.195L71.0757 73.1674L71.0939 73.163L71.1119 73.158L70.8423 72.195ZM72.8223 71.295L73.387 72.1203L73.4014 72.1104L73.4155 72.1001L72.8223 71.295ZM74.1273 69.81L73.2619 69.309L73.2518 69.3264L73.2424 69.3443L74.1273 69.81ZM74.6223 66.21H75.6223V65.21H74.6223V66.21ZM68.7723 66.21H67.7723V67.21H68.7723V66.21ZM68.7723 60.495V59.495H67.7723V60.495H68.7723ZM81.1473 60.495H82.1473V59.495H81.1473V60.495ZM81.1473 78V79H82.1473V78H81.1473ZM75.3873 78H74.3873V79H75.3873V78ZM75.3873 72.005H75.3311V74.005H75.3873V72.005ZM75.2186 72.005H75.1623V74.005H75.2186V72.005ZM74.1735 72.8557C74.1223 73.1948 74.0411 73.515 73.9311 73.8178L75.8107 74.501C75.9679 74.0687 76.0809 73.6193 76.1511 73.1543L74.1735 72.8557ZM72.8917 75.485C72.6684 75.7223 72.4141 75.9506 72.1268 76.1692L73.3378 77.7608C73.7067 77.4802 74.0441 77.1787 74.3481 76.8557L72.8917 75.485ZM72.1268 76.1692C71.8025 76.4159 71.4418 76.6311 71.0421 76.8135L71.8724 78.633C72.4003 78.3921 72.8896 78.1018 73.3378 77.7608L72.1268 76.1692ZM68.4852 77.4703C68.0526 77.5164 67.5935 77.54 67.1073 77.54V79.54C67.6578 79.54 68.188 79.5133 68.6973 79.459L68.4852 77.4703ZM67.1073 77.54C66.7001 77.54 66.3008 77.521 65.9095 77.4832L65.7174 79.474C66.1744 79.5181 66.6377 79.54 67.1073 79.54V77.54ZM63.5812 77.0107C63.2045 76.891 62.8347 76.751 62.4718 76.5905L61.6628 78.4195C62.0919 78.6093 62.5296 78.7751 62.9758 78.9168L63.5812 77.0107ZM62.4718 76.5905C62.1117 76.4312 61.7634 76.2528 61.4268 76.0554L60.4151 77.7807C60.8177 78.0168 61.2337 78.2297 61.6628 78.4195L62.4718 76.5905ZM59.5487 74.6458C59.2655 74.3797 58.9919 74.0945 58.728 73.7901L57.2166 75.0999C57.5239 75.4545 57.8447 75.7891 58.1791 76.1033L59.5487 74.6458ZM58.728 73.7901C58.4439 73.4622 58.175 73.1118 57.9217 72.7383L56.2665 73.8609C56.5627 74.2976 56.8793 74.7107 57.2166 75.0999L58.728 73.7901ZM56.6531 70.3713C56.4822 69.964 56.3235 69.538 56.1774 69.093L54.2772 69.717C54.4392 70.2102 54.6163 70.6864 54.809 71.1453L56.6531 70.3713ZM56.1774 69.093C56.0922 68.8336 56.0127 68.568 55.9389 68.2961L54.0087 68.8201C54.0914 69.1247 54.1809 69.4237 54.2772 69.717L56.1774 69.093ZM55.5771 66.6598C55.4832 66.1223 55.4086 65.5639 55.3534 64.9845L53.3624 65.174C53.4222 65.8022 53.5036 66.4122 53.6069 67.0038L55.5771 66.6598ZM55.2496 63.2853C55.2414 63.0045 55.2373 62.7194 55.2373 62.43H53.2373C53.2373 62.7383 53.2417 63.0427 53.2504 63.3434L55.2496 63.2853ZM55.2373 62.43C55.2373 62.139 55.2416 61.8522 55.2503 61.5696L53.2512 61.5085C53.2419 61.812 53.2373 62.1192 53.2373 62.43H55.2373ZM55.3599 59.8605C55.4178 59.2789 55.4962 58.7175 55.5947 58.1759L53.6269 57.8181C53.5184 58.4153 53.4327 59.03 53.3697 59.6621L55.3599 59.8605ZM55.9721 56.5314C56.0487 56.2586 56.1312 55.9916 56.2196 55.7304L54.325 55.0896C54.2252 55.3846 54.1325 55.6849 54.0466 55.9906L55.9721 56.5314ZM56.2196 55.7304C56.3732 55.2764 56.5402 54.8414 56.7205 54.4254L54.8853 53.6302C54.6821 54.0993 54.4954 54.5858 54.325 55.0896L56.2196 55.7304ZM58.0544 52.0146C58.3195 51.6358 58.601 51.2795 58.8988 50.9454L57.4058 49.6146C57.0545 50.0087 56.7245 50.4267 56.4157 50.868L58.0544 52.0146ZM58.8908 50.9543C59.1808 50.6367 59.4839 50.3387 59.8001 50.0601L58.478 48.5594C58.1065 48.8867 57.7518 49.2355 57.4138 49.6057L58.8908 50.9543ZM61.8818 48.6039C62.2516 48.4024 62.6358 48.2191 63.0347 48.054L62.27 46.206C61.8067 46.3977 61.3582 46.6116 60.9247 46.8478L61.8818 48.6039ZM63.0347 48.054C63.4538 47.8806 63.886 47.7294 64.3316 47.6007L63.7765 45.6793C63.261 45.8282 62.7588 46.0037 62.27 46.206L63.0347 48.054ZM67.0567 47.1074C67.5115 47.0692 67.9783 47.05 68.4573 47.05V45.05C67.9248 45.05 67.4022 45.0714 66.8895 45.1144L67.0567 47.1074ZM68.4573 47.05C68.763 47.05 69.0631 47.0576 69.3576 47.0728L69.4604 45.0754C69.1306 45.0584 68.7962 45.05 68.4573 45.05V47.05ZM71.1319 47.266C71.7299 47.3682 72.3014 47.5061 72.8472 47.6792L73.4517 45.7728C72.8142 45.5706 72.153 45.4115 71.4686 45.2946L71.1319 47.266ZM74.4677 48.3324C74.7286 48.4622 74.983 48.6019 75.231 48.7514L76.2637 47.0386C75.9693 46.8611 75.6676 46.6955 75.3586 46.5418L74.4677 48.3324ZM75.2403 48.7569C75.4821 48.8992 75.7171 49.0509 75.9453 49.2119L77.0987 47.578C76.8252 47.3849 76.5437 47.2033 76.2543 47.0331L75.2403 48.7569ZM77.2317 50.2899C77.6244 50.6777 77.9937 51.1032 78.3391 51.5675L79.9437 50.3736C79.54 49.831 79.1045 49.3284 78.6368 48.8667L77.2317 50.2899ZM79.2643 53.0064C79.4017 53.2537 79.534 53.5095 79.6613 53.7738L81.4633 52.9062C81.3197 52.6079 81.1695 52.3175 81.0127 52.0352L79.2643 53.0064ZM80.0654 52.4722L79.3679 52.8716L80.3617 54.6072L81.0592 54.2078L80.0654 52.4722ZM77.9729 53.6703L76.5779 54.4691L77.5717 56.2047L78.9667 55.4059L77.9729 53.6703ZM75.1829 55.2678L74.4854 55.6672L75.4792 57.4028L76.1767 57.0034L75.1829 55.2678ZM75.9139 56.1715C75.7801 55.8287 75.6271 55.4979 75.4546 55.1795L73.6961 56.1322C73.8281 56.3759 73.9464 56.6312 74.0507 56.8985L75.9139 56.1715ZM74.1674 53.4033C73.9186 53.1403 73.652 52.8919 73.368 52.6581L72.0966 54.2019C72.3182 54.3845 72.5241 54.5764 72.7146 54.7778L74.1674 53.4033ZM73.3813 52.6692C73.0328 52.3719 72.6486 52.1189 72.2316 51.9091L71.3329 53.6959C71.6125 53.8365 71.8617 54.0018 72.0834 54.1908L73.3813 52.6692ZM69.7103 51.1935C69.3085 51.1474 68.8906 51.125 68.4573 51.125V53.125C68.8219 53.125 69.1633 53.1439 69.4824 53.1805L69.7103 51.1935ZM68.4573 51.125C67.9299 51.125 67.4205 51.1596 66.9302 51.2305L67.2164 53.2099C67.6038 53.1539 68.0171 53.125 68.4573 53.125V51.125ZM63.9485 52.2658C63.4872 52.5455 63.062 52.8754 62.6738 53.2544L64.0708 54.6856C64.3511 54.412 64.6556 54.1759 64.9853 53.9761L63.9485 52.2658ZM62.6738 53.2544C62.4504 53.4725 62.2444 53.708 62.0558 53.9604L63.6577 55.1578C63.7855 54.9869 63.9232 54.8297 64.0708 54.6856L62.6738 53.2544ZM61.1737 55.5615C60.9668 56.086 60.8091 56.6505 60.6969 57.2516L62.663 57.6184C62.7547 57.1271 62.8796 56.6872 63.0341 56.2956L61.1737 55.5615ZM60.5032 58.9399C60.4892 59.2119 60.4823 59.4903 60.4823 59.775H62.4823C62.4823 59.5226 62.4884 59.2785 62.5005 59.0425L60.5032 58.9399ZM60.4823 59.775V61.035H62.4823V59.775H60.4823ZM60.4823 63.555V64.815H62.4823V63.555H60.4823ZM60.4823 64.815C60.4823 65.0997 60.4894 65.3783 60.5036 65.6506L62.5009 65.5459C62.4885 65.3103 62.4823 65.0667 62.4823 64.815H60.4823ZM60.7008 67.3391C60.8142 67.938 60.9733 68.5015 61.1815 69.0262L63.0405 68.2885C62.8844 67.8952 62.7584 67.4557 62.6658 66.967L60.7008 67.3391ZM62.0579 70.6212C62.2437 70.8725 62.4461 71.108 62.6652 71.3271L64.0794 69.9129C63.9317 69.7652 63.794 69.6052 63.6663 69.4324L62.0579 70.6212ZM62.6738 71.3356C63.062 71.7146 63.4872 72.0445 63.9485 72.3242L64.9853 70.6139C64.6556 70.4141 64.3511 70.178 64.0708 69.9044L62.6738 71.3356ZM66.9302 73.3595C67.4205 73.4304 67.9299 73.465 68.4573 73.465V71.465C68.0171 71.465 67.6038 71.4361 67.2164 71.3801L66.9302 73.3595ZM68.4573 73.465C68.6776 73.465 68.8957 73.4593 69.1116 73.4478L69.0054 71.4506C68.8258 71.4602 68.6431 71.465 68.4573 71.465V73.465ZM70.4236 73.3017C70.6437 73.2636 70.8611 73.2189 71.0757 73.1674L70.6089 71.2226C70.4368 71.2639 70.2616 71.3 70.0831 71.3309L70.4236 73.3017ZM71.1119 73.158C71.3123 73.1019 71.5082 73.0397 71.6995 72.9713L71.0261 71.0881C70.8806 71.1401 70.7295 71.1881 70.5727 71.232L71.1119 73.158ZM72.8437 72.4559C73.0311 72.3517 73.2122 72.2399 73.387 72.1203L72.2576 70.4697C72.1349 70.5536 72.0064 70.6331 71.8718 70.7079L72.8437 72.4559ZM73.4155 72.1001C73.5776 71.9806 73.7321 71.8549 73.8786 71.7227L72.5388 70.2378C72.4432 70.324 72.3401 70.4081 72.2291 70.4899L73.4155 72.1001ZM74.6894 70.8067C74.808 70.6362 74.9157 70.4592 75.0122 70.2757L73.2424 69.3443C73.1843 69.4546 73.1194 69.5614 73.0475 69.6647L74.6894 70.8067ZM74.9927 70.311C75.1065 70.1145 75.2046 69.9094 75.2872 69.6965L73.4225 68.9734C73.3765 69.0919 73.3229 69.2035 73.2619 69.309L74.9927 70.311ZM75.5902 68.4157C75.6118 68.2092 75.6223 67.9989 75.6223 67.785H73.6223C73.6223 67.9334 73.615 68.074 73.6011 68.2072L75.5902 68.4157ZM75.6223 67.785V67.3912H73.6223V67.785H75.6223ZM75.6223 66.6037V66.21H73.6223V66.6037H75.6223ZM74.6223 65.21H73.1598V67.21H74.6223V65.21ZM70.2348 65.21H68.7723V67.21H70.2348V65.21ZM69.7723 66.21V64.7812H67.7723V66.21H69.7723ZM69.7723 61.9237V60.495H67.7723V61.9237H69.7723ZM68.7723 61.495H69.8036V59.495H68.7723V61.495ZM71.8661 61.495H73.9286V59.495H71.8661V61.495ZM75.9911 61.495H78.0536V59.495H75.9911V61.495ZM80.1161 61.495H81.1473V59.495H80.1161V61.495ZM80.1473 60.495V61.5891H82.1473V60.495H80.1473ZM80.1473 63.7772V65.9653H82.1473V63.7772H80.1473ZM80.1473 68.1534V70.3416H82.1473V68.1534H80.1473ZM80.1473 72.5297V74.7178H82.1473V72.5297H80.1473ZM80.1473 76.9059V78H82.1473V76.9059H80.1473ZM81.1473 77H79.7073V79H81.1473V77ZM76.8273 77H75.3873V79H76.8273V77ZM76.3873 78V76.7512H74.3873V78H76.3873ZM76.3873 74.2537V73.005H74.3873V74.2537H76.3873Z" fill="#DADADA"></path> </svg> 