<?xml version="1.0" encoding="UTF-8"?> <svg xmlns="http://www.w3.org/2000/svg" width="89" height="80" viewBox="0 0 89 80" fill="none"> <path d="M2.465 33H1.965V33.5H2.465V33ZM2.465 1.59V1.09H1.965V1.59H2.465ZM23.3 1.59H23.8V1.09H23.3V1.59ZM23.3 7.665V8.165H23.8V7.665H23.3ZM9.305 7.665V7.165H8.805V7.665H9.305ZM9.305 14.1H8.805V14.6H9.305V14.1ZM21.23 14.1H21.73V13.6H21.23V14.1ZM21.23 20.13V20.63H21.73V20.13H21.23ZM9.305 20.13V19.63H8.805V20.13H9.305ZM9.305 33V33.5H9.805V33H9.305ZM2.965 33V32.0184H1.965V33H2.965ZM2.965 30.0553V28.0922H1.965V30.0553H2.965ZM2.965 26.1291V24.1659H1.965V26.1291H2.965ZM2.965 22.2028V20.2397H1.965V22.2028H2.965ZM2.965 18.2766V16.3134H1.965V18.2766H2.965ZM2.965 14.3503V12.3872H1.965V14.3503H2.965ZM2.965 10.4241V8.46094H1.965V10.4241H2.965ZM2.965 6.49781V4.53469H1.965V6.49781H2.965ZM2.965 2.57156V1.59H1.965V2.57156H2.965ZM2.465 2.09H3.50675V1.09H2.465V2.09ZM5.59025 2.09H7.67375V1.09H5.59025V2.09ZM9.75725 2.09H11.8408V1.09H9.75725V2.09ZM13.9243 2.09H16.0078V1.09H13.9243V2.09ZM18.0913 2.09H20.1748V1.09H18.0913V2.09ZM22.2583 2.09H23.3V1.09H22.2583V2.09ZM22.8 1.59V2.34937H23.8V1.59H22.8ZM22.8 3.86812V5.38687H23.8V3.86812H22.8ZM22.8 6.90562V7.665H23.8V6.90562H22.8ZM23.3 7.165H22.1338V8.165H23.3V7.165ZM19.8013 7.165H17.4688V8.165H19.8013V7.165ZM15.1363 7.165H12.8038V8.165H15.1363V7.165ZM10.4712 7.165H9.305V8.165H10.4712V7.165ZM8.805 7.665V8.46937H9.805V7.665H8.805ZM8.805 10.0781V11.6869H9.805V10.0781H8.805ZM8.805 13.2956V14.1H9.805V13.2956H8.805ZM9.305 14.6H10.2988V13.6H9.305V14.6ZM12.2863 14.6H14.2738V13.6H12.2863V14.6ZM16.2613 14.6H18.2488V13.6H16.2613V14.6ZM20.2363 14.6H21.23V13.6H20.2363V14.6ZM20.73 14.1V14.8537H21.73V14.1H20.73ZM20.73 16.3612V17.8687H21.73V16.3612H20.73ZM20.73 19.3762V20.13H21.73V19.3762H20.73ZM21.23 19.63H20.2363V20.63H21.23V19.63ZM18.2488 19.63H16.2613V20.63H18.2488V19.63ZM14.2738 19.63H12.2863V20.63H14.2738V19.63ZM10.2988 19.63H9.305V20.63H10.2988V19.63ZM8.805 20.13V21.2025H9.805V20.13H8.805ZM8.805 23.3475V25.4925H9.805V23.3475H8.805ZM8.805 27.6375V29.7825H9.805V27.6375H8.805ZM8.805 31.9275V33H9.805V31.9275H8.805ZM9.305 32.5H8.45V33.5H9.305V32.5ZM6.74 32.5H5.03V33.5H6.74V32.5ZM3.32 32.5H2.465V33.5H3.32V32.5ZM2.465 33H1.465V34H2.465V33ZM2.465 1.59V0.589999H1.465V1.59H2.465ZM23.3 1.59H24.3V0.589999H23.3V1.59ZM23.3 7.665V8.665H24.3V7.665H23.3ZM9.305 7.665V6.665H8.305V7.665H9.305ZM9.305 14.1H8.305V15.1H9.305V14.1ZM21.23 14.1H22.23V13.1H21.23V14.1ZM21.23 20.13V21.13H22.23V20.13H21.23ZM9.305 20.13V19.13H8.305V20.13H9.305ZM9.305 33V34H10.305V33H9.305ZM3.465 33V32.0184H1.465V33H3.465ZM3.465 30.0553V28.0922H1.465V30.0553H3.465ZM3.465 26.1291V24.1659H1.465V26.1291H3.465ZM3.465 22.2028V20.2397H1.465V22.2028H3.465ZM3.465 18.2766V16.3134H1.465V18.2766H3.465ZM3.465 14.3503V12.3872H1.465V14.3503H3.465ZM3.465 10.4241V8.46094H1.465V10.4241H3.465ZM3.465 6.49781V4.53469H1.465V6.49781H3.465ZM3.465 2.57156V1.59H1.465V2.57156H3.465ZM2.465 2.59H3.50675V0.589999H2.465V2.59ZM5.59025 2.59H7.67375V0.589999H5.59025V2.59ZM9.75725 2.59H11.8408V0.589999H9.75725V2.59ZM13.9243 2.59H16.0078V0.589999H13.9243V2.59ZM18.0913 2.59H20.1748V0.589999H18.0913V2.59ZM22.2583 2.59H23.3V0.589999H22.2583V2.59ZM22.3 1.59V2.34937H24.3V1.59H22.3ZM22.3 3.86812V5.38687H24.3V3.86812H22.3ZM22.3 6.90562V7.665H24.3V6.90562H22.3ZM23.3 6.665H22.1338V8.665H23.3V6.665ZM19.8013 6.665H17.4688V8.665H19.8013V6.665ZM15.1363 6.665H12.8038V8.665H15.1363V6.665ZM10.4712 6.665H9.305V8.665H10.4712V6.665ZM8.305 7.665V8.46937H10.305V7.665H8.305ZM8.305 10.0781V11.6869H10.305V10.0781H8.305ZM8.305 13.2956V14.1H10.305V13.2956H8.305ZM9.305 15.1H10.2988V13.1H9.305V15.1ZM12.2863 15.1H14.2738V13.1H12.2863V15.1ZM16.2613 15.1H18.2488V13.1H16.2613V15.1ZM20.2363 15.1H21.23V13.1H20.2363V15.1ZM20.23 14.1V14.8537H22.23V14.1H20.23ZM20.23 16.3612V17.8687H22.23V16.3612H20.23ZM20.23 19.3762V20.13H22.23V19.3762H20.23ZM21.23 19.13H20.2363V21.13H21.23V19.13ZM18.2488 19.13H16.2613V21.13H18.2488V19.13ZM14.2738 19.13H12.2863V21.13H14.2738V19.13ZM10.2988 19.13H9.305V21.13H10.2988V19.13ZM8.305 20.13V21.2025H10.305V20.13H8.305ZM8.305 23.3475V25.4925H10.305V23.3475H8.305ZM8.305 27.6375V29.7825H10.305V27.6375H8.305ZM8.305 31.9275V33H10.305V31.9275H8.305ZM9.305 32H8.45V34H9.305V32ZM6.74 32H5.03V34H6.74V32ZM3.32 32H2.465V34H3.32V32ZM34.3559 32.505L34.1688 32.9687L34.1688 32.9687L34.3559 32.505ZM29.9909 29.445L29.6136 29.7731L29.6172 29.7772L29.9909 29.445ZM27.2009 24.36L26.7252 24.5139L26.7259 24.516L27.2009 24.36ZM27.2009 10.275L27.676 10.431L27.6767 10.4289L27.2009 10.275ZM29.9909 5.19L30.3647 5.5222L30.3682 5.51809L29.9909 5.19ZM34.3559 2.085L34.1688 1.62132L34.1688 1.62132L34.3559 2.085ZM45.6959 2.085L45.5088 2.54867L45.5088 2.54867L45.6959 2.085ZM50.0609 5.19L49.6836 5.51811L49.6872 5.52218L50.0609 5.19ZM52.8509 10.275L52.3752 10.4289L52.3759 10.431L52.8509 10.275ZM52.8509 24.36L53.326 24.516L53.3267 24.5139L52.8509 24.36ZM50.0609 29.445L50.4347 29.7772L50.4382 29.7731L50.0609 29.445ZM45.6959 32.505L45.5088 32.0413L45.5088 32.0413L45.6959 32.505ZM44.8409 25.44L44.4631 25.1125L44.4589 25.1174L44.8409 25.44ZM44.8409 9.15L44.4589 9.47262L44.4631 9.47746L44.8409 9.15ZM35.1659 9.15L34.7881 8.82251L34.7839 8.82741L35.1659 9.15ZM35.1659 25.44L34.7839 25.7626L34.7881 25.7675L35.1659 25.44ZM40.0259 33.04C39.5462 33.04 39.0772 33.021 38.6188 32.983L38.5363 33.9796C39.0231 34.0199 39.5197 34.04 40.0259 34.04V33.04ZM35.8634 32.4924C35.4111 32.3644 34.971 32.214 34.543 32.0413L34.1688 32.9687C34.6307 33.155 35.1048 33.317 35.5911 33.4546L35.8634 32.4924ZM34.543 32.0413C34.1384 31.8781 33.7493 31.6958 33.3756 31.4947L32.9017 32.3753C33.3086 32.5942 33.731 32.792 34.1688 32.9687L34.543 32.0413ZM31.2729 30.0237C30.9552 29.7401 30.6524 29.4366 30.3646 29.1128L29.6172 29.7772C29.9302 30.1293 30.2602 30.4602 30.6071 30.7698L31.2729 30.0237ZM30.3682 29.1169C30.0654 28.7686 29.7801 28.399 29.5123 28.0077L28.687 28.5725C28.976 28.9948 29.2849 29.395 29.6136 29.7731L30.3682 29.1169ZM28.1724 25.5324C27.9928 25.1074 27.8272 24.6647 27.676 24.204L26.7259 24.516C26.8854 25.0016 27.0605 25.4703 27.2514 25.9218L28.1724 25.5324ZM27.6767 24.2061C27.5887 23.9342 27.5067 23.6562 27.4306 23.3722L26.4646 23.6308C26.545 23.9309 26.6318 24.2253 26.7252 24.5139L27.6767 24.2061ZM27.0586 21.6675C26.9623 21.1088 26.8859 20.5299 26.8295 19.9307L25.8339 20.0244C25.8926 20.6477 25.9723 21.252 26.0732 21.8374L27.0586 21.6675ZM26.7234 18.1761C26.7151 17.8866 26.7109 17.5929 26.7109 17.295H25.7109C25.7109 17.6022 25.7152 17.9055 25.7239 18.2048L26.7234 18.1761ZM26.7109 17.295C26.7109 16.9988 26.7151 16.7069 26.7233 16.4193L25.7237 16.3907C25.7152 16.6881 25.7109 16.9895 25.7109 17.295H26.7109ZM26.8285 14.6758C26.8846 14.0794 26.9607 13.5043 27.0566 12.9503L26.0713 12.7797C25.9707 13.3607 25.8913 13.9615 25.8329 14.5821L26.8285 14.6758ZM27.4288 11.258C27.5052 10.9758 27.5876 10.7002 27.676 10.431L26.7259 10.119C26.6318 10.4054 26.5444 10.698 26.4636 10.9967L27.4288 11.258ZM27.6767 10.4289C27.8264 9.96602 27.9901 9.52241 28.1676 9.09793L27.245 8.71213C27.0563 9.16349 26.8831 9.63319 26.7252 10.1211L27.6767 10.4289ZM29.5032 6.62304C29.7726 6.23197 30.0598 5.8651 30.3646 5.52218L29.6172 4.85782C29.2843 5.2324 28.9718 5.63177 28.6797 6.05566L29.5032 6.62304ZM30.3682 5.51809C30.6546 5.18881 30.9557 4.88048 31.2715 4.59293L30.5983 3.85349C30.2532 4.16768 29.925 4.50387 29.6136 4.86191L30.3682 5.51809ZM33.3722 3.09988C33.7469 2.8962 34.1372 2.71244 34.543 2.54867L34.1688 1.62132C33.7285 1.79902 33.3037 1.99896 32.8947 2.22124L33.3722 3.09988ZM34.543 2.54867C34.971 2.37598 35.4111 2.22559 35.8634 2.09758L35.5911 1.13538C35.1048 1.27301 34.6307 1.43497 34.1688 1.62132L34.543 2.54867ZM38.6188 1.607C39.0772 1.56904 39.5462 1.55 40.0259 1.55V0.549998C39.5197 0.549998 39.0231 0.570093 38.5363 0.610413L38.6188 1.607ZM40.0259 1.55C40.5057 1.55 40.9747 1.56904 41.4331 1.607L41.5156 0.610413C41.0287 0.570093 40.5322 0.549998 40.0259 0.549998V1.55ZM44.1885 2.09758C44.6408 2.22559 45.0809 2.37598 45.5088 2.54867L45.883 1.62132C45.4212 1.43497 44.9471 1.27301 44.4608 1.13538L44.1885 2.09758ZM45.5088 2.54867C45.9147 2.71244 46.3049 2.8962 46.6797 3.09988L47.1572 2.22124C46.7482 1.99896 46.3234 1.79902 45.883 1.62132L45.5088 2.54867ZM48.7804 4.59293C49.0962 4.88048 49.3973 5.18881 49.6836 5.51809L50.4382 4.86191C50.1269 4.50387 49.7987 4.16768 49.4536 3.85349L48.7804 4.59293ZM49.6872 5.52218C49.9921 5.8651 50.2792 6.23197 50.5487 6.62304L51.3721 6.05566C51.0801 5.63177 50.7676 5.2324 50.4346 4.85782L49.6872 5.52218ZM51.8842 9.09793C52.0618 9.52241 52.2255 9.96602 52.3752 10.4289L53.3267 10.1211C53.1688 9.63319 52.9956 9.16349 52.8068 8.71213L51.8842 9.09793ZM52.3759 10.431C52.4643 10.7002 52.5467 10.9758 52.6231 11.258L53.5883 10.9967C53.5075 10.698 53.42 10.4054 53.326 10.119L52.3759 10.431ZM52.9953 12.9503C53.0912 13.5043 53.1673 14.0794 53.2234 14.6758L54.219 14.5821C54.1606 13.9615 54.0812 13.3607 53.9806 12.7797L52.9953 12.9503ZM53.3286 16.4193C53.3368 16.7069 53.3409 16.9988 53.3409 17.295H54.3409C54.3409 16.9895 54.3367 16.6881 54.3282 16.3907L53.3286 16.4193ZM53.3409 17.295C53.3409 17.5929 53.3368 17.8866 53.3284 18.1761L54.328 18.2048C54.3366 17.9055 54.3409 17.6022 54.3409 17.295H53.3409ZM53.2224 19.9307C53.166 20.5299 53.0895 21.1088 52.9932 21.6675L53.9787 21.8374C54.0796 21.252 54.1593 20.6477 54.218 20.0244L53.2224 19.9307ZM52.6213 23.3722C52.5452 23.6562 52.4632 23.9342 52.3752 24.2061L53.3267 24.5139C53.42 24.2253 53.5069 23.9309 53.5872 23.6308L52.6213 23.3722ZM52.3759 24.204C52.2246 24.6647 52.0591 25.1074 51.8794 25.5324L52.8005 25.9218C52.9914 25.4703 53.1665 25.0016 53.326 24.516L52.3759 24.204ZM50.5396 28.0077C50.2718 28.399 49.9865 28.7686 49.6836 29.1169L50.4382 29.7731C50.767 29.395 51.0758 28.9948 51.3648 28.5725L50.5396 28.0077ZM49.6872 29.1128C49.3995 29.4366 49.0967 29.7401 48.779 30.0237L49.4448 30.7698C49.7917 30.4602 50.1217 30.1293 50.4346 29.7772L49.6872 29.1128ZM46.6763 31.4947C46.3026 31.6958 45.9135 31.8781 45.5088 32.0413L45.883 32.9687C46.3209 32.792 46.7433 32.5942 47.1502 32.3753L46.6763 31.4947ZM45.5088 32.0413C45.0809 32.214 44.6408 32.3644 44.1885 32.4924L44.4608 33.4546C44.9471 33.317 45.4212 33.155 45.883 32.9687L45.5088 32.0413ZM41.4331 32.983C40.9747 33.021 40.5057 33.04 40.0259 33.04V34.04C40.5322 34.04 41.0287 34.0199 41.5156 33.9796L41.4331 32.983ZM40.0259 26.965C39.5755 26.965 39.1516 26.9313 38.7533 26.865L38.5891 27.8515C39.0466 27.9275 39.5257 27.965 40.0259 27.965V26.965ZM36.4582 25.9477C36.1273 25.712 35.8225 25.4341 35.5438 25.1125L34.7881 25.7675C35.1169 26.1468 35.4802 26.4789 35.8782 26.7622L36.4582 25.9477ZM35.548 25.1174C35.3978 24.9396 35.258 24.7501 35.1287 24.5488L34.2873 25.0892C34.4396 25.3263 34.6051 25.5508 34.7839 25.7626L35.548 25.1174ZM34.5032 23.2646C34.3481 22.8332 34.2249 22.3636 34.135 21.8545L33.1503 22.0284C33.249 22.5876 33.3859 23.1129 33.5623 23.6031L34.5032 23.2646ZM33.9741 20.3824C33.962 20.1401 33.9559 19.891 33.9559 19.635H32.9559C32.9559 19.9067 32.9624 20.1724 32.9753 20.4321L33.9741 20.3824ZM33.9559 19.635V18.465H32.9559V19.635H33.9559ZM33.9559 16.125V14.955H32.9559V16.125H33.9559ZM33.9559 14.955C33.9559 14.699 33.962 14.4499 33.9741 14.2076L32.9753 14.1579C32.9624 14.4176 32.9559 14.6833 32.9559 14.955H33.9559ZM34.135 12.7355C34.2249 12.2264 34.3481 11.7568 34.5032 11.3254L33.5623 10.9869C33.3859 11.4771 33.249 12.0024 33.1503 12.5616L34.135 12.7355ZM35.1287 10.0412C35.258 9.83989 35.3978 9.65044 35.548 9.47259L34.7839 8.82741C34.6051 9.03918 34.4396 9.26371 34.2873 9.50077L35.1287 10.0412ZM35.5438 9.47746C35.8225 9.15588 36.1273 8.87796 36.4582 8.64233L35.8782 7.82775C35.4802 8.1111 35.1169 8.44316 34.7881 8.82253L35.5438 9.47746ZM38.7533 7.72498C39.1516 7.65872 39.5755 7.625 40.0259 7.625V6.625C39.5257 6.625 39.0466 6.66245 38.5891 6.73854L38.7533 7.72498ZM40.0259 7.625C40.4739 7.625 40.8949 7.65836 41.2896 7.72387L41.4533 6.73736C40.9995 6.66204 40.5234 6.625 40.0259 6.625V7.625ZM43.5619 8.63721C43.8881 8.87269 44.1871 9.15066 44.4589 9.47259L45.223 8.82741C44.9004 8.44547 44.5419 8.11132 44.1472 7.82643L43.5619 8.63721ZM44.4631 9.47746C44.6164 9.65432 44.759 9.84256 44.891 10.0424L45.7254 9.49137C45.5699 9.25588 45.4011 9.03287 45.2188 8.82253L44.4631 9.47746ZM45.5322 11.3221C45.6919 11.7532 45.8187 12.2227 45.9112 12.7317L46.8951 12.5528C46.7932 11.9923 46.6519 11.4659 46.4699 10.9747L45.5322 11.3221ZM46.0772 14.206C46.0897 14.4488 46.0959 14.6985 46.0959 14.955H47.0959C47.0959 14.6822 47.0893 14.4155 47.0759 14.1548L46.0772 14.206ZM46.0959 14.955V16.125H47.0959V14.955H46.0959ZM46.0959 18.465V19.635H47.0959V18.465H46.0959ZM46.0959 19.635C46.0959 19.8915 46.0897 20.1412 46.0772 20.384L47.0759 20.4352C47.0893 20.1745 47.0959 19.9078 47.0959 19.635H46.0959ZM45.9112 21.8583C45.8187 22.3673 45.6919 22.8368 45.5322 23.2679L46.4699 23.6153C46.6519 23.1241 46.7932 22.5977 46.8951 22.0372L45.9112 21.8583ZM44.891 24.5476C44.759 24.7474 44.6164 24.9357 44.4631 25.1125L45.2188 25.7675C45.4011 25.5571 45.5699 25.3341 45.7254 25.0986L44.891 24.5476ZM44.4589 25.1174C44.1871 25.4393 43.8881 25.7173 43.5619 25.9528L44.1472 26.7636C44.5419 26.4787 44.9004 26.1445 45.223 25.7626L44.4589 25.1174ZM41.2896 26.8661C40.8949 26.9316 40.4739 26.965 40.0259 26.965V27.965C40.5234 27.965 40.9995 27.928 41.4533 27.8526L41.2896 26.8661ZM34.3559 32.505L33.9817 33.4324L33.9817 33.4324L34.3559 32.505ZM29.9909 29.445L29.2363 30.1012L29.2435 30.1094L29.9909 29.445ZM27.2009 24.36L26.2495 24.6678L26.2508 24.672L27.2009 24.36ZM27.2009 10.275L28.151 10.587L28.1524 10.5828L27.2009 10.275ZM29.9909 5.19L30.7384 5.8544L30.7455 5.84618L29.9909 5.19ZM34.3559 2.085L33.9817 1.15765L33.9817 1.15765L34.3559 2.085ZM45.6959 2.085L45.3217 3.01235L45.3217 3.01235L45.6959 2.085ZM50.0609 5.19L49.3063 5.84622L49.3135 5.85436L50.0609 5.19ZM52.8509 10.275L51.8995 10.5828L51.9008 10.587L52.8509 10.275ZM52.8509 24.36L53.801 24.672L53.8024 24.6678L52.8509 24.36ZM50.0609 29.445L50.8084 30.1094L50.8155 30.1012L50.0609 29.445ZM45.6959 32.505L45.3217 31.5776L45.3217 31.5776L45.6959 32.505ZM44.8409 25.44L44.0852 24.785L44.0769 24.7948L44.8409 25.44ZM44.8409 9.15L44.0768 9.79523L44.0852 9.80493L44.8409 9.15ZM35.1659 9.15L34.4102 8.49501L34.4019 8.50482L35.1659 9.15ZM35.1659 25.44L34.4018 26.0852L34.4102 26.0949L35.1659 25.44ZM40.0259 32.54C39.5594 32.54 39.1042 32.5215 38.6601 32.4847L38.495 34.4779C38.9961 34.5194 39.5065 34.54 40.0259 34.54V32.54ZM35.9996 32.0113C35.5643 31.8881 35.1412 31.7435 34.7301 31.5776L33.9817 33.4324C34.4605 33.6255 34.9516 33.7933 35.4549 33.9357L35.9996 32.0113ZM34.7301 31.5776C34.3421 31.4211 33.9697 31.2466 33.6125 31.0544L32.6648 32.8156C33.0882 33.0435 33.5273 33.249 33.9817 33.4324L34.7301 31.5776ZM31.6058 29.6506C31.3027 29.3801 31.0135 29.0902 30.7383 28.7806L29.2435 30.1094C29.5691 30.4756 29.9127 30.8202 30.2742 31.1428L31.6058 29.6506ZM30.7455 28.7888C30.4556 28.4554 30.1821 28.101 29.9249 27.7253L28.2744 28.8548C28.574 29.2927 28.8946 29.7082 29.2363 30.1012L30.7455 28.7888ZM28.633 25.3377C28.4589 24.926 28.2982 24.4962 28.151 24.048L26.2508 24.672C26.4144 25.1701 26.5943 25.6517 26.7909 26.1165L28.633 25.3377ZM28.1524 24.0522C28.0671 23.7886 27.9875 23.5189 27.9136 23.2428L25.9816 23.7601C26.0642 24.0683 26.1534 24.3709 26.2495 24.6678L28.1524 24.0522ZM27.5514 21.5826C27.4574 21.0372 27.3826 20.471 27.3273 19.8839L25.3361 20.0712C25.3959 20.7065 25.4772 21.3236 25.5804 21.9223L27.5514 21.5826ZM27.2232 18.1617C27.215 17.8771 27.2109 17.5882 27.2109 17.295H25.2109C25.2109 17.6069 25.2153 17.9149 25.2241 18.2192L27.2232 18.1617ZM27.2109 17.295C27.2109 17.0034 27.215 16.7163 27.2231 16.4337L25.2239 16.3764C25.2153 16.6787 25.2109 16.9849 25.2109 17.295H27.2109ZM27.3263 14.7226C27.3812 14.1383 27.4557 13.5761 27.5493 13.0356L25.5786 12.6944C25.4757 13.2889 25.3946 13.9026 25.3351 14.5353L27.3263 14.7226ZM27.9114 11.3886C27.9856 11.1148 28.0655 10.8476 28.151 10.587L26.2508 9.96303C26.154 10.2581 26.064 10.5591 25.9809 10.8661L27.9114 11.3886ZM28.1524 10.5828C28.2981 10.1324 28.457 9.70187 28.6289 9.29083L26.7838 8.51922C26.5894 8.98403 26.4114 9.46678 26.2495 9.96718L28.1524 10.5828ZM29.9149 6.90672C30.1731 6.53206 30.4476 6.18145 30.7383 5.85436L29.2435 4.52563C28.8965 4.91606 28.5714 5.33168 28.268 5.77198L29.9149 6.90672ZM30.7455 5.84618C31.0194 5.53127 31.3069 5.23688 31.6081 4.96265L30.2617 3.48377C29.9019 3.81128 29.5602 4.16141 29.2363 4.53382L30.7455 5.84618ZM33.6109 3.53919C33.9686 3.34482 34.3415 3.16915 34.7301 3.01235L33.9817 1.15765C33.5241 1.34231 33.0821 1.55034 32.6559 1.78193L33.6109 3.53919ZM34.7301 3.01235C35.1412 2.84648 35.5643 2.70189 35.9996 2.57869L35.4549 0.654276C34.9516 0.796712 34.4605 0.964461 33.9817 1.15765L34.7301 3.01235ZM38.6601 2.10529C39.1042 2.06852 39.5594 2.05 40.0259 2.05V0.0499983C39.5065 0.0499983 38.9961 0.0706184 38.495 0.112119L38.6601 2.10529ZM40.0259 2.05C40.4925 2.05 40.9477 2.06852 41.3918 2.10529L41.5569 0.112119C41.0558 0.0706184 40.5454 0.0499983 40.0259 0.0499983V2.05ZM44.0523 2.57869C44.4876 2.70189 44.9107 2.84648 45.3217 3.01235L46.0701 1.15765C45.5914 0.964461 45.1002 0.796712 44.597 0.654276L44.0523 2.57869ZM45.3217 3.01235C45.7103 3.16915 46.0833 3.34482 46.441 3.53919L47.3959 1.78193C46.9698 1.55034 46.5278 1.34231 46.0701 1.15765L45.3217 3.01235ZM48.4438 4.96265C48.745 5.23688 49.0325 5.53127 49.3063 5.84618L50.8155 4.53382C50.4917 4.16141 50.1499 3.81128 49.7902 3.48377L48.4438 4.96265ZM49.3135 5.85436C49.6043 6.18145 49.8788 6.53206 50.137 6.90672L51.7839 5.77198C51.4805 5.33168 51.1554 4.91606 50.8083 4.52564L49.3135 5.85436ZM51.423 9.29083C51.5948 9.70187 51.7538 10.1324 51.8995 10.5828L53.8024 9.96718C53.6405 9.46678 53.4625 8.98403 53.2681 8.51922L51.423 9.29083ZM51.9008 10.587C51.9864 10.8476 52.0663 11.1148 52.1404 11.3886L54.071 10.8661C53.9879 10.5591 53.8979 10.2581 53.801 9.96303L51.9008 10.587ZM52.5026 13.0356C52.5962 13.5761 52.6706 14.1383 52.7256 14.7226L54.7168 14.5353C54.6573 13.9026 54.5762 13.2889 54.4733 12.6944L52.5026 13.0356ZM52.8288 16.4337C52.8369 16.7163 52.8409 17.0034 52.8409 17.295H54.8409C54.8409 16.9849 54.8366 16.6787 54.828 16.3764L52.8288 16.4337ZM52.8409 17.295C52.8409 17.5882 52.8368 17.8771 52.8286 18.1617L54.8278 18.2192C54.8366 17.9149 54.8409 17.6069 54.8409 17.295H52.8409ZM52.7246 19.8839C52.6693 20.471 52.5945 21.0372 52.5005 21.5826L54.4714 21.9223C54.5746 21.3236 54.656 20.7065 54.7158 20.0712L52.7246 19.8839ZM52.1383 23.2428C52.0644 23.5189 51.9848 23.7886 51.8995 24.0522L53.8024 24.6678C53.8984 24.3709 53.9877 24.0683 54.0702 23.7601L52.1383 23.2428ZM51.9008 24.048C51.7537 24.4962 51.593 24.926 51.4189 25.3377L53.261 26.1165C53.4575 25.6517 53.6375 25.1701 53.801 24.672L51.9008 24.048ZM50.127 27.7253C49.8698 28.101 49.5962 28.4554 49.3063 28.7888L50.8155 30.1012C51.1572 29.7082 51.4778 29.2927 51.7775 28.8548L50.127 27.7253ZM49.3135 28.7806C49.0384 29.0902 48.7492 29.3801 48.4461 29.6506L49.7777 31.1428C50.1392 30.8202 50.4828 30.4756 50.8083 30.1094L49.3135 28.7806ZM46.4394 31.0544C46.0822 31.2466 45.7098 31.4211 45.3217 31.5776L46.0701 33.4324C46.5246 33.249 46.9637 33.0435 47.3871 32.8156L46.4394 31.0544ZM45.3217 31.5776C44.9107 31.7435 44.4876 31.8881 44.0523 32.0113L44.597 33.9357C45.1002 33.7933 45.5914 33.6255 46.0701 33.4324L45.3217 31.5776ZM41.3918 32.4847C40.9477 32.5215 40.4925 32.54 40.0259 32.54V34.54C40.5454 34.54 41.0558 34.5194 41.5569 34.4779L41.3918 32.4847ZM40.0259 26.465C39.6004 26.465 39.204 26.4331 38.8353 26.3718L38.5071 28.3447C38.9941 28.4257 39.5008 28.465 40.0259 28.465V26.465ZM36.7482 25.5404C36.4508 25.3286 36.1753 25.0778 35.9216 24.7851L34.4102 26.0949C34.7641 26.5032 35.1567 26.8623 35.5881 27.1695L36.7482 25.5404ZM35.93 24.7948C35.7941 24.6339 35.6672 24.462 35.5494 24.2786L33.8666 25.3594C34.0304 25.6144 34.2088 25.8565 34.4019 26.0852L35.93 24.7948ZM34.9737 23.0953C34.8291 22.6934 34.7129 22.2516 34.6274 21.7676L32.6579 22.1154C32.761 22.6996 32.9049 23.2527 33.0918 23.7723L34.9737 23.0953ZM34.4734 20.3575C34.4618 20.1239 34.4559 19.8831 34.4559 19.635H32.4559C32.4559 19.9146 32.4626 20.1886 32.4759 20.457L34.4734 20.3575ZM34.4559 19.635V18.465H32.4559V19.635H34.4559ZM34.4559 16.125V14.955H32.4559V16.125H34.4559ZM34.4559 14.955C34.4559 14.7069 34.4618 14.4661 34.4734 14.2324L32.4759 14.133C32.4626 14.4014 32.4559 14.6754 32.4559 14.955H34.4559ZM34.6274 12.8224C34.7129 12.3384 34.8291 11.8966 34.9737 11.4947L33.0918 10.8177C32.9049 11.3373 32.761 11.8904 32.6579 12.4746L34.6274 12.8224ZM35.5494 10.3114C35.6672 10.128 35.7941 9.95607 35.93 9.79518L34.4019 8.50482C34.2088 8.73354 34.0304 8.97562 33.8666 9.23057L35.5494 10.3114ZM35.9216 9.80493C36.1753 9.51224 36.4508 9.26139 36.7482 9.04962L35.5881 7.42046C35.1567 7.72767 34.7641 8.08679 34.4102 8.49507L35.9216 9.80493ZM38.8353 8.21821C39.204 8.15686 39.6004 8.125 40.0259 8.125V6.125C39.5008 6.125 38.9941 6.16431 38.5071 6.24532L38.8353 8.21821ZM40.0259 8.125C40.4492 8.125 40.8426 8.15652 41.2077 8.21712L41.5352 6.24411C41.0518 6.16388 40.5482 6.125 40.0259 6.125V8.125ZM43.2692 9.0426C43.5612 9.25337 43.8304 9.50326 44.0769 9.79518L45.605 8.50482C45.2571 8.09287 44.8688 7.73064 44.4399 7.42104L43.2692 9.0426ZM44.0852 9.80493C44.224 9.96505 44.3535 10.1359 44.4737 10.3179L46.1427 9.21585C45.9754 8.96254 45.7934 8.72214 45.5966 8.49507L44.0852 9.80493ZM45.0633 11.4958C45.2119 11.8969 45.3314 12.3379 45.4193 12.8212L47.387 12.4633C47.2804 11.8771 47.1319 11.3223 46.9388 10.8011L45.0633 11.4958ZM45.5779 14.2316C45.5899 14.4655 45.5959 14.7066 45.5959 14.955H47.5959C47.5959 14.6741 47.5891 14.3988 47.5753 14.1292L45.5779 14.2316ZM45.5959 14.955V16.125H47.5959V14.955H45.5959ZM45.5959 18.465V19.635H47.5959V18.465H45.5959ZM45.5959 19.635C45.5959 19.8834 45.5899 20.1245 45.5779 20.3584L47.5753 20.4608C47.5891 20.1911 47.5959 19.9159 47.5959 19.635H45.5959ZM45.4193 21.7688C45.3314 22.2521 45.2119 22.6931 45.0633 23.0942L46.9388 23.7889C47.1319 23.2677 47.2804 22.7129 47.387 22.1267L45.4193 21.7688ZM44.4737 24.2721C44.3535 24.4541 44.224 24.6249 44.0852 24.7851L45.5966 26.0949C45.7934 25.8679 45.9754 25.6275 46.1427 25.3741L44.4737 24.2721ZM44.0769 24.7948C43.8304 25.0867 43.5612 25.3366 43.2692 25.5474L44.4399 27.169C44.8688 26.8594 45.2571 26.4971 45.605 26.0852L44.0769 24.7948ZM41.2077 26.3729C40.8426 26.4335 40.4492 26.465 40.0259 26.465V28.465C40.5482 28.465 41.0518 28.4261 41.5352 28.3459L41.2077 26.3729ZM59.55 33H59.05V33.5H59.55V33ZM59.55 1.59V1.09H59.05V1.59H59.55ZM66.39 1.59H66.89V1.09H66.39V1.59ZM66.39 26.925H65.89V27.425H66.39V26.925ZM78.36 26.925H78.86V26.425H78.36V26.925ZM78.36 33V33.5H78.86V33H78.36ZM60.05 33V32.0184H59.05V33H60.05ZM60.05 30.0553V28.0922H59.05V30.0553H60.05ZM60.05 26.1291V24.1659H59.05V26.1291H60.05ZM60.05 22.2028V20.2397H59.05V22.2028H60.05ZM60.05 18.2766V16.3134H59.05V18.2766H60.05ZM60.05 14.3503V12.3872H59.05V14.3503H60.05ZM60.05 10.4241V8.46094H59.05V10.4241H60.05ZM60.05 6.49781V4.53469H59.05V6.49781H60.05ZM60.05 2.57156V1.59H59.05V2.57156H60.05ZM59.55 2.09H60.405V1.09H59.55V2.09ZM62.115 2.09H63.825V1.09H62.115V2.09ZM65.535 2.09H66.39V1.09H65.535V2.09ZM65.89 1.59V2.64562H66.89V1.59H65.89ZM65.89 4.75687V6.86813H66.89V4.75687H65.89ZM65.89 8.97937V11.0906H66.89V8.97937H65.89ZM65.89 13.2019V15.3131H66.89V13.2019H65.89ZM65.89 17.4244V19.5356H66.89V17.4244H65.89ZM65.89 21.6469V23.7581H66.89V21.6469H65.89ZM65.89 25.8694V26.925H66.89V25.8694H65.89ZM66.39 27.425H67.3875V26.425H66.39V27.425ZM69.3825 27.425H71.3775V26.425H69.3825V27.425ZM73.3725 27.425H75.3675V26.425H73.3725V27.425ZM77.3625 27.425H78.36V26.425H77.3625V27.425ZM77.86 26.925V27.6844H78.86V26.925H77.86ZM77.86 29.2031V30.7219H78.86V29.2031H77.86ZM77.86 32.2406V33H78.86V32.2406H77.86ZM78.36 32.5H77.4195V33.5H78.36V32.5ZM75.5385 32.5H73.6575V33.5H75.5385V32.5ZM71.7765 32.5H69.8955V33.5H71.7765V32.5ZM68.0145 32.5H66.1335V33.5H68.0145V32.5ZM64.2525 32.5H62.3715V33.5H64.2525V32.5ZM60.4905 32.5H59.55V33.5H60.4905V32.5ZM59.55 33H58.55V34H59.55V33ZM59.55 1.59V0.589999H58.55V1.59H59.55ZM66.39 1.59H67.39V0.589999H66.39V1.59ZM66.39 26.925H65.39V27.925H66.39V26.925ZM78.36 26.925H79.36V25.925H78.36V26.925ZM78.36 33V34H79.36V33H78.36ZM60.55 33V32.0184H58.55V33H60.55ZM60.55 30.0553V28.0922H58.55V30.0553H60.55ZM60.55 26.1291V24.1659H58.55V26.1291H60.55ZM60.55 22.2028V20.2397H58.55V22.2028H60.55ZM60.55 18.2766V16.3134H58.55V18.2766H60.55ZM60.55 14.3503V12.3872H58.55V14.3503H60.55ZM60.55 10.4241V8.46094H58.55V10.4241H60.55ZM60.55 6.49781V4.53469H58.55V6.49781H60.55ZM60.55 2.57156V1.59H58.55V2.57156H60.55ZM59.55 2.59H60.405V0.589999H59.55V2.59ZM62.115 2.59H63.825V0.589999H62.115V2.59ZM65.535 2.59H66.39V0.589999H65.535V2.59ZM65.39 1.59V2.64562H67.39V1.59H65.39ZM65.39 4.75687V6.86813H67.39V4.75687H65.39ZM65.39 8.97937V11.0906H67.39V8.97937H65.39ZM65.39 13.2019V15.3131H67.39V13.2019H65.39ZM65.39 17.4244V19.5356H67.39V17.4244H65.39ZM65.39 21.6469V23.7581H67.39V21.6469H65.39ZM65.39 25.8694V26.925H67.39V25.8694H65.39ZM66.39 27.925H67.3875V25.925H66.39V27.925ZM69.3825 27.925H71.3775V25.925H69.3825V27.925ZM73.3725 27.925H75.3675V25.925H73.3725V27.925ZM77.3625 27.925H78.36V25.925H77.3625V27.925ZM77.36 26.925V27.6844H79.36V26.925H77.36ZM77.36 29.2031V30.7219H79.36V29.2031H77.36ZM77.36 32.2406V33H79.36V32.2406H77.36ZM78.36 32H77.4195V34H78.36V32ZM75.5385 32H73.6575V34H75.5385V32ZM71.7765 32H69.8955V34H71.7765V32ZM68.0145 32H66.1335V34H68.0145V32ZM64.2525 32H62.3715V34H64.2525V32ZM60.4905 32H59.55V34H60.4905V32ZM22.4 73.005H22.9V72.505H22.4V73.005ZM22.175 73.005V72.505H21.7448L21.6806 72.9304L22.175 73.005ZM19.745 76.965L19.4422 76.5671L19.745 76.965ZM9.08 77.505L8.87775 77.9623L8.87775 77.9623L9.08 77.505ZM4.985 74.445L4.60716 74.7725L4.60716 74.7725L4.985 74.445ZM2.24 69.405L2.71505 69.249L2.71505 69.249L2.24 69.405ZM2.285 55.41L2.75864 55.5702L2.75864 55.5702L2.285 55.41ZM5.165 50.28L4.79573 49.9428L4.79174 49.9473L5.165 50.28ZM9.665 47.13L9.85618 47.592L9.85618 47.592L9.665 47.13ZM22.76 47.895L22.5018 48.3232L22.5065 48.326L22.76 47.895ZM27.575 53.34L27.8234 53.7739L28.2275 53.5426L28.0255 53.1231L27.575 53.34ZM21.995 56.535L21.5292 56.7168L21.7401 57.2571L22.2434 56.9689L21.995 56.535ZM19.745 53.43L19.4205 53.8105L19.4271 53.816L19.745 53.43ZM10.385 53.97L10.7343 54.3278L10.7343 54.3278L10.385 53.97ZM10.385 70.62L10.0314 70.9736L10.0357 70.9778L10.385 70.62ZM17.855 72.195L17.9717 72.6812L17.9808 72.679L17.9898 72.6765L17.855 72.195ZM19.835 71.295L20.1173 71.7077L20.1246 71.7027L20.1316 71.6975L19.835 71.295ZM21.14 69.81L20.7073 69.5595L20.7022 69.5682L20.6975 69.5771L21.14 69.81ZM21.635 66.21H22.135V65.71H21.635V66.21ZM15.785 66.21H15.285V66.71H15.785V66.21ZM15.785 60.495V59.995H15.285V60.495H15.785ZM28.16 60.495H28.66V59.995H28.16V60.495ZM28.16 78V78.5H28.66V78H28.16ZM22.4 78H21.9V78.5H22.4V78ZM22.4 72.505H22.3438V73.505H22.4V72.505ZM22.2313 72.505H22.175V73.505H22.2313V72.505ZM21.6806 72.9304C21.6247 73.3009 21.5355 73.6534 21.4137 73.9886L22.3535 74.3302C22.4989 73.9303 22.604 73.5132 22.6694 73.0796L21.6806 72.9304ZM20.2685 75.8277C20.025 76.0864 19.7499 76.333 19.4422 76.5671L20.0478 77.3629C20.3962 77.0978 20.7129 76.8146 20.9967 76.513L20.2685 75.8277ZM19.4422 76.5671C19.087 76.8374 18.6941 77.0714 18.2624 77.2684L18.6775 78.1781C19.1734 77.9519 19.6306 77.6804 20.0478 77.3629L19.4422 76.5671ZM15.5509 77.9675C15.0991 78.0157 14.6223 78.04 14.12 78.04V79.04C14.6544 79.04 15.1668 79.0141 15.657 78.9618L15.5509 77.9675ZM14.12 78.04C13.6972 78.04 13.2819 78.0203 12.8742 77.9809L12.7781 78.9763C13.2187 79.0188 13.666 79.04 14.12 79.04V78.04ZM10.4425 77.4872C10.0484 77.362 9.66169 77.2156 9.28225 77.0477L8.87775 77.9623C9.29029 78.1447 9.711 78.3041 10.1398 78.4403L10.4425 77.4872ZM9.28225 77.0477C8.90491 76.8808 8.53971 76.6938 8.18656 76.4867L7.68072 77.3494C8.06686 77.5758 8.4659 77.7801 8.87775 77.9623L9.28225 77.0477ZM6.21901 75.0102C5.92298 74.732 5.63757 74.4345 5.36284 74.1175L4.60716 74.7725C4.9036 75.1145 5.2126 75.4367 5.53421 75.7389L6.21901 75.0102ZM5.36284 74.1175C5.06542 73.7743 4.78463 73.4082 4.52058 73.0189L3.69299 73.5803C3.97845 74.0011 4.28314 74.3986 4.60716 74.7725L5.36284 74.1175ZM3.20478 70.5648C3.0284 70.1446 2.86512 69.706 2.71505 69.249L1.76495 69.561C1.92294 70.0421 2.09548 70.5058 2.28271 70.9518L3.20478 70.5648ZM2.71505 69.249C2.62709 68.9811 2.54507 68.7072 2.46902 68.4271L1.50396 68.6891C1.58444 68.9855 1.67143 69.2762 1.76495 69.561L2.71505 69.249ZM2.0972 66.7458C2.00101 66.1948 1.92467 65.6235 1.86836 65.0319L0.872859 65.1266C0.931492 65.7426 1.01119 66.3397 1.1121 66.9178L2.0972 66.7458ZM1.76247 63.2998C1.75416 63.0141 1.75 62.7241 1.75 62.43H0.75C0.75 62.7335 0.754295 63.0332 0.762896 63.3289L1.76247 63.2998ZM1.75 62.43C1.75 62.1341 1.75441 61.8422 1.76321 61.5543L0.763678 61.5237C0.754555 61.8221 0.75 62.1241 0.75 62.43H1.75ZM1.87502 59.8109C1.93424 59.2167 2.01443 58.6419 2.11544 58.0865L1.13157 57.9076C1.02552 58.4908 0.941694 59.0922 0.879948 59.7117L1.87502 59.8109ZM2.50343 56.3962C2.58236 56.1152 2.66744 55.8398 2.75864 55.5702L1.81136 55.2498C1.71444 55.5363 1.62422 55.8283 1.54068 56.1258L2.50343 56.3962ZM2.75864 55.5702C2.91642 55.1037 3.08837 54.6559 3.27438 54.2266L2.35681 53.829C2.15933 54.2848 1.97755 54.7584 1.81136 55.2498L2.75864 55.5702ZM4.65741 51.728C4.93343 51.3335 5.22707 50.9618 5.53826 50.6127L4.79174 49.9473C4.45383 50.3264 4.13596 50.7289 3.83808 51.1547L4.65741 51.728ZM5.53424 50.6171C5.83624 50.2864 6.15225 49.9757 6.48227 49.6849L5.82119 48.9346C5.46358 49.2497 5.12177 49.5858 4.79576 49.9429L5.53424 50.6171ZM8.65527 48.1649C9.04095 47.9547 9.44121 47.7637 9.85618 47.592L9.47383 46.668C9.02665 46.853 8.59424 47.0593 8.17671 47.2868L8.65527 48.1649ZM9.85618 47.592C10.2927 47.4114 10.7425 47.2541 11.2055 47.1203L10.928 46.1596C10.43 46.3035 9.94522 46.4729 9.47382 46.668L9.85618 47.592ZM14.0276 46.6091C14.4969 46.5698 14.9777 46.55 15.47 46.55V45.55C14.9509 45.55 14.4422 45.5708 13.944 45.6126L14.0276 46.6091ZM15.47 46.55C15.784 46.55 16.0927 46.5578 16.396 46.5734L16.4474 45.5748C16.1264 45.5582 15.8006 45.55 15.47 45.55V46.55ZM18.2288 46.7732C18.8484 46.879 19.4423 47.0223 20.011 47.2026L20.3133 46.2494C19.6987 46.0545 19.0599 45.9006 18.3971 45.7874L18.2288 46.7732ZM21.7032 47.8848C21.9761 48.0206 22.2423 48.1667 22.5018 48.3232L23.0182 47.4668C22.7354 47.2963 22.4455 47.1372 22.1486 46.9895L21.7032 47.8848ZM22.5065 48.326C22.7602 48.4752 23.0068 48.6344 23.2463 48.8035L23.8231 47.9865C23.5609 47.8014 23.291 47.6273 23.0135 47.464L22.5065 48.326ZM24.5956 49.9341C25.0071 50.3403 25.3929 50.7852 25.7529 51.269L26.5552 50.6721C26.1661 50.1491 25.7472 49.6657 25.2982 49.2225L24.5956 49.9341ZM26.7141 52.7636C26.8563 53.0197 26.9931 53.2841 27.1245 53.5569L28.0255 53.1231C27.886 52.8333 27.7402 52.5516 27.5883 52.278L26.7141 52.7636ZM27.3266 52.9061L26.6291 53.3055L27.1259 54.1733L27.8234 53.7739L27.3266 52.9061ZM25.2341 54.1042L23.8391 54.903L24.3359 55.7708L25.7309 54.972L25.2341 54.1042ZM22.4441 55.7017L21.7466 56.1011L22.2434 56.9689L22.9409 56.5695L22.4441 55.7017ZM22.4608 56.3532C22.3344 56.0293 22.1901 55.7174 22.0277 55.4177L21.1484 55.894C21.2906 56.1564 21.4175 56.4306 21.5292 56.7168L22.4608 56.3532ZM20.8169 53.7469C20.5827 53.4993 20.3312 53.2651 20.0629 53.044L19.4271 53.816C19.6644 54.0113 19.8854 54.2174 20.0905 54.4341L20.8169 53.7469ZM20.0695 53.0496C19.7527 52.7794 19.4023 52.5483 19.0196 52.3558L18.5703 53.2492C18.8843 53.4071 19.1672 53.5943 19.4205 53.8104L20.0695 53.0496ZM16.666 51.6903C16.2849 51.6466 15.8861 51.625 15.47 51.625V52.625C15.8517 52.625 16.2123 52.6448 16.5521 52.6838L16.666 51.6903ZM15.47 51.625C14.9644 51.625 14.479 51.6582 14.0144 51.7253L14.1575 52.715C14.5707 52.6553 15.008 52.625 15.47 52.625V51.625ZM11.2204 52.6934C10.792 52.9531 10.397 53.2596 10.0357 53.6122L10.7343 54.3278C11.0415 54.0278 11.3762 53.7683 11.7388 53.5485L11.2204 52.6934ZM10.0357 53.6122C9.8313 53.8118 9.64238 54.0277 9.46894 54.2598L10.2699 54.8585C10.4129 54.6672 10.5677 54.4904 10.7343 54.3278L10.0357 53.6122ZM8.65151 55.745C8.45767 56.2363 8.30815 56.7696 8.20112 57.3433L9.18416 57.5267C9.28095 57.0079 9.41408 56.5369 9.58172 56.1121L8.65151 55.745ZM8.01522 58.9656C8.00172 59.2285 7.995 59.4984 7.995 59.775H8.995C8.995 59.5145 9.00132 59.2618 9.0139 59.0169L8.01522 58.9656ZM7.995 59.775V61.035H8.995V59.775H7.995ZM7.995 63.555V64.815H8.995V63.555H7.995ZM7.995 64.815C7.995 65.0915 8.00186 65.3613 8.01564 65.6244L9.01427 65.5721C9.00145 65.3273 8.995 65.075 8.995 64.815H7.995ZM8.20472 67.246C8.31292 67.8175 8.46377 68.3499 8.65895 68.8418L9.58845 68.473C9.41933 68.0468 9.28503 67.5763 9.18725 67.06L8.20472 67.246ZM9.47271 70.324C9.64394 70.5557 9.83019 70.7723 10.0314 70.9736L10.7386 70.2664C10.573 70.1009 10.4191 69.922 10.2769 69.7296L9.47271 70.324ZM10.0357 70.9778C10.397 71.3304 10.792 71.6369 11.2204 71.8966L11.7388 71.0415C11.3762 70.8217 11.0415 70.5622 10.7343 70.2622L10.0357 70.9778ZM14.0144 72.8647C14.479 72.9318 14.9644 72.965 15.47 72.965V71.965C15.008 71.965 14.5707 71.9347 14.1575 71.875L14.0144 72.8647ZM15.47 72.965C15.6817 72.965 15.8909 72.9595 16.0977 72.9485L16.0447 71.9499C15.8559 71.96 15.6644 71.965 15.47 71.965V72.965ZM17.3512 72.809C17.5609 72.7727 17.7677 72.7301 17.9717 72.6812L17.7383 71.7088C17.5556 71.7527 17.3698 71.7909 17.1809 71.8236L17.3512 72.809ZM17.9898 72.6765C18.1793 72.6234 18.364 72.5648 18.5438 72.5005L18.2071 71.5589C18.0502 71.615 17.8879 71.6666 17.7202 71.7135L17.9898 72.6765ZM19.6135 72.0189C19.7876 71.922 19.9556 71.8183 20.1173 71.7077L19.5527 70.8823C19.417 70.9752 19.2753 71.0627 19.1275 71.1449L19.6135 72.0189ZM20.1316 71.6975C20.2809 71.5875 20.4225 71.4722 20.5563 71.3515L19.8864 70.609C19.7781 70.7068 19.6622 70.8013 19.5384 70.8925L20.1316 71.6975ZM21.2917 70.5212C21.3986 70.3675 21.4955 70.208 21.5825 70.0429L20.6975 69.5771C20.6299 69.7057 20.5543 69.8301 20.4707 69.9502L21.2917 70.5212ZM21.5727 70.0605C21.6733 69.8868 21.7603 69.705 21.8337 69.5157L20.9013 69.1542C20.8462 69.2963 20.7815 69.4313 20.7073 69.5595L21.5727 70.0605ZM22.1056 68.3636C22.1253 68.1754 22.135 67.9825 22.135 67.785H21.135C21.135 67.9498 21.1269 68.1078 21.111 68.2593L22.1056 68.3636ZM22.135 67.785V67.3912H21.135V67.785H22.135ZM22.135 66.6037V66.21H21.135V66.6037H22.135ZM21.635 65.71H20.1725V66.71H21.635V65.71ZM17.2475 65.71H15.785V66.71H17.2475V65.71ZM16.285 66.21V64.7812H15.285V66.21H16.285ZM16.285 61.9237V60.495H15.285V61.9237H16.285ZM15.785 60.995H16.8163V59.995H15.785V60.995ZM18.8788 60.995H20.9413V59.995H18.8788V60.995ZM23.0038 60.995H25.0663V59.995H23.0038V60.995ZM27.1288 60.995H28.16V59.995H27.1288V60.995ZM27.66 60.495V61.5891H28.66V60.495H27.66ZM27.66 63.7772V65.9653H28.66V63.7772H27.66ZM27.66 68.1534V70.3416H28.66V68.1534H27.66ZM27.66 72.5297V74.7178H28.66V72.5297H27.66ZM27.66 76.9059V78H28.66V76.9059H27.66ZM28.16 77.5H26.72V78.5H28.16V77.5ZM23.84 77.5H22.4V78.5H23.84V77.5ZM22.9 78V76.7512H21.9V78H22.9ZM22.9 74.2537V73.005H21.9V74.2537H22.9ZM22.4 73.005H23.4V72.005H22.4V73.005ZM22.175 73.005V72.005H21.3146L21.1862 72.8557L22.175 73.005ZM19.745 76.965L19.1395 76.1692L19.745 76.965ZM9.08 77.505L8.67549 78.4195L8.67549 78.4195L9.08 77.505ZM4.985 74.445L4.22931 75.0999L4.22931 75.0999L4.985 74.445ZM2.24 69.405L3.19009 69.093L3.19009 69.093L2.24 69.405ZM2.285 55.41L3.23228 55.7304L3.23228 55.7304L2.285 55.41ZM5.165 50.28L4.42646 49.6057L4.41849 49.6146L5.165 50.28ZM9.665 47.13L10.0474 48.054L10.0474 48.054L9.665 47.13ZM22.76 47.895L22.2436 48.7514L22.253 48.7569L22.76 47.895ZM27.575 53.34L28.0719 54.2078L28.8799 53.7451L28.476 52.9062L27.575 53.34ZM21.995 56.535L21.0634 56.8985L21.4852 57.9792L22.4919 57.4028L21.995 56.535ZM19.745 53.43L19.0961 54.1908L19.1026 54.1964L19.1093 54.2019L19.745 53.43ZM10.385 53.97L11.0835 54.6856L11.0835 54.6856L10.385 53.97ZM10.385 70.62L9.67784 71.3272L9.68646 71.3356L10.385 70.62ZM17.855 72.195L18.0884 73.1674L18.1066 73.163L18.1246 73.158L17.855 72.195ZM19.835 71.295L20.3997 72.1203L20.4141 72.1104L20.4282 72.1001L19.835 71.295ZM21.14 69.81L20.2746 69.309L20.2645 69.3264L20.2551 69.3443L21.14 69.81ZM21.635 66.21H22.635V65.21H21.635V66.21ZM15.785 66.21H14.785V67.21H15.785V66.21ZM15.785 60.495V59.495H14.785V60.495H15.785ZM28.16 60.495H29.16V59.495H28.16V60.495ZM28.16 78V79H29.16V78H28.16ZM22.4 78H21.4V79H22.4V78ZM22.4 72.005H22.3438V74.005H22.4V72.005ZM22.2313 72.005H22.175V74.005H22.2313V72.005ZM21.1862 72.8557C21.135 73.1948 21.0538 73.515 20.9437 73.8178L22.8234 74.501C22.9806 74.0687 23.0936 73.6193 23.1638 73.1543L21.1862 72.8557ZM19.9044 75.485C19.6811 75.7223 19.4268 75.9506 19.1395 76.1692L20.3505 77.7608C20.7194 77.4802 21.0568 77.1787 21.3608 76.8557L19.9044 75.485ZM19.1395 76.1692C18.8152 76.4159 18.4545 76.6311 18.0548 76.8135L18.8851 78.633C19.413 78.3921 19.9023 78.1018 20.3505 77.7608L19.1395 76.1692ZM15.4979 77.4703C15.0653 77.5164 14.6062 77.54 14.12 77.54V79.54C14.6705 79.54 15.2007 79.5133 15.71 79.459L15.4979 77.4703ZM14.12 77.54C13.7127 77.54 13.3135 77.521 12.9222 77.4832L12.7301 79.474C13.1871 79.5181 13.6504 79.54 14.12 79.54V77.54ZM10.5939 77.0107C10.2171 76.891 9.8474 76.751 9.48451 76.5905L8.67549 78.4195C9.10459 78.6093 9.54229 78.7751 9.98845 78.9168L10.5939 77.0107ZM9.48451 76.5905C9.12441 76.4312 8.77614 76.2528 8.43949 76.0554L7.42779 77.7807C7.83043 78.0168 8.2464 78.2297 8.67549 78.4195L9.48451 76.5905ZM6.5614 74.6458C6.27816 74.3797 6.00456 74.0945 5.74069 73.7901L4.22931 75.0999C4.53661 75.4545 4.85741 75.7891 5.19182 76.1033L6.5614 74.6458ZM5.74069 73.7901C5.45655 73.4622 5.18772 73.1118 4.93437 72.7383L3.27919 73.8609C3.57535 74.2976 3.892 74.7107 4.22931 75.0999L5.74069 73.7901ZM3.66581 70.3713C3.49486 69.964 3.3362 69.538 3.19009 69.093L1.28991 69.717C1.45185 70.2102 1.62902 70.6864 1.82167 71.1453L3.66581 70.3713ZM3.19009 69.093C3.10492 68.8336 3.02538 68.568 2.95155 68.2961L1.02143 68.8201C1.10413 69.1247 1.1936 69.4237 1.28991 69.717L3.19009 69.093ZM2.58976 66.6598C2.49592 66.1223 2.42126 65.5639 2.36611 64.9845L0.375108 65.174C0.434902 65.8022 0.516277 66.4122 0.619549 67.0038L2.58976 66.6598ZM2.26226 63.2853C2.25409 63.0045 2.25 62.7194 2.25 62.43H0.25C0.25 62.7383 0.254362 63.0427 0.263107 63.3434L2.26226 63.2853ZM2.25 62.43C2.25 62.139 2.25433 61.8522 2.26298 61.5696L0.263912 61.5085C0.254629 61.812 0.25 62.1192 0.25 62.43H2.25ZM2.37255 59.8605C2.43052 59.2789 2.50889 58.7175 2.60737 58.1759L0.63964 57.8181C0.531058 58.4153 0.44542 59.03 0.382414 59.6621L2.37255 59.8605ZM2.9848 56.5314C3.06143 56.2586 3.14394 55.9916 3.23228 55.7304L1.33772 55.0896C1.23794 55.3846 1.14516 55.6849 1.05931 55.9906L2.9848 56.5314ZM3.23228 55.7304C3.38585 55.2764 3.5529 54.8414 3.73317 54.4254L1.89803 53.6302C1.69481 54.0993 1.50812 54.5858 1.33772 55.0896L3.23228 55.7304ZM5.06707 52.0146C5.33216 51.6358 5.61368 51.2795 5.91151 50.9454L4.41849 49.6146C4.06721 50.0087 3.73723 50.4267 3.42841 50.868L5.06707 52.0146ZM5.90349 50.9543C6.19348 50.6367 6.49659 50.3387 6.8128 50.0601L5.49066 48.5594C5.11924 48.8867 4.76453 49.2355 4.42651 49.6057L5.90349 50.9543ZM8.89454 48.6039C9.26431 48.4024 9.64849 48.2191 10.0474 48.054L9.28265 46.206C8.81938 46.3977 8.37089 46.6116 7.93744 46.8478L8.89454 48.6039ZM10.0474 48.054C10.4665 47.8806 10.8987 47.7294 11.3443 47.6007L10.7892 45.6793C10.2737 45.8282 9.77145 46.0037 9.28265 46.206L10.0474 48.054ZM14.0694 47.1074C14.5242 47.0692 14.991 47.05 15.47 47.05V45.05C14.9375 45.05 14.4149 45.0714 13.9022 45.1144L14.0694 47.1074ZM15.47 47.05C15.7757 47.05 16.0758 47.0576 16.3703 47.0728L16.4731 45.0754C16.1433 45.0584 15.8089 45.05 15.47 45.05V47.05ZM18.1446 47.266C18.7426 47.3682 19.3141 47.5061 19.8599 47.6792L20.4644 45.7728C19.8269 45.5706 19.1657 45.4115 18.4813 45.2946L18.1446 47.266ZM21.4804 48.3324C21.7413 48.4622 21.9957 48.6019 22.2437 48.7514L23.2763 47.0386C22.982 46.8611 22.6803 46.6955 22.3713 46.5418L21.4804 48.3324ZM22.253 48.7569C22.4948 48.8992 22.7298 49.0509 22.958 49.2119L24.1114 47.578C23.8379 47.3849 23.5564 47.2033 23.267 47.0331L22.253 48.7569ZM24.2444 50.2899C24.6371 50.6777 25.0064 51.1032 25.3518 51.5675L26.9564 50.3736C26.5527 49.831 26.1172 49.3284 25.6495 48.8667L24.2444 50.2899ZM26.277 53.0064C26.4144 53.2537 26.5467 53.5095 26.674 53.7738L28.476 52.9062C28.3324 52.6079 28.1822 52.3175 28.0254 52.0352L26.277 53.0064ZM27.0781 52.4722L26.3806 52.8716L27.3744 54.6072L28.0719 54.2078L27.0781 52.4722ZM24.9856 53.6703L23.5906 54.4691L24.5844 56.2047L25.9794 55.4059L24.9856 53.6703ZM22.1956 55.2678L21.4981 55.6672L22.4919 57.4028L23.1894 57.0034L22.1956 55.2678ZM22.9266 56.1715C22.7928 55.8287 22.6398 55.4979 22.4673 55.1795L20.7088 56.1322C20.8408 56.3759 20.9591 56.6312 21.0634 56.8985L22.9266 56.1715ZM21.1801 53.4033C20.9313 53.1403 20.6647 52.8919 20.3807 52.6581L19.1093 54.2019C19.3309 54.3845 19.5368 54.5764 19.7272 54.7778L21.1801 53.4033ZM20.3939 52.6692C20.0455 52.3719 19.6613 52.1189 19.2443 51.9091L18.3456 53.6959C18.6252 53.8365 18.8744 54.0018 19.0961 54.1908L20.3939 52.6692ZM16.723 51.1935C16.3212 51.1474 15.9033 51.125 15.47 51.125V53.125C15.8346 53.125 16.176 53.1439 16.4951 53.1805L16.723 51.1935ZM15.47 51.125C14.9426 51.125 14.4332 51.1596 13.9429 51.2305L14.229 53.2099C14.6165 53.1539 15.0298 53.125 15.47 53.125V51.125ZM10.9612 52.2658C10.4999 52.5455 10.0747 52.8754 9.68646 53.2544L11.0835 54.6856C11.3638 54.412 11.6683 54.1759 11.998 53.9761L10.9612 52.2658ZM9.68646 53.2544C9.46311 53.4725 9.25711 53.708 9.06845 53.9604L10.6704 55.1578C10.7982 54.9869 10.9359 54.8297 11.0835 54.6856L9.68646 53.2544ZM8.1864 55.5615C7.97947 56.086 7.82175 56.6505 7.7096 57.2516L9.67568 57.6184C9.76735 57.1271 9.89228 56.6872 10.0468 56.2956L8.1864 55.5615ZM7.51587 58.9399C7.50191 59.2119 7.495 59.4903 7.495 59.775H9.495C9.495 59.5226 9.50113 59.2785 9.51324 59.0425L7.51587 58.9399ZM7.495 59.775V61.035H9.495V59.775H7.495ZM7.495 63.555V64.815H9.495V63.555H7.495ZM7.495 64.815C7.495 65.0997 7.50206 65.3783 7.51633 65.6506L9.51359 65.5459C9.50124 65.3103 9.495 65.0667 9.495 64.815H7.495ZM7.71345 67.3391C7.82687 67.938 7.98599 68.5015 8.1942 69.0262L10.0532 68.2885C9.89711 67.8952 9.77108 67.4557 9.67852 66.967L7.71345 67.3391ZM9.07062 70.6212C9.25637 70.8725 9.45879 71.108 9.67789 71.3271L11.0921 69.9129C10.9444 69.7652 10.8067 69.6052 10.679 69.4324L9.07062 70.6212ZM9.68646 71.3356C10.0747 71.7146 10.4999 72.0445 10.9612 72.3242L11.998 70.6139C11.6683 70.4141 11.3638 70.178 11.0835 69.9044L9.68646 71.3356ZM13.9429 73.3595C14.4332 73.4304 14.9426 73.465 15.47 73.465V71.465C15.0298 71.465 14.6165 71.4361 14.229 71.3801L13.9429 73.3595ZM15.47 73.465C15.6903 73.465 15.9084 73.4593 16.1243 73.4478L16.0181 71.4506C15.8385 71.4602 15.6558 71.465 15.47 71.465V73.465ZM17.4363 73.3017C17.6564 73.2636 17.8738 73.2189 18.0884 73.1674L17.6216 71.2226C17.4495 71.2639 17.2743 71.3 17.0958 71.3309L17.4363 73.3017ZM18.1246 73.158C18.325 73.1019 18.5209 73.0397 18.7122 72.9713L18.0388 71.0881C17.8933 71.1401 17.7422 71.1881 17.5854 71.232L18.1246 73.158ZM19.8564 72.4559C20.0438 72.3517 20.2249 72.2399 20.3997 72.1203L19.2703 70.4697C19.1476 70.5536 19.0191 70.6331 18.8845 70.7079L19.8564 72.4559ZM20.4282 72.1001C20.5903 71.9806 20.7448 71.8549 20.8913 71.7227L19.5515 70.2378C19.4559 70.324 19.3528 70.4081 19.2418 70.4899L20.4282 72.1001ZM21.7021 70.8067C21.8207 70.6362 21.9284 70.4592 22.0249 70.2757L20.2551 69.3443C20.197 69.4546 20.1321 69.5614 20.0602 69.6647L21.7021 70.8067ZM22.0054 70.311C22.1192 70.1145 22.2173 69.9094 22.2999 69.6965L20.4351 68.9734C20.3892 69.0919 20.3356 69.2035 20.2746 69.309L22.0054 70.311ZM22.6029 68.4157C22.6245 68.2092 22.635 67.9989 22.635 67.785H20.635C20.635 67.9334 20.6277 68.074 20.6138 68.2072L22.6029 68.4157ZM22.635 67.785V67.3912H20.635V67.785H22.635ZM22.635 66.6037V66.21H20.635V66.6037H22.635ZM21.635 65.21H20.1725V67.21H21.635V65.21ZM17.2475 65.21H15.785V67.21H17.2475V65.21ZM16.785 66.21V64.7812H14.785V66.21H16.785ZM16.785 61.9237V60.495H14.785V61.9237H16.785ZM15.785 61.495H16.8163V59.495H15.785V61.495ZM18.8788 61.495H20.9413V59.495H18.8788V61.495ZM23.0038 61.495H25.0663V59.495H23.0038V61.495ZM27.1288 61.495H28.16V59.495H27.1288V61.495ZM27.16 60.495V61.5891H29.16V60.495H27.16ZM27.16 63.7772V65.9653H29.16V63.7772H27.16ZM27.16 68.1534V70.3416H29.16V68.1534H27.16ZM27.16 72.5297V74.7178H29.16V72.5297H27.16ZM27.16 76.9059V78H29.16V76.9059H27.16ZM28.16 77H26.72V79H28.16V77ZM23.84 77H22.4V79H23.84V77ZM23.4 78V76.7512H21.4V78H23.4ZM23.4 74.2537V73.005H21.4V74.2537H23.4ZM34.8088 78H34.3088V78.5H34.8088V78ZM34.8088 46.59V46.09H34.3088V46.59H34.8088ZM56.1838 46.59H56.6838V46.09H56.1838V46.59ZM56.1838 52.665V53.165H56.6838V52.665H56.1838ZM41.6488 52.665V52.165H41.1488V52.665H41.6488ZM41.6488 59.1H41.1488V59.6H41.6488V59.1ZM54.1138 59.1H54.6138V58.6H54.1138V59.1ZM54.1138 65.13V65.63H54.6138V65.13H54.1138ZM41.6488 65.13V64.63H41.1488V65.13H41.6488ZM41.6488 71.925H41.1488V72.425H41.6488V71.925ZM56.1838 71.925H56.6838V71.425H56.1838V71.925ZM56.1838 78V78.5H56.6838V78H56.1838ZM35.3088 78V77.0184H34.3088V78H35.3088ZM35.3088 75.0553V73.0922H34.3088V75.0553H35.3088ZM35.3088 71.1291V69.1659H34.3088V71.1291H35.3088ZM35.3088 67.2028V65.2397H34.3088V67.2028H35.3088ZM35.3088 63.2766V61.3134H34.3088V63.2766H35.3088ZM35.3088 59.3503V57.3872H34.3088V59.3503H35.3088ZM35.3088 55.4241V53.4609H34.3088V55.4241H35.3088ZM35.3088 51.4978V49.5347H34.3088V51.4978H35.3088ZM35.3088 47.5716V46.59H34.3088V47.5716H35.3088ZM34.8088 47.09H35.8775V46.09H34.8088V47.09ZM38.015 47.09H40.1525V46.09H38.015V47.09ZM42.29 47.09H44.4275V46.09H42.29V47.09ZM46.565 47.09H48.7025V46.09H46.565V47.09ZM50.84 47.09H52.9775V46.09H50.84V47.09ZM55.115 47.09H56.1838V46.09H55.115V47.09ZM55.6838 46.59V47.3494H56.6838V46.59H55.6838ZM55.6838 48.8681V50.3869H56.6838V48.8681H55.6838ZM55.6838 51.9056V52.665H56.6838V51.9056H55.6838ZM56.1838 52.165H55.2753V53.165H56.1838V52.165ZM53.4584 52.165H51.6416V53.165H53.4584V52.165ZM49.8247 52.165H48.0078V53.165H49.8247V52.165ZM46.1909 52.165H44.3741V53.165H46.1909V52.165ZM42.5572 52.165H41.6488V53.165H42.5572V52.165ZM41.1488 52.665V53.4694H42.1488V52.665H41.1488ZM41.1488 55.0781V56.6869H42.1488V55.0781H41.1488ZM41.1488 58.2956V59.1H42.1488V58.2956H41.1488ZM41.6488 59.6H42.6875V58.6H41.6488V59.6ZM44.765 59.6H46.8425V58.6H44.765V59.6ZM48.92 59.6H50.9975V58.6H48.92V59.6ZM53.075 59.6H54.1138V58.6H53.075V59.6ZM53.6138 59.1V59.8537H54.6138V59.1H53.6138ZM53.6138 61.3612V62.8687H54.6138V61.3612H53.6138ZM53.6138 64.3762V65.13H54.6138V64.3762H53.6138ZM54.1138 64.63H53.075V65.63H54.1138V64.63ZM50.9975 64.63H48.92V65.63H50.9975V64.63ZM46.8425 64.63H44.765V65.63H46.8425V64.63ZM42.6875 64.63H41.6488V65.63H42.6875V64.63ZM41.1488 65.13V65.9794H42.1488V65.13H41.1488ZM41.1488 67.6781V69.3769H42.1488V67.6781H41.1488ZM41.1488 71.0756V71.925H42.1488V71.0756H41.1488ZM41.6488 72.425H42.5572V71.425H41.6488V72.425ZM44.3741 72.425H46.1909V71.425H44.3741V72.425ZM48.0078 72.425H49.8247V71.425H48.0078V72.425ZM51.6416 72.425H53.4584V71.425H51.6416V72.425ZM55.2753 72.425H56.1838V71.425H55.2753V72.425ZM55.6838 71.925V72.6844H56.6838V71.925H55.6838ZM55.6838 74.2031V75.7219H56.6838V74.2031H55.6838ZM55.6838 77.2406V78H56.6838V77.2406H55.6838ZM56.1838 77.5H55.115V78.5H56.1838V77.5ZM52.9775 77.5H50.84V78.5H52.9775V77.5ZM48.7025 77.5H46.565V78.5H48.7025V77.5ZM44.4275 77.5H42.29V78.5H44.4275V77.5ZM40.1525 77.5H38.015V78.5H40.1525V77.5ZM35.8775 77.5H34.8088V78.5H35.8775V77.5ZM34.8088 78H33.8088V79H34.8088V78ZM34.8088 46.59V45.59H33.8088V46.59H34.8088ZM56.1838 46.59H57.1838V45.59H56.1838V46.59ZM56.1838 52.665V53.665H57.1838V52.665H56.1838ZM41.6488 52.665V51.665H40.6488V52.665H41.6488ZM41.6488 59.1H40.6488V60.1H41.6488V59.1ZM54.1138 59.1H55.1138V58.1H54.1138V59.1ZM54.1138 65.13V66.13H55.1138V65.13H54.1138ZM41.6488 65.13V64.13H40.6488V65.13H41.6488ZM41.6488 71.925H40.6488V72.925H41.6488V71.925ZM56.1838 71.925H57.1838V70.925H56.1838V71.925ZM56.1838 78V79H57.1838V78H56.1838ZM35.8088 78V77.0184H33.8088V78H35.8088ZM35.8088 75.0553V73.0922H33.8088V75.0553H35.8088ZM35.8088 71.1291V69.1659H33.8088V71.1291H35.8088ZM35.8088 67.2028V65.2397H33.8088V67.2028H35.8088ZM35.8088 63.2766V61.3134H33.8088V63.2766H35.8088ZM35.8088 59.3503V57.3872H33.8088V59.3503H35.8088ZM35.8088 55.4241V53.4609H33.8088V55.4241H35.8088ZM35.8088 51.4978V49.5347H33.8088V51.4978H35.8088ZM35.8088 47.5716V46.59H33.8088V47.5716H35.8088ZM34.8088 47.59H35.8775V45.59H34.8088V47.59ZM38.015 47.59H40.1525V45.59H38.015V47.59ZM42.29 47.59H44.4275V45.59H42.29V47.59ZM46.565 47.59H48.7025V45.59H46.565V47.59ZM50.84 47.59H52.9775V45.59H50.84V47.59ZM55.115 47.59H56.1838V45.59H55.115V47.59ZM55.1838 46.59V47.3494H57.1838V46.59H55.1838ZM55.1838 48.8681V50.3869H57.1838V48.8681H55.1838ZM55.1838 51.9056V52.665H57.1838V51.9056H55.1838ZM56.1838 51.665H55.2753V53.665H56.1838V51.665ZM53.4584 51.665H51.6416V53.665H53.4584V51.665ZM49.8247 51.665H48.0078V53.665H49.8247V51.665ZM46.1909 51.665H44.3741V53.665H46.1909V51.665ZM42.5572 51.665H41.6488V53.665H42.5572V51.665ZM40.6488 52.665V53.4694H42.6488V52.665H40.6488ZM40.6488 55.0781V56.6869H42.6488V55.0781H40.6488ZM40.6488 58.2956V59.1H42.6488V58.2956H40.6488ZM41.6488 60.1H42.6875V58.1H41.6488V60.1ZM44.765 60.1H46.8425V58.1H44.765V60.1ZM48.92 60.1H50.9975V58.1H48.92V60.1ZM53.075 60.1H54.1138V58.1H53.075V60.1ZM53.1138 59.1V59.8537H55.1138V59.1H53.1138ZM53.1138 61.3612V62.8687H55.1138V61.3612H53.1138ZM53.1138 64.3762V65.13H55.1138V64.3762H53.1138ZM54.1138 64.13H53.075V66.13H54.1138V64.13ZM50.9975 64.13H48.92V66.13H50.9975V64.13ZM46.8425 64.13H44.765V66.13H46.8425V64.13ZM42.6875 64.13H41.6488V66.13H42.6875V64.13ZM40.6488 65.13V65.9794H42.6488V65.13H40.6488ZM40.6488 67.6781V69.3769H42.6488V67.6781H40.6488ZM40.6488 71.0756V71.925H42.6488V71.0756H40.6488ZM41.6488 72.925H42.5572V70.925H41.6488V72.925ZM44.3741 72.925H46.1909V70.925H44.3741V72.925ZM48.0078 72.925H49.8247V70.925H48.0078V72.925ZM51.6416 72.925H53.4584V70.925H51.6416V72.925ZM55.2753 72.925H56.1838V70.925H55.2753V72.925ZM55.1838 71.925V72.6844H57.1838V71.925H55.1838ZM55.1838 74.2031V75.7219H57.1838V74.2031H55.1838ZM55.1838 77.2406V78H57.1838V77.2406H55.1838ZM56.1838 77H55.115V79H56.1838V77ZM52.9775 77H50.84V79H52.9775V77ZM48.7025 77H46.565V79H48.7025V77ZM44.4275 77H42.29V79H44.4275V77ZM40.1525 77H38.015V79H40.1525V77ZM35.8775 77H34.8088V79H35.8775V77ZM71.7277 63.15L71.2767 63.3658L71.2852 63.3835L71.295 63.4005L71.7277 63.15ZM68.7127 56.85L69.1637 56.6342L69.0278 56.35H68.7127V56.85ZM68.5777 56.85V56.35H68.0777V56.85H68.5777ZM68.5777 78V78.5H69.0777V78H68.5777ZM62.1427 78H61.6427V78.5H62.1427V78ZM62.1427 46.59V46.09H61.6427V46.59H62.1427ZM69.6127 46.59L70.0455 46.3395L69.9011 46.09H69.6127V46.59ZM78.2077 61.44L78.6587 61.2242L78.6503 61.2065L78.6405 61.1895L78.2077 61.44ZM81.2227 67.74L80.7717 67.9558L80.9077 68.24H81.2227V67.74ZM81.3577 67.74V68.24H81.8577V67.74H81.3577ZM81.3577 46.59V46.09H80.8577V46.59H81.3577ZM87.7927 46.59H88.2927V46.09H87.7927V46.59ZM87.7927 78V78.5H88.2927V78H87.7927ZM80.3227 78L79.89 78.2505L80.0344 78.5H80.3227V78ZM72.1787 62.9342L71.8019 62.1467L70.8998 62.5783L71.2767 63.3658L72.1787 62.9342ZM71.0481 60.5717L70.2944 58.9967L69.3923 59.4283L70.1461 61.0033L71.0481 60.5717ZM69.5406 57.4217L69.1637 56.6342L68.2617 57.0658L68.6386 57.8533L69.5406 57.4217ZM68.7127 56.35H68.679V57.35H68.7127V56.35ZM68.6115 56.35H68.5777V57.35H68.6115V56.35ZM68.0777 56.85V57.9075H69.0777V56.85H68.0777ZM68.0777 60.0225V62.1375H69.0777V60.0225H68.0777ZM68.0777 64.2525V66.3675H69.0777V64.2525H68.0777ZM68.0777 68.4825V70.5975H69.0777V68.4825H68.0777ZM68.0777 72.7125V74.8275H69.0777V72.7125H68.0777ZM68.0777 76.9425V78H69.0777V76.9425H68.0777ZM68.5777 77.5H67.7734V78.5H68.5777V77.5ZM66.1646 77.5H64.5559V78.5H66.1646V77.5ZM62.9471 77.5H62.1427V78.5H62.9471V77.5ZM62.6427 78V77.0184H61.6427V78H62.6427ZM62.6427 75.0553V73.0922H61.6427V75.0553H62.6427ZM62.6427 71.1291V69.1659H61.6427V71.1291H62.6427ZM62.6427 67.2028V65.2397H61.6427V67.2028H62.6427ZM62.6427 63.2766V61.3134H61.6427V63.2766H62.6427ZM62.6427 59.3503V57.3872H61.6427V59.3503H62.6427ZM62.6427 55.4241V53.4609H61.6427V55.4241H62.6427ZM62.6427 51.4978V49.5347H61.6427V51.4978H62.6427ZM62.6427 47.5716V46.59H61.6427V47.5716H62.6427ZM62.1427 47.09H63.0765V46.09H62.1427V47.09ZM64.944 47.09H66.8115V46.09H64.944V47.09ZM68.679 47.09H69.6127V46.09H68.679V47.09ZM69.18 46.8405L69.7172 47.7686L70.5827 47.2677L70.0455 46.3395L69.18 46.8405ZM70.7916 49.6248L71.8659 51.4811L72.7314 50.9802L71.657 49.1239L70.7916 49.6248ZM72.9403 53.3373L74.0147 55.1936L74.8802 54.6927L73.8058 52.8364L72.9403 53.3373ZM75.0891 57.0498L76.1634 58.9061L77.0289 58.4052L75.9545 56.5489L75.0891 57.0498ZM77.2378 60.7623L77.775 61.6905L78.6405 61.1895L78.1033 60.2614L77.2378 60.7623ZM77.7567 61.6558L78.1336 62.4433L79.0356 62.0117L78.6587 61.2242L77.7567 61.6558ZM78.8873 64.0183L79.6411 65.5933L80.5431 65.1617L79.7894 63.5867L78.8873 64.0183ZM80.3948 67.1683L80.7717 67.9558L81.6737 67.5242L81.2969 66.7367L80.3948 67.1683ZM81.2227 68.24H81.2565V67.24H81.2227V68.24ZM81.324 68.24H81.3577V67.24H81.324V68.24ZM81.8577 67.74V66.6825H80.8577V67.74H81.8577ZM81.8577 64.5675V62.4525H80.8577V64.5675H81.8577ZM81.8577 60.3375V58.2225H80.8577V60.3375H81.8577ZM81.8577 56.1075V53.9925H80.8577V56.1075H81.8577ZM81.8577 51.8775V49.7625H80.8577V51.8775H81.8577ZM81.8577 47.6475V46.59H80.8577V47.6475H81.8577ZM81.3577 47.09H82.1621V46.09H81.3577V47.09ZM83.7709 47.09H85.3796V46.09H83.7709V47.09ZM86.9884 47.09H87.7927V46.09H86.9884V47.09ZM87.2927 46.59V47.5716H88.2927V46.59H87.2927ZM87.2927 49.5347V51.4978H88.2927V49.5347H87.2927ZM87.2927 53.4609V55.4241H88.2927V53.4609H87.2927ZM87.2927 57.3872V59.3503H88.2927V57.3872H87.2927ZM87.2927 61.3134V63.2766H88.2927V61.3134H87.2927ZM87.2927 65.2397V67.2028H88.2927V65.2397H87.2927ZM87.2927 69.1659V71.1291H88.2927V69.1659H87.2927ZM87.2927 73.0922V75.0553H88.2927V73.0922H87.2927ZM87.2927 77.0184V78H88.2927V77.0184H87.2927ZM87.7927 77.5H86.859V78.5H87.7927V77.5ZM84.9915 77.5H83.124V78.5H84.9915V77.5ZM81.2565 77.5H80.3227V78.5H81.2565V77.5ZM80.7555 77.7495L80.2183 76.8214L79.3528 77.3223L79.89 78.2505L80.7555 77.7495ZM79.1439 74.9652L78.0695 73.1089L77.2041 73.6098L78.2784 75.4661L79.1439 74.9652ZM76.9952 71.2527L75.9208 69.3964L75.0553 69.8973L76.1297 71.7536L76.9952 71.2527ZM74.8464 67.5402L73.772 65.6839L72.9066 66.1848L73.9809 68.0411L74.8464 67.5402ZM72.6977 63.8277L72.1605 62.8995L71.295 63.4005L71.8322 64.3286L72.6977 63.8277ZM71.7277 63.15L70.8257 63.5817L70.8426 63.617L70.8622 63.6509L71.7277 63.15ZM68.7127 56.85L69.6148 56.4183L69.3428 55.85H68.7127V56.85ZM68.5777 56.85V55.85H67.5777V56.85H68.5777ZM68.5777 78V79H69.5777V78H68.5777ZM62.1427 78H61.1427V79H62.1427V78ZM62.1427 46.59V45.59H61.1427V46.59H62.1427ZM69.6127 46.59L70.4782 46.0891L70.1894 45.59H69.6127V46.59ZM78.2077 61.44L79.1098 61.0083L79.0928 60.973L79.0732 60.9391L78.2077 61.44ZM81.2227 67.74L80.3207 68.1717L80.5927 68.74H81.2227V67.74ZM81.3577 67.74V68.74H82.3577V67.74H81.3577ZM81.3577 46.59V45.59H80.3577V46.59H81.3577ZM87.7927 46.59H88.7927V45.59H87.7927V46.59ZM87.7927 78V79H88.7927V78H87.7927ZM80.3227 78L79.4572 78.5009L79.7461 79H80.3227V78ZM72.6298 62.7183L72.2529 61.9308L70.4488 62.7942L70.8257 63.5817L72.6298 62.7183ZM71.4991 60.3558L70.7454 58.7808L68.9413 59.6442L69.6951 61.2192L71.4991 60.3558ZM69.9916 57.2058L69.6148 56.4183L67.8107 57.2817L68.1876 58.0692L69.9916 57.2058ZM68.7127 55.85H68.679V57.85H68.7127V55.85ZM68.6115 55.85H68.5777V57.85H68.6115V55.85ZM67.5777 56.85V57.9075H69.5777V56.85H67.5777ZM67.5777 60.0225V62.1375H69.5777V60.0225H67.5777ZM67.5777 64.2525V66.3675H69.5777V64.2525H67.5777ZM67.5777 68.4825V70.5975H69.5777V68.4825H67.5777ZM67.5777 72.7125V74.8275H69.5777V72.7125H67.5777ZM67.5777 76.9425V78H69.5777V76.9425H67.5777ZM68.5777 77H67.7734V79H68.5777V77ZM66.1646 77H64.5559V79H66.1646V77ZM62.9471 77H62.1427V79H62.9471V77ZM63.1427 78V77.0184H61.1427V78H63.1427ZM63.1427 75.0553V73.0922H61.1427V75.0553H63.1427ZM63.1427 71.1291V69.1659H61.1427V71.1291H63.1427ZM63.1427 67.2028V65.2397H61.1427V67.2028H63.1427ZM63.1427 63.2766V61.3134H61.1427V63.2766H63.1427ZM63.1427 59.3503V57.3872H61.1427V59.3503H63.1427ZM63.1427 55.4241V53.4609H61.1427V55.4241H63.1427ZM63.1427 51.4978V49.5347H61.1427V51.4978H63.1427ZM63.1427 47.5716V46.59H61.1427V47.5716H63.1427ZM62.1427 47.59H63.0765V45.59H62.1427V47.59ZM64.944 47.59H66.8115V45.59H64.944V47.59ZM68.679 47.59H69.6127V45.59H68.679V47.59ZM68.7472 47.0909L69.2844 48.0191L71.0154 47.0172L70.4782 46.0891L68.7472 47.0909ZM70.3588 49.8753L71.4332 51.7316L73.1642 50.7297L72.0898 48.8734L70.3588 49.8753ZM72.5076 53.5878L73.5819 55.4441L75.3129 54.4422L74.2385 52.5859L72.5076 53.5878ZM74.6563 57.3003L75.7307 59.1566L77.4617 58.1547L76.3873 56.2984L74.6563 57.3003ZM76.8051 61.0128L77.3422 61.9409L79.0732 60.9391L78.536 60.0109L76.8051 61.0128ZM77.3057 61.8717L77.6826 62.6592L79.4866 61.7958L79.1098 61.0083L77.3057 61.8717ZM78.4363 64.2342L79.1901 65.8092L80.9941 64.9458L80.2404 63.3708L78.4363 64.2342ZM79.9438 67.3842L80.3207 68.1717L82.1248 67.3083L81.7479 66.5208L79.9438 67.3842ZM81.2227 68.74H81.2565V66.74H81.2227V68.74ZM81.324 68.74H81.3577V66.74H81.324V68.74ZM82.3577 67.74V66.6825H80.3577V67.74H82.3577ZM82.3577 64.5675V62.4525H80.3577V64.5675H82.3577ZM82.3577 60.3375V58.2225H80.3577V60.3375H82.3577ZM82.3577 56.1075V53.9925H80.3577V56.1075H82.3577ZM82.3577 51.8775V49.7625H80.3577V51.8775H82.3577ZM82.3577 47.6475V46.59H80.3577V47.6475H82.3577ZM81.3577 47.59H82.1621V45.59H81.3577V47.59ZM83.7709 47.59H85.3796V45.59H83.7709V47.59ZM86.9884 47.59H87.7927V45.59H86.9884V47.59ZM86.7927 46.59V47.5716H88.7927V46.59H86.7927ZM86.7927 49.5347V51.4978H88.7927V49.5347H86.7927ZM86.7927 53.4609V55.4241H88.7927V53.4609H86.7927ZM86.7927 57.3872V59.3503H88.7927V57.3872H86.7927ZM86.7927 61.3134V63.2766H88.7927V61.3134H86.7927ZM86.7927 65.2397V67.2028H88.7927V65.2397H86.7927ZM86.7927 69.1659V71.1291H88.7927V69.1659H86.7927ZM86.7927 73.0922V75.0553H88.7927V73.0922H86.7927ZM86.7927 77.0184V78H88.7927V77.0184H86.7927ZM87.7927 77H86.859V79H87.7927V77ZM84.9915 77H83.124V79H84.9915V77ZM81.2565 77H80.3227V79H81.2565V77ZM81.1882 77.4991L80.651 76.5709L78.9201 77.5728L79.4572 78.5009L81.1882 77.4991ZM79.5767 74.7147L78.5023 72.8584L76.7713 73.8603L77.8457 75.7166L79.5767 74.7147ZM77.4279 71.0022L76.3535 69.1459L74.6226 70.1478L75.6969 72.0041L77.4279 71.0022ZM75.2792 67.2897L74.2048 65.4334L72.4738 66.4353L73.5482 68.2916L75.2792 67.2897ZM73.1304 63.5772L72.5932 62.6491L70.8622 63.6509L71.3994 64.5791L73.1304 63.5772Z" fill="#DADADA"></path> </svg> 