<?xml version="1.0" encoding="UTF-8"?> <svg xmlns="http://www.w3.org/2000/svg" width="50" height="42" viewBox="0 0 50 42" fill="none"> <path d="M19.1176 17.0962L7.35294 17.0962L5.34759 22.4808C14.4385 26.6538 19.1176 17.0962 19.1176 17.0962ZM24.0642 33.7885C27.8075 35.9423 37.7005 42 37.7005 42C37.7005 42 40.6417 38.3654 43.0481 35.5385C39.8396 32.1731 31.5508 27.4615 24.0642 33.7885ZM31.016 18.4423C35.5615 14.9423 41.9786 14.4038 41.9786 14.4038L43.984 8.88462L39.3048 7.53846L39.7059 5.65385L33.2888 3.23077C33.2888 3.09615 33.2888 2.96154 33.2888 2.82692C33.2888 1.21154 31.9519 0 30.4813 0C28.877 0 27.6738 1.34615 27.6738 2.82692C27.6738 4.17308 28.6096 5.25 29.6791 5.51923C23.9305 14 20.0535 20.5962 12.4332 28.6731C9.35829 31.9038 4.94652 30.1538 2.94118 29.0769C2.94118 29.0769 0.802139 34.7308 0 37.0192C7.35294 41.4615 13.6364 41.0577 22.1925 32.7115C31.9519 22.8846 47.0588 24.9038 47.0588 24.9038L50 17.2308C50 17.2308 37.2995 16.6923 31.016 18.4423Z" fill="#D61726"></path> </svg> 