<?xml version="1.0" encoding="UTF-8"?> <svg xmlns="http://www.w3.org/2000/svg" width="204" height="42" viewBox="0 0 204 42" fill="none"> <path d="M14.384 41L13.9081 41.1534L14.0198 41.5H14.384V41ZM1.784 1.912V1.412H1.09749L1.30811 2.0654L1.784 1.912ZM10.408 1.912L10.8855 1.76375L10.7763 1.412H10.408V1.912ZM16.232 20.672L16.7169 20.5502L16.7136 20.5369L16.7095 20.5238L16.232 20.672ZM19.312 32.936L18.8271 33.0578L18.922 33.436H19.312V32.936ZM19.48 32.936V33.436H19.8734L19.966 33.0536L19.48 32.936ZM22.448 20.672L21.9705 20.5238L21.9658 20.5389L21.962 20.5544L22.448 20.672ZM28.272 1.912V1.412H27.9037L27.7945 1.76375L28.272 1.912ZM36.616 1.912L37.0915 2.06663L37.3044 1.412H36.616V1.912ZM23.904 41V41.5H24.2672L24.3795 41.1546L23.904 41ZM14.8599 40.8466L14.5449 39.8694L13.5931 40.1762L13.9081 41.1534L14.8599 40.8466ZM13.9149 37.915L13.2849 35.9606L12.3331 36.2674L12.9631 38.2218L13.9149 37.915ZM12.6549 34.0062L12.0249 32.0518L11.0731 32.3586L11.7031 34.313L12.6549 34.0062ZM11.3949 30.0974L10.7649 28.143L9.81311 28.4498L10.4431 30.4042L11.3949 30.0974ZM10.1349 26.1886L9.50489 24.2342L8.55311 24.541L9.18311 26.4954L10.1349 26.1886ZM8.87489 22.2798L8.24489 20.3254L7.29311 20.6322L7.92311 22.5866L8.87489 22.2798ZM7.61489 18.371L6.98489 16.4166L6.03312 16.7234L6.66311 18.6778L7.61489 18.371ZM6.35489 14.4622L5.72489 12.5078L4.77312 12.8146L5.40312 14.769L6.35489 14.4622ZM5.09489 10.5534L4.46489 8.599L3.51312 8.90581L4.14312 10.8602L5.09489 10.5534ZM3.83489 6.6446L3.20489 4.6902L2.25311 4.99701L2.88312 6.95141L3.83489 6.6446ZM2.57489 2.7358L2.25989 1.7586L1.30811 2.0654L1.62311 3.0426L2.57489 2.7358ZM1.784 2.412H2.862V1.412H1.784V2.412ZM5.018 2.412H7.174V1.412H5.018V2.412ZM9.33 2.412H10.408V1.412H9.33V2.412ZM9.93048 2.06024L10.2217 2.99824L11.1767 2.70175L10.8855 1.76375L9.93048 2.06024ZM10.8041 4.87424L11.3865 6.75024L12.3415 6.45376L11.7591 4.57775L10.8041 4.87424ZM11.9689 8.62624L12.5513 10.5022L13.5063 10.2058L12.9239 8.32976L11.9689 8.62624ZM13.1337 12.3782L13.7161 14.2542L14.6711 13.9578L14.0887 12.0818L13.1337 12.3782ZM14.2985 16.1302L14.8809 18.0062L15.8359 17.7098L15.2535 15.8338L14.2985 16.1302ZM15.4633 19.8822L15.7545 20.8202L16.7095 20.5238L16.4183 19.5858L15.4633 19.8822ZM15.7471 20.7938L16.0037 21.8158L16.9736 21.5722L16.7169 20.5502L15.7471 20.7938ZM16.5171 23.8598L17.0304 25.9038L18.0003 25.6602L17.4869 23.6162L16.5171 23.8598ZM17.5437 27.9478L18.0571 29.9918L19.0269 29.7482L18.5136 27.7042L17.5437 27.9478ZM18.5704 32.0358L18.8271 33.0578L19.7969 32.8142L19.5403 31.7922L18.5704 32.0358ZM19.312 33.436H19.354V32.436H19.312V33.436ZM19.438 33.436H19.48V32.436H19.438V33.436ZM19.966 33.0536L20.2133 32.0316L19.2414 31.7964L18.994 32.8184L19.966 33.0536ZM20.708 29.9876L21.2026 27.9436L20.2307 27.7084L19.736 29.7524L20.708 29.9876ZM21.6973 25.8996L22.192 23.8556L21.22 23.6204L20.7254 25.6644L21.6973 25.8996ZM22.6866 21.8116L22.934 20.7896L21.962 20.5544L21.7147 21.5764L22.6866 21.8116ZM22.9255 20.8202L23.2167 19.8822L22.2617 19.5858L21.9705 20.5238L22.9255 20.8202ZM23.7991 18.0062L24.3815 16.1302L23.4265 15.8338L22.8441 17.7098L23.7991 18.0062ZM24.9639 14.2542L25.5463 12.3782L24.5913 12.0818L24.0089 13.9578L24.9639 14.2542ZM26.1287 10.5022L26.7111 8.62624L25.7561 8.32976L25.1737 10.2058L26.1287 10.5022ZM27.2935 6.75024L27.8759 4.87424L26.9209 4.57776L26.3385 6.45375L27.2935 6.75024ZM28.4583 2.99825L28.7495 2.06024L27.7945 1.76375L27.5033 2.70176L28.4583 2.99825ZM28.272 2.412H29.315V1.412H28.272V2.412ZM31.401 2.412H33.487V1.412H31.401V2.412ZM35.573 2.412H36.616V1.412H35.573V2.412ZM36.1405 1.75736L35.8227 2.73456L36.7737 3.04383L37.0915 2.06663L36.1405 1.75736ZM35.1871 4.68896L34.5515 6.64336L35.5025 6.95264L36.1381 4.99823L35.1871 4.68896ZM33.9159 8.59776L33.2803 10.5522L34.2313 10.8614L34.8669 8.90704L33.9159 8.59776ZM32.6447 12.5066L32.0091 14.461L32.9601 14.7702L33.5957 12.8158L32.6447 12.5066ZM31.3735 16.4154L30.7379 18.3698L31.6889 18.679L32.3245 16.7246L31.3735 16.4154ZM30.1023 20.3242L29.4667 22.2786L30.4177 22.5878L31.0533 20.6334L30.1023 20.3242ZM28.8311 24.233L28.1955 26.1874L29.1465 26.4966L29.7821 24.5422L28.8311 24.233ZM27.5599 28.1418L26.9243 30.0962L27.8753 30.4054L28.5109 28.451L27.5599 28.1418ZM26.2887 32.0506L25.6531 34.005L26.6041 34.3142L27.2397 32.3598L26.2887 32.0506ZM25.0175 35.9594L24.3819 37.9138L25.3329 38.223L25.9685 36.2686L25.0175 35.9594ZM23.7463 39.8682L23.4285 40.8454L24.3795 41.1546L24.6973 40.1774L23.7463 39.8682ZM23.904 40.5H22.714V41.5H23.904V40.5ZM20.334 40.5H17.954V41.5H20.334V40.5ZM15.574 40.5H14.384V41.5H15.574V40.5ZM14.384 41L13.4322 41.3068L13.6557 42H14.384V41ZM1.784 1.912V0.911999H0.41098L0.832227 2.2188L1.784 1.912ZM10.408 1.912L11.363 1.61551L11.1446 0.911999H10.408V1.912ZM16.232 20.672L17.2019 20.4284L17.1952 20.4018L17.187 20.3755L16.232 20.672ZM19.312 32.936L18.3421 33.1796L18.5321 33.936H19.312V32.936ZM19.48 32.936V33.936H20.2669L20.4519 33.1712L19.48 32.936ZM22.448 20.672L21.493 20.3755L21.4835 20.4059L21.4761 20.4368L22.448 20.672ZM28.272 1.912V0.911999H27.5354L27.317 1.61551L28.272 1.912ZM36.616 1.912L37.567 2.22127L37.9928 0.911999H36.616V1.912ZM23.904 41V42H24.6303L24.855 41.3093L23.904 41ZM15.3358 40.6932L15.0208 39.716L13.1172 40.3296L13.4322 41.3068L15.3358 40.6932ZM14.3908 37.7616L13.7608 35.8072L11.8572 36.4208L12.4872 38.3752L14.3908 37.7616ZM13.1308 33.8528L12.5008 31.8984L10.5972 32.512L11.2272 34.4664L13.1308 33.8528ZM11.8708 29.944L11.2408 27.9896L9.33723 28.6032L9.96723 30.5576L11.8708 29.944ZM10.6108 26.0352L9.98077 24.0808L8.07723 24.6944L8.70723 26.6488L10.6108 26.0352ZM9.35077 22.1264L8.72077 20.172L6.81723 20.7856L7.44723 22.74L9.35077 22.1264ZM8.09077 18.2176L7.46077 16.2632L5.55723 16.8768L6.18723 18.8312L8.09077 18.2176ZM6.83077 14.3088L6.20077 12.3544L4.29723 12.968L4.92723 14.9224L6.83077 14.3088ZM5.57077 10.4L4.94077 8.4456L3.03723 9.05921L3.66723 11.0136L5.57077 10.4ZM4.31077 6.4912L3.68077 4.5368L1.77723 5.15041L2.40723 7.10481L4.31077 6.4912ZM3.05077 2.5824L2.73577 1.6052L0.832227 2.2188L1.14723 3.196L3.05077 2.5824ZM1.784 2.912H2.862V0.911999H1.784V2.912ZM5.018 2.912H7.174V0.911999H5.018V2.912ZM9.33 2.912H10.408V0.911999H9.33V2.912ZM9.45296 2.20849L9.74416 3.14649L11.6542 2.55351L11.363 1.61551L9.45296 2.20849ZM10.3266 5.02249L10.909 6.89849L12.819 6.30551L12.2366 4.42951L10.3266 5.02249ZM11.4914 8.77449L12.0738 10.6505L13.9838 10.0575L13.4014 8.18151L11.4914 8.77449ZM12.6562 12.5265L13.2386 14.4025L15.1486 13.8095L14.5662 11.9335L12.6562 12.5265ZM13.821 16.2785L14.4034 18.1545L16.3134 17.5615L15.731 15.6855L13.821 16.2785ZM14.9858 20.0305L15.277 20.9685L17.187 20.3755L16.8958 19.4375L14.9858 20.0305ZM15.2621 20.9156L15.5188 21.9376L17.4585 21.4504L17.2019 20.4284L15.2621 20.9156ZM16.0321 23.9816L16.5455 26.0256L18.4852 25.5384L17.9719 23.4944L16.0321 23.9816ZM17.0588 28.0696L17.5721 30.1136L19.5119 29.6264L18.9985 27.5824L17.0588 28.0696ZM18.0855 32.1576L18.3421 33.1796L20.2819 32.6924L20.0252 31.6704L18.0855 32.1576ZM19.312 33.936H19.354V31.936H19.312V33.936ZM19.438 33.936H19.48V31.936H19.438V33.936ZM20.4519 33.1712L20.6993 32.1492L18.7554 31.6788L18.5081 32.7008L20.4519 33.1712ZM21.1939 30.1052L21.6886 28.0612L19.7447 27.5908L19.2501 29.6348L21.1939 30.1052ZM22.1833 26.0172L22.6779 23.9732L20.7341 23.5028L20.2394 25.5468L22.1833 26.0172ZM23.1726 21.9292L23.4199 20.9072L21.4761 20.4368L21.2287 21.4588L23.1726 21.9292ZM23.403 20.9685L23.6942 20.0305L21.7842 19.4375L21.493 20.3755L23.403 20.9685ZM24.2766 18.1545L24.859 16.2785L22.949 15.6855L22.3666 17.5615L24.2766 18.1545ZM25.4414 14.4025L26.0238 12.5265L24.1138 11.9335L23.5314 13.8095L25.4414 14.4025ZM26.6062 10.6505L27.1886 8.77449L25.2786 8.18151L24.6962 10.0575L26.6062 10.6505ZM27.771 6.89849L28.3534 5.02249L26.4434 4.42951L25.861 6.30551L27.771 6.89849ZM28.9358 3.14649L29.227 2.20849L27.317 1.61551L27.0258 2.55351L28.9358 3.14649ZM28.272 2.912H29.315V0.911999H28.272V2.912ZM31.401 2.912H33.487V0.911999H31.401V2.912ZM35.573 2.912H36.616V0.911999H35.573V2.912ZM35.665 1.60273L35.3472 2.57993L37.2492 3.19847L37.567 2.22127L35.665 1.60273ZM34.7116 4.53433L34.076 6.48873L35.978 7.10727L36.6136 5.15287L34.7116 4.53433ZM33.4404 8.44313L32.8048 10.3975L34.7068 11.0161L35.3424 9.06167L33.4404 8.44313ZM32.1692 12.3519L31.5336 14.3063L33.4356 14.9249L34.0712 12.9705L32.1692 12.3519ZM30.898 16.2607L30.2624 18.2151L32.1644 18.8337L32.8 16.8793L30.898 16.2607ZM29.6268 20.1695L28.9912 22.1239L30.8932 22.7425L31.5288 20.7881L29.6268 20.1695ZM28.3556 24.0783L27.72 26.0327L29.622 26.6513L30.2576 24.6969L28.3556 24.0783ZM27.0844 27.9871L26.4488 29.9415L28.3508 30.5601L28.9864 28.6057L27.0844 27.9871ZM25.8132 31.8959L25.1776 33.8503L27.0796 34.4689L27.7152 32.5145L25.8132 31.8959ZM24.542 35.8047L23.9064 37.7591L25.8084 38.3777L26.444 36.4233L24.542 35.8047ZM23.2708 39.7135L22.953 40.6907L24.855 41.3093L25.1728 40.3321L23.2708 39.7135ZM23.904 40H22.714V42H23.904V40ZM20.334 40H17.954V42H20.334V40ZM15.574 40H14.384V42H15.574V40ZM41.7339 41H41.2339V41.5H41.7339V41ZM41.7339 1.912V1.412H41.2339V1.912H41.7339ZM68.3339 1.912H68.8339V1.412H68.3339V1.912ZM68.3339 9.472V9.972H68.8339V9.472H68.3339ZM50.2459 9.472V8.972H49.7459V9.472H50.2459ZM50.2459 17.48H49.7459V17.98H50.2459V17.48ZM65.7579 17.48H66.2579V16.98H65.7579V17.48ZM65.7579 24.984V25.484H66.2579V24.984H65.7579ZM50.2459 24.984V24.484H49.7459V24.984H50.2459ZM50.2459 33.44H49.7459V33.94H50.2459V33.44ZM68.3339 33.44H68.8339V32.94H68.3339V33.44ZM68.3339 41V41.5H68.8339V41H68.3339ZM42.2339 41V40.0228H41.2339V41H42.2339ZM42.2339 38.0684V36.114H41.2339V38.0684H42.2339ZM42.2339 34.1596V32.2052H41.2339V34.1596H42.2339ZM42.2339 30.2508V28.2964H41.2339V30.2508H42.2339ZM42.2339 26.342V24.3876H41.2339V26.342H42.2339ZM42.2339 22.4332V20.4788H41.2339V22.4332H42.2339ZM42.2339 18.5244V16.57H41.2339V18.5244H42.2339ZM42.2339 14.6156V12.6612H41.2339V14.6156H42.2339ZM42.2339 10.7068V8.75241H41.2339V10.7068H42.2339ZM42.2339 6.79801V4.84361H41.2339V6.79801H42.2339ZM42.2339 2.88921V1.912H41.2339V2.88921H42.2339ZM41.7339 2.412H42.6839V1.412H41.7339V2.412ZM44.5839 2.412H46.4839V1.412H44.5839V2.412ZM48.3839 2.412H50.2839V1.412H48.3839V2.412ZM52.1839 2.412H54.0839V1.412H52.1839V2.412ZM55.9839 2.412H57.8839V1.412H55.9839V2.412ZM59.7839 2.412H61.6839V1.412H59.7839V2.412ZM63.5839 2.412H65.4839V1.412H63.5839V2.412ZM67.3839 2.412H68.3339V1.412H67.3839V2.412ZM67.8339 1.912V2.857H68.8339V1.912H67.8339ZM67.8339 4.747V6.637H68.8339V4.747H67.8339ZM67.8339 8.527V9.472H68.8339V8.527H67.8339ZM68.3339 8.972H67.4295V9.972H68.3339V8.972ZM65.6207 8.972H63.8119V9.972H65.6207V8.972ZM62.0031 8.972H60.1943V9.972H62.0031V8.972ZM58.3855 8.972H56.5767V9.972H58.3855V8.972ZM54.7679 8.972H52.9591V9.972H54.7679V8.972ZM51.1503 8.972H50.2459V9.972H51.1503V8.972ZM49.7459 9.472V10.473H50.7459V9.472H49.7459ZM49.7459 12.475V14.477H50.7459V12.475H49.7459ZM49.7459 16.479V17.48H50.7459V16.479H49.7459ZM50.2459 17.98H51.2154V16.98H50.2459V17.98ZM53.1544 17.98H55.0934V16.98H53.1544V17.98ZM57.0324 17.98H58.9714V16.98H57.0324V17.98ZM60.9104 17.98H62.8494V16.98H60.9104V17.98ZM64.7884 17.98H65.7579V16.98H64.7884V17.98ZM65.2579 17.48V18.418H66.2579V17.48H65.2579ZM65.2579 20.294V22.17H66.2579V20.294H65.2579ZM65.2579 24.046V24.984H66.2579V24.046H65.2579ZM65.7579 24.484H64.7884V25.484H65.7579V24.484ZM62.8494 24.484H60.9104V25.484H62.8494V24.484ZM58.9714 24.484H57.0324V25.484H58.9714V24.484ZM55.0934 24.484H53.1544V25.484H55.0934V24.484ZM51.2154 24.484H50.2459V25.484H51.2154V24.484ZM49.7459 24.984V26.041H50.7459V24.984H49.7459ZM49.7459 28.155V30.269H50.7459V28.155H49.7459ZM49.7459 32.383V33.44H50.7459V32.383H49.7459ZM50.2459 33.94H51.1503V32.94H50.2459V33.94ZM52.9591 33.94H54.7679V32.94H52.9591V33.94ZM56.5767 33.94H58.3855V32.94H56.5767V33.94ZM60.1943 33.94H62.0031V32.94H60.1943V33.94ZM63.8119 33.94H65.6207V32.94H63.8119V33.94ZM67.4295 33.94H68.3339V32.94H67.4295V33.94ZM67.8339 33.44V34.385H68.8339V33.44H67.8339ZM67.8339 36.275V38.165H68.8339V36.275H67.8339ZM67.8339 40.055V41H68.8339V40.055H67.8339ZM68.3339 40.5H67.3839V41.5H68.3339V40.5ZM65.4839 40.5H63.5839V41.5H65.4839V40.5ZM61.6839 40.5H59.7839V41.5H61.6839V40.5ZM57.8839 40.5H55.9839V41.5H57.8839V40.5ZM54.0839 40.5H52.1839V41.5H54.0839V40.5ZM50.2839 40.5H48.3839V41.5H50.2839V40.5ZM46.4839 40.5H44.5839V41.5H46.4839V40.5ZM42.6839 40.5H41.7339V41.5H42.6839V40.5ZM41.7339 41H40.7339V42H41.7339V41ZM41.7339 1.912V0.911999H40.7339V1.912H41.7339ZM68.3339 1.912H69.3339V0.911999H68.3339V1.912ZM68.3339 9.472V10.472H69.3339V9.472H68.3339ZM50.2459 9.472V8.472H49.2459V9.472H50.2459ZM50.2459 17.48H49.2459V18.48H50.2459V17.48ZM65.7579 17.48H66.7579V16.48H65.7579V17.48ZM65.7579 24.984V25.984H66.7579V24.984H65.7579ZM50.2459 24.984V23.984H49.2459V24.984H50.2459ZM50.2459 33.44H49.2459V34.44H50.2459V33.44ZM68.3339 33.44H69.3339V32.44H68.3339V33.44ZM68.3339 41V42H69.3339V41H68.3339ZM42.7339 41V40.0228H40.7339V41H42.7339ZM42.7339 38.0684V36.114H40.7339V38.0684H42.7339ZM42.7339 34.1596V32.2052H40.7339V34.1596H42.7339ZM42.7339 30.2508V28.2964H40.7339V30.2508H42.7339ZM42.7339 26.342V24.3876H40.7339V26.342H42.7339ZM42.7339 22.4332V20.4788H40.7339V22.4332H42.7339ZM42.7339 18.5244V16.57H40.7339V18.5244H42.7339ZM42.7339 14.6156V12.6612H40.7339V14.6156H42.7339ZM42.7339 10.7068V8.75241H40.7339V10.7068H42.7339ZM42.7339 6.79801V4.84361H40.7339V6.79801H42.7339ZM42.7339 2.88921V1.912H40.7339V2.88921H42.7339ZM41.7339 2.912H42.6839V0.911999H41.7339V2.912ZM44.5839 2.912H46.4839V0.911999H44.5839V2.912ZM48.3839 2.912H50.2839V0.911999H48.3839V2.912ZM52.1839 2.912H54.0839V0.911999H52.1839V2.912ZM55.9839 2.912H57.8839V0.911999H55.9839V2.912ZM59.7839 2.912H61.6839V0.911999H59.7839V2.912ZM63.5839 2.912H65.4839V0.911999H63.5839V2.912ZM67.3839 2.912H68.3339V0.911999H67.3839V2.912ZM67.3339 1.912V2.857H69.3339V1.912H67.3339ZM67.3339 4.747V6.637H69.3339V4.747H67.3339ZM67.3339 8.527V9.472H69.3339V8.527H67.3339ZM68.3339 8.472H67.4295V10.472H68.3339V8.472ZM65.6207 8.472H63.8119V10.472H65.6207V8.472ZM62.0031 8.472H60.1943V10.472H62.0031V8.472ZM58.3855 8.472H56.5767V10.472H58.3855V8.472ZM54.7679 8.472H52.9591V10.472H54.7679V8.472ZM51.1503 8.472H50.2459V10.472H51.1503V8.472ZM49.2459 9.472V10.473H51.2459V9.472H49.2459ZM49.2459 12.475V14.477H51.2459V12.475H49.2459ZM49.2459 16.479V17.48H51.2459V16.479H49.2459ZM50.2459 18.48H51.2154V16.48H50.2459V18.48ZM53.1544 18.48H55.0934V16.48H53.1544V18.48ZM57.0324 18.48H58.9714V16.48H57.0324V18.48ZM60.9104 18.48H62.8494V16.48H60.9104V18.48ZM64.7884 18.48H65.7579V16.48H64.7884V18.48ZM64.7579 17.48V18.418H66.7579V17.48H64.7579ZM64.7579 20.294V22.17H66.7579V20.294H64.7579ZM64.7579 24.046V24.984H66.7579V24.046H64.7579ZM65.7579 23.984H64.7884V25.984H65.7579V23.984ZM62.8494 23.984H60.9104V25.984H62.8494V23.984ZM58.9714 23.984H57.0324V25.984H58.9714V23.984ZM55.0934 23.984H53.1544V25.984H55.0934V23.984ZM51.2154 23.984H50.2459V25.984H51.2154V23.984ZM49.2459 24.984V26.041H51.2459V24.984H49.2459ZM49.2459 28.155V30.269H51.2459V28.155H49.2459ZM49.2459 32.383V33.44H51.2459V32.383H49.2459ZM50.2459 34.44H51.1503V32.44H50.2459V34.44ZM52.9591 34.44H54.7679V32.44H52.9591V34.44ZM56.5767 34.44H58.3855V32.44H56.5767V34.44ZM60.1943 34.44H62.0031V32.44H60.1943V34.44ZM63.8119 34.44H65.6207V32.44H63.8119V34.44ZM67.4295 34.44H68.3339V32.44H67.4295V34.44ZM67.3339 33.44V34.385H69.3339V33.44H67.3339ZM67.3339 36.275V38.165H69.3339V36.275H67.3339ZM67.3339 40.055V41H69.3339V40.055H67.3339ZM68.3339 40H67.3839V42H68.3339V40ZM65.4839 40H63.5839V42H65.4839V40ZM61.6839 40H59.7839V42H61.6839V40ZM57.8839 40H55.9839V42H57.8839V40ZM54.0839 40H52.1839V42H54.0839V40ZM50.2839 40H48.3839V42H50.2839V40ZM46.4839 40H44.5839V42H46.4839V40ZM42.6839 40H41.7339V42H42.6839V40ZM84.2615 41V41.5H84.7615V41H84.2615ZM75.7495 41H75.2495V41.5H75.7495V41ZM75.7495 1.912V1.412H75.2495V1.912H75.7495ZM99.1575 2.808L99.3473 2.34541L99.3473 2.34541L99.1575 2.808ZM102.854 5.384L102.482 5.71848L102.488 5.72499L102.494 5.7313L102.854 5.384ZM105.262 9.304L105.731 9.13221L105.262 9.304ZM104.31 21.344L103.881 21.0855L103.878 21.0916L104.31 21.344ZM98.9895 25.656L98.8139 25.1878L98.2939 25.3828L98.5423 25.8796L98.9895 25.656ZM106.662 41V41.5H107.471L107.109 40.7764L106.662 41ZM97.1975 41L96.7461 41.2151L96.8819 41.5H97.1975V41ZM90.3655 26.664L90.8169 26.4489L90.6811 26.164H90.3655V26.664ZM84.2615 26.664V26.164H83.7615V26.664H84.2615ZM96.1895 18.544L96.5229 18.9166L96.524 18.9156L96.1895 18.544ZM96.1895 10.312L95.8456 10.675L95.8554 10.6842L95.8657 10.693L96.1895 10.312ZM84.2615 9.304V8.804H83.7615V9.304H84.2615ZM84.2615 19.496H83.7615V19.996H84.2615V19.496ZM84.2615 40.5H83.1975V41.5H84.2615V40.5ZM81.0695 40.5H78.9415V41.5H81.0695V40.5ZM76.8135 40.5H75.7495V41.5H76.8135V40.5ZM76.2495 41V40.0228H75.2495V41H76.2495ZM76.2495 38.0684V36.114H75.2495V38.0684H76.2495ZM76.2495 34.1596V32.2052H75.2495V34.1596H76.2495ZM76.2495 30.2508V28.2964H75.2495V30.2508H76.2495ZM76.2495 26.342V24.3876H75.2495V26.342H76.2495ZM76.2495 22.4332V20.4788H75.2495V22.4332H76.2495ZM76.2495 18.5244V16.57H75.2495V18.5244H76.2495ZM76.2495 14.6156V12.6612H75.2495V14.6156H76.2495ZM76.2495 10.7068V8.75241H75.2495V10.7068H76.2495ZM76.2495 6.79801V4.84361H75.2495V6.79801H76.2495ZM76.2495 2.88921V1.912H75.2495V2.88921H76.2495ZM75.7495 2.412H76.6763V1.412H75.7495V2.412ZM78.5299 2.412H80.3835V1.412H78.5299V2.412ZM82.2371 2.412H84.0907V1.412H82.2371V2.412ZM85.9443 2.412H87.7979V1.412H85.9443V2.412ZM89.6515 2.412H91.5051V1.412H89.6515V2.412ZM93.3587 2.412H94.2855V1.412H93.3587V2.412ZM94.2855 2.412C94.6968 2.412 95.0981 2.42824 95.4894 2.46057L95.5718 1.46397C95.1519 1.42927 94.7231 1.412 94.2855 1.412V2.412ZM97.843 2.8813C98.2295 2.9917 98.6043 3.12149 98.9677 3.27058L99.3473 2.34541C98.9489 2.18199 98.539 2.04014 98.1177 1.91977L97.843 2.8813ZM98.9677 3.27058C99.3077 3.41007 99.6342 3.56417 99.9474 3.73278L100.421 2.85229C100.077 2.66668 99.7186 2.49776 99.3473 2.34541L98.9677 3.27058ZM101.716 4.96036C101.985 5.19708 102.24 5.44976 102.482 5.71848L103.225 5.04952C102.958 4.75237 102.675 4.47252 102.377 4.21008L101.716 4.96036ZM102.494 5.7313C102.749 5.99538 102.989 6.27351 103.213 6.56579L104.006 5.9562C103.759 5.63435 103.494 5.32783 103.213 5.0367L102.494 5.7313ZM104.363 8.45052C104.519 8.77906 104.662 9.12078 104.792 9.47579L105.731 9.13221C105.591 8.74893 105.436 8.37842 105.265 8.02079L104.363 8.45052ZM104.792 9.47579C104.933 9.86119 105.056 10.2582 105.16 10.6671L106.129 10.4198C106.016 9.97922 105.884 9.54998 105.731 9.13221L104.792 9.47579ZM105.556 13.1401C105.586 13.5502 105.602 13.9701 105.602 14.4H106.602C106.602 13.9465 106.585 13.5019 106.553 13.0662L105.556 13.1401ZM105.602 14.4C105.602 14.6983 105.594 14.9919 105.578 15.2807L106.577 15.3344C106.593 15.0272 106.602 14.7157 106.602 14.4H105.602ZM105.381 17.0234C105.277 17.6098 105.137 18.1741 104.961 18.7167L105.912 19.0257C106.103 18.4373 106.254 17.8278 106.365 17.1976L105.381 17.0234ZM104.301 20.325C104.171 20.584 104.031 20.8376 103.881 21.0856L104.738 21.6024C104.901 21.3323 105.053 21.0561 105.195 20.7739L104.301 20.325ZM103.878 21.0916C103.737 21.3318 103.587 21.5634 103.428 21.7864L104.242 22.3678C104.419 22.1198 104.585 21.8626 104.741 21.5964L103.878 21.0916ZM102.347 23.0337C101.953 23.4092 101.522 23.7526 101.051 24.0635L101.601 24.8981C102.121 24.5553 102.6 24.1749 103.037 23.7568L102.347 23.0337ZM99.5898 24.8669C99.3397 24.9807 99.0811 25.0877 98.8139 25.1878L99.1651 26.1242C99.4527 26.0163 99.7323 25.9006 100.004 25.7772L99.5898 24.8669ZM98.5423 25.8796L99.0218 26.8386L99.9162 26.3914L99.4367 25.4324L98.5423 25.8796ZM99.9808 28.7566L100.94 30.6746L101.834 30.2274L100.875 28.3094L99.9808 28.7566ZM101.899 32.5926L102.858 34.5106L103.752 34.0634L102.793 32.1454L101.899 32.5926ZM103.817 36.4286L104.776 38.3466L105.67 37.8994L104.711 35.9814L103.817 36.4286ZM105.735 40.2646L106.214 41.2236L107.109 40.7764L106.629 39.8174L105.735 40.2646ZM106.662 40.5H105.479V41.5H106.662V40.5ZM103.113 40.5H100.747V41.5H103.113V40.5ZM98.3805 40.5H97.1975V41.5H98.3805V40.5ZM97.6489 40.7849L97.2219 39.8889L96.3191 40.3191L96.7461 41.2151L97.6489 40.7849ZM96.3679 38.0969L95.5139 36.3049L94.6111 36.7351L95.4651 38.5271L96.3679 38.0969ZM94.6599 34.5129L93.8059 32.7209L92.9031 33.1511L93.7571 34.9431L94.6599 34.5129ZM92.9519 30.9289L92.0979 29.1369L91.1951 29.5671L92.0491 31.3591L92.9519 30.9289ZM91.2439 27.3449L90.8169 26.4489L89.9141 26.8791L90.3411 27.7751L91.2439 27.3449ZM90.3655 26.164H89.6025V27.164H90.3655V26.164ZM88.0765 26.164H86.5505V27.164H88.0765V26.164ZM85.0245 26.164H84.2615V27.164H85.0245V26.164ZM83.7615 26.664V27.56H84.7615V26.664H83.7615ZM83.7615 29.352V31.144H84.7615V29.352H83.7615ZM83.7615 32.936V34.728H84.7615V32.936H83.7615ZM83.7615 36.52V38.312H84.7615V36.52H83.7615ZM83.7615 40.104V41H84.7615V40.104H83.7615ZM93.2215 18.996H92.1015V19.996H93.2215V18.996ZM89.8615 18.996H87.6215V19.996H89.8615V18.996ZM85.3815 18.996H84.2615V19.996H85.3815V18.996ZM84.7615 19.496V18.6467H83.7615V19.496H84.7615ZM84.7615 16.948V15.2493H83.7615V16.948H84.7615ZM84.7615 13.5507V11.852H83.7615V13.5507H84.7615ZM84.7615 10.1533V9.304H83.7615V10.1533H84.7615ZM84.2615 9.804H85.3815V8.804H84.2615V9.804ZM87.6215 9.804H89.8615V8.804H87.6215V9.804ZM92.1015 9.804H93.2215V8.804H92.1015V9.804ZM93.2215 9.804C93.4829 9.804 93.7284 9.81931 93.9585 9.84917L94.0872 8.85749C93.8105 8.82158 93.5218 8.804 93.2215 8.804V9.804ZM95.2985 10.2712C95.4995 10.385 95.6816 10.5195 95.8456 10.675L96.5334 9.94902C96.3095 9.73695 96.0618 9.5542 95.7911 9.40098L95.2985 10.2712ZM95.8657 10.693C96.0344 10.8364 96.1793 10.9985 96.3015 11.1801L97.1312 10.6218C96.9575 10.3638 96.7512 10.1332 96.5133 9.93103L95.8657 10.693ZM96.7607 12.4496C96.7929 12.6714 96.8095 12.9107 96.8095 13.168H97.8095C97.8095 12.8679 97.7901 12.5803 97.7503 12.306L96.7607 12.4496ZM96.8095 13.168V13.784H97.8095V13.168H96.8095ZM96.8095 15.016V15.632H97.8095V15.016H96.8095ZM96.8095 15.632C96.8095 15.8924 96.7925 16.1354 96.7594 16.3617L97.7489 16.5062C97.7897 16.2274 97.8095 15.9358 97.8095 15.632H96.8095ZM96.2937 17.6614C96.1705 17.8496 96.0246 18.0197 95.855 18.1724L96.524 18.9156C96.7571 18.7059 96.9595 18.4702 97.1304 18.2091L96.2937 17.6614ZM95.8561 18.1714C95.6908 18.3193 95.5064 18.4477 95.302 18.5563L95.7711 19.4394C96.0448 19.2941 96.2958 19.1198 96.5229 18.9166L95.8561 18.1714ZM93.9566 18.9538C93.7268 18.9817 93.4819 18.996 93.2215 18.996V19.996C93.5183 19.996 93.8037 19.9797 94.0772 19.9465L93.9566 18.9538ZM84.2615 41V42H85.2615V41H84.2615ZM75.7495 41H74.7495V42H75.7495V41ZM75.7495 1.912V0.911999H74.7495V1.912H75.7495ZM99.1575 2.808L99.5371 1.88283L99.5371 1.88283L99.1575 2.808ZM102.854 5.384L102.11 6.05296L102.122 6.06599L102.134 6.07859L102.854 5.384ZM105.262 9.304L106.201 8.96042L105.262 9.304ZM104.31 21.344L103.453 20.8271L103.446 20.8391L104.31 21.344ZM98.9895 25.656L98.6384 24.7197L97.5983 25.1097L98.0951 26.1032L98.9895 25.656ZM106.662 41V42H108.28L107.556 40.5528L106.662 41ZM97.1975 41L96.2948 41.4302L96.5663 42H97.1975V41ZM90.3655 26.664L91.2682 26.2338L90.9967 25.664H90.3655V26.664ZM84.2615 26.664V25.664H83.2615V26.664H84.2615ZM96.1895 18.544L96.8563 19.2892L96.8585 19.2873L96.1895 18.544ZM96.1895 10.312L95.5018 11.038L95.5213 11.0565L95.5419 11.0739L96.1895 10.312ZM84.2615 9.304V8.304H83.2615V9.304H84.2615ZM84.2615 19.496H83.2615V20.496H84.2615V19.496ZM84.2615 40H83.1975V42H84.2615V40ZM81.0695 40H78.9415V42H81.0695V40ZM76.8135 40H75.7495V42H76.8135V40ZM76.7495 41V40.0228H74.7495V41H76.7495ZM76.7495 38.0684V36.114H74.7495V38.0684H76.7495ZM76.7495 34.1596V32.2052H74.7495V34.1596H76.7495ZM76.7495 30.2508V28.2964H74.7495V30.2508H76.7495ZM76.7495 26.342V24.3876H74.7495V26.342H76.7495ZM76.7495 22.4332V20.4788H74.7495V22.4332H76.7495ZM76.7495 18.5244V16.57H74.7495V18.5244H76.7495ZM76.7495 14.6156V12.6612H74.7495V14.6156H76.7495ZM76.7495 10.7068V8.75241H74.7495V10.7068H76.7495ZM76.7495 6.79801V4.84361H74.7495V6.79801H76.7495ZM76.7495 2.88921V1.912H74.7495V2.88921H76.7495ZM75.7495 2.912H76.6763V0.911999H75.7495V2.912ZM78.5299 2.912H80.3835V0.911999H78.5299V2.912ZM82.2371 2.912H84.0907V0.911999H82.2371V2.912ZM85.9443 2.912H87.7979V0.911999H85.9443V2.912ZM89.6515 2.912H91.5051V0.911999H89.6515V2.912ZM93.3587 2.912H94.2855V0.911999H93.3587V2.912ZM94.2855 2.912C94.6836 2.912 95.0712 2.92772 95.4482 2.95887L95.6129 0.965663C95.1788 0.929794 94.7363 0.911999 94.2855 0.911999V2.912ZM97.7057 3.36207C98.0747 3.46748 98.432 3.59124 98.7779 3.73317L99.5371 1.88283C99.1212 1.71224 98.6938 1.56435 98.2551 1.43901L97.7057 3.36207ZM98.7779 3.73317C99.1023 3.86623 99.413 4.01292 99.7103 4.17302L100.658 2.41204C100.298 2.21794 99.9241 2.0416 99.5371 1.88283L98.7779 3.73317ZM101.386 5.33549C101.64 5.55937 101.881 5.79845 102.11 6.05296L103.597 4.71503C103.317 4.40367 103.02 4.11024 102.708 3.83495L101.386 5.33549ZM102.134 6.07859C102.376 6.32915 102.604 6.5931 102.817 6.87058L104.402 5.6514C104.144 5.31477 103.867 4.99405 103.573 4.6894L102.134 6.07859ZM103.911 8.66538C104.06 8.97939 104.198 9.3067 104.322 9.64758L106.201 8.96042C106.055 8.56301 105.894 8.1781 105.717 7.80593L103.911 8.66538ZM104.322 9.64758C104.457 10.0168 104.575 10.3978 104.675 10.7907L106.613 10.2962C106.497 9.8397 106.359 9.39437 106.201 8.96042L104.322 9.64758ZM105.057 13.1771C105.087 13.5744 105.102 13.982 105.102 14.4H107.102C107.102 13.9347 107.085 13.4777 107.052 13.0292L105.057 13.1771ZM105.102 14.4C105.102 14.6896 105.094 14.9742 105.079 15.2539L107.076 15.3613C107.093 15.0449 107.102 14.7244 107.102 14.4H105.102ZM104.888 16.9363C104.789 17.5007 104.654 18.0425 104.485 18.5623L106.387 19.1801C106.586 18.5689 106.742 17.9369 106.858 17.2847L104.888 16.9363ZM103.854 20.1005C103.73 20.348 103.596 20.5902 103.453 20.8271L105.166 21.8609C105.335 21.5796 105.494 21.2921 105.642 20.9983L103.854 20.1005ZM103.446 20.8391C103.313 21.0664 103.172 21.2853 103.021 21.4957L104.648 22.6585C104.835 22.3979 105.009 22.128 105.173 21.8489L103.446 20.8391ZM102.001 22.6721C101.63 23.0264 101.222 23.3512 100.775 23.6462L101.877 25.3154C102.42 24.9567 102.923 24.5578 103.383 24.1183L102.001 22.6721ZM99.3828 24.4118C99.1433 24.5207 98.8952 24.6233 98.6384 24.7197L99.3406 26.5923C99.6386 26.4806 99.9287 26.3606 100.211 26.2323L99.3828 24.4118ZM98.0951 26.1032L98.5746 27.0622L100.363 26.1678L99.8839 25.2088L98.0951 26.1032ZM99.5336 28.9802L100.493 30.8982L102.281 30.0038L101.322 28.0858L99.5336 28.9802ZM101.452 32.8162L102.411 34.7342L104.199 33.8398L103.24 31.9218L101.452 32.8162ZM103.37 36.6522L104.329 38.5702L106.117 37.6758L105.158 35.7578L103.37 36.6522ZM105.288 40.4882L105.767 41.4472L107.556 40.5528L107.076 39.5938L105.288 40.4882ZM106.662 40H105.479V42H106.662V40ZM103.113 40H100.747V42H103.113V40ZM98.3805 40H97.1975V42H98.3805V40ZM98.1002 40.5698L97.6732 39.6738L95.8678 40.5342L96.2948 41.4302L98.1002 40.5698ZM96.8192 37.8818L95.9652 36.0898L94.1598 36.9502L95.0138 38.7422L96.8192 37.8818ZM95.1112 34.2978L94.2572 32.5058L92.4518 33.3662L93.3058 35.1582L95.1112 34.2978ZM93.4032 30.7138L92.5492 28.9218L90.7438 29.7822L91.5978 31.5742L93.4032 30.7138ZM91.6952 27.1298L91.2682 26.2338L89.4628 27.0942L89.8898 27.9902L91.6952 27.1298ZM90.3655 25.664H89.6025V27.664H90.3655V25.664ZM88.0765 25.664H86.5505V27.664H88.0765V25.664ZM85.0245 25.664H84.2615V27.664H85.0245V25.664ZM83.2615 26.664V27.56H85.2615V26.664H83.2615ZM83.2615 29.352V31.144H85.2615V29.352H83.2615ZM83.2615 32.936V34.728H85.2615V32.936H83.2615ZM83.2615 36.52V38.312H85.2615V36.52H83.2615ZM83.2615 40.104V41H85.2615V40.104H83.2615ZM93.2215 18.496H92.1015V20.496H93.2215V18.496ZM89.8615 18.496H87.6215V20.496H89.8615V18.496ZM85.3815 18.496H84.2615V20.496H85.3815V18.496ZM85.2615 19.496V18.6467H83.2615V19.496H85.2615ZM85.2615 16.948V15.2493H83.2615V16.948H85.2615ZM85.2615 13.5507V11.852H83.2615V13.5507H85.2615ZM85.2615 10.1533V9.304H83.2615V10.1533H85.2615ZM84.2615 10.304H85.3815V8.304H84.2615V10.304ZM87.6215 10.304H89.8615V8.304H87.6215V10.304ZM92.1015 10.304H93.2215V8.304H92.1015V10.304ZM93.2215 10.304C93.4634 10.304 93.6873 10.3182 93.8941 10.345L94.1515 8.36165C93.8515 8.32271 93.5412 8.304 93.2215 8.304V10.304ZM95.0521 10.7063C95.2184 10.8004 95.3676 10.9108 95.5018 11.038L96.8772 9.58604C96.6235 9.34565 96.3429 9.13879 96.0374 8.96586L95.0521 10.7063ZM95.5419 11.0739C95.6759 11.1879 95.7902 11.3158 95.8867 11.4593L97.546 10.3427C97.3466 10.0464 97.1097 9.78169 96.8372 9.55006L95.5419 11.0739ZM96.2659 12.5214C96.2943 12.717 96.3095 12.9321 96.3095 13.168H98.3095C98.3095 12.8465 98.2888 12.5348 98.2451 12.2342L96.2659 12.5214ZM96.3095 13.168V13.784H98.3095V13.168H96.3095ZM96.3095 15.016V15.632H98.3095V15.016H96.3095ZM96.3095 15.632C96.3095 15.8707 96.2939 16.0894 96.2647 16.2895L98.2437 16.5784C98.2882 16.2733 98.3095 15.9574 98.3095 15.632H96.3095ZM95.8754 17.3876C95.776 17.5394 95.6583 17.6767 95.5205 17.8007L96.8585 19.2873C97.1233 19.0489 97.354 18.7804 97.5487 18.483L95.8754 17.3876ZM95.5227 17.7988C95.3882 17.9191 95.2373 18.0245 95.0674 18.1147L96.0056 19.881C96.3139 19.7172 96.5983 19.5201 96.8563 19.2892L95.5227 17.7988ZM93.8963 18.4574C93.6884 18.4827 93.4637 18.496 93.2215 18.496V20.496C93.5365 20.496 93.8422 20.4787 94.1376 20.4428L93.8963 18.4574ZM111.972 41H111.472V41.5H111.972V41ZM111.972 34.224V33.724H111.472V34.224H111.972ZM117.012 34.224V34.724H117.512V34.224H117.012ZM117.012 8.688H117.512V8.188H117.012V8.688ZM111.972 8.688H111.472V9.188H111.972V8.688ZM111.972 1.912V1.412H111.472V1.912H111.972ZM130.564 1.912H131.064V1.412H130.564V1.912ZM130.564 8.688V9.188H131.064V8.688H130.564ZM125.524 8.688V8.188H125.024V8.688H125.524ZM125.524 34.224H125.024V34.724H125.524V34.224ZM130.564 34.224H131.064V33.724H130.564V34.224ZM130.564 41V41.5H131.064V41H130.564ZM112.472 41V40.153H111.472V41H112.472ZM112.472 38.459V36.765H111.472V38.459H112.472ZM112.472 35.071V34.224H111.472V35.071H112.472ZM111.972 34.724H113.232V33.724H111.972V34.724ZM115.752 34.724H117.012V33.724H115.752V34.724ZM117.512 34.224V33.16H116.512V34.224H117.512ZM117.512 31.032V28.904H116.512V31.032H117.512ZM117.512 26.776V24.648H116.512V26.776H117.512ZM117.512 22.52V20.392H116.512V22.52H117.512ZM117.512 18.264V16.136H116.512V18.264H117.512ZM117.512 14.008V11.88H116.512V14.008H117.512ZM117.512 9.752V8.688H116.512V9.752H117.512ZM117.012 8.188H115.752V9.188H117.012V8.188ZM113.232 8.188H111.972V9.188H113.232V8.188ZM112.472 8.688V7.841H111.472V8.688H112.472ZM112.472 6.147V4.453H111.472V6.147H112.472ZM112.472 2.759V1.912H111.472V2.759H112.472ZM111.972 2.412H112.901V1.412H111.972V2.412ZM114.761 2.412H116.62V1.412H114.761V2.412ZM118.479 2.412H120.338V1.412H118.479V2.412ZM122.197 2.412H124.057V1.412H122.197V2.412ZM125.916 2.412H127.775V1.412H125.916V2.412ZM129.634 2.412H130.564V1.412H129.634V2.412ZM130.064 1.912V2.759H131.064V1.912H130.064ZM130.064 4.453V6.147H131.064V4.453H130.064ZM130.064 7.841V8.688H131.064V7.841H130.064ZM130.564 8.188H129.304V9.188H130.564V8.188ZM126.784 8.188H125.524V9.188H126.784V8.188ZM125.024 8.688V9.752H126.024V8.688H125.024ZM125.024 11.88V14.008H126.024V11.88H125.024ZM125.024 16.136V18.264H126.024V16.136H125.024ZM125.024 20.392V22.52H126.024V20.392H125.024ZM125.024 24.648V26.776H126.024V24.648H125.024ZM125.024 28.904V31.032H126.024V28.904H125.024ZM125.024 33.16V34.224H126.024V33.16H125.024ZM125.524 34.724H126.784V33.724H125.524V34.724ZM129.304 34.724H130.564V33.724H129.304V34.724ZM130.064 34.224V35.071H131.064V34.224H130.064ZM130.064 36.765V38.459H131.064V36.765H130.064ZM130.064 40.153V41H131.064V40.153H130.064ZM130.564 40.5H129.634V41.5H130.564V40.5ZM127.775 40.5H125.916V41.5H127.775V40.5ZM124.057 40.5H122.197V41.5H124.057V40.5ZM120.338 40.5H118.479V41.5H120.338V40.5ZM116.62 40.5H114.761V41.5H116.62V40.5ZM112.901 40.5H111.972V41.5H112.901V40.5ZM111.972 41H110.972V42H111.972V41ZM111.972 34.224V33.224H110.972V34.224H111.972ZM117.012 34.224V35.224H118.012V34.224H117.012ZM117.012 8.688H118.012V7.688H117.012V8.688ZM111.972 8.688H110.972V9.688H111.972V8.688ZM111.972 1.912V0.911999H110.972V1.912H111.972ZM130.564 1.912H131.564V0.911999H130.564V1.912ZM130.564 8.688V9.688H131.564V8.688H130.564ZM125.524 8.688V7.688H124.524V8.688H125.524ZM125.524 34.224H124.524V35.224H125.524V34.224ZM130.564 34.224H131.564V33.224H130.564V34.224ZM130.564 41V42H131.564V41H130.564ZM112.972 41V40.153H110.972V41H112.972ZM112.972 38.459V36.765H110.972V38.459H112.972ZM112.972 35.071V34.224H110.972V35.071H112.972ZM111.972 35.224H113.232V33.224H111.972V35.224ZM115.752 35.224H117.012V33.224H115.752V35.224ZM118.012 34.224V33.16H116.012V34.224H118.012ZM118.012 31.032V28.904H116.012V31.032H118.012ZM118.012 26.776V24.648H116.012V26.776H118.012ZM118.012 22.52V20.392H116.012V22.52H118.012ZM118.012 18.264V16.136H116.012V18.264H118.012ZM118.012 14.008V11.88H116.012V14.008H118.012ZM118.012 9.752V8.688H116.012V9.752H118.012ZM117.012 7.688H115.752V9.688H117.012V7.688ZM113.232 7.688H111.972V9.688H113.232V7.688ZM112.972 8.688V7.841H110.972V8.688H112.972ZM112.972 6.147V4.453H110.972V6.147H112.972ZM112.972 2.759V1.912H110.972V2.759H112.972ZM111.972 2.912H112.901V0.911999H111.972V2.912ZM114.761 2.912H116.62V0.911999H114.761V2.912ZM118.479 2.912H120.338V0.911999H118.479V2.912ZM122.197 2.912H124.057V0.911999H122.197V2.912ZM125.916 2.912H127.775V0.911999H125.916V2.912ZM129.634 2.912H130.564V0.911999H129.634V2.912ZM129.564 1.912V2.759H131.564V1.912H129.564ZM129.564 4.453V6.147H131.564V4.453H129.564ZM129.564 7.841V8.688H131.564V7.841H129.564ZM130.564 7.688H129.304V9.688H130.564V7.688ZM126.784 7.688H125.524V9.688H126.784V7.688ZM124.524 8.688V9.752H126.524V8.688H124.524ZM124.524 11.88V14.008H126.524V11.88H124.524ZM124.524 16.136V18.264H126.524V16.136H124.524ZM124.524 20.392V22.52H126.524V20.392H124.524ZM124.524 24.648V26.776H126.524V24.648H124.524ZM124.524 28.904V31.032H126.524V28.904H124.524ZM124.524 33.16V34.224H126.524V33.16H124.524ZM125.524 35.224H126.784V33.224H125.524V35.224ZM129.304 35.224H130.564V33.224H129.304V35.224ZM129.564 34.224V35.071H131.564V34.224H129.564ZM129.564 36.765V38.459H131.564V36.765H129.564ZM129.564 40.153V41H131.564V40.153H129.564ZM130.564 40H129.634V42H130.564V40ZM127.775 40H125.916V42H127.775V40ZM124.057 40H122.197V42H124.057V40ZM120.338 40H118.479V42H120.338V40ZM116.62 40H114.761V42H116.62V40ZM112.901 40H111.972V42H112.901V40ZM137.656 41H137.156V41.5H137.656V41ZM137.656 1.912V1.412H137.156V1.912H137.656ZM163.584 1.912H164.084V1.412H163.584V1.912ZM163.584 9.472V9.972H164.084V9.472H163.584ZM146.168 9.472V8.972H145.668V9.472H146.168ZM146.168 17.48H145.668V17.98H146.168V17.48ZM161.008 17.48H161.508V16.98H161.008V17.48ZM161.008 24.984V25.484H161.508V24.984H161.008ZM146.168 24.984V24.484H145.668V24.984H146.168ZM146.168 41V41.5H146.668V41H146.168ZM138.156 41V40.0228H137.156V41H138.156ZM138.156 38.0684V36.114H137.156V38.0684H138.156ZM138.156 34.1596V32.2052H137.156V34.1596H138.156ZM138.156 30.2508V28.2964H137.156V30.2508H138.156ZM138.156 26.342V24.3876H137.156V26.342H138.156ZM138.156 22.4332V20.4788H137.156V22.4332H138.156ZM138.156 18.5244V16.57H137.156V18.5244H138.156ZM138.156 14.6156V12.6612H137.156V14.6156H138.156ZM138.156 10.7068V8.75241H137.156V10.7068H138.156ZM138.156 6.79801V4.84361H137.156V6.79801H138.156ZM138.156 2.88921V1.912H137.156V2.88921H138.156ZM137.656 2.412H138.736V1.412H137.656V2.412ZM140.897 2.412H143.057V1.412H140.897V2.412ZM145.218 2.412H147.379V1.412H145.218V2.412ZM149.539 2.412H151.7V1.412H149.539V2.412ZM153.861 2.412H156.021V1.412H153.861V2.412ZM158.182 2.412H160.343V1.412H158.182V2.412ZM162.503 2.412H163.584V1.412H162.503V2.412ZM163.084 1.912V2.857H164.084V1.912H163.084ZM163.084 4.747V6.637H164.084V4.747H163.084ZM163.084 8.527V9.472H164.084V8.527H163.084ZM163.584 8.972H162.495V9.972H163.584V8.972ZM160.318 8.972H158.141V9.972H160.318V8.972ZM155.964 8.972H153.787V9.972H155.964V8.972ZM151.61 8.972H149.433V9.972H151.61V8.972ZM147.256 8.972H146.168V9.972H147.256V8.972ZM145.668 9.472V10.473H146.668V9.472H145.668ZM145.668 12.475V14.477H146.668V12.475H145.668ZM145.668 16.479V17.48H146.668V16.479H145.668ZM146.168 17.98H147.095V16.98H146.168V17.98ZM148.95 17.98H150.805V16.98H148.95V17.98ZM152.66 17.98H154.515V16.98H152.66V17.98ZM156.37 17.98H158.225V16.98H156.37V17.98ZM160.08 17.98H161.008V16.98H160.08V17.98ZM160.508 17.48V18.418H161.508V17.48H160.508ZM160.508 20.294V22.17H161.508V20.294H160.508ZM160.508 24.046V24.984H161.508V24.046H160.508ZM161.008 24.484H160.08V25.484H161.008V24.484ZM158.225 24.484H156.37V25.484H158.225V24.484ZM154.515 24.484H152.66V25.484H154.515V24.484ZM150.805 24.484H148.95V25.484H150.805V24.484ZM147.095 24.484H146.168V25.484H147.095V24.484ZM145.668 24.984V25.985H146.668V24.984H145.668ZM145.668 27.987V29.989H146.668V27.987H145.668ZM145.668 31.991V33.993H146.668V31.991H145.668ZM145.668 35.995V37.997H146.668V35.995H145.668ZM145.668 39.999V41H146.668V39.999H145.668ZM146.168 40.5H145.104V41.5H146.168V40.5ZM142.976 40.5H140.848V41.5H142.976V40.5ZM138.72 40.5H137.656V41.5H138.72V40.5ZM137.656 41H136.656V42H137.656V41ZM137.656 1.912V0.911999H136.656V1.912H137.656ZM163.584 1.912H164.584V0.911999H163.584V1.912ZM163.584 9.472V10.472H164.584V9.472H163.584ZM146.168 9.472V8.472H145.168V9.472H146.168ZM146.168 17.48H145.168V18.48H146.168V17.48ZM161.008 17.48H162.008V16.48H161.008V17.48ZM161.008 24.984V25.984H162.008V24.984H161.008ZM146.168 24.984V23.984H145.168V24.984H146.168ZM146.168 41V42H147.168V41H146.168ZM138.656 41V40.0228H136.656V41H138.656ZM138.656 38.0684V36.114H136.656V38.0684H138.656ZM138.656 34.1596V32.2052H136.656V34.1596H138.656ZM138.656 30.2508V28.2964H136.656V30.2508H138.656ZM138.656 26.342V24.3876H136.656V26.342H138.656ZM138.656 22.4332V20.4788H136.656V22.4332H138.656ZM138.656 18.5244V16.57H136.656V18.5244H138.656ZM138.656 14.6156V12.6612H136.656V14.6156H138.656ZM138.656 10.7068V8.75241H136.656V10.7068H138.656ZM138.656 6.79801V4.84361H136.656V6.79801H138.656ZM138.656 2.88921V1.912H136.656V2.88921H138.656ZM137.656 2.912H138.736V0.911999H137.656V2.912ZM140.897 2.912H143.057V0.911999H140.897V2.912ZM145.218 2.912H147.379V0.911999H145.218V2.912ZM149.539 2.912H151.7V0.911999H149.539V2.912ZM153.861 2.912H156.021V0.911999H153.861V2.912ZM158.182 2.912H160.343V0.911999H158.182V2.912ZM162.503 2.912H163.584V0.911999H162.503V2.912ZM162.584 1.912V2.857H164.584V1.912H162.584ZM162.584 4.747V6.637H164.584V4.747H162.584ZM162.584 8.527V9.472H164.584V8.527H162.584ZM163.584 8.472H162.495V10.472H163.584V8.472ZM160.318 8.472H158.141V10.472H160.318V8.472ZM155.964 8.472H153.787V10.472H155.964V8.472ZM151.61 8.472H149.433V10.472H151.61V8.472ZM147.256 8.472H146.168V10.472H147.256V8.472ZM145.168 9.472V10.473H147.168V9.472H145.168ZM145.168 12.475V14.477H147.168V12.475H145.168ZM145.168 16.479V17.48H147.168V16.479H145.168ZM146.168 18.48H147.095V16.48H146.168V18.48ZM148.95 18.48H150.805V16.48H148.95V18.48ZM152.66 18.48H154.515V16.48H152.66V18.48ZM156.37 18.48H158.225V16.48H156.37V18.48ZM160.08 18.48H161.008V16.48H160.08V18.48ZM160.008 17.48V18.418H162.008V17.48H160.008ZM160.008 20.294V22.17H162.008V20.294H160.008ZM160.008 24.046V24.984H162.008V24.046H160.008ZM161.008 23.984H160.08V25.984H161.008V23.984ZM158.225 23.984H156.37V25.984H158.225V23.984ZM154.515 23.984H152.66V25.984H154.515V23.984ZM150.805 23.984H148.95V25.984H150.805V23.984ZM147.095 23.984H146.168V25.984H147.095V23.984ZM145.168 24.984V25.985H147.168V24.984H145.168ZM145.168 27.987V29.989H147.168V27.987H145.168ZM145.168 31.991V33.993H147.168V31.991H145.168ZM145.168 35.995V37.997H147.168V35.995H145.168ZM145.168 39.999V41H147.168V39.999H145.168ZM146.168 40H145.104V42H146.168V40ZM142.976 40H140.848V42H142.976V40ZM138.72 40H137.656V42H138.72V40ZM179.99 41H179.49V41.5H179.99V41ZM179.99 25.712H180.49V25.5811L180.425 25.4669L179.99 25.712ZM166.606 1.912V1.412H165.751L166.17 2.15708L166.606 1.912ZM176.126 1.912L176.566 1.67457L176.424 1.412H176.126V1.912ZM184.526 17.48L184.086 17.7174L184.227 17.98H184.526V17.48ZM184.638 17.48V17.98H184.942L185.082 17.71L184.638 17.48ZM192.702 1.912V1.412H192.397L192.258 1.68203L192.702 1.912ZM201.942 1.912L202.377 2.15752L202.797 1.412H201.942V1.912ZM188.558 25.656L188.122 25.4105L188.058 25.5248V25.656H188.558ZM188.558 41V41.5H189.058V41H188.558ZM180.49 41V40.0445H179.49V41H180.49ZM180.49 38.1335V36.2225H179.49V38.1335H180.49ZM180.49 34.3115V32.4005H179.49V34.3115H180.49ZM180.49 30.4895V28.5785H179.49V30.4895H180.49ZM180.49 26.6675V25.712H179.49V26.6675H180.49ZM180.425 25.4669L179.947 24.6169L179.076 25.1071L179.554 25.9571L180.425 25.4669ZM178.991 22.9169L178.035 21.2169L177.164 21.7071L178.12 23.4071L178.991 22.9169ZM177.079 19.5169L176.123 17.8169L175.252 18.3071L176.208 20.0071L177.079 19.5169ZM175.167 16.1169L174.211 14.4169L173.34 14.9071L174.296 16.6071L175.167 16.1169ZM173.255 12.7169L172.299 11.0169L171.428 11.5071L172.384 13.2071L173.255 12.7169ZM171.343 9.31692L170.387 7.61692L169.516 8.10708L170.472 9.80708L171.343 9.31692ZM169.431 5.91692L168.475 4.21692L167.604 4.70708L168.56 6.40708L169.431 5.91692ZM167.519 2.51692L167.041 1.66692L166.17 2.15708L166.648 3.00708L167.519 2.51692ZM166.606 2.412H167.796V1.412H166.606V2.412ZM170.176 2.412H172.556V1.412H170.176V2.412ZM174.936 2.412H176.126V1.412H174.936V2.412ZM175.686 2.14943L176.211 3.12243L177.091 2.64757L176.566 1.67457L175.686 2.14943ZM177.261 5.06843L178.311 7.01443L179.191 6.53957L178.141 4.59357L177.261 5.06843ZM179.361 8.96043L180.411 10.9064L181.291 10.4316L180.241 8.48557L179.361 8.96043ZM181.461 12.8524L182.511 14.7984L183.391 14.3236L182.341 12.3776L181.461 12.8524ZM183.561 16.7444L184.086 17.7174L184.966 17.2426L184.441 16.2696L183.561 16.7444ZM184.526 17.98H184.554V16.98H184.526V17.98ZM184.61 17.98H184.638V16.98H184.61V17.98ZM185.082 17.71L185.586 16.737L184.698 16.277L184.194 17.25L185.082 17.71ZM186.594 14.791L187.602 12.845L186.714 12.385L185.706 14.331L186.594 14.791ZM188.61 10.899L189.618 8.95297L188.73 8.49303L187.722 10.439L188.61 10.899ZM190.626 7.00697L191.634 5.06097L190.746 4.60103L189.738 6.54703L190.626 7.00697ZM192.642 3.11497L193.146 2.14197L192.258 1.68203L191.754 2.65503L192.642 3.11497ZM192.702 2.412H193.857V1.412H192.702V2.412ZM196.167 2.412H198.477V1.412H196.167V2.412ZM200.787 2.412H201.942V1.412H200.787V2.412ZM201.506 1.66648L201.028 2.51448L201.899 3.00552L202.377 2.15752L201.506 1.66648ZM200.072 4.21048L199.116 5.90648L199.987 6.39752L200.943 4.70152L200.072 4.21048ZM198.16 7.60248L197.204 9.29848L198.075 9.78952L199.031 8.09352L198.16 7.60248ZM196.248 10.9945L195.292 12.6905L196.163 13.1815L197.119 11.4855L196.248 10.9945ZM194.336 14.3865L193.38 16.0825L194.251 16.5735L195.207 14.8775L194.336 14.3865ZM192.424 17.7785L191.468 19.4745L192.339 19.9655L193.295 18.2695L192.424 17.7785ZM190.512 21.1705L189.556 22.8665L190.427 23.3575L191.383 21.6615L190.512 21.1705ZM188.6 24.5625L188.122 25.4105L188.993 25.9015L189.471 25.0535L188.6 24.5625ZM188.058 25.656V26.615H189.058V25.656H188.058ZM188.058 28.533V30.451H189.058V28.533H188.058ZM188.058 32.369V34.287H189.058V32.369H188.058ZM188.058 36.205V38.123H189.058V36.205H188.058ZM188.058 40.041V41H189.058V40.041H188.058ZM188.558 40.5H187.487V41.5H188.558V40.5ZM185.345 40.5H183.203V41.5H185.345V40.5ZM181.061 40.5H179.99V41.5H181.061V40.5ZM179.99 41H178.99V42H179.99V41ZM179.99 25.712H180.99V25.4501L180.861 25.2218L179.99 25.712ZM166.606 1.912V0.911999H164.896L165.734 2.40216L166.606 1.912ZM176.126 1.912L177.006 1.43714L176.722 0.911999H176.126V1.912ZM184.526 17.48L183.645 17.9549L183.929 18.48H184.526V17.48ZM184.638 17.48V18.48H185.246L185.526 17.9399L184.638 17.48ZM192.702 1.912V0.911999H192.093L191.814 1.45206L192.702 1.912ZM201.942 1.912L202.813 2.40304L203.653 0.911999H201.942V1.912ZM188.558 25.656L187.686 25.165L187.558 25.3936V25.656H188.558ZM188.558 41V42H189.558V41H188.558ZM180.99 41V40.0445H178.99V41H180.99ZM180.99 38.1335V36.2225H178.99V38.1335H180.99ZM180.99 34.3115V32.4005H178.99V34.3115H180.99ZM180.99 30.4895V28.5785H178.99V30.4895H180.99ZM180.99 26.6675V25.712H178.99V26.6675H180.99ZM180.861 25.2218L180.383 24.3718L178.64 25.3522L179.118 26.2022L180.861 25.2218ZM179.427 22.6718L178.471 20.9718L176.728 21.9522L177.684 23.6522L179.427 22.6718ZM177.515 19.2718L176.559 17.5718L174.816 18.5522L175.772 20.2522L177.515 19.2718ZM175.603 15.8718L174.647 14.1718L172.904 15.1522L173.86 16.8522L175.603 15.8718ZM173.691 12.4718L172.735 10.7718L170.992 11.7522L171.948 13.4522L173.691 12.4718ZM171.779 9.07184L170.823 7.37184L169.08 8.35216L170.036 10.0522L171.779 9.07184ZM169.867 5.67183L168.911 3.97183L167.168 4.95216L168.124 6.65216L169.867 5.67183ZM167.955 2.27183L167.477 1.42184L165.734 2.40216L166.212 3.25216L167.955 2.27183ZM166.606 2.912H167.796V0.911999H166.606V2.912ZM170.176 2.912H172.556V0.911999H170.176V2.912ZM174.936 2.912H176.126V0.911999H174.936V2.912ZM175.245 2.38685L175.77 3.35985L177.531 2.41014L177.006 1.43714L175.245 2.38685ZM176.82 5.30585L177.87 7.25185L179.631 6.30214L178.581 4.35614L176.82 5.30585ZM178.92 9.19785L179.97 11.1439L181.731 10.1941L180.681 8.24814L178.92 9.19785ZM181.02 13.0899L182.071 15.0359L183.831 14.0861L182.781 12.1401L181.02 13.0899ZM183.121 16.9819L183.645 17.9549L185.406 17.0051L184.881 16.0321L183.121 16.9819ZM184.526 18.48H184.554V16.48H184.526V18.48ZM184.61 18.48H184.638V16.48H184.61V18.48ZM185.526 17.9399L186.03 16.9669L184.254 16.0471L183.75 17.0201L185.526 17.9399ZM187.038 15.0209L188.046 13.0749L186.27 12.1551L185.262 14.1011L187.038 15.0209ZM189.054 11.1289L190.062 9.18294L188.286 8.26305L187.278 10.2091L189.054 11.1289ZM191.07 7.23694L192.078 5.29094L190.302 4.37106L189.294 6.31705L191.07 7.23694ZM193.086 3.34494L193.59 2.37194L191.814 1.45206L191.31 2.42506L193.086 3.34494ZM192.702 2.912H193.857V0.911999H192.702V2.912ZM196.167 2.912H198.477V0.911999H196.167V2.912ZM200.787 2.912H201.942V0.911999H200.787V2.912ZM201.07 1.42096L200.592 2.26896L202.335 3.25104L202.813 2.40304L201.07 1.42096ZM199.636 3.96496L198.68 5.66096L200.423 6.64304L201.379 4.94704L199.636 3.96496ZM197.724 7.35696L196.768 9.05296L198.511 10.035L199.467 8.33904L197.724 7.35696ZM195.812 10.749L194.856 12.445L196.599 13.427L197.555 11.731L195.812 10.749ZM193.9 14.141L192.944 15.837L194.687 16.819L195.643 15.123L193.9 14.141ZM191.988 17.533L191.032 19.229L192.775 20.211L193.731 18.515L191.988 17.533ZM190.076 20.925L189.12 22.621L190.863 23.603L191.819 21.907L190.076 20.925ZM188.164 24.317L187.686 25.165L189.429 26.147L189.907 25.299L188.164 24.317ZM187.558 25.656V26.615H189.558V25.656H187.558ZM187.558 28.533V30.451H189.558V28.533H187.558ZM187.558 32.369V34.287H189.558V32.369H187.558ZM187.558 36.205V38.123H189.558V36.205H187.558ZM187.558 40.041V41H189.558V40.041H187.558ZM188.558 40H187.487V42H188.558V40ZM185.345 40H183.203V42H185.345V40ZM181.061 40H179.99V42H181.061V40Z" fill="#DADADA"></path> </svg> 