<?xml version="1.0" encoding="UTF-8"?> <svg xmlns="http://www.w3.org/2000/svg" width="169" height="43" viewBox="0 0 169 43" fill="none"> <path d="M8.232 39.936L8.00838 40.3832L8.01404 40.386L8.232 39.936ZM2.128 35.344L1.77269 34.9922L1.44059 35.3276L1.75635 35.6785L2.128 35.344ZM7.728 29.688L8.10196 29.3561L7.74794 28.9572L7.37269 29.3362L7.728 29.688ZM22.176 32.88L22.5002 33.2606L22.5002 33.2606L22.176 32.88ZM22.792 26.776L22.4014 27.0884L22.4095 27.0981L22.792 26.776ZM19.152 25.264L19.2227 24.769L19.2167 24.7682L19.152 25.264ZM15.288 24.76L15.3527 24.2642L15.3506 24.2639L15.288 24.76ZM6.16 21.008L5.7997 21.3547L5.8031 21.3582L6.16 21.008ZM4.312 8.296L3.85802 8.08647L3.85802 8.08647L4.312 8.296ZM7.168 4.544L6.85011 4.15799L6.84451 4.16274L7.168 4.544ZM11.76 2.136L11.9091 2.61328L11.9152 2.6113L11.76 2.136ZM25.76 2.64L25.9523 2.17846L25.9523 2.17846L25.76 2.64ZM31.528 6.728L31.8833 7.0798L32.2147 6.74515L31.9004 6.39437L31.528 6.728ZM25.872 12.44L25.4933 12.7665L25.8466 13.1763L26.2273 12.7918L25.872 12.44ZM22.456 9.808L22.2175 10.2474L22.2249 10.2514L22.2324 10.2552L22.456 9.808ZM13.216 9.752L13.5082 10.1578L13.5082 10.1578L13.216 9.752ZM12.88 15.464L12.5578 15.8466L12.5677 15.8544L12.88 15.464ZM16.464 16.752L16.5427 16.2582L16.5426 16.2582L16.464 16.752ZM20.328 17.368L20.2493 17.8618L20.2503 17.8619L20.328 17.368ZM29.288 21.12L28.9414 21.4804L28.9451 21.4839L29.288 21.12ZM31.192 34.112L30.7324 33.915L31.192 34.112ZM28.224 38.144L27.8986 37.7643L27.8932 37.7691L28.224 38.144ZM23.464 40.776L23.6137 41.2531L23.6221 41.2503L23.464 40.776ZM16.968 41.172C16.5935 41.172 16.2256 41.165 15.8644 41.151L15.8258 42.1503C16.2003 42.1648 16.5811 42.172 16.968 42.172V41.172ZM13.6724 40.9706C12.921 40.8733 12.2035 40.7409 11.5195 40.5738L11.2822 41.5452C12.0045 41.7217 12.7585 41.8606 13.5439 41.9623L13.6724 40.9706ZM9.44319 39.9204C9.10187 39.7862 8.77082 39.6414 8.44996 39.486L8.01404 40.386C8.35846 40.5528 8.71294 40.7078 9.07742 40.8511L9.44319 39.9204ZM8.45561 39.4888C8.17333 39.3476 7.89625 39.2018 7.62435 39.0512L7.13988 39.926C7.42423 40.0835 7.71374 40.2359 8.00839 40.3832L8.45561 39.4888ZM6.02519 38.071C5.50312 37.7176 5.00325 37.3437 4.52548 36.9494L3.88893 37.7206C4.3915 38.1354 4.91676 38.5282 5.4646 38.8991L6.02519 38.071ZM3.14256 35.6892C2.92264 35.4679 2.70834 35.2414 2.49965 35.0095L1.75635 35.6785C1.97611 35.9227 2.20178 36.1612 2.43336 36.3942L3.14256 35.6892ZM2.48331 35.6958L3.18331 34.9888L2.47269 34.2852L1.77269 34.9922L2.48331 35.6958ZM4.58331 33.5748L5.98331 32.1608L5.27269 31.4572L3.87269 32.8712L4.58331 33.5748ZM7.38331 30.7468L8.08331 30.0398L7.37269 29.3362L6.67269 30.0432L7.38331 30.7468ZM7.35404 30.0199C7.56842 30.2614 7.78697 30.4938 8.00971 30.7169L8.71744 30.0105C8.50887 29.8015 8.30371 29.5834 8.10196 29.3561L7.35404 30.0199ZM9.44922 31.9852C9.96591 32.3824 10.5018 32.7361 11.0567 33.0459L11.5441 32.1727C11.033 31.8874 10.5378 31.5608 10.0587 31.1924L9.44922 31.9852ZM12.809 33.8543C13.4089 34.0767 14.0271 34.2534 14.6633 34.3845L14.8651 33.4051C14.2776 33.284 13.7082 33.1211 13.1565 32.9167L12.809 33.8543ZM16.5692 34.6379C16.885 34.658 17.2046 34.668 17.528 34.668V33.668C17.2253 33.668 16.9269 33.6586 16.6327 33.6399L16.5692 34.6379ZM17.528 34.668C17.975 34.668 18.4006 34.649 18.8045 34.6105L18.7097 33.615C18.3406 33.6502 17.9468 33.668 17.528 33.668V34.668ZM21.3435 33.9858C21.7756 33.7893 22.1625 33.5483 22.5002 33.2606L21.8518 32.4994C21.5918 32.7209 21.2856 32.9136 20.9297 33.0754L21.3435 33.9858ZM22.5002 33.2606C22.7793 33.0229 23.026 32.7635 23.2386 32.4821L22.4408 31.8792C22.2744 32.0993 22.0786 32.3061 21.8518 32.4994L22.5002 33.2606ZM24.0947 30.5164C24.1574 30.1792 24.188 29.8281 24.188 29.464H23.188C23.188 29.772 23.1621 30.0617 23.1116 30.3338L24.0947 30.5164ZM24.188 29.464C24.188 29.1922 24.1707 28.9287 24.1353 28.6737L23.1448 28.8111C23.1734 29.0173 23.188 29.2347 23.188 29.464H24.188ZM23.6389 27.1325C23.5073 26.8914 23.3523 26.6651 23.1745 26.4539L22.4095 27.0981C22.5448 27.2586 22.6619 27.4298 22.7612 27.6118L23.6389 27.1325ZM23.1824 26.4637C22.9462 26.1683 22.6416 25.9162 22.2815 25.702L21.7702 26.5614C22.048 26.7266 22.2541 26.9041 22.4016 27.0883L23.1824 26.4637ZM20.2516 24.9545C19.9302 24.8828 19.5871 24.8211 19.2227 24.769L19.0813 25.759C19.4233 25.8078 19.7407 25.8651 20.0339 25.9305L20.2516 24.9545ZM19.2167 24.7682L18.2507 24.6422L18.1213 25.6338L19.0873 25.7598L19.2167 24.7682ZM16.3187 24.3902L15.3527 24.2642L15.2233 25.2558L16.1893 25.3818L16.3187 24.3902ZM15.3506 24.2639C15.0735 24.229 14.8016 24.1907 14.535 24.1493L14.3812 25.1374C14.6577 25.1804 14.9391 25.22 15.2254 25.2561L15.3506 24.2639ZM12.9221 23.8442C12.3694 23.7195 11.8437 23.5784 11.3447 23.4211L11.044 24.3748C11.5715 24.5411 12.1243 24.6894 12.7021 24.8197L12.9221 23.8442ZM9.82455 22.8561C9.31127 22.6328 8.83425 22.3881 8.39289 22.1223L7.87707 22.979C8.35877 23.2691 8.87515 23.5336 9.42563 23.7731L9.82455 22.8561ZM7.09681 21.1967C6.89278 21.0236 6.69951 20.8439 6.5169 20.6578L5.8031 21.3582C6.00748 21.5665 6.22309 21.7668 6.44982 21.9592L7.09681 21.1967ZM6.52029 20.6613C6.28224 20.4139 6.06012 20.1561 5.85383 19.8877L5.06101 20.4972C5.29009 20.7952 5.53636 21.081 5.79971 21.3547L6.52029 20.6613ZM4.801 18.1429C4.52262 17.539 4.30184 16.8926 4.13952 16.2025L3.16609 16.4315C3.34288 17.1831 3.58486 17.8934 3.89286 18.5615L4.801 18.1429ZM3.8385 14.1548C3.81553 13.8158 3.804 13.4682 3.804 13.112H2.804C2.804 13.4898 2.81623 13.86 2.84079 14.2224L3.8385 14.1548ZM3.804 13.112C3.804 12.706 3.82267 12.3093 3.85983 11.9216L2.8644 11.8262C2.82408 12.2467 2.804 12.6753 2.804 13.112H3.804ZM4.33539 9.60454C4.45778 9.22862 4.60131 8.86232 4.76598 8.50553L3.85802 8.08647C3.67682 8.47906 3.51899 8.88193 3.38451 9.29495L4.33539 9.60454ZM4.76598 8.50553C4.92606 8.1587 5.10256 7.82448 5.29544 7.50276L4.43777 6.98855C4.22614 7.34155 4.0329 7.70756 3.85802 8.08647L4.76598 8.50553ZM6.66573 5.70381C6.9242 5.4326 7.19941 5.17308 7.49149 4.92525L6.84451 4.16274C6.52606 4.43295 6.22512 4.71666 5.94183 5.0139L6.66573 5.70381ZM7.48585 4.92996C7.80376 4.66816 8.13922 4.42192 8.4924 4.19131L7.94566 3.354C7.5623 3.60433 7.19708 3.87232 6.85015 4.15803L7.48585 4.92996ZM10.7192 3.03785C11.1009 2.88345 11.4975 2.74188 11.9091 2.61324L11.6109 1.65876C11.1744 1.79516 10.7521 1.94581 10.3442 2.11082L10.7192 3.03785ZM11.9152 2.6113C12.1545 2.53318 12.3982 2.46025 12.6466 2.39255L12.3836 1.42776C12.1196 1.49971 11.86 1.57735 11.6048 1.6607L11.9152 2.6113ZM14.1407 2.05812C14.6327 1.97048 15.1402 1.90084 15.6636 1.84933L15.5656 0.85414C15.0176 0.908077 14.4841 0.981193 13.9653 1.07362L14.1407 2.05812ZM17.2029 1.7516C17.4573 1.74387 17.715 1.74 17.976 1.74V0.739998C17.7051 0.739998 17.4372 0.744015 17.1725 0.75206L17.2029 1.7516ZM17.976 1.74C18.3063 1.74 18.6318 1.74596 18.9525 1.75786L18.9896 0.758545C18.6562 0.746174 18.3183 0.739998 17.976 0.739998V1.74ZM20.8942 1.90931C21.5547 1.98957 22.1923 2.09824 22.8069 2.23512L23.0243 1.25903C22.376 1.11468 21.7062 1.00061 21.0149 0.916613L20.8942 1.90931ZM24.6669 2.75899C24.9738 2.86498 25.274 2.97916 25.5677 3.10154L25.9523 2.17846C25.6391 2.04797 25.3195 1.92642 24.9934 1.81379L24.6669 2.75899ZM25.5677 3.10153C25.8355 3.21311 26.0985 3.33095 26.3566 3.45504L26.7898 2.55375C26.5155 2.42188 26.2363 2.29679 25.9523 2.17846L25.5677 3.10153ZM27.8687 4.28733C28.3574 4.59315 28.8265 4.9253 29.2761 5.28382L29.8996 4.50197C29.4202 4.11969 28.92 3.76556 28.3991 3.43962L27.8687 4.28733ZM30.5619 6.43404C30.7645 6.63673 30.9623 6.84592 31.1556 7.06162L31.9004 6.39437C31.6952 6.16527 31.4848 5.94288 31.2693 5.72721L30.5619 6.43404ZM31.1727 6.37619L30.4657 7.09019L31.1763 7.7938L31.8833 7.0798L31.1727 6.37619ZM29.0517 8.51819L27.6377 9.94619L28.3483 10.6498L29.7623 9.2218L29.0517 8.51819ZM26.2237 11.3742L25.5167 12.0882L26.2273 12.7918L26.9343 12.0778L26.2237 11.3742ZM26.2507 12.1135C26.0028 11.826 25.741 11.5522 25.4654 11.2922L24.7793 12.0197C25.0298 12.256 25.2678 12.5049 25.4933 12.7665L26.2507 12.1135ZM23.6671 9.91193C23.3502 9.71516 23.021 9.53147 22.6796 9.36078L22.2324 10.2552C22.5471 10.4125 22.8494 10.5813 23.1396 10.7615L23.6671 9.91193ZM22.6945 9.36857C22.3026 9.1558 21.8833 8.97407 21.4374 8.82269L21.1159 9.76961C21.5117 9.904 21.8786 10.0635 22.2175 10.2474L22.6945 9.36857ZM18.7999 8.29784C18.3736 8.26185 17.9309 8.244 17.472 8.244V9.244C17.905 9.244 18.3196 9.26085 18.7158 9.29429L18.7999 8.29784ZM17.472 8.244C17.0698 8.244 16.6864 8.25854 16.3221 8.28797L16.4026 9.28472C16.7373 9.25769 17.0937 9.244 17.472 9.244V8.244ZM14.0164 8.76786C13.611 8.92284 13.2455 9.11467 12.9238 9.34623L13.5082 10.1578C13.7506 9.98324 14.0376 9.83033 14.3735 9.70192L14.0164 8.76786ZM12.9238 9.34623C12.6656 9.53215 12.4354 9.73865 12.2353 9.96647L12.9867 10.6264C13.1332 10.4595 13.3064 10.3031 13.5082 10.1578L12.9238 9.34623ZM11.4062 11.6398C11.3455 11.9315 11.316 12.2359 11.316 12.552H12.316C12.316 12.2981 12.3397 12.0623 12.3852 11.8435L11.4062 11.6398ZM11.316 12.552C11.316 12.8532 11.3327 13.1406 11.367 13.4134L12.3592 13.2886C12.3307 13.0618 12.316 12.8165 12.316 12.552H11.316ZM11.9348 15.1255C12.1064 15.4 12.3141 15.6411 12.5579 15.8465L13.2021 15.0815C13.0405 14.9455 12.9008 14.7843 12.7828 14.5955L11.9348 15.1255ZM12.5677 15.8544C12.8316 16.0656 13.137 16.2527 13.4794 16.4181L13.9144 15.5176C13.6273 15.379 13.3881 15.2301 13.1923 15.0736L12.5677 15.8544ZM15.4089 17.0598C15.7169 17.1293 16.0425 17.1912 16.3854 17.2458L16.5426 16.2582C16.2185 16.2067 15.914 16.1486 15.629 16.0843L15.4089 17.0598ZM16.3853 17.2458L17.3513 17.3998L17.5087 16.4122L16.5427 16.2582L16.3853 17.2458ZM19.2833 17.7078L20.2493 17.8618L20.4067 16.8742L19.4407 16.7202L19.2833 17.7078ZM20.2503 17.8619C20.6597 17.9264 21.0577 17.9972 21.4443 18.0743L21.64 17.0937C21.2394 17.0137 20.828 16.9405 20.4057 16.8741L20.2503 17.8619ZM23.7849 18.6611C24.5956 18.9116 25.3396 19.1978 26.018 19.5189L26.4458 18.615C25.7198 18.2714 24.9309 17.9686 24.0802 17.7057L23.7849 18.6611ZM28.0485 20.7251C28.3694 20.9647 28.6669 21.2165 28.9414 21.4804L29.6346 20.7596C29.3288 20.4656 28.9995 20.1871 28.6468 19.9238L28.0485 20.7251ZM28.9451 21.4839C29.1925 21.717 29.4229 21.9634 29.6365 22.2232L30.4089 21.588C30.1682 21.2953 29.9088 21.018 29.6309 20.7561L28.9451 21.4839ZM30.7138 23.9351C30.992 24.5277 31.2125 25.1717 31.3738 25.8686L32.348 25.6431C32.172 24.8829 31.9295 24.1714 31.6189 23.5101L30.7138 23.9351ZM31.6669 27.9164C31.6889 28.2546 31.7 28.6024 31.7 28.96H32.7C32.7 28.5818 32.6883 28.2123 32.6648 27.8514L31.6669 27.9164ZM31.7 28.96C31.7 29.3942 31.6812 29.8192 31.6438 30.2351L32.6398 30.3247C32.68 29.8779 32.7 29.423 32.7 28.96H31.7ZM31.1658 32.7259C31.0426 33.132 30.8982 33.5283 30.7324 33.915L31.6516 34.309C31.8319 33.8882 31.989 33.4572 32.1228 33.0161L31.1658 32.7259ZM30.7324 33.915C30.5723 34.2887 30.3935 34.6486 30.1962 34.9948L31.0649 35.49C31.2813 35.1105 31.4768 34.7167 31.6516 34.309L30.7324 33.915ZM28.7705 36.93C28.4988 37.2208 28.2083 37.4989 27.8986 37.7644L28.5494 38.5236C28.8865 38.2347 29.2039 37.931 29.5013 37.6125L28.7705 36.93ZM27.8932 37.7691C27.5714 38.053 27.2275 38.3212 26.8614 38.5736L27.4289 39.397C27.8268 39.1227 28.2022 38.8301 28.5548 38.5189L27.8932 37.7691ZM24.5486 39.8323C24.152 40.0012 23.7378 40.1577 23.3059 40.3017L23.6221 41.2503C24.0783 41.0983 24.5178 40.9323 24.9404 40.7523L24.5486 39.8323ZM23.3143 40.2989C23.0635 40.3776 22.8076 40.4511 22.5469 40.5192L22.7997 41.4867C23.0757 41.4146 23.3471 41.3367 23.6137 41.2531L23.3143 40.2989ZM20.9808 40.8547C20.4662 40.9422 19.9348 41.0118 19.3866 41.0632L19.4799 42.0588C20.0518 42.0052 20.6081 41.9325 21.1485 41.8405L20.9808 40.8547ZM17.7765 41.1605C17.5105 41.1682 17.241 41.172 16.968 41.172V42.172C17.2504 42.172 17.5295 42.168 17.8053 42.1601L17.7765 41.1605ZM8.232 39.936L7.78475 40.8305L7.79607 40.836L8.232 39.936ZM2.128 35.344L1.41738 34.6404L0.753179 35.3113L1.38471 36.013L2.128 35.344ZM7.728 29.688L8.47593 29.0242L7.76788 28.2264L7.01738 28.9844L7.728 29.688ZM22.176 32.88L22.8245 33.6412L22.8245 33.6412L22.176 32.88ZM22.792 26.776L22.0111 27.4007L22.019 27.4105L22.0271 27.4201L22.792 26.776ZM19.152 25.264L19.2934 24.274L19.2813 24.2724L19.152 25.264ZM15.288 24.76L15.4173 23.7684L15.4131 23.7679L15.288 24.76ZM6.16 21.008L5.43939 21.7014L5.44619 21.7083L6.16 21.008ZM4.312 8.296L3.40404 7.87694L3.40404 7.87694L4.312 8.296ZM7.168 4.544L6.53229 3.77207L6.52662 3.77674L6.52102 3.78149L7.168 4.544ZM11.76 2.136L12.0583 3.09056L12.0704 3.0866L11.76 2.136ZM25.76 2.64L26.1446 1.71692L26.1446 1.71692L25.76 2.64ZM31.528 6.728L32.2386 7.43161L32.9013 6.76231L32.2728 6.06075L31.528 6.728ZM25.872 12.44L25.1146 13.0929L25.8212 13.9126L26.5826 13.1436L25.872 12.44ZM22.456 9.808L21.9789 10.6869L21.9937 10.6949L22.0088 10.7024L22.456 9.808ZM13.216 9.752L13.8003 10.5635L13.8003 10.5635L13.216 9.752ZM12.88 15.464L12.2359 16.2289L12.2455 16.237L12.2553 16.2449L12.88 15.464ZM16.464 16.752L16.6214 15.7645L16.6211 15.7644L16.464 16.752ZM20.328 17.368L20.1706 18.3555L20.1725 18.3558L20.328 17.368ZM29.288 21.12L28.5949 21.8409L28.6022 21.8478L29.288 21.12ZM31.192 34.112L30.2729 33.7181L31.192 34.112ZM28.224 38.144L27.5732 37.3847L27.5678 37.3894L27.5624 37.3942L28.224 38.144ZM23.464 40.776L23.7633 41.7301L23.7718 41.7275L23.7802 41.7247L23.464 40.776ZM16.968 40.672C16.5997 40.672 16.2383 40.6651 15.8837 40.6514L15.8065 42.6499C16.1876 42.6647 16.5748 42.672 16.968 42.672V40.672ZM13.7366 40.4747C13.0023 40.3796 12.303 40.2505 11.6382 40.0881L11.1636 42.031C11.905 42.2121 12.6772 42.3543 13.4797 42.4582L13.7366 40.4747ZM9.62608 39.455C9.29633 39.3254 8.977 39.1857 8.66793 39.036L7.79607 40.836C8.15228 41.0085 8.51848 41.1686 8.89453 41.3164L9.62608 39.455ZM8.67921 39.0416C8.40312 38.9035 8.13226 38.7609 7.86659 38.6138L6.89764 40.3634C7.18822 40.5243 7.48395 40.68 7.78479 40.8304L8.67921 39.0416ZM6.30548 37.657C5.7963 37.3123 5.30912 36.9479 4.84375 36.5638L3.57066 38.1062C4.08563 38.5313 4.62358 38.9336 5.18431 39.3132L6.30548 37.657ZM3.49716 35.3367C3.28307 35.1213 3.07445 34.9008 2.87129 34.675L1.38471 36.013C1.60999 36.2633 1.84135 36.5079 2.07876 36.7467L3.49716 35.3367ZM2.83862 36.0476L3.53862 35.3406L2.11738 33.9334L1.41738 34.6404L2.83862 36.0476ZM4.93862 33.9266L6.33862 32.5126L4.91738 31.1054L3.51738 32.5194L4.93862 33.9266ZM7.73862 31.0986L8.43862 30.3916L7.01738 28.9844L6.31738 29.6914L7.73862 31.0986ZM6.98008 30.3518C7.20077 30.6005 7.42601 30.84 7.65584 31.0702L9.0713 29.6572C8.86983 29.4554 8.67136 29.2444 8.47593 29.0242L6.98008 30.3518ZM9.14449 32.3817C9.67996 32.7933 10.2361 33.1605 10.813 33.4825L11.7878 31.7361C11.2986 31.463 10.8238 31.1499 10.3634 30.796L9.14449 32.3817ZM12.6352 34.3232C13.2592 34.5545 13.9018 34.7381 14.5623 34.8742L14.9661 32.9154C14.4029 32.7993 13.8578 32.6434 13.3303 32.4478L12.6352 34.3232ZM16.5374 35.1369C16.8641 35.1577 17.1943 35.168 17.528 35.168V33.168C17.2356 33.168 16.9478 33.1589 16.6644 33.1409L16.5374 35.1369ZM17.528 35.168C17.989 35.168 18.4306 35.1484 18.8519 35.1083L18.6623 33.1173C18.3106 33.1508 17.9328 33.168 17.528 33.168V35.168ZM21.5503 34.441C22.0206 34.2272 22.4478 33.9621 22.8245 33.6412L21.5275 32.1188C21.3064 32.3071 21.0407 32.4757 20.7228 32.6202L21.5503 34.441ZM22.8245 33.6412C23.1297 33.3812 23.4017 33.0955 23.6375 32.7835L22.0418 31.5778C21.8987 31.7672 21.7283 31.9478 21.5275 32.1188L22.8245 33.6412ZM24.5863 30.6077C24.655 30.238 24.688 29.8562 24.688 29.464H22.688C22.688 29.7439 22.6644 30.0029 22.62 30.2425L24.5863 30.6077ZM24.688 29.464C24.688 29.171 24.6693 28.8844 24.6305 28.605L22.6495 28.8798C22.6747 29.0615 22.688 29.256 22.688 29.464H24.688ZM24.0777 26.8928C23.93 26.6222 23.7561 26.3684 23.5569 26.1319L22.0271 27.4201C22.141 27.5554 22.2392 27.6989 22.3224 27.8514L24.0777 26.8928ZM23.5729 26.1513C23.2922 25.8004 22.9384 25.511 22.5371 25.2723L21.5145 26.9911C21.7511 27.1318 21.9081 27.272 22.0111 27.4007L23.5729 26.1513ZM20.3605 24.4665C20.0249 24.3916 19.6689 24.3277 19.2934 24.274L19.0106 26.2539C19.3415 26.3012 19.646 26.3563 19.925 26.4185L20.3605 24.4665ZM19.2813 24.2724L18.3153 24.1464L18.0567 26.1296L19.0227 26.2556L19.2813 24.2724ZM16.3833 23.8944L15.4173 23.7684L15.1587 25.7516L16.1247 25.8776L16.3833 23.8944ZM15.4131 23.7679C15.1407 23.7335 14.8736 23.6959 14.6119 23.6552L14.3043 25.6314C14.5857 25.6752 14.8719 25.7154 15.1629 25.7521L15.4131 23.7679ZM13.0321 23.3565C12.492 23.2346 11.9798 23.0971 11.4951 22.9442L10.8936 24.8516C11.4354 25.0225 12.0017 25.1743 12.5921 25.3074L13.0321 23.3565ZM10.024 22.3976C9.52934 22.1824 9.07199 21.9476 8.6508 21.694L7.61916 23.4074C8.12102 23.7095 8.65708 23.984 9.22617 24.2316L10.024 22.3976ZM7.42031 20.8155C7.22762 20.652 7.04552 20.4827 6.87381 20.3077L5.44619 21.7083C5.66147 21.9278 5.88825 22.1384 6.12632 22.3405L7.42031 20.8155ZM6.88057 20.3146C6.65517 20.0804 6.44514 19.8365 6.25023 19.583L4.6646 20.8019C4.90507 21.1147 5.16343 21.4146 5.43943 21.7014L6.88057 20.3146ZM5.25507 17.9335C4.9915 17.3618 4.78132 16.7473 4.62624 16.088L2.67937 16.546C2.86341 17.3284 3.11598 18.0706 3.43879 18.7709L5.25507 17.9335ZM4.33736 14.121C4.31518 13.7938 4.304 13.4575 4.304 13.112H2.304C2.304 13.5006 2.31658 13.882 2.34193 14.2562L4.33736 14.121ZM4.304 13.112C4.304 12.7214 4.32196 12.3405 4.35755 11.9693L2.36668 11.7784C2.32478 12.2154 2.304 12.66 2.304 13.112H4.304ZM4.81082 9.75933C4.92717 9.40196 5.06355 9.05394 5.21996 8.71506L3.40404 7.87694C3.21458 8.28744 3.04959 8.70858 2.90908 9.14016L4.81082 9.75933ZM5.21996 8.71506C5.37263 8.38426 5.54077 8.06594 5.72427 7.75986L4.00894 6.73145C3.78793 7.10009 3.58632 7.482 3.40404 7.87694L5.21996 8.71506ZM7.02767 6.04877C7.27374 5.79058 7.53609 5.54314 7.81498 5.30651L6.52102 3.78149C6.18938 4.06288 5.87558 4.35868 5.57989 4.66894L7.02767 6.04877ZM7.80371 5.31593C8.1071 5.06608 8.42769 4.83072 8.76577 4.60996L7.67229 2.93535C7.27384 3.19553 6.89374 3.47441 6.53229 3.77207L7.80371 5.31593ZM10.9067 3.50136C11.2752 3.35228 11.659 3.21524 12.0583 3.09048L11.4617 1.18152C11.0128 1.3218 10.5778 1.47699 10.1567 1.6473L10.9067 3.50136ZM12.0704 3.0866C12.3017 3.01109 12.5375 2.94053 12.7781 2.87495L12.252 0.94537C11.9803 1.01944 11.7128 1.09944 11.4496 1.18539L12.0704 3.0866ZM14.2284 2.55037C14.7069 2.46512 15.2016 2.39722 15.7125 2.34693L15.5166 0.356544C14.9563 0.411697 14.4099 0.48655 13.8776 0.581373L14.2284 2.55037ZM17.2181 2.25137C17.4673 2.2438 17.7199 2.24 17.976 2.24V0.239998C17.7001 0.239998 17.4272 0.244088 17.1573 0.25229L17.2181 2.25137ZM17.976 2.24C18.3003 2.24 18.6196 2.24585 18.934 2.25751L19.0082 0.258888C18.6684 0.246282 18.3243 0.239998 17.976 0.239998V2.24ZM20.8339 2.40566C21.479 2.48404 22.1004 2.59003 22.6983 2.72317L23.133 0.770985C22.4679 0.622892 21.7819 0.506133 21.0752 0.420263L20.8339 2.40566ZM24.5037 3.2316C24.8009 3.33426 25.0914 3.44476 25.3754 3.56307L26.1446 1.71692C25.8217 1.58237 25.4923 1.45714 25.1567 1.34119L24.5037 3.2316ZM25.3754 3.56307C25.6351 3.67128 25.8899 3.78549 26.14 3.90569L27.0064 2.1031C26.724 1.96734 26.4367 1.83862 26.1446 1.71692L25.3754 3.56307ZM27.6035 4.71118C28.0761 5.00694 28.5297 5.3281 28.9644 5.67475L30.2113 4.11105C29.717 3.71689 29.2013 3.35177 28.6644 3.01577L27.6035 4.71118ZM30.2082 6.78745C30.4043 6.98366 30.5959 7.18624 30.7832 7.39525L32.2728 6.06075C32.0616 5.82495 31.845 5.59595 31.623 5.3738L30.2082 6.78745ZM30.8174 6.02438L30.1104 6.73838L31.5316 8.14561L32.2386 7.43161L30.8174 6.02438ZM28.6964 8.16638L27.2824 9.59438L28.7036 11.0016L30.1176 9.57361L28.6964 8.16638ZM25.8684 11.0224L25.1614 11.7364L26.5826 13.1436L27.2896 12.4296L25.8684 11.0224ZM26.6294 11.7871C26.3703 11.4865 26.0966 11.2003 25.8085 10.9285L24.4362 12.3834C24.6742 12.6079 24.9003 12.8444 25.1146 13.0929L26.6294 11.7871ZM23.9308 9.48715C23.6006 9.28208 23.2579 9.09093 22.9032 8.91357L22.0088 10.7024C22.3101 10.8531 22.5991 11.0144 22.8759 11.1863L23.9308 9.48715ZM22.9331 8.92914C22.5146 8.70196 22.0691 8.50911 21.5982 8.34924L20.9552 10.2431C21.326 10.369 21.6667 10.5173 21.9789 10.6869L22.9331 8.92914ZM18.8419 7.79961C18.4006 7.76236 17.9438 7.744 17.472 7.744V9.744C17.8921 9.744 18.2926 9.76035 18.6737 9.79252L18.8419 7.79961ZM17.472 7.744C17.0578 7.744 16.6609 7.75897 16.2818 7.7896L16.4429 9.7831C16.7628 9.75726 17.1056 9.744 17.472 9.744V7.744ZM13.8378 8.30083C13.3977 8.4691 12.9929 8.68039 12.6317 8.94046L13.8003 10.5635C14.0031 10.4175 14.251 10.2841 14.552 10.169L13.8378 8.30083ZM12.6317 8.94046C12.3453 9.1467 12.0865 9.37822 11.8597 9.63652L13.3624 10.9563C13.4822 10.8199 13.6267 10.6885 13.8003 10.5635L12.6317 8.94046ZM10.9166 11.5379C10.8484 11.8661 10.816 12.2048 10.816 12.552H12.816C12.816 12.3292 12.8368 12.1277 12.8747 11.9454L10.9166 11.5379ZM10.816 12.552C10.816 12.8716 10.8337 13.1799 10.871 13.4758L12.8553 13.2262C12.8297 13.0225 12.816 12.7982 12.816 12.552H10.816ZM11.5108 15.3905C11.7091 15.7078 11.9509 15.989 12.2359 16.2289L13.5241 14.6991C13.4037 14.5977 13.298 14.4765 13.2068 14.3305L11.5108 15.3905ZM12.2553 16.2449C12.5534 16.4834 12.8919 16.6896 13.2619 16.8683L14.1319 15.0674C13.8724 14.9421 13.6663 14.8124 13.5047 14.6831L12.2553 16.2449ZM15.2989 17.5475C15.6184 17.6196 15.9546 17.6835 16.3069 17.7396L16.6211 15.7644C16.3065 15.7144 16.0126 15.6583 15.739 15.5966L15.2989 17.5475ZM16.3066 17.7395L17.2726 17.8935L17.5874 15.9185L16.6214 15.7645L16.3066 17.7395ZM19.2046 18.2015L20.1706 18.3555L20.4854 16.3805L19.5194 16.2265L19.2046 18.2015ZM20.1725 18.3558C20.5755 18.4193 20.9668 18.4889 21.3464 18.5647L21.7379 16.6034C21.3303 16.522 20.9121 16.4476 20.4835 16.3802L20.1725 18.3558ZM23.6373 19.1388C24.4279 19.3831 25.1495 19.661 25.8041 19.9708L26.6597 18.1631C25.9099 17.8082 25.0985 17.497 24.2278 17.228L23.6373 19.1388ZM27.7494 21.1258C28.0544 21.3534 28.336 21.5919 28.5949 21.8408L29.9811 20.3992C29.6598 20.0902 29.3145 19.7983 28.9459 19.5231L27.7494 21.1258ZM28.6022 21.8478C28.8344 22.0665 29.0503 22.2975 29.2503 22.5407L30.7951 21.2705C30.5408 20.9613 30.267 20.6685 29.9738 20.3922L28.6022 21.8478ZM30.2612 24.1477C30.5233 24.7059 30.7327 25.3161 30.8866 25.9813L32.8351 25.5303C32.6518 24.7384 32.3982 23.9932 32.0715 23.2976L30.2612 24.1477ZM31.168 27.9489C31.1893 28.2757 31.2 28.6127 31.2 28.96H33.2C33.2 28.5715 33.188 28.1911 33.1637 27.8189L31.168 27.9489ZM31.2 28.96C31.2 29.3797 31.1818 29.7898 31.1458 30.1903L33.1378 30.3695C33.1793 29.9073 33.2 29.4374 33.2 28.96H31.2ZM30.6873 32.5807C30.5695 32.9693 30.4313 33.3484 30.2729 33.7181L32.1111 34.5059C32.2988 34.0681 32.4622 33.6198 32.6012 33.1613L30.6873 32.5807ZM30.2729 33.7181C30.12 34.0747 29.9496 34.4177 29.7618 34.7472L31.4993 35.7376C31.7252 35.3414 31.9291 34.9307 32.1111 34.5059L30.2729 33.7181ZM28.405 36.5887C28.1463 36.8657 27.8691 37.1311 27.5732 37.3847L28.8748 38.9033C29.2257 38.6025 29.5564 38.2861 29.8667 37.9538L28.405 36.5887ZM27.5624 37.3942C27.256 37.6645 26.9279 37.9205 26.5776 38.1619L27.7126 39.8087C28.1264 39.5235 28.5176 39.2186 28.8856 38.8938L27.5624 37.3942ZM24.3526 39.3723C23.9691 39.5356 23.5676 39.6874 23.1478 39.8273L23.7802 41.7247C24.2486 41.5686 24.7007 41.3979 25.1363 41.2123L24.3526 39.3723ZM23.1647 39.8219C22.9217 39.8981 22.6736 39.9693 22.4204 40.0355L22.9261 41.9705C23.2098 41.8964 23.4889 41.8163 23.7633 41.7301L23.1647 39.8219ZM20.8969 40.3618C20.3953 40.4471 19.8764 40.5151 19.3399 40.5654L19.5266 42.5566C20.1103 42.5019 20.679 42.4276 21.2324 42.3334L20.8969 40.3618ZM17.762 40.6607C17.501 40.6682 17.2363 40.672 16.968 40.672V42.672C17.2551 42.672 17.539 42.668 17.8198 42.6598L17.762 40.6607ZM47.8813 40.384L47.6942 40.8477L47.6942 40.8477L47.8813 40.384ZM42.4493 36.576L42.072 36.9041L42.0756 36.9082L42.4493 36.576ZM38.9773 30.248L38.5016 30.4019L38.5023 30.404L38.9773 30.248ZM38.9773 12.72L39.4524 12.876L39.453 12.8739L38.9773 12.72ZM42.4493 6.392L42.823 6.7242L42.8266 6.72009L42.4493 6.392ZM47.8813 2.528L47.6942 2.06432L47.6942 2.06432L47.8813 2.528ZM61.9933 2.528L61.8062 2.99167L61.8062 2.99167L61.9933 2.528ZM67.4253 6.392L67.048 6.72011L67.0516 6.72418L67.4253 6.392ZM70.8973 12.72L70.4216 12.8739L70.4223 12.876L70.8973 12.72ZM70.8973 30.248L71.3724 30.404L71.373 30.4019L70.8973 30.248ZM67.4253 36.576L67.799 36.9082L67.8026 36.9041L67.4253 36.576ZM61.9933 40.384L61.8062 39.9203L61.8062 39.9203L61.9933 40.384ZM60.9293 31.592L60.5514 31.2645L60.5473 31.2694L60.9293 31.592ZM60.9293 11.32L60.5473 11.6426L60.5515 11.6475L60.9293 11.32ZM48.8893 11.32L48.5114 10.9925L48.5073 10.9974L48.8893 11.32ZM48.8893 31.592L48.5073 31.9146L48.5115 31.9195L48.8893 31.592ZM54.9373 41.172C54.6401 41.172 54.3461 41.1662 54.0553 41.1545L54.0152 42.1537C54.3196 42.1659 54.627 42.172 54.9373 42.172V41.172ZM52.3014 41.0086C51.7108 40.9328 51.1347 40.8308 50.573 40.7027L50.3506 41.6776C50.9447 41.8131 51.5526 41.9207 52.1742 42.0004L52.3014 41.0086ZM48.8883 40.2253C48.6112 40.1307 48.3379 40.0291 48.0684 39.9203L47.6942 40.8477C47.9807 40.9633 48.271 41.0713 48.5652 41.1717L48.8883 40.2253ZM48.0684 39.9203C47.8162 39.8185 47.5687 39.7109 47.326 39.5973L46.9022 40.5031C47.1615 40.6244 47.4255 40.7392 47.6942 40.8477L48.0684 39.9203ZM45.9033 38.8313C45.443 38.5482 45.0022 38.24 44.581 37.9067L43.9605 38.6908C44.4127 39.0487 44.8858 39.3795 45.3795 39.6831L45.9033 38.8313ZM43.3768 36.8323C43.1876 36.6424 43.0029 36.4462 42.823 36.2438L42.0756 36.9082C42.2681 37.1247 42.4657 37.3347 42.6686 37.5382L43.3768 36.8323ZM42.8266 36.2479C42.6354 36.0281 42.4499 35.8015 42.2699 35.5681L41.478 36.1788C41.6698 36.4275 41.8678 36.6693 42.072 36.9041L42.8266 36.2479ZM41.2753 34.116C40.9757 33.6228 40.6962 33.1049 40.4368 32.562L39.5345 32.9931C39.8077 33.5649 40.103 34.1123 40.4206 34.6351L41.2753 34.116ZM39.7461 30.9304C39.6438 30.6564 39.5459 30.3769 39.4524 30.092L38.5023 30.404C38.5999 30.7012 38.7022 30.9933 38.8092 31.2801L39.7461 30.9304ZM39.453 30.0941C39.3429 29.7537 39.2402 29.4058 39.1451 29.0503L38.1791 29.3089C38.2786 29.6805 38.3861 30.0448 38.5016 30.4019L39.453 30.0941ZM38.6798 26.9181C38.5594 26.2196 38.4639 25.4961 38.3934 24.7474L37.3978 24.8411C37.4705 25.6138 37.5693 26.3628 37.6943 27.088L38.6798 26.9181ZM38.2609 22.556C38.2505 22.1945 38.2453 21.8278 38.2453 21.456H37.2453C37.2453 21.8371 37.2507 22.2134 37.2613 22.5847L38.2609 22.556ZM38.2453 21.456C38.2453 21.0862 38.2505 20.7218 38.2607 20.3628L37.2612 20.3341C37.2506 20.703 37.2453 21.077 37.2453 21.456H38.2453ZM38.3921 18.1851C38.4622 17.4399 38.5573 16.7211 38.6773 16.0284L37.6919 15.8578C37.5673 16.5775 37.4689 17.3221 37.3965 18.0914L38.3921 18.1851ZM39.1429 13.9113C39.2385 13.5582 39.3417 13.2131 39.4524 12.876L38.5023 12.564C38.3859 12.9184 38.2777 13.2804 38.1777 13.6501L39.1429 13.9113ZM39.453 12.8739C39.5455 12.5881 39.6423 12.308 39.7433 12.0338L38.8049 11.6881C38.6992 11.9752 38.5981 12.2679 38.5016 12.5661L39.453 12.8739ZM40.4278 10.3993C40.6863 9.85383 40.9649 9.33574 41.2634 8.8448L40.409 8.3253C40.0917 8.84709 39.7968 9.39572 39.5242 9.97098L40.4278 10.3993ZM42.2615 7.39782C42.443 7.16568 42.6302 6.94114 42.823 6.72418L42.0756 6.05982C41.8686 6.2927 41.668 6.53341 41.4737 6.78189L42.2615 7.39782ZM42.8266 6.72009C43.0055 6.51441 43.1889 6.31522 43.377 6.12251L42.6613 5.42411C42.4597 5.63067 42.2633 5.84394 42.072 6.06391L42.8266 6.72009ZM44.5764 5.03086C44.9973 4.69159 45.4377 4.37863 45.8977 4.09195L45.3687 3.24329C44.8746 3.55128 44.4013 3.88763 43.9489 4.25228L44.5764 5.03086ZM47.3232 3.31682C47.5668 3.20223 47.8152 3.09385 48.0684 2.99167L47.6942 2.06432C47.4239 2.17341 47.1583 2.28928 46.8976 2.41194L47.3232 3.31682ZM48.0684 2.99167C48.3379 2.88293 48.6112 2.78126 48.8883 2.68666L48.5652 1.7403C48.271 1.84073 47.9807 1.94873 47.6942 2.06432L48.0684 2.99167ZM50.573 2.20935C51.1347 2.0812 51.7108 1.97919 52.3014 1.90344L52.1742 0.911568C51.5526 0.991291 50.9447 1.09886 50.3506 1.2344L50.573 2.20935ZM54.0553 1.75751C54.3461 1.74584 54.6401 1.74 54.9373 1.74V0.739998C54.627 0.739998 54.3196 0.746098 54.0152 0.758313L54.0553 1.75751ZM54.9373 1.74C55.2345 1.74 55.5285 1.74584 55.8193 1.75751L55.8594 0.758313C55.555 0.746098 55.2477 0.739998 54.9373 0.739998V1.74ZM57.5732 1.90344C58.1638 1.97919 58.7399 2.0812 59.3016 2.20935L59.524 1.2344C58.93 1.09886 58.3221 0.99129 57.7005 0.911568L57.5732 1.90344ZM60.9864 2.68666C61.2634 2.78126 61.5367 2.88293 61.8062 2.99167L62.1804 2.06432C61.8939 1.94873 61.6036 1.84073 61.3095 1.7403L60.9864 2.68666ZM61.8062 2.99167C62.0594 3.09385 62.3078 3.20223 62.5514 3.31682L62.9771 2.41194C62.7163 2.28928 62.4508 2.17341 62.1804 2.06432L61.8062 2.99167ZM63.9769 4.09195C64.4369 4.37863 64.8773 4.69159 65.2982 5.03086L65.9258 4.25228C65.4733 3.88762 65 3.55128 64.5059 3.24329L63.9769 4.09195ZM66.4977 6.12251C66.6857 6.31522 66.8692 6.51441 67.048 6.72009L67.8026 6.06391C67.6113 5.84394 67.4149 5.63067 67.2134 5.42411L66.4977 6.12251ZM67.0516 6.72418C67.2445 6.94114 67.4316 7.16568 67.6131 7.39782L68.4009 6.78189C68.2067 6.53341 68.006 6.2927 67.799 6.05982L67.0516 6.72418ZM68.6112 8.8448C68.9097 9.33574 69.1883 9.85383 69.4468 10.3993L70.3505 9.97098C70.0778 9.39572 69.7829 8.84709 69.4657 8.3253L68.6112 8.8448ZM70.1313 12.0338C70.2324 12.308 70.3291 12.5881 70.4216 12.8739L71.373 12.5661C71.2766 12.2679 71.1755 11.9752 71.0697 11.6881L70.1313 12.0338ZM70.4223 12.876C70.533 13.2131 70.6361 13.5582 70.7317 13.9113L71.697 13.6501C71.5969 13.2804 71.4887 12.9184 71.3724 12.564L70.4223 12.876ZM71.1974 16.0284C71.3173 16.7211 71.4124 17.4399 71.4825 18.1851L72.4781 18.0914C72.4057 17.3221 72.3073 16.5775 72.1827 15.8578L71.1974 16.0284ZM71.6139 20.3628C71.6242 20.7218 71.6293 21.0862 71.6293 21.456H72.6293C72.6293 21.077 72.624 20.703 72.6135 20.3341L71.6139 20.3628ZM71.6293 21.456C71.6293 21.8278 71.6241 22.1945 71.6137 22.556L72.6133 22.5847C72.624 22.2134 72.6293 21.8371 72.6293 21.456H71.6293ZM71.4812 24.7474C71.4108 25.4961 71.3153 26.2196 71.1949 26.9181L72.1803 27.088C72.3053 26.3628 72.4041 25.6138 72.4768 24.8411L71.4812 24.7474ZM70.7296 29.0503C70.6344 29.4058 70.5317 29.7537 70.4216 30.0941L71.373 30.4019C71.4886 30.0448 71.5961 29.6805 71.6955 29.3089L70.7296 29.0503ZM70.4223 30.092C70.3287 30.3769 70.2308 30.6564 70.1285 30.9304L71.0654 31.2801C71.1724 30.9933 71.2748 30.7012 71.3724 30.404L70.4223 30.092ZM69.4378 32.562C69.1784 33.1049 68.8989 33.6228 68.5993 34.116L69.454 34.6351C69.7716 34.1123 70.0669 33.5649 70.3401 32.9931L69.4378 32.562ZM67.6047 35.5681C67.4248 35.8015 67.2392 36.0281 67.048 36.2479L67.8026 36.9041C68.0068 36.6693 68.2048 36.4275 68.3966 36.1788L67.6047 35.5681ZM67.0516 36.2438C66.8717 36.4462 66.6871 36.6424 66.4978 36.8323L67.206 37.5382C67.4089 37.3347 67.6066 37.1247 67.799 36.9082L67.0516 36.2438ZM65.2936 37.9067C64.8724 38.24 64.4317 38.5482 63.9713 38.8313L64.4951 39.6831C64.9889 39.3795 65.4619 39.0487 65.9141 38.6908L65.2936 37.9067ZM62.5487 39.5973C62.3059 39.7109 62.0585 39.8185 61.8062 39.9203L62.1804 40.8477C62.4491 40.7392 62.7132 40.6244 62.9724 40.5031L62.5487 39.5973ZM61.8062 39.9203C61.5367 40.0291 61.2634 40.1307 60.9864 40.2253L61.3095 41.1717C61.6036 41.0713 61.8939 40.9633 62.1804 40.8477L61.8062 39.9203ZM59.3016 40.7027C58.7399 40.8308 58.1638 40.9328 57.5732 41.0086L57.7005 42.0004C58.3221 41.9207 58.93 41.8131 59.524 41.6776L59.3016 40.7027ZM55.8193 41.1545C55.5285 41.1662 55.2345 41.172 54.9373 41.172V42.172C55.2477 42.172 55.555 42.1659 55.8594 42.1537L55.8193 41.1545ZM54.9373 33.612C54.6605 33.612 54.3913 33.6019 54.1297 33.5817L54.053 34.5788C54.3413 34.601 54.6361 34.612 54.9373 34.612V33.612ZM52.5556 33.3171C52.0305 33.1747 51.5431 32.9813 51.0921 32.7377L50.6169 33.6176C51.1389 33.8995 51.6983 34.1207 52.2939 34.2822L52.5556 33.3171ZM49.8165 31.8297C49.6252 31.6547 49.4421 31.4664 49.2672 31.2645L48.5115 31.9195C48.7111 32.1498 48.9211 32.3659 49.1415 32.5675L49.8165 31.8297ZM49.2713 31.2694C49.0809 31.0439 48.9039 30.8039 48.7402 30.549L47.8988 31.0894C48.0854 31.3801 48.2883 31.6552 48.5073 31.9146L49.2713 31.2694ZM47.9496 28.9262C47.7539 28.3822 47.599 27.791 47.4861 27.1514L46.5013 27.3252C46.6231 28.015 46.7918 28.6618 47.0087 29.2647L47.9496 28.9262ZM47.284 25.3042C47.2689 25.0005 47.2613 24.6884 47.2613 24.368H46.2613C46.2613 24.7042 46.2693 25.0329 46.2853 25.3539L47.284 25.3042ZM47.2613 24.368V22.912H46.2613V24.368H47.2613ZM47.2613 20V18.544H46.2613V20H47.2613ZM47.2613 18.544C47.2613 18.2236 47.2689 17.9115 47.284 17.6078L46.2853 17.5581C46.2693 17.8791 46.2613 18.2078 46.2613 18.544H47.2613ZM47.4861 15.7606C47.599 15.121 47.7539 14.5298 47.9496 13.9858L47.0087 13.6473C46.7918 14.2502 46.6231 14.897 46.5013 15.5868L47.4861 15.7606ZM48.7402 12.363C48.9039 12.1081 49.0809 11.8681 49.2713 11.6426L48.5073 10.9974C48.2883 11.2568 48.0854 11.5319 47.8988 11.8226L48.7402 12.363ZM49.2672 11.6475C49.4421 11.4456 49.6252 11.2573 49.8165 11.0823L49.1415 10.3445C48.9211 10.5461 48.7111 10.7622 48.5115 10.9925L49.2672 11.6475ZM51.0921 10.1743C51.5431 9.93071 52.0305 9.7373 52.5556 9.59494L52.2939 8.62979C51.6983 8.79126 51.1389 9.01252 50.6169 9.29442L51.0921 10.1743ZM54.1297 9.33025C54.3913 9.31013 54.6605 9.3 54.9373 9.3V8.3C54.6361 8.3 54.3413 8.31102 54.053 8.33319L54.1297 9.33025ZM54.9373 9.3C55.2125 9.3 55.4798 9.31 55.7393 9.32987L55.8156 8.33279C55.5295 8.31088 55.2367 8.3 54.9373 8.3V9.3ZM57.3018 9.59214C57.8238 9.73376 58.3067 9.92635 58.7518 10.1689L59.2303 9.29077C58.7129 9.00891 58.1569 8.78799 57.5636 8.62703L57.3018 9.59214ZM60.0095 11.0766C60.1972 11.2517 60.3765 11.4403 60.5473 11.6426L61.3113 10.9974C61.1156 10.7656 60.9091 10.5482 60.6916 10.3454L60.0095 11.0766ZM60.5515 11.6475C60.7458 11.8716 60.9265 12.1102 61.0935 12.3632L61.928 11.8122C61.7374 11.5235 61.5305 11.2502 61.3072 10.9925L60.5515 11.6475ZM61.9042 13.9806C62.1056 14.5245 62.2652 15.1157 62.3815 15.7554L63.3654 15.5764C63.2397 14.8853 63.0656 14.2371 62.8419 13.6332L61.9042 13.9806ZM62.5899 17.6057C62.6055 17.91 62.6133 18.2228 62.6133 18.544H63.6133C63.6133 18.2066 63.6051 17.8767 63.5886 17.5545L62.5899 17.6057ZM62.6133 18.544V20H63.6133V18.544H62.6133ZM62.6133 22.912V24.368H63.6133V22.912H62.6133ZM62.6133 24.368C62.6133 24.6892 62.6055 25.002 62.5899 25.3063L63.5886 25.3575C63.6051 25.0353 63.6133 24.7054 63.6133 24.368H62.6133ZM62.3815 27.1566C62.2652 27.7963 62.1056 28.3875 61.9042 28.9314L62.8419 29.2787C63.0656 28.6748 63.2397 28.0267 63.3654 27.3356L62.3815 27.1566ZM61.0935 30.5488C60.9265 30.8018 60.7458 31.0404 60.5515 31.2645L61.3072 31.9195C61.5305 31.6618 61.7374 31.3885 61.928 31.0998L61.0935 30.5488ZM60.5473 31.2694C60.3765 31.4717 60.1972 31.6603 60.0095 31.8354L60.6916 32.5666C60.9091 32.3638 61.1156 32.1464 61.3113 31.9146L60.5473 31.2694ZM58.7518 32.7431C58.3067 32.9856 57.8238 33.1782 57.3018 33.3199L57.5636 34.285C58.1569 34.124 58.7129 33.9031 59.2303 33.6212L58.7518 32.7431ZM55.7393 33.5821C55.4798 33.602 55.2125 33.612 54.9373 33.612V34.612C55.2367 34.612 55.5295 34.6011 55.8156 34.5792L55.7393 33.5821ZM47.8813 40.384L47.5071 41.3114L47.5071 41.3114L47.8813 40.384ZM42.4493 36.576L41.6947 37.2322L41.7019 37.2404L42.4493 36.576ZM38.9773 30.248L38.0259 30.5558L38.0272 30.56L38.9773 30.248ZM38.9773 12.72L39.9274 13.032L39.9288 13.0278L38.9773 12.72ZM42.4493 6.392L43.1968 7.0564L43.2039 7.04818L42.4493 6.392ZM47.8813 2.528L47.5071 1.60065L47.5071 1.60065L47.8813 2.528ZM61.9933 2.528L61.6191 3.45535L61.6191 3.45535L61.9933 2.528ZM67.4253 6.392L66.6707 7.04822L66.6779 7.05636L67.4253 6.392ZM70.8973 12.72L69.9459 13.0278L69.9472 13.032L70.8973 12.72ZM70.8973 30.248L71.8474 30.56L71.8488 30.5558L70.8973 30.248ZM67.4253 36.576L68.1728 37.2404L68.1799 37.2322L67.4253 36.576ZM61.9933 40.384L61.6191 39.4566L61.6191 39.4566L61.9933 40.384ZM60.9293 31.592L60.1736 30.937L60.1653 30.9468L60.9293 31.592ZM60.9293 11.32L60.1652 11.9652L60.1736 11.9749L60.9293 11.32ZM48.8893 11.32L48.1336 10.665L48.1253 10.6748L48.8893 11.32ZM48.8893 31.592L48.1252 32.2372L48.1336 32.2469L48.8893 31.592ZM54.9373 40.672C54.6466 40.672 54.3593 40.6663 54.0754 40.6549L53.9952 42.6533C54.3064 42.6658 54.6204 42.672 54.9373 42.672V40.672ZM52.365 40.5126C51.7899 40.4389 51.2297 40.3396 50.6843 40.2152L50.2394 42.1651C50.8497 42.3043 51.4735 42.4147 52.1106 42.4964L52.365 40.5126ZM49.0498 39.7522C48.7813 39.6605 48.5165 39.562 48.2555 39.4566L47.5071 41.3114C47.8021 41.4304 48.1009 41.5415 48.4036 41.6449L49.0498 39.7522ZM48.2555 39.4566C48.0115 39.3582 47.7723 39.2541 47.5379 39.1444L46.6903 40.956C46.9579 41.0811 47.2301 41.1996 47.5071 41.3114L48.2555 39.4566ZM46.1653 38.4054C45.7216 38.1325 45.297 37.8356 44.8913 37.5146L43.6502 39.0829C44.118 39.4531 44.6072 39.7951 45.1176 40.109L46.1653 38.4054ZM43.731 36.4793C43.5485 36.2962 43.3704 36.107 43.1967 35.9116L41.7019 37.2404C41.9006 37.4639 42.1048 37.6809 42.3145 37.8912L43.731 36.4793ZM43.2039 35.9198C43.0192 35.7075 42.8399 35.4884 42.6658 35.2627L41.0821 36.4841C41.2798 36.7405 41.484 36.9899 41.6947 37.2322L43.2039 35.9198ZM41.7026 33.8564C41.412 33.378 41.1404 32.8748 40.888 32.3465L39.0834 33.2086C39.3635 33.795 39.6667 34.3571 39.9933 34.8947L41.7026 33.8564ZM40.2146 30.7556C40.1146 30.4879 40.0189 30.2147 39.9274 29.936L38.0272 30.56C38.1269 30.8634 38.2314 31.1617 38.3408 31.4549L40.2146 30.7556ZM39.9288 29.9402C39.8213 29.6081 39.7211 29.2684 39.6281 28.921L37.6961 29.4382C37.7977 29.8178 37.9076 30.1904 38.0259 30.5558L39.9288 29.9402ZM39.1725 26.8332C39.0544 26.148 38.9605 25.4372 38.8912 24.7006L36.9 24.888C36.9739 25.6727 37.0743 26.4344 37.2016 27.1729L39.1725 26.8332ZM38.7607 22.5416C38.7505 22.185 38.7453 21.8232 38.7453 21.456H36.7453C36.7453 21.8418 36.7507 22.2229 36.7615 22.5991L38.7607 22.5416ZM38.7453 21.456C38.7453 21.0909 38.7504 20.7313 38.7605 20.3771L36.7614 20.3198C36.7507 20.6936 36.7453 21.0723 36.7453 21.456H38.7453ZM38.8899 18.2319C38.9589 17.4989 39.0523 16.7929 39.1699 16.1137L37.1993 15.7725C37.0723 16.5057 36.9722 17.2631 36.8987 18.0446L38.8899 18.2319ZM39.6255 14.042C39.7189 13.6971 39.8195 13.3605 39.9274 13.032L38.0272 12.408C37.908 12.771 37.7973 13.1415 37.695 13.5194L39.6255 14.042ZM39.9288 13.0278C40.0192 12.7481 40.1138 12.4744 40.2125 12.2066L38.3357 11.5153C38.2276 11.8088 38.1243 12.1078 38.0259 12.4122L39.9288 13.0278ZM40.8796 10.6135C41.1311 10.0829 41.4016 9.58007 41.6907 9.10456L39.9817 8.06554C39.6551 8.60276 39.3521 9.16667 39.0724 9.75682L40.8796 10.6135ZM42.6554 7.70579C42.8305 7.48181 43.0109 7.26536 43.1967 7.05636L41.7019 5.72763C41.4878 5.96849 41.2804 6.21727 41.0798 6.47393L42.6554 7.70579ZM43.2039 7.04818C43.3766 6.84964 43.5535 6.6575 43.7348 6.47172L42.3034 5.07491C42.0951 5.28839 41.8922 5.50871 41.6947 5.73582L43.2039 7.04818ZM44.8902 5.42015C45.2954 5.09357 45.7193 4.79231 46.1622 4.51627L45.1043 2.81897C44.593 3.1376 44.1033 3.48564 43.6351 3.86299L44.8902 5.42015ZM47.536 3.76926C47.7711 3.65871 48.0109 3.55406 48.2555 3.45535L47.5071 1.60065C47.2282 1.71319 46.9541 1.8328 46.6847 1.9595L47.536 3.76926ZM48.2555 3.45535C48.5165 3.35003 48.7813 3.25153 49.0498 3.15984L48.4036 1.26711C48.1009 1.37046 47.8021 1.48163 47.5071 1.60065L48.2555 3.45535ZM50.6843 2.69682C51.2297 2.57237 51.7899 2.47314 52.365 2.39938L52.1106 0.41563C51.4735 0.497341 50.8497 0.607689 50.2394 0.746927L50.6843 2.69682ZM54.0754 2.25711C54.3593 2.24571 54.6466 2.24 54.9373 2.24V0.239998C54.6204 0.239998 54.3064 0.246226 53.9952 0.258715L54.0754 2.25711ZM54.9373 2.24C55.228 2.24 55.5153 2.24571 55.7992 2.25711L55.8794 0.258715C55.5682 0.246226 55.2542 0.239998 54.9373 0.239998V2.24ZM57.5096 2.39938C58.0847 2.47314 58.6449 2.57237 59.1904 2.69682L59.6352 0.746927C59.025 0.607689 58.4012 0.497341 57.7641 0.41563L57.5096 2.39938ZM60.8248 3.15984C61.0934 3.25153 61.3581 3.35003 61.6191 3.45535L62.3675 1.60065C62.0726 1.48163 61.7737 1.37046 61.471 1.26711L60.8248 3.15984ZM61.6191 3.45535C61.8638 3.55406 62.1036 3.65871 62.3386 3.76926L63.1899 1.9595C62.9206 1.8328 62.6464 1.71319 62.3675 1.60065L61.6191 3.45535ZM63.7125 4.51627C64.1553 4.79231 64.5793 5.09357 64.9844 5.42015L66.2395 3.86299C65.7714 3.48564 65.2816 3.1376 64.7704 2.81897L63.7125 4.51627ZM66.1398 6.47172C66.3211 6.6575 66.4981 6.84964 66.6707 7.04818L68.1799 5.73582C67.9824 5.50871 67.7795 5.28839 67.5712 5.07491L66.1398 6.47172ZM66.6779 7.05636C66.8637 7.26536 67.0441 7.48181 67.2192 7.70579L68.7948 6.47393C68.5942 6.21727 68.3868 5.96849 68.1727 5.72763L66.6779 7.05636ZM68.184 9.10456C68.4731 9.58007 68.7435 10.0829 68.995 10.6135L70.8023 9.75682C70.5225 9.16667 70.2195 8.60276 69.8929 8.06554L68.184 9.10456ZM69.6622 12.2066C69.7608 12.4744 69.8554 12.7481 69.9459 13.0278L71.8488 12.4122C71.7503 12.1078 71.647 11.8088 71.5389 11.5153L69.6622 12.2066ZM69.9472 13.032C70.0551 13.3605 70.1557 13.6971 70.2491 14.042L72.1796 13.5194C72.0773 13.1415 71.9666 12.771 71.8474 12.408L69.9472 13.032ZM70.7047 16.1137C70.8223 16.7929 70.9157 17.4989 70.9847 18.2319L72.9759 18.0446C72.9024 17.2631 72.8023 16.5057 72.6754 15.7725L70.7047 16.1137ZM71.1141 20.3771C71.1242 20.7313 71.1293 21.0909 71.1293 21.456H73.1293C73.1293 21.0723 73.124 20.6936 73.1133 20.3198L71.1141 20.3771ZM71.1293 21.456C71.1293 21.8232 71.1242 22.185 71.1139 22.5416L73.1131 22.5991C73.1239 22.2229 73.1293 21.8418 73.1293 21.456H71.1293ZM70.9834 24.7006C70.9141 25.4372 70.8202 26.148 70.7021 26.8332L72.6731 27.1729C72.8004 26.4344 72.9008 25.6727 72.9746 24.888L70.9834 24.7006ZM70.2466 28.921C70.1535 29.2684 70.0533 29.6081 69.9459 29.9402L71.8488 30.5558C71.967 30.1904 72.0769 29.8178 72.1785 29.4382L70.2466 28.921ZM69.9472 29.936C69.8557 30.2147 69.76 30.4879 69.6601 30.7556L71.5338 31.4549C71.6433 31.1617 71.7478 30.8634 71.8474 30.56L69.9472 29.936ZM68.9866 32.3465C68.7342 32.8748 68.4626 33.378 68.172 33.8564L69.8814 34.8947C70.2079 34.3571 70.5112 33.7949 70.7913 33.2086L68.9866 32.3465ZM67.2088 35.2628C67.0347 35.4884 66.8554 35.7075 66.6707 35.9198L68.1799 37.2322C68.3906 36.9899 68.5948 36.7405 68.7926 36.4841L67.2088 35.2628ZM66.6779 35.9116C66.5042 36.107 66.3262 36.2962 66.1437 36.4793L67.5602 37.8912C67.7698 37.6809 67.974 37.4639 68.1727 37.2404L66.6779 35.9116ZM64.9833 37.5146C64.5777 37.8356 64.1531 38.1325 63.7094 38.4054L64.7571 40.109C65.2675 39.7951 65.7567 39.4531 66.2244 39.0829L64.9833 37.5146ZM62.3368 39.1444C62.1023 39.2541 61.8631 39.3582 61.6191 39.4566L62.3675 41.3114C62.6445 41.1996 62.9168 41.0811 63.1843 40.956L62.3368 39.1444ZM61.6191 39.4566C61.3581 39.562 61.0934 39.6605 60.8248 39.7522L61.471 41.6449C61.7737 41.5415 62.0726 41.4304 62.3675 41.3114L61.6191 39.4566ZM59.1904 40.2152C58.6449 40.3396 58.0847 40.4389 57.5096 40.5126L57.7641 42.4964C58.4012 42.4147 59.025 42.3043 59.6352 42.1651L59.1904 40.2152ZM55.7992 40.6549C55.5153 40.6663 55.228 40.672 54.9373 40.672V42.672C55.2542 42.672 55.5682 42.6658 55.8794 42.6533L55.7992 40.6549ZM54.9373 33.112C54.6727 33.112 54.4163 33.1023 54.1681 33.0832L54.0147 35.0773C54.3163 35.1005 54.6239 35.112 54.9373 35.112V33.112ZM52.6864 32.8345C52.1966 32.7017 51.7452 32.5222 51.3298 32.2978L50.3793 34.0575C50.9367 34.3586 51.5322 34.5938 52.1631 34.7648L52.6864 32.8345ZM50.154 31.4608C49.9773 31.2992 49.8077 31.1247 49.645 30.9371L48.1336 32.2469C48.3455 32.4915 48.569 32.7214 48.804 32.9364L50.154 31.4608ZM49.6533 30.9468C49.4773 30.7383 49.3131 30.5158 49.1609 30.2788L47.4781 31.3596C47.6762 31.6682 47.8919 31.9608 48.1253 32.2372L49.6533 30.9468ZM48.4201 28.7569C48.235 28.2424 48.0869 27.679 47.9784 27.0644L46.0089 27.4122C46.1351 28.127 46.3107 28.8016 46.5382 29.4339L48.4201 28.7569ZM47.7834 25.2793C47.7687 24.9843 47.7613 24.6806 47.7613 24.368H45.7613C45.7613 24.7121 45.7695 25.049 45.7859 25.3788L47.7834 25.2793ZM47.7613 24.368V22.912H45.7613V24.368H47.7613ZM47.7613 20V18.544H45.7613V20H47.7613ZM47.7613 18.544C47.7613 18.2314 47.7687 17.9277 47.7834 17.6327L45.7859 17.5332C45.7695 17.863 45.7613 18.1999 45.7613 18.544H47.7613ZM47.9784 15.8476C48.0869 15.233 48.235 14.6696 48.4201 14.1551L46.5382 13.4781C46.3107 14.1104 46.1351 14.785 46.0089 15.4998L47.9784 15.8476ZM49.1609 12.6332C49.3131 12.3962 49.4773 12.1737 49.6533 11.9652L48.1253 10.6748C47.8919 10.9512 47.6762 11.2438 47.4781 11.5524L49.1609 12.6332ZM49.645 11.9749C49.8077 11.7873 49.9773 11.6128 50.154 11.4512L48.804 9.97559C48.569 10.1906 48.3455 10.4205 48.1336 10.6651L49.645 11.9749ZM51.3298 10.6142C51.7452 10.3898 52.1966 10.2103 52.6864 10.0775L52.1631 8.14721C51.5322 8.31824 50.9367 8.55342 50.3793 8.85449L51.3298 10.6142ZM54.1681 9.82878C54.4163 9.80968 54.6727 9.8 54.9373 9.8V7.8C54.6239 7.8 54.3163 7.81146 54.0147 7.83467L54.1681 9.82878ZM54.9373 9.8C55.2003 9.8 55.4549 9.80956 55.7011 9.82841L55.8538 7.83425C55.5543 7.81132 55.2488 7.8 54.9373 7.8V9.8ZM57.1709 10.0747C57.6572 10.2067 58.1035 10.3851 58.5126 10.608L59.4695 8.85171C58.9161 8.55019 58.3235 8.3151 57.6946 8.14447L57.1709 10.0747ZM59.6684 11.4422C59.8413 11.6035 60.0069 11.7777 60.1653 11.9652L61.6933 10.6748C61.4852 10.4283 61.265 10.1965 61.0327 9.97979L59.6684 11.4422ZM60.1736 11.9749C60.3534 12.1824 60.521 12.4035 60.6763 12.6387L62.3453 11.5366C62.1429 11.2301 61.9228 10.9395 61.685 10.6651L60.1736 11.9749ZM61.4353 14.1543C61.6256 14.6681 61.7779 15.2309 61.8896 15.8448L63.8573 15.487C63.7269 14.7701 63.5456 14.0935 63.3108 13.4596L61.4353 14.1543ZM62.0905 17.6313C62.1057 17.9267 62.1133 18.2309 62.1133 18.544H64.1133C64.1133 18.1984 64.1049 17.86 64.0879 17.5289L62.0905 17.6313ZM62.1133 18.544V20H64.1133V18.544H62.1133ZM62.1133 22.912V24.368H64.1133V22.912H62.1133ZM62.1133 24.368C62.1133 24.6811 62.1057 24.9853 62.0905 25.2807L64.0879 25.3831C64.1049 25.052 64.1133 24.7136 64.1133 24.368H62.1133ZM61.8896 27.0672C61.7779 27.6811 61.6256 28.2439 61.4353 28.7577L63.3108 29.4524C63.5456 28.8185 63.7269 28.1419 63.8573 27.425L61.8896 27.0672ZM60.6763 30.2733C60.521 30.5085 60.3534 30.7296 60.1736 30.9371L61.685 32.2469C61.9228 31.9725 62.1429 31.6819 62.3453 31.3753L60.6763 30.2733ZM60.1653 30.9468C60.0069 31.1343 59.8413 31.3085 59.6684 31.4698L61.0327 32.9322C61.265 32.7155 61.4852 32.4837 61.6933 32.2372L60.1653 30.9468ZM58.5126 32.304C58.1035 32.5269 57.6572 32.7053 57.1709 32.8373L57.6946 34.7675C58.3235 34.5969 58.9161 34.3618 59.4695 34.0603L58.5126 32.304ZM55.7011 33.0836C55.4549 33.1024 55.2003 33.112 54.9373 33.112V35.112C55.2488 35.112 55.5543 35.1007 55.8538 35.0777L55.7011 33.0836ZM79.2339 41H78.7339V41.5H79.2339V41ZM79.2339 1.912V1.412H78.7339V1.912H79.2339ZM87.7459 1.912H88.2459V1.412H87.7459V1.912ZM87.7459 33.44H87.2459V33.94H87.7459V33.44ZM102.642 33.44H103.142V32.94H102.642V33.44ZM102.642 41V41.5H103.142V41H102.642ZM79.7339 41V40.0228H78.7339V41H79.7339ZM79.7339 38.0684V36.114H78.7339V38.0684H79.7339ZM79.7339 34.1596V32.2052H78.7339V34.1596H79.7339ZM79.7339 30.2508V28.2964H78.7339V30.2508H79.7339ZM79.7339 26.342V24.3876H78.7339V26.342H79.7339ZM79.7339 22.4332V20.4788H78.7339V22.4332H79.7339ZM79.7339 18.5244V16.57H78.7339V18.5244H79.7339ZM79.7339 14.6156V12.6612H78.7339V14.6156H79.7339ZM79.7339 10.7068V8.75241H78.7339V10.7068H79.7339ZM79.7339 6.79801V4.84361H78.7339V6.79801H79.7339ZM79.7339 2.88921V1.912H78.7339V2.88921H79.7339ZM79.2339 2.412H80.2979V1.412H79.2339V2.412ZM82.4259 2.412H84.5539V1.412H82.4259V2.412ZM86.6819 2.412H87.7459V1.412H86.6819V2.412ZM87.2459 1.912V2.89725H88.2459V1.912H87.2459ZM87.2459 4.86775V6.83825H88.2459V4.86775H87.2459ZM87.2459 8.80875V10.7793H88.2459V8.80875H87.2459ZM87.2459 12.7498V14.7203H88.2459V12.7498H87.2459ZM87.2459 16.6908V18.6612H88.2459V16.6908H87.2459ZM87.2459 20.6317V22.6022H88.2459V20.6317H87.2459ZM87.2459 24.5728V26.5433H88.2459V24.5728H87.2459ZM87.2459 28.5138V30.4843H88.2459V28.5138H87.2459ZM87.2459 32.4548V33.44H88.2459V32.4548H87.2459ZM87.7459 33.94H88.6769V32.94H87.7459V33.94ZM90.5389 33.94H92.4009V32.94H90.5389V33.94ZM94.2629 33.94H96.1249V32.94H94.2629V33.94ZM97.9869 33.94H99.8489V32.94H97.9869V33.94ZM101.711 33.94H102.642V32.94H101.711V33.94ZM102.142 33.44V34.385H103.142V33.44H102.142ZM102.142 36.275V38.165H103.142V36.275H102.142ZM102.142 40.055V41H103.142V40.055H102.142ZM102.642 40.5H101.667V41.5H102.642V40.5ZM99.7159 40.5H97.7652V41.5H99.7159V40.5ZM95.8145 40.5H93.8639V41.5H95.8145V40.5ZM91.9132 40.5H89.9625V41.5H91.9132V40.5ZM88.0119 40.5H86.0612V41.5H88.0119V40.5ZM84.1105 40.5H82.1599V41.5H84.1105V40.5ZM80.2092 40.5H79.2339V41.5H80.2092V40.5ZM79.2339 41H78.2339V42H79.2339V41ZM79.2339 1.912V0.911999H78.2339V1.912H79.2339ZM87.7459 1.912H88.7459V0.911999H87.7459V1.912ZM87.7459 33.44H86.7459V34.44H87.7459V33.44ZM102.642 33.44H103.642V32.44H102.642V33.44ZM102.642 41V42H103.642V41H102.642ZM80.2339 41V40.0228H78.2339V41H80.2339ZM80.2339 38.0684V36.114H78.2339V38.0684H80.2339ZM80.2339 34.1596V32.2052H78.2339V34.1596H80.2339ZM80.2339 30.2508V28.2964H78.2339V30.2508H80.2339ZM80.2339 26.342V24.3876H78.2339V26.342H80.2339ZM80.2339 22.4332V20.4788H78.2339V22.4332H80.2339ZM80.2339 18.5244V16.57H78.2339V18.5244H80.2339ZM80.2339 14.6156V12.6612H78.2339V14.6156H80.2339ZM80.2339 10.7068V8.75241H78.2339V10.7068H80.2339ZM80.2339 6.79801V4.84361H78.2339V6.79801H80.2339ZM80.2339 2.88921V1.912H78.2339V2.88921H80.2339ZM79.2339 2.912H80.2979V0.911999H79.2339V2.912ZM82.4259 2.912H84.5539V0.911999H82.4259V2.912ZM86.6819 2.912H87.7459V0.911999H86.6819V2.912ZM86.7459 1.912V2.89725H88.7459V1.912H86.7459ZM86.7459 4.86775V6.83825H88.7459V4.86775H86.7459ZM86.7459 8.80875V10.7793H88.7459V8.80875H86.7459ZM86.7459 12.7498V14.7203H88.7459V12.7498H86.7459ZM86.7459 16.6908V18.6612H88.7459V16.6908H86.7459ZM86.7459 20.6317V22.6022H88.7459V20.6317H86.7459ZM86.7459 24.5728V26.5433H88.7459V24.5728H86.7459ZM86.7459 28.5138V30.4843H88.7459V28.5138H86.7459ZM86.7459 32.4548V33.44H88.7459V32.4548H86.7459ZM87.7459 34.44H88.6769V32.44H87.7459V34.44ZM90.5389 34.44H92.4009V32.44H90.5389V34.44ZM94.2629 34.44H96.1249V32.44H94.2629V34.44ZM97.9869 34.44H99.8489V32.44H97.9869V34.44ZM101.711 34.44H102.642V32.44H101.711V34.44ZM101.642 33.44V34.385H103.642V33.44H101.642ZM101.642 36.275V38.165H103.642V36.275H101.642ZM101.642 40.055V41H103.642V40.055H101.642ZM102.642 40H101.667V42H102.642V40ZM99.7159 40H97.7652V42H99.7159V40ZM95.8145 40H93.8639V42H95.8145V40ZM91.9132 40H89.9625V42H91.9132V40ZM88.0119 40H86.0612V42H88.0119V40ZM84.1105 40H82.1599V42H84.1105V40ZM80.2092 40H79.2339V42H80.2092V40ZM113.954 41L113.478 41.1534L113.59 41.5H113.954V41ZM101.354 1.912V1.412H100.668L100.878 2.0654L101.354 1.912ZM109.978 1.912L110.456 1.76375L110.347 1.412H109.978V1.912ZM115.802 20.672L116.287 20.5502L116.284 20.5369L116.28 20.5238L115.802 20.672ZM118.882 32.936L118.397 33.0578L118.492 33.436H118.882V32.936ZM119.05 32.936V33.436H119.444L119.536 33.0536L119.05 32.936ZM122.018 20.672L121.541 20.5238L121.536 20.5389L121.532 20.5544L122.018 20.672ZM127.842 1.912V1.412H127.474L127.365 1.76375L127.842 1.912ZM136.186 1.912L136.662 2.06663L136.875 1.412H136.186V1.912ZM123.474 41V41.5H123.837L123.95 41.1546L123.474 41ZM114.43 40.8466L114.115 39.8694L113.163 40.1762L113.478 41.1534L114.43 40.8466ZM113.485 37.915L112.855 35.9606L111.903 36.2674L112.533 38.2218L113.485 37.915ZM112.225 34.0062L111.595 32.0518L110.643 32.3586L111.273 34.313L112.225 34.0062ZM110.965 30.0974L110.335 28.143L109.383 28.4498L110.013 30.4042L110.965 30.0974ZM109.705 26.1886L109.075 24.2342L108.123 24.541L108.753 26.4954L109.705 26.1886ZM108.445 22.2798L107.815 20.3254L106.863 20.6322L107.493 22.5866L108.445 22.2798ZM107.185 18.371L106.555 16.4166L105.603 16.7234L106.233 18.6778L107.185 18.371ZM105.925 14.4622L105.295 12.5078L104.343 12.8146L104.973 14.769L105.925 14.4622ZM104.665 10.5534L104.035 8.599L103.083 8.90581L103.713 10.8602L104.665 10.5534ZM103.405 6.6446L102.775 4.6902L101.823 4.99701L102.453 6.95141L103.405 6.6446ZM102.145 2.7358L101.83 1.7586L100.878 2.0654L101.193 3.0426L102.145 2.7358ZM101.354 2.412H102.432V1.412H101.354V2.412ZM104.588 2.412H106.744V1.412H104.588V2.412ZM108.9 2.412H109.978V1.412H108.9V2.412ZM109.501 2.06024L109.792 2.99824L110.747 2.70175L110.456 1.76375L109.501 2.06024ZM110.374 4.87424L110.957 6.75024L111.912 6.45376L111.329 4.57775L110.374 4.87424ZM111.539 8.62624L112.122 10.5022L113.077 10.2058L112.494 8.32976L111.539 8.62624ZM112.704 12.3782L113.286 14.2542L114.241 13.9578L113.659 12.0818L112.704 12.3782ZM113.869 16.1302L114.451 18.0062L115.406 17.7098L114.824 15.8338L113.869 16.1302ZM115.034 19.8822L115.325 20.8202L116.28 20.5238L115.989 19.5858L115.034 19.8822ZM115.317 20.7938L115.574 21.8158L116.544 21.5722L116.287 20.5502L115.317 20.7938ZM116.087 23.8598L116.601 25.9038L117.571 25.6602L117.057 23.6162L116.087 23.8598ZM117.114 27.9478L117.627 29.9918L118.597 29.7482L118.084 27.7042L117.114 27.9478ZM118.141 32.0358L118.397 33.0578L119.367 32.8142L119.111 31.7922L118.141 32.0358ZM118.882 33.436H118.924V32.436H118.882V33.436ZM119.008 33.436H119.05V32.436H119.008V33.436ZM119.536 33.0536L119.784 32.0316L118.812 31.7964L118.564 32.8184L119.536 33.0536ZM120.278 29.9876L120.773 27.9436L119.801 27.7084L119.306 29.7524L120.278 29.9876ZM121.268 25.8996L121.762 23.8556L120.79 23.6204L120.296 25.6644L121.268 25.8996ZM122.257 21.8116L122.504 20.7896L121.532 20.5544L121.285 21.5764L122.257 21.8116ZM122.496 20.8202L122.787 19.8822L121.832 19.5858L121.541 20.5238L122.496 20.8202ZM123.369 18.0062L123.952 16.1302L122.997 15.8338L122.414 17.7098L123.369 18.0062ZM124.534 14.2542L125.117 12.3782L124.162 12.0818L123.579 13.9578L124.534 14.2542ZM125.699 10.5022L126.281 8.62624L125.326 8.32976L124.744 10.2058L125.699 10.5022ZM126.864 6.75024L127.446 4.87424L126.491 4.57776L125.909 6.45375L126.864 6.75024ZM128.029 2.99825L128.32 2.06024L127.365 1.76375L127.074 2.70176L128.029 2.99825ZM127.842 2.412H128.885V1.412H127.842V2.412ZM130.971 2.412H133.057V1.412H130.971V2.412ZM135.143 2.412H136.186V1.412H135.143V2.412ZM135.711 1.75736L135.393 2.73456L136.344 3.04383L136.662 2.06663L135.711 1.75736ZM134.757 4.68896L134.122 6.64336L135.073 6.95264L135.708 4.99823L134.757 4.68896ZM133.486 8.59776L132.851 10.5522L133.802 10.8614L134.437 8.90704L133.486 8.59776ZM132.215 12.5066L131.579 14.461L132.53 14.7702L133.166 12.8158L132.215 12.5066ZM130.944 16.4154L130.308 18.3698L131.259 18.679L131.895 16.7246L130.944 16.4154ZM129.673 20.3242L129.037 22.2786L129.988 22.5878L130.624 20.6334L129.673 20.3242ZM128.401 24.233L127.766 26.1874L128.717 26.4966L129.352 24.5422L128.401 24.233ZM127.13 28.1418L126.495 30.0962L127.446 30.4054L128.081 28.451L127.13 28.1418ZM125.859 32.0506L125.223 34.005L126.174 34.3142L126.81 32.3598L125.859 32.0506ZM124.588 35.9594L123.952 37.9138L124.903 38.223L125.539 36.2686L124.588 35.9594ZM123.317 39.8682L122.999 40.8454L123.95 41.1546L124.268 40.1774L123.317 39.8682ZM123.474 40.5H122.284V41.5H123.474V40.5ZM119.904 40.5H117.524V41.5H119.904V40.5ZM115.144 40.5H113.954V41.5H115.144V40.5ZM113.954 41L113.003 41.3068L113.226 42H113.954V41ZM101.354 1.912V0.911999H99.9813L100.403 2.2188L101.354 1.912ZM109.978 1.912L110.933 1.61551L110.715 0.911999H109.978V1.912ZM115.802 20.672L116.772 20.4284L116.765 20.4018L116.757 20.3755L115.802 20.672ZM118.882 32.936L117.912 33.1796L118.102 33.936H118.882V32.936ZM119.05 32.936V33.936H119.837L120.022 33.1712L119.05 32.936ZM122.018 20.672L121.063 20.3755L121.054 20.4059L121.046 20.4368L122.018 20.672ZM127.842 1.912V0.911999H127.106L126.887 1.61551L127.842 1.912ZM136.186 1.912L137.137 2.22127L137.563 0.911999H136.186V1.912ZM123.474 41V42H124.201L124.425 41.3093L123.474 41ZM114.906 40.6932L114.591 39.716L112.688 40.3296L113.003 41.3068L114.906 40.6932ZM113.961 37.7616L113.331 35.8072L111.428 36.4208L112.058 38.3752L113.961 37.7616ZM112.701 33.8528L112.071 31.8984L110.168 32.512L110.798 34.4664L112.701 33.8528ZM111.441 29.944L110.811 27.9896L108.908 28.6032L109.538 30.5576L111.441 29.944ZM110.181 26.0352L109.551 24.0808L107.648 24.6944L108.278 26.6488L110.181 26.0352ZM108.921 22.1264L108.291 20.172L106.388 20.7856L107.018 22.74L108.921 22.1264ZM107.661 18.2176L107.031 16.2632L105.128 16.8768L105.758 18.8312L107.661 18.2176ZM106.401 14.3088L105.771 12.3544L103.868 12.968L104.498 14.9224L106.401 14.3088ZM105.141 10.4L104.511 8.4456L102.608 9.05921L103.238 11.0136L105.141 10.4ZM103.881 6.4912L103.251 4.5368L101.348 5.15041L101.978 7.10481L103.881 6.4912ZM102.621 2.5824L102.306 1.6052L100.403 2.2188L100.718 3.196L102.621 2.5824ZM101.354 2.912H102.432V0.911999H101.354V2.912ZM104.588 2.912H106.744V0.911999H104.588V2.912ZM108.9 2.912H109.978V0.911999H108.9V2.912ZM109.023 2.20849L109.314 3.14649L111.225 2.55351L110.933 1.61551L109.023 2.20849ZM109.897 5.02249L110.479 6.89849L112.389 6.30551L111.807 4.42951L109.897 5.02249ZM111.062 8.77449L111.644 10.6505L113.554 10.0575L112.972 8.18151L111.062 8.77449ZM112.226 12.5265L112.809 14.4025L114.719 13.8095L114.137 11.9335L112.226 12.5265ZM113.391 16.2785L113.974 18.1545L115.884 17.5615L115.301 15.6855L113.391 16.2785ZM114.556 20.0305L114.847 20.9685L116.757 20.3755L116.466 19.4375L114.556 20.0305ZM114.832 20.9156L115.089 21.9376L117.029 21.4504L116.772 20.4284L114.832 20.9156ZM115.602 23.9816L116.116 26.0256L118.056 25.5384L117.542 23.4944L115.602 23.9816ZM116.629 28.0696L117.142 30.1136L119.082 29.6264L118.569 27.5824L116.629 28.0696ZM117.656 32.1576L117.912 33.1796L119.852 32.6924L119.596 31.6704L117.656 32.1576ZM118.882 33.936H118.924V31.936H118.882V33.936ZM119.008 33.936H119.05V31.936H119.008V33.936ZM120.022 33.1712L120.27 32.1492L118.326 31.6788L118.078 32.7008L120.022 33.1712ZM120.764 30.1052L121.259 28.0612L119.315 27.5908L118.82 29.6348L120.764 30.1052ZM121.754 26.0172L122.248 23.9732L120.304 23.5028L119.81 25.5468L121.754 26.0172ZM122.743 21.9292L122.99 20.9072L121.046 20.4368L120.799 21.4588L122.743 21.9292ZM122.973 20.9685L123.265 20.0305L121.354 19.4375L121.063 20.3755L122.973 20.9685ZM123.847 18.1545L124.429 16.2785L122.519 15.6855L121.937 17.5615L123.847 18.1545ZM125.012 14.4025L125.594 12.5265L123.684 11.9335L123.102 13.8095L125.012 14.4025ZM126.177 10.6505L126.759 8.77449L124.849 8.18151L124.266 10.0575L126.177 10.6505ZM127.341 6.89849L127.924 5.02249L126.014 4.42951L125.431 6.30551L127.341 6.89849ZM128.506 3.14649L128.797 2.20849L126.887 1.61551L126.596 2.55351L128.506 3.14649ZM127.842 2.912H128.885V0.911999H127.842V2.912ZM130.971 2.912H133.057V0.911999H130.971V2.912ZM135.143 2.912H136.186V0.911999H135.143V2.912ZM135.235 1.60273L134.918 2.57993L136.819 3.19847L137.137 2.22127L135.235 1.60273ZM134.282 4.53433L133.646 6.48873L135.548 7.10727L136.184 5.15287L134.282 4.53433ZM133.011 8.44313L132.375 10.3975L134.277 11.0161L134.913 9.06167L133.011 8.44313ZM131.74 12.3519L131.104 14.3063L133.006 14.9249L133.641 12.9705L131.74 12.3519ZM130.468 16.2607L129.833 18.2151L131.735 18.8337L132.37 16.8793L130.468 16.2607ZM129.197 20.1695L128.562 22.1239L130.463 22.7425L131.099 20.7881L129.197 20.1695ZM127.926 24.0783L127.29 26.0327L129.192 26.6513L129.828 24.6969L127.926 24.0783ZM126.655 27.9871L126.019 29.9415L127.921 30.5601L128.557 28.6057L126.655 27.9871ZM125.384 31.8959L124.748 33.8503L126.65 34.4689L127.285 32.5145L125.384 31.8959ZM124.112 35.8047L123.477 37.7591L125.379 38.3777L126.014 36.4233L124.112 35.8047ZM122.841 39.7135L122.523 40.6907L124.425 41.3093L124.743 40.3321L122.841 39.7135ZM123.474 40H122.284V42H123.474V40ZM119.904 40H117.524V42H119.904V40ZM115.144 40H113.954V42H115.144V40ZM141.304 41H140.804V41.5H141.304V41ZM141.304 1.912V1.412H140.804V1.912H141.304ZM167.904 1.912H168.404V1.412H167.904V1.912ZM167.904 9.472V9.972H168.404V9.472H167.904ZM149.816 9.472V8.972H149.316V9.472H149.816ZM149.816 17.48H149.316V17.98H149.816V17.48ZM165.328 17.48H165.828V16.98H165.328V17.48ZM165.328 24.984V25.484H165.828V24.984H165.328ZM149.816 24.984V24.484H149.316V24.984H149.816ZM149.816 33.44H149.316V33.94H149.816V33.44ZM167.904 33.44H168.404V32.94H167.904V33.44ZM167.904 41V41.5H168.404V41H167.904ZM141.804 41V40.0228H140.804V41H141.804ZM141.804 38.0684V36.114H140.804V38.0684H141.804ZM141.804 34.1596V32.2052H140.804V34.1596H141.804ZM141.804 30.2508V28.2964H140.804V30.2508H141.804ZM141.804 26.342V24.3876H140.804V26.342H141.804ZM141.804 22.4332V20.4788H140.804V22.4332H141.804ZM141.804 18.5244V16.57H140.804V18.5244H141.804ZM141.804 14.6156V12.6612H140.804V14.6156H141.804ZM141.804 10.7068V8.75241H140.804V10.7068H141.804ZM141.804 6.79801V4.84361H140.804V6.79801H141.804ZM141.804 2.88921V1.912H140.804V2.88921H141.804ZM141.304 2.412H142.254V1.412H141.304V2.412ZM144.154 2.412H146.054V1.412H144.154V2.412ZM147.954 2.412H149.854V1.412H147.954V2.412ZM151.754 2.412H153.654V1.412H151.754V2.412ZM155.554 2.412H157.454V1.412H155.554V2.412ZM159.354 2.412H161.254V1.412H159.354V2.412ZM163.154 2.412H165.054V1.412H163.154V2.412ZM166.954 2.412H167.904V1.412H166.954V2.412ZM167.404 1.912V2.857H168.404V1.912H167.404ZM167.404 4.747V6.637H168.404V4.747H167.404ZM167.404 8.527V9.472H168.404V8.527H167.404ZM167.904 8.972H167V9.972H167.904V8.972ZM165.191 8.972H163.382V9.972H165.191V8.972ZM161.573 8.972H159.765V9.972H161.573V8.972ZM157.956 8.972H156.147V9.972H157.956V8.972ZM154.338 8.972H152.529V9.972H154.338V8.972ZM150.721 8.972H149.816V9.972H150.721V8.972ZM149.316 9.472V10.473H150.316V9.472H149.316ZM149.316 12.475V14.477H150.316V12.475H149.316ZM149.316 16.479V17.48H150.316V16.479H149.316ZM149.816 17.98H150.786V16.98H149.816V17.98ZM152.725 17.98H154.664V16.98H152.725V17.98ZM156.603 17.98H158.542V16.98H156.603V17.98ZM160.481 17.98H162.42V16.98H160.481V17.98ZM164.359 17.98H165.328V16.98H164.359V17.98ZM164.828 17.48V18.418H165.828V17.48H164.828ZM164.828 20.294V22.17H165.828V20.294H164.828ZM164.828 24.046V24.984H165.828V24.046H164.828ZM165.328 24.484H164.359V25.484H165.328V24.484ZM162.42 24.484H160.481V25.484H162.42V24.484ZM158.542 24.484H156.603V25.484H158.542V24.484ZM154.664 24.484H152.725V25.484H154.664V24.484ZM150.786 24.484H149.816V25.484H150.786V24.484ZM149.316 24.984V26.041H150.316V24.984H149.316ZM149.316 28.155V30.269H150.316V28.155H149.316ZM149.316 32.383V33.44H150.316V32.383H149.316ZM149.816 33.94H150.721V32.94H149.816V33.94ZM152.529 33.94H154.338V32.94H152.529V33.94ZM156.147 33.94H157.956V32.94H156.147V33.94ZM159.765 33.94H161.573V32.94H159.765V33.94ZM163.382 33.94H165.191V32.94H163.382V33.94ZM167 33.94H167.904V32.94H167V33.94ZM167.404 33.44V34.385H168.404V33.44H167.404ZM167.404 36.275V38.165H168.404V36.275H167.404ZM167.404 40.055V41H168.404V40.055H167.404ZM167.904 40.5H166.954V41.5H167.904V40.5ZM165.054 40.5H163.154V41.5H165.054V40.5ZM161.254 40.5H159.354V41.5H161.254V40.5ZM157.454 40.5H155.554V41.5H157.454V40.5ZM153.654 40.5H151.754V41.5H153.654V40.5ZM149.854 40.5H147.954V41.5H149.854V40.5ZM146.054 40.5H144.154V41.5H146.054V40.5ZM142.254 40.5H141.304V41.5H142.254V40.5ZM141.304 41H140.304V42H141.304V41ZM141.304 1.912V0.911999H140.304V1.912H141.304ZM167.904 1.912H168.904V0.911999H167.904V1.912ZM167.904 9.472V10.472H168.904V9.472H167.904ZM149.816 9.472V8.472H148.816V9.472H149.816ZM149.816 17.48H148.816V18.48H149.816V17.48ZM165.328 17.48H166.328V16.48H165.328V17.48ZM165.328 24.984V25.984H166.328V24.984H165.328ZM149.816 24.984V23.984H148.816V24.984H149.816ZM149.816 33.44H148.816V34.44H149.816V33.44ZM167.904 33.44H168.904V32.44H167.904V33.44ZM167.904 41V42H168.904V41H167.904ZM142.304 41V40.0228H140.304V41H142.304ZM142.304 38.0684V36.114H140.304V38.0684H142.304ZM142.304 34.1596V32.2052H140.304V34.1596H142.304ZM142.304 30.2508V28.2964H140.304V30.2508H142.304ZM142.304 26.342V24.3876H140.304V26.342H142.304ZM142.304 22.4332V20.4788H140.304V22.4332H142.304ZM142.304 18.5244V16.57H140.304V18.5244H142.304ZM142.304 14.6156V12.6612H140.304V14.6156H142.304ZM142.304 10.7068V8.75241H140.304V10.7068H142.304ZM142.304 6.79801V4.84361H140.304V6.79801H142.304ZM142.304 2.88921V1.912H140.304V2.88921H142.304ZM141.304 2.912H142.254V0.911999H141.304V2.912ZM144.154 2.912H146.054V0.911999H144.154V2.912ZM147.954 2.912H149.854V0.911999H147.954V2.912ZM151.754 2.912H153.654V0.911999H151.754V2.912ZM155.554 2.912H157.454V0.911999H155.554V2.912ZM159.354 2.912H161.254V0.911999H159.354V2.912ZM163.154 2.912H165.054V0.911999H163.154V2.912ZM166.954 2.912H167.904V0.911999H166.954V2.912ZM166.904 1.912V2.857H168.904V1.912H166.904ZM166.904 4.747V6.637H168.904V4.747H166.904ZM166.904 8.527V9.472H168.904V8.527H166.904ZM167.904 8.472H167V10.472H167.904V8.472ZM165.191 8.472H163.382V10.472H165.191V8.472ZM161.573 8.472H159.765V10.472H161.573V8.472ZM157.956 8.472H156.147V10.472H157.956V8.472ZM154.338 8.472H152.529V10.472H154.338V8.472ZM150.721 8.472H149.816V10.472H150.721V8.472ZM148.816 9.472V10.473H150.816V9.472H148.816ZM148.816 12.475V14.477H150.816V12.475H148.816ZM148.816 16.479V17.48H150.816V16.479H148.816ZM149.816 18.48H150.786V16.48H149.816V18.48ZM152.725 18.48H154.664V16.48H152.725V18.48ZM156.603 18.48H158.542V16.48H156.603V18.48ZM160.481 18.48H162.42V16.48H160.481V18.48ZM164.359 18.48H165.328V16.48H164.359V18.48ZM164.328 17.48V18.418H166.328V17.48H164.328ZM164.328 20.294V22.17H166.328V20.294H164.328ZM164.328 24.046V24.984H166.328V24.046H164.328ZM165.328 23.984H164.359V25.984H165.328V23.984ZM162.42 23.984H160.481V25.984H162.42V23.984ZM158.542 23.984H156.603V25.984H158.542V23.984ZM154.664 23.984H152.725V25.984H154.664V23.984ZM150.786 23.984H149.816V25.984H150.786V23.984ZM148.816 24.984V26.041H150.816V24.984H148.816ZM148.816 28.155V30.269H150.816V28.155H148.816ZM148.816 32.383V33.44H150.816V32.383H148.816ZM149.816 34.44H150.721V32.44H149.816V34.44ZM152.529 34.44H154.338V32.44H152.529V34.44ZM156.147 34.44H157.956V32.44H156.147V34.44ZM159.765 34.44H161.573V32.44H159.765V34.44ZM163.382 34.44H165.191V32.44H163.382V34.44ZM167 34.44H167.904V32.44H167V34.44ZM166.904 33.44V34.385H168.904V33.44H166.904ZM166.904 36.275V38.165H168.904V36.275H166.904ZM166.904 40.055V41H168.904V40.055H166.904ZM167.904 40H166.954V42H167.904V40ZM165.054 40H163.154V42H165.054V40ZM161.254 40H159.354V42H161.254V40ZM157.454 40H155.554V42H157.454V40ZM153.654 40H151.754V42H153.654V40ZM149.854 40H147.954V42H149.854V40ZM146.054 40H144.154V42H146.054V40ZM142.254 40H141.304V42H142.254V40Z" fill="#DADADA"></path> </svg> 