<?xml version="1.0" encoding="UTF-8"?> <svg xmlns="http://www.w3.org/2000/svg" width="160" height="34" viewBox="0 0 160 34" fill="none"> <path d="M64.1752 16.0188C64.1752 14.6021 63.9562 13.2944 62.2039 13.2944C60.2327 13.2944 60.2327 16.0188 60.2327 18.9611C60.2327 23.7559 60.6707 24.6277 62.5325 24.6277C63.0801 24.6277 63.6276 24.5188 64.1752 24.3008V20.9226H62.423V18.5252H67.4606V26.3713C66.5845 26.5893 64.3942 26.9162 63.0801 26.9162C57.6043 26.9162 56.9473 24.6277 56.9473 18.7431C56.9473 14.82 57.1663 10.897 62.423 10.897C65.5989 10.897 67.5701 12.6406 67.3511 15.9098L64.1752 16.0188Z" fill="#222222"></path> <path d="M80.1642 11.333V22.4484C80.1642 24.7369 78.8501 27.2433 74.9076 27.2433C71.2936 27.2433 69.6509 25.3907 69.6509 22.4484V11.333H72.9363V22.1215C72.9363 23.974 73.7029 24.7369 74.9076 24.7369C76.3312 24.7369 76.9883 23.7561 76.9883 22.1215V11.333H80.1642Z" fill="#222222"></path> <path d="M86.6256 27.0245C82.5736 27.0245 81.807 24.6271 82.026 22.0117H85.3114C85.3114 23.5373 85.421 24.7361 87.1732 24.7361C88.2683 24.7361 88.8159 24.0822 88.8159 22.9925C88.8159 20.1591 82.2451 20.0502 82.2451 15.4732C82.2451 13.0758 83.4497 11.1143 87.3922 11.1143C90.5681 11.1143 92.1013 12.5309 91.8823 15.8002H88.7064C88.7064 14.6014 88.4874 13.5117 87.1732 13.5117C86.078 13.5117 85.5305 14.0566 85.5305 15.1463C85.5305 18.0886 92.1013 17.8707 92.1013 22.6655C91.9918 26.5886 89.0349 27.0245 86.6256 27.0245Z" fill="#222222"></path> <path d="M99.658 19.9419H94.4014V22.1214H99.658V19.9419Z" fill="#222222"></path> <path d="M109.404 11.333V13.8394H105.79V26.8074H102.505V13.8394H98.8911V11.333H109.404Z" fill="#222222"></path> <path d="M114.223 26.8074H110.938V11.333H116.961C119.151 11.333 120.575 12.7497 120.575 15.3651C120.575 17.3266 119.808 18.8522 117.727 19.1792C118.384 19.2881 120.575 19.3971 120.575 22.2304C120.575 23.2112 120.684 26.1535 120.903 26.8074H117.727C117.289 25.8266 117.399 24.8458 117.399 23.7561C117.399 21.9035 117.618 20.3779 115.099 20.3779H114.223V26.8074ZM114.223 18.0894H115.647C116.961 18.0894 117.289 16.7817 117.289 15.801C117.289 14.2753 116.632 13.7304 115.647 13.7304H114.223V18.0894Z" fill="#222222"></path> <path d="M122.108 26.8074L126.379 11.333H130.65L134.922 26.8074H131.527L130.76 23.5381H126.379L125.394 26.8074H122.108ZM128.351 14.3843L126.817 21.0317H129.884L128.351 14.3843Z" fill="#222222"></path> <path d="M136.235 26.8074V11.333H140.616L144.777 22.1215V11.333H147.844V26.8074H143.573L139.302 15.474V26.8074H136.235Z" fill="#222222"></path> <path d="M154.524 27.0245C150.472 27.0245 149.705 24.6271 149.924 22.0117H153.21C153.21 23.5373 153.319 24.7361 155.072 24.7361C156.167 24.7361 156.714 24.0822 156.714 22.9925C156.714 20.1591 150.143 20.0502 150.143 15.4732C150.143 13.0758 151.348 11.1143 155.291 11.1143C158.467 11.1143 160 12.5309 159.781 15.8002H156.605C156.605 14.6014 156.386 13.5117 155.072 13.5117C153.976 13.5117 153.429 14.0566 153.429 15.1463C153.429 18.0886 160 17.8707 160 22.6655C160 26.5886 157.043 27.0245 154.524 27.0245Z" fill="#222222"></path> <path d="M15.6605 13.8397H6.02327L4.38056 18.1987C11.8275 21.5769 15.6605 13.8397 15.6605 13.8397ZM19.7125 27.3526C22.7789 29.0962 30.883 34 30.883 34C30.883 34 33.2923 31.0577 35.2635 28.7692C32.6352 26.0449 25.8453 22.2308 19.7125 27.3526ZM25.4073 14.9295C29.1307 12.0962 34.3874 11.6603 34.3874 11.6603L36.0301 7.19231L32.1971 6.10256L32.5257 4.57692L27.269 2.61538C27.269 2.50641 27.269 2.39744 27.269 2.28846C27.269 0.980769 26.1739 0 24.9692 0C23.655 0 22.6694 1.08974 22.6694 2.28846C22.6694 3.37821 23.436 4.25 24.3121 4.46795C19.603 11.3333 16.4271 16.6731 10.1848 23.2115C7.66598 25.8269 4.05202 24.4103 2.40931 23.5385C2.40931 23.5385 0.657084 28.1154 0 29.9679C6.02327 33.5641 11.1704 33.2372 18.1793 26.4808C26.1739 18.5256 38.5489 20.1603 38.5489 20.1603L40.9583 13.9487C40.9583 13.9487 30.5544 13.5128 25.4073 14.9295Z" fill="#D61726"></path> </svg> 