<?xml version="1.0" encoding="UTF-8"?> <svg xmlns="http://www.w3.org/2000/svg" width="480" height="480" viewBox="0 0 480 480" fill="none"> <path d="M240 479.5C107.728 479.5 0.5 372.272 0.5 240C0.5 107.728 107.728 0.5 240 0.5C372.272 0.5 479.5 107.728 479.5 240C479.5 268.18 474.633 295.222 465.695 320.332C457.744 342.67 446.57 363.48 432.733 382.203C389.111 441.227 319.025 479.5 240 479.5Z" stroke="#DADADA"></path> <path d="M49.4698 57.39L41.5728 66.1105L44.2224 71.2152C53.4212 67.2808 49.4698 57.39 49.4698 57.39ZM65.1765 64.9401C69.2874 63.6127 80.4231 60.3501 80.4231 60.3501C80.4231 60.3501 79.7002 55.7276 79.2178 52.0443C74.5669 52.1612 65.5069 55.1392 65.1765 64.9401ZM58.4553 49.475C58.9093 43.7538 62.8171 38.6354 62.8171 38.6354L60.0677 33.4402L55.928 36.004L54.7987 34.4403L48.6933 37.5687C48.5934 37.4783 48.4935 37.3878 48.3936 37.2973C47.1949 36.2119 45.3985 36.3887 44.4114 37.4788C43.3345 38.6679 43.5258 40.4644 44.6246 41.4594C45.6235 42.364 47.0508 42.3939 47.9685 41.7821C50.4028 51.742 52.6951 59.0482 53.5735 70.1241C53.9069 74.5743 49.6469 76.6685 47.5017 77.4313C47.5017 77.4313 50.2613 82.816 51.4211 84.9484C59.653 82.4832 63.571 77.5543 63.121 65.6038C62.3799 51.7664 74.0186 41.9253 74.0186 41.9253L70.2991 34.5892C70.2991 34.5892 61.3744 43.6415 58.4553 49.475Z" fill="#D61726"></path> </svg> 