<?xml version="1.0" encoding="UTF-8"?> <svg xmlns="http://www.w3.org/2000/svg" width="217" height="45" viewBox="0 0 217 45" fill="none"> <path d="M1.465 43H0.965V43.5H1.465V43ZM1.465 11.59V11.09H0.965V11.59H1.465ZM22.84 11.59H23.34V11.09H22.84V11.59ZM22.84 17.665V18.165H23.34V17.665H22.84ZM8.305 17.665V17.165H7.805V17.665H8.305ZM8.305 24.1H7.805V24.6H8.305V24.1ZM20.77 24.1H21.27V23.6H20.77V24.1ZM20.77 30.13V30.63H21.27V30.13H20.77ZM8.305 30.13V29.63H7.805V30.13H8.305ZM8.305 36.925H7.805V37.425H8.305V36.925ZM22.84 36.925H23.34V36.425H22.84V36.925ZM22.84 43V43.5H23.34V43H22.84ZM1.965 43V42.0184H0.965V43H1.965ZM1.965 40.0553V38.0922H0.965V40.0553H1.965ZM1.965 36.1291V34.1659H0.965V36.1291H1.965ZM1.965 32.2028V30.2397H0.965V32.2028H1.965ZM1.965 28.2766V26.3134H0.965V28.2766H1.965ZM1.965 24.3503V22.3872H0.965V24.3503H1.965ZM1.965 20.4241V18.4609H0.965V20.4241H1.965ZM1.965 16.4978V14.5347H0.965V16.4978H1.965ZM1.965 12.5716V11.59H0.965V12.5716H1.965ZM1.465 12.09H2.53375V11.09H1.465V12.09ZM4.67125 12.09H6.80875V11.09H4.67125V12.09ZM8.94625 12.09H11.0838V11.09H8.94625V12.09ZM13.2213 12.09H15.3588V11.09H13.2213V12.09ZM17.4963 12.09H19.6338V11.09H17.4963V12.09ZM21.7713 12.09H22.84V11.09H21.7713V12.09ZM22.34 11.59V12.3494H23.34V11.59H22.34ZM22.34 13.8681V15.3869H23.34V13.8681H22.34ZM22.34 16.9056V17.665H23.34V16.9056H22.34ZM22.84 17.165H21.9316V18.165H22.84V17.165ZM20.1147 17.165H18.2978V18.165H20.1147V17.165ZM16.4809 17.165H14.6641V18.165H16.4809V17.165ZM12.8472 17.165H11.0303V18.165H12.8472V17.165ZM9.21344 17.165H8.305V18.165H9.21344V17.165ZM7.805 17.665V18.4694H8.805V17.665H7.805ZM7.805 20.0781V21.6869H8.805V20.0781H7.805ZM7.805 23.2956V24.1H8.805V23.2956H7.805ZM8.305 24.6H9.34375V23.6H8.305V24.6ZM11.4213 24.6H13.4988V23.6H11.4213V24.6ZM15.5763 24.6H17.6538V23.6H15.5763V24.6ZM19.7313 24.6H20.77V23.6H19.7313V24.6ZM20.27 24.1V24.8537H21.27V24.1H20.27ZM20.27 26.3612V27.8687H21.27V26.3612H20.27ZM20.27 29.3762V30.13H21.27V29.3762H20.27ZM20.77 29.63H19.7313V30.63H20.77V29.63ZM17.6538 29.63H15.5763V30.63H17.6538V29.63ZM13.4988 29.63H11.4213V30.63H13.4988V29.63ZM9.34375 29.63H8.305V30.63H9.34375V29.63ZM7.805 30.13V30.9794H8.805V30.13H7.805ZM7.805 32.6781V34.3769H8.805V32.6781H7.805ZM7.805 36.0756V36.925H8.805V36.0756H7.805ZM8.305 37.425H9.21344V36.425H8.305V37.425ZM11.0303 37.425H12.8472V36.425H11.0303V37.425ZM14.6641 37.425H16.4809V36.425H14.6641V37.425ZM18.2978 37.425H20.1147V36.425H18.2978V37.425ZM21.9316 37.425H22.84V36.425H21.9316V37.425ZM22.34 36.925V37.6844H23.34V36.925H22.34ZM22.34 39.2031V40.7219H23.34V39.2031H22.34ZM22.34 42.2406V43H23.34V42.2406H22.34ZM22.84 42.5H21.7713V43.5H22.84V42.5ZM19.6338 42.5H17.4963V43.5H19.6338V42.5ZM15.3588 42.5H13.2213V43.5H15.3588V42.5ZM11.0837 42.5H8.94625V43.5H11.0837V42.5ZM6.80875 42.5H4.67125V43.5H6.80875V42.5ZM2.53375 42.5H1.465V43.5H2.53375V42.5ZM1.465 43H0.465V44H1.465V43ZM1.465 11.59V10.59H0.465V11.59H1.465ZM22.84 11.59H23.84V10.59H22.84V11.59ZM22.84 17.665V18.665H23.84V17.665H22.84ZM8.305 17.665V16.665H7.305V17.665H8.305ZM8.305 24.1H7.305V25.1H8.305V24.1ZM20.77 24.1H21.77V23.1H20.77V24.1ZM20.77 30.13V31.13H21.77V30.13H20.77ZM8.305 30.13V29.13H7.305V30.13H8.305ZM8.305 36.925H7.305V37.925H8.305V36.925ZM22.84 36.925H23.84V35.925H22.84V36.925ZM22.84 43V44H23.84V43H22.84ZM2.465 43V42.0184H0.465V43H2.465ZM2.465 40.0553V38.0922H0.465V40.0553H2.465ZM2.465 36.1291V34.1659H0.465V36.1291H2.465ZM2.465 32.2028V30.2397H0.465V32.2028H2.465ZM2.465 28.2766V26.3134H0.465V28.2766H2.465ZM2.465 24.3503V22.3872H0.465V24.3503H2.465ZM2.465 20.4241V18.4609H0.465V20.4241H2.465ZM2.465 16.4978V14.5347H0.465V16.4978H2.465ZM2.465 12.5716V11.59H0.465V12.5716H2.465ZM1.465 12.59H2.53375V10.59H1.465V12.59ZM4.67125 12.59H6.80875V10.59H4.67125V12.59ZM8.94625 12.59H11.0838V10.59H8.94625V12.59ZM13.2213 12.59H15.3588V10.59H13.2213V12.59ZM17.4963 12.59H19.6338V10.59H17.4963V12.59ZM21.7713 12.59H22.84V10.59H21.7713V12.59ZM21.84 11.59V12.3494H23.84V11.59H21.84ZM21.84 13.8681V15.3869H23.84V13.8681H21.84ZM21.84 16.9056V17.665H23.84V16.9056H21.84ZM22.84 16.665H21.9316V18.665H22.84V16.665ZM20.1147 16.665H18.2978V18.665H20.1147V16.665ZM16.4809 16.665H14.6641V18.665H16.4809V16.665ZM12.8472 16.665H11.0303V18.665H12.8472V16.665ZM9.21344 16.665H8.305V18.665H9.21344V16.665ZM7.305 17.665V18.4694H9.305V17.665H7.305ZM7.305 20.0781V21.6869H9.305V20.0781H7.305ZM7.305 23.2956V24.1H9.305V23.2956H7.305ZM8.305 25.1H9.34375V23.1H8.305V25.1ZM11.4213 25.1H13.4988V23.1H11.4213V25.1ZM15.5763 25.1H17.6538V23.1H15.5763V25.1ZM19.7313 25.1H20.77V23.1H19.7313V25.1ZM19.77 24.1V24.8537H21.77V24.1H19.77ZM19.77 26.3612V27.8687H21.77V26.3612H19.77ZM19.77 29.3762V30.13H21.77V29.3762H19.77ZM20.77 29.13H19.7313V31.13H20.77V29.13ZM17.6538 29.13H15.5763V31.13H17.6538V29.13ZM13.4988 29.13H11.4213V31.13H13.4988V29.13ZM9.34375 29.13H8.305V31.13H9.34375V29.13ZM7.305 30.13V30.9794H9.305V30.13H7.305ZM7.305 32.6781V34.3769H9.305V32.6781H7.305ZM7.305 36.0756V36.925H9.305V36.0756H7.305ZM8.305 37.925H9.21344V35.925H8.305V37.925ZM11.0303 37.925H12.8472V35.925H11.0303V37.925ZM14.6641 37.925H16.4809V35.925H14.6641V37.925ZM18.2978 37.925H20.1147V35.925H18.2978V37.925ZM21.9316 37.925H22.84V35.925H21.9316V37.925ZM21.84 36.925V37.6844H23.84V36.925H21.84ZM21.84 39.2031V40.7219H23.84V39.2031H21.84ZM21.84 42.2406V43H23.84V42.2406H21.84ZM22.84 42H21.7713V44H22.84V42ZM19.6338 42H17.4963V44H19.6338V42ZM15.3588 42H13.2213V44H15.3588V42ZM11.0837 42H8.94625V44H11.0837V42ZM6.80875 42H4.67125V44H6.80875V42ZM2.53375 42H1.465V44H2.53375V42ZM35.639 43V43.5H36.139V43H35.639ZM28.799 43H28.299V43.5H28.799V43ZM28.799 11.59V11.09H28.299V11.59H28.799ZM47.609 12.31L47.7988 11.8474L47.7988 11.8474L47.609 12.31ZM50.579 14.38L50.2073 14.7145L50.2132 14.721L50.2193 14.7273L50.579 14.38ZM51.749 27.205L51.3209 26.9465L51.3174 26.9526L51.749 27.205ZM47.474 30.67L47.2984 30.2018L46.7784 30.3968L47.0268 30.8936L47.474 30.67ZM53.639 43V43.5H54.448L54.0862 42.7764L53.639 43ZM46.034 43L45.5826 43.2151L45.7184 43.5H46.034V43ZM40.544 31.48L40.9954 31.2649L40.8596 30.98H40.544V31.48ZM35.639 31.48V30.98H35.139V31.48H35.639ZM45.224 24.955L45.5574 25.3276L45.5585 25.3266L45.224 24.955ZM45.224 18.34L44.8801 18.703L44.8899 18.7122L44.9002 18.721L45.224 18.34ZM35.639 17.53V17.03H35.139V17.53H35.639ZM35.639 25.72H35.139V26.22H35.639V25.72ZM35.639 42.5H34.784V43.5H35.639V42.5ZM33.074 42.5H31.364V43.5H33.074V42.5ZM29.654 42.5H28.799V43.5H29.654V42.5ZM29.299 43V42.0184H28.299V43H29.299ZM29.299 40.0553V38.0922H28.299V40.0553H29.299ZM29.299 36.1291V34.1659H28.299V36.1291H29.299ZM29.299 32.2028V30.2397H28.299V32.2028H29.299ZM29.299 28.2766V26.3134H28.299V28.2766H29.299ZM29.299 24.3503V22.3872H28.299V24.3503H29.299ZM29.299 20.4241V18.4609H28.299V20.4241H29.299ZM29.299 16.4978V14.5347H28.299V16.4978H29.299ZM29.299 12.5716V11.59H28.299V12.5716H29.299ZM28.799 12.09H29.7299V11.09H28.799V12.09ZM31.5918 12.09H33.4537V11.09H31.5918V12.09ZM35.3155 12.09H37.1774V11.09H35.3155V12.09ZM39.0393 12.09H40.9012V11.09H39.0393V12.09ZM42.763 12.09H43.694V11.09H42.763V12.09ZM43.694 12.09C44.0219 12.09 44.3417 12.1029 44.6533 12.1287L44.7357 11.1321C44.3955 11.104 44.0482 11.09 43.694 11.09V12.09ZM46.5257 12.4633C46.8328 12.5511 47.1306 12.6542 47.4192 12.7726L47.7988 11.8474C47.4752 11.7147 47.1424 11.5995 46.8004 11.5018L46.5257 12.4633ZM47.4192 12.7726C47.6894 12.8834 47.9486 13.0058 48.1972 13.1396L48.6712 12.2591C48.3911 12.1083 48.1002 11.9711 47.7988 11.8474L47.4192 12.7726ZM49.6001 14.1133C49.8131 14.301 50.0155 14.5013 50.2073 14.7145L50.9506 14.0455C50.7332 13.8039 50.5034 13.5764 50.2612 13.363L49.6001 14.1133ZM50.2193 14.7273C50.4216 14.9368 50.6119 15.1576 50.7903 15.3895L51.583 14.7799C51.3819 14.5184 51.1671 14.2693 50.9387 14.0327L50.2193 14.7273ZM51.7029 16.8864C51.8272 17.1475 51.9411 17.4193 52.0444 17.7018L52.9835 17.3582C52.8699 17.0474 52.744 16.7469 52.6059 16.4566L51.7029 16.8864ZM52.0444 17.7018C52.1566 18.0083 52.2542 18.3242 52.3372 18.6496L53.3062 18.4024C53.215 18.0452 53.1075 17.6971 52.9835 17.3582L52.0444 17.7018ZM52.6526 20.6199C52.6768 20.9469 52.689 21.2819 52.689 21.625H53.689C53.689 21.2582 53.676 20.8985 53.6498 20.5459L52.6526 20.6199ZM52.689 21.625C52.689 22.1077 52.6634 22.5744 52.6127 23.0253L53.6064 23.1371C53.6616 22.647 53.689 22.1429 53.689 21.625H52.689ZM51.9408 25.7132C51.7651 26.1421 51.5585 26.5531 51.321 26.9466L52.177 27.4634C52.4414 27.0256 52.6711 26.5684 52.8661 26.0922L51.9408 25.7132ZM51.3174 26.9526C51.0935 27.3353 50.8396 27.6902 50.5555 28.0178L51.3111 28.6729C51.6363 28.2978 51.9261 27.8925 52.1806 27.4574L51.3174 26.9526ZM48.5099 29.6493C48.1342 29.8555 47.7306 30.0398 47.2984 30.2018L47.6495 31.1382C48.1235 30.9604 48.5708 30.7566 48.9909 30.526L48.5099 29.6493ZM47.0268 30.8936L47.5405 31.9211L48.4349 31.4739L47.9212 30.4464L47.0268 30.8936ZM48.568 33.9761L49.5955 36.0311L50.4899 35.5839L49.4624 33.5289L48.568 33.9761ZM50.623 38.0861L51.6505 40.1411L52.5449 39.6939L51.5174 37.6389L50.623 38.0861ZM52.678 42.1961L53.1918 43.2236L54.0862 42.7764L53.5724 41.7489L52.678 42.1961ZM53.639 42.5H52.6884V43.5H53.639V42.5ZM50.7871 42.5H48.8859V43.5H50.7871V42.5ZM46.9846 42.5H46.034V43.5H46.9846V42.5ZM46.4853 42.7849L46.0278 41.8249L45.1251 42.2551L45.5826 43.2151L46.4853 42.7849ZM45.1129 39.9049L44.1979 37.9849L43.2951 38.4151L44.2101 40.3351L45.1129 39.9049ZM43.2829 36.0649L42.3679 34.1449L41.4651 34.5751L42.3801 36.4951L43.2829 36.0649ZM41.4529 32.2249L40.9954 31.2649L40.0926 31.6951L40.5501 32.6551L41.4529 32.2249ZM40.544 30.98H39.3177V31.98H40.544V30.98ZM36.8652 30.98H35.639V31.98H36.8652V30.98ZM35.139 31.48V32.44H36.139V31.48H35.139ZM35.139 34.36V36.28H36.139V34.36H35.139ZM35.139 38.2V40.12H36.139V38.2H35.139ZM35.139 42.04V43H36.139V42.04H35.139ZM42.839 25.22H41.939V26.22H42.839V25.22ZM40.139 25.22H38.339V26.22H40.139V25.22ZM36.539 25.22H35.639V26.22H36.539V25.22ZM36.139 25.72V24.6962H35.139V25.72H36.139ZM36.139 22.6487V20.6012H35.139V22.6487H36.139ZM36.139 18.5537V17.53H35.139V18.5537H36.139ZM35.639 18.03H36.539V17.03H35.639V18.03ZM38.339 18.03H40.139V17.03H38.339V18.03ZM41.939 18.03H42.839V17.03H41.939V18.03ZM42.839 18.03C43.0452 18.03 43.2382 18.0421 43.4186 18.0655L43.5473 17.0738C43.3203 17.0443 43.0841 17.03 42.839 17.03V18.03ZM44.4596 18.3927C44.6143 18.4803 44.7541 18.5836 44.8801 18.703L45.5679 17.977C45.3821 17.801 45.1766 17.6495 44.9522 17.5225L44.4596 18.3927ZM44.9002 18.721C45.0289 18.8304 45.1394 18.954 45.2325 19.0924L46.0622 18.5341C45.9176 18.3193 45.7458 18.1273 45.5478 17.959L44.9002 18.721ZM45.5858 20.0718C45.6109 20.2449 45.624 20.4324 45.624 20.635H46.624C46.624 20.3896 46.6081 20.1538 46.5754 19.9282L45.5858 20.0718ZM45.624 20.635V21.13H46.624V20.635H45.624ZM45.624 22.12V22.615H46.624V22.12H45.624ZM45.624 22.615C45.624 22.82 45.6106 23.0105 45.5848 23.1872L46.5743 23.3317C46.6078 23.1024 46.624 22.8634 46.624 22.615H45.624ZM45.2256 24.192C45.1312 24.3361 45.0195 24.4663 44.8895 24.5834L45.5585 25.3266C45.752 25.1525 45.9202 24.9566 46.0622 24.7397L45.2256 24.192ZM44.8906 24.5824C44.7638 24.6958 44.6222 24.7945 44.4647 24.8782L44.9338 25.7613C45.1605 25.6409 45.3688 25.4963 45.5574 25.3276L44.8906 24.5824ZM43.4178 25.1868C43.2375 25.2087 43.0447 25.22 42.839 25.22V26.22C43.0811 26.22 43.3144 26.2067 43.5385 26.1795L43.4178 25.1868ZM35.639 43V44H36.639V43H35.639ZM28.799 43H27.799V44H28.799V43ZM28.799 11.59V10.59H27.799V11.59H28.799ZM47.609 12.31L47.9885 11.3848L47.9885 11.3848L47.609 12.31ZM50.579 14.38L49.8357 15.049L49.8474 15.062L49.8596 15.0746L50.579 14.38ZM51.749 27.205L50.8928 26.6881L50.8858 26.7001L51.749 27.205ZM47.474 30.67L47.1229 29.7337L46.0828 30.1237L46.5796 31.1172L47.474 30.67ZM53.639 43V44H55.257L54.5334 42.5528L53.639 43ZM46.034 43L45.1313 43.4302L45.4028 44H46.034V43ZM40.544 31.48L41.4467 31.0498L41.1752 30.48H40.544V31.48ZM35.639 31.48V30.48H34.639V31.48H35.639ZM45.224 24.955L45.8908 25.7002L45.893 25.6983L45.224 24.955ZM45.224 18.34L44.5362 19.066L44.5558 19.0845L44.5763 19.1019L45.224 18.34ZM35.639 17.53V16.53H34.639V17.53H35.639ZM35.639 25.72H34.639V26.72H35.639V25.72ZM35.639 42H34.784V44H35.639V42ZM33.074 42H31.364V44H33.074V42ZM29.654 42H28.799V44H29.654V42ZM29.799 43V42.0184H27.799V43H29.799ZM29.799 40.0553V38.0922H27.799V40.0553H29.799ZM29.799 36.1291V34.1659H27.799V36.1291H29.799ZM29.799 32.2028V30.2397H27.799V32.2028H29.799ZM29.799 28.2766V26.3134H27.799V28.2766H29.799ZM29.799 24.3503V22.3872H27.799V24.3503H29.799ZM29.799 20.4241V18.4609H27.799V20.4241H29.799ZM29.799 16.4978V14.5347H27.799V16.4978H29.799ZM29.799 12.5716V11.59H27.799V12.5716H29.799ZM28.799 12.59H29.7299V10.59H28.799V12.59ZM31.5918 12.59H33.4537V10.59H31.5918V12.59ZM35.3155 12.59H37.1774V10.59H35.3155V12.59ZM39.0393 12.59H40.9012V10.59H39.0393V12.59ZM42.763 12.59H43.694V10.59H42.763V12.59ZM43.694 12.59C44.0088 12.59 44.3148 12.6024 44.6122 12.627L44.7768 10.6338C44.4224 10.6045 44.0614 10.59 43.694 10.59V12.59ZM46.3884 12.9441C46.678 13.0269 46.9583 13.1239 47.2294 13.2352L47.9885 11.3848C47.6475 11.2449 47.2972 11.1237 46.9378 11.021L46.3884 12.9441ZM47.2294 13.2352C47.4839 13.3396 47.7274 13.4545 47.9601 13.5798L48.9083 11.8189C48.6124 11.6595 48.3057 11.5149 47.9885 11.3848L47.2294 13.2352ZM49.2695 14.4884C49.4679 14.6632 49.6567 14.85 49.8357 15.049L51.3223 13.711C51.0921 13.4552 50.8486 13.2141 50.5918 12.9879L49.2695 14.4884ZM49.8596 15.0746C50.0489 15.2706 50.227 15.4771 50.394 15.6943L51.9794 14.4751C51.7669 14.1988 51.5399 13.9355 51.2984 13.6854L49.8596 15.0746ZM51.2514 17.1012C51.3688 17.3478 51.4767 17.6052 51.5749 17.8736L53.4531 17.1864C53.3342 16.8615 53.2024 16.5466 53.0573 16.2418L51.2514 17.1012ZM51.5749 17.8736C51.6811 18.1639 51.7738 18.4637 51.8528 18.7732L53.7907 18.2787C53.6955 17.9057 53.583 17.5415 53.4531 17.1864L51.5749 17.8736ZM52.1539 20.6568C52.1772 20.9711 52.189 21.2937 52.189 21.625H54.189C54.189 21.2464 54.1755 20.8744 54.1485 20.509L52.1539 20.6568ZM52.189 21.625C52.189 22.09 52.1644 22.538 52.1158 22.9693L54.1033 23.1931C54.1606 22.6834 54.189 22.1606 54.189 21.625H52.189ZM51.4781 25.5237C51.3121 25.9289 51.1171 26.3169 50.8929 26.6881L52.605 27.7219C52.8828 27.2618 53.1241 26.7816 53.3288 26.2817L51.4781 25.5237ZM50.8858 26.7001C50.6772 27.0567 50.4412 27.3864 50.1778 27.6902L51.6889 29.0004C52.0347 28.6016 52.3424 28.171 52.6122 27.7099L50.8858 26.7001ZM48.2694 29.211C47.9159 29.4049 47.5341 29.5794 47.1229 29.7337L47.8251 31.6063C48.3199 31.4208 48.7891 31.2071 49.2314 30.9644L48.2694 29.211ZM46.5796 31.1172L47.0933 32.1447L48.8822 31.2503L48.3684 30.2228L46.5796 31.1172ZM48.1208 34.1997L49.1483 36.2547L50.9372 35.3603L49.9097 33.3053L48.1208 34.1997ZM50.1758 38.3097L51.2033 40.3647L52.9922 39.4703L51.9647 37.4153L50.1758 38.3097ZM52.2308 42.4197L52.7446 43.4472L54.5334 42.5528L54.0197 41.5253L52.2308 42.4197ZM53.639 42H52.6884V44H53.639V42ZM50.7871 42H48.8859V44H50.7871V42ZM46.9846 42H46.034V44H46.9846V42ZM46.9367 42.5698L46.4792 41.6098L44.6738 42.4702L45.1313 43.4302L46.9367 42.5698ZM45.5642 39.6898L44.6492 37.7698L42.8438 38.6302L43.7588 40.5502L45.5642 39.6898ZM43.7342 35.8498L42.8192 33.9298L41.0138 34.7902L41.9288 36.7102L43.7342 35.8498ZM41.9042 32.0098L41.4467 31.0498L39.6413 31.9102L40.0988 32.8702L41.9042 32.0098ZM40.544 30.48H39.3177V32.48H40.544V30.48ZM36.8652 30.48H35.639V32.48H36.8652V30.48ZM34.639 31.48V32.44H36.639V31.48H34.639ZM34.639 34.36V36.28H36.639V34.36H34.639ZM34.639 38.2V40.12H36.639V38.2H34.639ZM34.639 42.04V43H36.639V42.04H34.639ZM42.839 24.72H41.939V26.72H42.839V24.72ZM40.139 24.72H38.339V26.72H40.139V24.72ZM36.539 24.72H35.639V26.72H36.539V24.72ZM36.639 25.72V24.6962H34.639V25.72H36.639ZM36.639 22.6487V20.6012H34.639V22.6487H36.639ZM36.639 18.5537V17.53H34.639V18.5537H36.639ZM35.639 18.53H36.539V16.53H35.639V18.53ZM38.339 18.53H40.139V16.53H38.339V18.53ZM41.939 18.53H42.839V16.53H41.939V18.53ZM42.839 18.53C43.0258 18.53 43.1972 18.5409 43.3542 18.5613L43.6116 16.578C43.3614 16.5455 43.1035 16.53 42.839 16.53V18.53ZM44.2133 18.8278C44.3332 18.8957 44.4402 18.9749 44.5362 19.066L45.9117 17.614C45.6961 17.4097 45.4577 17.234 45.1986 17.0873L44.2133 18.8278ZM44.5763 19.1019C44.6705 19.182 44.7502 19.2713 44.8177 19.3716L46.477 18.255C46.3067 18.0019 46.1042 17.7757 45.8716 17.5781L44.5763 19.1019ZM45.091 20.1436C45.1123 20.2905 45.124 20.4538 45.124 20.635H47.124C47.124 20.3682 47.1068 20.1082 47.0702 19.8564L45.091 20.1436ZM45.124 20.635V21.13H47.124V20.635H45.124ZM45.124 22.12V22.615H47.124V22.12H45.124ZM45.124 22.615C45.124 22.7983 45.112 22.9645 45.09 23.115L47.0691 23.4039C47.1063 23.1484 47.124 22.885 47.124 22.615H45.124ZM44.8072 23.9181C44.7367 24.0258 44.6533 24.1233 44.555 24.2117L45.893 25.6983C46.1183 25.4955 46.3147 25.2669 46.4806 25.0136L44.8072 23.9181ZM44.5572 24.2098C44.4613 24.2956 44.3531 24.3713 44.2301 24.4366L45.1684 26.2029C45.4297 26.064 45.6713 25.8966 45.8908 25.7002L44.5572 24.2098ZM43.3575 24.6904C43.199 24.7097 43.0265 24.72 42.839 24.72V26.72C43.0993 26.72 43.3528 26.7057 43.5988 26.6758L43.3575 24.6904ZM63.456 43L62.9684 43.1104L63.0565 43.5H63.456V43ZM56.346 11.59V11.09H55.7202L55.8584 11.7004L56.346 11.59ZM63.096 11.59L63.5866 11.4933L63.5071 11.09H63.096V11.59ZM66.066 26.665L66.5572 26.5713L66.5566 26.5684L66.066 26.665ZM67.731 35.395L67.2399 35.4887L67.3174 35.895H67.731V35.395ZM67.866 35.395V35.895H68.2653L68.3536 35.5056L67.866 35.395ZM69.846 26.665L69.3587 26.553L69.3584 26.5544L69.846 26.665ZM73.311 11.59V11.09H72.9129L72.8237 11.478L73.311 11.59ZM80.781 11.59L81.268 11.4766L81.178 11.09H80.781V11.59ZM84.291 26.665L84.7792 26.5568L84.778 26.5516L84.291 26.665ZM86.226 35.395L85.7379 35.5032L85.8247 35.895H86.226V35.395ZM86.361 35.395V35.895H86.7747L86.8522 35.4887L86.361 35.395ZM88.026 26.665L87.5357 26.5669L87.5349 26.5713L88.026 26.665ZM91.041 11.59V11.09H90.6311L90.5507 11.4919L91.041 11.59ZM97.521 11.59L98.0081 11.703L98.1504 11.09H97.521V11.59ZM90.231 43V43.5H90.6283L90.7181 43.113L90.231 43ZM82.446 43L81.959 43.1134L82.049 43.5H82.446V43ZM78.486 25.99L77.9979 26.0985L77.999 26.1034L78.486 25.99ZM76.956 19.105L77.4441 18.9965L77.3571 18.605H76.956V19.105ZM76.821 19.105V18.605H76.4225L76.3336 18.9935L76.821 19.105ZM75.246 25.99L75.733 26.1034L75.7334 26.1015L75.246 25.99ZM71.286 43V43.5H71.683L71.773 43.1134L71.286 43ZM63.9437 42.8896L63.7215 41.908L62.7462 42.1288L62.9684 43.1104L63.9437 42.8896ZM63.2771 39.9449L62.8327 37.9818L61.8574 38.2026L62.3018 40.1657L63.2771 39.9449ZM62.3884 36.0187L61.944 34.0555L60.9687 34.2763L61.413 36.2394L62.3884 36.0187ZM61.4996 32.0924L61.0552 30.1293L60.0799 30.3501L60.5243 32.3132L61.4996 32.0924ZM60.6109 28.1662L60.1665 26.203L59.1912 26.4238L59.6355 28.3869L60.6109 28.1662ZM59.7221 24.2399L59.2777 22.2768L58.3024 22.4976L58.7468 24.4607L59.7221 24.2399ZM58.8334 20.3137L58.389 18.3506L57.4137 18.5713L57.858 20.5344L58.8334 20.3137ZM57.9446 16.3874L57.5002 14.4243L56.5249 14.6451L56.9693 16.6082L57.9446 16.3874ZM57.0559 12.4612L56.8337 11.4796L55.8584 11.7004L56.0805 12.682L57.0559 12.4612ZM56.346 12.09H57.1898V11.09H56.346V12.09ZM58.8773 12.09H60.5648V11.09H58.8773V12.09ZM62.2523 12.09H63.096V11.09H62.2523V12.09ZM62.6054 11.6866L62.7911 12.6288L63.7722 12.4355L63.5866 11.4933L62.6054 11.6866ZM63.1623 14.5132L63.5336 16.3976L64.5147 16.2043L64.1435 14.3199L63.1623 14.5132ZM63.9048 18.282L64.2761 20.1663L65.2572 19.973L64.886 18.0887L63.9048 18.282ZM64.6473 22.0507L65.0186 23.9351L65.9997 23.7418L65.6285 21.8574L64.6473 22.0507ZM65.3898 25.8195L65.5754 26.7616L66.5566 26.5684L66.371 25.6262L65.3898 25.8195ZM65.5749 26.7587L65.783 27.8499L66.7653 27.6626L66.5572 26.5713L65.5749 26.7587ZM66.1992 30.0324L66.6155 32.2149L67.5978 32.0276L67.1815 29.8451L66.1992 30.0324ZM67.0317 34.3974L67.2399 35.4887L68.2222 35.3013L68.014 34.2101L67.0317 34.3974ZM67.731 35.895H67.7648V34.895H67.731V35.895ZM67.8323 35.895H67.866V34.895H67.8323V35.895ZM68.3536 35.5056L68.6011 34.4143L67.6259 34.1932L67.3784 35.2844L68.3536 35.5056ZM69.0961 32.2318L69.5911 30.0493L68.6159 29.8282L68.1209 32.0107L69.0961 32.2318ZM70.0861 27.8668L70.3336 26.7756L69.3584 26.5544L69.1109 27.6457L70.0861 27.8668ZM70.3333 26.777L70.5499 25.8348L69.5753 25.6108L69.3587 26.553L70.3333 26.777ZM70.983 23.9504L71.4161 22.0661L70.4415 21.8421L70.0084 23.7264L70.983 23.9504ZM71.8492 20.1817L72.2824 18.2973L71.3078 18.0733L70.8747 19.9577L71.8492 20.1817ZM72.7155 16.4129L73.1486 14.5286L72.174 14.3046L71.7409 16.1889L72.7155 16.4129ZM73.5817 12.6442L73.7983 11.702L72.8237 11.478L72.6072 12.4202L73.5817 12.6442ZM73.311 12.09H74.2448V11.09H73.311V12.09ZM76.1123 12.09H77.9798V11.09H76.1123V12.09ZM79.8473 12.09H80.781V11.09H79.8473V12.09ZM80.294 11.7034L80.5134 12.6456L81.4874 12.4188L81.268 11.4766L80.294 11.7034ZM80.9522 14.5299L81.3909 16.4143L82.3649 16.1876L81.9261 14.3032L80.9522 14.5299ZM81.8297 18.2987L82.2684 20.1831L83.2424 19.9563L82.8036 18.0719L81.8297 18.2987ZM82.7072 22.0674L83.1459 23.9518L84.1199 23.7251L83.6811 21.8407L82.7072 22.0674ZM83.5847 25.8362L83.804 26.7784L84.778 26.5516L84.5586 25.6094L83.5847 25.8362ZM83.8029 26.7732L84.0447 27.8644L85.021 27.6481L84.7792 26.5568L83.8029 26.7732ZM84.5285 30.0469L85.0122 32.2294L85.9885 32.0131L85.5048 29.8306L84.5285 30.0469ZM85.496 34.4119L85.7379 35.5032L86.7142 35.2868L86.4723 34.1956L85.496 34.4119ZM86.226 35.895H86.2598V34.895H86.226V35.895ZM86.3273 35.895H86.361V34.895H86.3273V35.895ZM86.8522 35.4887L87.0603 34.3974L86.078 34.2101L85.8699 35.3013L86.8522 35.4887ZM87.4765 32.2149L87.8928 30.0324L86.9105 29.8451L86.4942 32.0276L87.4765 32.2149ZM88.309 27.8499L88.5172 26.7587L87.5349 26.5713L87.3267 27.6626L88.309 27.8499ZM88.5163 26.7631L88.7047 25.8209L87.7242 25.6248L87.5357 26.5669L88.5163 26.7631ZM89.0816 23.9365L89.4585 22.0521L88.4779 21.856L88.101 23.7404L89.0816 23.9365ZM89.8354 20.1677L90.2122 18.2834L89.2317 18.0873L88.8548 19.9716L89.8354 20.1677ZM90.5891 16.399L90.966 14.5146L89.9854 14.3185L89.6085 16.2029L90.5891 16.399ZM91.3429 12.6302L91.5313 11.6881L90.5507 11.4919L90.3623 12.4341L91.3429 12.6302ZM91.041 12.09H91.851V11.09H91.041V12.09ZM93.471 12.09H95.091V11.09H93.471V12.09ZM96.711 12.09H97.521V11.09H96.711V12.09ZM97.034 11.477L96.8062 12.4585L97.7803 12.6846L98.0081 11.703L97.034 11.477ZM96.3505 14.4216L95.8949 16.3848L96.869 16.6109L97.3246 14.6477L96.3505 14.4216ZM95.4393 18.3479L94.9837 20.311L95.9578 20.5371L96.4134 18.574L95.4393 18.3479ZM94.528 22.2741L94.0724 24.2373L95.0465 24.4634L95.5021 22.5002L94.528 22.2741ZM93.6168 26.2004L93.1612 28.1635L94.1353 28.3896L94.5909 26.4265L93.6168 26.2004ZM92.7055 30.1266L92.2499 32.0898L93.224 32.3158L93.6796 30.3527L92.7055 30.1266ZM91.7943 34.0529L91.3387 36.016L92.3128 36.2421L92.7684 34.279L91.7943 34.0529ZM90.883 37.9791L90.4274 39.9423L91.4015 40.1683L91.8571 38.2052L90.883 37.9791ZM89.9718 41.9054L89.744 42.887L90.7181 43.113L90.9459 42.1315L89.9718 41.9054ZM90.231 42.5H89.2579V43.5H90.231V42.5ZM87.3116 42.5H85.3654V43.5H87.3116V42.5ZM83.4191 42.5H82.446V43.5H83.4191V42.5ZM82.933 42.8866L82.6855 41.8235L81.7115 42.0502L81.959 43.1134L82.933 42.8866ZM82.1905 39.6973L81.6955 37.571L80.7215 37.7977L81.2165 39.924L82.1905 39.6973ZM81.2005 35.4448L80.7055 33.3185L79.7315 33.5452L80.2265 35.6715L81.2005 35.4448ZM80.2105 31.1923L79.7155 29.066L78.7415 29.2927L79.2365 31.419L80.2105 31.1923ZM79.2205 26.9398L78.973 25.8766L77.999 26.1034L78.2465 27.1665L79.2205 26.9398ZM78.9741 25.8815L78.7829 25.0209L77.8067 25.2378L77.9979 26.0985L78.9741 25.8815ZM78.4004 23.2997L78.0179 21.5784L77.0417 21.7953L77.4242 23.5166L78.4004 23.2997ZM77.6354 19.8572L77.4441 18.9965L76.4679 19.2135L76.6592 20.0741L77.6354 19.8572ZM76.956 18.605H76.9223V19.605H76.956V18.605ZM76.8548 18.605H76.821V19.605H76.8548V18.605ZM76.3336 18.9935L76.1367 19.8541L77.1116 20.0771L77.3084 19.2165L76.3336 18.9935ZM75.743 21.5754L75.3492 23.2966L76.3241 23.5196L76.7178 21.7984L75.743 21.5754ZM74.9555 25.0179L74.7586 25.8785L75.7334 26.1015L75.9303 25.2409L74.9555 25.0179ZM74.759 25.8766L74.5115 26.9398L75.4855 27.1665L75.733 26.1034L74.759 25.8766ZM74.0165 29.066L73.5215 31.1923L74.4955 31.419L74.9905 29.2927L74.0165 29.066ZM73.0265 33.3185L72.5315 35.4448L73.5055 35.6715L74.0005 33.5452L73.0265 33.3185ZM72.0365 37.571L71.5415 39.6973L72.5155 39.924L73.0105 37.7977L72.0365 37.571ZM71.0465 41.8235L70.799 42.8866L71.773 43.1134L72.0205 42.0502L71.0465 41.8235ZM71.286 42.5H70.3073V43.5H71.286V42.5ZM68.3498 42.5H66.3923V43.5H68.3498V42.5ZM64.4348 42.5H63.456V43.5H64.4348V42.5ZM63.456 43L62.4807 43.2208L62.6571 44H63.456V43ZM56.346 11.59V10.59H55.0944L55.3707 11.8108L56.346 11.59ZM63.096 11.59L64.0772 11.3967L63.9182 10.59H63.096V11.59ZM66.066 26.665L67.0483 26.4777L67.0472 26.4717L66.066 26.665ZM67.731 35.395L66.7487 35.5823L66.9037 36.395H67.731V35.395ZM67.866 35.395V36.395H68.6646L68.8412 35.6162L67.866 35.395ZM69.846 26.665L68.8714 26.441L68.8708 26.4438L69.846 26.665ZM73.311 11.59V10.59H72.5148L72.3364 11.366L73.311 11.59ZM80.781 11.59L81.755 11.3632L81.5749 10.59H80.781V11.59ZM84.291 26.665L85.2674 26.4486L85.265 26.4382L84.291 26.665ZM86.226 35.395L85.2497 35.6114L85.4234 36.395H86.226V35.395ZM86.361 35.395V36.395H87.1883L87.3433 35.5823L86.361 35.395ZM88.026 26.665L87.0454 26.4689L87.0437 26.4777L88.026 26.665ZM91.041 11.59V10.59H90.2212L90.0604 11.3939L91.041 11.59ZM97.521 11.59L98.4951 11.8161L98.7797 10.59H97.521V11.59ZM90.231 43V44H91.0255L91.2051 43.2261L90.231 43ZM82.446 43L81.4721 43.2267L81.6521 44H82.446V43ZM78.486 25.99L77.5098 26.2069L77.5121 26.2167L78.486 25.99ZM76.956 19.105L77.9322 18.8881L77.7582 18.105H76.956V19.105ZM76.821 19.105V18.105H76.0239L75.8462 18.882L76.821 19.105ZM75.246 25.99L76.22 26.2167L76.2208 26.213L75.246 25.99ZM71.286 43V44H72.08L72.26 43.2267L71.286 43ZM64.4313 42.7792L64.2092 41.7977L62.2585 42.2392L62.4807 43.2208L64.4313 42.7792ZM63.7648 39.8345L63.3204 37.8714L61.3698 38.313L61.8141 40.2761L63.7648 39.8345ZM62.876 35.9083L62.4317 33.9452L60.481 34.3867L60.9254 36.3498L62.876 35.9083ZM61.9873 31.982L61.5429 30.0189L59.5923 30.4605L60.0366 32.4236L61.9873 31.982ZM61.0985 28.0558L60.6542 26.0927L58.7035 26.5342L59.1479 28.4973L61.0985 28.0558ZM60.2098 24.1295L59.7654 22.1664L57.8148 22.608L58.2591 24.5711L60.2098 24.1295ZM59.321 20.2033L58.8767 18.2402L56.926 18.6817L57.3704 20.6448L59.321 20.2033ZM58.4323 16.277L57.9879 14.3139L56.0373 14.7555L56.4816 16.7186L58.4323 16.277ZM57.5435 12.3508L57.3213 11.3692L55.3707 11.8108L55.5929 12.7923L57.5435 12.3508ZM56.346 12.59H57.1898V10.59H56.346V12.59ZM58.8773 12.59H60.5648V10.59H58.8773V12.59ZM62.2523 12.59H63.096V10.59H62.2523V12.59ZM62.1149 11.7833L62.3005 12.7255L64.2628 12.3389L64.0772 11.3967L62.1149 11.7833ZM62.6718 14.6099L63.043 16.4942L65.0053 16.1076L64.634 14.2233L62.6718 14.6099ZM63.4143 18.3786L63.7855 20.263L65.7478 19.8764L65.3765 17.992L63.4143 18.3786ZM64.1568 22.1474L64.528 24.0317L66.4903 23.6451L66.119 21.7608L64.1568 22.1474ZM64.8993 25.9161L65.0849 26.8583L67.0472 26.4717L66.8615 25.5295L64.8993 25.9161ZM65.0837 26.8523L65.2918 27.9436L67.2564 27.5689L67.0483 26.4777L65.0837 26.8523ZM65.7081 30.1261L66.1243 32.3086L68.0889 31.9339L67.6727 29.7514L65.7081 30.1261ZM66.5406 34.4911L66.7487 35.5823L68.7133 35.2077L68.5052 34.1164L66.5406 34.4911ZM67.731 36.395H67.7648V34.395H67.731V36.395ZM67.8323 36.395H67.866V34.395H67.8323V36.395ZM68.8412 35.6162L69.0887 34.5249L67.1383 34.0826L66.8908 35.1738L68.8412 35.6162ZM69.5837 32.3424L70.0787 30.1599L68.1283 29.7176L67.6333 31.9001L69.5837 32.3424ZM70.5737 27.9774L70.8212 26.8862L68.8708 26.4438L68.6233 27.5351L70.5737 27.9774ZM70.8206 26.889L71.0372 25.9468L69.088 25.4988L68.8714 26.441L70.8206 26.889ZM71.4703 24.0624L71.9034 22.1781L69.9542 21.7301L69.5211 23.6144L71.4703 24.0624ZM72.3365 20.2937L72.7697 18.4093L70.8205 17.9613L70.3874 19.8457L72.3365 20.2937ZM73.2028 16.5249L73.6359 14.6406L71.6867 14.1926L71.2536 16.0769L73.2028 16.5249ZM74.069 12.7562L74.2856 11.814L72.3364 11.366L72.1199 12.3082L74.069 12.7562ZM73.311 12.59H74.2448V10.59H73.311V12.59ZM76.1123 12.59H77.9798V10.59H76.1123V12.59ZM79.8473 12.59H80.781V10.59H79.8473V12.59ZM79.8071 11.8168L80.0264 12.759L81.9743 12.3054L81.755 11.3632L79.8071 11.8168ZM80.4652 14.6433L80.9039 16.5277L82.8518 16.0742L82.4131 14.1898L80.4652 14.6433ZM81.3427 18.4121L81.7814 20.2965L83.7293 19.8429L83.2906 17.9585L81.3427 18.4121ZM82.2202 22.1808L82.6589 24.0652L84.6068 23.6117L84.1681 21.7273L82.2202 22.1808ZM83.0977 25.9496L83.3171 26.8918L85.265 26.4382L85.0456 25.496L83.0977 25.9496ZM83.3147 26.8814L83.5566 27.9726L85.5092 27.5399L85.2673 26.4486L83.3147 26.8814ZM84.0403 30.1551L84.5241 32.3376L86.4767 31.9049L85.9929 29.7224L84.0403 30.1551ZM85.0078 34.5201L85.2497 35.6114L87.2023 35.1786L86.9604 34.0874L85.0078 34.5201ZM86.226 36.395H86.2598V34.395H86.226V36.395ZM86.3273 36.395H86.361V34.395H86.3273V36.395ZM87.3433 35.5823L87.5514 34.4911L85.5868 34.1164L85.3787 35.2077L87.3433 35.5823ZM87.9677 32.3086L88.3839 30.1261L86.4193 29.7514L86.0031 31.9339L87.9677 32.3086ZM88.8002 27.9436L89.0083 26.8523L87.0437 26.4777L86.8356 27.5689L88.8002 27.9436ZM89.0066 26.8611L89.195 25.9189L87.2339 25.5267L87.0454 26.4689L89.0066 26.8611ZM89.5719 24.0346L89.9488 22.1502L87.9876 21.7579L87.6107 23.6423L89.5719 24.0346ZM90.3257 20.2658L90.7025 18.3814L88.7414 17.9892L88.3645 19.8736L90.3257 20.2658ZM91.0794 16.4971L91.4563 14.6127L89.4951 14.2204L89.1182 16.1048L91.0794 16.4971ZM91.8332 12.7283L92.0216 11.7861L90.0604 11.3939L89.872 12.3361L91.8332 12.7283ZM91.041 12.59H91.851V10.59H91.041V12.59ZM93.471 12.59H95.091V10.59H93.471V12.59ZM96.711 12.59H97.521V10.59H96.711V12.59ZM96.5469 11.3639L96.3191 12.3455L98.2673 12.7976L98.4951 11.8161L96.5469 11.3639ZM95.8635 14.3086L95.4078 16.2717L97.3561 16.7239L97.8117 14.7608L95.8635 14.3086ZM94.9522 18.2349L94.4966 20.198L96.4448 20.6501L96.9004 18.687L94.9522 18.2349ZM94.041 22.1611L93.5853 24.1242L95.5336 24.5764L95.9892 22.6133L94.041 22.1611ZM93.1297 26.0874L92.6741 28.0505L94.6223 28.5026L95.0779 26.5395L93.1297 26.0874ZM92.2185 30.0136L91.7628 31.9767L93.7111 32.4289L94.1667 30.4658L92.2185 30.0136ZM91.3072 33.9399L90.8516 35.903L92.7998 36.3551L93.2554 34.392L91.3072 33.9399ZM90.396 37.8661L89.9403 39.8292L91.8886 40.2814L92.3442 38.3183L90.396 37.8661ZM89.4847 41.7923L89.2569 42.7739L91.2051 43.2261L91.4329 42.2445L89.4847 41.7923ZM90.231 42H89.2579V44H90.231V42ZM87.3116 42H85.3654V44H87.3116V42ZM83.4191 42H82.446V44H83.4191V42ZM83.42 42.7733L83.1725 41.7101L81.2246 42.1636L81.4721 43.2267L83.42 42.7733ZM82.6775 39.5839L82.1825 37.4576L80.2346 37.9111L80.7296 40.0374L82.6775 39.5839ZM81.6875 35.3314L81.1925 33.2051L79.2446 33.6586L79.7396 35.7849L81.6875 35.3314ZM80.6975 31.0789L80.2025 28.9526L78.2546 29.4061L78.7496 31.5324L80.6975 31.0789ZM79.7075 26.8264L79.46 25.7633L77.5121 26.2167L77.7596 27.2799L79.7075 26.8264ZM79.4622 25.7731L79.271 24.9124L77.3186 25.3463L77.5098 26.2069L79.4622 25.7731ZM78.8885 23.1912L78.506 21.4699L76.5536 21.9038L76.9361 23.6251L78.8885 23.1912ZM78.1235 19.7487L77.9322 18.8881L75.9798 19.3219L76.1711 20.1826L78.1235 19.7487ZM76.956 18.105H76.9223V20.105H76.956V18.105ZM76.8548 18.105H76.821V20.105H76.8548V18.105ZM75.8462 18.882L75.6493 19.7426L77.599 20.1886L77.7958 19.328L75.8462 18.882ZM75.2556 21.4639L74.8618 23.1851L76.8115 23.6311L77.2052 21.9099L75.2556 21.4639ZM74.4681 24.9064L74.2712 25.767L76.2208 26.213L76.4177 25.3524L74.4681 24.9064ZM74.2721 25.7633L74.0246 26.8264L75.9725 27.2799L76.22 26.2167L74.2721 25.7633ZM73.5296 28.9526L73.0346 31.0789L74.9825 31.5324L75.4775 29.4061L73.5296 28.9526ZM72.5396 33.2051L72.0446 35.3314L73.9925 35.7849L74.4875 33.6586L72.5396 33.2051ZM71.5496 37.4576L71.0546 39.5839L73.0025 40.0374L73.4975 37.9111L71.5496 37.4576ZM70.5596 41.7101L70.3121 42.7733L72.26 43.2267L72.5075 42.1636L70.5596 41.7101ZM71.286 42H70.3073V44H71.286V42ZM68.3498 42H66.3923V44H68.3498V42ZM64.4348 42H63.456V44H64.4348V42ZM120.351 43L119.872 43.1442L119.98 43.5H120.351V43ZM118.101 35.53L118.58 35.3858L118.473 35.03H118.101V35.53ZM107.616 35.53V35.03H107.245L107.137 35.3858L107.616 35.53ZM105.366 43V43.5H105.738L105.845 43.1442L105.366 43ZM98.4361 43L97.9612 42.8435L97.7449 43.5H98.4361V43ZM108.786 11.59V11.09H108.424L108.311 11.4335L108.786 11.59ZM117.246 11.59L117.722 11.4354L117.609 11.09H117.246V11.59ZM127.461 43V43.5H128.15L127.937 42.8454L127.461 43ZM112.926 17.8L113.406 17.6588L113.3 17.3H112.926V17.8ZM112.701 17.8V17.3H112.326L112.221 17.6605L112.701 17.8ZM109.236 29.725L108.756 29.5855L108.57 30.225H109.236V29.725ZM116.436 29.725V30.225H117.105L116.916 29.5838L116.436 29.725ZM105.006 7.945L104.634 8.2784L104.643 8.28874L104.653 8.29855L105.006 7.945ZM105.006 2.815L104.643 2.47112L104.643 2.47169L105.006 2.815ZM110.631 2.815L110.259 3.14839L110.268 3.15874L110.278 3.16855L110.631 2.815ZM110.631 7.945L110.268 7.60113L110.268 7.60169L110.631 7.945ZM114.906 7.945L114.534 8.2784L114.543 8.28874L114.553 8.29855L114.906 7.945ZM114.906 2.815L114.543 2.47112L114.543 2.47169L114.906 2.815ZM120.531 2.815L120.159 3.14839L120.168 3.15874L120.178 3.16855L120.531 2.815ZM120.531 7.945L120.168 7.60113L120.168 7.60169L120.531 7.945ZM120.83 42.8558L120.549 41.922L119.591 42.2105L119.872 43.1442L120.83 42.8558ZM119.986 40.0545L119.424 38.187L118.466 38.4755L119.029 40.343L119.986 40.0545ZM118.861 36.3195L118.58 35.3858L117.622 35.6742L117.904 36.608L118.861 36.3195ZM118.101 35.03H117.227V36.03H118.101V35.03ZM115.48 35.03H113.732V36.03H115.48V35.03ZM111.985 35.03H110.237V36.03H111.985V35.03ZM108.49 35.03H107.616V36.03H108.49V35.03ZM107.137 35.3858L106.856 36.3195L107.814 36.608L108.095 35.6742L107.137 35.3858ZM106.294 38.187L105.731 40.0545L106.689 40.343L107.251 38.4755L106.294 38.187ZM105.169 41.922L104.887 42.8558L105.845 43.1442L106.126 42.2105L105.169 41.922ZM105.366 42.5H104.5V43.5H105.366V42.5ZM102.767 42.5H101.035V43.5H102.767V42.5ZM99.3024 42.5H98.4361V43.5H99.3024V42.5ZM98.911 43.1565L99.2345 42.1749L98.2847 41.862L97.9612 42.8435L98.911 43.1565ZM99.8813 40.2118L100.528 38.2487L99.5784 37.9357L98.9316 39.8988L99.8813 40.2118ZM101.175 36.2855L101.822 34.3224L100.872 34.0095L100.225 35.9726L101.175 36.2855ZM102.469 32.3593L103.116 30.3962L102.166 30.0832L101.519 32.0463L102.469 32.3593ZM103.763 28.433L104.409 26.4699L103.46 26.157L102.813 28.1201L103.763 28.433ZM105.056 24.5068L105.703 22.5437L104.753 22.2307L104.107 24.1938L105.056 24.5068ZM106.35 20.5805L106.997 18.6174L106.047 18.3045L105.4 20.2676L106.35 20.5805ZM107.644 16.6543L108.291 14.6912L107.341 14.3782L106.694 16.3413L107.644 16.6543ZM108.938 12.728L109.261 11.7465L108.311 11.4335L107.988 12.4151L108.938 12.728ZM108.786 12.09H109.844V11.09H108.786V12.09ZM111.959 12.09H114.074V11.09H111.959V12.09ZM116.189 12.09H117.246V11.09H116.189V12.09ZM116.771 11.7446L117.09 12.7262L118.041 12.4169L117.722 11.4354L116.771 11.7446ZM117.728 14.6893L118.367 16.6524L119.318 16.3432L118.679 14.3801L117.728 14.6893ZM119.005 18.6156L119.644 20.5787L120.595 20.2694L119.956 18.3063L119.005 18.6156ZM120.282 22.5418L120.92 24.5049L121.871 24.1957L121.233 22.2326L120.282 22.5418ZM121.559 26.4681L122.197 28.4312L123.148 28.1219L122.51 26.1588L121.559 26.4681ZM122.836 30.3943L123.474 32.3574L124.425 32.0482L123.787 30.0851L122.836 30.3943ZM124.113 34.3206L124.751 36.2837L125.702 35.9744L125.064 34.0113L124.113 34.3206ZM125.39 38.2468L126.028 40.2099L126.979 39.9007L126.341 37.9376L125.39 38.2468ZM126.666 42.1731L126.986 43.1546L127.937 42.8454L127.617 41.8638L126.666 42.1731ZM127.461 42.5H126.572V43.5H127.461V42.5ZM124.795 42.5H123.017V43.5H124.795V42.5ZM121.24 42.5H120.351V43.5H121.24V42.5ZM112.926 17.3H112.87V18.3H112.926V17.3ZM112.757 17.3H112.701V18.3H112.757V17.3ZM112.221 17.6605L111.932 18.6542L112.893 18.9333L113.181 17.9395L112.221 17.6605ZM111.355 20.6417L110.777 22.6292L111.738 22.9083L112.315 20.9208L111.355 20.6417ZM110.2 24.6167L109.622 26.6042L110.583 26.8833L111.16 24.8958L110.2 24.6167ZM109.045 28.5917L108.756 29.5855L109.716 29.8645L110.005 28.8708L109.045 28.5917ZM109.236 30.225H110.136V29.225H109.236V30.225ZM111.936 30.225H113.736V29.225H111.936V30.225ZM115.536 30.225H116.436V29.225H115.536V30.225ZM116.916 29.5838L116.623 28.5901L115.664 28.8724L115.956 29.8662L116.916 29.5838ZM116.038 26.6026L115.453 24.6151L114.494 24.8974L115.079 26.8849L116.038 26.6026ZM114.868 22.6276L114.283 20.6401L113.324 20.9224L113.909 22.9099L114.868 22.6276ZM113.698 18.6526L113.406 17.6588L112.446 17.9412L112.739 18.9349L113.698 18.6526ZM107.841 8.255C107.587 8.255 107.35 8.24492 107.131 8.22523L107.042 9.22121C107.294 9.24389 107.561 9.255 107.841 9.255V8.255ZM105.839 7.91736C105.638 7.82284 105.481 7.71275 105.36 7.59144L104.653 8.29855C104.866 8.51245 105.123 8.68555 105.413 8.8222L105.839 7.91736ZM105.379 7.6116C105.271 7.49146 105.179 7.36749 105.1 7.23975L104.249 7.76479C104.36 7.94509 104.488 8.11626 104.634 8.2784L105.379 7.6116ZM104.779 6.3875C104.754 6.23913 104.741 6.08345 104.741 5.92H103.741C103.741 6.13672 103.758 6.34875 103.794 6.55561L104.779 6.3875ZM104.741 5.92V5.63875H103.741V5.92H104.741ZM104.741 5.07625V4.795H103.741V5.07625H104.741ZM104.741 4.795C104.741 4.63368 104.754 4.48112 104.778 4.33679L103.792 4.16938C103.758 4.37245 103.741 4.58116 103.741 4.795H104.741ZM105.093 3.51167C105.171 3.38929 105.263 3.27148 105.37 3.15831L104.643 2.47169C104.494 2.62881 104.363 2.79632 104.249 2.97429L105.093 3.51167ZM105.369 3.15887C105.49 3.03098 105.645 2.91609 105.842 2.81769L105.394 1.92358C105.106 2.0677 104.854 2.24905 104.643 2.47112L105.369 3.15887ZM107.129 2.49172C107.349 2.47075 107.586 2.46 107.841 2.46V1.46C107.558 1.46 107.289 1.47191 107.034 1.49627L107.129 2.49172ZM107.841 2.46C108.094 2.46 108.328 2.47051 108.543 2.491L108.638 1.49547C108.387 1.47164 108.121 1.46 107.841 1.46V2.46ZM109.808 2.81204C109.999 2.90965 110.146 3.02311 110.259 3.14839L111.004 2.4816C110.799 2.25307 110.549 2.06762 110.262 1.92122L109.808 2.81204ZM110.278 3.16855C110.39 3.28085 110.486 3.39737 110.568 3.51792L111.396 2.9565C111.277 2.78093 111.139 2.61597 110.985 2.46144L110.278 3.16855ZM110.901 4.33742C110.928 4.48138 110.941 4.6337 110.941 4.795H111.941C111.941 4.57751 111.923 4.3652 111.885 4.15867L110.901 4.33742ZM110.941 4.795V5.07625H111.941V4.795H110.941ZM110.941 5.63875V5.92H111.941V5.63875H110.941ZM110.941 5.92C110.941 6.08335 110.927 6.23875 110.9 6.38676L111.884 6.56615C111.922 6.35589 111.941 6.14032 111.941 5.92H110.941ZM110.561 7.23346C110.478 7.35937 110.381 7.48198 110.268 7.60113L110.994 8.28887C111.145 8.12915 111.28 7.96032 111.397 7.78223L110.561 7.23346ZM110.268 7.60169C110.156 7.72022 110.007 7.82894 109.811 7.92278L110.243 8.82472C110.532 8.68594 110.786 8.50883 110.995 8.28831L110.268 7.60169ZM108.541 8.22592C108.326 8.24515 108.093 8.255 107.841 8.255V9.255C108.118 9.255 108.382 9.24415 108.63 9.22197L108.541 8.22592ZM117.741 8.255C117.487 8.255 117.25 8.24492 117.031 8.22523L116.942 9.22121C117.194 9.24389 117.461 9.255 117.741 9.255V8.255ZM115.739 7.91736C115.538 7.82284 115.381 7.71275 115.26 7.59144L114.553 8.29855C114.766 8.51245 115.023 8.68555 115.313 8.8222L115.739 7.91736ZM115.279 7.6116C115.171 7.49146 115.079 7.36749 115 7.23975L114.149 7.76479C114.26 7.94509 114.388 8.11626 114.534 8.2784L115.279 7.6116ZM114.679 6.3875C114.654 6.23913 114.641 6.08345 114.641 5.92H113.641C113.641 6.13672 113.658 6.34875 113.694 6.55561L114.679 6.3875ZM114.641 5.92V5.63875H113.641V5.92H114.641ZM114.641 5.07625V4.795H113.641V5.07625H114.641ZM114.641 4.795C114.641 4.63368 114.654 4.48112 114.678 4.33679L113.692 4.16938C113.658 4.37245 113.641 4.58116 113.641 4.795H114.641ZM114.993 3.51167C115.071 3.38929 115.163 3.27148 115.27 3.15831L114.543 2.47169C114.394 2.62881 114.263 2.79632 114.149 2.97429L114.993 3.51167ZM115.269 3.15887C115.39 3.03098 115.545 2.91609 115.742 2.81769L115.294 1.92358C115.006 2.0677 114.754 2.24905 114.543 2.47112L115.269 3.15887ZM117.029 2.49172C117.249 2.47075 117.486 2.46 117.741 2.46V1.46C117.458 1.46 117.189 1.47191 116.934 1.49627L117.029 2.49172ZM117.741 2.46C117.994 2.46 118.228 2.47051 118.443 2.491L118.538 1.49547C118.287 1.47164 118.021 1.46 117.741 1.46V2.46ZM119.708 2.81204C119.899 2.90965 120.046 3.02311 120.159 3.14839L120.904 2.4816C120.699 2.25307 120.449 2.06762 120.162 1.92122L119.708 2.81204ZM120.178 3.16855C120.29 3.28085 120.386 3.39737 120.468 3.51792L121.296 2.9565C121.177 2.78093 121.039 2.61597 120.885 2.46144L120.178 3.16855ZM120.801 4.33742C120.828 4.48138 120.841 4.6337 120.841 4.795H121.841C121.841 4.57751 121.823 4.3652 121.785 4.15867L120.801 4.33742ZM120.841 4.795V5.07625H121.841V4.795H120.841ZM120.841 5.63875V5.92H121.841V5.63875H120.841ZM120.841 5.92C120.841 6.08335 120.827 6.23875 120.8 6.38676L121.784 6.56615C121.822 6.35589 121.841 6.14032 121.841 5.92H120.841ZM120.461 7.23346C120.378 7.35937 120.281 7.48198 120.168 7.60113L120.894 8.28887C121.045 8.12915 121.18 7.96032 121.297 7.78223L120.461 7.23346ZM120.168 7.60169C120.056 7.72022 119.907 7.82894 119.711 7.92278L120.143 8.82472C120.432 8.68594 120.686 8.50883 120.895 8.28831L120.168 7.60169ZM118.441 8.22592C118.226 8.24515 117.993 8.255 117.741 8.255V9.255C118.018 9.255 118.282 9.24415 118.53 9.22197L118.441 8.22592ZM120.351 43L119.394 43.2884L119.608 44H120.351V43ZM118.101 35.53L119.059 35.2416L118.844 34.53H118.101V35.53ZM107.616 35.53V34.53H106.873L106.659 35.2416L107.616 35.53ZM105.366 43V44H106.109L106.324 43.2884L105.366 43ZM98.4361 43L97.4864 42.687L97.0537 44H98.4361V43ZM108.786 11.59V10.59H108.063L107.836 11.277L108.786 11.59ZM117.246 11.59L118.197 11.2807L117.972 10.59H117.246V11.59ZM127.461 43V44H128.838L128.412 42.6907L127.461 43ZM112.926 17.8L113.885 17.5176L113.674 16.8H112.926V17.8ZM112.701 17.8V16.8H111.95L111.741 17.521L112.701 17.8ZM109.236 29.725L108.276 29.446L107.904 30.725H109.236V29.725ZM116.436 29.725V30.725H117.773L117.395 29.4426L116.436 29.725ZM105.006 7.945L104.261 8.61179L104.279 8.63248L104.299 8.6521L105.006 7.945ZM105.006 2.815L104.28 2.12725L104.279 2.12837L105.006 2.815ZM110.631 2.815L109.886 3.48179L109.904 3.50248L109.924 3.5221L110.631 2.815ZM110.631 7.945L109.905 7.25725L109.904 7.25837L110.631 7.945ZM114.906 7.945L114.161 8.61179L114.179 8.63248L114.199 8.6521L114.906 7.945ZM114.906 2.815L114.18 2.12725L114.179 2.12837L114.906 2.815ZM120.531 2.815L119.786 3.48179L119.804 3.50248L119.824 3.5221L120.531 2.815ZM120.531 7.945L119.805 7.25725L119.804 7.25837L120.531 7.945ZM121.309 42.7116L121.027 41.7778L119.112 42.3547L119.394 43.2884L121.309 42.7116ZM120.465 39.9103L119.902 38.0428L117.987 38.6197L118.55 40.4872L120.465 39.9103ZM119.34 36.1753L119.059 35.2416L117.144 35.8184L117.425 36.7522L119.34 36.1753ZM118.101 34.53H117.227V36.53H118.101V34.53ZM115.48 34.53H113.732V36.53H115.48V34.53ZM111.985 34.53H110.237V36.53H111.985V34.53ZM108.49 34.53H107.616V36.53H108.49V34.53ZM106.659 35.2416L106.377 36.1753L108.292 36.7522L108.574 35.8184L106.659 35.2416ZM105.815 38.0428L105.252 39.9103L107.167 40.4872L107.73 38.6197L105.815 38.0428ZM104.69 41.7778L104.409 42.7116L106.324 43.2884L106.605 42.3547L104.69 41.7778ZM105.366 42H104.5V44H105.366V42ZM102.767 42H101.035V44H102.767V42ZM99.3024 42H98.4361V44H99.3024V42ZM99.3859 43.313L99.7093 42.3314L97.8098 41.7055L97.4864 42.687L99.3859 43.313ZM100.356 40.3683L101.003 38.4051L99.1036 37.7792L98.4567 39.7424L100.356 40.3683ZM101.65 36.442L102.297 34.4789L100.397 33.853L99.7504 35.8161L101.65 36.442ZM102.944 32.5158L103.591 30.5526L101.691 29.9267L101.044 31.8899L102.944 32.5158ZM104.237 28.5895L104.884 26.6264L102.985 26.0005L102.338 27.9636L104.237 28.5895ZM105.531 24.6633L106.178 22.7002L104.279 22.0742L103.632 24.0374L105.531 24.6633ZM106.825 20.737L107.472 18.7739L105.572 18.148L104.925 20.1111L106.825 20.737ZM108.119 16.8108L108.766 14.8477L106.866 14.2217L106.219 16.1849L108.119 16.8108ZM109.412 12.8845L109.736 11.903L107.836 11.277L107.513 12.2586L109.412 12.8845ZM108.786 12.59H109.844V10.59H108.786V12.59ZM111.959 12.59H114.074V10.59H111.959V12.59ZM116.189 12.59H117.246V10.59H116.189V12.59ZM116.295 11.8993L116.614 12.8808L118.516 12.2623L118.197 11.2807L116.295 11.8993ZM117.253 14.844L117.891 16.8071L119.793 16.1885L119.155 14.2254L117.253 14.844ZM118.53 18.7702L119.168 20.7333L121.07 20.1148L120.432 18.1517L118.53 18.7702ZM119.807 22.6965L120.445 24.6596L122.347 24.041L121.709 22.0779L119.807 22.6965ZM121.083 26.6227L121.722 28.5858L123.624 27.9673L122.985 26.0042L121.083 26.6227ZM122.36 30.549L122.999 32.5121L124.901 31.8935L124.262 29.9304L122.36 30.549ZM123.637 34.4752L124.276 36.4383L126.178 35.8198L125.539 33.8567L123.637 34.4752ZM124.914 38.4015L125.553 40.3646L127.454 39.746L126.816 37.7829L124.914 38.4015ZM126.191 42.3277L126.51 43.3093L128.412 42.6907L128.093 41.7092L126.191 42.3277ZM127.461 42H126.572V44H127.461V42ZM124.795 42H123.017V44H124.795V42ZM121.24 42H120.351V44H121.24V42ZM112.926 16.8H112.87V18.8H112.926V16.8ZM112.757 16.8H112.701V18.8H112.757V16.8ZM111.741 17.521L111.452 18.5147L113.373 19.0728L113.661 18.079L111.741 17.521ZM110.875 20.5022L110.297 22.4897L112.218 23.0478L112.795 21.0603L110.875 20.5022ZM109.72 24.4772L109.142 26.4647L111.063 27.0228L111.64 25.0353L109.72 24.4772ZM108.565 28.4522L108.276 29.446L110.196 30.004L110.485 29.0103L108.565 28.4522ZM109.236 30.725H110.136V28.725H109.236V30.725ZM111.936 30.725H113.736V28.725H111.936V30.725ZM115.536 30.725H116.436V28.725H115.536V30.725ZM117.395 29.4426L117.103 28.4489L115.184 29.0136L115.477 30.0074L117.395 29.4426ZM116.518 26.4614L115.933 24.4739L114.014 25.0386L114.599 27.0261L116.518 26.4614ZM115.348 22.4864L114.763 20.4989L112.844 21.0636L113.429 23.0511L115.348 22.4864ZM114.178 18.5114L113.885 17.5176L111.967 18.0824L112.259 19.0761L114.178 18.5114ZM107.841 7.755C107.6 7.755 107.378 7.74543 107.176 7.72724L106.997 9.7192C107.266 9.74338 107.548 9.755 107.841 9.755V7.755ZM106.052 7.46495C105.896 7.39149 105.788 7.31291 105.713 7.23789L104.299 8.6521C104.559 8.9123 104.865 9.1169 105.2 9.27461L106.052 7.46495ZM105.751 7.2782C105.663 7.17906 105.588 7.07868 105.525 6.97723L103.823 8.02731C103.951 8.23389 104.097 8.42866 104.261 8.61179L105.751 7.2782ZM105.272 6.30345C105.252 6.18432 105.241 6.05682 105.241 5.92H103.241C103.241 6.16335 103.261 6.40357 103.301 6.63967L105.272 6.30345ZM105.241 5.92V5.63875H103.241V5.92H105.241ZM105.241 5.07625V4.795H103.241V5.07625H105.241ZM105.241 4.795C105.241 4.65993 105.252 4.53545 105.271 4.42049L103.299 4.08567C103.26 4.31811 103.241 4.55491 103.241 4.795H105.241ZM105.514 3.78036C105.575 3.68578 105.647 3.59281 105.733 3.50162L104.279 2.12837C104.11 2.30747 103.959 2.49983 103.828 2.7056L105.514 3.78036ZM105.732 3.50274C105.809 3.42195 105.915 3.34029 106.066 3.26474L105.17 1.47652C104.837 1.6435 104.535 1.85808 104.28 2.12725L105.732 3.50274ZM107.177 2.98945C107.379 2.97017 107.6 2.96 107.841 2.96V0.959997C107.544 0.959997 107.259 0.972485 106.987 0.998537L107.177 2.98945ZM107.841 2.96C108.08 2.96 108.298 2.96995 108.496 2.98876L108.685 0.997705C108.416 0.972203 108.135 0.959997 107.841 0.959997V2.96ZM109.581 3.25745C109.724 3.33067 109.82 3.40813 109.886 3.48179L111.376 2.1482C111.126 1.86805 110.824 1.6466 110.489 1.47581L109.581 3.25745ZM109.924 3.5221C110.015 3.61328 110.091 3.70558 110.154 3.79864L111.809 2.67578C111.672 2.47271 111.514 2.28354 111.338 2.10789L109.924 3.5221ZM110.409 4.42679C110.43 4.53947 110.441 4.66179 110.441 4.795H112.441C112.441 4.54942 112.42 4.30711 112.377 4.0693L110.409 4.42679ZM110.441 4.795V5.07625H112.441V4.795H110.441ZM110.441 5.63875V5.92H112.441V5.63875H110.441ZM110.441 5.92C110.441 6.05487 110.43 6.18018 110.408 6.29707L112.376 6.65584C112.42 6.41446 112.441 6.1688 112.441 5.92H110.441ZM110.143 6.95907C110.077 7.05889 109.999 7.15839 109.905 7.25725L111.357 8.63274C111.528 8.45274 111.681 8.2608 111.815 8.05662L110.143 6.95907ZM109.904 7.25837C109.84 7.32592 109.744 7.40044 109.595 7.47181L110.458 9.27569C110.795 9.11444 111.102 8.90313 111.358 8.63162L109.904 7.25837ZM108.497 7.7279C108.298 7.74565 108.08 7.755 107.841 7.755V9.755C108.131 9.755 108.409 9.74365 108.675 9.71999L108.497 7.7279ZM117.741 7.755C117.5 7.755 117.278 7.74543 117.076 7.72724L116.897 9.7192C117.166 9.74338 117.448 9.755 117.741 9.755V7.755ZM115.952 7.46495C115.796 7.39149 115.688 7.31291 115.613 7.23789L114.199 8.6521C114.459 8.9123 114.765 9.1169 115.1 9.27461L115.952 7.46495ZM115.651 7.2782C115.563 7.17906 115.488 7.07869 115.425 6.97723L113.723 8.02731C113.851 8.23389 113.997 8.42866 114.161 8.61179L115.651 7.2782ZM115.172 6.30345C115.152 6.18432 115.141 6.05682 115.141 5.92H113.141C113.141 6.16335 113.161 6.40357 113.201 6.63967L115.172 6.30345ZM115.141 5.92V5.63875H113.141V5.92H115.141ZM115.141 5.07625V4.795H113.141V5.07625H115.141ZM115.141 4.795C115.141 4.65993 115.152 4.53545 115.171 4.42049L113.199 4.08567C113.16 4.31811 113.141 4.55491 113.141 4.795H115.141ZM115.414 3.78036C115.475 3.68578 115.547 3.59281 115.633 3.50162L114.179 2.12837C114.01 2.30747 113.859 2.49983 113.728 2.7056L115.414 3.78036ZM115.632 3.50274C115.709 3.42195 115.815 3.34029 115.966 3.26474L115.07 1.47652C114.737 1.6435 114.435 1.85808 114.18 2.12725L115.632 3.50274ZM117.077 2.98945C117.279 2.97017 117.5 2.96 117.741 2.96V0.959997C117.444 0.959997 117.159 0.972485 116.887 0.998537L117.077 2.98945ZM117.741 2.96C117.98 2.96 118.198 2.96995 118.396 2.98876L118.585 0.997705C118.316 0.972203 118.035 0.959997 117.741 0.959997V2.96ZM119.481 3.25745C119.624 3.33067 119.72 3.40813 119.786 3.48179L121.276 2.1482C121.026 1.86805 120.724 1.6466 120.389 1.47581L119.481 3.25745ZM119.824 3.5221C119.915 3.61328 119.991 3.70558 120.054 3.79864L121.709 2.67578C121.572 2.47271 121.414 2.28354 121.238 2.10789L119.824 3.5221ZM120.309 4.42679C120.33 4.53947 120.341 4.66179 120.341 4.795H122.341C122.341 4.54942 122.32 4.30711 122.277 4.0693L120.309 4.42679ZM120.341 4.795V5.07625H122.341V4.795H120.341ZM120.341 5.63875V5.92H122.341V5.63875H120.341ZM120.341 5.92C120.341 6.05487 120.33 6.18018 120.308 6.29707L122.276 6.65584C122.32 6.41446 122.341 6.1688 122.341 5.92H120.341ZM120.043 6.95907C119.977 7.05889 119.899 7.15839 119.805 7.25725L121.257 8.63274C121.428 8.45274 121.581 8.2608 121.715 8.05662L120.043 6.95907ZM119.804 7.25837C119.74 7.32592 119.644 7.40044 119.495 7.47181L120.358 9.27569C120.695 9.11444 121.002 8.90313 121.258 8.63162L119.804 7.25837ZM118.397 7.7279C118.198 7.74565 117.98 7.755 117.741 7.755V9.755C118.031 9.755 118.309 9.74365 118.575 9.71999L118.397 7.7279ZM150.379 38.005H150.879V37.505H150.379V38.005ZM150.154 38.005V37.505H149.724L149.66 37.9304L150.154 38.005ZM147.724 41.965L147.422 41.5671L147.724 41.965ZM137.059 42.505L136.857 42.9623L136.857 42.9623L137.059 42.505ZM132.964 39.445L132.587 39.7725L132.587 39.7725L132.964 39.445ZM130.219 34.405L130.695 34.249L130.695 34.249L130.219 34.405ZM130.264 20.41L130.738 20.5702L130.738 20.5702L130.264 20.41ZM133.144 15.28L132.775 14.9428L132.771 14.9473L133.144 15.28ZM137.644 12.13L137.836 12.592L137.836 12.592L137.644 12.13ZM150.739 12.895L150.481 13.3232L150.486 13.326L150.739 12.895ZM155.554 18.34L155.803 18.7739L156.207 18.5426L156.005 18.1231L155.554 18.34ZM149.974 21.535L149.509 21.7168L149.72 22.2571L150.223 21.9689L149.974 21.535ZM147.724 18.43L147.4 18.8105L147.407 18.816L147.724 18.43ZM138.364 18.97L138.714 19.3278L138.714 19.3278L138.364 18.97ZM138.364 35.62L138.011 35.9736L138.015 35.9778L138.364 35.62ZM145.834 37.195L145.951 37.6812L145.96 37.679L145.969 37.6765L145.834 37.195ZM147.814 36.295L148.097 36.7077L148.104 36.7027L148.111 36.6975L147.814 36.295ZM149.119 34.81L148.687 34.5595L148.682 34.5682L148.677 34.5771L149.119 34.81ZM149.614 31.21H150.114V30.71H149.614V31.21ZM143.764 31.21H143.264V31.71H143.764V31.21ZM143.764 25.495V24.995H143.264V25.495H143.764ZM156.139 25.495H156.639V24.995H156.139V25.495ZM156.139 43V43.5H156.639V43H156.139ZM150.379 43H149.879V43.5H150.379V43ZM150.379 37.505H150.323V38.505H150.379V37.505ZM150.211 37.505H150.154V38.505H150.211V37.505ZM149.66 37.9304C149.604 38.3009 149.515 38.6534 149.393 38.9886L150.333 39.3302C150.478 38.9303 150.583 38.5132 150.649 38.0796L149.66 37.9304ZM148.248 40.8277C148.005 41.0864 147.729 41.333 147.422 41.5671L148.027 42.3629C148.376 42.0978 148.692 41.8146 148.976 41.513L148.248 40.8277ZM147.422 41.5671C147.066 41.8374 146.674 42.0714 146.242 42.2684L146.657 43.1781C147.153 42.9519 147.61 42.6804 148.027 42.3629L147.422 41.5671ZM143.53 42.9675C143.079 43.0157 142.602 43.04 142.099 43.04V44.04C142.634 44.04 143.146 44.0141 143.636 43.9618L143.53 42.9675ZM142.099 43.04C141.677 43.04 141.261 43.0203 140.854 42.9809L140.758 43.9763C141.198 44.0188 141.646 44.04 142.099 44.04V43.04ZM138.422 42.4872C138.028 42.362 137.641 42.2156 137.262 42.0477L136.857 42.9623C137.27 43.1447 137.69 43.3041 138.119 43.4403L138.422 42.4872ZM137.262 42.0477C136.884 41.8808 136.519 41.6938 136.166 41.4867L135.66 42.3494C136.046 42.5758 136.445 42.7801 136.857 42.9623L137.262 42.0477ZM134.198 40.0102C133.902 39.732 133.617 39.4345 133.342 39.1175L132.587 39.7725C132.883 40.1145 133.192 40.4367 133.514 40.7389L134.198 40.0102ZM133.342 39.1175C133.045 38.7743 132.764 38.4082 132.5 38.0189L131.672 38.5803C131.958 39.0011 132.263 39.3986 132.587 39.7725L133.342 39.1175ZM131.184 35.5648C131.008 35.1446 130.845 34.706 130.695 34.249L129.744 34.561C129.902 35.0421 130.075 35.5058 130.262 35.9518L131.184 35.5648ZM130.695 34.249C130.607 33.9811 130.525 33.7072 130.449 33.4271L129.483 33.6891C129.564 33.9855 129.651 34.2762 129.744 34.561L130.695 34.249ZM130.077 31.7458C129.98 31.1948 129.904 30.6235 129.848 30.0319L128.852 30.1266C128.911 30.7426 128.991 31.3397 129.092 31.9178L130.077 31.7458ZM129.742 28.2998C129.734 28.0141 129.729 27.7241 129.729 27.43H128.729C128.729 27.7335 128.734 28.0332 128.742 28.3289L129.742 28.2998ZM129.729 27.43C129.729 27.1341 129.734 26.8422 129.743 26.5543L128.743 26.5237C128.734 26.8221 128.729 27.1241 128.729 27.43H129.729ZM129.855 24.8109C129.914 24.2167 129.994 23.6419 130.095 23.0865L129.111 22.9076C129.005 23.4908 128.921 24.0922 128.859 24.7117L129.855 24.8109ZM130.483 21.3962C130.562 21.1152 130.647 20.8398 130.738 20.5702L129.791 20.2498C129.694 20.5363 129.604 20.8283 129.52 21.1258L130.483 21.3962ZM130.738 20.5702C130.896 20.1037 131.068 19.6559 131.254 19.2266L130.336 18.829C130.139 19.2848 129.957 19.7584 129.791 20.2498L130.738 20.5702ZM132.637 16.728C132.913 16.3335 133.207 15.9618 133.518 15.6127L132.771 14.9473C132.433 15.3264 132.115 15.7289 131.818 16.1547L132.637 16.728ZM133.514 15.6171C133.816 15.2864 134.132 14.9757 134.462 14.6849L133.801 13.9346C133.443 14.2497 133.101 14.5858 132.775 14.9429L133.514 15.6171ZM136.635 13.1649C137.02 12.9547 137.421 12.7637 137.836 12.592L137.453 11.668C137.006 11.853 136.574 12.0593 136.156 12.2868L136.635 13.1649ZM137.836 12.592C138.272 12.4114 138.722 12.2541 139.185 12.1203L138.907 11.1596C138.409 11.3035 137.925 11.4729 137.453 11.668L137.836 12.592ZM142.007 11.6091C142.476 11.5698 142.957 11.55 143.449 11.55V10.55C142.93 10.55 142.422 10.5708 141.923 10.6126L142.007 11.6091ZM143.449 11.55C143.764 11.55 144.072 11.5578 144.375 11.5734L144.427 10.5748C144.106 10.5582 143.78 10.55 143.449 10.55V11.55ZM146.208 11.7732C146.828 11.879 147.422 12.0223 147.99 12.2026L148.293 11.2494C147.678 11.0545 147.039 10.9006 146.377 10.7874L146.208 11.7732ZM149.683 12.8848C149.956 13.0206 150.222 13.1667 150.481 13.3232L150.998 12.4668C150.715 12.2963 150.425 12.1372 150.128 11.9895L149.683 12.8848ZM150.486 13.326C150.74 13.4752 150.986 13.6344 151.226 13.8035L151.803 12.9865C151.54 12.8014 151.27 12.6273 150.993 12.464L150.486 13.326ZM152.575 14.9341C152.987 15.3403 153.372 15.7852 153.732 16.269L154.535 15.6721C154.146 15.1491 153.727 14.6657 153.278 14.2225L152.575 14.9341ZM154.694 17.7636C154.836 18.0197 154.973 18.2841 155.104 18.5569L156.005 18.1231C155.865 17.8333 155.72 17.5516 155.568 17.278L154.694 17.7636ZM155.306 17.9061L154.609 18.3055L155.105 19.1733L155.803 18.7739L155.306 17.9061ZM153.214 19.1042L151.819 19.903L152.315 20.7708L153.71 19.972L153.214 19.1042ZM150.424 20.7017L149.726 21.1011L150.223 21.9689L150.92 21.5695L150.424 20.7017ZM150.44 21.3532C150.314 21.0293 150.17 20.7174 150.007 20.4177L149.128 20.894C149.27 21.1564 149.397 21.4306 149.509 21.7168L150.44 21.3532ZM148.796 18.7469C148.562 18.4993 148.311 18.2651 148.042 18.044L147.407 18.816C147.644 19.0113 147.865 19.2174 148.07 19.4341L148.796 18.7469ZM148.049 18.0496C147.732 17.7794 147.382 17.5483 146.999 17.3558L146.55 18.2492C146.864 18.4071 147.147 18.5943 147.4 18.8104L148.049 18.0496ZM144.646 16.6903C144.264 16.6466 143.866 16.625 143.449 16.625V17.625C143.831 17.625 144.192 17.6448 144.532 17.6838L144.646 16.6903ZM143.449 16.625C142.944 16.625 142.459 16.6582 141.994 16.7253L142.137 17.715C142.55 17.6553 142.988 17.625 143.449 17.625V16.625ZM139.2 17.6934C138.771 17.9531 138.376 18.2596 138.015 18.6122L138.714 19.3278C139.021 19.0278 139.356 18.7683 139.718 18.5485L139.2 17.6934ZM138.015 18.6122C137.811 18.8118 137.622 19.0277 137.448 19.2598L138.249 19.8585C138.392 19.6672 138.547 19.4904 138.714 19.3278L138.015 18.6122ZM136.631 20.745C136.437 21.2363 136.288 21.7696 136.181 22.3433L137.164 22.5267C137.26 22.0079 137.394 21.5369 137.561 21.1121L136.631 20.745ZM135.995 23.9656C135.981 24.2285 135.974 24.4984 135.974 24.775H136.974C136.974 24.5145 136.981 24.2618 136.993 24.0169L135.995 23.9656ZM135.974 24.775V26.035H136.974V24.775H135.974ZM135.974 28.555V29.815H136.974V28.555H135.974ZM135.974 29.815C135.974 30.0915 135.981 30.3613 135.995 30.6244L136.994 30.5721C136.981 30.3273 136.974 30.075 136.974 29.815H135.974ZM136.184 32.246C136.292 32.8175 136.443 33.3499 136.638 33.8418L137.568 33.473C137.399 33.0468 137.265 32.5763 137.167 32.06L136.184 32.246ZM137.452 35.324C137.623 35.5557 137.81 35.7723 138.011 35.9736L138.718 35.2664C138.552 35.1009 138.399 34.922 138.256 34.7296L137.452 35.324ZM138.015 35.9778C138.376 36.3304 138.771 36.6369 139.2 36.8966L139.718 36.0415C139.356 35.8217 139.021 35.5622 138.714 35.2622L138.015 35.9778ZM141.994 37.8647C142.459 37.9318 142.944 37.965 143.449 37.965V36.965C142.988 36.965 142.55 36.9347 142.137 36.875L141.994 37.8647ZM143.449 37.965C143.661 37.965 143.87 37.9595 144.077 37.9485L144.024 36.9499C143.835 36.96 143.644 36.965 143.449 36.965V37.965ZM145.331 37.809C145.54 37.7727 145.747 37.7301 145.951 37.6812L145.718 36.7088C145.535 36.7527 145.349 36.7909 145.16 36.8236L145.331 37.809ZM145.969 37.6765C146.159 37.6234 146.343 37.5648 146.523 37.5005L146.187 36.5589C146.03 36.615 145.867 36.6666 145.7 36.7135L145.969 37.6765ZM147.593 37.0189C147.767 36.922 147.935 36.8183 148.097 36.7077L147.532 35.8823C147.396 35.9752 147.255 36.0627 147.107 36.1449L147.593 37.0189ZM148.111 36.6975C148.26 36.5875 148.402 36.4722 148.536 36.3515L147.866 35.609C147.758 35.7068 147.642 35.8013 147.518 35.8925L148.111 36.6975ZM149.271 35.5212C149.378 35.3675 149.475 35.208 149.562 35.0429L148.677 34.5771C148.609 34.7057 148.534 34.8301 148.45 34.9502L149.271 35.5212ZM149.552 35.0605C149.653 34.8868 149.74 34.705 149.813 34.5157L148.881 34.1542C148.826 34.2963 148.761 34.4313 148.687 34.5595L149.552 35.0605ZM150.085 33.3636C150.105 33.1754 150.114 32.9825 150.114 32.785H149.114C149.114 32.9498 149.106 33.1078 149.091 33.2593L150.085 33.3636ZM150.114 32.785V32.3912H149.114V32.785H150.114ZM150.114 31.6037V31.21H149.114V31.6037H150.114ZM149.614 30.71H148.152V31.71H149.614V30.71ZM145.227 30.71H143.764V31.71H145.227V30.71ZM144.264 31.21V29.7812H143.264V31.21H144.264ZM144.264 26.9237V25.495H143.264V26.9237H144.264ZM143.764 25.995H144.796V24.995H143.764V25.995ZM146.858 25.995H148.921V24.995H146.858V25.995ZM150.983 25.995H153.046V24.995H150.983V25.995ZM155.108 25.995H156.139V24.995H155.108V25.995ZM155.639 25.495V26.5891H156.639V25.495H155.639ZM155.639 28.7772V30.9653H156.639V28.7772H155.639ZM155.639 33.1534V35.3416H156.639V33.1534H155.639ZM155.639 37.5297V39.7178H156.639V37.5297H155.639ZM155.639 41.9059V43H156.639V41.9059H155.639ZM156.139 42.5H154.699V43.5H156.139V42.5ZM151.819 42.5H150.379V43.5H151.819V42.5ZM150.879 43V41.7512H149.879V43H150.879ZM150.879 39.2537V38.005H149.879V39.2537H150.879ZM150.379 38.005H151.379V37.005H150.379V38.005ZM150.154 38.005V37.005H149.294L149.166 37.8557L150.154 38.005ZM147.724 41.965L147.119 41.1692L147.724 41.965ZM137.059 42.505L136.655 43.4195L136.655 43.4195L137.059 42.505ZM132.964 39.445L132.209 40.0999L132.209 40.0999L132.964 39.445ZM130.219 34.405L131.17 34.093L131.17 34.093L130.219 34.405ZM130.264 20.41L131.212 20.7304L131.212 20.7304L130.264 20.41ZM133.144 15.28L132.406 14.6057L132.398 14.6146L133.144 15.28ZM137.644 12.13L138.027 13.054L138.027 13.054L137.644 12.13ZM150.739 12.895L150.223 13.7514L150.232 13.7569L150.739 12.895ZM155.554 18.34L156.051 19.2078L156.859 18.7451L156.455 17.9062L155.554 18.34ZM149.974 21.535L149.043 21.8985L149.465 22.9792L150.471 22.4028L149.974 21.535ZM147.724 18.43L147.076 19.1908L147.082 19.1964L147.089 19.2019L147.724 18.43ZM138.364 18.97L139.063 19.6856L139.063 19.6856L138.364 18.97ZM138.364 35.62L137.657 36.3272L137.666 36.3356L138.364 35.62ZM145.834 37.195L146.068 38.1674L146.086 38.163L146.104 38.158L145.834 37.195ZM147.814 36.295L148.379 37.1203L148.394 37.1104L148.408 37.1001L147.814 36.295ZM149.119 34.81L148.254 34.309L148.244 34.3264L148.235 34.3443L149.119 34.81ZM149.614 31.21H150.614V30.21H149.614V31.21ZM143.764 31.21H142.764V32.21H143.764V31.21ZM143.764 25.495V24.495H142.764V25.495H143.764ZM156.139 25.495H157.139V24.495H156.139V25.495ZM156.139 43V44H157.139V43H156.139ZM150.379 43H149.379V44H150.379V43ZM150.379 37.005H150.323V39.005H150.379V37.005ZM150.211 37.005H150.154V39.005H150.211V37.005ZM149.166 37.8557C149.115 38.1948 149.033 38.515 148.923 38.8178L150.803 39.501C150.96 39.0687 151.073 38.6193 151.143 38.1543L149.166 37.8557ZM147.884 40.485C147.661 40.7223 147.406 40.9506 147.119 41.1692L148.33 42.7608C148.699 42.4802 149.036 42.1787 149.34 41.8557L147.884 40.485ZM147.119 41.1692C146.795 41.4159 146.434 41.6311 146.034 41.8135L146.865 43.633C147.392 43.3921 147.882 43.1018 148.33 42.7608L147.119 41.1692ZM143.477 42.4703C143.045 42.5164 142.586 42.54 142.099 42.54V44.54C142.65 44.54 143.18 44.5133 143.689 44.459L143.477 42.4703ZM142.099 42.54C141.692 42.54 141.293 42.521 140.902 42.4832L140.71 44.474C141.167 44.5181 141.63 44.54 142.099 44.54V42.54ZM138.573 42.0107C138.197 41.891 137.827 41.751 137.464 41.5905L136.655 43.4195C137.084 43.6093 137.522 43.7751 137.968 43.9168L138.573 42.0107ZM137.464 41.5905C137.104 41.4312 136.756 41.2528 136.419 41.0554L135.407 42.7807C135.81 43.0168 136.226 43.2297 136.655 43.4195L137.464 41.5905ZM134.541 39.6458C134.258 39.3797 133.984 39.0945 133.72 38.7901L132.209 40.0999C132.516 40.4545 132.837 40.7891 133.171 41.1033L134.541 39.6458ZM133.72 38.7901C133.436 38.4622 133.167 38.1118 132.914 37.7383L131.259 38.8609C131.555 39.2976 131.871 39.7107 132.209 40.0999L133.72 38.7901ZM131.645 35.3713C131.474 34.964 131.316 34.538 131.17 34.093L129.269 34.717C129.431 35.2102 129.609 35.6864 129.801 36.1453L131.645 35.3713ZM131.17 34.093C131.084 33.8336 131.005 33.568 130.931 33.2961L129.001 33.8201C129.084 34.1247 129.173 34.4237 129.269 34.717L131.17 34.093ZM130.569 31.6598C130.475 31.1223 130.401 30.5639 130.346 29.9845L128.355 30.174C128.414 30.8022 128.496 31.4122 128.599 32.0038L130.569 31.6598ZM130.242 28.2853C130.234 28.0045 130.229 27.7194 130.229 27.43H128.229C128.229 27.7383 128.234 28.0427 128.243 28.3434L130.242 28.2853ZM130.229 27.43C130.229 27.139 130.234 26.8522 130.242 26.5696L128.243 26.5085C128.234 26.812 128.229 27.1192 128.229 27.43H130.229ZM130.352 24.8605C130.41 24.2789 130.488 23.7175 130.587 23.1759L128.619 22.8181C128.511 23.4153 128.425 24.03 128.362 24.6621L130.352 24.8605ZM130.964 21.5314C131.041 21.2586 131.123 20.9916 131.212 20.7304L129.317 20.0896C129.217 20.3846 129.125 20.6849 129.039 20.9906L130.964 21.5314ZM131.212 20.7304C131.365 20.2764 131.532 19.8414 131.713 19.4254L129.878 18.6302C129.674 19.0993 129.488 19.5858 129.317 20.0896L131.212 20.7304ZM133.047 17.0146C133.312 16.6358 133.593 16.2795 133.891 15.9454L132.398 14.6146C132.047 15.0087 131.717 15.4267 131.408 15.868L133.047 17.0146ZM133.883 15.9543C134.173 15.6367 134.476 15.3387 134.792 15.0601L133.47 13.5594C133.099 13.8867 132.744 14.2355 132.406 14.6057L133.883 15.9543ZM136.874 13.6039C137.244 13.4024 137.628 13.2191 138.027 13.054L137.262 11.206C136.799 11.3977 136.35 11.6116 135.917 11.8478L136.874 13.6039ZM138.027 13.054C138.446 12.8806 138.878 12.7294 139.324 12.6007L138.769 10.6793C138.253 10.8282 137.751 11.0037 137.262 11.206L138.027 13.054ZM142.049 12.1074C142.504 12.0692 142.971 12.05 143.449 12.05V10.05C142.917 10.05 142.394 10.0714 141.882 10.1144L142.049 12.1074ZM143.449 12.05C143.755 12.05 144.055 12.0576 144.35 12.0728L144.453 10.0754C144.123 10.0584 143.788 10.05 143.449 10.05V12.05ZM146.124 12.266C146.722 12.3682 147.294 12.5061 147.839 12.6792L148.444 10.7728C147.806 10.5706 147.145 10.4115 146.461 10.2946L146.124 12.266ZM149.46 13.3324C149.721 13.4622 149.975 13.6019 150.223 13.7514L151.256 12.0386C150.961 11.8611 150.66 11.6955 150.351 11.5418L149.46 13.3324ZM150.232 13.7569C150.474 13.8992 150.709 14.0509 150.937 14.2119L152.091 12.578C151.817 12.3849 151.536 12.2033 151.247 12.0331L150.232 13.7569ZM152.224 15.2899C152.617 15.6777 152.986 16.1032 153.331 16.5675L154.936 15.3736C154.532 14.831 154.097 14.3284 153.629 13.8667L152.224 15.2899ZM154.256 18.0064C154.394 18.2537 154.526 18.5095 154.653 18.7738L156.455 17.9062C156.312 17.6079 156.162 17.3175 156.005 17.0352L154.256 18.0064ZM155.058 17.4722L154.36 17.8716L155.354 19.6072L156.051 19.2078L155.058 17.4722ZM152.965 18.6703L151.57 19.4691L152.564 21.2047L153.959 20.4059L152.965 18.6703ZM150.175 20.2678L149.478 20.6672L150.471 22.4028L151.169 22.0034L150.175 20.2678ZM150.906 21.1715C150.772 20.8287 150.619 20.4979 150.447 20.1795L148.688 21.1322C148.82 21.3759 148.939 21.6312 149.043 21.8985L150.906 21.1715ZM149.16 18.4033C148.911 18.1403 148.644 17.8919 148.36 17.6581L147.089 19.2019C147.31 19.3845 147.516 19.5764 147.707 19.7778L149.16 18.4033ZM148.373 17.6692C148.025 17.3719 147.641 17.1189 147.224 16.9091L146.325 18.6959C146.605 18.8365 146.854 19.0018 147.076 19.1908L148.373 17.6692ZM144.702 16.1935C144.301 16.1474 143.883 16.125 143.449 16.125V18.125C143.814 18.125 144.155 18.1439 144.475 18.1805L144.702 16.1935ZM143.449 16.125C142.922 16.125 142.413 16.1596 141.922 16.2305L142.209 18.2099C142.596 18.1539 143.009 18.125 143.449 18.125V16.125ZM138.941 17.2658C138.479 17.5455 138.054 17.8754 137.666 18.2544L139.063 19.6856C139.343 19.412 139.648 19.1759 139.977 18.9761L138.941 17.2658ZM137.666 18.2544C137.443 18.4725 137.237 18.708 137.048 18.9604L138.65 20.1578C138.778 19.9869 138.915 19.8297 139.063 19.6856L137.666 18.2544ZM136.166 20.5615C135.959 21.086 135.801 21.6505 135.689 22.2516L137.655 22.6184C137.747 22.1271 137.872 21.6872 138.026 21.2956L136.166 20.5615ZM135.495 23.9399C135.481 24.2119 135.474 24.4903 135.474 24.775H137.474C137.474 24.5226 137.481 24.2785 137.493 24.0425L135.495 23.9399ZM135.474 24.775V26.035H137.474V24.775H135.474ZM135.474 28.555V29.815H137.474V28.555H135.474ZM135.474 29.815C135.474 30.0997 135.482 30.3783 135.496 30.6506L137.493 30.5459C137.481 30.3103 137.474 30.0667 137.474 29.815H135.474ZM135.693 32.3391C135.806 32.938 135.965 33.5015 136.174 34.0262L138.033 33.2885C137.877 32.8952 137.751 32.4557 137.658 31.967L135.693 32.3391ZM137.05 35.6212C137.236 35.8725 137.438 36.108 137.657 36.3271L139.072 34.9129C138.924 34.7652 138.786 34.6052 138.658 34.4324L137.05 35.6212ZM137.666 36.3356C138.054 36.7146 138.479 37.0445 138.941 37.3242L139.977 35.6139C139.648 35.4141 139.343 35.178 139.063 34.9044L137.666 36.3356ZM141.922 38.3595C142.413 38.4304 142.922 38.465 143.449 38.465V36.465C143.009 36.465 142.596 36.4361 142.209 36.3801L141.922 38.3595ZM143.449 38.465C143.67 38.465 143.888 38.4593 144.104 38.4478L143.998 36.4506C143.818 36.4602 143.635 36.465 143.449 36.465V38.465ZM145.416 38.3017C145.636 38.2636 145.853 38.2189 146.068 38.1674L145.601 36.2226C145.429 36.2639 145.254 36.3 145.075 36.3309L145.416 38.3017ZM146.104 38.158C146.304 38.1019 146.5 38.0397 146.692 37.9713L146.018 36.0881C145.873 36.1401 145.722 36.1881 145.565 36.232L146.104 38.158ZM147.836 37.4559C148.023 37.3517 148.204 37.2399 148.379 37.1203L147.25 35.4697C147.127 35.5536 146.999 35.6331 146.864 35.7079L147.836 37.4559ZM148.408 37.1001C148.57 36.9806 148.724 36.8549 148.871 36.7227L147.531 35.2378C147.435 35.324 147.332 35.4081 147.221 35.4899L148.408 37.1001ZM149.682 35.8067C149.8 35.6362 149.908 35.4592 150.004 35.2757L148.235 34.3443C148.177 34.4546 148.112 34.5614 148.04 34.6647L149.682 35.8067ZM149.985 35.311C150.099 35.1145 150.197 34.9094 150.279 34.6965L148.415 33.9734C148.369 34.0919 148.315 34.2035 148.254 34.309L149.985 35.311ZM150.582 33.4157C150.604 33.2092 150.614 32.9989 150.614 32.785H148.614C148.614 32.9334 148.607 33.074 148.593 33.2072L150.582 33.4157ZM150.614 32.785V32.3912H148.614V32.785H150.614ZM150.614 31.6037V31.21H148.614V31.6037H150.614ZM149.614 30.21H148.152V32.21H149.614V30.21ZM145.227 30.21H143.764V32.21H145.227V30.21ZM144.764 31.21V29.7812H142.764V31.21H144.764ZM144.764 26.9237V25.495H142.764V26.9237H144.764ZM143.764 26.495H144.796V24.495H143.764V26.495ZM146.858 26.495H148.921V24.495H146.858V26.495ZM150.983 26.495H153.046V24.495H150.983V26.495ZM155.108 26.495H156.139V24.495H155.108V26.495ZM155.139 25.495V26.5891H157.139V25.495H155.139ZM155.139 28.7772V30.9653H157.139V28.7772H155.139ZM155.139 33.1534V35.3416H157.139V33.1534H155.139ZM155.139 37.5297V39.7178H157.139V37.5297H155.139ZM155.139 41.9059V43H157.139V41.9059H155.139ZM156.139 42H154.699V44H156.139V42ZM151.819 42H150.379V44H151.819V42ZM151.379 43V41.7512H149.379V43H151.379ZM151.379 39.2537V38.005H149.379V39.2537H151.379ZM162.788 43H162.288V43.5H162.788V43ZM162.788 11.59V11.09H162.288V11.59H162.788ZM184.163 11.59H184.663V11.09H184.163V11.59ZM184.163 17.665V18.165H184.663V17.665H184.163ZM169.628 17.665V17.165H169.128V17.665H169.628ZM169.628 24.1H169.128V24.6H169.628V24.1ZM182.093 24.1H182.593V23.6H182.093V24.1ZM182.093 30.13V30.63H182.593V30.13H182.093ZM169.628 30.13V29.63H169.128V30.13H169.628ZM169.628 36.925H169.128V37.425H169.628V36.925ZM184.163 36.925H184.663V36.425H184.163V36.925ZM184.163 43V43.5H184.663V43H184.163ZM163.288 43V42.0184H162.288V43H163.288ZM163.288 40.0553V38.0922H162.288V40.0553H163.288ZM163.288 36.1291V34.1659H162.288V36.1291H163.288ZM163.288 32.2028V30.2397H162.288V32.2028H163.288ZM163.288 28.2766V26.3134H162.288V28.2766H163.288ZM163.288 24.3503V22.3872H162.288V24.3503H163.288ZM163.288 20.4241V18.4609H162.288V20.4241H163.288ZM163.288 16.4978V14.5347H162.288V16.4978H163.288ZM163.288 12.5716V11.59H162.288V12.5716H163.288ZM162.788 12.09H163.857V11.09H162.788V12.09ZM165.994 12.09H168.132V11.09H165.994V12.09ZM170.269 12.09H172.407V11.09H170.269V12.09ZM174.544 12.09H176.682V11.09H174.544V12.09ZM178.819 12.09H180.957V11.09H178.819V12.09ZM183.094 12.09H184.163V11.09H183.094V12.09ZM183.663 11.59V12.3494H184.663V11.59H183.663ZM183.663 13.8681V15.3869H184.663V13.8681H183.663ZM183.663 16.9056V17.665H184.663V16.9056H183.663ZM184.163 17.165H183.255V18.165H184.163V17.165ZM181.438 17.165H179.621V18.165H181.438V17.165ZM177.804 17.165H175.987V18.165H177.804V17.165ZM174.17 17.165H172.354V18.165H174.17V17.165ZM170.537 17.165H169.628V18.165H170.537V17.165ZM169.128 17.665V18.4694H170.128V17.665H169.128ZM169.128 20.0781V21.6869H170.128V20.0781H169.128ZM169.128 23.2956V24.1H170.128V23.2956H169.128ZM169.628 24.6H170.667V23.6H169.628V24.6ZM172.744 24.6H174.822V23.6H172.744V24.6ZM176.899 24.6H178.977V23.6H176.899V24.6ZM181.054 24.6H182.093V23.6H181.054V24.6ZM181.593 24.1V24.8537H182.593V24.1H181.593ZM181.593 26.3612V27.8687H182.593V26.3612H181.593ZM181.593 29.3762V30.13H182.593V29.3762H181.593ZM182.093 29.63H181.054V30.63H182.093V29.63ZM178.977 29.63H176.899V30.63H178.977V29.63ZM174.822 29.63H172.744V30.63H174.822V29.63ZM170.667 29.63H169.628V30.63H170.667V29.63ZM169.128 30.13V30.9794H170.128V30.13H169.128ZM169.128 32.6781V34.3769H170.128V32.6781H169.128ZM169.128 36.0756V36.925H170.128V36.0756H169.128ZM169.628 37.425H170.537V36.425H169.628V37.425ZM172.354 37.425H174.17V36.425H172.354V37.425ZM175.987 37.425H177.804V36.425H175.987V37.425ZM179.621 37.425H181.438V36.425H179.621V37.425ZM183.255 37.425H184.163V36.425H183.255V37.425ZM183.663 36.925V37.6844H184.663V36.925H183.663ZM183.663 39.2031V40.7219H184.663V39.2031H183.663ZM183.663 42.2406V43H184.663V42.2406H183.663ZM184.163 42.5H183.094V43.5H184.163V42.5ZM180.957 42.5H178.819V43.5H180.957V42.5ZM176.682 42.5H174.544V43.5H176.682V42.5ZM172.407 42.5H170.269V43.5H172.407V42.5ZM168.132 42.5H165.994V43.5H168.132V42.5ZM163.857 42.5H162.788V43.5H163.857V42.5ZM162.788 43H161.788V44H162.788V43ZM162.788 11.59V10.59H161.788V11.59H162.788ZM184.163 11.59H185.163V10.59H184.163V11.59ZM184.163 17.665V18.665H185.163V17.665H184.163ZM169.628 17.665V16.665H168.628V17.665H169.628ZM169.628 24.1H168.628V25.1H169.628V24.1ZM182.093 24.1H183.093V23.1H182.093V24.1ZM182.093 30.13V31.13H183.093V30.13H182.093ZM169.628 30.13V29.13H168.628V30.13H169.628ZM169.628 36.925H168.628V37.925H169.628V36.925ZM184.163 36.925H185.163V35.925H184.163V36.925ZM184.163 43V44H185.163V43H184.163ZM163.788 43V42.0184H161.788V43H163.788ZM163.788 40.0553V38.0922H161.788V40.0553H163.788ZM163.788 36.1291V34.1659H161.788V36.1291H163.788ZM163.788 32.2028V30.2397H161.788V32.2028H163.788ZM163.788 28.2766V26.3134H161.788V28.2766H163.788ZM163.788 24.3503V22.3872H161.788V24.3503H163.788ZM163.788 20.4241V18.4609H161.788V20.4241H163.788ZM163.788 16.4978V14.5347H161.788V16.4978H163.788ZM163.788 12.5716V11.59H161.788V12.5716H163.788ZM162.788 12.59H163.857V10.59H162.788V12.59ZM165.994 12.59H168.132V10.59H165.994V12.59ZM170.269 12.59H172.407V10.59H170.269V12.59ZM174.544 12.59H176.682V10.59H174.544V12.59ZM178.819 12.59H180.957V10.59H178.819V12.59ZM183.094 12.59H184.163V10.59H183.094V12.59ZM183.163 11.59V12.3494H185.163V11.59H183.163ZM183.163 13.8681V15.3869H185.163V13.8681H183.163ZM183.163 16.9056V17.665H185.163V16.9056H183.163ZM184.163 16.665H183.255V18.665H184.163V16.665ZM181.438 16.665H179.621V18.665H181.438V16.665ZM177.804 16.665H175.987V18.665H177.804V16.665ZM174.17 16.665H172.354V18.665H174.17V16.665ZM170.537 16.665H169.628V18.665H170.537V16.665ZM168.628 17.665V18.4694H170.628V17.665H168.628ZM168.628 20.0781V21.6869H170.628V20.0781H168.628ZM168.628 23.2956V24.1H170.628V23.2956H168.628ZM169.628 25.1H170.667V23.1H169.628V25.1ZM172.744 25.1H174.822V23.1H172.744V25.1ZM176.899 25.1H178.977V23.1H176.899V25.1ZM181.054 25.1H182.093V23.1H181.054V25.1ZM181.093 24.1V24.8537H183.093V24.1H181.093ZM181.093 26.3612V27.8687H183.093V26.3612H181.093ZM181.093 29.3762V30.13H183.093V29.3762H181.093ZM182.093 29.13H181.054V31.13H182.093V29.13ZM178.977 29.13H176.899V31.13H178.977V29.13ZM174.822 29.13H172.744V31.13H174.822V29.13ZM170.667 29.13H169.628V31.13H170.667V29.13ZM168.628 30.13V30.9794H170.628V30.13H168.628ZM168.628 32.6781V34.3769H170.628V32.6781H168.628ZM168.628 36.0756V36.925H170.628V36.0756H168.628ZM169.628 37.925H170.537V35.925H169.628V37.925ZM172.354 37.925H174.17V35.925H172.354V37.925ZM175.987 37.925H177.804V35.925H175.987V37.925ZM179.621 37.925H181.438V35.925H179.621V37.925ZM183.255 37.925H184.163V35.925H183.255V37.925ZM183.163 36.925V37.6844H185.163V36.925H183.163ZM183.163 39.2031V40.7219H185.163V39.2031H183.163ZM183.163 42.2406V43H185.163V42.2406H183.163ZM184.163 42H183.094V44H184.163V42ZM180.957 42H178.819V44H180.957V42ZM176.682 42H174.544V44H176.682V42ZM172.407 42H170.269V44H172.407V42ZM168.132 42H165.994V44H168.132V42ZM163.857 42H162.788V44H163.857V42ZM199.707 28.15L199.256 28.3658L199.265 28.3835L199.274 28.4005L199.707 28.15ZM196.692 21.85L197.143 21.6342L197.007 21.35H196.692V21.85ZM196.557 21.85V21.35H196.057V21.85H196.557ZM196.557 43V43.5H197.057V43H196.557ZM190.122 43H189.622V43.5H190.122V43ZM190.122 11.59V11.09H189.622V11.59H190.122ZM197.592 11.59L198.025 11.3395L197.881 11.09H197.592V11.59ZM206.187 26.44L206.638 26.2242L206.63 26.2065L206.62 26.1895L206.187 26.44ZM209.202 32.74L208.751 32.9558L208.887 33.24H209.202V32.74ZM209.337 32.74V33.24H209.837V32.74H209.337ZM209.337 11.59V11.09H208.837V11.59H209.337ZM215.772 11.59H216.272V11.09H215.772V11.59ZM215.772 43V43.5H216.272V43H215.772ZM208.302 43L207.869 43.2505L208.014 43.5H208.302V43ZM200.158 27.9342L199.781 27.1467L198.879 27.5783L199.256 28.3658L200.158 27.9342ZM199.028 25.5717L198.274 23.9967L197.372 24.4283L198.126 26.0033L199.028 25.5717ZM197.52 22.4217L197.143 21.6342L196.241 22.0658L196.618 22.8533L197.52 22.4217ZM196.692 21.35H196.658V22.35H196.692V21.35ZM196.591 21.35H196.557V22.35H196.591V21.35ZM196.057 21.85V22.9075H197.057V21.85H196.057ZM196.057 25.0225V27.1375H197.057V25.0225H196.057ZM196.057 29.2525V31.3675H197.057V29.2525H196.057ZM196.057 33.4825V35.5975H197.057V33.4825H196.057ZM196.057 37.7125V39.8275H197.057V37.7125H196.057ZM196.057 41.9425V43H197.057V41.9425H196.057ZM196.557 42.5H195.753V43.5H196.557V42.5ZM194.144 42.5H192.535V43.5H194.144V42.5ZM190.927 42.5H190.122V43.5H190.927V42.5ZM190.622 43V42.0184H189.622V43H190.622ZM190.622 40.0553V38.0922H189.622V40.0553H190.622ZM190.622 36.1291V34.1659H189.622V36.1291H190.622ZM190.622 32.2028V30.2397H189.622V32.2028H190.622ZM190.622 28.2766V26.3134H189.622V28.2766H190.622ZM190.622 24.3503V22.3872H189.622V24.3503H190.622ZM190.622 20.4241V18.4609H189.622V20.4241H190.622ZM190.622 16.4978V14.5347H189.622V16.4978H190.622ZM190.622 12.5716V11.59H189.622V12.5716H190.622ZM190.122 12.09H191.056V11.09H190.122V12.09ZM192.923 12.09H194.791V11.09H192.923V12.09ZM196.658 12.09H197.592V11.09H196.658V12.09ZM197.159 11.8405L197.697 12.7686L198.562 12.2677L198.025 11.3395L197.159 11.8405ZM198.771 14.6248L199.845 16.4811L200.711 15.9802L199.637 14.1239L198.771 14.6248ZM200.92 18.3373L201.994 20.1936L202.86 19.6927L201.785 17.8364L200.92 18.3373ZM203.069 22.0498L204.143 23.9061L205.008 23.4052L203.934 21.5489L203.069 22.0498ZM205.217 25.7623L205.754 26.6905L206.62 26.1895L206.083 25.2614L205.217 25.7623ZM205.736 26.6558L206.113 27.4433L207.015 27.0117L206.638 26.2242L205.736 26.6558ZM206.867 29.0183L207.621 30.5933L208.523 30.1617L207.769 28.5867L206.867 29.0183ZM208.374 32.1683L208.751 32.9558L209.653 32.5242L209.276 31.7367L208.374 32.1683ZM209.202 33.24H209.236V32.24H209.202V33.24ZM209.303 33.24H209.337V32.24H209.303V33.24ZM209.837 32.74V31.6825H208.837V32.74H209.837ZM209.837 29.5675V27.4525H208.837V29.5675H209.837ZM209.837 25.3375V23.2225H208.837V25.3375H209.837ZM209.837 21.1075V18.9925H208.837V21.1075H209.837ZM209.837 16.8775V14.7625H208.837V16.8775H209.837ZM209.837 12.6475V11.59H208.837V12.6475H209.837ZM209.337 12.09H210.142V11.09H209.337V12.09ZM211.75 12.09H213.359V11.09H211.75V12.09ZM214.968 12.09H215.772V11.09H214.968V12.09ZM215.272 11.59V12.5716H216.272V11.59H215.272ZM215.272 14.5347V16.4978H216.272V14.5347H215.272ZM215.272 18.4609V20.4241H216.272V18.4609H215.272ZM215.272 22.3872V24.3503H216.272V22.3872H215.272ZM215.272 26.3134V28.2766H216.272V26.3134H215.272ZM215.272 30.2397V32.2028H216.272V30.2397H215.272ZM215.272 34.1659V36.1291H216.272V34.1659H215.272ZM215.272 38.0922V40.0553H216.272V38.0922H215.272ZM215.272 42.0184V43H216.272V42.0184H215.272ZM215.772 42.5H214.838V43.5H215.772V42.5ZM212.971 42.5H211.103V43.5H212.971V42.5ZM209.236 42.5H208.302V43.5H209.236V42.5ZM208.735 42.7495L208.198 41.8214L207.332 42.3223L207.869 43.2505L208.735 42.7495ZM207.123 39.9652L206.049 38.1089L205.184 38.6098L206.258 40.4661L207.123 39.9652ZM204.975 36.2527L203.9 34.3964L203.035 34.8973L204.109 36.7536L204.975 36.2527ZM202.826 32.5402L201.752 30.6839L200.886 31.1848L201.96 33.0411L202.826 32.5402ZM200.677 28.8277L200.14 27.8995L199.274 28.4005L199.812 29.3286L200.677 28.8277ZM199.707 28.15L198.805 28.5817L198.822 28.617L198.842 28.6509L199.707 28.15ZM196.692 21.85L197.594 21.4183L197.322 20.85H196.692V21.85ZM196.557 21.85V20.85H195.557V21.85H196.557ZM196.557 43V44H197.557V43H196.557ZM190.122 43H189.122V44H190.122V43ZM190.122 11.59V10.59H189.122V11.59H190.122ZM197.592 11.59L198.458 11.0891L198.169 10.59H197.592V11.59ZM206.187 26.44L207.089 26.0083L207.072 25.973L207.053 25.9391L206.187 26.44ZM209.202 32.74L208.3 33.1717L208.572 33.74H209.202V32.74ZM209.337 32.74V33.74H210.337V32.74H209.337ZM209.337 11.59V10.59H208.337V11.59H209.337ZM215.772 11.59H216.772V10.59H215.772V11.59ZM215.772 43V44H216.772V43H215.772ZM208.302 43L207.437 43.5009L207.726 44H208.302V43ZM200.609 27.7183L200.232 26.9308L198.428 27.7942L198.805 28.5817L200.609 27.7183ZM199.479 25.3558L198.725 23.7808L196.921 24.6442L197.675 26.2192L199.479 25.3558ZM197.971 22.2058L197.594 21.4183L195.79 22.2817L196.167 23.0692L197.971 22.2058ZM196.692 20.85H196.658V22.85H196.692V20.85ZM196.591 20.85H196.557V22.85H196.591V20.85ZM195.557 21.85V22.9075H197.557V21.85H195.557ZM195.557 25.0225V27.1375H197.557V25.0225H195.557ZM195.557 29.2525V31.3675H197.557V29.2525H195.557ZM195.557 33.4825V35.5975H197.557V33.4825H195.557ZM195.557 37.7125V39.8275H197.557V37.7125H195.557ZM195.557 41.9425V43H197.557V41.9425H195.557ZM196.557 42H195.753V44H196.557V42ZM194.144 42H192.535V44H194.144V42ZM190.927 42H190.122V44H190.927V42ZM191.122 43V42.0184H189.122V43H191.122ZM191.122 40.0553V38.0922H189.122V40.0553H191.122ZM191.122 36.1291V34.1659H189.122V36.1291H191.122ZM191.122 32.2028V30.2397H189.122V32.2028H191.122ZM191.122 28.2766V26.3134H189.122V28.2766H191.122ZM191.122 24.3503V22.3872H189.122V24.3503H191.122ZM191.122 20.4241V18.4609H189.122V20.4241H191.122ZM191.122 16.4978V14.5347H189.122V16.4978H191.122ZM191.122 12.5716V11.59H189.122V12.5716H191.122ZM190.122 12.59H191.056V10.59H190.122V12.59ZM192.923 12.59H194.791V10.59H192.923V12.59ZM196.658 12.59H197.592V10.59H196.658V12.59ZM196.727 12.0909L197.264 13.0191L198.995 12.0172L198.458 11.0891L196.727 12.0909ZM198.338 14.8753L199.413 16.7316L201.144 15.7297L200.069 13.8734L198.338 14.8753ZM200.487 18.5878L201.561 20.4441L203.292 19.4422L202.218 17.5859L200.487 18.5878ZM202.636 22.3003L203.71 24.1566L205.441 23.1547L204.367 21.2984L202.636 22.3003ZM204.785 26.0128L205.322 26.9409L207.053 25.9391L206.516 25.0109L204.785 26.0128ZM205.285 26.8717L205.662 27.6592L207.466 26.7958L207.089 26.0083L205.285 26.8717ZM206.416 29.2342L207.17 30.8092L208.974 29.9458L208.22 28.3708L206.416 29.2342ZM207.923 32.3842L208.3 33.1717L210.104 32.3083L209.727 31.5208L207.923 32.3842ZM209.202 33.74H209.236V31.74H209.202V33.74ZM209.303 33.74H209.337V31.74H209.303V33.74ZM210.337 32.74V31.6825H208.337V32.74H210.337ZM210.337 29.5675V27.4525H208.337V29.5675H210.337ZM210.337 25.3375V23.2225H208.337V25.3375H210.337ZM210.337 21.1075V18.9925H208.337V21.1075H210.337ZM210.337 16.8775V14.7625H208.337V16.8775H210.337ZM210.337 12.6475V11.59H208.337V12.6475H210.337ZM209.337 12.59H210.142V10.59H209.337V12.59ZM211.75 12.59H213.359V10.59H211.75V12.59ZM214.968 12.59H215.772V10.59H214.968V12.59ZM214.772 11.59V12.5716H216.772V11.59H214.772ZM214.772 14.5347V16.4978H216.772V14.5347H214.772ZM214.772 18.4609V20.4241H216.772V18.4609H214.772ZM214.772 22.3872V24.3503H216.772V22.3872H214.772ZM214.772 26.3134V28.2766H216.772V26.3134H214.772ZM214.772 30.2397V32.2028H216.772V30.2397H214.772ZM214.772 34.1659V36.1291H216.772V34.1659H214.772ZM214.772 38.0922V40.0553H216.772V38.0922H214.772ZM214.772 42.0184V43H216.772V42.0184H214.772ZM215.772 42H214.838V44H215.772V42ZM212.971 42H211.103V44H212.971V42ZM209.236 42H208.302V44H209.236V42ZM209.168 42.4991L208.631 41.5709L206.9 42.5728L207.437 43.5009L209.168 42.4991ZM207.556 39.7147L206.482 37.8584L204.751 38.8603L205.825 40.7166L207.556 39.7147ZM205.407 36.0022L204.333 34.1459L202.602 35.1478L203.676 37.0041L205.407 36.0022ZM203.259 32.2897L202.184 30.4334L200.453 31.4353L201.528 33.2916L203.259 32.2897ZM201.11 28.5772L200.573 27.6491L198.842 28.6509L199.379 29.5791L201.11 28.5772Z" fill="#DADADA"></path> </svg> 